<?xml version="1.0" standalone="no"?>
<!DOCTYPE svg PUBLIC "-//W3C//DTD SVG 1.1//EN" "http://www.w3.org/Graphics/SVG/1.1/DTD/svg11.dtd" >
<svg xmlns="http://www.w3.org/2000/svg" xmlns:xlink="http://www.w3.org/1999/xlink" version="1.1">
<metadata>
Created by FontForge 20201107 at Wed Jan 29 12:58:38 2025
 By 
Copyright (c) 2024 by Hossein Heidari. All rights reserved. Contemporary Arabic-Latin typeface. Designed byHossein Heidari.
</metadata>
<defs>
<font id="Lahzeh-Medium" horiz-adv-x="0" >
  <font-face 
    font-family="Lahzeh Medium"
    font-weight="500"
    font-stretch="normal"
    units-per-em="2048"
    panose-1="0 0 0 0 0 0 0 0 0 0"
    ascent="1638"
    descent="-410"
    x-height="1094"
    cap-height="1483"
    bbox="-436 -1229 5325 2277"
    underline-thickness="102"
    underline-position="-214"
    unicode-range="U+0020-FFFC"
  />
<missing-glyph horiz-adv-x="1411" 
d="M1090 1313q-105 45 -385 45q-278 0 -383 -45v-1110q105 -45 383 -45q280 0 385 45v1110zM299 0l-135 135v1387h971l112 -115v-1407h-948z" />
    <glyph glyph-name="uni0622" unicode="&#x627;&#x653;" horiz-adv-x="542" 
d="M143 1249l252 19l2 -1248l-215 -20zM-145 1686q230 -39 405.5 -39t394.5 43l2 -215q-198 -44 -359 -46.5t-355 35.5v-174h-142l-14 299z" />
    <glyph glyph-name="uni0623" unicode="&#x627;&#x654;" horiz-adv-x="542" 
d="M96 1335l-45 113l76 39q-21 3 -33 31l-43 88q-19 34 -16 69q0 18 16 64q5 10 15 38t14 38l121 53q45 21 88.5 6t68.5 -57l17 -37l-80 -37q-31 47 -74 26l-65 -34q-11 -28 -15 -47q-4 -12 -4 -25q0 -25 17 -53l24 -47q15 -29 34 -33t54 16l201 115l53 -107zM143 1249
l252 19l2 -1248l-215 -20z" />
    <glyph glyph-name="uni0625" unicode="&#x627;&#x655;" horiz-adv-x="544" 
d="M143 1458l254 19l2 -1459l-215 -20zM145 -659l-45 112l76 39q-19 3 -33 31l-43 88q-19 34 -16 70q0 17 16 63q4 8 29 78l121 53q45 19 89 4.5t69 -55.5l16 -39l-80 -35q-32 45 -74 25l-65 -33q-12 -35 -15 -49q-4 -12 -4 -25q0 -20 17 -53l24 -47q15 -28 33.5 -31.5
t54.5 17.5l201 112l53 -104z" />
    <glyph glyph-name="uni0626.isol" unicode="&#x64a;&#x654;" horiz-adv-x="1650" 
d="M143 608l238 10v-571q0 -113 72.5 -184.5t185.5 -71.5q191 0 313.5 9.5t214.5 39.5q116 40 144 125q2 7 2 45q0 23 -12 32t-44 9h-387q-118 0 -171.5 54t-53.5 174v479l273 243h284q106 0 192.5 -81t86.5 -187v-80l-191 -10q-3 52 -41 91.5t-88 39.5h-184l-107 -92
l-12 -322q0 -48 21.5 -69t72.5 -21h371q89 0 136.5 -43t47.5 -127v-131q-12 -212 -190 -325q-108 -66 -273 -93.5t-405 -27.5q-132 0 -246.5 63.5t-182 174t-67.5 239.5v608zM211 795l-45 112l76 39q-21 3 -33 31l-43 88q-19 34 -16 70q0 17 16 63q5 10 15 38t14 38l120 53
q45 21 89 6t69 -57l16 -37l-79 -37q-32 47 -74 27l-66 -35q-9 -23 -14 -47q-4 -12 -4 -25q0 -26 16 -53l25 -47q15 -29 34 -32.5t54 16.5l201 114l53 -106z" />
    <glyph glyph-name="uni06C0" unicode="&#x647;&#x654;" horiz-adv-x="1214" 
d="M430 1427q102 0 153 10.5t70 43.5q2 6 2 28q0 23 -16 23h-141q-41 0 -60.5 20t-19.5 64v164l96 86h92q40 0 70 -26t31 -64l2 -33l-70 -6q0 19 -14 32t-35 13h-53l-37 -31l-4 -109q0 -15 7 -21.5t25 -6.5h134q32 0 49.5 -20.5t17.5 -51.5v-45q0 -88 -71 -127t-228 -39v96z
M754 279q35 6 60.5 46.5t25.5 86.5q-9 82 -33.5 175t-46.5 132q-28 48 -127 84l-53 20l-95 -90q-10 -10 -32 -31t-31 -29.5t-22 -22t-19.5 -23t-9.5 -17.5q-13 -27 -13 -94l-2 -121q0 -52 33 -89t80 -36zM469 0q-141 0 -233 92t-93 234v206q0 90 19 132q7 17 27 43t37 44
t47 48.5t36 36.5l51 55l-137 39l64 225q310 -91 479 -164q71 -32 115.5 -66.5t74.5 -84.5q43 -70 76 -213.5t39 -280.5q3 -136 -96.5 -241t-231.5 -105h-274z" />
    <glyph glyph-name="uniF100" unicode="&#xfe97;&#xfeee;&#xfee3;&#xfe8e;&#x646;" horiz-adv-x="5468" 
d="M3881 -287q203 45 281.5 98t76.5 128l-2 53h-432q-125 0 -197.5 75t-72.5 207v471l254 213h352q132 0 218.5 -81.5t86.5 -212.5l-2 -394h531q51 0 89.5 32.5t35.5 74.5l-31 508l256 16v-586q0 -138 -92 -226.5t-230 -88.5h-559v-63q0 -195 -143.5 -315.5t-446.5 -182.5
l-217 -47l-59 266zM5237 1272l53 -35v-139l-678 -17v191h625zM2005 0q-145 0 -223.5 97t-83.5 253l-31 1102l252 18l4 -1085q0 -49 33.5 -82t83.5 -33h139q174 0 180 125l19 334q6 111 87 187.5t193 76.5h379l242 -215v-495q0 -113 -82.5 -198t-192.5 -85h-292
q-87 0 -147 35t-103 121q-22 -76 -89 -116t-173 -40h-195zM2574 383q56 -113 138 -113h235q51 0 87 37t36 88l-10 297l-103 90h-237q-47 0 -82.5 -33.5t-40.5 -80.5zM143 637l238 8v-579q0 -117 73.5 -188t190.5 -71q288 0 429 65t136 194l-32 792l254 19l4 -861
q1 -237 -200 -357t-599 -120q-134 0 -247.5 64t-180 174t-66.5 239v621zM653 666v231l258 10v-241h-258zM4215 637q-1 49 -36 80t-85 31h-238l-106 -91l-8 -288q-3 -62 33.5 -97.5t97.5 -35.5h358z" />
    <glyph glyph-name="uniF101" unicode="&#xfdfc;&#x61f;&#x61f;" horiz-adv-x="3274" 
d="M2877 797l254 16v-790q0 -217 -169.5 -363.5t-477.5 -220.5l-86 270q223 47 369.5 136t142.5 194zM143 530l238 9v-494q0 -121 77 -189.5t199 -68.5q227 0 339 65.5t110 194.5l-29 1131q-3 120 56.5 188t175.5 72l407 22l125 -98l2 -977q0 -49 34.5 -82t84.5 -33h332
q49 0 88.5 32t36.5 75l-29 508l254 16v-586q0 -138 -90 -226.5t-230 -88.5h-399q-145 0 -221.5 96.5t-81.5 253.5l-27 871l-176 -11q-44 -2 -71 -27.5t-27 -66.5l8 -1120q0 -232 -178.5 -355.5t-515.5 -123.5q-211 0 -351.5 141t-140.5 356v516zM2218 -258l53 -35v-141
l-678 -15v191h625z" />
    <glyph glyph-name="uniF102" unicode="&#xf100;&#x61f;&#x61f;" horiz-adv-x="5449" 
d="M5220 1272l54 -35v-139l-678 -17v191h624zM143 590l238 8v-553q0 -115 74 -186.5t190 -71.5q289 0 421 62.5t126 197.5l-39 934q-4 132 63.5 213t184.5 86l405 20l125 -100l2 -815q0 -49 34.5 -82t84.5 -33h139q173 0 179 125l20 334q6 111 87.5 187.5t193.5 76.5h376
l244 -215v-495q0 -115 -81.5 -199t-194.5 -84h-291q-87 0 -146.5 35t-105.5 121q-46 -156 -262 -156h-195q-145 0 -221.5 96.5t-81.5 253.5l-24 680l-175 -6q-49 -1 -77.5 -27.5t-28.5 -68.5l10 -932q3 -235 -195 -356t-585 -121q-132 0 -245.5 62.5t-181 173t-67.5 241.5
v594zM2587 383q36 -62 64.5 -87.5t74.5 -25.5h233q51 0 87 37t34 88l-10 297l-107 90h-231q-47 0 -82.5 -33.5t-40.5 -80.5zM623 631v231l256 8v-239h-256zM3863 -287q204 45 282.5 98.5t75.5 127.5l-2 53h-432q-125 0 -197 75t-72 207v471l252 213h355q131 0 217 -82
t86 -212l-2 -394h530q51 0 89.5 32.5t35.5 74.5l-29 508l254 16v-586q0 -138 -91.5 -226.5t-229.5 -88.5h-559v-63q0 -195 -143 -316t-447 -182l-217 -47l-60 266zM4196 637q-1 49 -35.5 80t-84.5 31h-238l-104 -91l-11 -288q-3 -62 33.5 -97.5t97.5 -35.5h359z" />
    <glyph glyph-name="uni06C0.fina" unicode="&#xfeea;&#x654;" horiz-adv-x="1308" arabic-form="final" 
d="M453 1460q110 0 159 11t64 42q2 6 2 29t-16 23h-142q-41 0 -60.5 20t-19.5 64v163l97 86h92q40 0 69.5 -26t30.5 -64l2 -32l-69 -7q0 19 -15 32.5t-35 13.5h-53l-37 -31l-4 -109q0 -15 7.5 -21.5t25.5 -6.5h133q32 0 50 -20.5t18 -51.5v-45q0 -88 -71 -127t-228 -39v96z
M1217 0q-122 0 -194.5 55t-100.5 170q-1 -4 -3 -9.5t-5.5 -12.5t-4.5 -10q-48 -111 -178 -111h-285q-120 0 -210.5 92.5t-90.5 216.5v39v43.5t0.5 41t1.5 45t2.5 41t4.5 43.5t7 37t9 37t12 30q9 22 29.5 48t53.5 57.5t57.5 54t66.5 59t57 49.5l308 53l-17 107l230 32
l94 -764q14 -108 53 -141t156 -33h41q12 0 21 -48.5t9 -88.5q0 -39 -9 -86t-21 -47h-94zM707 328q95 0 116 73q11 40 15 66l-54 379l-237 -41q-13 -12 -57 -45.5t-70 -58t-37 -46.5q-19 -40 -25 -211q-3 -47 38.5 -82t99.5 -34h211z" />
    <glyph glyph-name="uni0641064A" unicode="&#xfed3;&#xfbfd;" horiz-adv-x="2338" arabic-form="isolated" 
d="M1602 270q16 0 23 -45.5t7 -91.5q0 -33 -7 -83t-23 -50h-113q10 -15 10 -53q0 -12 -4 -66q-15 -161 -152 -268q-100 -75 -264.5 -108t-441.5 -33q-100 0 -191 37.5t-157.5 101.5t-106 152t-39.5 184v610l238 10v-573q0 -113 72.5 -184.5t183.5 -71.5q221 0 339 15t202 54
q103 50 125 103q2 10 2 47q0 24 -12 33.5t-44 9.5h-573l33 270h893zM1190 0v270h680q49 0 79.5 31.5t30.5 79.5v55h-358q-124 0 -199 78t-75 203v411l241 215h326q126 0 203 -76.5t77 -201.5v-690q0 -174 -91.5 -274.5t-262.5 -100.5h-651zM1968 1020q-1 47 -36 78.5
t-85 31.5h-182l-104 -90l-11 -235q-3 -59 34.5 -96t96.5 -37h304zM1663 1577v229l256 11v-240h-256z" />
    <glyph glyph-name="uni0642064A" unicode="&#xfed7;&#xfbfd;" horiz-adv-x="2347" arabic-form="isolated" 
d="M1602 270q16 0 23 -45.5t7 -91.5q0 -33 -7 -83t-23 -50h-113q10 -15 10 -53q0 -12 -4 -66q-15 -161 -152 -268q-100 -75 -264.5 -108t-441.5 -33q-100 0 -191 37.5t-157.5 101.5t-106 152t-39.5 184v610l238 10v-573q0 -113 72.5 -184.5t183.5 -71.5q221 0 339 15t202 54
q103 50 125 103q2 10 2 47q0 24 -12 33.5t-44 9.5h-573l33 270h893zM1198 0v270h680q49 0 80 31.5t31 79.5v55h-359q-124 0 -199 78t-75 203v411l241 215h326q126 0 203.5 -76.5t77.5 -201.5v-690q0 -174 -91.5 -274.5t-263.5 -100.5h-651zM1976 1020q-1 47 -36 78.5
t-85 31.5h-182l-104 -90l-10 -235q-3 -59 34.5 -96t96.5 -37h303zM1833 1767l293 -174l-662 -16v190h369zM1780 1585v182h307l53 -34v-140z" />
    <glyph glyph-name="uni0643064A" unicode="&#xfb90;&#xfbfd;" horiz-adv-x="2232" arabic-form="isolated" 
d="M1737 270q55 0 89 30.5t34 78.5l-62 264l-684 328l8 258l801 346l107 -227l-639 -238l604 -303q6 -28 18 -82t18.5 -83t16 -74t15 -73.5t11.5 -61.5t9 -57.5t4 -43.5q3 -87 -42 -163.5t-125 -122.5t-173 -46h-764v270h754zM1602 270q16 0 23 -45.5t7 -91.5q0 -33 -7 -83
t-23 -50h-113q10 -15 10 -53q0 -12 -4 -66q-15 -161 -152 -268q-100 -75 -264.5 -108t-441.5 -33q-100 0 -191 37.5t-157.5 101.5t-106 152t-39.5 184v610l238 10v-573q0 -113 72.5 -184.5t183.5 -71.5q221 0 339 15t202 54q103 50 125 103q2 10 2 47q0 24 -12 33.5t-44 9.5
h-573l33 270h893z" />
    <glyph glyph-name="uni0641064A.fina" unicode="&#xfed4;&#xfbfd;" horiz-adv-x="2564" arabic-form="final" 
d="M1602 270q16 0 23 -45.5t7 -91.5q0 -33 -7 -83t-23 -50h-113q10 -15 10 -53q0 -12 -4 -66q-15 -161 -152 -268q-100 -75 -264.5 -108t-441.5 -33q-100 0 -191 37.5t-157.5 101.5t-106 152t-39.5 184v610l238 10v-573q0 -113 72.5 -184.5t183.5 -71.5q221 0 339 15t202 54
q103 50 125 103q2 10 2 47q0 24 -12 33.5t-44 9.5h-573l33 270h893zM1522 270q-27 30 -44.5 74.5t-17.5 83.5q0 177 27 277q6 24 16.5 49t21 44t31 44.5t31.5 39t39.5 41t39 36.5t44 39.5t41.5 37.5l317 -41q113 -15 200 -107.5t93 -205.5q9 -158 -7.5 -254t-57.5 -158h266
q14 0 23.5 -45t9.5 -98q0 -47 -9.5 -87t-23.5 -40h-543q-67 0 -131 23q-61 -23 -129 -23h-528v270h291zM1827 801q-119 -103 -137 -191q-13 -54 -13 -157q0 -72 65 -127.5t150 -55.5h27q117 0 168 62.5t51 208.5q0 117 -32 169.5t-107 63.5zM1778 1264v229l256 10v-239h-256
z" />
    <glyph glyph-name="uni0642064A.fina" unicode="&#xfed8;&#xfbfd;" horiz-adv-x="2564" arabic-form="final" 
d="M1602 270q16 0 23 -45.5t7 -91.5q0 -33 -7 -83t-23 -50h-113q10 -15 10 -53q0 -12 -4 -66q-15 -161 -152 -268q-100 -75 -264.5 -108t-441.5 -33q-100 0 -191 37.5t-157.5 101.5t-106 152t-39.5 184v610l238 10v-573q0 -113 72.5 -184.5t183.5 -71.5q221 0 339 15t202 54
q103 50 125 103q2 10 2 47q0 24 -12 33.5t-44 9.5h-573l33 270h893zM1522 270q-27 30 -44.5 74.5t-17.5 83.5q0 177 27 277q6 24 16.5 49t21 44t31 44.5t31.5 39t39.5 41t39 36.5t44 39.5t41.5 37.5l317 -41q113 -15 200 -107.5t93 -205.5q9 -158 -7.5 -254t-57.5 -158h266
q14 0 23.5 -45t9.5 -98q0 -47 -9.5 -87t-23.5 -40h-543q-67 0 -131 23q-61 -23 -129 -23h-528v270h291zM1827 801q-119 -103 -137 -191q-13 -54 -13 -157q0 -72 65 -127.5t150 -55.5h27q117 0 168 62.5t51 208.5q0 117 -32 169.5t-107 63.5zM1937 1454l293 -174l-661 -16
v190h368zM1884 1272v182h307l54 -35v-139z" />
    <glyph glyph-name="uniFDF2" unicode="&#x627;&#xfedf;&#xfee0;&#xfc63;&#xfeea;" horiz-adv-x="3067" arabic-form="isolated" 
d="M1855 0q-81 0 -136 34.5t-77 98.5q-66 -133 -278 -133h-129q-144 0 -214 50t-99 173l-21 -41q-51 -100 -172 -100h-285q-122 0 -211.5 91.5t-89.5 217.5q0 86 1.5 136t11.5 121.5t30 111.5q15 27 50 65t65 65t80.5 70t64.5 56l306 53l-17 107l230 32l12 -94l82 -670
q12 -105 52 -139.5t146 -34.5h125q56 0 94 35t37 84l-20 860l252 19l6 -881q2 -56 32.5 -87.5t82.5 -31.5h184q62 0 98 33t35 88l-22 1065l254 19l6 -1086q2 -186 -83 -286.5t-243 -100.5h-240zM713 328q44 0 69 14.5t37 48.5l21 55l-58 400l-237 -41q-2 -1 -18.5 -13.5
t-23 -18t-23.5 -19t-26 -21.5t-23 -20.5t-22.5 -21.5t-16 -19.5t-11.5 -18.5q-25 -45 -25 -209q-1 -47 35 -81.5t84 -34.5h238zM1559 2152l88 7l-2 -318l-72 -6zM1786 1778l112 6v-207q0 -67 -43.5 -107t-117.5 -40q-50 0 -88.5 22.5t-44.5 54.5q-6 -32 -46 -54.5t-90 -22.5
q-72 0 -114.5 40t-42.5 107v192l108 -6l-16 -157q-2 -29 18 -47.5t54 -18.5q35 0 57 18.5t22 47.5v127l97 2v-131q1 -29 22.5 -46.5t55.5 -17.5t54 17t17 45zM2664 1460l254 19l2 -1459l-215 -20z" />
    <glyph glyph-name="uniFDFC" unicode="&#x631;&#xfbfe;&#xfe8e;&#x644;" horiz-adv-x="3422" arabic-form="isolated" 
d="M3279 -10q0 -213 -171 -360.5t-476 -221.5l-88 270q135 27 251.5 77t190 117t70.5 134l-31 791l254 16v-823zM2791 315q0 -136 -90.5 -225.5t-228.5 -89.5h-516q-145 0 -222.5 96.5t-82.5 253.5l-33 1102l254 18l2 -1085q0 -49 34.5 -82t82.5 -33h450q51 0 88.5 32
t36.5 75l-29 508l254 16v-586zM2404 -303v-141l-678 -13v187h627zM1393 -4q1 -236 -201 -356.5t-555 -120.5q-99 0 -190 37.5t-157.5 101t-106.5 152t-40 186.5v534l236 9v-494q0 -115 74.5 -186.5t189.5 -71.5q167 0 282.5 26t180.5 85t63 149l-39 1407l252 16z" />
    <glyph glyph-name="uni0622.fina" unicode="&#xfe8e;&#x653;" horiz-adv-x="620" arabic-form="final" 
d="M-162 1686q230 -39 406 -39t395 43l2 -215q-198 -44 -359.5 -46.5t-355.5 35.5v-174h-141l-14 299zM479 0q-139 0 -219.5 92.5t-85.5 257.5l-31 912l250 18l2 -895q0 -49 33.5 -82t81.5 -33h111q32 0 32 -139q0 -131 -32 -131h-142z" />
    <glyph glyph-name="uni0623.fina" unicode="&#xfe8e;&#x654;" horiz-adv-x="620" arabic-form="final" 
d="M86 1343l-45 113l76 39q-21 3 -33 31l-43 88q-19 34 -16 69q0 18 16 64q5 10 15 38t14 38l120 53q45 21 89 6t69 -57l17 -37l-80 -37q-32 47 -74 27l-66 -35q-9 -23 -14 -47q-4 -12 -4 -25q0 -26 16 -53l25 -47q15 -29 34 -33t54 16l201 115l53 -106zM479 0
q-139 0 -219.5 92.5t-85.5 257.5l-31 912l250 18l2 -895q0 -49 33.5 -82t81.5 -33h111q32 0 32 -139q0 -131 -32 -131h-142z" />
    <glyph glyph-name="uni0625.fina" unicode="&#xfe8e;&#x655;" horiz-adv-x="624" arabic-form="final" 
d="M143 1452l254 21l2 -1088q0 -49 32.5 -82t78.5 -33h113q32 0 32 -139q0 -131 -32 -131h-142q-138 0 -219.5 93t-85.5 257zM205 -662l-45 113l76 39q-19 3 -33 31l-43 88q-20 36 -17 69q0 15 17 64q4 8 8 19.5t10 29t10 29.5l121 53q45 19 89 4.5t69 -55.5l16 -39l-80 -35
q-32 45 -73 25l-66 -33q-10 -28 -14 -49q-4 -12 -4 -25q0 -22 16 -53l25 -47q15 -29 33.5 -32.5t54.5 17.5l200 113l54 -104z" />
    <glyph glyph-name="uni0626.fina" unicode="&#xfef2;&#x654;" horiz-adv-x="1599" arabic-form="final" 
d="M1602 270q16 0 23 -45.5t7 -91.5q0 -33 -7 -83t-23 -50h-113q10 -15 10 -53q0 -12 -4 -66q-15 -161 -152 -268q-100 -75 -264.5 -108t-441.5 -33q-100 0 -191 37.5t-157.5 101.5t-106 152t-39.5 184v610l238 10v-573q0 -113 72.5 -184.5t183.5 -71.5q221 0 339 15t202 54
q103 50 125 103q2 10 2 47q0 24 -12 33.5t-44 9.5h-573l33 270h893zM848 463l-45 112l76 39q-21 3 -33 31l-43 88q-20 36 -17 70q0 14 17 63q4 10 13.5 36t14.5 40l121 53q45 21 89 6t69 -57l16 -37l-79 -37q-32 47 -74 27l-66 -35q-9 -23 -14 -47q-4 -12 -4 -24
q0 -27 16 -54l25 -47q15 -29 34 -32.5t54 16.5l201 114l53 -106z" />
    <glyph glyph-name="uni06440622" unicode="&#xfedf;&#xfe82;" horiz-adv-x="1226" arabic-form="isolated" 
d="M-43 1661q230 -39 406 -39t395 43l2 -215q-197 -44 -359.5 -46t-355.5 36v-174h-141l-15 299zM719 270q54 3 92 36t37 79l-23 1067l254 18l4 -1085q0 -184 -84.5 -284.5t-238.5 -100.5h-604l-13 238zM199 1206l250 17l20 -879l-217 -18z" />
    <glyph glyph-name="uni06440622.fina" unicode="&#xfee0;&#xfe82;" horiz-adv-x="1284" arabic-form="final" 
d="M719 270q54 3 92 36t37 79l-23 1067l254 18l4 -1085q0 -184 -84.5 -284.5t-238.5 -100.5h-604l-13 238zM199 1206l250 17l20 -879l-217 -18zM1188 0q-126 0 -197.5 111.5t-72.5 330.5h163q3 -172 127 -172h76q17 0 25 -53.5t8 -89.5q0 -37 -9 -82t-24 -45h-96zM-41 1663
q230 -39 406 -39t395 43l2 -215q-197 -44 -359.5 -46t-355.5 36v-174h-141l-15 299z" />
    <glyph glyph-name="uni06440623" unicode="&#xfedf;&#xfe84;" horiz-adv-x="1226" arabic-form="isolated" 
d="M719 270q54 3 92 36t37 79l-23 1067l254 18l4 -1085q0 -184 -84.5 -284.5t-238.5 -100.5h-604l-13 238zM199 1206l250 17l20 -879l-217 -18zM131 1300l-45 113l76 39q-21 3 -33 31l-43 88q-19 34 -16 69q0 18 16 64q5 10 15 38t14 38l121 53q45 21 88.5 6t68.5 -57
l17 -37l-80 -37q-32 47 -74 27l-66 -35q-9 -23 -14 -47q-4 -12 -4 -25q0 -26 16 -53l25 -47q15 -29 34 -33t54 16l201 115l53 -106z" />
    <glyph glyph-name="uni06440623.fina" unicode="&#xfee0;&#xfe84;" horiz-adv-x="1284" arabic-form="final" 
d="M719 270q54 3 92 36t37 79l-23 1067l254 18l4 -1085q0 -184 -84.5 -284.5t-238.5 -100.5h-604l-13 238zM199 1206l250 17l20 -879l-217 -18zM1188 0q-126 0 -197.5 111.5t-72.5 330.5h163q3 -172 127 -172h76q17 0 25 -53.5t8 -89.5q0 -37 -9 -82t-24 -45h-96zM131 1307
l-45 112l76 39q-21 3 -33 31l-43 88q-19 34 -16 70q0 17 16 63q5 10 15 38t14 38l121 53q45 21 88.5 6t68.5 -57l17 -37l-80 -37q-32 47 -74 27l-66 -35q-9 -23 -14 -47q-4 -12 -4 -25q0 -26 16 -53l25 -47q15 -29 34 -32.5t54 16.5l201 114l53 -106z" />
    <glyph glyph-name="uni06440625" unicode="&#xfedf;&#xfe88;" horiz-adv-x="1228" arabic-form="isolated" 
d="M160 0l-15 236l576 34q54 3 92 37t37 78l-23 1067l254 18l4 -1085q0 -185 -84 -285t-239 -100h-602zM195 1436l254 18l22 -1112l-217 -16zM236 -707l-46 113l76 39q-19 3 -33 31l-43 88q-19 34 -16 69q0 18 16 64q4 8 29 78l121 53q45 19 89 4.5t69 -55.5l16 -39l-80 -35
q-32 45 -74 25l-65 -33q-10 -28 -14 -49q-5 -15 -5 -25q0 -20 17 -53l24 -47q15 -28 34 -32t55 17l200 113l53 -104z" />
    <glyph glyph-name="uni06440625.fina" unicode="&#xfee0;&#xfe88;" horiz-adv-x="1288" arabic-form="final" 
d="M1192 0q-126 0 -197.5 111.5t-72.5 330.5h163q3 -172 127 -172h76q17 0 25 -53.5t8 -89.5q0 -37 -9 -82t-24 -45h-96zM160 0l-15 236l576 34q54 3 92 37t37 78l-23 1067l254 18l4 -1085q0 -185 -84 -285t-239 -100h-602zM195 1436l254 18l22 -1112l-217 -16zM197 -702
l-45 112l75 39q-18 3 -32 31l-43 88q-20 36 -17 70q0 14 17 63q4 8 8 19.5t10 29t10 29.5l121 53q45 19 89 4.5t69 -55.5l16 -39l-80 -35q-32 45 -73 25l-66 -33q-10 -28 -14 -49q-4 -12 -4 -25q0 -22 16 -53l25 -47q15 -28 33.5 -31.5t54.5 17.5l200 112l54 -104z" />
    <glyph glyph-name="uni06440627" unicode="&#xfedf;&#xfe8e;" horiz-adv-x="1228" arabic-form="isolated" 
d="M160 0l-15 236l576 34q54 3 92 37t37 78l-23 1067l254 18l4 -1085q0 -185 -84 -285t-239 -100h-602zM195 1436l254 18l22 -1112l-217 -16z" />
    <glyph glyph-name="uni06440627.fina" unicode="&#xfee0;&#xfe8e;" horiz-adv-x="1288" arabic-form="final" 
d="M1192 0q-126 0 -197.5 111.5t-72.5 330.5h163q3 -172 127 -172h76q17 0 25 -53.5t8 -89.5q0 -37 -9 -82t-24 -45h-96zM160 0l-15 236l576 34q54 3 92 37t37 78l-23 1067l254 18l4 -1085q0 -185 -84 -285t-239 -100h-602zM195 1436l254 18l22 -1112l-217 -16z" />
    <glyph glyph-name="aleffathatanar" unicode="&#x627;&#x64b;" horiz-adv-x="542" 
d="M479 1575l37 -117l-469 -100l-29 104zM469 1806l31 -106l-465 -111l-33 115zM143 1249l252 19l2 -1248l-215 -20z" />
    <glyph glyph-name="aleffathatanar.fina" unicode="&#xfe8e;&#x64b;" horiz-adv-x="620" 
d="M475 1581l37 -117l-469 -100l-29 104zM465 1812l31 -106l-465 -111l-33 115zM479 0q-139 0 -219.5 92.5t-85.5 257.5l-31 912l250 18l2 -895q0 -49 33.5 -82t81.5 -33h111q32 0 32 -139q0 -131 -32 -131h-142z" />
    <glyph glyph-name="rialsign1" unicode="&#xfdfc;&#x61f;&#x61f;&#x61f;" horiz-adv-x="2871" 
d="M2726 987q0 -405 -12 -569q-5 -72 -13 -137q-20 -171 -157.5 -289.5t-376.5 -165.5l-86 256q104 13 197.5 53t157 107.5t63.5 146.5q0 193 -29 582zM143 717l236 8v-336q0 -120 48 -174.5t157 -54.5q187 0 267 54t75 179l-27 760q-5 118 55.5 188t175.5 74l349 19
l106 -82l4 -695q0 -50 35 -81t90 -31l170 -2q56 0 95 32t38 76l-16 369l252 16v-448q0 -136 -90.5 -225t-227.5 -89h-266q-138 0 -217.5 92t-87.5 259l-23 571l-102 -8q-46 -3 -72 -28t-26 -66l10 -723q2 -255 -139 -367.5t-465 -112.5q-199 0 -301.5 119.5t-102.5 339.5
v367zM1909 104l51 -34v-142l-627 -12v188h576z" />
    <glyph glyph-name="rialsign2" unicode="&#xfdfc;&#x61f;&#x61f;&#x61f;&#x61f;" horiz-adv-x="2471" 
d="M1595 -291q133 27 249.5 77.5t190.5 118t70 134.5l-30 758l254 16v-790q0 -142 -83 -259.5t-226.5 -197.5t-338.5 -127zM627 1176q-3 120 56.5 192t176.5 76l416 16l123 -98l4 -977q0 -52 36 -83.5t89 -31.5h354l-27 -270h-370q-145 0 -222.5 96.5t-82.5 253.5l-25 871
l-180 -9q-105 -6 -105 -96l7 -1093q1 -205 -167.5 -357t-480.5 -227l-86 270q131 25 247.5 75t191.5 118.5t73 136.5z" />
    <glyph glyph-name="rialsign3" unicode="&#xfdfc;&#x61f;&#x61f;&#x61f;&#x61f;&#x61f;" horiz-adv-x="2080" 
d="M1284 90q179 24 302.5 102.5t119.5 182.5l-23 596l254 16v-620q0 -212 -138.5 -339.5t-440.5 -193.5zM506 1153q-3 134 79 198.5t267 71.5l235 11l109 -82l6 -633q0 -122 158 -119l170 2l-17 -270h-229q-135 0 -215.5 85t-87.5 238l-25 543l-114 -10q-43 -3 -67.5 -29
t-24.5 -65l6 -695q6 -449 -529 -557l-84 256q168 22 278 108t107 202z" />
    <glyph glyph-name="tomansign1" unicode="&#xf100;&#x61f;&#x61f;&#x61f;" horiz-adv-x="4476" 
d="M2890 950l231 195h264q131 3 217 -80t86 -215v-305h279q53 0 92.5 31t38.5 75l-16 359l252 16v-438q0 -136 -90 -225t-228 -89h-328l-2 -65q-7 -181 -153 -262.5t-479 -93.5l-140 -7l-20 246q255 -4 407.5 31t178.5 104v39l-312 -2q-133 0 -205.5 74t-72.5 209v403z
M3095 643q-3 -62 32.5 -98.5t96.5 -36.5h249l-12 301q-1 55 -36 90t-87 35h-149l-86 -72zM4243 1358l54 -33v-141l-578 -15v189h524zM143 727l236 8v-299q0 -116 45.5 -173.5t148.5 -57.5q217 0 315.5 56t92.5 177l-27 678q-4 124 59.5 191.5t188.5 72.5l311 13l109 -82
l4 -654q0 -49 31.5 -80.5t81.5 -31.5h43q153 0 162 110l22 254q12 113 89.5 189t189.5 76h282l223 -195v-424q0 -113 -82 -197t-194 -84h-190q-92 0 -144.5 34t-93.5 120q-28 -82 -93 -118t-188 -36h-59q-138 0 -217.5 92.5t-87.5 258.5l-23 528l-92 -8q-91 -6 -88 -88
l8 -641q3 -247 -148.5 -362t-477.5 -115q-198 0 -317.5 121t-119.5 327v340zM2165 651q49 -106 116 -106h148q48 0 81 32.5t32 81.5l-9 230l-86 74h-143q-49 0 -83.5 -35.5t-39.5 -91.5zM465 793v229l256 10v-239h-256z" />
    <glyph glyph-name="tomansign2" unicode="&#xf100;&#x61f;&#x61f;&#x61f;&#x61f;" horiz-adv-x="2025" 
d="M1532 270q51 0 89.5 32t35.5 75l-29 508l254 16v-586q0 -138 -90.5 -226.5t-228.5 -88.5h-236l-8 -244h-178l-2 244h-256l-2 -244h-176l-11 244h-231q-139 0 -229.5 89t-90.5 226v586l254 -16l-28 -508q-3 -43 35.5 -75t89.5 -32h1038zM1339 459h-200l-6 459h221z
M891 918l-6 -459h-199l-12 459h217z" />
    <glyph glyph-name="lellah" unicode="&#xfedf;&#xfee0;&#xfc63;&#xfeea;" horiz-adv-x="2564" 
d="M1855 0q-81 0 -136 34.5t-77 98.5q-66 -133 -278 -133h-129q-144 0 -214 50t-99 173l-21 -41q-51 -100 -172 -100h-285q-122 0 -211.5 91.5t-89.5 217.5q0 86 1.5 136t11.5 121.5t30 111.5q15 27 50 65t65 65t80.5 70t64.5 56l306 53l-17 107l230 32l12 -94l82 -670
q12 -105 52 -139.5t146 -34.5h125q56 0 94 35t37 84l-20 860l252 19l6 -881q2 -56 32.5 -87.5t82.5 -31.5h184q62 0 98 33t35 88l-22 1065l254 19l6 -1086q2 -186 -83 -286.5t-243 -100.5h-240zM713 328q44 0 69 14.5t37 48.5l21 55l-58 400l-237 -41q-2 -1 -18.5 -13.5
t-23 -18t-23.5 -19t-26 -21.5t-23 -20.5t-22.5 -21.5t-16 -19.5t-11.5 -18.5q-25 -45 -25 -209q-1 -47 35 -81.5t84 -34.5h238zM1559 2152l88 7l-2 -318l-72 -6zM1786 1778l112 6v-207q0 -67 -43.5 -107t-117.5 -40q-50 0 -88.5 22.5t-44.5 54.5q-6 -32 -46 -54.5t-90 -22.5
q-72 0 -114.5 40t-42.5 107v192l108 -6l-16 -157q-2 -29 18 -47.5t54 -18.5q35 0 57 18.5t22 47.5v127l97 2v-131q1 -29 22.5 -46.5t55.5 -17.5t54 17t17 45z" />
    <glyph glyph-name="uni06A9064A.fina" unicode="&#xfb91;&#xfbfd;" horiz-adv-x="2387" 
d="M2386 0q-138 0 -229.5 61.5t-180.5 214.5l-4 -65q-13 -95 -99.5 -153t-207.5 -58h-670v270h695q60 0 101.5 35t41.5 88v84q-50 67 -78 84l-612 406l8 282l772 346l107 -227l-648 -250l496 -344q49 -33 95 -87t78.5 -108t71 -111t74 -100.5t85 -71.5t106.5 -28
q18 0 24.5 -24t6.5 -103q0 -45 -7.5 -93t-25.5 -48zM1602 270q16 0 23 -45.5t7 -91.5q0 -33 -7 -83t-23 -50h-113q10 -15 10 -53q0 -12 -4 -66q-15 -161 -152 -268q-100 -75 -264.5 -108t-441.5 -33q-100 0 -191 37.5t-157.5 101.5t-106 152t-39.5 184v610l238 10v-573
q0 -113 72.5 -184.5t183.5 -71.5q221 0 339 15t202 54q103 50 125 103q2 10 2 47q0 24 -12 33.5t-44 9.5h-573l33 270h893z" />
    <glyph glyph-name="uni06AF064A" unicode="&#xfb94;&#xfbfd;" horiz-adv-x="2234" 
d="M1739 270q55 0 89 30.5t34 78.5l-62 264l-684 328l8 258l801 346l107 -227l-639 -238l604 -303q6 -28 18 -82t18.5 -83t16 -74t15 -73.5t11.5 -61.5t9 -57.5t4 -43.5q3 -87 -42 -163.5t-125 -122.5t-173 -46h-764v270h754zM1858 1675l-613 -258l-47 105l33 55l555 256z
M1602 270q16 0 23 -45.5t7 -91.5q0 -33 -7 -83t-23 -50h-113q10 -15 10 -53q0 -12 -4 -66q-15 -161 -152 -268q-100 -75 -264.5 -108t-441.5 -33q-100 0 -191 37.5t-157.5 101.5t-106 152t-39.5 184v610l238 10v-573q0 -113 72.5 -184.5t183.5 -71.5q221 0 339 15t202 54
q103 50 125 103q2 10 2 47q0 24 -12 33.5t-44 9.5h-573l33 270h893z" />
    <glyph glyph-name="uni06AF064A.fina" unicode="&#xfb95;&#xfbfd;" horiz-adv-x="2392" 
d="M2390 0q-138 0 -229.5 61.5t-180.5 214.5l-4 -65q-13 -95 -99.5 -153t-207.5 -58h-670v270h695q60 0 101.5 35t41.5 88v84q-50 67 -78 84l-612 406l8 282l772 346l107 -227l-648 -250l496 -344q49 -33 95 -87t78.5 -108t71 -111t74 -100.5t85 -71.5t106.5 -28
q18 0 24.5 -24t6.5 -103q0 -45 -7.5 -93t-25.5 -48zM1860 1679l-613 -258l-47 105l33 55l555 256zM1602 270q16 0 23 -45.5t7 -91.5q0 -33 -7 -83t-23 -50h-113q10 -15 10 -53q0 -12 -4 -66q-15 -161 -152 -268q-100 -75 -264.5 -108t-441.5 -33q-100 0 -191 37.5
t-157.5 101.5t-106 152t-39.5 184v610l238 10v-573q0 -113 72.5 -184.5t183.5 -71.5q221 0 339 15t202 54q103 50 125 103q2 10 2 47q0 24 -12 33.5t-44 9.5h-573l33 270h893z" />
    <glyph glyph-name="Bitcoin" unicode="&#xfe91;&#xfbff;&#xfe98;&#xfb91;&#xfeee;&#xfbfe;&#xfee6;&#x61f;&#x61f;" horiz-adv-x="1402" 
d="M885 1491q201 0 300 -90.5t99 -278.5q0 -157 -61.5 -239.5t-200.5 -118.5v-6q143 -27 207.5 -112t64.5 -257q0 -201 -101.5 -295t-320.5 -94h-720v1491h733zM772 838q120 0 173.5 52.5t53.5 172.5q0 129 -48.5 178t-178.5 49h-338v-452h338zM774 201q132 0 183 50.5
t51 182.5q0 130 -52 182t-182 52h-340v-467h340zM731 1747h207v-301h-207v301zM360 1747h207v-301h-207v301zM731 49h207v-303h-207v303zM360 49h207v-303h-207v303z" />
    <glyph glyph-name="USDT" unicode="&#xfe97;&#xfe98;&#xfeae;&#x61f;&#x61f;" horiz-adv-x="1527" 
d="M614 1272h-434v219h1155v-219h-434v-529q-144 -20 -287 0v529zM78 743q0 60 58.5 108t154.5 78t218 46t250 16t250 -16t218 -46t154.5 -78t58.5 -108t-58.5 -108t-154.5 -78t-218 -46t-250 -16t-250 16t-218 46t-154.5 78t-58.5 108zM332 743q0 -44 133.5 -68.5
t293.5 -24.5t293.5 24.5t133.5 68.5t-133.5 68.5t-293.5 24.5t-293.5 -24.5t-133.5 -68.5zM614 604q143 -20 287 0v-604h-287v604z" />
    <glyph glyph-name="uni062A0627" unicode="&#xfe97;&#xfe8e;" horiz-adv-x="1495" 
d="M598 0v270h403q53 0 90.5 32.5t34.5 80.5l-28 502l254 16v-586q0 -137 -90.5 -226t-229.5 -89h-434zM143 1452l254 21l2 -1088q0 -49 32.5 -82t78.5 -33h113q32 0 32 -139q0 -131 -32 -131h-142q-138 0 -219.5 93t-85.5 257zM1067 1323l293 -174l-662 -16v190h369z
M1014 1141v182h307l53 -35v-139z" />
    <glyph glyph-name="uni062A0627.fina" unicode="&#xfe98;&#xfe8e;" horiz-adv-x="1542" 
d="M1430 0q-62 0 -122 38.5t-81 94.5q-22 -55 -84.5 -94t-128.5 -39h-424v270h401q52 0 85.5 32.5t33.5 82.5v418l227 6v-424q0 -50 32 -82.5t81 -32.5h92q11 0 18 -18.5t10 -46.5t4 -46.5t1 -33.5q0 -35 -9 -80t-24 -45h-112zM143 1452l254 21l2 -1088q0 -49 32.5 -82
t78.5 -33h113q32 0 32 -139q0 -131 -32 -131h-142q-138 0 -219.5 93t-85.5 257zM1085 1239l293 -174l-661 -16v190h368zM1032 1057v182h307l54 -35v-139z" />
    <glyph glyph-name="uni062B0627" unicode="&#xfe9b;&#xfe8e;" horiz-adv-x="1495" 
d="M598 0v270h403q53 0 90.5 32.5t34.5 80.5l-28 502l254 16v-586q0 -137 -90.5 -226t-229.5 -89h-434zM143 1452l254 21l2 -1088q0 -49 32.5 -82t78.5 -33h113q32 0 32 -139q0 -131 -32 -131h-142q-138 0 -219.5 93t-85.5 257zM926 1464v199l221 8v-207h-221zM1067 1323
l293 -174l-662 -16v190h369zM1014 1141v182h307l53 -35v-139z" />
    <glyph glyph-name="uni062B0627.fina" unicode="&#xfe9c;&#xfe8e;" horiz-adv-x="1542" 
d="M1430 0q-62 0 -122 38.5t-81 94.5q-22 -55 -84.5 -94t-128.5 -39h-424v270h401q52 0 85.5 32.5t33.5 82.5v418l227 6v-424q0 -50 32 -82.5t81 -32.5h92q11 0 18 -18.5t10 -46.5t4 -46.5t1 -33.5q0 -35 -9 -80t-24 -45h-112zM143 1452l254 21l2 -1088q0 -49 32.5 -82
t78.5 -33h113q32 0 32 -139q0 -131 -32 -131h-142q-138 0 -219.5 93t-85.5 257zM944 1380v199l221 8v-207h-221zM1085 1239l293 -174l-661 -16v190h368zM1032 1057v182h307l54 -35v-139z" />
    <glyph glyph-name="uni0621" unicode="&#x621;" horiz-adv-x="1064" arabic-form="isolated" 
d="M287 -39l-88 158l116 69q-28 6 -53 48l-82 135q-37 57 -37 112q1 30 10.5 68t26.5 88.5t21 65.5l180 102q69 38 143 20.5t109 -79.5l29 -56l-109 -67q-26 35 -59 44t-64 -10l-100 -59l-27 -115q-5 -24 27 -82l47 -79q15 -26 30.5 -39t33.5 -13t35.5 7.5t41.5 23.5
l303 205l101 -150z" />
    <glyph glyph-name="uni0624" unicode="&#x624;" horiz-adv-x="1196" arabic-form="isolated" 
d="M487 -287q205 45 284 98.5t77 129.5l-4 51h-430q-126 0 -198.5 75t-72.5 207v471l254 213h353q132 0 217.5 -81.5t85.5 -212.5l-2 -727q0 -195 -143 -315.5t-445 -182.5l-219 -47l-58 266zM823 637q-3 49 -38 80t-83 31h-237l-107 -91l-10 -288q-1 -60 33.5 -88.5
t97.5 -28.5h361zM451 1231l-45 112l75 39q-20 3 -32 31l-43 88q-20 36 -17 70q0 14 17 63q4 10 13.5 36t14.5 40l121 53q45 21 89 6t69 -57l16 -37l-80 -37q-32 47 -74 27l-65 -35q-9 -23 -14 -47q-4 -12 -4 -24q0 -27 16 -54l24 -47q15 -29 34.5 -32.5t54.5 16.5l200 114
l53 -106z" />
    <glyph glyph-name="uni0627" unicode="&#x627;" horiz-adv-x="544" arabic-form="isolated" 
d="M143 1458l254 19l2 -1459l-215 -20z" />
    <glyph glyph-name="uni0628" unicode="&#x628;" horiz-adv-x="2017" arabic-form="isolated" 
d="M459 0q-141 0 -228.5 92t-87.5 234v479l238 10v-438q0 -48 24.5 -77.5t65.5 -29.5h1053q53 0 90.5 33t34.5 80l-29 502l254 16v-586q0 -137 -92 -226t-228 -89h-1095zM899 -510v229l256 11v-240h-256z" />
    <glyph glyph-name="uni0629" unicode="&#x629;" horiz-adv-x="1214" arabic-form="isolated" 
d="M754 279q35 6 60.5 46.5t25.5 86.5q-9 82 -33.5 175t-46.5 132q-28 48 -127 84l-53 20l-95 -90q-10 -10 -32 -31t-31 -29.5t-22 -22t-19.5 -23t-9.5 -17.5q-13 -27 -13 -94l-2 -121q0 -52 33 -89t80 -36zM469 0q-141 0 -233 92t-93 234v206q0 90 19 132q7 17 27 43t37 44
t47 48.5t36 36.5l51 55l-137 39l64 225q310 -91 479 -164q71 -32 115.5 -66.5t74.5 -84.5q43 -70 76 -213.5t39 -280.5q3 -136 -96.5 -241t-231.5 -105h-274zM569 1538l293 -174l-661 -16v190h368zM516 1356v182h307l54 -35v-139z" />
    <glyph glyph-name="uni062A" unicode="&#x62a;" horiz-adv-x="2017" arabic-form="isolated" 
d="M459 0q-141 0 -228.5 92t-87.5 234v479l238 10v-438q0 -48 24.5 -77.5t65.5 -29.5h1053q53 0 90.5 33t34.5 80l-29 502l254 16v-586q0 -137 -92 -226t-228 -89h-1095zM1042 1163l293 -174l-661 -16v190h368zM989 981v182h307l54 -35v-139z" />
    <glyph glyph-name="uni062B" unicode="&#x62b;" horiz-adv-x="2017" arabic-form="isolated" 
d="M459 0q-141 0 -228.5 92t-87.5 234v479l238 10v-438q0 -48 24.5 -77.5t65.5 -29.5h1053q53 0 90.5 33t34.5 80l-29 502l254 16v-586q0 -137 -92 -226t-228 -89h-1095zM901 1305v198l221 8v-206h-221zM1042 1163l293 -174l-661 -16v190h368zM989 981v182h307l54 -35v-139z
" />
    <glyph glyph-name="uni062C" unicode="&#x62c;" horiz-adv-x="1613" arabic-form="isolated" 
d="M811 -127v180l203 8v-188h-203zM621 -596q-218 0 -343.5 108.5t-125.5 297.5l-2 157q-3 194 66 290t259 159l518 168l-411 215q-29 16 -62 16q-73 3 -102 -65l-68 -142l-194 78l84 193q38 85 116 132.5t176 47.5q79 0 158 -43l780 -395l-69 -234l-109 53l-696 -237
q-135 -46 -175.5 -93.5t-41.5 -162.5v-105q-2 -85 57 -139t150 -51l735 26l-39 -274h-661z" />
    <glyph glyph-name="uni062D" unicode="&#x62d;" horiz-adv-x="1613" arabic-form="isolated" 
d="M621 -596q-218 0 -343.5 108.5t-125.5 297.5l-2 157q-3 194 66 290t259 159l518 168l-411 215q-29 16 -62 16q-73 3 -102 -65l-68 -142l-194 78l84 193q38 85 116 132.5t176 47.5q79 0 158 -43l780 -395l-69 -234l-109 53l-696 -237q-135 -46 -175.5 -93.5t-41.5 -162.5
v-105q-2 -85 57 -139t150 -51l735 26l-39 -274h-661z" />
    <glyph glyph-name="uni062E" unicode="&#x62e;" horiz-adv-x="1613" arabic-form="isolated" 
d="M621 -596q-218 0 -343.5 108.5t-125.5 297.5l-2 157q-3 194 66 290t259 159l518 168l-411 215q-29 16 -62 16q-73 3 -102 -65l-68 -142l-194 78l84 193q38 85 116 132.5t176 47.5q79 0 158 -43l780 -395l-69 -234l-109 53l-696 -237q-135 -46 -175.5 -93.5t-41.5 -162.5
v-105q-2 -85 57 -139t150 -51l735 26l-39 -274h-661zM391 1292v230l256 10v-240h-256z" />
    <glyph glyph-name="uni062F" unicode="&#x62f;" horiz-adv-x="1286" arabic-form="isolated" 
d="M465 0q-144 0 -232.5 87.5t-87.5 231.5l2 162l213 13v-115q0 -50 24.5 -79.5t68.5 -29.5h350q47 0 78.5 30.5t33.5 76.5l-86 360l-491 176l63 220l631 -238l111 -561q0 -134 -95.5 -234t-224.5 -100h-358z" />
    <glyph glyph-name="uni0630" unicode="&#x630;" horiz-adv-x="1286" arabic-form="isolated" 
d="M465 0q-144 0 -232.5 87.5t-87.5 231.5l2 162l213 13v-115q0 -50 24.5 -79.5t68.5 -29.5h350q47 0 78.5 30.5t33.5 76.5l-86 360l-491 176l63 220l631 -238l111 -561q0 -134 -95.5 -234t-224.5 -100h-358zM401 1366v229l256 11v-240h-256z" />
    <glyph glyph-name="uni0631" unicode="&#x631;" horiz-adv-x="684" arabic-form="isolated" 
d="M287 797l254 16v-823q0 -205 -168 -356t-479 -226l-89 270q133 26 250 76t191 117t71 133z" />
    <glyph glyph-name="uni0632" unicode="&#x632;" horiz-adv-x="684" arabic-form="isolated" 
d="M287 797l254 16v-823q0 -205 -168 -356t-479 -226l-89 270q133 26 250 76t191 117t71 133zM285 1094v229l256 10v-239h-256z" />
    <glyph glyph-name="uni0633" unicode="&#x633;" horiz-adv-x="2871" arabic-form="isolated" 
d="M637 -461q-134 0 -247.5 64t-180 174t-66.5 239v621l238 8v-579q0 -110 73 -184.5t179 -74.5q278 0 429.5 67.5t147.5 191.5l-30 792l252 19l2 -498q4 -46 55.5 -77.5t120.5 -31.5q88 0 152 35t79 92l62 404l229 6l-64 -420q3 -51 50.5 -84t105.5 -33h72q96 0 154 32
t55 97l-29 486l252 16v-541q0 -172 -106 -266.5t-300 -93.5h-73q-111 0 -187 38t-106 105q-46 -67 -136.5 -105t-209.5 -38q-52 0 -103 26.5t-71 63.5v-92q0 -224 -205 -341.5t-594 -117.5z" />
    <glyph glyph-name="uni0634" unicode="&#x634;" horiz-adv-x="2871" arabic-form="isolated" 
d="M637 -461q-134 0 -247.5 64t-180 174t-66.5 239v621l238 8v-579q0 -110 73 -184.5t179 -74.5q278 0 429.5 67.5t147.5 191.5l-30 792l252 19l2 -498q4 -46 55.5 -77.5t120.5 -31.5q88 0 152 35t79 92l62 404l229 6l-64 -420q3 -51 50.5 -84t105.5 -33h72q96 0 154 32
t55 97l-29 486l252 16v-541q0 -172 -106 -266.5t-300 -93.5h-73q-111 0 -187 38t-106 105q-46 -67 -136.5 -105t-209.5 -38q-52 0 -103 26.5t-71 63.5v-92q0 -224 -205 -341.5t-594 -117.5zM1911 1448v199l221 8v-207h-221zM2052 1307l293 -174l-662 -17v191h369zM1999 1124
v183h307l53 -35v-139z" />
    <glyph glyph-name="uni0635" unicode="&#x635;" horiz-adv-x="2746" arabic-form="isolated" 
d="M637 -461q-130 0 -244 63t-182 173.5t-68 240.5v621l238 8v-579q0 -117 73.5 -188t190.5 -71q133 0 236 14.5t179.5 45t115 81t34.5 118.5l-32 792l254 19l2 -398q3 -8 10 -24.5t10 -24.5l217 326q71 105 146 146t208 50q147 9 336 9l242 -216v-446q0 -131 -87.5 -215
t-219.5 -84h-629q-62 0 -123.5 28t-107.5 76v-88q0 -124 -56.5 -216.5t-162.5 -149t-250.5 -84t-329.5 -27.5zM1618 309q58 -39 115 -39h530q53 0 91.5 38t35.5 89l-8 244l-98 92q-119 0 -191 -4q-116 -6 -176.5 -37.5t-120.5 -118.5z" />
    <glyph glyph-name="uni0636" unicode="&#x636;" horiz-adv-x="2746" arabic-form="isolated" 
d="M637 -461q-130 0 -244 63t-182 173.5t-68 240.5v621l238 8v-579q0 -117 73.5 -188t190.5 -71q133 0 236 14.5t179.5 45t115 81t34.5 118.5l-32 792l254 19l2 -398q3 -8 10 -24.5t10 -24.5l217 326q71 105 146 146t208 50q147 9 336 9l242 -216v-446q0 -131 -87.5 -215
t-219.5 -84h-629q-62 0 -123.5 28t-107.5 76v-88q0 -124 -56.5 -216.5t-162.5 -149t-250.5 -84t-329.5 -27.5zM1618 309q58 -39 115 -39h530q53 0 91.5 38t35.5 89l-8 244l-98 92q-119 0 -191 -4q-116 -6 -176.5 -37.5t-120.5 -118.5zM2011 1202v230l256 10v-240h-256z" />
    <glyph glyph-name="uni0637" unicode="&#x637;" horiz-adv-x="1673" arabic-form="isolated" 
d="M174 0l-31 291l174 -2l78 119l-28 1046l254 16l4 -665l-23 -152l103 148q65 82 149.5 116.5t241.5 40.5q73 3 196 3l238 -216v-438q0 -135 -94.5 -221t-229.5 -86h-1032zM1192 270q52 -1 90.5 37.5t36.5 89.5l-8 246l-99 90q-107 0 -170 -4q-120 -6 -181 -38.5
t-122 -121.5l-186 -280z" />
    <glyph glyph-name="uni0638" unicode="&#x638;" horiz-adv-x="1673" arabic-form="isolated" 
d="M174 0l-31 291l174 -2l78 119l-28 1046l254 16l4 -665l-23 -152l103 148q65 82 149.5 116.5t241.5 40.5q73 3 196 3l238 -216v-438q0 -135 -94.5 -221t-229.5 -86h-1032zM1192 270q52 -1 90.5 37.5t36.5 89.5l-8 246l-99 90q-107 0 -170 -4q-120 -6 -181 -38.5
t-122 -121.5l-186 -280zM983 1200v230l256 10v-240h-256z" />
    <glyph glyph-name="uni0639.isol" unicode="&#x639;" horiz-adv-x="1349" arabic-form="isolated" 
d="M543 -600q-183 0 -291.5 95t-108.5 255v121q0 168 37.5 248t134.5 117q-28 25 -47.5 82t-19.5 120v150q0 95 9.5 148.5t33.5 94.5q11 19 29 41.5t33.5 39t44 43t40.5 37t45 39.5t37 32h314q115 0 199.5 -80t84.5 -188v-82l-194 -13q0 60 -36.5 98t-92.5 38h-172
q-86 -74 -112 -110q-11 -15 -17 -28q-15 -31 -15 -125l-4 -137q-2 -75 34.5 -108t113.5 -23l548 72l33 -232l-626 -96q-39 -6 -67.5 -15.5t-49 -19.5t-33.5 -28.5t-20.5 -34.5t-11 -47t-4.5 -55.5t-1 -69.5q0 -64 42.5 -98t117.5 -31l645 24l-41 -274h-612z" />
    <glyph glyph-name="uni063A" unicode="&#x63a;" horiz-adv-x="1349" arabic-form="isolated" 
d="M543 -600q-183 0 -291.5 95t-108.5 255v121q0 168 37.5 248t134.5 117q-28 25 -47.5 82t-19.5 120v150q0 95 9.5 148.5t33.5 94.5q11 19 29 41.5t33.5 39t44 43t40.5 37t45 39.5t37 32h314q115 0 199.5 -80t84.5 -188v-82l-194 -13q0 60 -36.5 98t-92.5 38h-172
q-86 -74 -112 -110q-11 -15 -17 -28q-15 -31 -15 -125l-4 -137q-2 -75 34.5 -108t113.5 -23l548 72l33 -232l-626 -96q-39 -6 -67.5 -15.5t-49 -19.5t-33.5 -28.5t-20.5 -34.5t-11 -47t-4.5 -55.5t-1 -69.5q0 -64 42.5 -98t117.5 -31l645 24l-41 -274h-612zM569 1294v230
l256 10v-240h-256z" />
    <glyph glyph-name="uni0641" unicode="&#x641;" horiz-adv-x="2011" arabic-form="isolated" 
d="M459 0q-139 0 -227.5 88.5t-88.5 228.5v488l238 10v-438q0 -47 24 -77t66 -30h565v-270h-577zM862 0v270h680q49 0 80 31.5t31 79.5v55h-359q-124 0 -199 78t-75 203v411l242 215h325q126 0 203.5 -76.5t77.5 -201.5v-690q0 -174 -91.5 -274.5t-263.5 -100.5h-651z
M1640 1020q-1 47 -35.5 78.5t-84.5 31.5h-183l-104 -90l-10 -235q-3 -59 34.5 -96t96.5 -37h303zM1309 1577v229l256 11v-240h-256z" />
    <glyph glyph-name="uni0642" unicode="&#x642;" horiz-adv-x="1642" arabic-form="isolated" 
d="M637 -559q-212 0 -353 133.5t-141 341.5v610l238 11v-574q0 -114 69 -185t183 -71q243 0 428 41.5t235 110.5q9 15 9 75v35h-398q-128 0 -205 74.5t-77 200.5v436l243 213h351q126 0 203 -76t77 -201v-700q0 -247 -207 -361t-655 -114zM1276 551q-3 62 -41 98t-100 35
l-189 -2l-108 -92l-9 -258q-3 -58 26 -83.5t97 -25.5h340zM1096 1313l293 -174l-662 -17v191h369zM1042 1130v183h308l53 -35v-139z" />
    <glyph glyph-name="uni0643" unicode="&#x643;" horiz-adv-x="2021" arabic-form="isolated" 
d="M459 0q-142 0 -229 86.5t-87 230.5v488l238 10v-438q0 -47 24 -77t66 -30h1034q58 0 97 33t38 82l-24 1073l254 19l8 -1092q0 -112 -34 -196.5t-110 -136.5t-188 -52h-1087zM1092 766q14 1 24 11.5t10 21.5q0 23 -22 41l-268 133l4 104l319 140l47 -95l-256 -96l236 -121
q39 -68 39 -119q0 -49 -38.5 -87t-94.5 -44l-271 -28v110z" />
    <glyph glyph-name="uni0644" unicode="&#x644;" horiz-adv-x="1538" arabic-form="isolated" 
d="M655 -481q-232 0 -372 135.5t-140 359.5v516l238 9v-494q0 -115 72.5 -186.5t189.5 -71.5q263 0 396 64t130 190l-39 1413l252 16l11 -1474q1 -233 -187.5 -355t-550.5 -122z" />
    <glyph glyph-name="uni0645" unicode="&#x645;" horiz-adv-x="1394" arabic-form="isolated" 
d="M1251 283q0 -130 -79.5 -211t-196.5 -72l-496 47q-53 5 -85.5 -26.5t-31.5 -83.5l21 -541l-240 -23l4 619q1 114 58.5 189.5t154.5 92.5l19 5q-38 38 -47 116l16 334q11 113 92 188.5t191 75.5h377l243 -215v-495zM545 389q32 -87 129 -96l246 -23q51 -3 88 36.5t34 90.5
l-10 293l-106 92h-234q-48 0 -85 -33.5t-38 -80.5z" />
    <glyph glyph-name="uni0646" unicode="&#x646;" horiz-adv-x="1581" arabic-form="isolated" 
d="M143 637l238 8v-579q0 -117 73.5 -188t190.5 -71q165 0 291 27t201.5 85.5t72.5 141.5l-32 797l254 19l4 -861q1 -123 -56 -215.5t-164 -149.5t-251.5 -84.5t-327.5 -27.5q-132 0 -245 62t-181 172t-68 243v621zM631 786v230l256 10v-240h-256z" />
    <glyph glyph-name="uni0647.isol" unicode="&#x647;" horiz-adv-x="1214" arabic-form="isolated" 
d="M754 279q35 6 60.5 46.5t25.5 86.5q-9 82 -33.5 175t-46.5 132q-28 48 -127 84l-53 20l-95 -90q-10 -10 -32 -31t-31 -29.5t-22 -22t-19.5 -23t-9.5 -17.5q-13 -27 -13 -94l-2 -121q0 -52 33 -89t80 -36zM469 0q-141 0 -233 92t-93 234v206q0 90 19 132q7 17 27 43t37 44
t47 48.5t36 36.5l51 55l-137 39l64 225q310 -91 479 -164q71 -32 115.5 -66.5t74.5 -84.5q43 -70 76 -213.5t39 -280.5q3 -136 -96.5 -241t-231.5 -105h-274z" />
    <glyph glyph-name="uni0648" unicode="&#x648;" horiz-adv-x="1196" arabic-form="isolated" 
d="M487 -287q205 45 284 98.5t77 129.5l-4 51h-430q-126 0 -198.5 75t-72.5 207v471l254 213h353q132 0 217.5 -81.5t85.5 -212.5l-2 -727q0 -195 -143 -315.5t-445 -182.5l-219 -47l-58 266zM823 637q-3 49 -38 80t-83 31h-237l-107 -91l-10 -288q-1 -60 33.5 -88.5
t97.5 -28.5h361z" />
    <glyph glyph-name="uni0649" unicode="&#x649;" horiz-adv-x="1650" arabic-form="isolated" 
d="M143 608l238 10v-571q0 -113 72.5 -184.5t185.5 -71.5q191 0 313.5 9.5t214.5 39.5q116 40 144 125q2 7 2 45q0 23 -12 32t-44 9h-387q-118 0 -171.5 54t-53.5 174v479l273 243h284q106 0 192.5 -81t86.5 -187v-80l-191 -10q-3 52 -41 91.5t-88 39.5h-184l-107 -92
l-12 -322q0 -48 21.5 -69t72.5 -21h371q89 0 136.5 -43t47.5 -127v-131q-12 -212 -190 -325q-108 -66 -273 -93.5t-405 -27.5q-132 0 -246.5 63.5t-182 174t-67.5 239.5v608z" />
    <glyph glyph-name="uni064A.isol" unicode="&#x64a;" horiz-adv-x="1650" arabic-form="isolated" 
d="M143 608l238 10v-571q0 -113 72.5 -184.5t185.5 -71.5q191 0 313.5 9.5t214.5 39.5q116 40 144 125q2 7 2 45q0 23 -12 32t-44 9h-387q-118 0 -171.5 54t-53.5 174v479l273 243h284q106 0 192.5 -81t86.5 -187v-80l-191 -10q-3 52 -41 91.5t-88 39.5h-184l-107 -92
l-12 -322q0 -48 21.5 -69t72.5 -21h371q89 0 136.5 -43t47.5 -127v-131q-12 -212 -190 -325q-108 -66 -273 -93.5t-405 -27.5q-132 0 -246.5 63.5t-182 174t-67.5 239.5v608zM758 -831l-293 174l661 16v-190h-368zM811 -649v-182h-307l-53 32v142z" />
    <glyph glyph-name="uni066E.fina" unicode="&#x66e;" horiz-adv-x="2074" 
d="M459 0q-141 0 -228.5 92t-87.5 234v479l238 10v-438q0 -48 24.5 -77.5t65.5 -29.5h1053q53 0 90.5 33t34.5 80l-29 502l254 16v-586q0 -137 -92 -226t-228 -89h-1095zM1978 0q-126 0 -197.5 111.5t-72.5 330.5h164q3 -172 127 -172h76q17 0 24.5 -53t7.5 -90t-8.5 -82
t-23.5 -45h-97z" />
    <glyph glyph-name="uni066F.fina" unicode="&#x66f;" horiz-adv-x="1607" 
d="M1374 0v270h236q12 0 21 -47t9 -88q0 -42 -9 -88.5t-21 -46.5h-236zM637 -528q-212 0 -353 133.5t-141 341.5v610l238 10v-573q0 -114 69 -185t183 -71q244 0 428.5 41t234.5 110q9 15 9 76v35h-398q-128 0 -205 74.5t-77 199.5v437l243 213h351q126 0 203 -76t77 -201
v-700q0 -247 -207 -361t-655 -114zM1276 582q-3 62 -41 98t-100 35l-189 -2l-108 -92l-9 -259q-3 -58 26 -83t97 -25h340z" />
    <glyph glyph-name="uni0671.isol" unicode="&#x671;" horiz-adv-x="542" arabic-form="isolated" 
d="M236 1409q-68 0 -105 27.5t-57 91.5l-17 49l-84 -154l-84 41l144 232l92 -13l20 -63q7 -29 21 -57l67 108q27 40 56 55q46 25 192 25l88 -78v-155q0 -51 -30.5 -80t-83.5 -29h-219zM444 1516q43 0 43 38l-4 76l-34 31q-41 0 -87 -8q-41 -6 -67 -43l-62 -90q20 -4 39 -4
h172zM143 1249l252 19l2 -1248l-215 -20z" />
    <glyph glyph-name="uni0679" unicode="&#x679;" horiz-adv-x="2017" arabic-form="isolated" 
d="M459 0q-141 0 -228.5 92t-87.5 234v479l238 10v-438q0 -48 24.5 -77.5t65.5 -29.5h1053q53 0 90.5 33t34.5 80l-29 502l254 16v-586q0 -137 -92 -226t-228 -89h-1095zM836 1114l26 35l-10 330l90 8v-205l-4 -41l23 37q29 33 108 51q50 8 90 8l84 -73v-146
q0 -47 -31.5 -75.5t-83.5 -28.5h-292v100zM1126 1112q17 0 28 10t11 27l-2 74l-37 32q-31 0 -61 -6q-58 -11 -82 -47l-59 -88z" />
    <glyph glyph-name="uni067E" unicode="&#x67e;" horiz-adv-x="2017" arabic-form="isolated" 
d="M459 0q-141 0 -228.5 92t-87.5 234v479l238 10v-438q0 -48 24.5 -77.5t65.5 -29.5h1053q53 0 90.5 33t34.5 80l-29 502l254 16v-586q0 -137 -92 -226t-228 -89h-1095zM922 -803v201l215 8v-209h-215zM1059 -270l293 -174l-662 -17v191h369zM1006 -453v183h307l53 -33
v-141z" />
    <glyph glyph-name="uni0686" unicode="&#x686;" horiz-adv-x="1613" arabic-form="isolated" 
d="M961 139l247 -141l-577 -12v153h330zM899 -8v147h287l41 -28v-113zM840 -254v170l180 6v-176h-180zM621 -596q-218 0 -343.5 108.5t-125.5 297.5l-2 157q-3 194 66 290t259 159l518 168l-411 215q-29 16 -62 16q-73 3 -102 -65l-68 -142l-194 78l84 193q38 85 116 132.5
t176 47.5q79 0 158 -43l780 -395l-69 -234l-109 53l-696 -237q-135 -46 -175.5 -93.5t-41.5 -162.5v-105q-2 -85 57 -139t150 -51l735 26l-39 -274h-661z" />
    <glyph glyph-name="uni0688" unicode="&#x688;" horiz-adv-x="1286" arabic-form="isolated" 
d="M465 0q-144 0 -232.5 87.5t-87.5 231.5l2 162l213 13v-115q0 -50 24.5 -79.5t68.5 -29.5h350q47 0 78.5 30.5t33.5 76.5l-86 360l-491 176l63 220l631 -238l111 -561q0 -134 -95.5 -234t-224.5 -100h-358zM354 1507l27 35l-10 330l90 8v-205l-4 -41l22 37q28 33 109 51
q56 9 90 9l84 -74v-146q0 -47 -31.5 -75.5t-83.5 -28.5h-293v100zM645 1505q17 0 28 10t11 27l-2 74l-37 33q-26 0 -61 -7q-58 -11 -82 -47l-60 -88z" />
    <glyph glyph-name="uni0691" unicode="&#x691;" horiz-adv-x="684" arabic-form="isolated" 
d="M287 797l254 16v-823q0 -205 -168 -356t-479 -226l-89 270q133 26 250 76t191 117t71 133zM238 1235l26 35l-10 329l90 9v-205l-4 -41l22 37q28 33 109 51q50 8 90 8l84 -74v-145q0 -47 -31.5 -75.5t-83.5 -28.5h-292v100zM528 1233q17 0 28 10t11 27l-2 73l-37 33
q-31 0 -61 -6q-58 -11 -82 -47l-59 -88z" />
    <glyph glyph-name="uni0695.fina" unicode="&#x695;" horiz-adv-x="753" 
d="M705 0q-50 0 -96.5 23t-71.5 55v-125q0 -187 -165.5 -328t-477.5 -217l-89 270q132 27 249 76.5t191.5 116t71.5 131.5l-30 795l254 16v-428q3 -50 40.5 -82.5t96.5 -32.5h76q32 0 32 -143q0 -127 -32 -127h-49zM281 -1094h-70l135 463l107 -20zM276 -1087l-65 -7
l-199 424l103 37z" />
    <glyph glyph-name="uni0698" unicode="&#x698;" horiz-adv-x="684" arabic-form="isolated" 
d="M287 797l254 16v-823q0 -205 -168 -356t-479 -226l-89 270q133 26 250 76t191 117t71 133zM303 1425v199l221 8v-207h-221zM444 1284l293 -174l-661 -16v190h368zM391 1102v182h307l54 -35v-139z" />
    <glyph glyph-name="uni06A0.init" unicode="&#x6a0;" horiz-adv-x="1316" 
d="M-2 0v270h252q-31 53 -31 150v201q0 102 39 167q21 39 58.5 78t101 92.5t76.5 65.5h321q114 0 199.5 -80t85.5 -188v-82l-195 -12q0 57 -37 96t-92 39h-182q-5 -5 -33.5 -31.5t-41.5 -39.5t-32 -35t-28 -40q-13 -33 -13 -114l3 -131q2 -77 39 -106.5t128 -23.5l517 33
l41 -258q-424 -51 -855 -51h-321zM606 1610v198l221 9v-207h-221zM748 1468l292 -174l-661 -16v190h369zM694 1286v182h307l54 -34v-140z" />
    <glyph glyph-name="uni06A0.medi" unicode="&#x6a0;" horiz-adv-x="1400" 
d="M1061 0q-200 0 -346 51q-148 -51 -328 -51h-389v270h301q70 0 150 13q-82 65 -128.5 178.5t-80.5 308.5l-93 -4l29 260l832 8q75 -73 110 -108.5t66 -78t35 -71.5q7 -61 -35 -178q-40 -122 -80.5 -195t-99.5 -124q88 -9 126 -9h271q17 0 24 -51.5t7 -87.5q0 -29 -8 -80
t-23 -51h-340zM723 326q67 20 123.5 71.5t83.5 112.5q6 15 15.5 36.5t13.5 31t9.5 23t8 20t5 15t3 14.5t0.5 12q-1 29 -17.5 55.5t-60.5 73.5l-458 -17q45 -208 106 -310t168 -138zM602 1610v198l221 9v-207h-221zM743 1468l293 -174l-661 -16v190h368zM690 1286v182h307
l54 -34v-140z" />
    <glyph glyph-name="uni06A0.fina" unicode="&#x6a0;" horiz-adv-x="1447" 
d="M543 -600q-178 0 -289 93t-111 257v121q0 154 45 234t162 131q104 42 115 45q-79 60 -117.5 164t-79.5 325l-92 -4l29 260l831 8q75 -65 130 -134.5t67 -113.5q9 -63 -21 -188q-50 -204 -202 -319q56 -9 120 -9h318q21 0 31 -139q2 -38 -7.5 -84.5t-23.5 -46.5h-358
q-209 0 -373 86q-86 -13 -191 -47q-34 -11 -56 -20t-38 -25t-23.5 -28.5t-12 -40.5t-5 -50.5t-0.5 -69.5q0 -84 39.5 -121t120.5 -34l653 24l-41 -274h-620zM752 326q70 23 126.5 75t82.5 113q8 18 17.5 41t14 33.5t9.5 24t7 20.5t3.5 15t1.5 16q0 26 -17 53t-61 74
l-459 -17q43 -207 105 -309.5t170 -138.5zM629 1612v198l221 9v-207h-221zM770 1470l293 -174l-662 -16v190h369zM717 1288v182h307l53 -34v-140z" />
    <glyph glyph-name="uni06A1.init" unicode="&#x6a1;" horiz-adv-x="1146" 
d="M-2 0v270h680q49 0 79.5 31.5t30.5 79.5v55h-358q-124 0 -199 78t-75 203v411l241 215h326q126 0 203.5 -76.5t77.5 -201.5v-690q0 -174 -91.5 -274.5t-263.5 -100.5h-651zM776 1020q-1 47 -36 78.5t-85 31.5h-182l-104 -90l-11 -235q-3 -59 34.5 -96t96.5 -37h304z" />
    <glyph glyph-name="uni06A1.medi" unicode="&#x6a1;" horiz-adv-x="1331" 
d="M289 270q-27 30 -44.5 74.5t-17.5 83.5q0 177 27 277q6 24 16.5 49t21 44t31 44.5t31.5 39t39.5 41t39 36.5t44 39.5t41.5 37.5l318 -41q113 -15 199.5 -107t92.5 -206q9 -158 -7.5 -254t-57.5 -158h266q14 0 23.5 -45t9.5 -98q0 -47 -9.5 -87t-23.5 -40h-543
q-67 0 -131 23q-61 -23 -129 -23h-528v270h291zM594 801q-119 -103 -137 -191q-13 -54 -13 -157q0 -72 65 -127.5t150 -55.5h27q117 0 168 62.5t51 208.5q0 117 -32 169.5t-107 63.5z" />
    <glyph glyph-name="uni06A1.fina" unicode="&#x6a1;" horiz-adv-x="2150" 
d="M459 0q-141 0 -228.5 88.5t-87.5 228.5v488l238 10v-438q0 -47 24 -77t66 -30h530v-270h-542zM1108 270q-26 29 -43.5 73.5t-17.5 84.5q0 181 26 277q6 24 16.5 49t21 44t31 44.5t31.5 39t39.5 41t39 36.5t44 39.5t41.5 37.5l318 -41q113 -15 200 -107.5t93 -205.5
q9 -157 -8 -253t-58 -159h266q14 0 23.5 -45t9.5 -98q0 -47 -9.5 -87t-23.5 -40h-542q-67 0 -131 23q-61 -23 -129 -23h-529v270h291zM1413 801q-119 -103 -137 -191q-12 -49 -12 -157q0 -72 65 -127.5t150 -55.5h26q117 0 168 62.5t51 208.5q0 117 -32 169.5t-107 63.5z
" />
    <glyph glyph-name="uni06A4" unicode="&#x6a4;" horiz-adv-x="2011" arabic-form="isolated" 
d="M459 0q-139 0 -227.5 88.5t-88.5 228.5v488l238 10v-438q0 -47 24 -77t66 -30h565v-270h-577zM862 0v270h680q49 0 80 31.5t31 79.5v55h-359q-124 0 -199 78t-75 203v411l242 215h325q126 0 203.5 -76.5t77.5 -201.5v-690q0 -174 -91.5 -274.5t-263.5 -100.5h-651z
M1640 1020q-1 47 -35.5 78.5t-84.5 31.5h-183l-104 -90l-10 -235q-3 -59 34.5 -96t96.5 -37h303zM1327 1909v198l221 9v-207h-221zM1468 1767l293 -174l-661 -16v190h368zM1415 1585v182h307l54 -34v-140z" />
    <glyph glyph-name="uni06A9" unicode="&#x6a9;" horiz-adv-x="2023" arabic-form="isolated" 
d="M459 0q-142 0 -229 86.5t-87 230.5v488l238 10v-438q0 -47 24 -77t66 -30h1040q58 0 97.5 30t42.5 79l-60 264l-684 328l8 258l801 346l107 -227l-639 -238l602 -303q5 -22 33 -140.5t41.5 -194.5t17.5 -140q6 -133 -96 -232.5t-242 -99.5h-1081z" />
    <glyph glyph-name="uni06AA.init" unicode="&#x6aa;" horiz-adv-x="1722" 
d="M-2 0v270h1237q54 0 90 33t33 82l-12 246q-1 51 -36.5 82t-88.5 28l-1014 -41l-31 242l596 588l170 -158l-461 -420l760 29q147 6 242.5 -80.5t95.5 -234.5v-344q0 -141 -89 -231.5t-228 -90.5h-1264z" />
    <glyph glyph-name="uni06AA.medi" unicode="&#x6aa;" horiz-adv-x="1779" 
d="M-2 0v270h1237q54 0 90 33t33 82l-12 246q-1 51 -36.5 82t-88.5 28l-1014 -41l-31 242l596 588l170 -158l-461 -420l760 29q147 6 242.5 -80.5t95.5 -234.5v-344q0 -141 -89 -231.5t-228 -90.5h-1264zM1683 0q-126 0 -197.5 111.5t-72.5 330.5h164q3 -172 127 -172h76
q17 0 24.5 -53t7.5 -90t-8.5 -82t-23.5 -45h-97z" />
    <glyph glyph-name="uni06AA.fina" unicode="&#x6aa;" horiz-adv-x="2097" 
d="M1892 322q0 -140 -89 -231t-228 -91h-1399l-33 305l1403 -35q53 -2 90.5 31.5t34.5 83.5l-10 246q-3 49 -37.5 81t-87.5 29l-1018 -41l-29 242l596 588l172 -158l-462 -420l759 29q151 3 244.5 -84t93.5 -231v-344zM2001 0q-126 0 -197.5 111.5t-72.5 330.5h163
q3 -172 127 -172h76q17 0 25 -53.5t8 -89.5q0 -37 -9 -82t-24 -45h-96z" />
    <glyph glyph-name="uni06AF" unicode="&#x6af;" horiz-adv-x="2023" arabic-form="isolated" 
d="M459 0q-142 0 -229 86.5t-87 230.5v488l238 10v-438q0 -47 24 -77t66 -30h1040q58 0 97.5 30t42.5 79l-60 264l-684 328l8 258l801 346l107 -227l-639 -238l602 -303q5 -22 33 -140.5t41.5 -194.5t17.5 -140q6 -133 -96 -232.5t-242 -99.5h-1081zM1632 1667l-612 -258
l-47 104l33 56l555 256z" />
    <glyph glyph-name="uni06B5.init" unicode="&#x6b5;" horiz-adv-x="655" 
d="M-2 0v270h141q60 0 97 33.5t36 87.5l-24 1067l256 19l6 -1090q1 -186 -92.5 -286.5t-265.5 -100.5h-154zM428 1706h-70l136 463l106 -21zM422 1712l-64 -6l-198 424l102 37z" />
    <glyph glyph-name="uni06B5.medi" unicode="&#x6b5;" horiz-adv-x="712" 
d="M-2 0v270h135q56 0 94.5 35t38.5 86l-22 1067l252 19l8 -1090q0 -54 30.5 -85.5t81.5 -31.5h97q17 0 24.5 -51.5t7.5 -87.5q0 -35 -7.5 -83t-24.5 -48h-117q-66 0 -124.5 37t-78.5 96q-20 -56 -83.5 -94.5t-133.5 -38.5h-178zM426 1706h-70l136 463l106 -21zM420 1712
l-64 -6l-198 424l102 37z" />
    <glyph glyph-name="uni06B5.fina" unicode="&#x6b5;" horiz-adv-x="1595" 
d="M655 -481q-232 0 -372 135.5t-140 359.5v516l238 9v-494q0 -115 72.5 -186.5t189.5 -71.5q263 0 396 64t130 190l-39 1413l252 16l11 -1474q1 -233 -187.5 -355t-550.5 -122zM1497 0q-126 0 -197.5 111.5t-72.5 330.5h164q3 -172 127 -172h75q17 0 25 -53.5t8 -89.5
q0 -37 -9 -82t-24 -45h-96zM1319 1706h-70l135 463l107 -21zM1313 1712l-64 -6l-198 424l102 37z" />
    <glyph glyph-name="uni06BA.isol" unicode="&#x6ba;" horiz-adv-x="1581" arabic-form="isolated" 
d="M143 637l238 8v-579q0 -117 73.5 -188t190.5 -71q165 0 291 27t201.5 85.5t72.5 141.5l-32 797l254 19l4 -861q1 -123 -56 -215.5t-164 -149.5t-251.5 -84.5t-327.5 -27.5q-132 0 -245 62t-181 172t-68 243v621z" />
    <glyph glyph-name="uni06BD.init" unicode="&#x6bd;" horiz-adv-x="851" 
d="M-2 0v270h360q53 0 90.5 32.5t34.5 80.5l-28 502l254 16v-586q0 -136 -91 -225.5t-229 -89.5h-391zM164 -803v201l215 8v-209h-215zM301 -270l293 -174l-662 -17v191h369zM248 -453v183h307l53 -33v-141z" />
    <glyph glyph-name="uni06BD.medi" unicode="&#x6bd;" horiz-adv-x="899" 
d="M760 0q-62 0 -122 38.5t-81 94.5q-22 -55 -84.5 -94t-128.5 -39h-346v270h324q52 0 85 32.5t33 82.5v418l228 6v-424q0 -50 31.5 -82.5t80.5 -32.5h119q11 0 18 -18.5t10 -46.5t4 -46.5t1 -33.5q0 -35 -9 -80t-24 -45h-139zM223 -803v201l215 8v-209h-215zM360 -270
l293 -174l-661 -17v191h368zM307 -453v183h307l54 -33v-141z" />
    <glyph glyph-name="uni06BE" unicode="&#x6be;" horiz-adv-x="1769" arabic-form="isolated" 
d="M262 442q0 109 5 167.5t24 111.5q22 67 117 162l-142 22l35 228l889 -175q120 -25 179.5 -54t98.5 -91q52 -81 101.5 -241t54.5 -255q6 -130 -89 -223.5t-228 -93.5h-340q-82 0 -156 35q-33 -29 -66 -39q-236 -81 -524 -141l-78 268l256 55q-75 47 -106 107.5t-31 156.5z
M477 438q0 -61 63 -112t142 -56q123 -5 172 61t49 236q0 104 -12 142q-22 70 -100 82l-160 22q-101 -83 -125 -141q-17 -33 -23 -83t-6 -151zM1286 270q47 0 80.5 31.5t38.5 77.5q-38 137 -76 235q-29 78 -58 103t-104 39l-127 22q34 -33 47 -75t13 -123q0 -203 -66 -295
q43 -15 62 -15h190z" />
    <glyph glyph-name="uni06C1" unicode="&#x6c1;" horiz-adv-x="1214" arabic-form="isolated" 
d="M754 279q35 6 60.5 46.5t25.5 86.5q-9 82 -33.5 175t-46.5 132q-28 48 -127 84l-53 20l-95 -90q-10 -10 -32 -31t-31 -29.5t-22 -22t-19.5 -23t-9.5 -17.5q-13 -27 -13 -94l-2 -121q0 -52 33 -89t80 -36zM469 0q-141 0 -233 92t-93 234v206q0 90 19 132q7 17 27 43t37 44
t47 48.5t36 36.5l51 55l-137 39l64 225q310 -91 479 -164q71 -32 115.5 -66.5t74.5 -84.5q43 -70 76 -213.5t39 -280.5q3 -136 -96.5 -241t-231.5 -105h-274z" />
    <glyph glyph-name="uni06C2.fina" unicode="&#x6c2;" horiz-adv-x="1308" 
d="M1217 0q-122 0 -194.5 55t-100.5 170q-1 -4 -3 -9.5t-5.5 -12.5t-4.5 -10q-48 -111 -178 -111h-285q-120 0 -210.5 92.5t-90.5 216.5v39v43.5t0.5 41t1.5 45t2.5 41t4.5 43.5t7 37t9 37t12 30q9 22 29.5 48t53.5 57.5t57.5 54t66.5 59t57 49.5l308 53l-17 107l230 32
l94 -764q14 -108 53 -141t156 -33h41q12 0 21 -48.5t9 -88.5q0 -39 -9 -86t-21 -47h-94zM707 328q95 0 116 73q11 40 15 66l-54 379l-237 -41q-13 -12 -57 -45.5t-70 -58t-37 -46.5q-19 -40 -25 -211q-3 -47 38.5 -82t99.5 -34h211zM455 1384l-45 113l75 39q-20 3 -32 31
l-43 88q-20 36 -17 69q0 15 17 64q4 10 13.5 36t14.5 40l121 53q45 21 89 6t69 -57l16 -37l-80 -37q-31 47 -73 27l-66 -35q-9 -23 -14 -47q-4 -12 -4 -25q0 -26 16 -53l25 -47q15 -29 34 -33t54 16l200 115l54 -106z" />
    <glyph glyph-name="uni06C3.fina" unicode="&#x6c3;" horiz-adv-x="1275" 
d="M1147 0q-160 0 -245 117t-126 348l-49 266l-188 -22q-162 -120 -174 -195q-9 -66 -9 -223v-180l-198 -2l-8 272q-8 170 40 260q16 43 58.5 93t80 83.5t111.5 95.5l488 62l76 -551q12 -86 53.5 -120t136.5 -34h80q14 0 23.5 -43t9.5 -94q0 -48 -9.5 -90.5t-23.5 -42.5
h-127zM694 1386l293 -174l-661 -16v190h368zM641 1204v182h307l53 -34v-140z" />
    <glyph glyph-name="uni06C6.isol" unicode="&#x6c6;" horiz-adv-x="1196" arabic-form="isolated" 
d="M487 -287q205 45 284 98.5t77 129.5l-4 51h-430q-126 0 -198.5 75t-72.5 207v471l254 213h353q132 0 217.5 -81.5t85.5 -212.5l-2 -727q0 -195 -143 -315.5t-445 -182.5l-219 -47l-58 266zM823 637q-3 49 -38 80t-83 31h-237l-107 -91l-10 -288q-1 -60 33.5 -88.5
t97.5 -28.5h361zM676 1231h-70l135 463l107 -21zM670 1237l-64 -6l-198 424l102 37z" />
    <glyph glyph-name="uni06C9" unicode="&#x6c9;" horiz-adv-x="1196" arabic-form="isolated" 
d="M487 -287q205 45 284 98.5t77 129.5l-4 51h-430q-126 0 -198.5 75t-72.5 207v471l254 213h353q132 0 217.5 -81.5t85.5 -212.5l-2 -727q0 -195 -143 -315.5t-445 -182.5l-219 -47l-58 266zM823 637q-3 49 -38 80t-83 31h-237l-107 -91l-10 -288q-1 -60 33.5 -88.5
t97.5 -28.5h361zM741 1231l-135 463h70l172 -443zM408 1270l198 424l64 -6l-160 -455z" />
    <glyph glyph-name="uni06CC" unicode="&#x6cc;" horiz-adv-x="1650" arabic-form="isolated" 
d="M143 608l238 10v-571q0 -113 72.5 -184.5t185.5 -71.5q191 0 313.5 9.5t214.5 39.5q116 40 144 125q2 7 2 45q0 23 -12 32t-44 9h-387q-118 0 -171.5 54t-53.5 174v479l273 243h284q106 0 192.5 -81t86.5 -187v-80l-191 -10q-3 52 -41 91.5t-88 39.5h-184l-107 -92
l-12 -322q0 -48 21.5 -69t72.5 -21h371q89 0 136.5 -43t47.5 -127v-131q-12 -212 -190 -325q-108 -66 -273 -93.5t-405 -27.5q-132 0 -246.5 63.5t-182 174t-67.5 239.5v608z" />
    <glyph glyph-name="uni06CE.init" unicode="&#x6ce;" horiz-adv-x="851" 
d="M-2 0v270h360q53 0 90.5 32.5t34.5 80.5l-28 502l254 16v-586q0 -136 -91 -225.5t-229 -89.5h-391zM266 -295l293 -174l-661 -16v190h368zM213 -477v182h307l53 -33v-141zM399 1171h-69l135 463l106 -20zM393 1178l-63 -7l-199 424l102 37z" />
    <glyph glyph-name="uni06CE.medi" unicode="&#x6ce;" horiz-adv-x="899" 
d="M760 0q-62 0 -122 38.5t-81 94.5q-22 -55 -84.5 -94t-128.5 -39h-346v270h324q52 0 85 32.5t33 82.5v418l228 6v-424q0 -50 31.5 -82.5t80.5 -32.5h119q11 0 18 -18.5t10 -46.5t4 -46.5t1 -33.5q0 -35 -9 -80t-24 -45h-139zM360 -270l293 -174l-661 -17v191h368z
M307 -453v183h307l54 -33v-141zM467 1090h-70l135 462l107 -20zM461 1096l-64 -6l-198 423l102 37z" />
    <glyph glyph-name="uni06CE.fina" unicode="&#x6ce;" horiz-adv-x="1599" 
d="M1602 270q16 0 23 -45.5t7 -91.5q0 -33 -7 -83t-23 -50h-113q10 -15 10 -53q0 -12 -4 -66q-15 -161 -152 -268q-100 -75 -264.5 -108t-441.5 -33q-100 0 -191 37.5t-157.5 101.5t-106 152t-39.5 184v610l238 10v-573q0 -113 72.5 -184.5t183.5 -71.5q221 0 339 15t202 54
q103 50 125 103q2 10 2 47q0 24 -12 33.5t-44 9.5h-573l33 270h893zM1108 479h-70l136 463l106 -20zM1102 485l-64 -6l-198 424l102 37z" />
    <glyph glyph-name="uni06CF.fina" unicode="&#x6cf;" horiz-adv-x="1241" 
d="M1243 270q11 0 21 -41.5t10 -91.5q0 -51 -10 -94t-21 -43h-260v270h260zM487 -287q205 45 284 98.5t77 129.5l-4 51h-430q-126 0 -198.5 75t-72.5 207v471l254 213h353q132 0 217.5 -81.5t85.5 -212.5l-2 -727q0 -195 -143 -315.5t-445 -182.5l-219 -47l-58 266zM823 637
q-3 49 -38 80t-83 31h-237l-107 -91l-10 -288q-1 -60 33.5 -88.5t97.5 -28.5h361zM496 1190v229l256 11v-240h-256z" />
    <glyph glyph-name="uni06D2.isol" unicode="&#x6d2;" horiz-adv-x="1523" arabic-form="isolated" 
d="M528 0q-196 0 -290.5 94t-94.5 289v500l273 243h243q109 0 187 -54t166 -189l84 -135l-183 -136l-131 205q-28 46 -55.5 63t-73.5 17h-170l-104 -86l-10 -375q-3 -91 38.5 -131.5t135.5 -38.5l837 21l-39 -287h-813z" />
    <glyph glyph-name="uni06D3" unicode="&#x6d3;" horiz-adv-x="1523" arabic-form="isolated" 
d="M528 0q-196 0 -290.5 94t-94.5 289v500l273 243h243q109 0 187 -54t166 -189l84 -135l-183 -136l-131 205q-28 46 -55.5 63t-73.5 17h-170l-104 -86l-10 -375q-3 -91 38.5 -131.5t135.5 -38.5l837 21l-39 -287h-813zM377 1372l-45 113l76 39q-21 4 -33 30l-43 88
q-20 36 -17 70q0 15 17 64q4 10 13.5 36t14.5 39l121 54q45 21 89 5.5t69 -57.5l16 -36l-80 -37q-31 46 -73 26l-66 -34q-9 -22 -14 -48q-4 -12 -4 -24q0 -26 16 -53l25 -48q15 -29 34 -32.5t54 16.5l201 115l53 -107z" />
    <glyph glyph-name="uni06D5.fina" unicode="&#x6d5;" horiz-adv-x="1308" 
d="M1217 0q-122 0 -194.5 55t-100.5 170q-1 -4 -3 -9.5t-5.5 -12.5t-4.5 -10q-48 -111 -178 -111h-285q-120 0 -210.5 92.5t-90.5 216.5v39v43.5t0.5 41t1.5 45t2.5 41t4.5 43.5t7 37t9 37t12 30q9 22 29.5 48t53.5 57.5t57.5 54t66.5 59t57 49.5l308 53l-17 107l230 32
l94 -764q14 -108 53 -141t156 -33h41q12 0 21 -48.5t9 -88.5q0 -39 -9 -86t-21 -47h-94zM707 328q95 0 116 73q11 40 15 66l-54 379l-237 -41q-13 -12 -57 -45.5t-70 -58t-37 -46.5q-19 -40 -25 -211q-3 -47 38.5 -82t99.5 -34h211z" />
    <glyph glyph-name="uni0671.fina" unicode="&#x671;" horiz-adv-x="620" arabic-form="final" 
d="M219 1407q-68 0 -105 27.5t-57 91.5l-16 49l-84 -154l-84 41l143 232l93 -13l20 -63q7 -29 21 -57l67 108q27 41 55 55q46 25 193 25l88 -78v-155q0 -51 -31 -80t-84 -29h-219zM428 1513q43 0 43 39l-4 76l-35 31q-40 0 -86 -8q-41 -6 -67 -43l-62 -90q25 -5 39 -5h172z
M479 0q-139 0 -219.5 92.5t-85.5 257.5l-31 912l250 18l2 -895q0 -49 33.5 -82t81.5 -33h111q32 0 32 -139q0 -131 -32 -131h-142z" />
    <glyph glyph-name="uni067E.fina" unicode="&#x67e;" horiz-adv-x="2074" arabic-form="final" 
d="M459 0q-141 0 -228.5 92t-87.5 234v479l238 10v-438q0 -48 24.5 -77.5t65.5 -29.5h1053q53 0 90.5 33t34.5 80l-29 502l254 16v-586q0 -137 -92 -226t-228 -89h-1095zM1978 0q-126 0 -197.5 111.5t-72.5 330.5h164q3 -172 127 -172h76q17 0 24.5 -53t7.5 -90t-8.5 -82
t-23.5 -45h-97zM920 -803v201l215 8v-209h-215zM1057 -270l293 -174l-662 -17v191h369zM1004 -453v183h307l53 -33v-141z" />
    <glyph glyph-name="uni067E.init" unicode="&#x67e;" horiz-adv-x="851" arabic-form="initial" 
d="M-2 0v270h360q53 0 90.5 32.5t34.5 80.5l-28 502l254 16v-586q0 -136 -91 -225.5t-229 -89.5h-391zM164 -803v201l215 8v-209h-215zM301 -270l293 -174l-662 -17v191h369zM248 -453v183h307l53 -33v-141z" />
    <glyph glyph-name="uni067E.medi" unicode="&#x67e;" horiz-adv-x="899" arabic-form="medial" 
d="M760 0q-62 0 -122 38.5t-81 94.5q-22 -55 -84.5 -94t-128.5 -39h-346v270h324q52 0 85 32.5t33 82.5v418l228 6v-424q0 -50 31.5 -82.5t80.5 -32.5h119q11 0 18 -18.5t10 -46.5t4 -46.5t1 -33.5q0 -35 -9 -80t-24 -45h-139zM223 -803v201l215 8v-209h-215zM360 -270
l293 -174l-661 -17v191h368zM307 -453v183h307l54 -33v-141z" />
    <glyph glyph-name="uni0679.fina" unicode="&#x679;" horiz-adv-x="2074" arabic-form="final" 
d="M459 0q-141 0 -228.5 92t-87.5 234v479l238 10v-438q0 -48 24.5 -77.5t65.5 -29.5h1053q53 0 90.5 33t34.5 80l-29 502l254 16v-586q0 -137 -92 -226t-228 -89h-1095zM1978 0q-126 0 -197.5 111.5t-72.5 330.5h164q3 -172 127 -172h76q17 0 24.5 -53t7.5 -90t-8.5 -82
t-23.5 -45h-97zM834 1114l26 35l-10 330l90 8v-205l-4 -41l22 37q28 33 109 51q50 8 90 8l84 -73v-146q0 -47 -31.5 -75.5t-83.5 -28.5h-292v100zM1124 1112q17 0 28 10t11 27l-2 74l-37 32q-31 0 -61 -6q-58 -11 -82 -47l-59 -88z" />
    <glyph glyph-name="uni0679.init" unicode="&#x679;" horiz-adv-x="851" arabic-form="initial" 
d="M-2 0v270h360q53 0 90.5 32.5t34.5 80.5l-28 502l254 16v-586q0 -136 -91 -225.5t-229 -89.5h-391zM184 1274l27 35l-10 329l90 9v-205l-4 -41l22 37q28 33 109 51q50 8 90 8l84 -74v-145q0 -47 -31.5 -75.5t-83.5 -28.5h-293v100zM475 1272q17 0 28 10t11 27l-2 73
l-37 33q-31 0 -61 -6q-58 -11 -82 -47l-60 -88z" />
    <glyph glyph-name="uni0679.medi" unicode="&#x679;" horiz-adv-x="899" arabic-form="medial" 
d="M760 0q-62 0 -122 38.5t-81 94.5q-22 -55 -84.5 -94t-128.5 -39h-346v270h324q52 0 85 32.5t33 82.5v418l228 6v-424q0 -50 31.5 -82.5t80.5 -32.5h119q11 0 18 -18.5t10 -46.5t4 -46.5t1 -33.5q0 -35 -9 -80t-24 -45h-139zM242 1190l26 35l-10 329l90 9v-205l-4 -41
l23 37q29 33 108 51q50 8 90 8l84 -74v-145q0 -47 -31 -75.5t-83 -28.5h-293v100zM532 1188q17 0 28 10t11 27l-2 73l-37 33q-31 0 -61 -6q-58 -11 -82 -47l-59 -88z" />
    <glyph glyph-name="uni06A4.fina" unicode="&#x6a4;" horiz-adv-x="2150" arabic-form="final" 
d="M459 0q-141 0 -228.5 88.5t-87.5 228.5v488l238 10v-438q0 -47 24 -77t66 -30h530v-270h-542zM1108 270q-26 29 -43.5 73.5t-17.5 84.5q0 181 26 277q6 24 16.5 49t21 44t31 44.5t31.5 39t39.5 41t39 36.5t44 39.5t41.5 37.5l318 -41q113 -15 200 -107.5t93 -205.5
q9 -157 -8 -253t-58 -159h266q14 0 23.5 -45t9.5 -98q0 -47 -9.5 -87t-23.5 -40h-542q-67 0 -131 23q-61 -23 -129 -23h-529v270h291zM1413 801q-119 -103 -137 -191q-12 -49 -12 -157q0 -72 65 -127.5t150 -55.5h26q117 0 168 62.5t51 208.5q0 117 -32 169.5t-107 63.5z
M1364 1595v199l221 8v-207h-221zM1505 1454l293 -174l-661 -16v190h368zM1452 1272v182h307l53 -35v-139z" />
    <glyph glyph-name="uni06A4.init" unicode="&#x6a4;" horiz-adv-x="1146" arabic-form="initial" 
d="M-2 0v270h680q49 0 79.5 31.5t30.5 79.5v55h-358q-124 0 -199 78t-75 203v411l241 215h326q126 0 203.5 -76.5t77.5 -201.5v-690q0 -174 -91.5 -274.5t-263.5 -100.5h-651zM776 1020q-1 47 -36 78.5t-85 31.5h-182l-104 -90l-11 -235q-3 -59 34.5 -96t96.5 -37h304z
M489 1909v198l222 9v-207h-222zM631 1767l293 -174l-662 -16v190h369zM578 1585v182h307l53 -34v-140z" />
    <glyph glyph-name="uni06A4.medi" unicode="&#x6a4;" horiz-adv-x="1331" arabic-form="medial" 
d="M289 270q-27 30 -44.5 74.5t-17.5 83.5q0 177 27 277q6 24 16.5 49t21 44t31 44.5t31.5 39t39.5 41t39 36.5t44 39.5t41.5 37.5l318 -41q113 -15 199.5 -107t92.5 -206q9 -158 -7.5 -254t-57.5 -158h266q14 0 23.5 -45t9.5 -98q0 -47 -9.5 -87t-23.5 -40h-543
q-67 0 -131 23q-61 -23 -129 -23h-528v270h291zM594 801q-119 -103 -137 -191q-13 -54 -13 -157q0 -72 65 -127.5t150 -55.5h27q117 0 168 62.5t51 208.5q0 117 -32 169.5t-107 63.5zM561 1595v199l221 8v-207h-221zM702 1454l293 -174l-661 -16v190h368zM649 1272v182h307
l54 -35v-139z" />
    <glyph glyph-name="uni0686.fina" unicode="&#x686;" horiz-adv-x="1566" arabic-form="final" 
d="M862 125l232 -139l-535 -15v154h303zM801 -23v148h264l39 -29v-110zM743 -266v168l181 8v-176h-181zM1462 0q-173 1 -267 112.5t-103 315.5l145 143q21 -301 209 -301h123q16 0 23 -53.5t7 -89.5q0 -30 -7.5 -78.5t-22.5 -48.5h-107zM621 -596q-218 0 -343.5 108.5
t-125.5 297.5l-2 157q-3 194 66 290t259 159l518 168l-411 215q-29 16 -62 16q-73 3 -102 -65l-68 -142l-194 78l84 193q38 85 116 132.5t176 47.5q79 0 158 -43l780 -395l-69 -234l-109 53l-696 -237q-135 -46 -175.5 -93.5t-41.5 -162.5v-105q-2 -85 57 -139t150 -51
l735 26l-39 -274h-661z" />
    <glyph glyph-name="uni0686.init" unicode="&#x686;" horiz-adv-x="1581" arabic-form="initial" 
d="M-2 0v270h270q270 0 441 103l305 174l-453 229q-25 17 -59 17q-36 0 -64 -18t-41 -50l-63 -141l-197 69l78 193q33 87 112 137.5t177 50.5q85 0 158 -37l776 -376l-62 -234l-127 59l-368 -235q-172 -118 -320.5 -164.5t-347.5 -46.5h-215zM539 -803v201l217 8v-209h-217z
M676 -270l293 -174l-660 -17v191h367zM625 -453v183h305l53 -33v-141z" />
    <glyph glyph-name="uni0686.medi" unicode="&#x686;" horiz-adv-x="1527" arabic-form="medial" 
d="M1423 0q-171 0 -265.5 112.5t-102.5 315.5l145 143q21 -301 207 -301h125q14 0 21.5 -43t7.5 -100q0 -50 -7.5 -88.5t-21.5 -38.5h-109zM-2 0v270h270q270 0 441 103l305 174l-453 229q-25 17 -59 17q-36 0 -64 -18t-41 -50l-63 -141l-197 69l78 193q33 87 112 137.5
t177 50.5q85 0 158 -37l776 -376l-62 -234l-127 59l-368 -235q-172 -118 -320.5 -164.5t-347.5 -46.5h-215zM537 -803v201l215 8v-209h-215zM674 -270l293 -174l-662 -17v191h369zM621 -453v183h307l53 -33v-141z" />
    <glyph glyph-name="uni0688.fina" unicode="&#x688;" horiz-adv-x="1370" arabic-form="final" 
d="M1372 0q-111 0 -188 34.5t-142 115.5q-38 -70 -109 -110t-155 -40h-317q-141 0 -229.5 85.5t-88.5 225.5v170l215 13v-115q0 -55 26 -82t83 -27h330q47 0 81 30t40 73l-54 145l-192 529l227 63l213 -633q44 -126 94.5 -166.5t165.5 -40.5q15 0 23 -47t8 -90
q0 -40 -8 -86.5t-23 -46.5zM549 1503l26 35l-10 330l90 8v-205l-4 -41l23 37q29 33 108 51q50 8 90 8l84 -73v-146q0 -47 -31 -75.5t-83 -28.5h-293v100zM840 1501q17 0 28 10t11 27l-2 74l-37 33q-27 0 -62 -7q-58 -11 -82 -47l-59 -88z" />
    <glyph glyph-name="uni0698.fina" unicode="&#x698;" horiz-adv-x="843" arabic-form="final" 
d="M705 0q-50 0 -96.5 23t-71.5 55v-125q0 -187 -165.5 -328t-477.5 -217l-89 270q132 27 249 76.5t191.5 116t71.5 131.5l-30 795l254 16v-428q3 -50 40.5 -82.5t96.5 -32.5h76q32 0 32 -143q0 -127 -32 -127h-49zM301 1425v199l221 8v-207h-221zM442 1284l293 -174
l-661 -16v190h368zM389 1102v182h307l54 -35v-139zM844 270q14 0 23.5 -43t9.5 -90q0 -49 -9.5 -93t-23.5 -44h-92v270h92z" />
    <glyph glyph-name="uni0691.fina" unicode="&#x691;" horiz-adv-x="753" arabic-form="final" 
d="M705 0q-50 0 -96.5 23t-71.5 55v-125q0 -187 -165.5 -328t-477.5 -217l-89 270q132 27 249 76.5t191.5 116t71.5 131.5l-30 795l254 16v-428q3 -50 40.5 -82.5t96.5 -32.5h76q32 0 32 -143q0 -127 -32 -127h-49zM236 1235l26 35l-10 329l90 9v-205l-4 -41l22 37
q28 33 109 51q50 8 90 8l84 -74v-145q0 -47 -31.5 -75.5t-83.5 -28.5h-292v100zM526 1233q17 0 28 10t11 27l-2 73l-37 33q-31 0 -61 -6q-58 -11 -82 -47l-59 -88z" />
    <glyph glyph-name="uni06A9.fina" unicode="&#x6a9;" horiz-adv-x="2217" arabic-form="final" 
d="M459 0q-142 0 -229 86.5t-87 230.5v488l238 10v-438q0 -47 24 -77t66 -30h1051q60 0 101.5 35t41.5 88v84q-51 66 -80 84l-612 406l8 282l772 346l109 -227l-648 -250l494 -344q59 -40 113 -109t93.5 -134.5t82 -126.5t98 -98.5t123.5 -37.5q11 0 17.5 -8.5t11 -37.5
t4.5 -81q0 -80 -6.5 -110.5t-26.5 -30.5q-136 0 -230.5 62.5t-179.5 213.5l-6 -67q-15 -95 -101 -152t-214 -57h-1028z" />
    <glyph glyph-name="uni06A9.init" unicode="&#x6a9;" horiz-adv-x="1247" arabic-form="initial" 
d="M752 270q55 0 88.5 30.5t33.5 78.5l-61 264l-684 328l8 258l801 346l106 -227l-638 -238l604 -303q6 -28 18 -82t18.5 -83t16 -74t15 -73.5t11.5 -61.5t9 -57.5t4 -43.5q3 -87 -42 -163.5t-125 -122.5t-173 -46h-764v270h754z" />
    <glyph glyph-name="uni06A9.medi" unicode="&#x6a9;" horiz-adv-x="1390" arabic-form="medial" 
d="M1389 0q-138 0 -229.5 61.5t-180.5 214.5l-4 -65q-13 -95 -99.5 -153t-207.5 -58h-670v270h694q60 0 102 35t42 88v84q-50 67 -78 84l-613 406l9 282l772 346l106 -227l-647 -250l496 -344q49 -33 95 -87t78.5 -108t71 -111t74 -100.5t85 -71.5t106.5 -28q18 0 24 -24
t6 -103q0 -47 -7 -94t-25 -47z" />
    <glyph glyph-name="uni06AF.fina" unicode="&#x6af;" horiz-adv-x="2217" arabic-form="final" 
d="M459 0q-142 0 -229 86.5t-87 230.5v488l238 10v-438q0 -47 24 -77t66 -30h1051q60 0 101.5 35t41.5 88v84q-51 66 -80 84l-612 406l8 282l772 346l109 -227l-648 -250l494 -344q59 -40 113 -109t93.5 -134.5t82 -126.5t98 -98.5t123.5 -37.5q11 0 17.5 -8.5t11 -37.5
t4.5 -81q0 -80 -6.5 -110.5t-26.5 -30.5q-136 0 -230.5 62.5t-179.5 213.5l-6 -67q-15 -95 -101 -152t-214 -57h-1028zM1673 1679l-612 -258l-47 105l33 55l555 256z" />
    <glyph glyph-name="uni06AF.init" unicode="&#x6af;" horiz-adv-x="1247" arabic-form="initial" 
d="M752 270q55 0 88.5 30.5t33.5 78.5l-61 264l-684 328l8 258l801 346l106 -227l-638 -238l604 -303q6 -28 18 -82t18.5 -83t16 -74t15 -73.5t11.5 -61.5t9 -57.5t4 -43.5q3 -87 -42 -163.5t-125 -122.5t-173 -46h-764v270h754zM870 1675l-612 -258l-47 105l33 55l555 256z
" />
    <glyph glyph-name="uni06AF.medi" unicode="&#x6af;" horiz-adv-x="1390" arabic-form="medial" 
d="M1389 0q-138 0 -229.5 61.5t-180.5 214.5l-4 -65q-13 -95 -99.5 -153t-207.5 -58h-670v270h694q60 0 102 35t42 88v84q-50 67 -78 84l-613 406l9 282l772 346l106 -227l-647 -250l496 -344q49 -33 95 -87t78.5 -108t71 -111t74 -100.5t85 -71.5t106.5 -28q18 0 24 -24
t6 -103q0 -47 -7 -94t-25 -47zM858 1679l-612 -258l-47 105l32 55l555 256z" />
    <glyph glyph-name="uni06BA.fina" unicode="&#x6ba;" horiz-adv-x="1636" arabic-form="final" 
d="M143 637l238 8v-579q0 -117 73.5 -188t190.5 -71q165 0 291 27t201.5 85.5t72.5 141.5l-32 797l254 19l4 -861q1 -123 -56 -215.5t-164 -149.5t-251.5 -84.5t-327.5 -27.5q-132 0 -245 62t-181 172t-68 243v621zM1540 0q-126 0 -197.5 111.5t-72.5 330.5h164
q3 -172 127 -172h75q17 0 25 -53.5t8 -89.5q0 -37 -9 -82t-24 -45h-96z" />
    <glyph glyph-name="uni06C1.fina" unicode="&#x6c1;" horiz-adv-x="1273" arabic-form="final" 
d="M1147 0q-160 0 -245 117t-126 348l-49 266l-188 -22q-162 -120 -174 -195q-9 -66 -9 -223v-180l-198 -2l-8 272q-8 170 40 260q16 43 58.5 93t80 83.5t111.5 95.5l488 62l76 -551q12 -86 53.5 -120t136.5 -34h80q14 0 23.5 -43t9.5 -94q0 -48 -9.5 -90.5t-23.5 -42.5
h-127z" />
    <glyph glyph-name="uni06C1.init" unicode="&#x6c1;" horiz-adv-x="851" arabic-form="initial" 
d="M-2 0v270h360q53 0 90.5 32.5t34.5 80.5l-28 502l254 16v-586q0 -136 -91 -225.5t-229 -89.5h-391zM254 -414q-41 -47 -41 -84q1 -31 34 -67.5t109 -93.5l-131 -148q-132 120 -135 225q0 76 68 166l172 219l59 -55z" />
    <glyph glyph-name="uni06C1.medi" unicode="&#x6c1;" horiz-adv-x="1036" arabic-form="medial" 
d="M1036 0q-57 0 -69 -2q-52 -3 -80 -41q-53 -82 -139 -358h-222q-137 0 -218.5 84t-69.5 213l16 180q-67 -76 -195 -76h-61v270h135q61 0 99.5 32.5t43.5 86.5l29 340h207l-74 -788q-5 -60 40 -98t124 -38q51 184 81 266t71 126q48 54 133 63q85 10 149 10q16 0 23.5 -43
t7.5 -94q0 -48 -7.5 -90.5t-23.5 -42.5z" />
    <glyph glyph-name="uni06BE.fina" unicode="&#x6be;" horiz-adv-x="1482" arabic-form="final" 
d="M143 180l238 35l2 492q0 107 86.5 184.5t196.5 77.5h329l226 -197v-479q0 -102 -74.5 -172t-190.5 -88l-368 -60v-61q0 -125 151 -125h269l49 172q44 152 142 231.5t243 79.5h49q22 0 22 -137q0 -133 -22 -133h-47q-78 0 -137.5 -52t-87.5 -147l-66 -219h-471
q-136 0 -219.5 80t-83.5 205v76l-195 -33zM891 293q61 9 93.5 43.5t29.5 85.5l-13 250l-90 86h-182q-51 0 -87.5 -34t-37.5 -85l-12 -391z" />
    <glyph glyph-name="uni06BE.init" unicode="&#x6be;" horiz-adv-x="1683" arabic-form="initial" 
d="M229 270q-63 63 -63 152v34.5v37.5t0.5 34.5t1.5 37.5t2.5 34.5t4 37t6 34t9 35.5t11.5 32q12 33 36 65.5t74 80.5l-131 20l33 228l891 -175q143 -29 177 -43q29 -11 50 -28q65 -47 109 -193q8 -27 27 -88.5t31 -101.5t24.5 -93.5t15.5 -93.5q8 -126 -87 -221.5
t-228 -95.5h-410q-86 0 -147 37q-87 -37 -213 -37h-455v270h231zM938 274q16 -4 47 -4h205q52 0 89 32t40 77l-84 254q-26 77 -55 92q-32 22 -115 35l-125 20q35 -32 48 -77t13 -134q0 -119 -12.5 -180.5t-50.5 -114.5zM584 270q131 0 176 64q47 65 47 241q0 105 -26 156.5
t-91 61.5l-155 22q-59 -52 -86.5 -82.5t-40.5 -60.5q-27 -58 -27 -209q0 -70 56.5 -128t146.5 -65z" />
    <glyph glyph-name="uni06BE.medi" unicode="&#x6be;" horiz-adv-x="1288" arabic-form="medial" 
d="M1247 0q-154 0 -209 -176l-75 -242h-471q-136 0 -220 80t-84 205v133h-190v270h192l3 437q0 106 86.5 184t195.5 78h330l223 -197v-500q0 -109 -80 -190.5t-186 -81.5h-365l2 -88q3 -125 152 -125h268l58 193q84 290 370 290h47q27 0 27 -137q0 -133 -27 -133h-47z
M700 270q55 0 90.5 37.5t32.5 93.5l-12 271l-90 86h-182q-51 0 -87.5 -34t-37.5 -85l-13 -369h299z" />
    <glyph glyph-name="uni06D2.fina" unicode="&#x6d2;" horiz-adv-x="1032" arabic-form="final" 
d="M930 0q-290 0 -422 -51q-80 -35 -121 -103q-22 -36 -22 -100v-53q49 -52 151 -49l764 18l-37 -285h-833q-118 0 -192.5 67.5t-74.5 174.5v90q3 288 166 420q94 74 247.5 107.5t399.5 33.5h76q14 0 21.5 -42.5t7.5 -96.5q0 -50 -7.5 -90.5t-21.5 -40.5h-102z" />
    <glyph glyph-name="uni06D3.fina" unicode="&#x6d3;" horiz-adv-x="1032" arabic-form="final" 
d="M930 0q-290 0 -422 -51q-80 -35 -121 -103q-22 -36 -22 -100v-53q49 -52 151 -49l764 18l-37 -285h-833q-118 0 -192.5 67.5t-74.5 174.5v90q3 288 166 420q94 74 247.5 107.5t399.5 33.5h76q14 0 21.5 -42.5t7.5 -96.5q0 -50 -7.5 -90.5t-21.5 -40.5h-102zM612 508
l-45 113l76 38q-21 3 -33 31l-43 88q-19 34 -16 70q0 17 16 63q5 10 15 38t14 38l121 53q45 21 88.5 6t68.5 -57l17 -37l-80 -37q-32 47 -74 27l-65 -35q-11 -28 -15 -47q-4 -12 -4 -24q0 -26 17 -54l24 -47q15 -29 34 -32.5t54 16.5l201 115l53 -107z" />
    <glyph glyph-name="uni06C6.fina" unicode="&#x6c6;" horiz-adv-x="1241" arabic-form="final" 
d="M1243 270q11 0 21 -41.5t10 -91.5q0 -51 -10 -94t-21 -43h-260v270h260zM487 -287q205 45 284 98.5t77 129.5l-4 51h-430q-126 0 -198.5 75t-72.5 207v471l254 213h353q132 0 217.5 -81.5t85.5 -212.5l-2 -727q0 -195 -143 -315.5t-445 -182.5l-219 -47l-58 266zM823 637
q-3 49 -38 80t-83 31h-237l-107 -91l-10 -288q-1 -60 33.5 -88.5t97.5 -28.5h361zM674 1231h-70l135 463l107 -21zM668 1237l-64 -6l-198 424l102 37z" />
    <glyph glyph-name="uni06C9.fina" unicode="&#x6c9;" horiz-adv-x="1241" arabic-form="final" 
d="M1243 270q11 0 21 -41.5t10 -91.5q0 -51 -10 -94t-21 -43h-260v270h260zM487 -287q205 45 284 98.5t77 129.5l-4 51h-430q-126 0 -198.5 75t-72.5 207v471l254 213h353q132 0 217.5 -81.5t85.5 -212.5l-2 -727q0 -195 -143 -315.5t-445 -182.5l-219 -47l-58 266zM823 637
q-3 49 -38 80t-83 31h-237l-107 -91l-10 -288q-1 -60 33.5 -88.5t97.5 -28.5h361zM739 1231l-135 463h70l172 -443zM406 1270l198 424l64 -6l-160 -455z" />
    <glyph glyph-name="uni0649.init" unicode="&#x649;" horiz-adv-x="851" arabic-form="initial" 
d="M-2 0v270h360q53 0 90.5 32.5t34.5 80.5l-28 502l254 16v-586q0 -136 -91 -225.5t-229 -89.5h-391z" />
    <glyph glyph-name="uni0649.medi" unicode="&#x649;" horiz-adv-x="899" arabic-form="medial" 
d="M760 0q-62 0 -122 38.5t-81 94.5q-22 -55 -84.5 -94t-128.5 -39h-346v270h324q52 0 85 32.5t33 82.5v418l228 6v-424q0 -50 31.5 -82.5t80.5 -32.5h119q11 0 18 -18.5t10 -46.5t4 -46.5t1 -33.5q0 -35 -9 -80t-24 -45h-139z" />
    <glyph glyph-name="uni06CC.fina" unicode="&#x6cc;" horiz-adv-x="1599" arabic-form="final" 
d="M1602 270q16 0 23 -45.5t7 -91.5q0 -33 -7 -83t-23 -50h-113q10 -15 10 -53q0 -12 -4 -66q-15 -161 -152 -268q-100 -75 -264.5 -108t-441.5 -33q-100 0 -191 37.5t-157.5 101.5t-106 152t-39.5 184v610l238 10v-573q0 -113 72.5 -184.5t183.5 -71.5q221 0 339 15t202 54
q103 50 125 103q2 10 2 47q0 24 -12 33.5t-44 9.5h-573l33 270h893z" />
    <glyph glyph-name="uni06CC.init" unicode="&#x6cc;" horiz-adv-x="851" arabic-form="initial" 
d="M-2 0v270h360q53 0 90.5 32.5t34.5 80.5l-28 502l254 16v-586q0 -136 -91 -225.5t-229 -89.5h-391zM301 -270l293 -174l-662 -17v191h369zM248 -453v183h307l53 -33v-141z" />
    <glyph glyph-name="uni06CC.medi" unicode="&#x6cc;" horiz-adv-x="899" arabic-form="medial" 
d="M760 0q-62 0 -122 38.5t-81 94.5q-22 -55 -84.5 -94t-128.5 -39h-346v270h324q52 0 85 32.5t33 82.5v418l228 6v-424q0 -50 31.5 -82.5t80.5 -32.5h119q11 0 18 -18.5t10 -46.5t4 -46.5t1 -33.5q0 -35 -9 -80t-24 -45h-139zM360 -270l293 -174l-661 -17v191h368z
M307 -453v183h307l54 -33v-141z" />
    <glyph glyph-name="uni0651064C" unicode="&#xfc5e;" arabic-form="isolated" 
d="M178 348l113 6v-207q0 -67 -44 -107t-118 -40q-49 0 -88 23t-45 55q-6 -32 -45.5 -55t-89.5 -23q-72 0 -115 40t-43 107v193l109 -6l-17 -158q-1 -29 18.5 -47t53.5 -18q35 0 57.5 18t22.5 47v127l96 2v-131q1 -29 22.5 -46t55.5 -17t54.5 17t17.5 44zM-180 602
q12 26 4 41t-33 12l-86 -14l-4 70l106 18q73 11 103.5 -26t-0.5 -101l-27 -51l113 27l-31 116q-8 36 9.5 68t50.5 41l108 33l113 -58l28 -116q17 -64 -6 -107.5t-80 -54.5l-372 -72l-29 102zM170 618q11 3 15.5 15t0.5 24l-18 62l-35 14l-51 -12q-12 -3 -19 -14t-4 -23
l19 -88z" />
    <glyph glyph-name="uni0651064D" unicode="&#xfc5f;" arabic-form="isolated" 
d="M231 217l37 -117l-471 -100l-28 104zM219 449l33 -107l-465 -111l-35 115zM182 901l113 6v-207q0 -67 -44 -107t-118 -40q-49 0 -88 23t-45 55q-6 -32 -45.5 -55t-89.5 -23q-72 0 -115 40t-43 107v193l109 -6l-17 -158q-1 -29 18.5 -47t53.5 -18q35 0 57.5 18t22.5 47
v127l96 2v-131q1 -29 22.5 -46t55.5 -17t54.5 17t17.5 44z" />
    <glyph glyph-name="uni0651064E" unicode="&#xfc60;" arabic-form="isolated" 
d="M178 348l113 6v-207q0 -67 -44 -107t-118 -40q-49 0 -88 23t-45 55q-6 -32 -45.5 -55t-89.5 -23q-72 0 -115 40t-43 107v193l109 -6l-17 -158q-1 -29 18.5 -47t53.5 -18q35 0 57.5 18t22.5 47v127l96 2v-131q1 -29 22.5 -46t55.5 -17t54.5 17t17.5 44zM-221 414l-29 102
l461 115l37 -117z" />
    <glyph glyph-name="uni0651064F" unicode="&#xfc61;" arabic-form="isolated" 
d="M178 348l113 6v-207q0 -67 -44 -107t-118 -40q-49 0 -88 23t-45 55q-6 -32 -45.5 -55t-89.5 -23q-72 0 -115 40t-43 107v193l109 -6l-17 -158q-1 -29 18.5 -47t53.5 -18q35 0 57.5 18t22.5 47v127l96 2v-131q1 -29 22.5 -46t55.5 -17t54.5 17t17.5 44zM-244 524l178 45
l-28 121q-9 37 7.5 69t51.5 42l107 30l110 -57l31 -117q15 -66 -7.5 -107.5t-78.5 -53.5l-344 -76zM104 612q12 3 18.5 15t2.5 24l-21 66l-28 12l-56 -12q-12 -2 -18.5 -13t-3.5 -26l18 -90z" />
    <glyph glyph-name="uni06510650" unicode="&#xfc62;" arabic-form="isolated" 
d="M178 645l113 6v-207q0 -67 -44 -107t-118 -40q-49 0 -88 23t-45 55q-6 -32 -45.5 -55t-89.5 -23q-72 0 -115 40t-43 107v193l109 -6l-17 -158q-1 -29 18.5 -47t53.5 -18q35 0 57.5 18t22.5 47v127l96 2v-131q1 -29 22.5 -46t55.5 -17t54.5 17t17.5 44zM-211 0l-29 104
l461 115l37 -115z" />
    <glyph glyph-name="uni06510670" unicode="&#xfc63;" arabic-form="isolated" 
d="M178 348l113 6v-207q0 -67 -44 -107t-118 -40q-49 0 -88 23t-45 55q-6 -32 -45.5 -55t-89.5 -23q-72 0 -115 40t-43 107v193l109 -6l-17 -158q-1 -29 18.5 -47t53.5 -18q35 0 57.5 18t22.5 47v127l96 2v-131q1 -29 22.5 -46t55.5 -17t54.5 17t17.5 44zM-45 733l88 6
l-2 -317l-72 -6z" />
    <glyph glyph-name="uni06260631.fina" unicode="&#xfc64;" horiz-adv-x="1447" arabic-form="final" 
d="M752 1051l-45 112l75 39q-20 3 -32 31l-43 88q-20 36 -17 70q0 14 17 63q4 10 13.5 36t14.5 40l121 53q45 21 89 6t69 -57l16 -37l-80 -37q-31 47 -73 27l-66 -35q-9 -23 -14 -47q-4 -12 -4 -25q0 -26 16 -53l25 -47q15 -29 34 -32.5t54 16.5l200 114l54 -106zM1432 0
q-172 0 -264 72.5t-117 226.5l-47 309l-398 -14l-65 -70v-534q0 -202 -169 -353.5t-478 -228.5l-89 270q134 27 251 77t191 117t70 134l-24 592l235 231l586 17l82 -62l49 -387q7 -70 50 -98.5t141 -28.5h14q17 0 24 -49t7 -88q0 -30 -8 -81.5t-23 -51.5h-18z" />
    <glyph glyph-name="uni06260632.fina" unicode="&#xfc65;" horiz-adv-x="1447" arabic-form="final" 
d="M1432 0q-172 0 -264 72.5t-117 226.5l-47 309l-398 -14l-65 -70v-534q0 -202 -169 -353.5t-478 -228.5l-89 270q134 27 251 77t191 117t70 134l-24 592l235 231l586 17l82 -62l49 -387q7 -70 50 -98.5t141 -28.5h14q17 0 24 -49t7 -88q0 -30 -8 -81.5t-23 -51.5h-18z
M836 1051l-45 112l75 39q-20 3 -32 31l-43 88q-20 36 -17 70q0 14 17 63q4 10 13.5 36t14.5 40l121 53q45 21 89 6t69 -57l16 -37l-80 -37q-31 47 -73 27l-66 -35q-9 -23 -14 -47q-4 -12 -4 -25q0 -26 16 -53l25 -47q15 -29 34 -32.5t54 16.5l200 114l54 -106zM248 1051v229
l256 10v-239h-256z" />
    <glyph glyph-name="uni06260646.fina" unicode="&#xfc67;" horiz-adv-x="2361" arabic-form="final" 
d="M2314 0q-164 0 -255.5 73.5t-114.5 225.5l-48 309l-401 -14l-63 -62l4 -516q1 -235 -201.5 -356t-597.5 -121q-99 0 -190.5 38t-158 102t-106 152.5t-39.5 184.5v621l238 8v-579q0 -110 72.5 -184.5t179.5 -74.5q178 0 306 26.5t201.5 86t69.5 148.5l-24 530l235 231
l584 17l86 -62l47 -387q7 -72 49.5 -99.5t141.5 -27.5h30q12 0 20.5 -44t10.5 -93q2 -32 -8.5 -82.5t-22.5 -50.5h-45zM1634 1061l-45 113l76 38q-21 3 -33 31l-43 88q-19 34 -16 70q0 17 16 63q5 10 15 38t14 38l121 53q45 21 88.5 6t68.5 -57l17 -37l-80 -37
q-32 47 -74 27l-65 -35q-11 -28 -15 -47q-4 -12 -4 -24q0 -26 17 -54l24 -47q15 -29 34 -32.5t54 16.5l201 114l53 -106zM641 719v229l256 10v-239h-256z" />
    <glyph glyph-name="uni0626064A.fina" unicode="&#xfc69;" horiz-adv-x="2072" arabic-form="final" 
d="M2075 0q-161 0 -265 73.5t-229 274.5l-172 275q-36 56 -80.5 81t-114.5 25h-243l-103 -84l-10 -305q0 -49 21 -68.5t73 -19.5h322q111 0 161 -42.5t50 -131.5l-2 -101q0 -243 -207.5 -359t-636.5 -116q-131 0 -245.5 63.5t-182.5 173.5t-68 238v613l238 8v-573
q0 -108 72 -181t180 -73q262 -3 435.5 36.5t213.5 112.5q6 24 6 68q0 26 -11.5 35.5t-43.5 9.5h-363q-119 0 -172 52t-53 171v457l273 243h350q132 0 208.5 -43.5t141.5 -160.5l137 -242q71 -128 145 -184t173 -56q32 0 32 -137q0 -39 -9 -86t-21 -47zM965 1174l-45 112
l75 39q-20 3 -32 31l-43 88q-20 36 -17 69q0 15 17 64q4 10 13.5 36t14.5 40l121 53q45 21 89 6t69 -57l16 -37l-80 -37q-31 47 -73 27l-66 -35q-9 -23 -14 -47q-4 -12 -4 -25q0 -26 16 -53l25 -47q15 -29 34 -33t54 16l200 115l54 -106z" />
    <glyph glyph-name="uni06280631.fina" unicode="&#xfc6a;" horiz-adv-x="1447" arabic-form="final" 
d="M1432 0q-172 0 -264 72.5t-117 226.5l-47 309l-398 -14l-65 -70v-534q0 -202 -169 -353.5t-478 -228.5l-89 270q134 27 251 77t191 117t70 134l-24 592l235 231l586 17l82 -62l49 -387q7 -70 50 -98.5t141 -28.5h14q17 0 24 -49t7 -88q0 -30 -8 -81.5t-23 -51.5h-18z
M786 -522v229l256 10v-239h-256z" />
    <glyph glyph-name="uni06280632.fina" unicode="&#xfc6b;" horiz-adv-x="1447" arabic-form="final" 
d="M1432 0q-172 0 -264 72.5t-117 226.5l-47 309l-398 -14l-65 -70v-534q0 -202 -169 -353.5t-478 -228.5l-89 270q134 27 251 77t191 117t70 134l-24 592l235 231l586 17l82 -62l49 -387q7 -70 50 -98.5t141 -28.5h14q17 0 24 -49t7 -88q0 -30 -8 -81.5t-23 -51.5h-18z
M786 -522v229l256 10v-239h-256zM258 1051v229l256 10v-239h-256z" />
    <glyph glyph-name="uni06280646.fina" unicode="&#xfc6d;" horiz-adv-x="2361" arabic-form="final" 
d="M2314 0q-164 0 -255.5 73.5t-114.5 225.5l-48 309l-401 -14l-63 -62l4 -516q1 -235 -201.5 -356t-597.5 -121q-99 0 -190.5 38t-158 102t-106 152.5t-39.5 184.5v621l238 8v-579q0 -110 72.5 -184.5t179.5 -74.5q178 0 306 26.5t201.5 86t69.5 148.5l-24 530l235 231
l584 17l86 -62l47 -387q7 -72 49.5 -99.5t141.5 -27.5h30q12 0 20.5 -44t10.5 -93q2 -32 -8.5 -82.5t-22.5 -50.5h-45zM641 719v229l256 10v-239h-256zM1712 -432v229l256 10v-239h-256z" />
    <glyph glyph-name="uni0628064A.fina" unicode="&#xfc6f;" horiz-adv-x="2072" arabic-form="final" 
d="M2075 0q-161 0 -265 73.5t-229 274.5l-172 275q-36 56 -80.5 81t-114.5 25h-243l-103 -84l-10 -305q0 -49 21 -68.5t73 -19.5h322q111 0 161 -42.5t50 -131.5l-2 -101q0 -243 -207.5 -359t-636.5 -116q-131 0 -245.5 63.5t-182.5 173.5t-68 238v613l238 8v-573
q0 -108 72 -181t180 -73q262 -3 435.5 36.5t213.5 112.5q6 24 6 68q0 26 -11.5 35.5t-43.5 9.5h-363q-119 0 -172 52t-53 171v457l273 243h350q132 0 208.5 -43.5t141.5 -160.5l137 -242q71 -128 145 -184t173 -56q32 0 32 -137q0 -39 -9 -86t-21 -47zM1612 -494v230l256 10
v-240h-256z" />
    <glyph glyph-name="uni062A0631.fina" unicode="&#xfc70;" horiz-adv-x="1447" arabic-form="final" 
d="M1004 1298l292 -174l-661 -16v190h369zM950 1116v182h307l54 -34v-140zM1432 0q-172 0 -264 72.5t-117 226.5l-47 309l-398 -14l-65 -70v-534q0 -202 -169 -353.5t-478 -228.5l-89 270q134 27 251 77t191 117t70 134l-24 592l235 231l586 17l82 -62l49 -387
q7 -70 50 -98.5t141 -28.5h14q17 0 24 -49t7 -88q0 -30 -8 -81.5t-23 -51.5h-18z" />
    <glyph glyph-name="uni062A0632.fina" unicode="&#xfc71;" horiz-adv-x="1452" arabic-form="final" 
d="M205 1051v229l256 10v-239h-256zM1434 0q-172 0 -264 72.5t-117 226.5l-47 309l-398 -14l-65 -70v-534q0 -202 -169 -353.5t-478 -228.5l-89 270q134 27 251 77t191 117t70 134l-24 592l235 231l586 17l82 -62l49 -387q7 -70 50 -98.5t141 -28.5h14q17 0 24 -49t7 -88
q0 -30 -8 -81.5t-23 -51.5h-18zM1006 1298l292 -174l-661 -16v190h369zM952 1116v182h308l53 -34v-140z" />
    <glyph glyph-name="uni062A0646.fina" unicode="&#xfc73;" horiz-adv-x="2361" arabic-form="final" 
d="M641 719v229l256 10v-239h-256zM1858 1294l292 -174l-661 -16v190h369zM1804 1112v182h307l54 -34v-140zM2314 0q-164 0 -255.5 73.5t-114.5 225.5l-48 309l-401 -14l-63 -62l4 -516q1 -235 -201.5 -356t-597.5 -121q-99 0 -190.5 38t-158 102t-106 152.5t-39.5 184.5
v621l238 8v-579q0 -110 72.5 -184.5t179.5 -74.5q178 0 306 26.5t201.5 86t69.5 148.5l-24 530l235 231l584 17l86 -62l47 -387q7 -72 49.5 -99.5t141.5 -27.5h30q12 0 20.5 -44t10.5 -93q2 -32 -8.5 -82.5t-22.5 -50.5h-45z" />
    <glyph glyph-name="uni062A064A.fina" unicode="&#xfc75;" horiz-adv-x="2072" arabic-form="final" 
d="M1188 1419l293 -174l-662 -16v190h369zM1135 1237v182h307l53 -35v-139zM2075 0q-161 0 -265 73.5t-229 274.5l-172 275q-36 56 -80.5 81t-114.5 25h-243l-103 -84l-10 -305q0 -49 21 -68.5t73 -19.5h322q111 0 161 -42.5t50 -131.5l-2 -101q0 -243 -207.5 -359
t-636.5 -116q-131 0 -245.5 63.5t-182.5 173.5t-68 238v613l238 8v-573q0 -108 72 -181t180 -73q262 -3 435.5 36.5t213.5 112.5q6 24 6 68q0 26 -11.5 35.5t-43.5 9.5h-363q-119 0 -172 52t-53 171v457l273 243h350q132 0 208.5 -43.5t141.5 -160.5l137 -242
q71 -128 145 -184t173 -56q32 0 32 -137q0 -39 -9 -86t-21 -47z" />
    <glyph glyph-name="uni062B0631.fina" unicode="&#xfc76;" horiz-adv-x="1447" arabic-form="final" 
d="M1432 0q-172 0 -264 72.5t-117 226.5l-47 309l-398 -14l-65 -70v-534q0 -202 -169 -353.5t-478 -228.5l-89 270q134 27 251 77t191 117t70 134l-24 592l235 231l586 17l82 -62l49 -387q7 -70 50 -98.5t141 -28.5h14q17 0 24 -49t7 -88q0 -30 -8 -81.5t-23 -51.5h-18z
M856 1440v198l221 9v-207h-221zM997 1298l293 -174l-661 -16v190h368zM944 1116v182h307l54 -34v-140z" />
    <glyph glyph-name="uni062B0632.fina" unicode="&#xfc77;" horiz-adv-x="1538" arabic-form="final" 
d="M1432 0q-172 0 -264 72.5t-117 226.5l-47 309l-398 -14l-65 -70v-534q0 -202 -169 -353.5t-478 -228.5l-89 270q134 27 251 77t191 117t70 134l-24 592l235 231l586 17l82 -62l49 -387q7 -70 50 -98.5t141 -28.5h14q17 0 24 -49t7 -88q0 -30 -8 -81.5t-23 -51.5h-18z
M223 1051v229l256 10v-239h-256zM872 1440v198l222 9v-207h-222zM1014 1298l293 -174l-662 -16v190h369zM961 1116v182h307l53 -34v-140zM1538 270q13 0 23 -44t10 -89q0 -47 -10 -92t-23 -45h-92v270h92z" />
    <glyph glyph-name="uni062B0646.fina" unicode="&#xfc79;" horiz-adv-x="2361" arabic-form="final" 
d="M641 719v229l256 10v-239h-256zM1708 1436v198l221 8v-206h-221zM1849 1294l293 -174l-661 -16v190h368zM1796 1112v182h307l54 -34v-140zM2314 0q-164 0 -255.5 73.5t-114.5 225.5l-48 309l-401 -14l-63 -62l4 -516q1 -235 -201.5 -356t-597.5 -121q-99 0 -190.5 38
t-158 102t-106 152.5t-39.5 184.5v621l238 8v-579q0 -110 72.5 -184.5t179.5 -74.5q178 0 306 26.5t201.5 86t69.5 148.5l-24 530l235 231l584 17l86 -62l47 -387q7 -72 49.5 -99.5t141.5 -27.5h30q12 0 20.5 -44t10.5 -93q2 -32 -8.5 -82.5t-22.5 -50.5h-45z" />
    <glyph glyph-name="uni062B064A.fina" unicode="&#xfc7b;" horiz-adv-x="2072" arabic-form="final" 
d="M1051 1563v198l221 8v-206h-221zM1192 1421l293 -174l-662 -16v190h369zM1139 1239v182h307l53 -35v-139zM2075 0q-161 0 -265 73.5t-229 274.5l-172 275q-36 56 -80.5 81t-114.5 25h-243l-103 -84l-10 -305q0 -49 21 -68.5t73 -19.5h322q111 0 161 -42.5t50 -131.5
l-2 -101q0 -243 -207.5 -359t-636.5 -116q-131 0 -245.5 63.5t-182.5 173.5t-68 238v613l238 8v-573q0 -108 72 -181t180 -73q262 -3 435.5 36.5t213.5 112.5q6 24 6 68q0 26 -11.5 35.5t-43.5 9.5h-363q-119 0 -172 52t-53 171v457l273 243h350q132 0 208.5 -43.5
t141.5 -160.5l137 -242q71 -128 145 -184t173 -56q32 0 32 -137q0 -39 -9 -86t-21 -47z" />
    <glyph glyph-name="uni06460631.fina" unicode="&#xfc8a;" horiz-adv-x="1447" arabic-form="final" 
d="M827 1116v230l256 10v-240h-256zM1432 0q-172 0 -264 72.5t-117 226.5l-47 309l-398 -14l-65 -70v-534q0 -202 -169 -353.5t-478 -228.5l-89 270q134 27 251 77t191 117t70 134l-24 592l235 231l586 17l82 -62l49 -387q7 -70 50 -98.5t141 -28.5h14q17 0 24 -49t7 -88
q0 -30 -8 -81.5t-23 -51.5h-18z" />
    <glyph glyph-name="uni06460632.fina" unicode="&#xfc8b;" horiz-adv-x="1447" arabic-form="final" 
d="M1432 0q-172 0 -264 72.5t-117 226.5l-47 309l-398 -14l-65 -70v-534q0 -202 -169 -353.5t-478 -228.5l-89 270q134 27 251 77t191 117t70 134l-24 592l235 231l586 17l82 -62l49 -387q7 -70 50 -98.5t141 -28.5h14q17 0 24 -49t7 -88q0 -30 -8 -81.5t-23 -51.5h-18z
M827 1116v230l256 10v-240h-256zM272 1059v229l256 10v-239h-256z" />
    <glyph glyph-name="uni06460646.fina" unicode="&#xfc8d;" horiz-adv-x="2361" arabic-form="final" 
d="M1602 1116v230l256 10v-240h-256zM641 719v229l256 10v-239h-256zM2314 0q-164 0 -255.5 73.5t-114.5 225.5l-48 309l-401 -14l-63 -62l4 -516q1 -235 -201.5 -356t-597.5 -121q-99 0 -190.5 38t-158 102t-106 152.5t-39.5 184.5v621l238 8v-579q0 -110 72.5 -184.5
t179.5 -74.5q178 0 306 26.5t201.5 86t69.5 148.5l-24 530l235 231l584 17l86 -62l47 -387q7 -72 49.5 -99.5t141.5 -27.5h30q12 0 20.5 -44t10.5 -93q2 -32 -8.5 -82.5t-22.5 -50.5h-45z" />
    <glyph glyph-name="uni0646064A.fina" unicode="&#xfc8f;" horiz-adv-x="2072" arabic-form="final" 
d="M1276 1231h-256v239l256 -10v-229zM2075 0q-161 0 -265 73.5t-229 274.5l-172 275q-36 56 -80.5 81t-114.5 25h-243l-103 -84l-10 -305q0 -49 21 -68.5t73 -19.5h322q111 0 161 -42.5t50 -131.5l-2 -101q0 -243 -207.5 -359t-636.5 -116q-131 0 -245.5 63.5t-182.5 173.5
t-68 238v613l238 8v-573q0 -108 72 -181t180 -73q262 -3 435.5 36.5t213.5 112.5q6 24 6 68q0 26 -11.5 35.5t-43.5 9.5h-363q-119 0 -172 52t-53 171v457l273 243h350q132 0 208.5 -43.5t141.5 -160.5l137 -242q71 -128 145 -184t173 -56q32 0 32 -137q0 -39 -9 -86
t-21 -47z" />
    <glyph glyph-name="uni064A0631.fina" unicode="&#xfc91;" horiz-adv-x="1540" arabic-form="final" 
d="M1432 0q-172 0 -264 72.5t-117 226.5l-47 309l-398 -14l-65 -70v-534q0 -202 -169 -353.5t-478 -228.5l-89 270q134 27 251 77t191 117t70 134l-24 592l235 231l586 17l82 -62l49 -387q7 -70 50 -98.5t141 -28.5h14q17 0 24 -49t7 -88q0 -30 -8 -81.5t-23 -51.5h-18z
M1030 -283l293 -174l-661 -16v190h368zM977 -465v182h307l53 -32v-142zM1540 270q13 0 23 -44t10 -89q0 -49 -9.5 -93t-23.5 -44h-92v270h92z" />
    <glyph glyph-name="uni064A0632.fina" unicode="&#xfc92;" horiz-adv-x="1540" arabic-form="final" 
d="M1432 0q-172 0 -264 72.5t-117 226.5l-47 309l-398 -14l-65 -70v-534q0 -202 -169 -353.5t-478 -228.5l-89 270q134 27 251 77t191 117t70 134l-24 592l235 231l586 17l82 -62l49 -387q7 -70 50 -98.5t141 -28.5h14q17 0 24 -49t7 -88q0 -30 -8 -81.5t-23 -51.5h-18z
M1030 -283l293 -174l-661 -16v190h368zM977 -465v182h307l53 -32v-142zM1540 270q13 0 23 -44t10 -89q0 -49 -9.5 -93t-23.5 -44h-92v270h92zM264 1051v229l256 10v-239h-256z" />
    <glyph glyph-name="uni064A0646.fina" unicode="&#xfc94;" horiz-adv-x="2361" arabic-form="final" 
d="M2314 0q-164 0 -255.5 73.5t-114.5 225.5l-48 309l-401 -14l-63 -62l4 -516q1 -235 -201.5 -356t-597.5 -121q-99 0 -190.5 38t-158 102t-106 152.5t-39.5 184.5v621l238 8v-579q0 -110 72.5 -184.5t179.5 -74.5q178 0 306 26.5t201.5 86t69.5 148.5l-24 530l235 231
l584 17l86 -62l47 -387q7 -72 49.5 -99.5t141.5 -27.5h30q12 0 20.5 -44t10.5 -93q2 -32 -8.5 -82.5t-22.5 -50.5h-45zM641 719v229l256 10v-239h-256zM1886 -297l293 -174l-661 -16v190h368zM1833 -479v182h307l53 -33v-141z" />
    <glyph glyph-name="uni064A064A.fina" unicode="&#xfc96;" horiz-adv-x="2072" arabic-form="final" 
d="M2075 0q-161 0 -265 73.5t-229 274.5l-172 275q-36 56 -80.5 81t-114.5 25h-243l-103 -84l-10 -305q0 -49 21 -68.5t73 -19.5h322q111 0 161 -42.5t50 -131.5l-2 -101q0 -243 -207.5 -359t-636.5 -116q-131 0 -245.5 63.5t-182.5 173.5t-68 238v613l238 8v-573
q0 -108 72 -181t180 -73q262 -3 435.5 36.5t213.5 112.5q6 24 6 68q0 26 -11.5 35.5t-43.5 9.5h-363q-119 0 -172 52t-53 171v457l273 243h350q132 0 208.5 -43.5t141.5 -160.5l137 -242q71 -128 145 -184t173 -56q32 0 32 -137q0 -39 -9 -86t-21 -47zM1702 -463l293 -174
l-662 -16v190h369zM1649 -645v182h307l53 -33v-141z" />
    <glyph glyph-name="uni0633064A" unicode="&#xfcfc;" horiz-adv-x="3319" arabic-form="isolated" 
d="M2695 0q-107 0 -184.5 38t-106.5 105q-45 -66 -126.5 -104.5t-180.5 -38.5q-119 0 -200.5 30t-152 100.5t-153.5 203.5l-159 258q-47 75 -89.5 105t-101.5 30l-270 2l-103 -88l-10 -301q-1 -49 20.5 -68.5t73.5 -19.5h324q104 0 156 -40.5t51 -133.5v-131
q-6 -445 -846 -445q-131 0 -245 63t-181.5 173t-67.5 239v613l238 8v-573q0 -108 72 -181t180 -73q245 0 425.5 41.5t223.5 107.5q6 18 6 68q0 26 -15.5 34.5t-64.5 8.5h-348q-114 0 -163.5 53t-49.5 172v457l271 243h350q127 0 201.5 -39.5t132.5 -138.5l147 -250
q79 -138 155.5 -198t176.5 -60q87 0 142.5 32.5t64.5 94.5l61 404l229 6l-61 -420q-8 -46 37.5 -81.5t111.5 -35.5h84q97 0 150.5 34.5t50.5 94.5l-29 484l254 18v-541q0 -170 -106 -264.5t-299 -95.5h-76z" />
    <glyph glyph-name="uni0634064A" unicode="&#xfcfe;" horiz-adv-x="3319" arabic-form="isolated" 
d="M2329 1376v199l221 8v-207h-221zM2470 1235l293 -174l-662 -17v191h369zM2417 1053v182h307l53 -35v-139zM2695 0q-107 0 -184.5 38t-106.5 105q-45 -66 -126.5 -104.5t-180.5 -38.5q-119 0 -200.5 30t-152 100.5t-153.5 203.5l-159 258q-47 75 -89.5 105t-101.5 30
l-270 2l-103 -88l-10 -301q-1 -49 20.5 -68.5t73.5 -19.5h324q104 0 156 -40.5t51 -133.5v-131q-6 -445 -846 -445q-131 0 -245 63t-181.5 173t-67.5 239v613l238 8v-573q0 -108 72 -181t180 -73q245 0 425.5 41.5t223.5 107.5q6 18 6 68q0 26 -15.5 34.5t-64.5 8.5h-348
q-114 0 -163.5 53t-49.5 172v457l271 243h350q127 0 201.5 -39.5t132.5 -138.5l147 -250q79 -138 155.5 -198t176.5 -60q87 0 142.5 32.5t64.5 94.5l61 404l229 6l-61 -420q-8 -46 37.5 -81.5t111.5 -35.5h84q97 0 150.5 34.5t50.5 94.5l-29 484l254 18v-541
q0 -170 -106 -264.5t-299 -95.5h-76z" />
    <glyph glyph-name="uni0635064A" unicode="&#xfd06;" horiz-adv-x="3145" arabic-form="isolated" 
d="M2081 0q-164 0 -267 71.5t-223 262.5l-190 303q-31 47 -68.5 68.5t-91.5 21.5l-264 2l-109 -90l-10 -299q-1 -49 20.5 -68.5t73.5 -19.5h346q90 0 137.5 -44t47.5 -130v-103q0 -240 -209.5 -357t-636.5 -116q-131 0 -245 63t-181.5 173t-67.5 239v613l238 8v-573
q0 -108 72 -181t180 -73q565 0 649 149q6 24 6 68q0 25 -11.5 35t-43.5 10h-363q-119 0 -171 51.5t-52 171.5v457l271 243h350q131 0 206 -43.5t144 -160.5l104 -179q58 -101 119 -165l170 264q76 116 134 171t136 79q46 18 130 27t151 10.5t201 1.5l239 -216v-446
q0 -131 -87 -215t-220 -84h-614zM2664 270q52 0 90 38t37 89l-8 244l-104 90q-140 0 -246 -20q-166 -22 -256 -162l-158 -240q63 -39 160 -39h485z" />
    <glyph glyph-name="uni0636064A" unicode="&#xfd08;" horiz-adv-x="3145" arabic-form="isolated" 
d="M2423 1196v229l256 11v-240h-256zM2081 0q-164 0 -267 71.5t-223 262.5l-190 303q-31 47 -68.5 68.5t-91.5 21.5l-264 2l-109 -90l-10 -299q-1 -49 20.5 -68.5t73.5 -19.5h346q90 0 137.5 -44t47.5 -130v-103q0 -240 -209.5 -357t-636.5 -116q-131 0 -245 63t-181.5 173
t-67.5 239v613l238 8v-573q0 -108 72 -181t180 -73q565 0 649 149q6 24 6 68q0 25 -11.5 35t-43.5 10h-363q-119 0 -171 51.5t-52 171.5v457l271 243h350q131 0 206 -43.5t144 -160.5l104 -179q58 -101 119 -165l170 264q76 116 134 171t136 79q46 18 130 27t151 10.5
t201 1.5l239 -216v-446q0 -131 -87 -215t-220 -84h-614zM2664 270q52 0 90 38t37 89l-8 244l-104 90q-140 0 -246 -20q-166 -22 -256 -162l-158 -240q63 -39 160 -39h485z" />
    <glyph glyph-name="uni06340631" unicode="&#xfd0d;" horiz-adv-x="2666" arabic-form="isolated" 
d="M1694 1376v199l221 8v-207h-221zM1835 1235l293 -174l-662 -17v191h369zM1782 1053v182h307l53 -35v-139zM2025 0q-94 0 -170 39.5t-104 103.5q-44 -67 -132 -105t-196 -38q-187 0 -285 76.5t-132 247.5l-56 284l-348 -28l-63 -54v-536q0 -204 -168 -354.5t-480 -227.5
l-86 270q221 43 367.5 137t142.5 191l-22 590l239 217l527 35l88 -66l57 -362q12 -84 57.5 -117t147.5 -33q90 0 153 35.5t72 91.5l64 404l229 6l-63 -420q-8 -48 36.5 -82.5t114.5 -34.5h68q103 0 160.5 34.5t54.5 94.5l-27 486l252 16v-541q0 -175 -107 -266.5t-311 -93.5
h-80z" />
    <glyph glyph-name="uni06330631" unicode="&#xfd0e;" horiz-adv-x="2666" arabic-form="isolated" 
d="M2025 0q-94 0 -170 39.5t-104 103.5q-44 -67 -132 -105t-196 -38q-187 0 -285 76.5t-132 247.5l-56 284l-348 -28l-63 -54v-536q0 -204 -168 -354.5t-480 -227.5l-86 270q221 43 367.5 137t142.5 191l-22 590l239 217l527 35l88 -66l57 -362q12 -84 57.5 -117t147.5 -33
q90 0 153 35.5t72 91.5l64 404l229 6l-63 -420q-8 -48 36.5 -82.5t114.5 -34.5h68q103 0 160.5 34.5t54.5 94.5l-27 486l252 16v-541q0 -175 -107 -266.5t-311 -93.5h-80z" />
    <glyph glyph-name="uni06350631" unicode="&#xfd0f;" horiz-adv-x="2519" arabic-form="isolated" 
d="M532 813l527 35l88 -66l45 -262q13 -58 27 -102l196 299q67 102 122 146.5t142 64.5q46 15 128 23t144.5 9t182.5 1l242 -216v-446q0 -131 -89 -215t-219 -84h-647q-184 0 -283.5 77.5t-131.5 246.5l-56 284l-342 -30l-69 -60v-528q0 -203 -167.5 -353.5t-480.5 -228.5
l-86 270q135 27 251 76.5t189.5 116.5t69.5 135l-22 590zM2036 270q52 0 90 37.5t37 89.5l-9 246l-100 90q-130 0 -264 -24q-105 -19 -145 -44.5t-97 -111.5l-157 -246q42 -37 155 -37h490z" />
    <glyph glyph-name="uni06360631" unicode="&#xfd10;" horiz-adv-x="2519" arabic-form="isolated" 
d="M1757 1180v229l256 10v-239h-256zM532 813l527 35l88 -66l45 -262q13 -58 27 -102l196 299q67 102 122 146.5t142 64.5q46 15 128 23t144.5 9t182.5 1l242 -216v-446q0 -131 -89 -215t-219 -84h-647q-184 0 -283.5 77.5t-131.5 246.5l-56 284l-342 -30l-69 -60v-528
q0 -203 -167.5 -353.5t-480.5 -228.5l-86 270q135 27 251 76.5t189.5 116.5t69.5 135l-22 590zM2036 270q52 0 90 37.5t37 89.5l-9 246l-100 90q-130 0 -264 -24q-105 -19 -145 -44.5t-97 -111.5l-157 -246q42 -37 155 -37h490z" />
    <glyph glyph-name="uni0633064A.fina" unicode="&#xfd18;" horiz-adv-x="3377" arabic-form="final" 
d="M2695 0q-107 0 -184.5 38t-106.5 105q-46 -66 -127.5 -104.5t-179.5 -38.5q-119 0 -200.5 30t-152 100.5t-153.5 203.5l-159 258q-46 74 -88.5 104.5t-102.5 30.5l-270 2l-103 -88l-10 -301q-1 -49 20.5 -68.5t73.5 -19.5h324q104 0 155.5 -40t51.5 -134v-131
q-24 -445 -846 -445q-130 0 -243.5 62.5t-182 172.5t-68.5 240v613l238 8v-573q0 -108 72 -181t180 -73q268 0 438 38.5t211 110.5q6 18 6 68q0 26 -15.5 34.5t-64.5 8.5h-348q-114 0 -163.5 53t-49.5 172v457l271 243h350q127 0 201.5 -39.5t132.5 -138.5l147 -250
q82 -140 157.5 -199t174.5 -59q89 0 143.5 33.5t63.5 93.5l61 404l229 6l-61 -420q-8 -46 37 -81.5t112 -35.5h82q96 0 150 34.5t51 94.5l-20 463l245 12v-514q0 -172 -104 -265.5t-299 -94.5h-76zM3281 0q-126 0 -197.5 111.5t-72.5 330.5h163q3 -172 127 -172h76
q17 0 25 -53.5t8 -89.5q0 -37 -9 -82t-24 -45h-96z" />
    <glyph glyph-name="uni0634064A.fina" unicode="&#xfd1a;" horiz-adv-x="3377" arabic-form="final" 
d="M2343 1376v199l221 8v-207h-221zM2484 1235l293 -174l-661 -17v191h368zM2431 1053v182h307l53 -35v-139zM2695 0q-107 0 -184.5 38t-106.5 105q-46 -66 -127.5 -104.5t-179.5 -38.5q-119 0 -200.5 30t-152 100.5t-153.5 203.5l-159 258q-46 74 -88.5 104.5t-102.5 30.5
l-270 2l-103 -88l-10 -301q-1 -49 20.5 -68.5t73.5 -19.5h324q104 0 155.5 -40t51.5 -134v-131q-24 -445 -846 -445q-130 0 -243.5 62.5t-182 172.5t-68.5 240v613l238 8v-573q0 -108 72 -181t180 -73q268 0 438 38.5t211 110.5q6 18 6 68q0 26 -15.5 34.5t-64.5 8.5h-348
q-114 0 -163.5 53t-49.5 172v457l271 243h350q127 0 201.5 -39.5t132.5 -138.5l147 -250q82 -140 157.5 -199t174.5 -59q89 0 143.5 33.5t63.5 93.5l61 404l229 6l-61 -420q-8 -46 37 -81.5t112 -35.5h82q96 0 150 34.5t51 94.5l-20 463l245 12v-514q0 -172 -104 -265.5
t-299 -94.5h-76zM3281 0q-126 0 -197.5 111.5t-72.5 330.5h163q3 -172 127 -172h76q17 0 25 -53.5t8 -89.5q0 -37 -9 -82t-24 -45h-96z" />
    <glyph glyph-name="uni0635064A.fina" unicode="&#xfd22;" horiz-adv-x="3209" arabic-form="final" 
d="M3109 0q-126 0 -197.5 111.5t-72.5 330.5h163q3 -172 127 -172h76q17 0 25 -53.5t8 -89.5q0 -37 -9 -82t-24 -45h-96zM2081 0q-164 0 -267 71.5t-223 262.5l-190 303q-31 47 -68.5 68.5t-91.5 21.5l-264 2l-109 -90l-10 -299q-1 -49 20.5 -68.5t73.5 -19.5h346
q90 0 137.5 -44t47.5 -130v-103q0 -240 -209.5 -357t-636.5 -116q-131 0 -245 63t-181.5 173t-67.5 239v613l238 8v-573q0 -108 72 -181t180 -73q565 0 649 149q6 24 6 68q0 25 -11.5 35t-43.5 10h-363q-119 0 -171 51.5t-52 171.5v457l271 243h350q131 0 206 -43.5
t144 -160.5l104 -179q58 -101 119 -165l170 264q76 116 134 171t136 79q46 18 130 27t151 10.5t201 1.5l239 -216v-446q0 -131 -87 -215t-220 -84h-614zM2664 270q52 0 90 38t37 89l-8 244l-104 90q-140 0 -246 -20q-166 -22 -256 -162l-158 -240q63 -39 160 -39h485z" />
    <glyph glyph-name="uni0636064A.fina" unicode="&#xfd24;" horiz-adv-x="3209" arabic-form="final" 
d="M2423 1196v229l256 11v-240h-256zM3109 0q-126 0 -197.5 111.5t-72.5 330.5h163q3 -172 127 -172h76q17 0 25 -53.5t8 -89.5q0 -37 -9 -82t-24 -45h-96zM2081 0q-164 0 -267 71.5t-223 262.5l-190 303q-31 47 -68.5 68.5t-91.5 21.5l-264 2l-109 -90l-10 -299
q-1 -49 20.5 -68.5t73.5 -19.5h346q90 0 137.5 -44t47.5 -130v-103q0 -240 -209.5 -357t-636.5 -116q-131 0 -245 63t-181.5 173t-67.5 239v613l238 8v-573q0 -108 72 -181t180 -73q565 0 649 149q6 24 6 68q0 25 -11.5 35t-43.5 10h-363q-119 0 -171 51.5t-52 171.5v457
l271 243h350q131 0 206 -43.5t144 -160.5l104 -179q58 -101 119 -165l170 264q76 116 134 171t136 79q46 18 130 27t151 10.5t201 1.5l239 -216v-446q0 -131 -87 -215t-220 -84h-614zM2664 270q52 0 90 38t37 89l-8 244l-104 90q-140 0 -246 -20q-166 -22 -256 -162
l-158 -240q63 -39 160 -39h485z" />
    <glyph glyph-name="uni06340631.fina" unicode="&#xfd29;" horiz-adv-x="2725" arabic-form="final" 
d="M2025 0q-94 0 -170 39.5t-104 103.5q-44 -66 -132 -104.5t-196 -38.5q-187 0 -285 76.5t-130 247.5l-58 284l-348 -28l-63 -54v-536q0 -204 -168 -354.5t-480 -227.5l-86 270q221 43 368 137t144 191l-24 590l239 217l529 35l86 -66l57 -362q12 -83 58 -116.5t149 -33.5
q88 0 152 35t73 92l62 404l229 6l-63 -420q-7 -49 36.5 -83t114.5 -34h68q104 0 161.5 34.5t55.5 94.5l-21 463l244 12v-514q0 -174 -106 -266.5t-312 -93.5h-80zM2630 0q-126 0 -198 111.5t-73 330.5h164q3 -172 127 -172h76q17 0 25 -53.5t8 -89.5q0 -37 -9 -82t-24 -45
h-96zM1698 1376v199l221 8v-207h-221zM1839 1235l293 -174l-662 -17v191h369zM1786 1053v182h307l53 -35v-139z" />
    <glyph glyph-name="uni06330631.fina" unicode="&#xfd2a;" horiz-adv-x="2725" arabic-form="final" 
d="M2025 0q-94 0 -170 39.5t-104 103.5q-44 -66 -132 -104.5t-196 -38.5q-187 0 -285 76.5t-130 247.5l-58 284l-348 -28l-63 -54v-536q0 -204 -168 -354.5t-480 -227.5l-86 270q221 43 368 137t144 191l-24 590l239 217l529 35l86 -66l57 -362q12 -83 58 -116.5t149 -33.5
q88 0 152 35t73 92l62 404l229 6l-63 -420q-7 -49 36.5 -83t114.5 -34h68q104 0 161.5 34.5t55.5 94.5l-21 463l244 12v-514q0 -174 -106 -266.5t-312 -93.5h-80zM2630 0q-126 0 -198 111.5t-73 330.5h164q3 -172 127 -172h76q17 0 25 -53.5t8 -89.5q0 -37 -9 -82t-24 -45
h-96z" />
    <glyph glyph-name="uni06350631.fina" unicode="&#xfd2b;" horiz-adv-x="2578" arabic-form="final" 
d="M2482 0q-126 0 -197.5 111.5t-72.5 330.5h164q3 -172 127 -172h75q17 0 25 -53.5t8 -89.5q0 -37 -9 -82t-24 -45h-96zM532 813l527 35l88 -66l45 -262q13 -58 27 -102l196 299q67 102 122 146.5t142 64.5q46 15 128 23t144.5 9t182.5 1l242 -216v-446q0 -131 -89 -215
t-219 -84h-647q-184 0 -283.5 77.5t-131.5 246.5l-56 284l-342 -30l-69 -60v-528q0 -203 -167.5 -353.5t-480.5 -228.5l-86 270q135 27 251 76.5t189.5 116.5t69.5 135l-22 590zM2036 270q52 0 90 37.5t37 89.5l-9 246l-100 90q-130 0 -264 -24q-105 -19 -145 -44.5
t-97 -111.5l-157 -246q42 -37 155 -37h490z" />
    <glyph glyph-name="uni06360631.fina" unicode="&#xfd2c;" horiz-adv-x="2578" arabic-form="final" 
d="M2482 0q-126 0 -197.5 111.5t-72.5 330.5h164q3 -172 127 -172h75q17 0 25 -53.5t8 -89.5q0 -37 -9 -82t-24 -45h-96zM532 813l527 35l88 -66l45 -262q13 -58 27 -102l196 299q67 102 122 146.5t142 64.5q46 15 128 23t144.5 9t182.5 1l242 -216v-446q0 -131 -89 -215
t-219 -84h-647q-184 0 -283.5 77.5t-131.5 246.5l-56 284l-342 -30l-69 -60v-528q0 -203 -167.5 -353.5t-480.5 -228.5l-86 270q135 27 251 76.5t189.5 116.5t69.5 135l-22 590zM2036 270q52 0 90 37.5t37 89.5l-9 246l-100 90q-130 0 -264 -24q-105 -19 -145 -44.5
t-97 -111.5l-157 -246q42 -37 155 -37h490zM1757 1180v229l256 10v-239h-256z" />
    <glyph glyph-name="uni0624.fina" unicode="&#x624;" horiz-adv-x="1241" arabic-form="final" 
d="M1243 270q11 0 21 -41.5t10 -91.5q0 -51 -10 -94t-21 -43h-260v270h260zM487 -287q205 45 284 98.5t77 129.5l-4 51h-430q-126 0 -198.5 75t-72.5 207v471l254 213h353q132 0 217.5 -81.5t85.5 -212.5l-2 -727q0 -195 -143 -315.5t-445 -182.5l-219 -47l-58 266zM823 637
q-3 49 -38 80t-83 31h-237l-107 -91l-10 -288q-1 -60 33.5 -88.5t97.5 -28.5h361zM449 1231l-46 112l76 39q-21 3 -33 31l-43 88q-19 34 -16 70q0 17 16 63q5 10 15 38t14 38l121 53q45 21 89 6t69 -57l16 -37l-80 -37q-32 47 -74 27l-65 -35q-9 -23 -14 -47q-5 -15 -5 -24
q0 -26 17 -54l24 -47q15 -29 34 -32.5t54 16.5l201 114l53 -106z" />
    <glyph glyph-name="uni0626.init" unicode="&#x626;" horiz-adv-x="851" arabic-form="initial" 
d="M-2 0v270h360q53 0 90.5 32.5t34.5 80.5l-28 502l254 16v-586q0 -136 -91 -225.5t-229 -89.5h-391zM184 1174l-45 112l76 39q-21 3 -33 31l-43 88q-19 34 -16 69q0 18 16 64q5 10 15 38t14 38l121 53q45 21 88.5 6t68.5 -57l17 -37l-80 -37q-32 47 -74 27l-65 -35
q-11 -28 -15 -47q-4 -12 -4 -25q0 -25 17 -53l24 -47q15 -29 34 -33t54 16l201 115l53 -106z" />
    <glyph glyph-name="uni0626.medi" unicode="&#x626;" horiz-adv-x="899" arabic-form="medial" 
d="M760 0q-62 0 -122 38.5t-81 94.5q-22 -55 -84.5 -94t-128.5 -39h-346v270h324q52 0 85 32.5t33 82.5v418l228 6v-424q0 -50 31.5 -82.5t80.5 -32.5h119q11 0 18 -18.5t10 -46.5t4 -46.5t1 -33.5q0 -35 -9 -80t-24 -45h-139zM242 1090l-45 112l75 39q-20 3 -32 31l-43 88
q-20 36 -17 70q0 14 17 63q4 10 13.5 36t14.5 40l121 53q45 21 89 6t69 -57l16 -37l-80 -37q-31 47 -73 27l-66 -35q-9 -23 -14 -47q-4 -12 -4 -25q0 -26 16 -53l25 -47q15 -29 34 -33t54 16l200 115l54 -106z" />
    <glyph glyph-name="uni0627.fina" unicode="&#x627;" horiz-adv-x="624" arabic-form="final" 
d="M143 1452l254 21l2 -1088q0 -49 32.5 -82t78.5 -33h113q32 0 32 -139q0 -131 -32 -131h-142q-138 0 -219.5 93t-85.5 257z" />
    <glyph glyph-name="uni0628.fina" unicode="&#x628;" horiz-adv-x="2074" arabic-form="final" 
d="M459 0q-141 0 -228.5 92t-87.5 234v479l238 10v-438q0 -48 24.5 -77.5t65.5 -29.5h1053q53 0 90.5 33t34.5 80l-29 502l254 16v-586q0 -137 -92 -226t-228 -89h-1095zM1978 0q-126 0 -197.5 111.5t-72.5 330.5h164q3 -172 127 -172h76q17 0 24.5 -53t7.5 -90t-8.5 -82
t-23.5 -45h-97zM897 -510v229l256 11v-240h-256z" />
    <glyph glyph-name="uni0628.init" unicode="&#x628;" horiz-adv-x="851" arabic-form="initial" 
d="M-2 0v270h360q53 0 90.5 32.5t34.5 80.5l-28 502l254 16v-586q0 -136 -91 -225.5t-229 -89.5h-391zM141 -510v229l256 11v-240h-256z" />
    <glyph glyph-name="uni0628.medi" unicode="&#x628;" horiz-adv-x="899" arabic-form="medial" 
d="M760 0q-62 0 -122 38.5t-81 94.5q-22 -55 -84.5 -94t-128.5 -39h-346v270h324q52 0 85 32.5t33 82.5v418l228 6v-424q0 -50 31.5 -82.5t80.5 -32.5h119q11 0 18 -18.5t10 -46.5t4 -46.5t1 -33.5q0 -35 -9 -80t-24 -45h-139zM201 -510v229l256 11v-240h-256z" />
    <glyph glyph-name="uni0629.fina" unicode="&#x629;" horiz-adv-x="1308" arabic-form="final" 
d="M1217 0q-122 0 -194.5 55t-100.5 170q-1 -4 -3 -9.5t-5.5 -12.5t-4.5 -10q-48 -111 -178 -111h-285q-120 0 -210.5 92.5t-90.5 216.5v39v43.5t0.5 41t1.5 45t2.5 41t4.5 43.5t7 37t9 37t12 30q9 22 29.5 48t53.5 57.5t57.5 54t66.5 59t57 49.5l308 53l-17 107l230 32
l94 -764q14 -108 53 -141t156 -33h41q12 0 21 -48.5t9 -88.5q0 -39 -9 -86t-21 -47h-94zM707 328q95 0 116 73q11 40 15 66l-54 379l-237 -41q-13 -12 -57 -45.5t-70 -58t-37 -46.5q-19 -40 -25 -211q-3 -47 38.5 -82t99.5 -34h211zM662 1534l292 -174l-661 -17v191h369z
M608 1352v182h307l54 -35v-139z" />
    <glyph glyph-name="uni062A.fina" unicode="&#x62a;" horiz-adv-x="2074" arabic-form="final" 
d="M459 0q-141 0 -228.5 92t-87.5 234v479l238 10v-438q0 -48 24.5 -77.5t65.5 -29.5h1053q53 0 90.5 33t34.5 80l-29 502l254 16v-586q0 -137 -92 -226t-228 -89h-1095zM1978 0q-126 0 -197.5 111.5t-72.5 330.5h164q3 -172 127 -172h76q17 0 24.5 -53t7.5 -90t-8.5 -82
t-23.5 -45h-97zM1040 1163l293 -174l-661 -16v190h368zM987 981v182h307l54 -35v-139z" />
    <glyph glyph-name="uni062A.init" unicode="&#x62a;" horiz-adv-x="851" arabic-form="initial" 
d="M-2 0v270h360q53 0 90.5 32.5t34.5 80.5l-28 502l254 16v-586q0 -136 -91 -225.5t-229 -89.5h-391zM391 1323l293 -174l-661 -16v190h368zM338 1141v182h307l53 -35v-139z" />
    <glyph glyph-name="uni062A.medi" unicode="&#x62a;" horiz-adv-x="899" arabic-form="medial" 
d="M760 0q-62 0 -122 38.5t-81 94.5q-22 -55 -84.5 -94t-128.5 -39h-346v270h324q52 0 85 32.5t33 82.5v418l228 6v-424q0 -50 31.5 -82.5t80.5 -32.5h119q11 0 18 -18.5t10 -46.5t4 -46.5t1 -33.5q0 -35 -9 -80t-24 -45h-139zM449 1239l292 -174l-661 -16v190h369z
M395 1057v182h307l54 -35v-139z" />
    <glyph glyph-name="uni062B.fina" unicode="&#x62b;" horiz-adv-x="2074" arabic-form="final" 
d="M459 0q-141 0 -228.5 92t-87.5 234v479l238 10v-438q0 -48 24.5 -77.5t65.5 -29.5h1053q53 0 90.5 33t34.5 80l-29 502l254 16v-586q0 -137 -92 -226t-228 -89h-1095zM1978 0q-126 0 -197.5 111.5t-72.5 330.5h164q3 -172 127 -172h76q17 0 24.5 -53t7.5 -90t-8.5 -82
t-23.5 -45h-97zM899 1305v198l221 8v-206h-221zM1040 1163l293 -174l-661 -16v190h368zM987 981v182h307l54 -35v-139z" />
    <glyph glyph-name="uni062B.init" unicode="&#x62b;" horiz-adv-x="851" arabic-form="initial" 
d="M-2 0v270h360q53 0 90.5 32.5t34.5 80.5l-28 502l254 16v-586q0 -136 -91 -225.5t-229 -89.5h-391zM250 1464v199l221 8v-207h-221zM391 1323l293 -174l-661 -16v190h368zM338 1141v182h307l53 -35v-139z" />
    <glyph glyph-name="uni062B.medi" unicode="&#x62b;" horiz-adv-x="899" arabic-form="medial" 
d="M760 0q-62 0 -122 38.5t-81 94.5q-22 -55 -84.5 -94t-128.5 -39h-346v270h324q52 0 85 32.5t33 82.5v418l228 6v-424q0 -50 31.5 -82.5t80.5 -32.5h119q11 0 18 -18.5t10 -46.5t4 -46.5t1 -33.5q0 -35 -9 -80t-24 -45h-139zM307 1380v199l221 8v-207h-221zM449 1239
l292 -174l-661 -16v190h369zM395 1057v182h307l54 -35v-139z" />
    <glyph glyph-name="uni062C.fina" unicode="&#x62c;" horiz-adv-x="1566" arabic-form="final" 
d="M776 -125v178l199 8v-186h-199zM1462 0q-173 1 -267 112.5t-103 315.5l145 143q21 -301 209 -301h123q16 0 23 -53.5t7 -89.5q0 -30 -7.5 -78.5t-22.5 -48.5h-107zM621 -596q-218 0 -343.5 108.5t-125.5 297.5l-2 157q-3 194 66 290t259 159l518 168l-411 215
q-29 16 -62 16q-73 3 -102 -65l-68 -142l-194 78l84 193q38 85 116 132.5t176 47.5q79 0 158 -43l780 -395l-69 -234l-109 53l-696 -237q-135 -46 -175.5 -93.5t-41.5 -162.5v-105q-2 -85 57 -139t150 -51l735 26l-39 -274h-661z" />
    <glyph glyph-name="uni062C.init" unicode="&#x62c;" horiz-adv-x="1581" arabic-form="initial" 
d="M-2 0v270h270q270 0 441 103l305 174l-453 229q-25 17 -59 17q-36 0 -64 -18t-41 -50l-63 -141l-197 69l78 193q33 87 112 137.5t177 50.5q85 0 158 -37l776 -376l-62 -234l-127 59l-368 -235q-172 -118 -320.5 -164.5t-347.5 -46.5h-215zM516 -510v229l256 11v-240h-256
z" />
    <glyph glyph-name="uni062C.medi" unicode="&#x62c;" horiz-adv-x="1527" arabic-form="medial" 
d="M1423 0q-171 0 -265.5 112.5t-102.5 315.5l145 143q21 -301 207 -301h125q14 0 21.5 -43t7.5 -100q0 -50 -7.5 -88.5t-21.5 -38.5h-109zM-2 0v270h270q270 0 441 103l305 174l-453 229q-25 17 -59 17q-36 0 -64 -18t-41 -50l-63 -141l-197 69l78 193q33 87 112 137.5
t177 50.5q85 0 158 -37l776 -376l-62 -234l-127 59l-368 -235q-172 -118 -320.5 -164.5t-347.5 -46.5h-215zM514 -510v229l256 11v-240h-256z" />
    <glyph glyph-name="uni062D.fina" unicode="&#x62d;" horiz-adv-x="1566" arabic-form="final" 
d="M1462 0q-173 1 -267 112.5t-103 315.5l145 143q21 -301 209 -301h123q16 0 23 -53.5t7 -89.5q0 -30 -7.5 -78.5t-22.5 -48.5h-107zM621 -596q-218 0 -343.5 108.5t-125.5 297.5l-2 157q-3 194 66 290t259 159l518 168l-411 215q-29 16 -62 16q-73 3 -102 -65l-68 -142
l-194 78l84 193q38 85 116 132.5t176 47.5q79 0 158 -43l780 -395l-69 -234l-109 53l-696 -237q-135 -46 -175.5 -93.5t-41.5 -162.5v-105q-2 -85 57 -139t150 -51l735 26l-39 -274h-661z" />
    <glyph glyph-name="uni062D.init" unicode="&#x62d;" horiz-adv-x="1581" arabic-form="initial" 
d="M-2 0v270h270q270 0 441 103l305 174l-453 229q-25 17 -59 17q-36 0 -64 -18t-41 -50l-63 -141l-197 69l78 193q33 87 112 137.5t177 50.5q85 0 158 -37l776 -376l-62 -234l-127 59l-368 -235q-172 -118 -320.5 -164.5t-347.5 -46.5h-215z" />
    <glyph glyph-name="uni062D.medi" unicode="&#x62d;" horiz-adv-x="1527" arabic-form="medial" 
d="M1423 0q-171 0 -265.5 112.5t-102.5 315.5l145 143q21 -301 207 -301h125q14 0 21.5 -43t7.5 -100q0 -50 -7.5 -88.5t-21.5 -38.5h-109zM-2 0v270h270q270 0 441 103l305 174l-453 229q-25 17 -59 17q-36 0 -64 -18t-41 -50l-63 -141l-197 69l78 193q33 87 112 137.5
t177 50.5q85 0 158 -37l776 -376l-62 -234l-127 59l-368 -235q-172 -118 -320.5 -164.5t-347.5 -46.5h-215z" />
    <glyph glyph-name="uni062E.fina" unicode="&#x62e;" horiz-adv-x="1566" arabic-form="final" 
d="M1462 0q-173 1 -267 112.5t-103 315.5l145 143q21 -301 209 -301h123q16 0 23 -53.5t7 -89.5q0 -30 -7.5 -78.5t-22.5 -48.5h-107zM621 -596q-218 0 -343.5 108.5t-125.5 297.5l-2 157q-3 194 66 290t259 159l518 168l-411 215q-29 16 -62 16q-73 3 -102 -65l-68 -142
l-194 78l84 193q38 85 116 132.5t176 47.5q79 0 158 -43l780 -395l-69 -234l-109 53l-696 -237q-135 -46 -175.5 -93.5t-41.5 -162.5v-105q-2 -85 57 -139t150 -51l735 26l-39 -274h-661zM391 1292v230l256 10v-240h-256z" />
    <glyph glyph-name="uni062E.init" unicode="&#x62e;" horiz-adv-x="1581" arabic-form="initial" 
d="M-2 0v270h270q270 0 441 103l305 174l-453 229q-25 17 -59 17q-36 0 -64 -18t-41 -50l-63 -141l-197 69l78 193q33 87 112 137.5t177 50.5q85 0 158 -37l776 -376l-62 -234l-127 59l-368 -235q-172 -118 -320.5 -164.5t-347.5 -46.5h-215zM383 1284v229l256 11v-240h-256
z" />
    <glyph glyph-name="uni062E.medi" unicode="&#x62e;" horiz-adv-x="1527" arabic-form="medial" 
d="M1423 0q-171 0 -265.5 112.5t-102.5 315.5l145 143q21 -301 207 -301h125q14 0 21.5 -43t7.5 -100q0 -50 -7.5 -88.5t-21.5 -38.5h-109zM-2 0v270h270q270 0 441 103l305 174l-453 229q-25 17 -59 17q-36 0 -64 -18t-41 -50l-63 -141l-197 69l78 193q33 87 112 137.5
t177 50.5q85 0 158 -37l776 -376l-62 -234l-127 59l-368 -235q-172 -118 -320.5 -164.5t-347.5 -46.5h-215zM383 1284v229l256 11v-240h-256z" />
    <glyph glyph-name="uni062F.fina" unicode="&#x62f;" horiz-adv-x="1370" arabic-form="final" 
d="M1372 0q-111 0 -188 34.5t-142 115.5q-38 -70 -109 -110t-155 -40h-317q-141 0 -229.5 85.5t-88.5 225.5v170l215 13v-115q0 -55 26 -82t83 -27h330q47 0 81 30t40 73l-54 145l-192 529l227 63l213 -633q44 -126 94.5 -166.5t165.5 -40.5q15 0 23 -47t8 -90
q0 -40 -8 -86.5t-23 -46.5z" />
    <glyph glyph-name="uni0630.fina" unicode="&#x630;" horiz-adv-x="1370" arabic-form="final" 
d="M1372 0q-111 0 -188 34.5t-142 115.5q-38 -70 -109 -110t-155 -40h-317q-141 0 -229.5 85.5t-88.5 225.5v170l215 13v-115q0 -55 26 -82t83 -27h330q47 0 81 30t40 73l-54 145l-192 529l227 63l213 -633q44 -126 94.5 -166.5t165.5 -40.5q15 0 23 -47t8 -90
q0 -40 -8 -86.5t-23 -46.5zM596 1362v229l256 11v-240h-256z" />
    <glyph glyph-name="uni0631.fina" unicode="&#x631;" horiz-adv-x="753" arabic-form="final" 
d="M705 0q-50 0 -96.5 23t-71.5 55v-125q0 -187 -165.5 -328t-477.5 -217l-89 270q132 27 249 76.5t191.5 116t71.5 131.5l-30 795l254 16v-428q3 -50 40.5 -82.5t96.5 -32.5h76q32 0 32 -143q0 -127 -32 -127h-49z" />
    <glyph glyph-name="uni0632.fina" unicode="&#x632;" horiz-adv-x="753" arabic-form="final" 
d="M705 0q-50 0 -96.5 23t-71.5 55v-125q0 -187 -165.5 -328t-477.5 -217l-89 270q132 27 249 76.5t191.5 116t71.5 131.5l-30 795l254 16v-428q3 -50 40.5 -82.5t96.5 -32.5h76q32 0 32 -143q0 -127 -32 -127h-49zM283 1094v229l256 10v-239h-256z" />
    <glyph glyph-name="uni0633.fina" unicode="&#x633;" horiz-adv-x="2924" arabic-form="final" 
d="M637 -461q-135 0 -248.5 62.5t-179.5 172t-66 242.5v621l238 10v-581q0 -120 79.5 -189.5t201.5 -69.5q157 0 280.5 29t197 89.5t70.5 142.5l-32 790l254 19l2 -449q7 -71 61 -114.5t133 -43.5q84 0 144 39.5t69 100.5l62 391l229 6l-64 -412q2 -52 45 -88.5t105 -36.5
h80q96 0 148.5 33.5t50.5 93.5l-15 461l246 10v-483q0 -50 31.5 -82.5t81.5 -32.5h86q8 0 14 -12t8.5 -31.5t4 -37.5t2.5 -36.5t1 -21.5q0 -11 -1 -28.5t-3.5 -43t-9.5 -42.5t-16 -17h-76q-77 0 -142 32.5t-106 92.5q-101 -125 -328 -125h-80q-77 0 -143.5 39.5t-95.5 103.5
q-46 -65 -134.5 -104t-189.5 -39q-57 0 -112.5 24.5t-83.5 61.5v-88q0 -224 -204.5 -341.5t-594.5 -117.5z" />
    <glyph glyph-name="uni0633.init" unicode="&#x633;" horiz-adv-x="1988" arabic-form="initial" 
d="M1331 0q-85 0 -157.5 38.5t-102.5 104.5q-47 -65 -135 -104t-186 -39t-188.5 39.5t-121.5 101.5q-25 -66 -99.5 -103.5t-182.5 -37.5h-160v270h135q87 0 136.5 31t49.5 88v422l230 6v-424q0 -51 55 -87t129 -36q91 0 152.5 35t70.5 92l64 404l229 6l-63 -420
q0 -50 48.5 -83.5t104.5 -33.5h78q98 0 152 34.5t51 94.5l-29 486l254 16v-541q0 -177 -109.5 -268.5t-322.5 -91.5h-82z" />
    <glyph glyph-name="uni0633.medi" unicode="&#x633;" horiz-adv-x="2033" arabic-form="medial" 
d="M1946 0q-69 0 -127.5 33t-89.5 90q-32 -55 -121 -89t-197 -34h-78q-86 0 -159 38.5t-103 104.5q-49 -66 -136.5 -104.5t-184.5 -38.5q-98 0 -188.5 39.5t-121.5 101.5q-25 -66 -99.5 -103.5t-184.5 -37.5h-158v270h133q87 0 137.5 31.5t50.5 87.5v422l230 6v-424
q0 -53 57 -88t133 -35q86 0 147 33t70 94l64 404l229 6l-65 -420q3 -51 51 -84t106 -33h72q94 0 148 33t53 90l-15 465l246 10v-483q0 -51 31.5 -83t81.5 -32h76q30 0 30 -139q0 -131 -30 -131h-88z" />
    <glyph glyph-name="uni0634.fina" unicode="&#x634;" horiz-adv-x="2924" arabic-form="final" 
d="M637 -461q-135 0 -248.5 62.5t-179.5 172t-66 242.5v621l238 10v-581q0 -120 79.5 -189.5t201.5 -69.5q157 0 280.5 29t197 89.5t70.5 142.5l-32 790l254 19l2 -449q7 -71 61 -114.5t133 -43.5q84 0 144 39.5t69 100.5l62 391l229 6l-64 -412q2 -52 45 -88.5t105 -36.5
h80q96 0 148.5 33.5t50.5 93.5l-15 461l246 10v-483q0 -50 31.5 -82.5t81.5 -32.5h86q8 0 14 -12t8.5 -31.5t4 -37.5t2.5 -36.5t1 -21.5q0 -11 -1 -28.5t-3.5 -43t-9.5 -42.5t-16 -17h-76q-77 0 -142 32.5t-106 92.5q-101 -125 -328 -125h-80q-77 0 -143.5 39.5t-95.5 103.5
q-46 -65 -134.5 -104t-189.5 -39q-57 0 -112.5 24.5t-83.5 61.5v-88q0 -224 -204.5 -341.5t-594.5 -117.5zM1896 1448v199l222 8v-207h-222zM2038 1307l293 -174l-662 -17v191h369zM1985 1124v183h307l53 -35v-139z" />
    <glyph glyph-name="uni0634.init" unicode="&#x634;" horiz-adv-x="1988" arabic-form="initial" 
d="M1331 0q-85 0 -157.5 38.5t-102.5 104.5q-47 -65 -135 -104t-186 -39t-188.5 39.5t-121.5 101.5q-25 -66 -99.5 -103.5t-182.5 -37.5h-160v270h135q87 0 136.5 31t49.5 88v422l230 6v-424q0 -51 55 -87t129 -36q91 0 152.5 35t70.5 92l64 404l229 6l-63 -420
q0 -50 48.5 -83.5t104.5 -33.5h78q98 0 152 34.5t51 94.5l-29 486l254 16v-541q0 -177 -109.5 -268.5t-322.5 -91.5h-82zM1047 1448v199l221 8v-207h-221zM1188 1307l293 -174l-662 -17v191h369zM1135 1124v183h307l53 -35v-139z" />
    <glyph glyph-name="uni0634.medi" unicode="&#x634;" horiz-adv-x="2033" arabic-form="medial" 
d="M1946 0q-69 0 -127.5 33t-89.5 90q-32 -55 -121 -89t-197 -34h-78q-86 0 -159 38.5t-103 104.5q-49 -66 -136.5 -104.5t-184.5 -38.5q-98 0 -188.5 39.5t-121.5 101.5q-25 -66 -99.5 -103.5t-184.5 -37.5h-158v270h133q87 0 137.5 31.5t50.5 87.5v422l230 6v-424
q0 -53 57 -88t133 -35q86 0 147 33t70 94l64 404l229 6l-65 -420q3 -51 51 -84t106 -33h72q94 0 148 33t53 90l-15 465l246 10v-483q0 -51 31.5 -83t81.5 -32h76q30 0 30 -139q0 -131 -30 -131h-88zM1047 1448v199l221 8v-207h-221zM1188 1307l293 -174l-662 -17v191h369z
M1135 1124v183h307l53 -35v-139z" />
    <glyph glyph-name="uni0635.fina" unicode="&#x635;" horiz-adv-x="2805" arabic-form="final" 
d="M2710 0q-126 0 -198 111.5t-73 330.5h164q3 -172 127 -172h76q17 0 25 -53.5t8 -89.5q0 -37 -9 -82t-24 -45h-96zM637 -461q-130 0 -244 63t-182 173.5t-68 240.5v621l238 8v-579q0 -117 73.5 -188t190.5 -71q133 0 236 14.5t179.5 45t115 81t34.5 118.5l-32 792l254 19
l2 -398q3 -8 10 -24.5t10 -24.5l217 326q71 105 146 146t208 50q147 9 336 9l242 -216v-446q0 -131 -87.5 -215t-219.5 -84h-629q-62 0 -123.5 28t-107.5 76v-88q0 -124 -56.5 -216.5t-162.5 -149t-250.5 -84t-329.5 -27.5zM1618 309q58 -39 115 -39h530q53 0 91.5 38
t35.5 89l-8 244l-98 92q-119 0 -191 -4q-116 -6 -176.5 -37.5t-120.5 -118.5z" />
    <glyph glyph-name="uni0635.init" unicode="&#x635;" horiz-adv-x="1810" arabic-form="initial" 
d="M-2 0v270h158q54 0 86 32.5t32 86.5v420l228 6v-293v-53q9 -18 16 -39l217 326q68 101 158 148.5t227 51.5q149 5 305 5l242 -216v-446q0 -131 -87.5 -215t-219.5 -84h-672q-170 0 -266 113q-38 -53 -102.5 -83t-139.5 -30h-182zM682 309q58 -39 106 -39h539
q52 0 90 37.5t37 89.5l-8 246l-98 90q-119 0 -191 -4q-114 -5 -176.5 -37t-120.5 -119z" />
    <glyph glyph-name="uni0635.medi" unicode="&#x635;" horiz-adv-x="1867" arabic-form="medial" 
d="M1772 0q-126 0 -198 111.5t-73 330.5h164q3 -172 127 -172h76q17 0 25 -53.5t8 -89.5q0 -37 -9 -82t-24 -45h-96zM-2 0v270h158q54 0 86 32.5t32 86.5v420l228 6v-293v-53q9 -18 16 -39l217 326q68 101 158 148.5t227 51.5q149 5 305 5l242 -216v-446q0 -131 -87.5 -215
t-219.5 -84h-672q-170 0 -266 113q-38 -53 -102.5 -83t-139.5 -30h-182zM682 309q58 -39 106 -39h539q52 0 90 37.5t37 89.5l-8 246l-98 90q-119 0 -191 -4q-114 -5 -176.5 -37t-120.5 -119z" />
    <glyph glyph-name="uni0636.fina" unicode="&#x636;" horiz-adv-x="2805" arabic-form="final" 
d="M2710 0q-126 0 -198 111.5t-73 330.5h164q3 -172 127 -172h76q17 0 25 -53.5t8 -89.5q0 -37 -9 -82t-24 -45h-96zM637 -461q-130 0 -244 63t-182 173.5t-68 240.5v621l238 8v-579q0 -117 73.5 -188t190.5 -71q133 0 236 14.5t179.5 45t115 81t34.5 118.5l-32 792l254 19
l2 -398q3 -8 10 -24.5t10 -24.5l217 326q71 105 146 146t208 50q147 9 336 9l242 -216v-446q0 -131 -87.5 -215t-219.5 -84h-629q-62 0 -123.5 28t-107.5 76v-88q0 -124 -56.5 -216.5t-162.5 -149t-250.5 -84t-329.5 -27.5zM1618 309q58 -39 115 -39h530q53 0 91.5 38
t35.5 89l-8 244l-98 92q-119 0 -191 -4q-116 -6 -176.5 -37.5t-120.5 -118.5zM2011 1202v230l256 10v-240h-256z" />
    <glyph glyph-name="uni0636.init" unicode="&#x636;" horiz-adv-x="1810" arabic-form="initial" 
d="M-2 0v270h158q54 0 86 32.5t32 86.5v420l228 6v-293v-53q9 -18 16 -39l217 326q68 101 158 148.5t227 51.5q149 5 305 5l242 -216v-446q0 -131 -87.5 -215t-219.5 -84h-672q-170 0 -266 113q-38 -53 -102.5 -83t-139.5 -30h-182zM682 309q58 -39 106 -39h539
q52 0 90 37.5t37 89.5l-8 246l-98 90q-119 0 -191 -4q-114 -5 -176.5 -37t-120.5 -119zM1073 1202v230l256 10v-240h-256z" />
    <glyph glyph-name="uni0636.medi" unicode="&#x636;" horiz-adv-x="1867" arabic-form="medial" 
d="M1772 0q-126 0 -198 111.5t-73 330.5h164q3 -172 127 -172h76q17 0 25 -53.5t8 -89.5q0 -37 -9 -82t-24 -45h-96zM-2 0v270h158q54 0 86 32.5t32 86.5v420l228 6v-293v-53q9 -18 16 -39l217 326q68 101 158 148.5t227 51.5q149 5 305 5l242 -216v-446q0 -131 -87.5 -215
t-219.5 -84h-672q-170 0 -266 113q-38 -53 -102.5 -83t-139.5 -30h-182zM682 309q58 -39 106 -39h539q52 0 90 37.5t37 89.5l-8 246l-98 90q-119 0 -191 -4q-114 -5 -176.5 -37t-120.5 -119zM1073 1202v230l256 10v-240h-256z" />
    <glyph glyph-name="uni0637.fina" unicode="&#x637;" horiz-adv-x="1734" arabic-form="final" 
d="M174 0l-31 291l174 -2l78 119l-28 1046l254 16l4 -665l-23 -152l103 148q65 82 149.5 116.5t241.5 40.5q73 3 196 3l238 -216v-438q0 -135 -94.5 -221t-229.5 -86h-1032zM1192 270q52 -1 90.5 37.5t36.5 89.5l-8 246l-99 90q-107 0 -170 -4q-120 -6 -181 -38.5
t-122 -121.5l-186 -280zM1638 0q-126 0 -197.5 111.5t-72.5 330.5h164q3 -172 127 -172h76q17 0 24.5 -53t7.5 -90t-8.5 -82t-23.5 -45h-97z" />
    <glyph glyph-name="uni0637.init" unicode="&#x637;" horiz-adv-x="1476" arabic-form="initial" 
d="M-2 0v268l108 2l93 138l-29 1046l252 16l4 -653l-20 -164l100 148q63 83 146 116t245 41q73 3 197 3l239 -216v-438q0 -135 -94 -221t-229 -86h-1012zM995 270q52 0 89.5 38t35.5 89l-8 246l-98 90q-107 0 -170 -4q-121 -6 -182.5 -39t-120.5 -121l-191 -290z" />
    <glyph glyph-name="uni0637.medi" unicode="&#x637;" horiz-adv-x="1536" arabic-form="medial" 
d="M-2 0v268l108 2l93 138l-29 1046l252 16l4 -653l-20 -164l100 148q63 83 146 116t245 41q73 3 197 3l239 -216v-438q0 -135 -94 -221t-229 -86h-1012zM995 270q52 0 89.5 38t35.5 89l-8 246l-98 90q-107 0 -170 -4q-121 -6 -182.5 -39t-120.5 -121l-191 -290zM1440 0
q-126 0 -198 111.5t-73 330.5h164q3 -172 127 -172h76q17 0 25 -53.5t8 -89.5q0 -37 -9 -82t-24 -45h-96z" />
    <glyph glyph-name="uni0638.fina" unicode="&#x638;" horiz-adv-x="1734" arabic-form="final" 
d="M174 0l-31 291l174 -2l78 119l-28 1046l254 16l4 -665l-23 -152l103 148q65 82 149.5 116.5t241.5 40.5q73 3 196 3l238 -216v-438q0 -135 -94.5 -221t-229.5 -86h-1032zM1192 270q52 -1 90.5 37.5t36.5 89.5l-8 246l-99 90q-107 0 -170 -4q-120 -6 -181 -38.5
t-122 -121.5l-186 -280zM1638 0q-126 0 -197.5 111.5t-72.5 330.5h164q3 -172 127 -172h76q17 0 24.5 -53t7.5 -90t-8.5 -82t-23.5 -45h-97zM983 1200v230l256 10v-240h-256z" />
    <glyph glyph-name="uni0638.init" unicode="&#x638;" horiz-adv-x="1476" arabic-form="initial" 
d="M-2 0v268l108 2l93 138l-29 1046l252 16l4 -653l-20 -164l100 148q63 83 146 116t245 41q73 3 197 3l239 -216v-438q0 -135 -94 -221t-229 -86h-1012zM995 270q52 0 89.5 38t35.5 89l-8 246l-98 90q-107 0 -170 -4q-121 -6 -182.5 -39t-120.5 -121l-191 -290zM797 1200
v230l256 10v-240h-256z" />
    <glyph glyph-name="uni0638.medi" unicode="&#x638;" horiz-adv-x="1536" arabic-form="medial" 
d="M-2 0v268l108 2l93 138l-29 1046l252 16l4 -653l-20 -164l100 148q63 83 146 116t245 41q73 3 197 3l239 -216v-438q0 -135 -94 -221t-229 -86h-1012zM995 270q52 0 89.5 38t35.5 89l-8 246l-98 90q-107 0 -170 -4q-121 -6 -182.5 -39t-120.5 -121l-191 -290zM1440 0
q-126 0 -198 111.5t-73 330.5h164q3 -172 127 -172h76q17 0 25 -53.5t8 -89.5q0 -37 -9 -82t-24 -45h-96zM797 1200v230l256 10v-240h-256z" />
    <glyph glyph-name="uni0639.fina" unicode="&#x639;" horiz-adv-x="1445" arabic-form="final" 
d="M543 -600q-178 0 -289 93t-111 257v121q0 154 45 234t162 131q104 42 115 45q-79 60 -117.5 164t-79.5 325l-92 -4l29 260l831 8q75 -65 130 -134.5t67 -113.5q9 -63 -21 -188q-50 -204 -202 -319q56 -9 120 -9h318q21 0 31 -139q2 -38 -7.5 -84.5t-23.5 -46.5h-358
q-209 0 -373 86q-86 -13 -191 -47q-34 -11 -56 -20t-38 -25t-23.5 -28.5t-12 -40.5t-5 -50.5t-0.5 -69.5q0 -84 39.5 -121t120.5 -34l653 24l-41 -274h-620zM752 326q70 23 126.5 75t82.5 113q8 18 17.5 41t14 33.5t9.5 24t7 20.5t3.5 15t1.5 16q0 26 -17 53t-61 74
l-459 -17q43 -207 105 -309.5t170 -138.5z" />
    <glyph glyph-name="uni0639.init" unicode="&#x639;" horiz-adv-x="1316" arabic-form="initial" 
d="M-2 0v270h252q-31 53 -31 150v201q0 102 39 167q21 39 58.5 78t101 92.5t76.5 65.5h321q114 0 199.5 -80t85.5 -188v-82l-195 -12q0 57 -37 96t-92 39h-182q-5 -5 -33.5 -31.5t-41.5 -39.5t-32 -35t-28 -40q-13 -33 -13 -114l3 -131q2 -77 39 -106.5t128 -23.5l517 33
l41 -258q-424 -51 -855 -51h-321z" />
    <glyph glyph-name="uni0639.medi" unicode="&#x639;" horiz-adv-x="1398" arabic-form="medial" 
d="M1061 0q-200 0 -346 51q-148 -51 -328 -51h-389v270h301q70 0 150 13q-82 65 -128.5 178.5t-80.5 308.5l-93 -4l29 260l832 8q75 -73 110 -108.5t66 -78t35 -71.5q7 -61 -35 -178q-40 -122 -80.5 -195t-99.5 -124q88 -9 126 -9h271q17 0 24 -51.5t7 -87.5q0 -29 -8 -80
t-23 -51h-340zM723 326q67 20 123.5 71.5t83.5 112.5q6 15 15.5 36.5t13.5 31t9.5 23t8 20t5 15t3 14.5t0.5 12q-1 29 -17.5 55.5t-60.5 73.5l-458 -17q45 -208 106 -310t168 -138z" />
    <glyph glyph-name="uni063A.fina" unicode="&#x63a;" horiz-adv-x="1447" arabic-form="final" 
d="M543 -600q-178 0 -289 93t-111 257v121q0 154 45 234t162 131q104 42 115 45q-79 60 -117.5 164t-79.5 325l-92 -4l29 260l831 8q75 -65 130 -134.5t67 -113.5q9 -63 -21 -188q-50 -204 -202 -319q56 -9 120 -9h318q21 0 31 -139q2 -38 -7.5 -84.5t-23.5 -46.5h-358
q-209 0 -373 86q-86 -13 -191 -47q-34 -11 -56 -20t-38 -25t-23.5 -28.5t-12 -40.5t-5 -50.5t-0.5 -69.5q0 -84 39.5 -121t120.5 -34l653 24l-41 -274h-620zM752 326q70 23 126.5 75t82.5 113q8 18 17.5 41t14 33.5t9.5 24t7 20.5t3.5 15t1.5 16q0 26 -17 53t-61 74
l-459 -17q43 -207 105 -309.5t170 -138.5zM610 1280v229l256 11v-240h-256z" />
    <glyph glyph-name="uni063A.init" unicode="&#x63a;" horiz-adv-x="1316" arabic-form="initial" 
d="M-2 0v270h252q-31 53 -31 150v201q0 102 39 167q21 39 58.5 78t101 92.5t76.5 65.5h321q114 0 199.5 -80t85.5 -188v-82l-195 -12q0 57 -37 96t-92 39h-182q-5 -5 -33.5 -31.5t-41.5 -39.5t-32 -35t-28 -40q-13 -33 -13 -114l3 -131q2 -77 39 -106.5t128 -23.5l517 33
l41 -258q-424 -51 -855 -51h-321zM588 1278v229l256 11v-240h-256z" />
    <glyph glyph-name="uni063A.medi" unicode="&#x63a;" horiz-adv-x="1398" arabic-form="medial" 
d="M1061 0q-200 0 -346 51q-148 -51 -328 -51h-389v270h301q70 0 150 13q-82 65 -128.5 178.5t-80.5 308.5l-93 -4l29 260l832 8q75 -73 110 -108.5t66 -78t35 -71.5q7 -61 -35 -178q-40 -122 -80.5 -195t-99.5 -124q88 -9 126 -9h271q17 0 24 -51.5t7 -87.5q0 -29 -8 -80
t-23 -51h-340zM723 326q67 20 123.5 71.5t83.5 112.5q6 15 15.5 36.5t13.5 31t9.5 23t8 20t5 15t3 14.5t0.5 12q-1 29 -17.5 55.5t-60.5 73.5l-458 -17q45 -208 106 -310t168 -138zM584 1278v229l256 11v-240h-256z" />
    <glyph glyph-name="uni0641.fina" unicode="&#x641;" horiz-adv-x="2150" arabic-form="final" 
d="M459 0q-141 0 -228.5 88.5t-87.5 228.5v488l238 10v-438q0 -47 24 -77t66 -30h530v-270h-542zM1108 270q-26 29 -43.5 73.5t-17.5 84.5q0 181 26 277q6 24 16.5 49t21 44t31 44.5t31.5 39t39.5 41t39 36.5t44 39.5t41.5 37.5l318 -41q113 -15 200 -107.5t93 -205.5
q9 -157 -8 -253t-58 -159h266q14 0 23.5 -45t9.5 -98q0 -47 -9.5 -87t-23.5 -40h-542q-67 0 -131 23q-61 -23 -129 -23h-529v270h291zM1413 801q-119 -103 -137 -191q-12 -49 -12 -157q0 -72 65 -127.5t150 -55.5h26q117 0 168 62.5t51 208.5q0 117 -32 169.5t-107 63.5z
M1346 1264v229l256 10v-239h-256z" />
    <glyph glyph-name="uni0641.init" unicode="&#x641;" horiz-adv-x="1146" arabic-form="initial" 
d="M-2 0v270h680q49 0 79.5 31.5t30.5 79.5v55h-358q-124 0 -199 78t-75 203v411l241 215h326q126 0 203.5 -76.5t77.5 -201.5v-690q0 -174 -91.5 -274.5t-263.5 -100.5h-651zM776 1020q-1 47 -36 78.5t-85 31.5h-182l-104 -90l-11 -235q-3 -59 34.5 -96t96.5 -37h304z
M471 1577v229l256 11v-240h-256z" />
    <glyph glyph-name="uni0641.medi" unicode="&#x641;" horiz-adv-x="1331" arabic-form="medial" 
d="M289 270q-27 30 -44.5 74.5t-17.5 83.5q0 177 27 277q6 24 16.5 49t21 44t31 44.5t31.5 39t39.5 41t39 36.5t44 39.5t41.5 37.5l318 -41q113 -15 199.5 -107t92.5 -206q9 -158 -7.5 -254t-57.5 -158h266q14 0 23.5 -45t9.5 -98q0 -47 -9.5 -87t-23.5 -40h-543
q-67 0 -131 23q-61 -23 -129 -23h-528v270h291zM594 801q-119 -103 -137 -191q-13 -54 -13 -157q0 -72 65 -127.5t150 -55.5h27q117 0 168 62.5t51 208.5q0 117 -32 169.5t-107 63.5zM543 1264v229l256 10v-239h-256z" />
    <glyph glyph-name="uni0642.fina" unicode="&#x642;" horiz-adv-x="1607" arabic-form="final" 
d="M1374 0v270h236q12 0 21 -47t9 -88q0 -42 -9 -88.5t-21 -46.5h-236zM637 -528q-212 0 -353 133.5t-141 341.5v610l238 10v-573q0 -114 69 -185t183 -71q244 0 428.5 41t234.5 110q9 15 9 76v35h-398q-128 0 -205 74.5t-77 199.5v437l243 213h351q126 0 203 -76t77 -201
v-700q0 -247 -207 -361t-655 -114zM1276 582q-3 62 -41 98t-100 35l-189 -2l-108 -92l-9 -259q-3 -58 26 -83t97 -25h340zM1098 1343l293 -174l-662 -16v190h369zM1044 1161v182h308l53 -34v-140z" />
    <glyph glyph-name="uni0642.init" unicode="&#x642;" horiz-adv-x="1146" arabic-form="initial" 
d="M-2 0v270h680q49 0 79.5 31.5t30.5 79.5v55h-358q-124 0 -199 78t-75 203v411l241 215h326q126 0 203.5 -76.5t77.5 -201.5v-690q0 -174 -91.5 -274.5t-263.5 -100.5h-651zM776 1020q-1 47 -36 78.5t-85 31.5h-182l-104 -90l-11 -235q-3 -59 34.5 -96t96.5 -37h304z
M631 1767l293 -174l-662 -16v190h369zM578 1585v182h307l53 -34v-140z" />
    <glyph glyph-name="uni0642.medi" unicode="&#x642;" horiz-adv-x="1331" arabic-form="medial" 
d="M289 270q-27 30 -44.5 74.5t-17.5 83.5q0 177 27 277q6 24 16.5 49t21 44t31 44.5t31.5 39t39.5 41t39 36.5t44 39.5t41.5 37.5l318 -41q113 -15 199.5 -107t92.5 -206q9 -158 -7.5 -254t-57.5 -158h266q14 0 23.5 -45t9.5 -98q0 -47 -9.5 -87t-23.5 -40h-543
q-67 0 -131 23q-61 -23 -129 -23h-528v270h291zM594 801q-119 -103 -137 -191q-13 -54 -13 -157q0 -72 65 -127.5t150 -55.5h27q117 0 168 62.5t51 208.5q0 117 -32 169.5t-107 63.5zM702 1454l293 -174l-661 -16v190h368zM649 1272v182h307l54 -35v-139z" />
    <glyph glyph-name="uni0643.fina" unicode="&#x643;" horiz-adv-x="2078" arabic-form="final" 
d="M459 0q-142 0 -229 86.5t-87 230.5v488l238 10v-438q0 -47 24 -77t66 -30h1034q58 0 97 33t38 82l-24 1073l254 19l8 -1092q0 -112 -34 -196.5t-110 -136.5t-188 -52h-1087zM1092 766q14 1 24 11.5t10 21.5q0 23 -22 41l-268 133l4 104l319 140l47 -95l-256 -96l236 -121
q39 -68 39 -119q0 -49 -38.5 -87t-94.5 -44l-271 -28v110zM1982 0q-126 0 -197.5 111.5t-72.5 330.5h164q3 -172 127 -172h76q17 0 24.5 -53t7.5 -90t-8.5 -82t-23.5 -45h-97z" />
    <glyph glyph-name="uni0643.init" unicode="&#x643;" horiz-adv-x="1247" arabic-form="initial" 
d="M752 270q55 0 88.5 30.5t33.5 78.5l-61 264l-684 328l8 258l801 346l106 -227l-638 -238l604 -303q6 -28 18 -82t18.5 -83t16 -74t15 -73.5t11.5 -61.5t9 -57.5t4 -43.5q3 -87 -42 -163.5t-125 -122.5t-173 -46h-764v270h754z" />
    <glyph glyph-name="uni0643.medi" unicode="&#x643;" horiz-adv-x="1390" arabic-form="medial" 
d="M1389 0q-138 0 -229.5 61.5t-180.5 214.5l-4 -65q-13 -95 -99.5 -153t-207.5 -58h-670v270h694q60 0 102 35t42 88v84q-50 67 -78 84l-613 406l9 282l772 346l106 -227l-647 -250l496 -344q49 -33 95 -87t78.5 -108t71 -111t74 -100.5t85 -71.5t106.5 -28q18 0 24 -24
t6 -103q0 -47 -7 -94t-25 -47z" />
    <glyph glyph-name="uni0644.fina" unicode="&#x644;" horiz-adv-x="1593" arabic-form="final" 
d="M655 -481q-232 0 -372 135.5t-140 359.5v516l238 9v-494q0 -115 72.5 -186.5t189.5 -71.5q263 0 396 64t130 190l-39 1413l252 16l11 -1474q1 -233 -187.5 -355t-550.5 -122zM1497 0q-126 0 -197.5 111.5t-72.5 330.5h164q3 -172 127 -172h75q17 0 25 -53.5t8 -89.5
q0 -37 -9 -82t-24 -45h-96z" />
    <glyph glyph-name="uni0644.init" unicode="&#x644;" horiz-adv-x="655" arabic-form="initial" 
d="M-2 0v270h141q60 0 97 33.5t36 87.5l-24 1067l256 19l6 -1090q1 -186 -92.5 -286.5t-265.5 -100.5h-154z" />
    <glyph glyph-name="uni0644.medi" unicode="&#x644;" horiz-adv-x="712" arabic-form="medial" 
d="M-2 0v270h135q56 0 94.5 35t38.5 86l-22 1067l252 19l8 -1090q0 -54 30.5 -85.5t81.5 -31.5h97q17 0 24.5 -51.5t7.5 -87.5q0 -35 -7.5 -83t-24.5 -48h-117q-66 0 -124.5 37t-78.5 96q-20 -56 -83.5 -94.5t-133.5 -38.5h-178z" />
    <glyph glyph-name="uni0645.fina" unicode="&#x645;" horiz-adv-x="1454" arabic-form="final" 
d="M1251 283q0 -130 -79.5 -211t-196.5 -72l-496 47q-53 5 -85.5 -26.5t-31.5 -83.5l21 -541l-240 -23l4 619q1 114 58.5 189.5t154.5 92.5l19 5q-38 38 -47 116l16 334q11 113 92 188.5t191 75.5h377l243 -215v-495zM545 389q32 -87 129 -96l246 -23q51 -3 88 36.5t34 90.5
l-10 293l-106 92h-234q-48 0 -85 -33.5t-38 -80.5zM1358 0q-126 0 -198 111.5t-73 330.5h164q3 -172 127 -172h76q17 0 25 -53.5t8 -89.5q0 -37 -9 -82t-24 -45h-96z" />
    <glyph glyph-name="uni0645.init" unicode="&#x645;" horiz-adv-x="1298" arabic-form="initial" 
d="M-2 0v270h53q91 0 136 30.5t49 96.5l18 332q8 111 89.5 187.5t193.5 76.5h376l242 -215v-479q0 -141 -76.5 -220t-216.5 -79h-237q-188 0 -271 156q-47 -156 -260 -156h-96zM451 383q36 -65 68.5 -90t78.5 -25h225q51 0 87.5 38.5t35.5 90.5l-10 295l-107 90h-233
q-47 0 -82.5 -33.5t-40.5 -80.5z" />
    <glyph glyph-name="uni0645.medi" unicode="&#x645;" horiz-adv-x="1357" arabic-form="medial" 
d="M-2 0v270h53q91 0 136 30.5t49 96.5l18 332q8 111 89.5 187.5t193.5 76.5h376l242 -215v-479q0 -141 -76.5 -220t-216.5 -79h-237q-188 0 -271 156q-47 -156 -260 -156h-96zM451 383q36 -65 68.5 -90t78.5 -25h225q51 0 87.5 38.5t35.5 90.5l-10 295l-107 90h-233
q-47 0 -82.5 -33.5t-40.5 -80.5zM1262 0q-126 0 -198 111.5t-73 330.5h164q3 -172 127 -172h76q17 0 25 -53.5t8 -89.5q0 -37 -9 -82t-24 -45h-96z" />
    <glyph glyph-name="uni0646.fina" unicode="&#x646;" horiz-adv-x="1636" arabic-form="final" 
d="M143 637l238 8v-579q0 -117 73.5 -188t190.5 -71q165 0 291 27t201.5 85.5t72.5 141.5l-32 797l254 19l4 -861q1 -123 -56 -215.5t-164 -149.5t-251.5 -84.5t-327.5 -27.5q-132 0 -245 62t-181 172t-68 243v621zM1540 0q-126 0 -197.5 111.5t-72.5 330.5h164
q3 -172 127 -172h75q17 0 25 -53.5t8 -89.5q0 -37 -9 -82t-24 -45h-96zM633 786v230l256 10v-240h-256z" />
    <glyph glyph-name="uni0646.init" unicode="&#x646;" horiz-adv-x="851" arabic-form="initial" 
d="M-2 0v270h360q53 0 90.5 32.5t34.5 80.5l-28 502l254 16v-586q0 -136 -91 -225.5t-229 -89.5h-391zM453 1133v229l256 10v-239h-256z" />
    <glyph glyph-name="uni0646.medi" unicode="&#x646;" horiz-adv-x="899" arabic-form="medial" 
d="M760 0q-62 0 -122 38.5t-81 94.5q-22 -55 -84.5 -94t-128.5 -39h-346v270h324q52 0 85 32.5t33 82.5v418l228 6v-424q0 -50 31.5 -82.5t80.5 -32.5h119q11 0 18 -18.5t10 -46.5t4 -46.5t1 -33.5q0 -35 -9 -80t-24 -45h-139zM422 1049v229l256 10v-239h-256z" />
    <glyph glyph-name="uni0647.fina" unicode="&#x647;" horiz-adv-x="1308" arabic-form="final" 
d="M1217 0q-122 0 -194.5 55t-100.5 170q-1 -4 -3 -9.5t-5.5 -12.5t-4.5 -10q-48 -111 -178 -111h-285q-120 0 -210.5 92.5t-90.5 216.5v39v43.5t0.5 41t1.5 45t2.5 41t4.5 43.5t7 37t9 37t12 30q9 22 29.5 48t53.5 57.5t57.5 54t66.5 59t57 49.5l308 53l-17 107l230 32
l94 -764q14 -108 53 -141t156 -33h41q12 0 21 -48.5t9 -88.5q0 -39 -9 -86t-21 -47h-94zM707 328q95 0 116 73q11 40 15 66l-54 379l-237 -41q-13 -12 -57 -45.5t-70 -58t-37 -46.5q-19 -40 -25 -211q-3 -47 38.5 -82t99.5 -34h211z" />
    <glyph glyph-name="uni0647.init" unicode="&#x647;" horiz-adv-x="1683" arabic-form="initial" 
d="M229 270q-63 63 -63 152v34.5v37.5t0.5 34.5t1.5 37.5t2.5 34.5t4 37t6 34t9 35.5t11.5 32q12 33 36 65.5t74 80.5l-131 20l33 228l891 -175q143 -29 177 -43q29 -11 50 -28q65 -47 109 -193q8 -27 27 -88.5t31 -101.5t24.5 -93.5t15.5 -93.5q8 -126 -87 -221.5
t-228 -95.5h-410q-86 0 -147 37q-87 -37 -213 -37h-455v270h231zM938 274q16 -4 47 -4h205q52 0 89 32t40 77l-84 254q-26 77 -55 92q-32 22 -115 35l-125 20q35 -32 48 -77t13 -134q0 -119 -12.5 -180.5t-50.5 -114.5zM584 270q131 0 176 64q47 65 47 241q0 105 -26 156.5
t-91 61.5l-155 22q-59 -52 -86.5 -82.5t-40.5 -60.5q-27 -58 -27 -209q0 -70 56.5 -128t146.5 -65z" />
    <glyph glyph-name="uni0647.medi" unicode="&#x647;" horiz-adv-x="1288" arabic-form="medial" 
d="M1247 0q-154 0 -209 -176l-75 -242h-471q-136 0 -220 80t-84 205v133h-190v270h192l3 437q0 106 86.5 184t195.5 78h330l223 -197v-500q0 -109 -80 -190.5t-186 -81.5h-365l2 -88q3 -125 152 -125h268l58 193q84 290 370 290h47q27 0 27 -137q0 -133 -27 -133h-47z
M700 270q55 0 90.5 37.5t32.5 93.5l-12 271l-90 86h-182q-51 0 -87.5 -34t-37.5 -85l-13 -369h299z" />
    <glyph glyph-name="uni0648.fina" unicode="&#x648;" horiz-adv-x="1241" arabic-form="final" 
d="M1243 270q11 0 21 -41.5t10 -91.5q0 -51 -10 -94t-21 -43h-260v270h260zM487 -287q205 45 284 98.5t77 129.5l-4 51h-430q-126 0 -198.5 75t-72.5 207v471l254 213h353q132 0 217.5 -81.5t85.5 -212.5l-2 -727q0 -195 -143 -315.5t-445 -182.5l-219 -47l-58 266zM823 637
q-3 49 -38 80t-83 31h-237l-107 -91l-10 -288q-1 -60 33.5 -88.5t97.5 -28.5h361z" />
    <glyph glyph-name="uni0649.fina" unicode="&#x649;" horiz-adv-x="1599" arabic-form="final" 
d="M1602 270q16 0 23 -45.5t7 -91.5q0 -33 -7 -83t-23 -50h-113q10 -15 10 -53q0 -12 -4 -66q-15 -161 -152 -268q-100 -75 -264.5 -108t-441.5 -33q-100 0 -191 37.5t-157.5 101.5t-106 152t-39.5 184v610l238 10v-573q0 -113 72.5 -184.5t183.5 -71.5q221 0 339 15t202 54
q103 50 125 103q2 10 2 47q0 24 -12 33.5t-44 9.5h-573l33 270h893z" />
    <glyph glyph-name="uni064A.fina" unicode="&#x64a;" horiz-adv-x="1599" arabic-form="final" 
d="M1602 270q16 0 23 -45.5t7 -91.5q0 -33 -7 -83t-23 -50h-113q10 -15 10 -53q0 -12 -4 -66q-15 -161 -152 -268q-100 -75 -264.5 -108t-441.5 -33q-100 0 -191 37.5t-157.5 101.5t-106 152t-39.5 184v610l238 10v-573q0 -113 72.5 -184.5t183.5 -71.5q221 0 339 15t202 54
q103 50 125 103q2 10 2 47q0 24 -12 33.5t-44 9.5h-573l33 270h893zM846 -762l293 -174l-662 -16v190h369zM793 -944v182h307l53 -33v-141z" />
    <glyph glyph-name="uni064A.init" unicode="&#x64a;" horiz-adv-x="851" arabic-form="initial" 
d="M-2 0v270h360q53 0 90.5 32.5t34.5 80.5l-28 502l254 16v-586q0 -136 -91 -225.5t-229 -89.5h-391zM301 -270l293 -174l-662 -17v191h369zM248 -453v183h307l53 -33v-141z" />
    <glyph glyph-name="uni064A.medi" unicode="&#x64a;" horiz-adv-x="899" arabic-form="medial" 
d="M760 0q-62 0 -122 38.5t-81 94.5q-22 -55 -84.5 -94t-128.5 -39h-346v270h324q52 0 85 32.5t33 82.5v418l228 6v-424q0 -50 31.5 -82.5t80.5 -32.5h119q11 0 18 -18.5t10 -46.5t4 -46.5t1 -33.5q0 -35 -9 -80t-24 -45h-139zM360 -270l293 -174l-661 -17v191h368z
M307 -453v183h307l54 -33v-141z" />
    <glyph glyph-name=".notdef" horiz-adv-x="1411" 
d="M1090 1313q-105 45 -385 45q-278 0 -383 -45v-1110q105 -45 383 -45q280 0 385 45v1110zM299 0l-135 135v1387h971l112 -115v-1407h-948z" />
    <glyph glyph-name=".null" horiz-adv-x="2406" 
 />
    <glyph glyph-name="nonmarkingreturn" horiz-adv-x="682" 
 />
    <glyph glyph-name="space" unicode=" " horiz-adv-x="393" 
 />
    <glyph glyph-name="exclam" unicode="!" horiz-adv-x="608" 
d="M176 1458l252 19l-27 -1096l-174 -21zM143 -47v287l320 12v-299h-320z" />
    <glyph glyph-name="quotedbl" unicode="&#x22;" horiz-adv-x="813" 
d="M168 1612h194l-57 -533h-162zM475 1612h195l-58 -533h-161z" />
    <glyph glyph-name="quotedbl" unicode="&#x2033;" horiz-adv-x="813" 
d="M168 1612h194l-57 -533h-162zM475 1612h195l-58 -533h-161z" />
    <glyph glyph-name="numbersign" unicode="#" horiz-adv-x="1521" 
d="M340 389h-197v178h234l78 336h-240v178h279l88 402h178l-90 -402h323l90 402h179l-91 -402h207v-178h-243l-78 -336h248v-178h-285l-88 -389h-178l88 389h-326l-84 -389h-178zM881 567l75 336h-323l-78 -336h326z" />
    <glyph glyph-name="dollar" unicode="$" horiz-adv-x="1298" 
d="M709 -16q-249 0 -539 30v199q355 -25 442 -25q133 0 201.5 20.5t96.5 68t28 139.5q0 46 -2.5 74t-13 52.5t-25 38t-44.5 25t-65.5 18t-93.5 13.5l-323 39q-139 17 -191.5 105t-52.5 304q0 95 18.5 163.5t57.5 119t104.5 80.5t155 44.5t213.5 14.5q307 0 471 -34v-195
q-178 22 -424 22q-182 0 -246.5 -42.5t-64.5 -165.5q0 -56 5 -87.5t23.5 -57t53 -37t94.5 -17.5l301 -33q107 -12 169 -34t101 -71t52.5 -121t13.5 -192q0 -133 -25 -218.5t-86.5 -140.5t-158 -77t-246.5 -22zM596 1763h207v-301h-207v301zM596 33h207v-303h-207v303z" />
    <glyph glyph-name="percent" unicode="%" horiz-adv-x="1943" 
d="M430 680q-101 0 -160 12.5t-94 46.5q-40 41 -55 122t-15 229q0 147 15 228t55 122q35 34 94 46.5t160 12.5q104 0 164 -13t94 -48q40 -41 55 -121.5t15 -226.5q0 -142 -15 -221.5t-53 -120.5q-34 -38 -95 -53t-165 -15zM416 793q124 0 162 49q14 19 20 52.5t7 63t1 98.5
v31v44v42t-0.5 35.5t-1.5 34t-3 28t-5 26.5t-7.5 21t-10.5 19q-40 49 -162 49q-94 0 -129 -57q-8 -13 -13.5 -31t-8.5 -32t-4 -41.5t-1.5 -40.5t0 -49t0.5 -48v-42v-43.5t1 -37t3 -38t6 -31t10 -31.5t15 -24q30 -47 121 -47zM1331 1483h158l-961 -1483h-159zM1475 -4
q-112 0 -174.5 16t-94.5 60q-32 41 -43.5 118t-11.5 216q0 143 13 222.5t48 121.5q32 39 92.5 52t170.5 13q106 0 165.5 -12.5t92.5 -48.5q39 -41 53 -120t14 -228q0 -147 -14.5 -227.5t-54.5 -121.5q-35 -34 -95.5 -47.5t-160.5 -13.5zM1460 111q67 0 104.5 10.5t55.5 36.5
q5 7 9.5 15t7.5 19.5t5 20t3.5 25t2.5 26.5t1 31.5v32.5v38v40v49v46.5t-0.5 37.5t-2.5 36.5t-5 29t-8.5 27.5t-12.5 21q-37 49 -160 49q-93 0 -125 -49q-11 -15 -18 -34t-9.5 -48.5t-3 -46.5t0 -60.5t0.5 -57.5q0 -17 -0.5 -55.5t-0.5 -56.5t2 -44.5t8 -45.5t15 -34
q35 -59 131 -59z" />
    <glyph glyph-name="ampersand" unicode="&#x26;" horiz-adv-x="1538" 
d="M782 -16q-246 0 -388 40t-206.5 128t-64.5 239q0 165 61 246t211 115v8q-140 35 -200 117t-60 237q0 205 150.5 295t494.5 90q272 0 500 -43v-176q-222 31 -440 31q-237 0 -335.5 -54.5t-98.5 -183.5q0 -130 56.5 -179.5t205.5 -49.5h139v-187h-139q-163 0 -220 -49
t-57 -194q0 -48 11.5 -86t28.5 -63t48 -43t60 -27.5t74 -15t80 -6.5t89 -1q133 0 244 12v660h502v-187h-240v-632q-258 -41 -506 -41z" />
    <glyph glyph-name="quotesingle" unicode="'" horiz-adv-x="505" 
d="M168 1612h194l-57 -533h-162z" />
    <glyph glyph-name="quotesingle" unicode="&#x2032;" horiz-adv-x="505" 
d="M168 1612h194l-57 -533h-162z" />
    <glyph glyph-name="parenleft" unicode="(" horiz-adv-x="784" 
d="M479 -328q-145 161 -213.5 285.5t-95.5 275.5t-27 406q0 260 26.5 411.5t95.5 274.5t214 277h162q-153 -194 -207.5 -394.5t-54.5 -568.5q0 -261 21.5 -416.5t75.5 -277.5t165 -273h-162z" />
    <glyph glyph-name="parenright" unicode=")" horiz-adv-x="784" 
d="M305 -328h-162q112 151 165.5 273t75.5 277.5t22 416.5q0 368 -55 568.5t-208 394.5h162q145 -154 214 -277t95.5 -274.5t26.5 -411.5q0 -255 -27 -406t-95.5 -275.5t-213.5 -285.5z" />
    <glyph glyph-name="uni066D" unicode="*" horiz-adv-x="1349" 
d="M541 1192l149 51l184 -399l-206 -82zM143 719v160l439 45l12 -222zM471 188l-152 48l93 432l215 -58zM1075 338l-94 -127l-387 209l121 186zM1114 958l92 -129l-321 -299l-142 172z" />
    <glyph glyph-name="uni066D" unicode="&#x66d;" horiz-adv-x="1349" 
d="M541 1192l149 51l184 -399l-206 -82zM143 719v160l439 45l12 -222zM471 188l-152 48l93 432l215 -58zM1075 338l-94 -127l-387 209l121 186zM1114 958l92 -129l-321 -299l-142 172z" />
    <glyph glyph-name="plus" unicode="+" horiz-adv-x="1136" 
d="M479 453h-336v176h336v340h176v-340h338v-176h-338v-336h-176v336z" />
    <glyph glyph-name="comma" unicode="," horiz-adv-x="540" 
d="M117 -201q84 2 111.5 32.5t27.5 123.5v45h-106v242h278v-219q0 -67 -4.5 -113t-18.5 -82.5t-35 -57.5t-57.5 -35.5t-82 -19.5t-113.5 -6v90z" />
    <glyph glyph-name="hyphen" unicode="-" horiz-adv-x="1189" 
d="M1044 432h-901v182h901v-182z" />
    <glyph glyph-name="hyphen" unicode="&#x2010;" horiz-adv-x="1189" 
d="M1044 432h-901v182h901v-182z" />
    <glyph glyph-name="period" unicode="." horiz-adv-x="542" 
d="M143 0v229l256 11v-240h-256z" />
    <glyph glyph-name="slash" unicode="/" horiz-adv-x="1093" 
d="M741 1589h209l-600 -1644h-207z" />
    <glyph glyph-name="zero" unicode="0" horiz-adv-x="1462" 
d="M733 -16q-195 0 -301.5 20.5t-159.5 71.5q-43 41 -71.5 120t-39.5 185t-14.5 183t-3.5 177q0 105 3 180.5t14.5 185t41 188.5t74.5 118q56 47 163.5 66.5t293.5 19.5q217 0 321 -23.5t156 -86.5q60 -71 84.5 -219.5t24.5 -403.5v-99t-2 -104.5t-6.5 -119.5t-13.5 -108.5
t-22 -109t-33.5 -83t-47.5 -66.5q-56 -51 -161.5 -71.5t-299.5 -20.5zM723 186q103 0 151 9t78 32q21 16 36 49t24 83.5t14.5 91.5t7 107.5t2 94.5t0.5 88q0 6 0.5 68.5t0 83t-2 77t-5.5 84t-10.5 68t-17 65.5t-24.5 42q-55 65 -256 65q-158 0 -207 -41q-25 -20 -42.5 -69
t-26 -96.5t-12.5 -126.5t-4.5 -115t-0.5 -105q0 -67 0.5 -108t5.5 -118t13.5 -126.5t26.5 -98t44 -67.5q49 -37 205 -37z" />
    <glyph glyph-name="one" unicode="1" horiz-adv-x="811" 
d="M668 0h-281v1212l-289 -133v207l371 197h199v-1483z" />
    <glyph glyph-name="two" unicode="2" horiz-adv-x="1331" 
d="M143 182q0 165 22 264.5t71 159.5t139 99l373 157q96 41 125.5 84.5t29.5 143.5q0 86 -24 128t-85 59t-186 17q-174 0 -434 -26v190q214 41 504 41q282 0 395 -86t113 -301q0 -181 -52.5 -272.5t-191.5 -149.5l-381 -158q-84 -35 -114.5 -96.5t-30.5 -195.5v-31h770v-209
h-1043v182z" />
    <glyph glyph-name="three" unicode="3" horiz-adv-x="1302" 
d="M578 -16q-218 0 -455 39v190q317 -27 430 -27q190 0 257 47.5t67 180.5t-52.5 184t-189.5 51h-252v203h252q123 0 175 50.5t52 170.5q0 68 -13.5 109t-52.5 67t-100.5 35.5t-165.5 9.5q-209 0 -399 -26v190q199 41 449 41q309 0 438 -87t129 -298q0 -157 -60.5 -240.5
t-197.5 -115.5v-4q145 -28 207.5 -112t62.5 -251q0 -224 -130 -315.5t-451 -91.5z" />
    <glyph glyph-name="four" unicode="4" horiz-adv-x="1415" 
d="M98 516l518 967h304l-535 -951h475l80 455h182v-455h195v-206h-195v-326h-278v326h-746v190z" />
    <glyph glyph-name="five" unicode="5" horiz-adv-x="1284" 
d="M573 -16q-247 0 -456 36v193q290 -27 422 -27q104 0 166 11t100.5 42t52.5 79t14 128q0 65 -9.5 106t-30.5 71t-63.5 45t-99.5 21.5t-147 6.5q-168 0 -387 -26v813h912v-209h-670v-395q147 18 313 18q175 0 275 -41.5t144.5 -134t45.5 -254.5q1 -188 -53 -291
t-178.5 -147.5t-350.5 -44.5z" />
    <glyph glyph-name="six" unicode="6" horiz-adv-x="1439" 
d="M748 -16q-123 0 -210.5 10t-156.5 36t-112 66t-71.5 104.5t-40 146.5t-12.5 198l-2 252q0 356 97 506q64 105 186 150.5t338 45.5q189 0 453 -41v-190q-226 26 -398 26q-137 0 -213 -20.5t-114 -69.5q-38 -50 -51 -140t-13 -247v-24h6q42 51 143 78.5t240 27.5
q153 0 241.5 -18.5t141.5 -67.5q55 -49 80 -130t25 -206q0 -281 -99 -377q-57 -60 -167.5 -88t-290.5 -28zM748 184q95 0 150.5 10.5t88.5 41.5q28 26 39.5 71.5t11.5 128.5q0 95 -13 144t-46 75q-29 24 -84.5 33.5t-163.5 9.5q-230 0 -278 -63q-23 -29 -23 -156
q0 -99 11.5 -154t49.5 -88.5t95 -43t162 -9.5z" />
    <glyph glyph-name="seven" unicode="7" horiz-adv-x="1257" 
d="M1151 1483v-195l-555 -1288h-309l573 1274h-754v209h1045z" />
    <glyph glyph-name="eight" unicode="8" horiz-adv-x="1478" 
d="M739 -16q-324 0 -460 93t-136 314q0 170 59.5 247t213.5 114v8q-143 35 -201.5 115t-58.5 239q0 211 132.5 298t450.5 87t450 -87t132 -298q0 -161 -60 -243t-198 -113v-6q148 -34 209 -115.5t61 -245.5q0 -152 -58 -239.5t-186 -127.5t-350 -40zM739 834
q180 0 240.5 47.5t60.5 185.5q0 75 -12 119t-47.5 72t-91 37.5t-150.5 9.5q-177 0 -240 -49.5t-63 -188.5q0 -73 12.5 -116t48 -70.5t91.5 -37t151 -9.5zM739 178q189 0 252.5 47t63.5 191q0 63 -9 104t-28.5 70.5t-58 45t-90 22t-130.5 6.5q-187 3 -251 -47t-64 -201
q0 -138 66 -188t249 -50z" />
    <glyph glyph-name="nine" unicode="9" horiz-adv-x="1441" 
d="M692 1499q123 0 210.5 -10t156.5 -36t111.5 -66t71 -105t40 -147.5t12.5 -198.5l2 -250q3 -353 -96 -506q-64 -105 -186 -150.5t-338 -45.5q-178 0 -453 39v192q209 -27 400 -27q136 0 211.5 21t115.5 70q37 50 49.5 140.5t12.5 246.5v24h-4q-42 -51 -144 -78.5
t-241 -27.5q-151 0 -239.5 18t-143.5 66q-55 51 -80 131.5t-25 204.5q0 277 98 378q111 117 459 117zM694 1298q-98 0 -153 -10t-86 -41q-29 -26 -40.5 -71t-11.5 -129q0 -95 13.5 -145t46.5 -77q29 -23 84.5 -32t163.5 -9q107 0 180 16.5t96 47.5q14 17 18.5 49t4.5 107
q0 66 -5 109.5t-19 78t-35 54t-59 32t-83.5 16.5t-114.5 4z" />
    <glyph glyph-name="colon" unicode=":" horiz-adv-x="542" 
d="M399 733v-229l-256 -10v239h256zM143 -4v229l256 11v-240h-256z" />
    <glyph glyph-name="semicolon" unicode=";" horiz-adv-x="540" 
d="M150 1094h278v-244h-278v244zM117 -201q84 2 111.5 32.5t27.5 123.5v45h-106v242h278v-219q0 -67 -4.5 -113t-18.5 -82.5t-35 -57.5t-57.5 -35.5t-82 -19.5t-113.5 -6v90z" />
    <glyph glyph-name="less" unicode="&#x3c;" horiz-adv-x="1136" 
d="M143 440v176l850 336v-178l-626 -246l626 -245v-179z" />
    <glyph glyph-name="equal" unicode="=" horiz-adv-x="1189" 
d="M1044 483h-901v183h901v-183zM1044 104h-901v183h901v-183z" />
    <glyph glyph-name="greater" unicode="&#x3e;" horiz-adv-x="1136" 
d="M993 440l-850 -336v179l627 245l-627 246v178l850 -336v-176z" />
    <glyph glyph-name="question" unicode="?" horiz-adv-x="1052" 
d="M326 616q0 102 29.5 153t103.5 77l80 28q97 35 124 74.5t27 145.5q0 64 -9.5 101t-38.5 60.5t-76 31t-128 7.5q-181 0 -348 -22v190q208 37 414 37q256 0 357.5 -81.5t101.5 -287.5q0 -174 -50.5 -252.5t-197.5 -132.5l-88 -32q-46 -19 -60 -46.5t-14 -103.5v-96h-227
v149zM299 242h279v-242h-279v242z" />
    <glyph glyph-name="at" unicode="@" horiz-adv-x="1992" 
d="M893 150q-154 0 -220.5 62.5t-66.5 209.5q0 161 57 214.5t228 53.5q175 0 315 -4v64q0 49 -2.5 78t-13 54t-26 37t-48 20.5t-71.5 10.5t-103 2q-76 0 -276 -16v149q150 25 356 25q88 0 148 -6t108 -22.5t76 -41.5t46.5 -68t25 -97t6.5 -132v-485h165q49 0 73.5 8.5
t41.5 34.5q13 21 21 60t10.5 102.5t3 90.5t0.5 95q-2 296 -23.5 441t-85.5 213q-21 22 -52.5 39t-63.5 28t-80 19t-82.5 11.5t-91.5 5.5t-86.5 2t-88 -0.5t-77.5 -0.5q-283 0 -405 -15.5t-189 -66.5q-22 -16 -40.5 -40t-32 -50t-24 -64t-17 -69t-11 -78.5t-6.5 -78.5
t-3.5 -83t-1.5 -79t0.5 -79t0.5 -71q0 -107 0.5 -148t5 -143.5t14 -157t30 -118.5t50.5 -97q25 -28 61 -48.5t87.5 -32.5t91.5 -19.5t109 -10t102 -3t106 -0.5h39q310 0 449 8v-94q-102 -5 -414 -5h-112.5t-111.5 2.5t-120.5 7.5t-107.5 15t-107 24t-84.5 37t-71.5 52
q-26 28 -46 66.5t-33 82.5t-22 95t-13 104t-7 109t-2.5 109.5t0.5 107.5v57q0 18 0.5 80t0.5 88t2 85.5t4.5 90t8.5 83.5t13.5 84t19.5 73.5t27.5 70t36 55t45.5 46.5q41 31 105 53t124 33t152 16.5t147.5 6.5t151.5 1h110t107 -2t117 -6.5t103.5 -13.5t105.5 -22
t82.5 -33.5t72.5 -47.5q33 -31 58 -74.5t39.5 -104.5t23 -109.5t12 -130.5t4 -122t0.5 -127v-44q-2 -189 -16 -289t-47 -144q-28 -37 -78 -51t-137 -14h-358l-7 137h-6q-77 -151 -311 -151zM991 295q145 0 191 78q24 39 24 151v72h-233q-98 0 -128 -29.5t-30 -126.5
q0 -89 35 -117t141 -28z" />
    <glyph glyph-name="A" unicode="A" horiz-adv-x="1595" 
d="M602 1483h393l502 -1483h-280l-123 348h-598l-121 -348h-277zM1042 547l-243 706h-8l-246 -706h497z" />
    <glyph glyph-name="B" unicode="B" horiz-adv-x="1417" 
d="M870 1483q199 0 298.5 -90.5t99.5 -278.5q0 -156 -61.5 -237t-200.5 -117v-6q141 -27 206.5 -110.5t65.5 -256.5q0 -200 -100.5 -293.5t-319.5 -93.5h-715v1483h727zM760 836q121 0 174 52t53 171q0 129 -48 176t-179 47h-338v-446h338zM762 199q133 0 183 49.5t50 181.5
t-50.5 184t-182.5 52h-340v-467h340z" />
    <glyph glyph-name="C" unicode="C" horiz-adv-x="1239" 
d="M1112 1276q-194 18 -287 18q-85 0 -139.5 -4.5t-100 -19.5t-70.5 -37t-43.5 -64t-26 -93.5t-11.5 -131.5q-6 -105 -6 -203q0 -100 4 -198q3 -78 10.5 -131t26 -95t44.5 -65.5t71.5 -39.5t101.5 -21t139 -5q124 0 295 19v-195q-162 -26 -368 -26q-173 0 -279.5 21
t-176.5 79t-100.5 148.5t-41.5 240.5q-11 136 -11 268q0 146 11 285q7 98 23 168t47 124.5t73.5 88t109.5 55t148.5 29.5t196.5 8q198 0 360 -31v-192z" />
    <glyph glyph-name="D" unicode="D" horiz-adv-x="1431" 
d="M635 1483q220 0 345 -25.5t189 -83.5q22 -19 39 -45t29 -60.5t21 -65t14.5 -77t8.5 -77.5t4 -85l1.5 -81t0 -83.5t-0.5 -76.5q0 -275 -25.5 -416t-99.5 -207q-65 -56 -187.5 -78t-338.5 -22h-492v1483h492zM618 205q117 0 184.5 9t106.5 34q17 10 31 27t23.5 41.5
t16.5 48t11 57.5t6.5 59.5t3 64t1 61t0 61t-0.5 53.5q0 17 0.5 71.5t0 83.5t-1.5 80.5t-5.5 84t-11.5 70.5t-19 64t-28 42q-27 27 -87.5 41.5t-102.5 16t-112 1.5h-16h-192v-1071h192z" />
    <glyph glyph-name="E" unicode="E" horiz-adv-x="1271" 
d="M143 1483h994v-207h-711v-426h610v-201h-610v-444h711v-205h-994v1483z" />
    <glyph glyph-name="F" unicode="F" horiz-adv-x="1228" 
d="M143 1483h951v-207h-668v-473h588v-207h-588v-596h-283v1483z" />
    <glyph glyph-name="G" unicode="G" horiz-adv-x="1431" 
d="M786 -16q-186 0 -302.5 25.5t-182.5 80.5q-86 70 -121 219.5t-35 431.5q0 65 0.5 100.5t3.5 102t8.5 108.5t17 99.5t28 97t42 79t58.5 65.5q68 58 185.5 82t297.5 24q260 0 494 -43v-192q-205 30 -414 30q-132 0 -205 -10t-120 -39q-21 -13 -38.5 -32t-29.5 -46.5
t-21 -51t-14 -62t-8.5 -62t-4.5 -68t-1.5 -62.5t0 -64t0.5 -56q0 -11 -0.5 -53.5t0 -61.5t1.5 -60.5t3.5 -65.5t6.5 -60.5t11.5 -60.5t17 -51t23.5 -47t31 -35q42 -36 107.5 -49t171.5 -13q72 0 241 13v432h-276v186h526v-790q-240 -41 -502 -41z" />
    <glyph glyph-name="H" unicode="H" horiz-adv-x="1470" 
d="M143 1483h283v-623h616v623h285v-1483h-285v633h-616v-633h-283v1483z" />
    <glyph glyph-name="I" unicode="I" horiz-adv-x="571" 
d="M428 1483v-1483h-285v1483h285z" />
    <glyph glyph-name="J" unicode="J" horiz-adv-x="788" 
d="M59 195q129 2 183.5 13t83.5 50q17 24 24.5 67t8.5 83.5t1 146.5v928h285v-844q0 -334 -31 -451q-28 -97 -92 -133q-60 -32 -167.5 -43.5t-295.5 -11.5v195z" />
    <glyph glyph-name="K" unicode="K" horiz-adv-x="1490" 
d="M143 1483h283v-631h207l434 631h301l-504 -713l512 -770h-311l-432 651h-207v-651h-283v1483z" />
    <glyph glyph-name="L" unicode="L" horiz-adv-x="1165" 
d="M143 1483h283v-1268h625v-215h-908v1483z" />
    <glyph glyph-name="M" unicode="M" horiz-adv-x="1888" 
d="M143 1483h396l401 -1047l412 1047h393v-1483h-272l-3 1122l-434 -1122h-194l-434 1122v-1122h-265v1483z" />
    <glyph glyph-name="N" unicode="N" horiz-adv-x="1476" 
d="M143 1483h291l627 -973l4 973h268v-1483h-266l-653 1036l-2 -1036h-269v1483z" />
    <glyph glyph-name="O" unicode="O" horiz-adv-x="1531" 
d="M764 -16q-189 0 -309 21.5t-185 74.5q-26 21 -46.5 54.5t-33.5 66.5t-22.5 86t-14 88t-6.5 99t-2.5 92t0 94t0.5 81t-0.5 80.5t0 93.5t2.5 91.5t6.5 98.5t14 88t22.5 86t33.5 67t46.5 55q59 52 177 75t317 23q376 0 496 -96q23 -19 42 -45.5t31.5 -62.5t22.5 -68.5
t15.5 -81t9 -81.5t4.5 -87.5t1.5 -82t0 -82t-0.5 -71.5q0 -12 0.5 -77t0 -88.5t-2 -85t-5.5 -92t-11 -81.5t-17 -82.5t-25.5 -66.5t-35.5 -59q-58 -71 -183.5 -98t-342.5 -27zM764 186h31h35t34 0.5t36.5 2.5t33 5t34 8t29 12t27 16.5t20.5 21.5q14 18 25 45.5t17 65t10 70
t5 82t1.5 78t0 80t-0.5 68.5t1 70.5t0.5 85t-2.5 84t-7.5 88.5t-14.5 75t-24.5 66.5t-36.5 42.5q-9 7 -20 12.5t-21 9.5t-25.5 7t-25.5 5t-28.5 3.5t-27 2t-28.5 1t-26.5 0.5h-27.5h-24q-60 0 -90 -1t-82.5 -10.5t-79.5 -29.5q-21 -15 -36 -42t-24 -66t-14.5 -75t-7 -88.5
t-2 -84.5t0.5 -85.5t1 -70.5t-0.5 -71.5t-0.5 -86t2 -85t7.5 -89t15 -75t25.5 -67t37 -42.5q35 -25 88 -32t160 -7z" />
    <glyph glyph-name="P" unicode="P" horiz-adv-x="1392" 
d="M831 1483q129 0 209.5 -23.5t130 -82t68 -146t18.5 -227.5q0 -136 -19 -223t-67.5 -147t-130 -85t-209.5 -25h-405v-524h-283v1483h688zM729 725q62 0 102 7.5t69.5 24.5t44.5 50.5t21.5 79.5t6.5 117q0 89 -9.5 140.5t-38.5 84t-73.5 43t-122.5 10.5h-303v-557h303z" />
    <glyph glyph-name="Q" unicode="Q" horiz-adv-x="1576" 
d="M764 -16q-189 0 -309 21.5t-185 74.5q-26 21 -46.5 54.5t-33.5 66.5t-22.5 86t-14 88t-6.5 99t-2.5 92t0 94t0.5 81t-0.5 80.5t0 93.5t2.5 91.5t6.5 98.5t14 88t22.5 86t33.5 67t46.5 55q59 52 177 75t317 23q376 0 496 -96q23 -19 42 -45.5t31.5 -62.5t22.5 -68.5
t15.5 -81t9 -81.5t4.5 -87.5t1.5 -82t0 -82t-0.5 -71.5q0 -12 0.5 -77t0 -88.5t-2 -85t-5.5 -92t-11 -81.5t-17 -82.5t-25.5 -66.5t-35.5 -59q-58 -71 -183.5 -98t-342.5 -27zM764 186h31h35t34 0.5t36.5 2.5t33 5t34 8t29 12t27 16.5t20.5 21.5q14 18 25 45.5t17 65t10 70
t5 82t1.5 78t0 80t-0.5 68.5t1 70.5t0.5 85t-2.5 84t-7.5 88.5t-14.5 75t-24.5 66.5t-36.5 42.5q-9 7 -20 12.5t-21 9.5t-25.5 7t-25.5 5t-28.5 3.5t-27 2t-28.5 1t-26.5 0.5h-27.5h-24q-60 0 -90 -1t-82.5 -10.5t-79.5 -29.5q-21 -15 -36 -42t-24 -66t-14.5 -75t-7 -88.5
t-2 -84.5t0.5 -85.5t1 -70.5t-0.5 -71.5t-0.5 -86t2 -85t7.5 -89t15 -75t25.5 -67t37 -42.5q35 -25 88 -32t160 -7zM655 455h283l504 -695l-2 -10h-289z" />
    <glyph glyph-name="R" unicode="R" horiz-adv-x="1429" 
d="M862 1483q125 0 204.5 -23t127 -79t66 -139.5t18.5 -215.5q0 -180 -41 -271t-139 -134l-33 -15l231 -606h-290l-203 571q-28 -4 -68 -4h-309v-567h-283v1483h719zM748 760q101 0 151.5 21t72 75.5t21.5 163.5q0 85 -8 132t-34.5 78.5t-70 41.5t-120.5 10h-334v-522h322z
" />
    <glyph glyph-name="S" unicode="S" horiz-adv-x="1378" 
d="M723 -16q-247 0 -537 30v197q355 -25 441 -25q132 0 200.5 20.5t96.5 67.5t28 138q0 46 -2.5 74.5t-13 53.5t-25 38t-44.5 24.5t-65 17.5t-93 13l-324 39q-138 17 -190 105t-52 302q0 232 122.5 326t424.5 94q300 0 469 -35v-194q-194 24 -424 24q-180 0 -243.5 -44
t-63.5 -167q0 -56 5 -86t23 -55t52 -36t94 -17l299 -35q85 -10 140 -26.5t95 -44t60.5 -75t29.5 -110t9 -158.5q0 -133 -25 -218.5t-86 -139.5t-156.5 -76t-244.5 -22z" />
    <glyph glyph-name="T" unicode="T" horiz-adv-x="1382" 
d="M549 1266h-432v217h1149v-217h-432v-1266h-285v1266z" />
    <glyph glyph-name="U" unicode="U" horiz-adv-x="1445" 
d="M428 582q0 -86 4.5 -143t17.5 -103t32.5 -72t54.5 -43t78 -22.5t108 -5.5q96 0 150 14t88.5 59t45.5 117t11 199v901h285v-826q0 -153 -7.5 -252t-33 -179.5t-62.5 -123.5t-106.5 -71.5t-154 -37.5t-216.5 -9q-131 0 -216 9t-154 38.5t-106.5 72.5t-62.5 123.5t-33 179
t-8 250.5v826h285v-901z" />
    <glyph glyph-name="V" unicode="V" horiz-adv-x="1533" 
d="M98 1483h289l375 -1184h12l377 1184h285l-484 -1483h-372z" />
    <glyph glyph-name="W" unicode="W" horiz-adv-x="2191" 
d="M98 1483h283l250 -1174h12l303 1174h291l307 -1174h10l261 1174h278l-350 -1483h-354l-293 1069l-13 -2l-292 -1067h-357z" />
    <glyph glyph-name="X" unicode="X" horiz-adv-x="1574" 
d="M614 745l-489 738h315l346 -520h11l352 520h305l-493 -731l499 -752h-317l-355 526h-14l-354 -526h-305z" />
    <glyph glyph-name="Y" unicode="Y" horiz-adv-x="1531" 
d="M625 539l-510 944h291l360 -688h6l361 688h284l-510 -944v-539h-282v539z" />
    <glyph glyph-name="Z" unicode="Z" horiz-adv-x="1372" 
d="M135 203l754 1073h-731v207h1071v-199l-758 -1079h766v-205h-1102v203z" />
    <glyph glyph-name="bracketleft" unicode="[" horiz-adv-x="774" 
d="M143 1602h488v-150l-260 -10v-1610l260 -10v-150h-488v1930z" />
    <glyph glyph-name="backslash" unicode="\" horiz-adv-x="1093" 
d="M352 1589l598 -1644h-207l-600 1644h209z" />
    <glyph glyph-name="bracketright" unicode="]" horiz-adv-x="774" 
d="M631 1602v-1930h-488v150l260 10v1610l-260 10v150h488z" />
    <glyph glyph-name="underscore" unicode="_" horiz-adv-x="1443" 
d="M1300 -268h-1157v176h1157v-176z" />
    <glyph glyph-name="a" unicode="a" horiz-adv-x="1249" 
d="M479 -16q-185 0 -260.5 72t-75.5 247q0 192 68 256.5t266 61.5q322 -11 373 -11v76q0 54 -4 89t-17.5 64t-34 44.5t-57.5 25.5t-83 13.5t-117 3.5q-184 0 -326 -17v170q183 31 416 31q101 0 170.5 -7t125.5 -26.5t89 -49.5t55.5 -80t30.5 -113.5t8 -155.5v-678h-248
l-8 150h-6q-43 -88 -129.5 -127t-235.5 -39zM596 152q148 0 201 56.5t53 215.5v84h-275q-121 0 -156.5 -34t-35.5 -148q0 -106 42 -140t171 -34z" />
    <glyph glyph-name="b" unicode="b" horiz-adv-x="1275" 
d="M143 1602h260l9 -644h4q73 152 348 152q90 0 152 -17.5t107 -55.5t70 -105.5t36.5 -160t11.5 -226.5q0 -219 -35.5 -339t-115 -171t-224.5 -51q-294 0 -363 168h-4l-8 -152h-248v1602zM641 182q79 0 123.5 13.5t72.5 56t37 109t9 184.5q0 116 -9.5 183t-38 109.5t-73 57
t-121.5 14.5q-62 0 -102 -9.5t-69.5 -31.5t-44.5 -65.5t-21.5 -103.5t-6.5 -154q0 -210 52 -286.5t192 -76.5z" />
    <glyph glyph-name="c" unicode="c" horiz-adv-x="1048" 
d="M608 -16q-95 0 -163 10t-121.5 36.5t-86.5 66.5t-55 104t-30.5 146t-8.5 196q0 133 14.5 226t46 160.5t86 106.5t130 56.5t182.5 17.5q168 0 313 -29v-172q-133 17 -237 17q-112 0 -168.5 -32t-80 -111.5t-23.5 -235.5q0 -115 12 -186t44.5 -116t83.5 -62t134 -17
q141 0 244 20v-172q-144 -30 -316 -30z" />
    <glyph glyph-name="d" unicode="d" horiz-adv-x="1275" 
d="M883 0l-9 152h-6q-69 -168 -360 -168q-145 0 -224 51t-114 171t-35 339q0 134 11.5 226.5t36.5 160t70 105.5t107 55.5t152 17.5q135 0 224 -39t124 -113h4l8 644h261v-1602h-250zM633 182q140 0 192 76.5t52 286.5q0 94 -6.5 154t-21 103.5t-44 65.5t-69.5 31.5
t-103 9.5q-61 0 -101 -10t-68.5 -32t-43 -66t-21 -103.5t-6.5 -152.5q0 -78 3.5 -131.5t14.5 -96t27 -67t44.5 -41t63.5 -22t87 -5.5z" />
    <glyph glyph-name="e" unicode="e" horiz-adv-x="1255" 
d="M143 543q0 124 7.5 207.5t30 150t55.5 104.5t92.5 63t133 33.5t183.5 8.5q99 0 165.5 -6.5t120 -26t84 -48.5t52 -81.5t30 -118t11.5 -163.5q2 -51 2 -168h-713v-21q1 -71 5.5 -116t18.5 -82.5t35.5 -57t61 -33.5t88.5 -18t125 -4q157 0 336 20v-170q-138 -32 -399 -32
q-113 0 -190 9t-138.5 33.5t-97 62.5t-59 103.5t-32 147.5t-8.5 203zM870 608q0 82 -6 135q-12 127 -53 164t-168 37q-56 0 -92.5 -4t-66 -17.5t-45 -33t-26.5 -57t-14 -83t-4 -116.5v-25h475z" />
    <glyph glyph-name="f" unicode="f" horiz-adv-x="1009" 
d="M133 1094h209v24q0 15 -0.5 60.5t0 69t2 65.5t7 68t14 57.5t23 54t34.5 37.5q51 39 149.5 54t302.5 15v-163q-118 0 -172.5 -13t-75 -46.5t-20.5 -104.5v-178h268v-185h-268v-909h-264v909h-209v185z" />
    <glyph glyph-name="g" unicode="g" horiz-adv-x="1290" 
d="M516 1110q289 0 356 -170h9l12 154h248q6 -341 6 -539q0 -70 -2 -213t-2 -215q0 -193 -26.5 -303t-88.5 -170q-58 -55 -156 -80t-260 -25q-233 0 -399 25v168q238 -8 328 -8q122 0 185 13t97 44q30 30 43 79.5t13 137.5v154h-7q-40 -85 -121.5 -122.5t-230.5 -37.5
q-214 0 -289 96q-88 113 -88 461t86 455q72 96 287 96zM645 909q-86 0 -132 -11.5t-69 -41.5q-27 -35 -35 -103.5t-8 -205.5q0 -122 8.5 -189.5t34.5 -101.5q23 -30 68.5 -41.5t128.5 -11.5q53 0 88.5 5.5t64.5 20.5t45.5 38.5t27.5 64.5t14.5 93t3.5 128q0 214 -48.5 286
t-191.5 70z" />
    <glyph glyph-name="h" unicode="h" horiz-adv-x="1253" 
d="M143 1602h260l5 -654h4q35 77 127.5 119.5t224.5 42.5q74 0 127.5 -9t92.5 -31t63 -53t38.5 -81t19.5 -107.5t5 -140.5v-688h-260v627q0 76 -5.5 122t-17.5 79.5t-38 49.5t-60.5 22.5t-91.5 6.5q-73 0 -116 -13.5t-71 -52.5t-37.5 -101.5t-9.5 -168.5v-571h-260v1602z
" />
    <glyph glyph-name="i" unicode="i" horiz-adv-x="561" 
d="M416 1094v-1094h-266v1094h266zM143 1602h273v-216h-273v216z" />
    <glyph glyph-name="j" unicode="j" horiz-adv-x="696" 
d="M96 -266q115 0 152 25t37 102v1233h264v-1170q0 -113 -18 -179t-71 -108t-137 -56.5t-227 -14.5v168zM281 1602h272v-216h-272v216z" />
    <glyph glyph-name="k" unicode="k" horiz-adv-x="1263" 
d="M143 1602h260v-961h113l342 453h275l-402 -525l410 -569h-289l-334 457h-115v-457h-260v1602z" />
    <glyph glyph-name="l" unicode="l" horiz-adv-x="552" 
d="M408 1602v-1602h-265v1602h265z" />
    <glyph glyph-name="m" unicode="m" horiz-adv-x="1863" 
d="M389 1094l12 -156h11q36 79 124.5 125.5t206.5 46.5q134 0 208 -40.5t100 -129.5h12q38 82 124 126t206 44q131 0 200 -37.5t98 -126.5t29 -258v-688h-260v627q0 72 -5 118t-16.5 80t-35 50.5t-55 24t-80.5 7.5q-83 0 -125 -27t-60 -94t-18 -200v-586h-258v627
q0 167 -39.5 223.5t-153.5 56.5q-139 0 -188 -100q-23 -47 -23 -225v-582h-260v1094h246z" />
    <glyph glyph-name="n" unicode="n" horiz-adv-x="1253" 
d="M389 1094l12 -156h11q44 85 138 128.5t212 43.5q107 0 171.5 -18.5t105.5 -68t56 -128t15 -207.5v-688h-260v627q0 64 -2.5 105t-12 74.5t-23 51.5t-39 30t-56.5 15.5t-80 3.5q-153 0 -205 -82q-17 -26 -23 -79t-6 -175v-571h-260v1094h246z" />
    <glyph glyph-name="o" unicode="o" horiz-adv-x="1294" 
d="M647 -16h-14q-54 0 -83 0.5t-79.5 4t-82.5 11.5t-69.5 21t-64.5 35.5t-45 52.5q-37 62 -51.5 166t-14.5 270q0 175 15.5 280t56.5 164q45 67 145 94t287 27t286 -27t144 -94q42 -59 58 -164t16 -280q0 -189 -19 -295.5t-69 -165.5q-52 -57 -148 -78.5t-268 -21.5z
M641 166q75 0 121.5 13t73.5 46q31 38 43 112.5t12 207.5q0 153 -6 219t-29 102t-68.5 48t-154.5 12q-83 0 -129 -14t-68 -46q-21 -32 -28 -93t-7 -171q0 -7 -0.5 -69t0 -92t3.5 -81t11 -83.5t21 -51.5q26 -36 73.5 -47.5t131.5 -11.5z" />
    <glyph glyph-name="p" unicode="p" horiz-adv-x="1275" 
d="M391 1085l8 -153h9q36 89 125 129.5t233 40.5q145 0 224.5 -51.5t115 -171.5t35.5 -338q0 -169 -17 -274t-62 -172.5t-115 -93.5t-183 -26q-280 0 -348 152h-4l-9 -563h-260v1521h248zM641 901q-95 0 -146.5 -32t-74.5 -109t-23 -221q0 -78 4 -132t15 -96.5t28 -67.5
t45.5 -41t64 -22t87.5 -6q61 0 101 10t69 33t44 66.5t21.5 103.5t6.5 152q0 95 -6.5 154.5t-20.5 103t-43.5 65t-69 30.5t-102.5 9z" />
    <glyph glyph-name="q" unicode="q" horiz-adv-x="1275" 
d="M1133 -436h-259l-8 563h-4q-71 -152 -348 -152q-113 0 -183 26t-115 93.5t-62 172.5t-17 274q0 219 35 338.5t114.5 171t223.5 51.5q146 0 235 -40.5t125 -129.5h7l8 153h248v-1521zM635 901q-63 0 -102 -9t-68 -30.5t-43 -65t-20.5 -103t-6.5 -154.5q0 -92 6.5 -151.5
t21 -103.5t43 -67t68.5 -33t101 -10q52 0 88 6t64.5 22t45 41t27.5 68t15 96.5t4 131.5q0 144 -23 221t-74.5 109t-146.5 32z" />
    <glyph glyph-name="r" unicode="r" horiz-adv-x="870" 
d="M391 1094l8 -211h4q43 108 136 167t225 60v-229q-239 -3 -318 -146q-43 -73 -43 -280v-455h-260v1094h248z" />
    <glyph glyph-name="s" unicode="s" horiz-adv-x="1163" 
d="M600 -16q-244 0 -422 26v168q218 -20 342 -20q159 0 208.5 29t49.5 122q0 78 -27 105.5t-116 36.5l-289 30q-117 14 -160 79t-43 231q0 182 96 250.5t349 68.5q225 0 370 -27v-168q-179 19 -315 19q-84 0 -133.5 -6t-78.5 -24t-38.5 -44t-9.5 -72q-2 -72 24.5 -97
t114.5 -34l264 -30q140 -15 187 -78t47 -236q0 -187 -91 -258t-329 -71z" />
    <glyph glyph-name="t" unicode="t" horiz-adv-x="952" 
d="M117 1094h207v323h266v-323h246v-185h-246v-909h-266v909h-207v185z" />
    <glyph glyph-name="u" unicode="u" horiz-adv-x="1253" 
d="M866 12l-14 156h-10q-43 -85 -137 -128.5t-213 -43.5q-107 0 -171.5 18.5t-106 68t-56.5 128t-15 207.5v688h260v-625q0 -64 3 -106t12.5 -75.5t23 -51.5t39.5 -30t57 -15.5t80 -3.5q151 0 203 84q17 26 23 78.5t6 173.5v571h260v-1094h-244z" />
    <glyph glyph-name="v" unicode="v" horiz-adv-x="1280" 
d="M104 1094h263l270 -863h10l271 863h258l-363 -1094h-346z" />
    <glyph glyph-name="w" unicode="w" horiz-adv-x="1890" 
d="M104 1094h256l211 -846l13 -2l245 848h238l246 -846h10l215 846h248l-299 -1094h-318l-217 717h-10l-223 -717h-320z" />
    <glyph glyph-name="x" unicode="x" horiz-adv-x="1343" 
d="M508 557l-371 537h285l256 -373h6l254 373h268l-370 -537l385 -557h-283l-270 393h-11l-266 -393h-268z" />
    <glyph glyph-name="y" unicode="y" horiz-adv-x="1253" 
d="M584 -451q-227 0 -377 25v168q222 -8 307 -8q131 0 197.5 19.5t99.5 66.5q23 30 31 76t8 133v141h-6q-80 -170 -352 -170q-106 0 -171 19t-106 69t-56.5 129t-15.5 207v670h260v-609q0 -92 3.5 -132t24 -82t64.5 -55t123 -13q74 0 116.5 13t69.5 52t36.5 102t9.5 171v553
h260v-973q0 -117 -9.5 -200.5t-34 -149.5t-62 -107t-98 -67.5t-137.5 -37t-185 -10.5z" />
    <glyph glyph-name="z" unicode="z" horiz-adv-x="1181" 
d="M135 178l586 731h-559v185h880v-179l-583 -733h588v-182h-912v178z" />
    <glyph glyph-name="braceleft" unicode="{" horiz-adv-x="901" 
d="M143 688q102 15 151.5 78.5t51.5 179.5l2 268q3 240 252 388h158q-89 -80 -137 -185t-48 -223v-240q0 -262 -239 -313v-8q239 -49 239 -314v-239q0 -117 48 -223t137 -185h-158q-121 74 -186 173.5t-66 215.5l-2 269q-3 227 -203 256v102z" />
    <glyph glyph-name="bar" unicode="|" horiz-adv-x="514" 
d="M369 1602v-1878h-226v1878h226z" />
    <glyph glyph-name="braceright" unicode="}" horiz-adv-x="901" 
d="M758 688v-102q-200 -29 -203 -256l-2 -269q-1 -116 -66 -215.5t-186 -173.5h-158q89 79 137 185t48 223v239q0 265 239 314v8q-239 51 -239 313v240q0 118 -48 223t-137 185h158q249 -148 252 -388l2 -268q2 -116 51.5 -179.5t151.5 -78.5z" />
    <glyph glyph-name="uni00A0" unicode="&#xa0;" horiz-adv-x="552" 
 />
    <glyph glyph-name="cent" unicode="&#xa2;" horiz-adv-x="1243" 
d="M717 199q-95 0 -163 10t-121.5 36t-86.5 65.5t-55 104t-30.5 146t-8.5 195.5v39q0 166 22 271.5t77 172.5t141 94t221 27q171 0 311 -31v-170q-133 17 -238 17q-112 0 -168 -32t-79 -110.5t-23 -234.5v-43q0 -151 24.5 -229.5t82.5 -111t168 -32.5q133 0 241 18v-170
q-154 -32 -315 -32zM606 1587h209v-291h-209v291zM606 264h209v-291h-209v291z" />
    <glyph glyph-name="sterling" unicode="&#xa3;" horiz-adv-x="1396" 
d="M303 1014q0 100 12.5 173.5t42.5 129.5t74 91.5t113 58t153.5 31.5t200.5 9q210 0 354 -30v-195q-166 18 -280 18q-77 0 -130 -4.5t-98.5 -16.5t-72.5 -32t-46 -53t-26.5 -77t-7.5 -107v-791h665v-219h-954v1014zM129 993h1049v-164h-1049v164zM129 639h1049v-164h-1049
v164z" />
    <glyph glyph-name="currency" unicode="&#xa4;" horiz-adv-x="1560" 
d="M782 160q-170 0 -282 37l-33 8l-217 -217l-123 123l203 202l-11 29q-49 131 -49 399q0 126 9 219t38 175l11 30l-203 201l127 129l215 -217l27 8q125 37 288 37q185 0 285 -39l31 -10l217 219l125 -123l-203 -203l10 -26q47 -107 47 -400q0 -295 -47 -399l-10 -25
l203 -204l-127 -127l-217 219l-31 -8q-133 -37 -283 -37zM782 342q92 0 137.5 12.5t67.5 44.5q49 67 49 340q0 268 -45 338q-23 36 -70 50t-143 14q-89 0 -135.5 -14.5t-69.5 -49.5q-45 -70 -45 -336q0 -268 45 -338q22 -34 68.5 -47.5t140.5 -13.5z" />
    <glyph glyph-name="yen" unicode="&#xa5;" horiz-adv-x="1566" 
d="M641 528h-430v164h356l-94 176h-262v164h174l-242 459h289l227 -463h259l227 463h282l-243 -459h176v-164h-262l-94 -176h356v-164h-432v-528h-287v528zM854 860h-133l67 -119z" />
    <glyph glyph-name="brokenbar" unicode="&#xa6;" horiz-adv-x="514" 
d="M143 1602h226v-705l-226 -2v707zM143 426l226 4v-706h-226v702z" />
    <glyph glyph-name="copyright" unicode="&#xa9;" horiz-adv-x="1531" 
d="M852 338q-108 0 -167.5 14t-88.5 49q-74 87 -74 340q0 254 72 338q32 35 92 50.5t166 15.5q121 0 190 -17v-106q-54 10 -151 10q-76 0 -115.5 -10.5t-58.5 -36.5q-41 -56 -41 -244q0 -186 41 -243q19 -28 55.5 -37.5t118.5 -9.5q52 0 158 8v-107q-83 -14 -197 -14z
M170 741q0 73 1 116t4 122.5t12 134t23.5 117.5t39 108t57.5 72q107 88 498 88q215 0 326.5 -19t171.5 -69q40 -32 68 -96t41.5 -126t20.5 -157.5t8 -148.5t1 -142q0 -87 -1.5 -146t-9 -151.5t-21 -155.5t-41 -124.5t-66.5 -91.5q-107 -88 -498 -88q-219 0 -335 22t-173 78
q-36 33 -61 96t-37.5 125.5t-19.5 153.5t-8 145.5t-1 136.5zM266 741q0 -77 1 -124t6.5 -133.5t16.5 -142.5t34 -113.5t55 -84.5q20 -17 45 -30t61.5 -21t60 -13t74 -7t67.5 -2.5t76 0t66 0.5q180 0 269 15t133 58q33 28 56 86t33.5 111.5t16 144t6 131t0.5 125.5v21
q0 66 -0.5 104t-3.5 109t-10.5 118.5t-19.5 102t-33 92.5t-49 60q-43 36 -150.5 50.5t-298.5 14.5q-163 0 -253 -13t-138 -52q-23 -17 -41 -43.5t-30.5 -67t-21.5 -72.5t-14.5 -88.5t-8.5 -85.5t-4 -93t-1 -80v-77z" />
    <glyph glyph-name="guillemotleft" unicode="&#xab;" horiz-adv-x="1120" 
d="M539 653l278 441h160l-232 -441l232 -438h-160zM143 653l281 441h160l-234 -441l234 -438h-160z" />
    <glyph glyph-name="logicalnot" unicode="&#xac;" horiz-adv-x="1134" 
d="M811 455h-668v178h848v-516h-180v338z" />
    <glyph glyph-name="uni00AD" unicode="&#xad;" horiz-adv-x="1189" 
d="M1044 432h-901v182h901v-182z" />
    <glyph glyph-name="registered" unicode="&#xae;" horiz-adv-x="1531" 
d="M887 1135q71 0 115 -13t69 -44t34 -74.5t9 -114.5q0 -89 -21 -139.5t-67 -73.5l-22 -10l120 -322h-153l-103 303h-211v-303h-145v791h375zM838 752q76 0 101.5 27t25.5 108q0 83 -23.5 110t-99.5 27h-185v-272h181zM170 741q0 73 1 116t4 122.5t12 134t23.5 117.5t39 108
t57.5 72q107 88 498 88q215 0 326.5 -19t171.5 -69q40 -32 68 -96t41.5 -126t20.5 -157.5t8 -148.5t1 -142q0 -87 -1.5 -146t-9 -151.5t-21 -155.5t-41 -124.5t-66.5 -91.5q-107 -88 -498 -88q-219 0 -335 22t-173 78q-36 33 -61 96t-37.5 125.5t-19.5 153.5t-8 145.5
t-1 136.5zM266 741q0 -77 1 -124t6.5 -133.5t16.5 -142.5t34 -113.5t55 -84.5q20 -17 45 -30t61.5 -21t60 -13t74 -7t67.5 -2.5t76 0t66 0.5q180 0 269 15t133 58q33 28 56 86t33.5 111.5t16 144t6 131t0.5 125.5v21q0 66 -0.5 104t-3.5 109t-10.5 118.5t-19.5 102t-33 92.5
t-49 60q-43 36 -150.5 50.5t-298.5 14.5q-163 0 -253 -13t-138 -52q-23 -17 -41 -43.5t-30.5 -67t-21.5 -72.5t-14.5 -88.5t-8.5 -85.5t-4 -93t-1 -80v-77z" />
    <glyph glyph-name="degree" unicode="&#xb0;" horiz-adv-x="876" 
d="M440 868q-109 0 -166.5 14t-85.5 48q-27 31 -36 86t-9 166q0 110 9 167t36 89q29 33 87 47t165 14q105 0 162.5 -14.5t85.5 -46.5q28 -31 36.5 -86.5t8.5 -169.5t-10.5 -171.5t-40.5 -88.5q-51 -54 -242 -54zM440 971q85 0 113 26q20 21 24.5 57t4.5 128q0 91 -5 126.5
t-22 55.5q-13 18 -38 24.5t-77 6.5q-91 0 -123 -35q-7 -8 -12 -22t-7.5 -26.5t-3.5 -34t-1 -31.5v-34v-28v-19v-21.5v-21.5t1 -23t2 -21t3 -22t4.5 -19t6 -17.5t7.5 -13.5q16 -22 44.5 -28.5t78.5 -6.5z" />
    <glyph glyph-name="plusminus" unicode="&#xb1;" horiz-adv-x="1193" 
d="M1049 -162h-902v182h902v-182zM510 604h-336v176h336v340h176v-340h338v-176h-338v-336h-176v336z" />
    <glyph glyph-name="paragraph" unicode="&#xb6;" horiz-adv-x="1320" 
d="M143 981q0 90 2.5 149.5t12 115.5t22.5 89.5t40 62.5t58.5 43.5t83.5 25t109.5 13.5t142.5 3h224v-1798h-164v800q-94 0 -158.5 3t-122.5 13.5t-94 25.5t-66.5 44t-46 62t-26.5 87.5t-14 114t-3 146.5zM1014 1483h164v-1798h-164v1798z" />
    <glyph glyph-name="periodcentered" unicode="&#xb7;" horiz-adv-x="542" 
d="M143 774v230l256 10v-240h-256z" />
    <glyph glyph-name="guillemotright" unicode="&#xbb;" horiz-adv-x="1120" 
d="M582 653l-279 -438h-160l232 438l-232 441h160zM977 653l-281 -438h-159l233 438l-233 441h159z" />
    <glyph glyph-name="multiply" unicode="&#xd7;" horiz-adv-x="1071" 
d="M158 287l252 254l-254 258l127 127l256 -256l254 254l122 -123l-253 -256l253 -258l-124 -125l-256 254l-252 -254z" />
    <glyph glyph-name="divide" unicode="&#xf7;" horiz-adv-x="1187" 
d="M143 614h901v-182h-901v182zM494 1042h190v-172h-190v172zM494 215h190v-174h-190v174z" />
    <glyph glyph-name="uni0609" unicode="&#x609;" horiz-adv-x="2019" 
d="M1659 418q101 0 159 -63.5t58 -166.5q0 -101 -60 -160t-161 -59q-98 0 -155.5 57.5t-57.5 155.5q0 106 57 171t160 65zM1657 307q-49 0 -78 -33t-29 -86q0 -44 21 -82q42 -28 86 -28q110 0 110 110q0 52 -24 93q-33 26 -86 26zM1085 418q101 0 159.5 -63.5t58.5 -166.5
q0 -101 -60 -160t-162 -59q-98 0 -155.5 57.5t-57.5 155.5q0 106 57 171t160 65zM1083 307q-49 0 -77.5 -33t-28.5 -86q0 -46 20 -82q42 -28 86 -28q111 0 111 110q0 51 -25 93q-33 26 -86 26zM1249 1257l-899 -1368l-164 113l897 1370zM360 1286q103 0 160.5 -62t57.5 -165
q0 -102 -60 -161.5t-162 -59.5q-98 0 -155.5 57.5t-57.5 155.5q0 108 56.5 171.5t160.5 63.5zM360 1176q-49 0 -78.5 -32t-29.5 -85q0 -48 20 -84q40 -27 86 -27q113 0 113 111q0 44 -27 90q-30 27 -84 27z" />
    <glyph glyph-name="uni060A" unicode="&#x60a;" horiz-adv-x="2582" 
d="M1659 418q101 0 159 -63.5t58 -166.5q0 -101 -60 -160t-161 -59q-98 0 -155.5 57.5t-57.5 155.5q0 106 57 171t160 65zM1657 307q-49 0 -78 -33t-29 -86q0 -44 21 -82q42 -28 86 -28q110 0 110 110q0 52 -24 93q-33 26 -86 26zM2224 418q100 0 157.5 -63.5t57.5 -166.5
q0 -101 -59 -160t-162 -59q-97 0 -154 57.5t-57 155.5q0 106 57 171t160 65zM2222 307q-50 0 -79 -33t-29 -86q0 -43 22 -82q42 -28 86 -28q111 0 111 110q0 47 -27 93q-29 26 -84 26zM1085 418q101 0 159.5 -63.5t58.5 -166.5q0 -101 -60 -160t-162 -59q-98 0 -155.5 57.5
t-57.5 155.5q0 106 57 171t160 65zM1083 307q-49 0 -77.5 -33t-28.5 -86q0 -46 20 -82q42 -28 86 -28q111 0 111 110q0 51 -25 93q-33 26 -86 26zM1249 1257l-899 -1368l-164 113l897 1370zM360 1286q103 0 160.5 -62t57.5 -165q0 -102 -60 -161.5t-162 -59.5
q-98 0 -155.5 57.5t-57.5 155.5q0 108 56.5 171.5t160.5 63.5zM360 1176q-49 0 -78.5 -32t-29.5 -85q0 -48 20 -84q40 -27 86 -27q113 0 113 111q0 44 -27 90q-30 27 -84 27z" />
    <glyph glyph-name="uni060B" unicode="&#x60b;" horiz-adv-x="2191" 
d="M834 -471l12 471h-432q-126 0 -198.5 75.5t-72.5 207.5v483l254 213h353q131 0 217 -82t86 -213v-414h37v-270h-37v-479zM823 655q-3 49 -38 81t-83 32h-237l-107 -92l-10 -289q-1 -59 33.5 -88t97.5 -29h361zM1042 0v270h680q49 0 80 31.5t31 79.5v55h-358
q-124 0 -199.5 78t-75.5 203v411l242 215h325q126 0 203.5 -76.5t77.5 -201.5v-690q0 -174 -91.5 -274.5t-262.5 -100.5h-652zM1821 1020q-1 47 -36 78.5t-85 31.5h-182l-105 -90l-10 -235q-3 -59 34.5 -96t96.5 -37h303zM846 1133v229l256 10v-239h-256z" />
    <glyph glyph-name="uni060C" unicode="&#x60c;" horiz-adv-x="587" 
d="M307 391q-41 -47 -41 -84q1 -31 34.5 -68t109.5 -94l-131 -147q-133 121 -136 225q0 76 68 166l172 219l59 -55z" />
    <glyph glyph-name="uni060D" unicode="&#x60d;" horiz-adv-x="669" 
d="M315 569h211l-235 -692h-148z" />
    <glyph glyph-name="uni0615" unicode="&#x615;" 
d="M-176 100l26 35l-10 330l90 8v-205l-4 -41l23 37q29 33 108 51q56 9 90 9l84 -74v-146q0 -47 -31 -75.5t-83 -28.5h-293v100zM115 98q17 0 28 10t11 27l-2 74l-37 33q-32 0 -62 -6q-57 -11 -82 -48l-59 -88z" />
    <glyph glyph-name="uni061B" unicode="&#x61b;" horiz-adv-x="589" 
d="M150 0v229l256 11v-240h-256zM307 850q-41 -47 -41 -84q1 -31 34.5 -68t109.5 -94l-131 -147q-133 121 -136 225q0 76 68 166l172 219l59 -55z" />
    <glyph glyph-name="uni061F" unicode="&#x61f;" horiz-adv-x="989" 
d="M758 1137q-5 53 -42.5 93t-86.5 40h-174l-86 -72l-13 -231q-2 -43 33 -83.5t81 -68.5t100 -68.5t79 -78.5q64 -81 45 -308l-196 -6q16 143 -35 211q-20 30 -62.5 62t-84.5 59.5t-82.5 61.5t-65.5 80.5t-25 101.5v344l254 223h271q107 0 192 -78.5t88 -179.5l2 -88z
M436 -63v286l320 13v-299h-320z" />
    <glyph glyph-name="uni0640" unicode="&#x640;" horiz-adv-x="407" 
d="M-2 0v270h410q13 0 22.5 -39.5t9.5 -93.5q0 -56 -9.5 -96.5t-22.5 -40.5h-410z" />
    <glyph glyph-name="uni064B" unicode="&#x64b;" 
d="M219 217l37 -117l-469 -100l-29 104zM209 449l31 -107l-465 -111l-33 115z" />
    <glyph glyph-name="uni064C" unicode="&#x64c;" 
d="M-170 176q12 26 4 41t-33 12l-86 -14l-4 70l107 18q72 11 102 -26t0 -101l-26 -51l112 27l-31 116q-8 36 9.5 68t50.5 41l108 33l113 -58l29 -116q17 -64 -6 -107.5t-80 -54.5l-373 -72l-29 102zM180 193q11 3 16 14.5t1 23.5l-19 62l-35 14l-51 -12q-12 -3 -18.5 -14
t-3.5 -23l18 -88z" />
    <glyph glyph-name="uni064D" unicode="&#x64d;" 
d="M217 -231l37 -117l-471 -101l-29 105zM205 0l33 -106l-465 -111l-35 115z" />
    <glyph glyph-name="uni064E" unicode="&#x64e;" 
d="M-221 0l-29 102l461 115l37 -117z" />
    <glyph glyph-name="uni064F" unicode="&#x64f;" 
d="M-231 104l178 46l-29 120q-9 37 7.5 69t51.5 42l107 31l111 -58l30 -116q15 -66 -7.5 -108t-78.5 -54l-344 -76zM117 193q12 3 18 14.5t2 23.5l-20 66l-29 12l-55 -12q-12 -2 -19 -13t-4 -26l19 -90z" />
    <glyph glyph-name="uni0650" unicode="&#x650;" 
d="M-221 -219l-29 104l461 115l37 -115z" />
    <glyph glyph-name="uni0651" unicode="&#x651;" 
d="M182 348l113 6v-207q0 -67 -44 -107t-118 -40q-49 0 -88 23t-45 55q-6 -32 -45.5 -55t-89.5 -23q-72 0 -115 40t-43 107v193l109 -6l-17 -158q-1 -29 18.5 -47t53.5 -18q35 0 57.5 18t22.5 47v127l96 2v-131q1 -29 22.5 -46t55.5 -17t54.5 17t17.5 44z" />
    <glyph glyph-name="uni0652" unicode="&#x652;" 
d="M-10 467q95 0 169 -69t74 -160q0 -89 -69 -162.5t-154 -73.5q-97 0 -170 71.5t-73 166.5q0 85 70 156t153 71zM10 113q39 5 72 44t33 81q0 44 -39.5 81t-85.5 37q-35 0 -65.5 -38t-30.5 -80q0 -54 35 -92t81 -33z" />
    <glyph glyph-name="uni0653" unicode="&#x653;" 
d="M-369 328q230 -39 406 -39t395 43l2 -215q-198 -44 -359.5 -46.5t-355.5 35.5v-174h-141l-14 299z" />
    <glyph glyph-name="uni0654" unicode="&#x654;" 
d="M-176 0l-45 113l76 39q-21 4 -33 30l-43 88q-20 36 -17 70q0 14 17 63q4 10 13.5 36t14.5 40l121 53q45 21 89 6t69 -57l16 -37l-79 -36q-31 47 -74 26l-66 -35q-9 -23 -14 -47q-4 -12 -4 -24q0 -27 16 -54l25 -47q15 -29 34 -32.5t54 16.5l201 115l53 -107z" />
    <glyph glyph-name="uni0655" unicode="&#x655;" 
d="M-176 -561l-45 112l76 39q-19 3 -33 31l-43 88q-20 36 -17 70q0 14 17 63q4 8 8 19.5t10 29t10 29.5l121 53q45 19 89 4.5t69 -55.5l16 -39l-79 -35q-32 45 -74 25l-66 -33q-10 -28 -14 -49q-4 -12 -4 -24q0 -23 16 -54l25 -47q15 -28 33.5 -31.5t54.5 17.5l201 112
l53 -104z" />
    <glyph glyph-name="uni0656" unicode="&#x656;" 
d="M-45 -8l88 8l-2 -317l-72 -9z" />
    <glyph glyph-name="uni065A" unicode="&#x65a;" 
d="M49 0h-69l135 463l106 -21zM43 6l-63 -6l-199 424l102 37z" />
    <glyph glyph-name="uni065B" unicode="&#x65b;" 
d="M115 0l-135 463h69l172 -443zM-219 39l199 424l63 -6l-160 -455z" />
    <glyph glyph-name="uni0660" unicode="&#x660;" horiz-adv-x="585" 
d="M119 123v309l348 10v-319h-348z" />
    <glyph glyph-name="uni0661" unicode="&#x661;" horiz-adv-x="626" 
d="M248 418q-12 421 -150 876l236 64q66 -178 105.5 -426.5t39.5 -497.5l2 -553l-213 -22z" />
    <glyph glyph-name="uni0662" unicode="&#x662;" horiz-adv-x="1218" 
d="M621 479q-89 0 -148 56q6 -41 6 -150l2 -504l-215 -22l-16 524q-12 440 -152 911l234 64q36 -89 73.5 -284.5t45.5 -225.5q9 -44 51 -71t102 -27h43q96 0 151 35t52 94l-29 467l254 16v-520q0 -172 -106.5 -267.5t-302.5 -95.5h-45z" />
    <glyph glyph-name="uni0663" unicode="&#x663;" horiz-adv-x="1648" 
d="M1505 842q0 -171 -97 -270t-275 -99q-81 0 -159.5 39.5t-111.5 103.5q-44 -64 -113 -100.5t-147 -38.5q-37 0 -72 14.5t-55 38.5q4 -98 4 -145l2 -504l-215 -22l-14 518q-15 464 -154 917l234 64q30 -74 49.5 -158t39 -198t30.5 -164q15 -90 137 -90q62 0 102.5 28.5
t50.5 79.5q33 162 33 410l227 4q-2 -34 -6 -129t-9 -161t-13 -128q9 -45 47 -73.5t90 -28.5h20q76 0 114.5 30.5t35.5 89.5l-29 476l254 16v-520z" />
    <glyph glyph-name="uni0664" unicode="&#x664;" horiz-adv-x="1124" 
d="M508 -150q-199 0 -304.5 103.5t-105.5 300.5q0 161 33.5 243.5t128.5 131.5q-102 82 -102 252q0 461 368 458l445 -6l-21 -254l-418 35q-58 4 -94.5 -58t-36.5 -163q0 -85 38 -135.5t98 -46.5l424 34l-13 -215q-68 -3 -204.5 -12t-204.5 -12q-101 -6 -148 -54t-47 -145
q0 -101 36.5 -148t113.5 -44l530 16l-35 -281h-481z" />
    <glyph glyph-name="uni0665" unicode="&#x665;" horiz-adv-x="1439" 
d="M371 268q0 -89 93 -136.5t267 -47.5q173 0 255.5 44t82.5 138q0 417 -96 568q-63 100 -187 141l-178 63q-61 -87 -110 -182q-68 -143 -97.5 -277t-29.5 -311zM143 225q0 251 35.5 425.5t114.5 316.5q23 42 82 133l-115 35l59 239l560 -190q200 -68 301 -248
q66 -117 91 -277t25 -403q0 -215 -144 -317.5t-445 -102.5q-267 0 -415.5 102.5t-148.5 286.5z" />
    <glyph glyph-name="uni0666" unicode="&#x666;" horiz-adv-x="1198" 
d="M133 1360q172 -33 379 -33q67 0 189.5 9.5t170.5 11.5q73 1 102 -34t27 -122q-1 -40 -7.5 -222t-6.5 -280q0 -410 68 -803l-232 -45q-73 361 -73 846q0 243 10 445q-158 -29 -287 -29q-191 0 -367 43z" />
    <glyph glyph-name="uni0667" unicode="&#x667;" horiz-adv-x="1482" 
d="M762 -143q-93 -1 -133.5 26t-63.5 107q-3 12 -42.5 152t-58 203t-55.5 178t-71 202q-114 294 -256 522l209 125q117 -181 230.5 -512.5t193.5 -703.5q5 -33 30 -41h17q95 410 208 743.5t220 513.5l211 -125q-157 -269 -279 -599.5t-243 -788.5z" />
    <glyph glyph-name="uni0668" unicode="&#x668;" horiz-adv-x="1474" 
d="M762 1370l117 -2q121 -458 243 -788.5t279 -599.5l-211 -125q-107 180 -220 513.5t-208 743.5h-17q-25 -8 -30 -41q-80 -372 -193.5 -703.5t-230.5 -512.5l-209 125q142 228 256 522q34 87 71 202t55.5 178t58 203t42.5 152q23 80 63.5 107t133.5 26z" />
    <glyph glyph-name="uni0669" unicode="&#x669;" horiz-adv-x="1159" 
d="M858 -154q-50 243 -74 600q-138 -28 -303 -24q-172 3 -255 73.5t-83 215.5v444l232 199h313q133 0 218 -81.5t85 -209.5v-535q0 -224 86 -639zM348 795q-1 -59 33.5 -94t93.5 -37q210 0 299 16l-8 352q-1 47 -38.5 79t-88.5 32h-199l-86 -78z" />
    <glyph glyph-name="uni066A" unicode="&#x66a;" horiz-adv-x="1445" 
d="M1085 418q101 0 159.5 -63.5t58.5 -166.5q0 -101 -60 -160t-162 -59q-98 0 -155.5 57.5t-57.5 155.5q0 106 57 171t160 65zM1083 307q-49 0 -77.5 -33t-28.5 -86q0 -46 20 -82q42 -28 86 -28q111 0 111 110q0 51 -25 93q-33 26 -86 26zM1249 1257l-899 -1368l-164 113
l897 1370zM360 1286q103 0 160.5 -62t57.5 -165q0 -102 -60 -161.5t-162 -59.5q-98 0 -155.5 57.5t-57.5 155.5q0 108 56.5 171.5t160.5 63.5zM360 1176q-49 0 -78.5 -32t-29.5 -85q0 -48 20 -84q40 -27 86 -27q113 0 113 111q0 44 -27 90q-30 27 -84 27z" />
    <glyph glyph-name="uni066B" unicode="&#x66b;" horiz-adv-x="669" 
d="M315 569h211l-235 -692h-148z" />
    <glyph glyph-name="uni066C" unicode="&#x66c;" horiz-adv-x="587" 
d="M281 63q41 47 41 84q-1 31 -34.5 68t-109.5 94l131 148q132 -120 135 -226q0 -76 -67 -165l-172 -220l-60 56z" />
    <glyph glyph-name="uni066E" unicode="&#x66e;" horiz-adv-x="2017" 
d="M459 0q-141 0 -228.5 92t-87.5 234v479l238 10v-438q0 -48 24.5 -77.5t65.5 -29.5h1053q53 0 90.5 33t34.5 80l-29 502l254 16v-586q0 -137 -92 -226t-228 -89h-1095z" />
    <glyph glyph-name="uni066F" unicode="&#x66f;" horiz-adv-x="1642" 
d="M637 -528q-212 0 -353 133.5t-141 341.5v610l238 10v-573q0 -114 69 -185t183 -71q244 0 428.5 41t234.5 110q9 15 9 76v35h-398q-128 0 -205 74.5t-77 199.5v437l243 213h351q126 0 203 -76t77 -201v-700q0 -247 -207 -361t-655 -114zM1276 582q-3 62 -41 98t-100 35
l-189 -2l-108 -92l-9 -259q-3 -58 26 -83t97 -25h340z" />
    <glyph glyph-name="uni0670" unicode="&#x670;" 
d="M-45 317l88 7l-2 -318l-72 -6z" />
    <glyph glyph-name="uni0695" unicode="&#x695;" horiz-adv-x="684" 
d="M287 797l254 16v-823q0 -205 -168 -356t-479 -226l-89 270q133 26 250 76t191 117t71 133zM281 -1094h-70l135 463l107 -20zM276 -1087l-65 -7l-199 424l103 37z" />
    <glyph glyph-name="uni06A0" unicode="&#x6a0;" horiz-adv-x="1349" 
d="M543 -600q-183 0 -291.5 95t-108.5 255v121q0 168 37.5 248t134.5 117q-28 25 -47.5 82t-19.5 120v150q0 95 9.5 148.5t33.5 94.5q11 19 29 41.5t33.5 39t44 43t40.5 37t45 39.5t37 32h314q115 0 199.5 -80t84.5 -188v-82l-194 -13q0 60 -36.5 98t-92.5 38h-172
q-86 -74 -112 -110q-11 -15 -17 -28q-15 -31 -15 -125l-4 -137q-2 -75 34.5 -108t113.5 -23l548 72l33 -232l-626 -96q-39 -6 -67.5 -15.5t-49 -19.5t-33.5 -28.5t-20.5 -34.5t-11 -47t-4.5 -55.5t-1 -69.5q0 -64 42.5 -98t117.5 -31l645 24l-41 -274h-612zM588 1626v199
l221 8v-207h-221zM729 1485l293 -174l-662 -17v191h369zM676 1303v182h307l53 -35v-139z" />
    <glyph glyph-name="uni06A1" unicode="&#x6a1;" horiz-adv-x="2011" 
d="M459 0q-139 0 -227.5 88.5t-88.5 228.5v488l238 10v-438q0 -47 24 -77t66 -30h565v-270h-577zM862 0v270h680q49 0 80 31.5t31 79.5v55h-359q-124 0 -199 78t-75 203v411l242 215h325q126 0 203.5 -76.5t77.5 -201.5v-690q0 -174 -91.5 -274.5t-263.5 -100.5h-651z
M1640 1020q-1 47 -35.5 78.5t-84.5 31.5h-183l-104 -90l-10 -235q-3 -59 34.5 -96t96.5 -37h303z" />
    <glyph glyph-name="uni06AA" unicode="&#x6aa;" horiz-adv-x="2035" 
d="M1892 322q0 -140 -89 -231t-228 -91h-1399l-33 305l1403 -35q53 -2 90.5 31.5t34.5 83.5l-10 246q-3 49 -37.5 81t-87.5 29l-1018 -41l-29 242l596 588l172 -158l-462 -420l759 29q151 3 244.5 -84t93.5 -231v-344z" />
    <glyph glyph-name="uni06B5" unicode="&#x6b5;" horiz-adv-x="1538" 
d="M655 -467q-232 0 -372 136t-140 360v516l238 8v-494q0 -115 72.5 -186.5t189.5 -71.5q263 0 396 64t130 190l-39 1413l252 17l11 -1475q1 -233 -187.5 -355t-550.5 -122zM1307 1720h-70l135 463l107 -20zM1300 1726l-63 -6l-199 424l103 37z" />
    <glyph glyph-name="uni06BD" unicode="&#x6bd;" horiz-adv-x="1581" 
d="M143 637l238 8v-579q0 -117 73.5 -188t190.5 -71q165 0 291 27t201.5 85.5t72.5 141.5l-32 797l254 19l4 -861q1 -123 -56 -215.5t-164 -149.5t-251.5 -84.5t-327.5 -27.5q-132 0 -245 62t-181 172t-68 243v621zM606 1151v199l221 8v-207h-221zM748 1010l292 -174
l-661 -17v191h369zM694 827v183h307l54 -35v-139z" />
    <glyph glyph-name="uni06C2" unicode="&#x6c2;" horiz-adv-x="1214" 
d="M754 279q35 6 60.5 46.5t25.5 86.5q-9 82 -33.5 175t-46.5 132q-28 48 -127 84l-53 20l-95 -90q-10 -10 -32 -31t-31 -29.5t-22 -22t-19.5 -23t-9.5 -17.5q-13 -27 -13 -94l-2 -121q0 -52 33 -89t80 -36zM469 0q-141 0 -233 92t-93 234v206q0 90 19 132q7 17 27 43t37 44
t47 48.5t36 36.5l51 55l-137 39l64 225q310 -91 479 -164q71 -32 115.5 -66.5t74.5 -84.5q43 -70 76 -213.5t39 -280.5q3 -136 -96.5 -241t-231.5 -105h-274zM362 1389l-45 112l76 39q-21 3 -33 31l-43 88q-19 34 -16 70q0 17 16 63q5 10 15 38t14 38l121 53q45 21 89 6
t69 -57l16 -37l-80 -37q-32 47 -74 27l-65 -35q-9 -23 -14 -47q-5 -15 -5 -25q0 -25 17 -53l24 -47q15 -29 34 -33t54 16l201 115l53 -106z" />
    <glyph glyph-name="uni06C3" unicode="&#x6c3;" horiz-adv-x="1214" 
d="M754 279q35 6 60.5 46.5t25.5 86.5q-9 82 -33.5 175t-46.5 132q-28 48 -127 84l-53 20l-95 -90q-10 -10 -32 -31t-31 -29.5t-22 -22t-19.5 -23t-9.5 -17.5q-13 -27 -13 -94l-2 -121q0 -52 33 -89t80 -36zM469 0q-141 0 -233 92t-93 234v206q0 90 19 132q7 17 27 43t37 44
t47 48.5t36 36.5l51 55l-137 39l64 225q310 -91 479 -164q71 -32 115.5 -66.5t74.5 -84.5q43 -70 76 -213.5t39 -280.5q3 -136 -96.5 -241t-231.5 -105h-274zM569 1538l293 -174l-661 -16v190h368zM516 1356v182h307l54 -35v-139z" />
    <glyph glyph-name="uni06CA" unicode="&#x6ca;" horiz-adv-x="1196" 
d="M487 -287q205 45 284 98.5t77 129.5l-4 51h-430q-126 0 -198.5 75t-72.5 207v471l254 213h353q132 0 217.5 -81.5t85.5 -212.5l-2 -727q0 -195 -143 -315.5t-445 -182.5l-219 -47l-58 266zM823 637q-3 49 -38 80t-83 31h-237l-107 -91l-10 -288q-1 -60 33.5 -88.5
t97.5 -28.5h361zM657 1380l293 -174l-661 -16v190h368zM604 1198v182h307l54 -34v-140z" />
    <glyph glyph-name="uni06CE" unicode="&#x6ce;" horiz-adv-x="1650" 
d="M143 608l238 10v-571q0 -113 72.5 -184.5t185.5 -71.5q191 0 313.5 9.5t214.5 39.5q116 40 144 125q2 7 2 45q0 23 -12 32t-44 9h-387q-118 0 -171.5 54t-53.5 174v479l273 243h284q106 0 192.5 -81t86.5 -187v-80l-191 -10q-3 52 -41 91.5t-88 39.5h-184l-107 -92
l-12 -322q0 -48 21.5 -69t72.5 -21h371q89 0 136.5 -43t47.5 -127v-131q-12 -212 -190 -325q-108 -66 -273 -93.5t-405 -27.5q-132 0 -246.5 63.5t-182 174t-67.5 239.5v608zM301 788h-70l136 463l106 -20zM295 795l-64 -7l-198 424l102 37z" />
    <glyph glyph-name="uni06CF" unicode="&#x6cf;" horiz-adv-x="1196" 
d="M487 -287q205 45 284 98.5t77 129.5l-4 51h-430q-126 0 -198.5 75t-72.5 207v471l254 213h353q132 0 217.5 -81.5t85.5 -212.5l-2 -727q0 -195 -143 -315.5t-445 -182.5l-219 -47l-58 266zM823 637q-3 49 -38 80t-83 31h-237l-107 -91l-10 -288q-1 -60 33.5 -88.5
t97.5 -28.5h361zM498 1190v229l256 11v-240h-256z" />
    <glyph glyph-name="uni06D5" unicode="&#x6d5;" horiz-adv-x="1214" 
d="M754 279q35 6 60.5 46.5t25.5 86.5q-9 82 -33.5 175t-46.5 132q-28 48 -127 84l-53 20l-95 -90q-10 -10 -32 -31t-31 -29.5t-22 -22t-19.5 -23t-9.5 -17.5q-13 -27 -13 -94l-2 -121q0 -52 33 -89t80 -36zM469 0q-141 0 -233 92t-93 234v206q0 90 19 132q7 17 27 43t37 44
t47 48.5t36 36.5l51 55l-137 39l64 225q310 -91 479 -164q71 -32 115.5 -66.5t74.5 -84.5q43 -70 76 -213.5t39 -280.5q3 -136 -96.5 -241t-231.5 -105h-274z" />
    <glyph glyph-name="uni06F0" unicode="&#x6f0;" horiz-adv-x="997" 
d="M498 557q-84 0 -132.5 -54t-48.5 -143q0 -93 33 -143q54 -41 146 -41q186 0 186 184q0 99 -33 156q-54 41 -151 41zM502 733q165 0 258.5 -102t93.5 -271t-97.5 -264.5t-267.5 -95.5q-158 0 -252 94t-94 254q0 175 93 280t266 105z" />
    <glyph glyph-name="uni06F1" unicode="&#x6f1;" horiz-adv-x="626" 
d="M248 418q-12 421 -150 876l236 64q66 -178 105.5 -426.5t39.5 -497.5l2 -553l-213 -22z" />
    <glyph glyph-name="uni06F2" unicode="&#x6f2;" horiz-adv-x="1218" 
d="M621 479q-89 0 -148 56q6 -41 6 -150l2 -504l-215 -22l-16 524q-12 440 -152 911l234 64q36 -89 73.5 -284.5t45.5 -225.5q9 -44 51 -71t102 -27h43q96 0 151 35t52 94l-29 467l254 16v-520q0 -172 -106.5 -267.5t-302.5 -95.5h-45z" />
    <glyph glyph-name="uni06F3" unicode="&#x6f3;" horiz-adv-x="1648" 
d="M1505 842q0 -171 -97 -270t-275 -99q-81 0 -159.5 39.5t-111.5 103.5q-44 -64 -113 -100.5t-147 -38.5q-37 0 -72 14.5t-55 38.5q4 -98 4 -145l2 -504l-215 -22l-14 518q-15 464 -154 917l234 64q30 -74 49.5 -158t39 -198t30.5 -164q15 -90 137 -90q62 0 102.5 28.5
t50.5 79.5q33 162 33 410l227 4q-2 -34 -6 -129t-9 -161t-13 -128q9 -45 47 -73.5t90 -28.5h20q76 0 114.5 30.5t35.5 89.5l-29 476l254 16v-520z" />
    <glyph glyph-name="uni06F4" unicode="&#x6f4;" horiz-adv-x="1460" 
d="M776 432q-181 -3 -299 53q2 -27 2 -110l2 -494l-215 -22l-16 524q-12 461 -152 911l236 64q90 -243 129 -623q32 -49 145 -43q-4 35 -24 205q-19 222 76.5 345.5t287.5 123.5h369l-19 -252l-340 19q-66 4 -108 -66t-31 -164q14 -131 33 -211l489 21l-14 -267z" />
    <glyph glyph-name="uni06F5" unicode="&#x6f5;" horiz-adv-x="1548" 
d="M1397 176q0 -162 -97.5 -246t-273.5 -84q-73 0 -140.5 33.5t-107.5 89.5q-50 -57 -122.5 -90t-151.5 -33q-147 0 -249.5 93t-102.5 237q0 485 172 815q17 38 63 111l-111 37l60 237l633 -200q72 -23 139.5 -74.5t118.5 -120.5q97 -121 133.5 -312t36.5 -493zM1174 219
q0 413 -105 584q-63 110 -221 164l-225 71q-71 -96 -101 -164q-76 -160 -107.5 -304t-31.5 -337q0 -57 37.5 -87.5t99.5 -30.5q52 0 91.5 24t56.5 64q7 22 14 80l20 149l209 -18q-16 -139 -26 -201q8 -41 44.5 -70.5t82.5 -29.5h16q146 0 146 106z" />
    <glyph glyph-name="uni06F6" unicode="&#x6f6;" horiz-adv-x="1415" 
d="M436 1022q-44 -38 -17.5 -113.5t111.5 -148.5l52 -43q42 -38 106.5 -48.5t106.5 13.5q151 187 352 350l170 -162q-295 -259 -446.5 -476.5t-288.5 -573.5l-185 82q55 172 103.5 286t120.5 232q-61 -4 -135.5 30t-125.5 82l-81 76q-118 107 -133.5 251.5t77.5 242.5
l359 368l166 -176z" />
    <glyph glyph-name="uni06F7" unicode="&#x6f7;" horiz-adv-x="1482" 
d="M762 -143q-93 -1 -133.5 26t-63.5 107q-3 12 -42.5 152t-58 203t-55.5 178t-71 202q-114 294 -256 522l209 125q117 -181 230.5 -512.5t193.5 -703.5q5 -33 30 -41h17q95 410 208 743.5t220 513.5l211 -125q-157 -269 -279 -599.5t-243 -788.5z" />
    <glyph glyph-name="uni06F8" unicode="&#x6f8;" horiz-adv-x="1474" 
d="M762 1370l117 -2q121 -458 243 -788.5t279 -599.5l-211 -125q-107 180 -220 513.5t-208 743.5h-17q-25 -8 -30 -41q-80 -372 -193.5 -703.5t-230.5 -512.5l-209 125q142 228 256 522q34 87 71 202t55.5 178t58 203t42.5 152q23 80 63.5 107t133.5 26z" />
    <glyph glyph-name="uni06F9" unicode="&#x6f9;" horiz-adv-x="1175" 
d="M858 -154q-50 243 -74 600q-138 -28 -303 -24q-172 3 -255 73.5t-83 215.5v444l232 199h313q133 0 218 -81.5t85 -209.5v-535q0 -224 86 -639zM348 795q-1 -59 33.5 -94t93.5 -37q210 0 299 16l-8 352q-1 47 -38.5 79t-88.5 32h-199l-86 -78z" />
    <glyph glyph-name="uni0762" unicode="&#x762;" horiz-adv-x="2023" 
d="M432 938v229l256 11v-240h-256zM459 0q-142 0 -229 86.5t-87 230.5v488l238 10v-438q0 -47 24 -77t66 -30h1040q58 0 97.5 30t42.5 79l-60 264l-684 328l8 258l801 346l107 -227l-639 -238l602 -303q5 -22 33 -140.5t41.5 -194.5t17.5 -140q6 -133 -96 -232.5t-242 -99.5
h-1081z" />
    <glyph glyph-name="uni2000" unicode="&#x2000;" horiz-adv-x="1382" 
 />
    <glyph glyph-name="uni2001" unicode="&#x2001;" horiz-adv-x="2764" 
 />
    <glyph glyph-name="uni2002" unicode="&#x2002;" horiz-adv-x="1382" 
 />
    <glyph glyph-name="uni2003" unicode="&#x2003;" horiz-adv-x="2764" 
 />
    <glyph glyph-name="uni2004" unicode="&#x2004;" horiz-adv-x="968" 
 />
    <glyph glyph-name="uni2005" unicode="&#x2005;" horiz-adv-x="692" 
 />
    <glyph glyph-name="uni2006" unicode="&#x2006;" horiz-adv-x="483" 
 />
    <glyph glyph-name="uni2007" unicode="&#x2007;" horiz-adv-x="2129" 
 />
    <glyph glyph-name="uni2008" unicode="&#x2008;" horiz-adv-x="692" 
 />
    <glyph glyph-name="uni2009" unicode="&#x2009;" horiz-adv-x="346" 
 />
    <glyph glyph-name="uni200A" unicode="&#x200a;" horiz-adv-x="346" 
 />
    <glyph glyph-name="uni200B" unicode="&#x200b;" 
 />
    <glyph glyph-name="uni200C" unicode="&#x200c;" 
d="M45 1511v-1835h-90v1835h90z" />
    <glyph glyph-name="uni200D" unicode="&#x200d;" 
d="M45 -324h-90v1633l-154 -158l-59 55l203 199l-203 197l59 57l199 -203l199 203l59 -57l-203 -197l203 -199l-59 -55l-154 158v-1633z" />
    <glyph glyph-name="uni200E" unicode="&#x200e;" 
d="M797 1407l-254 -254l-60 57l162 156h-313v-1690h-82v1772h395l-162 154l60 57z" />
    <glyph glyph-name="uni200F" unicode="&#x200f;" 
d="M504 1659l55 -57l-158 -154h392v-1772h-82v1690h-310l158 -156l-55 -57l-254 254z" />
    <glyph glyph-name="uni2011" unicode="&#x2011;" horiz-adv-x="1189" 
d="M1044 432h-901v182h901v-182z" />
    <glyph glyph-name="figuredash" unicode="&#x2012;" horiz-adv-x="1286" 
d="M1143 569h-1000v183h1000v-183z" />
    <glyph glyph-name="endash" unicode="&#x2013;" horiz-adv-x="1286" 
d="M1143 555h-1000v182h1000v-182z" />
    <glyph glyph-name="emdash" unicode="&#x2014;" horiz-adv-x="1949" 
d="M143 737h1663v-182h-1663v182z" />
    <glyph glyph-name="uni2015" unicode="&#x2015;" horiz-adv-x="1949" 
d="M143 752h1663v-183h-1663v183z" />
    <glyph glyph-name="quoteleft" unicode="&#x2018;" horiz-adv-x="587" 
d="M307 1567q-41 -47 -41 -84q1 -31 34.5 -68t109.5 -94l-131 -147q-133 121 -136 225q0 76 68 166l172 219l59 -55z" />
    <glyph glyph-name="quoteright" unicode="&#x2019;" horiz-adv-x="587" 
d="M281 1378q41 47 41 84q-1 31 -34.5 68t-109.5 94l131 148q132 -120 135 -226q0 -77 -67 -166l-172 -219l-60 56z" />
    <glyph glyph-name="quotedblleft" unicode="&#x201c;" horiz-adv-x="894" 
d="M614 1272q-41 -47 -41 -84q1 -31 34.5 -68t109.5 -94l-131 -147q-132 120 -135 225q0 77 67 166l172 219l60 -55zM307 1272q-41 -47 -41 -84q1 -31 34.5 -68t109.5 -94l-131 -147q-133 121 -136 225q0 76 68 166l172 219l59 -55z" />
    <glyph glyph-name="quotedblright" unicode="&#x201d;" horiz-adv-x="921" 
d="M281 838q41 47 41 84q-1 31 -34.5 67t-109.5 94l131 148q132 -120 135 -225q0 -77 -67 -166l-172 -219l-60 55zM614 838q41 47 41 84q-1 31 -34 67.5t-109 93.5l131 148q132 -120 135 -225q0 -77 -67 -166l-172 -219l-60 55z" />
    <glyph glyph-name="bullet" unicode="&#x2022;" horiz-adv-x="1363" 
d="M143 569q0 113 41.5 213t113 171.5t171.5 113t213 41.5t213 -41.5t171.5 -113t113 -171.5t41.5 -213q0 -150 -70 -273t-194 -194t-275 -71q-231 0 -385 152t-154 386z" />
    <glyph glyph-name="ellipsis" unicode="&#x2026;" horiz-adv-x="1595" 
d="M670 0v229l256 11v-240h-256zM1196 0v229l256 11v-240h-256zM143 0v229l256 11v-240h-256z" />
    <glyph glyph-name="uni2028" unicode="&#x2028;" 
 />
    <glyph glyph-name="uni2029" unicode="&#x2029;" 
 />
    <glyph glyph-name="uni202A" unicode="&#x202a;" 
d="M-66 2030h-139v55h139v-55zM2 2085h119l-96 96l38 39l166 -166l-166 -166l-38 41l96 101h-119v55z" />
    <glyph glyph-name="uni202B" unicode="&#x202b;" 
d="M66 2085h139v-55h-139v55zM-2 2030h-117l94 -101l-38 -39l-166 164l166 166l38 -35l-96 -100h119v-55z" />
    <glyph glyph-name="uni202C" unicode="&#x202c;" 
d="M-125 2036l-41 39l166 166l166 -166l-41 -39l-96 96v-244h-58v242z" />
    <glyph glyph-name="uni202D" unicode="&#x202d;" 
d="M-88 2181l39 39l166 -166l-166 -166l-39 41l96 101h-258v55h258zM66 2181l38 39l166 -166l-166 -166l-38 41l129 125z" />
    <glyph glyph-name="uni202E" unicode="&#x202e;" 
d="M-8 2140h258v-55h-258l100 -96l-43 -43l-162 165l162 166l43 -36zM-195 2111l129 -122l-38 -43l-166 165l166 166l38 -36z" />
    <glyph glyph-name="uni202F" unicode="&#x202f;" horiz-adv-x="346" 
 />
    <glyph glyph-name="guilsinglleft" unicode="&#x2039;" horiz-adv-x="724" 
d="M424 1094h158l-232 -441l232 -438h-158l-281 438z" />
    <glyph glyph-name="guilsinglright" unicode="&#x203a;" horiz-adv-x="724" 
d="M301 1094l281 -441l-281 -438h-158l232 438l-232 441h158z" />
    <glyph glyph-name="fraction" unicode="&#x2044;" horiz-adv-x="1093" 
d="M741 1589h209l-600 -1644h-207z" />
    <glyph glyph-name="uni204B" unicode="&#x204b;" horiz-adv-x="1320" 
d="M1178 981q0 -87 -3 -146.5t-14 -114t-26.5 -87.5t-46 -62t-66.5 -44t-94 -25.5t-122.5 -13.5t-158.5 -3v-800h-164v1798h224q85 0 142.5 -3t109.5 -13.5t83.5 -25t58.5 -43.5t40 -62.5t22.5 -89.5t12 -115.5t2.5 -149.5zM307 1483v-1798h-164v1798h164z" />
    <glyph glyph-name="uni2060" unicode="&#x2060;" horiz-adv-x="1382" 
 />
    <glyph glyph-name="Euro" unicode="&#x20ac;" horiz-adv-x="1540" 
d="M367 930q1 113 11.5 194t36 146t64.5 106.5t101 69.5t141 41t188 16q237 12 426 -24v-195q-200 20 -317 14q-82 -1 -137.5 -7.5t-98 -24.5t-66 -42.5t-38 -68.5t-19 -95t-4.5 -130h-288zM1335 -8q-205 -39 -426 -25q-109 3 -188 15.5t-140.5 41t-101 70t-65 106.5
t-36 146.5t-11.5 194.5h288q0 -79 4.5 -130t19 -95.5t38 -69t65.5 -42.5t98 -24.5t138 -7.5q117 -6 317 14v-194zM213 979h1044v-164h-1044v164zM213 655h1044v-163h-1044v163z" />
    <glyph glyph-name="trademark" unicode="&#x2122;" horiz-adv-x="1644" 
d="M330 1370h-203v113h539v-113h-207v-526h-129v526zM778 1483h185l186 -455l184 455h185v-639h-125v491l-203 -491h-86l-203 491v-491h-123v639z" />
    <glyph glyph-name="estimated" unicode="&#x212e;" horiz-adv-x="1521" 
d="M766 -16q-216 0 -342.5 35.5t-175.5 111.5q-51 79 -70.5 220.5t-19.5 420.5q0 281 28 429t109 212q61 45 176 65.5t307 20.5q200 0 313.5 -20.5t172.5 -69.5q26 -21 47 -51t35 -70t24.5 -77t16.5 -89.5t9.5 -89t4 -93.5t0.5 -84.5t-1 -81.5t-1 -66h-957v-50
q0 -240 9.5 -354.5t35.5 -169.5q45 -96 291 -96q334 0 420 57q52 33 78.5 108t38.5 214h57q-11 -156 -44 -241.5t-101 -127.5q-95 -63 -461 -63zM1114 909q0 232 -17.5 345.5t-72.5 150.5q-59 41 -246 41q-193 0 -246 -41q-55 -42 -72.5 -157.5t-17.5 -356.5v-131h672v149z
" />
    <glyph glyph-name="carriagereturn" unicode="&#x21b5;" 
 />
    <glyph glyph-name="infinity" unicode="&#x221e;" horiz-adv-x="1691" 
d="M1190 268q-114 0 -202 56.5t-142 164.5q-64 -116 -146 -168.5t-198 -52.5q-163 0 -261 107.5t-98 281.5q0 180 97.5 289t263.5 109q226 0 344 -226q64 119 145.5 172.5t196.5 53.5q171 0 264.5 -110t93.5 -283q0 -178 -96.5 -286t-261.5 -108zM1176 449q87 -3 144.5 58
t57.5 157q0 90 -56 150t-146 60q-89 0 -144 -51t-98 -161q58 -204 242 -213zM516 449q86 0 145 51t97 159q-27 106 -90 160.5t-152 54.5t-145 -61t-56 -154q0 -91 56.5 -150.5t144.5 -59.5z" />
    <glyph glyph-name="approxequal" unicode="&#x2248;" horiz-adv-x="1087" 
d="M143 610q0 153 35 205.5t137 52.5q76 0 219 -42t218 -42q40 0 55.5 24.5t15.5 84.5h121q0 -154 -34 -206t-138 -52q-75 0 -218 41t-218 41q-41 0 -56.5 -24.5t-15.5 -82.5h-121zM143 197q0 152 34.5 204t137.5 52q76 0 219 -41t218 -41q41 0 56 24t15 84h121
q0 -156 -34 -207t-138 -51q-75 0 -218 41t-218 41q-41 0 -56.5 -24t-15.5 -82h-121z" />
    <glyph glyph-name="notequal" unicode="&#x2260;" horiz-adv-x="1204" 
d="M258 -45l649 1171l117 -53l-651 -1169zM1044 647h-901v182h901v-182zM1044 268h-901v183h901v-183z" />
    <glyph glyph-name="lessequal" unicode="&#x2264;" horiz-adv-x="1189" 
d="M1044 -119h-901v182h901v-182zM168 610v176l850 336v-178l-627 -246l627 -245v-179z" />
    <glyph glyph-name="greaterequal" unicode="&#x2265;" horiz-adv-x="1189" 
d="M145 -119v182h902v-182h-902zM1022 610l-850 -336v179l627 245l-627 246v178l850 -336v-176z" />
    </font>
</defs>
</svg>
