<?xml version="1.0" standalone="no"?>
<!DOCTYPE svg PUBLIC "-//W3C//DTD SVG 1.1//EN" "http://www.w3.org/Graphics/SVG/1.1/DTD/svg11.dtd" >
<svg xmlns="http://www.w3.org/2000/svg" xmlns:xlink="http://www.w3.org/1999/xlink" version="1.1">
<metadata>
Created by FontForge 20201107 at Wed Jan 29 12:58:37 2025
 By 
Copyright (c) 2024 by Hossein Heidari. All rights reserved. Contemporary Arabic-Latin typeface. Designed byHossein Heidari.
</metadata>
<defs>
<font id="Lahzeh-Thin" horiz-adv-x="0" >
  <font-face 
    font-family="Lahzeh Thin"
    font-weight="100"
    font-stretch="normal"
    units-per-em="2048"
    panose-1="0 0 0 0 0 0 0 0 0 0"
    ascent="1638"
    descent="-410"
    x-height="1022"
    cap-height="1393"
    bbox="-307 -1057 5247 2277"
    underline-thickness="102"
    underline-position="-214"
    unicode-range="U+0020-FFFC"
  />
<missing-glyph horiz-adv-x="1492" 
d="M1130 1313q-105 45 -385 45q-278 0 -383 -45v-1110q105 -45 383 -45q280 0 385 45v1110zM340 0l-135 135v1387h971l112 -115v-1407h-948z" />
    <glyph glyph-name="uni0622" unicode="&#x627;&#x653;" horiz-adv-x="452" 
d="M205 1126l28 11l15 -1131l-15 -6zM-76 1438q382 -59 635 2l-6 -43q-144 -26 -277 -22t-350 42v-209h-14l-14 209z" />
    <glyph glyph-name="uni0623" unicode="&#x627;&#x654;" horiz-adv-x="452" 
d="M70 1229l-9 14l78 49q-29 3 -53 45l-51 82q-23 37 -25 54q-3 18 6 47q4 14 13.5 43.5t13.5 44.5l80 47q33 18 64.5 10t56.5 -39l6 -8l-8 -6q-23 29 -54.5 36t-60.5 -10l-72 -43q-4 -13 -11 -39t-11 -40q-7 -26 -4 -41q3 -20 18 -50l47 -84q20 -37 47 -38.5t74 30.5
l176 115l12 -18zM205 1126l28 11l15 -1131l-15 -6z" />
    <glyph glyph-name="uni0625" unicode="&#x627;&#x655;" horiz-adv-x="458" 
d="M205 1317l31 10l18 -1323l-14 -8zM172 -655l-8 14l78 49q-30 3 -54 45l-51 82q-21 35 -24 53t6 47q4 14 13 44.5t13 44.5l80 47q33 18 64.5 10t56.5 -39l6 -8l-8 -6q-23 29 -54.5 36t-60.5 -10l-71 -43q-4 -13 -11.5 -39.5t-11.5 -40.5q-7 -26 -4 -41q2 -15 19 -49
l47 -84q20 -37 46.5 -38.5t73.5 30.5l177 115l12 -19z" />
    <glyph glyph-name="uni0626.isol" unicode="&#x64a;&#x654;" horiz-adv-x="1548" 
d="M205 477h31v-536q0 -146 103 -248.5t249 -102.5h54.5h63.5t62 0.5t68.5 3t65 5.5t69 8.5t62 12.5t64 17t56.5 23q155 75 176 229q4 36 4 56q0 33 -16.5 44t-65.5 11h-442q-87 0 -119.5 34t-32.5 124v417l246 216h221q83 0 148 -64.5t71 -153.5v-2l-14 -2q-2 69 -67 130
t-140 61h-209l-223 -197l-18 -403q-3 -71 28 -100t109 -29h442q92 0 92 -86q0 -24 -4 -60q-21 -171 -176 -252q-24 -12 -52.5 -22.5t-52.5 -18t-60 -13.5t-57.5 -9.5t-63 -6.5t-59 -4.5t-63 -2t-56.5 -0.5h-59h-52q-158 0 -270.5 114t-112.5 275v532zM264 686l-8 14l78 50
q-29 3 -53 45l-52 82q-21 35 -24 53t6 47q4 14 13.5 43.5t13.5 44.5l79 47q33 18 64.5 10t56.5 -39l6 -8l-8 -6q-23 29 -54 36.5t-60 -9.5l-72 -43q-4 -13 -11.5 -39.5t-11.5 -40.5q-7 -26 -4 -41q2 -15 19 -49l47 -84q20 -37 47 -38.5t74 30.5l176 114l12 -18z" />
    <glyph glyph-name="uni06C0" unicode="&#x647;&#x654;" horiz-adv-x="1155" 
d="M410 1147q101 0 136 8q74 18 93 82q4 20 4 35q0 37 -25 37h-159q-31 0 -43.5 13.5t-12.5 47.5v129l89 78h59q27 0 50.5 -19.5t27.5 -46.5l2 -12l-6 -2q0 25 -23 45.5t-51 20.5h-55l-78 -68l-6 -125q-2 -26 8.5 -36.5t38.5 -10.5h159q33 0 33 -51v-8q0 -28 -7.5 -49.5
t-19.5 -35t-29 -23t-36 -14t-40.5 -7.5t-43.5 -2.5t-43 0.5h-22v14zM754 31q72 0 123 57t51 133q-21 81 -42 175.5t-31.5 139t-25.5 88.5t-34 70q-27 37 -72.5 61t-130.5 48l-53 14l-97 -84q-26 -23 -62.5 -54t-52 -44.5t-34.5 -31.5t-28.5 -29.5t-16.5 -22.5
q-17 -30 -17 -90l-2 -240q0 -76 51 -133t123 -57h351zM418 0q-86 0 -149.5 66.5t-63.5 154.5v240q0 74 20 108q8 13 18.5 25.5t32 32.5t37 33.5t55 48.5t64.5 57l72 61l-176 52v43q45 -15 136 -47.5t136 -47.5q98 -34 146 -58t75 -60q16 -22 28 -49.5t23.5 -74t20 -87.5
t25.5 -126.5t32 -154.5q0 -86 -65.5 -151.5t-153.5 -65.5h-313z" />
    <glyph glyph-name="uniF100" unicode="&#xfe97;&#xfeee;&#xfee3;&#xfe8e;&#x646;" horiz-adv-x="5451" 
d="M3650 -522q304 43 469.5 153.5t162.5 268.5l-2 100h-579q-88 0 -150.5 65t-62.5 154v426l246 215h342q89 0 154 -61t65 -146v-622h749q73 0 132.5 51.5t56.5 120.5l-17 493l31 9v-502q0 -84 -62 -143.5t-155 -59.5h-735v-100q0 -178 -173 -306.5t-458 -162.5l-129 -17
l-12 49zM5169 979l21 -6v-12l-598 -19v37h577zM1847 0q-91 0 -150.5 61t-62.5 156l-30 1098l30 12l15 -1110q1 -78 53.5 -132t126.5 -54h203q263 0 272 178l20 444q4 86 69 146.5t151 60.5h342l245 -215v-426q0 -89 -62.5 -154t-150.5 -65h-346q-79 0 -138 46.5t-116 154.5
q-11 -106 -78 -153.5t-208 -47.5h-185zM2322 254q59 -122 114 -172.5t128 -50.5h375q73 0 127 57.5t51 132.5l-18 412l-224 196h-329q-73 0 -129 -53.5t-62 -124.5zM205 483h31v-501q0 -148 103.5 -252.5t250.5 -104.5q347 0 512 87.5t160 269.5l-21 729l31 10l4 -739
q1 -201 -167 -296.5t-523 -95.5q-157 0 -269 115.5t-112 276.5v501zM684 492v90l109 8v-98h-109zM4256 657q-3 72 -57 122t-126 50h-329l-223 -196l-19 -412q-3 -75 51 -132.5t127 -57.5h602z" />
    <glyph glyph-name="uniF101" unicode="&#xfdfc;&#x61f;&#x61f;" horiz-adv-x="3000" 
d="M2763 625l33 6v-688q0 -82 -36 -151.5t-89 -115t-128 -82.5t-138.5 -56.5t-135.5 -35.5l-12 52q72 13 138.5 33t135.5 53t120.5 74t87 100.5t42.5 128.5zM205 440h31v-499q0 -149 103.5 -253t250.5 -104q316 0 457.5 84.5t136.5 272.5l-25 1187q-2 78 40.5 126t119.5 49
l268 6l31 -19l14 -1073q1 -78 53.5 -132t126.5 -54h431q73 0 132 51.5t56 120.5l-16 493l30 9v-502q0 -84 -62 -143.5t-155 -59.5h-397q-91 0 -150.5 61t-62.5 156l-31 1069l-268 -14q-70 -4 -102.5 -44.5t-32.5 -99.5l14 -1187q3 -209 -141 -300.5t-471 -91.5
q-156 0 -268.5 115t-112.5 277v499zM2204 -332l16 -8v-14l-598 -15v37h582z" />
    <glyph glyph-name="uniF102" unicode="&#xf100;&#x61f;&#x61f;" horiz-adv-x="5451" 
d="M5169 979l21 -6v-12l-598 -19v37h577zM205 440h31v-499q0 -149 103.5 -253t250.5 -104q345 0 508.5 87.5t158.5 269.5l-24 944q-2 78 41 125.5t119 48.5l268 6l31 -18l14 -830q1 -78 53.5 -132t126.5 -54h203q263 0 272 178l21 444q4 86 68.5 146.5t150.5 60.5h342
l246 -215v-426q0 -89 -62.5 -154t-150.5 -65h-346q-79 0 -138 46.5t-116 154.5q-11 -106 -78.5 -153.5t-208.5 -47.5h-184q-91 0 -150.5 61t-62.5 156l-31 825l-268 -14q-64 -3 -101 -41.5t-35 -101.5l15 -944q3 -201 -164 -296.5t-522 -95.5q-157 0 -269 115.5t-112 276.5
v499zM2380 254q20 -41 28.5 -58t27.5 -50t34.5 -48t38.5 -33.5t51 -26t61 -7.5h375q73 0 127 57.5t51 132.5l-18 412l-223 196h-330q-73 0 -128.5 -53t-61.5 -125zM682 455v90l109 8v-98h-109zM3650 -522q304 43 469.5 153.5t162.5 268.5l-2 100h-579q-88 0 -150.5 65
t-62.5 154v426l246 215h342q89 0 154 -61t65 -146v-622h749q73 0 132.5 51.5t56.5 120.5l-17 493l31 9v-502q0 -84 -62 -143.5t-155 -59.5h-735v-100q0 -178 -173 -306.5t-458 -162.5l-129 -17l-12 49zM4256 657q-3 72 -57 122t-126 50h-329l-223 -196l-19 -412
q-3 -75 51 -132.5t127 -57.5h602z" />
    <glyph glyph-name="uni06C0.fina" unicode="&#xfeea;&#x654;" horiz-adv-x="1314" arabic-form="final" 
d="M410 1147q101 0 136 8q74 18 93 82q4 20 4 35q0 37 -25 37h-159q-31 0 -43.5 13.5t-12.5 47.5v129l89 78h59q27 0 50.5 -19.5t27.5 -46.5l2 -12l-6 -2q0 25 -23 45.5t-51 20.5h-55l-78 -68l-6 -125q-2 -26 8.5 -36.5t38.5 -10.5h159q33 0 33 -51v-8q0 -28 -7.5 -49.5
t-19.5 -35t-29 -23t-36 -14t-40.5 -7.5t-43.5 -2.5t-43 0.5h-22v14zM1266 0q-156 0 -220.5 55t-84.5 205q-3 -8 -8.5 -23.5t-8.5 -23.5q-48 -135 -192 -135h-334q-88 0 -151 65t-60 154q2 58 2 123t0.5 93t4 56t11.5 47q9 20 28 41.5t40 40t72.5 63.5t95.5 85l409 69l-14 97
l33 10l86 -735q19 -156 77 -206t214 -50h49q20 0 20 -15q0 -16 -20 -16h-49zM752 109q131 0 170 116q3 10 15 43t17 51l-77 553l-400 -61q-42 -38 -88 -78t-67 -57.5t-39 -37.5t-27 -38q-7 -14 -11.5 -31t-7.5 -44.5t-4.5 -52.5t-5 -77t-6.5 -96q-6 -72 53 -131t134 -59h344
z" />
    <glyph glyph-name="uni0641064A" unicode="&#xfed3;&#xfbfd;" horiz-adv-x="2332" arabic-form="isolated" 
d="M1499 31q21 0 21 -15q0 -16 -21 -16h-176q20 -14 20 -55q0 -35 -2 -51q-15 -131 -104 -211q-42 -37 -103.5 -62.5t-114.5 -38t-137 -19t-127 -7t-128 -0.5h-39q-158 0 -270.5 114t-112.5 275v532h31v-536q0 -146 103 -248.5t249 -102.5q5 0 63.5 -0.5t75 0t72 2t80.5 4.5
t74 8t79 14t68.5 20.5t68.5 28t56 36.5q91 73 106 193q2 16 2 49t-16.5 44t-65.5 11h-606l14 31h840zM1190 0v31h733q82 0 137.5 55t55.5 131v88h-502q-88 0 -150.5 65t-62.5 154v357l246 215h262q87 0 153 -61t66 -146v-672q0 -91 -59.5 -154t-159.5 -63h-719zM2089 893
q-3 73 -57 122.5t-125 49.5h-250l-223 -197l-19 -342q-4 -75 50 -132.5t128 -57.5h523zM1739 1362v90l108 8v-98h-108z" />
    <glyph glyph-name="uni0642064A" unicode="&#xfed7;&#xfbfd;" horiz-adv-x="2332" arabic-form="isolated" 
d="M1499 31q21 0 21 -15q0 -16 -21 -16h-176q20 -14 20 -55q0 -35 -2 -51q-15 -131 -104 -211q-42 -37 -103.5 -62.5t-114.5 -38t-137 -19t-127 -7t-128 -0.5h-39q-158 0 -270.5 114t-112.5 275v532h31v-536q0 -146 103 -248.5t249 -102.5q5 0 63.5 -0.5t75 0t72 2t80.5 4.5
t74 8t79 14t68.5 20.5t68.5 28t56 36.5q91 73 106 193q2 16 2 49t-16.5 44t-65.5 11h-606l14 31h840zM1190 0v31h733q82 0 137.5 55t55.5 131v88h-502q-88 0 -150.5 65t-62.5 154v357l246 215h262q87 0 153 -61t66 -146v-672q0 -91 -59.5 -154t-159.5 -63h-719zM2089 893
q-3 73 -57 122.5t-125 49.5h-250l-223 -197l-19 -342q-4 -75 50 -132.5t128 -57.5h523zM1825 1399v-25l-330 -12v37h330zM1763 1372v27h310l20 -6v-13z" />
    <glyph glyph-name="uni0643064A" unicode="&#xfb90;&#xfbfd;" horiz-adv-x="2191" arabic-form="isolated" 
d="M1753 31q95 0 157 53t62 131l-94 401l-690 373v27l751 293l29 -39l-733 -273l674 -360q14 -70 39.5 -211t38.5 -211q0 -91 -70 -153t-174 -62h-760v31h770zM1499 31q21 0 21 -15q0 -16 -21 -16h-176q20 -14 20 -55q0 -35 -2 -51q-15 -131 -104 -211q-42 -37 -103.5 -62.5
t-114.5 -38t-137 -19t-127 -7t-128 -0.5h-39q-158 0 -270.5 114t-112.5 275v532h31v-536q0 -146 103 -248.5t249 -102.5q5 0 63.5 -0.5t75 0t72 2t80.5 4.5t74 8t79 14t68.5 20.5t68.5 28t56 36.5q91 73 106 193q2 16 2 49t-16.5 44t-65.5 11h-606l14 31h840z" />
    <glyph glyph-name="uni0641064A.fina" unicode="&#xfed4;&#xfbfd;" horiz-adv-x="2529" arabic-form="final" 
d="M1499 31q21 0 21 -15q0 -16 -21 -16h-176q20 -14 20 -55q0 -35 -2 -51q-15 -131 -104 -211q-42 -37 -103.5 -62.5t-114.5 -38t-137 -19t-127 -7t-128 -0.5h-39q-158 0 -270.5 114t-112.5 275v532h31v-536q0 -146 103 -248.5t249 -102.5q5 0 63.5 -0.5t75 0t72 2t80.5 4.5
t74 8t79 14t68.5 20.5t68.5 28t56 36.5q91 73 106 193q2 16 2 49t-16.5 44t-65.5 11h-606l14 31h840zM1724 31q-95 40 -158 109t-63 132q0 154 5 222t28 122q22 50 67.5 100.5t139.5 133.5l272 -41q89 -13 153.5 -81t72.5 -155q37 -440 -205 -542h493q21 0 21 -15
q0 -16 -21 -16h-653h-18h-19h-655v31h540zM1749 815q-81 -74 -123.5 -120.5t-64.5 -90.5q-23 -48 -30.5 -108t-11.5 -186q-1 -25 -1 -38q-2 -46 50.5 -103.5t130 -97.5t140.5 -40h33q206 0 284 124.5t56 417.5q-6 78 -62 140t-137 71zM1810 1116v90l109 8v-98h-109z" />
    <glyph glyph-name="uni0642064A.fina" unicode="&#xfed8;&#xfbfd;" horiz-adv-x="2529" arabic-form="final" 
d="M1499 31q21 0 21 -15q0 -16 -21 -16h-176q20 -14 20 -55q0 -35 -2 -51q-15 -131 -104 -211q-42 -37 -103.5 -62.5t-114.5 -38t-137 -19t-127 -7t-128 -0.5h-39q-158 0 -270.5 114t-112.5 275v532h31v-536q0 -146 103 -248.5t249 -102.5q5 0 63.5 -0.5t75 0t72 2t80.5 4.5
t74 8t79 14t68.5 20.5t68.5 28t56 36.5q91 73 106 193q2 16 2 49t-16.5 44t-65.5 11h-606l14 31h840zM1724 31q-95 40 -158 109t-63 132q0 154 5 222t28 122q22 50 67.5 100.5t139.5 133.5l272 -41q89 -13 153.5 -81t72.5 -155q37 -440 -205 -542h493q21 0 21 -15
q0 -16 -21 -16h-653h-18h-19h-655v31h540zM1749 815q-81 -74 -123.5 -120.5t-64.5 -90.5q-23 -48 -30.5 -108t-11.5 -186q-1 -25 -1 -38q-2 -46 50.5 -103.5t130 -97.5t140.5 -40h33q206 0 284 124.5t56 417.5q-6 78 -62 140t-137 71zM1896 1153v-25l-329 -12v37h329z
M1835 1126v27h309l21 -6v-12z" />
    <glyph glyph-name="uniFDF2" unicode="&#x627;&#xfedf;&#xfee0;&#xfc63;&#xfeea;" horiz-adv-x="2897" arabic-form="isolated" 
d="M1810 0q-81 0 -134 42.5t-70 119.5q-22 -72 -85.5 -117t-146.5 -45h-110q-152 0 -219 57t-87 203l-16 -47q-48 -135 -192 -135h-334q-89 0 -151.5 65.5t-59.5 153.5q2 56 2.5 120.5t1 92t4 55.5t10.5 47q8 21 27 43t39.5 40.5t73 64.5t96.5 86l409 69l-14 97l33 10
l12 -88l74 -647q11 -80 27.5 -127t50 -77.5t82.5 -41t131 -10.5h129q80 0 143.5 59.5t60.5 132.5l-26 846l31 10l12 -856q2 -88 51 -140t131 -52h221q90 0 149 53.5t58 136.5l-26 1098l30 12l15 -1108q1 -98 -66.5 -160.5t-173.5 -62.5h-193zM750 109q131 0 170 116l32 94
l-78 553l-399 -61q-41 -37 -89.5 -78.5t-68 -59t-38 -38t-27.5 -39.5q-8 -18 -13 -44.5t-7 -52t-5.5 -88t-7.5 -112.5q-6 -70 52 -130t135 -60h344zM1565 1829l22 10v-250l-6 -6zM1780 1538l35 4v-162q0 -52 -32 -84t-85 -32q-51 0 -84 30.5t-33 77.5q-1 -49 -36.5 -78.5
t-88.5 -29.5q-48 0 -79 32t-31 84v133h30l-14 -135q-4 -41 23.5 -69.5t70.5 -28.5q47 0 78 28.5t31 71.5v99h26v-99q2 -43 32.5 -71.5t74.5 -28.5q45 0 72.5 28t23.5 70zM2644 1319l31 10l18 -1323l-14 -8z" />
    <glyph glyph-name="uniFDFC" unicode="&#x631;&#xfbfe;&#xfe8e;&#x644;" horiz-adv-x="3180" arabic-form="isolated" 
d="M2976 -119q0 -82 -36 -151.5t-89 -114.5t-128 -82t-138.5 -56.5t-135.5 -35.5l-12 51q72 13 138.5 33t135.5 53t120.5 74t87 100.5t42.5 128.5l-18 744l33 6v-750zM2626 203q0 -84 -62.5 -143.5t-155.5 -59.5h-581q-91 0 -150.5 61t-62.5 156l-31 1098l31 12l14 -1110
q1 -78 53.5 -132t126.5 -54h615q72 0 130 51.5t58 120.5l-16 493l31 9v-502zM2277 -360v-15l-598 -14v37h582zM1276 -59q1 -201 -167 -296.5t-523 -95.5q-156 0 -268.5 115t-112.5 277v499h31v-499q0 -149 103.5 -253t250.5 -104q345 0 510.5 87.5t161.5 269.5l-31 1376
l31 10z" />
    <glyph glyph-name="uni0622.fina" unicode="&#xfe8e;&#x653;" horiz-adv-x="573" arabic-form="final" 
d="M-76 1438q382 -59 635 2l-6 -43q-144 -26 -277 -22t-350 42v-209h-14l-14 209zM449 0q-91 0 -150.5 61t-62.5 156l-31 920l31 12l14 -932q1 -78 53.5 -132t126.5 -54h152q12 0 12 -15q0 -16 -12 -16h-133z" />
    <glyph glyph-name="uni0623.fina" unicode="&#xfe8e;&#x654;" horiz-adv-x="573" arabic-form="final" 
d="M86 1268l-8 14l78 49q-30 3 -54 45l-51 82q-21 35 -24 53q-3 19 6 48q4 14 13 43.5t13 44.5l80 47q33 18 64.5 10t56.5 -39l6 -8l-8 -6q-23 29 -54.5 36t-60.5 -10l-71 -43q-4 -14 -11.5 -40.5t-11.5 -39.5q-7 -26 -4 -41q3 -18 18 -49l48 -84q20 -37 46.5 -38.5
t73.5 30.5l177 115l12 -19zM449 0q-91 0 -150.5 61t-62.5 156l-31 920l31 12l14 -932q1 -78 53.5 -132t126.5 -54h152q12 0 12 -15q0 -16 -12 -16h-133z" />
    <glyph glyph-name="uni0625.fina" unicode="&#xfe8e;&#x655;" horiz-adv-x="581" arabic-form="final" 
d="M205 1315l31 12l14 -1110q1 -78 53.5 -132t126.5 -54h152q20 0 20 -15q0 -16 -20 -16h-133q-91 0 -150.5 61t-62.5 156zM203 -655l-8 14l77 49q-29 3 -53 45l-51 82q-23 37 -25 53t7 47q4 14 13 44.5t13 44.5l80 47q33 18 64.5 10t56.5 -39l6 -8l-8 -6q-23 29 -54.5 36
t-60.5 -10l-72 -43q-4 -13 -11 -39.5t-11 -40.5q-6 -26 -4 -41q3 -18 18 -49l47 -84q20 -37 47 -38.5t74 30.5l176 115l13 -19z" />
    <glyph glyph-name="uni0626.fina" unicode="&#xfef2;&#x654;" horiz-adv-x="1499" arabic-form="final" 
d="M1499 31q21 0 21 -15q0 -16 -21 -16h-176q20 -14 20 -55q0 -35 -2 -51q-15 -131 -104 -211q-42 -37 -103.5 -62.5t-114.5 -38t-137 -19t-127 -7t-128 -0.5h-39q-158 0 -270.5 114t-112.5 275v532h31v-536q0 -146 103 -248.5t249 -102.5q5 0 63.5 -0.5t75 0t72 2t80.5 4.5
t74 8t79 14t68.5 20.5t68.5 28t56 36.5q91 73 106 193q2 16 2 49t-16.5 44t-65.5 11h-606l14 31h840zM811 344l-8 14l78 50q-30 3 -54 45l-51 82q-21 35 -24 53t6 47q4 14 13 43.5t13 44.5l80 47q33 18 64.5 10t56.5 -39l6 -8l-8 -6q-23 29 -54.5 36.5t-60.5 -9.5l-71 -43
q-4 -14 -11.5 -40.5t-11.5 -39.5q-6 -26 -4 -41q3 -18 18 -49l48 -84q20 -37 46.5 -38.5t73.5 30.5l177 114l12 -18z" />
    <glyph glyph-name="uni06440622" unicode="&#xfedf;&#xfe82;" horiz-adv-x="1193" arabic-form="isolated" 
d="M47 1376q382 -59 635 2l-6 -43q-145 -26 -276.5 -21.5t-350.5 42.5v-209h-14l-15 209zM770 33q82 3 144.5 59t60.5 125l-25 1098l33 10l6 -1110q0 -92 -66.5 -153.5t-166.5 -61.5h-551v14zM315 1024l31 10l31 -903l-17 -2z" />
    <glyph glyph-name="uni06440622.fina" unicode="&#xfee0;&#xfe82;" horiz-adv-x="1302" arabic-form="final" 
d="M770 33q82 3 144.5 59t60.5 125l-25 1098l33 10l6 -1110q0 -92 -66.5 -153.5t-166.5 -61.5h-551v14zM315 1024l31 10l31 -903l-17 -2zM1180 0q-89 0 -144.5 64.5t-58.5 158.5h10q3 -82 52.5 -137t127.5 -55h136q20 0 20 -17q0 -14 -20 -14h-123zM47 1376q382 -59 635 2
l-6 -43q-145 -26 -276.5 -21.5t-350.5 42.5v-209h-14l-15 209z" />
    <glyph glyph-name="uni06440623" unicode="&#xfedf;&#xfe84;" horiz-adv-x="1193" arabic-form="isolated" 
d="M770 33q82 3 144.5 59t60.5 125l-25 1098l33 10l6 -1110q0 -92 -66.5 -153.5t-166.5 -61.5h-551v14zM315 1024l31 10l31 -903l-17 -2zM152 1208l-9 15l78 49q-29 3 -53 45l-51 82q-23 37 -25 53q-3 18 6 47q4 15 13.5 44t13.5 44l80 47q33 18 64.5 10.5t56.5 -38.5l6 -9
l-8 -6q-23 29 -54.5 36.5t-60.5 -9.5l-72 -43q-4 -14 -11 -40.5t-11 -39.5q-7 -26 -4 -41q3 -18 18 -49l47 -84q20 -37 47 -38.5t74 30.5l176 114l12 -18z" />
    <glyph glyph-name="uni06440623.fina" unicode="&#xfee0;&#xfe84;" horiz-adv-x="1302" arabic-form="final" 
d="M770 33q82 3 144.5 59t60.5 125l-25 1098l33 10l6 -1110q0 -92 -66.5 -153.5t-166.5 -61.5h-551v14zM315 1024l31 10l31 -903l-17 -2zM1180 0q-89 0 -144.5 64.5t-58.5 158.5h10q3 -82 52.5 -137t127.5 -55h136q20 0 20 -17q0 -14 -20 -14h-123zM152 1208l-9 15l78 49
q-29 3 -53 45l-51 82q-23 37 -25 53q-3 18 6 47q4 15 13.5 44t13.5 44l80 47q33 18 64.5 10.5t56.5 -38.5l6 -9l-8 -6q-23 29 -54.5 36.5t-60.5 -9.5l-72 -43q-4 -14 -11 -40.5t-11 -39.5q-7 -26 -4 -41q3 -18 18 -49l47 -84q20 -37 47 -38.5t74 30.5l176 114l12 -18z" />
    <glyph glyph-name="uni06440625" unicode="&#xfedf;&#xfe88;" horiz-adv-x="1193" arabic-form="isolated" 
d="M205 0v14l565 19q82 3 144.5 59t60.5 125l-25 1098l33 10l6 -1110q0 -92 -66.5 -153.5t-166.5 -61.5h-551zM311 1315l35 10l31 -1194l-17 -2zM274 -635l-8 14l78 50q-29 3 -53 45l-51 82q-23 37 -25 53q-3 18 6 47q4 14 13.5 44t13.5 44l80 47q33 18 64.5 10t56.5 -39
l6 -8l-9 -6q-23 29 -54 36.5t-60 -9.5l-72 -43q-4 -13 -11 -39.5t-11 -40.5q-7 -28 -5 -41q2 -15 19 -49l47 -84q20 -37 47 -38.5t74 30.5l176 114l12 -18z" />
    <glyph glyph-name="uni06440625.fina" unicode="&#xfee0;&#xfe88;" horiz-adv-x="1304" arabic-form="final" 
d="M1182 0q-89 0 -144.5 64.5t-58.5 158.5h10q3 -82 52.5 -137t127.5 -55h136q20 0 20 -17q0 -14 -20 -14h-123zM205 0v14l565 19q82 3 144.5 59t60.5 125l-25 1098l33 10l6 -1110q0 -92 -66.5 -153.5t-166.5 -61.5h-551zM311 1315l35 10l31 -1194l-17 -2zM221 -678l-8 14
l78 50q-29 3 -53 45l-52 82q-21 35 -24 53t6 47q4 15 13.5 44.5t13.5 43.5l79 47q33 18 64.5 10t56.5 -39l6 -8l-8 -6q-23 29 -54 36.5t-60 -9.5l-72 -43q-4 -14 -11.5 -40t-11.5 -40q-6 -26 -4 -41t19 -49l47 -84q20 -37 47 -38.5t74 30.5l176 114l12 -18z" />
    <glyph glyph-name="uni06440627" unicode="&#xfedf;&#xfe8e;" horiz-adv-x="1193" arabic-form="isolated" 
d="M205 0v14l565 19q82 3 144.5 59t60.5 125l-25 1098l33 10l6 -1110q0 -92 -66.5 -153.5t-166.5 -61.5h-551zM311 1315l35 10l31 -1194l-17 -2z" />
    <glyph glyph-name="uni06440627.fina" unicode="&#xfee0;&#xfe8e;" horiz-adv-x="1304" arabic-form="final" 
d="M1182 0q-89 0 -144.5 64.5t-58.5 158.5h10q3 -82 52.5 -137t127.5 -55h136q20 0 20 -17q0 -14 -20 -14h-123zM205 0v14l565 19q82 3 144.5 59t60.5 125l-25 1098l33 10l6 -1110q0 -92 -66.5 -153.5t-166.5 -61.5h-551zM311 1315l35 10l31 -1194l-17 -2z" />
    <glyph glyph-name="aleffathatanar" unicode="&#x627;&#x64b;" horiz-adv-x="452" 
d="M389 1343l12 -16l-391 -98l-6 14zM389 1536l12 -16l-391 -99l-6 15zM205 1126l28 11l15 -1131l-15 -6z" />
    <glyph glyph-name="aleffathatanar.fina" unicode="&#xfe8e;&#x64b;" horiz-adv-x="573" 
d="M389 1343l12 -16l-391 -98l-6 14zM389 1536l12 -16l-391 -99l-6 15zM449 0q-91 0 -150.5 61t-62.5 156l-31 920l31 12l14 -932q1 -78 53.5 -132t126.5 -54h152q12 0 12 -15q0 -16 -12 -16h-133z" />
    <glyph glyph-name="rialsign1" unicode="&#xfdfc;&#x61f;&#x61f;&#x61f;" horiz-adv-x="2508" 
d="M2304 836v-586q0 -170 -134.5 -292t-350.5 -148l-13 43q221 19 354.5 128t129.5 269q-3 95 -9.5 289.5t-9.5 289.5zM205 543h31v-336q0 -316 272 -316q138 0 227.5 18t146 60.5t78.5 109.5t19 169l-25 819q-2 77 40.5 124t119.5 50l166 6l31 -18l14 -787q1 -78 53.5 -132
t126.5 -54h246q73 0 132 51.5t56 120.5l-16 473l31 8v-481q0 -85 -63 -144t-154 -59h-213q-91 0 -150.5 61t-62.5 156l-31 783l-166 -15q-71 -6 -104 -46t-31 -97l14 -819q2 -115 -20 -188t-80.5 -119.5t-151 -65t-237.5 -18.5q-147 0 -223 89t-76 261v336zM1755 -4l17 -8
v-15l-496 -14v37h479z" />
    <glyph glyph-name="rialsign2" unicode="&#xfdfc;&#x61f;&#x61f;&#x61f;&#x61f;" horiz-adv-x="2320" 
d="M1577 -446q233 43 371.5 146t152.5 243l-18 682l33 6v-688q0 -155 -137.5 -270.5t-389.5 -170.5zM705 1128q-2 78 40 126t119 49l289 6l31 -19l14 -1073q1 -78 53.5 -132t126.5 -54h430l-14 -31h-397q-91 0 -150.5 61t-62.5 156l-31 1069l-289 -14q-70 -3 -102.5 -44
t-32.5 -100l14 -1185q2 -155 -135.5 -270.5t-390.5 -170.5l-12 52q248 46 387.5 149.5t136.5 239.5z" />
    <glyph glyph-name="rialsign3" unicode="&#xfdfc;&#x61f;&#x61f;&#x61f;&#x61f;&#x61f;" horiz-adv-x="1951" 
d="M1249 -147q200 16 333.5 119.5t150.5 277.5l-19 579l33 7v-586q0 -83 -31 -153.5t-80 -118.5t-114 -84.5t-129.5 -56t-130.5 -27.5zM664 1067q-3 77 39 123.5t120 50.5l187 6l30 -18l15 -787q1 -78 53.5 -132t126.5 -54h246l-15 -31h-213q-91 0 -150.5 61t-62.5 156
l-30 783l-187 -15q-71 -6 -104 -46t-31 -97l14 -817q3 -167 -132.5 -290.5t-352.5 -149.5l-12 43q221 17 354.5 127t128.5 270z" />
    <glyph glyph-name="tomansign1" unicode="&#xf100;&#x61f;&#x61f;&#x61f;" horiz-adv-x="4212" 
d="M2740 809l205 174h219q87 0 153 -61t66 -146v-520h422q73 0 132.5 51.5t56.5 120.5l-17 453l31 8v-461q0 -84 -62 -143.5t-155 -59.5h-408v-61q0 -281 -579 -287h-74l-10 41q313 -13 481 50.5t168 195.5v61h-416q-88 0 -150.5 65t-62.5 154v365zM2755 446
q-4 -75 50 -132.5t128 -57.5h438l-27 524q-3 73 -57 122.5t-125 49.5h-207l-182 -155zM3930 1102l21 -6v-13l-455 -18v37h434zM205 563h31v-315q0 -155 65 -235.5t207 -80.5q295 0 416.5 81.5t115.5 275.5l-24 696q-3 79 40.5 125t119.5 49l165 6l31 -18l14 -705
q1 -78 54 -132t127 -54h39q263 0 272 178l20 342q6 86 70 146.5t150 60.5h219l205 -174v-365q0 -89 -62.5 -154t-150.5 -65h-213q-77 0 -127 44.5t-99 156.5q-14 -108 -79.5 -154.5t-204.5 -46.5h-21q-91 0 -149.5 61t-63.5 156l-31 701l-165 -15q-65 -6 -101 -43t-35 -100
l15 -696q3 -145 -50 -229.5t-173 -123t-328 -38.5q-147 0 -223 89t-76 261v315zM1896 471q3 -7 12.5 -31t13 -32.5t13 -29.5t15 -29t16.5 -24.5t20 -23.5t23 -18t28 -15.5t32 -8t38 -3.5h242q74 0 128 57.5t50 132.5l-18 351l-182 155h-207q-72 0 -127.5 -53t-63.5 -125z
M561 578v90l109 8v-98h-109z" />
    <glyph glyph-name="tomansign2" unicode="&#xf100;&#x61f;&#x61f;&#x61f;&#x61f;" horiz-adv-x="1886" 
d="M1479 31q73 0 132 51.5t56 120.5l-16 493l30 9v-502q0 -85 -63 -144t-154 -59h-274l-10 -244h-13l-4 244h-448l-2 -244h-13l-8 244h-270q-93 0 -155 59.5t-62 143.5v502l31 -9l-17 -493q-3 -69 56.5 -120.5t132.5 -51.5h1071zM1190 348h-23l-6 365h41zM721 713l-6 -365
h-21l-10 365h37z" />
    <glyph glyph-name="lellah" unicode="&#xfedf;&#xfee0;&#xfc63;&#xfeea;" horiz-adv-x="2447" 
d="M1810 0q-81 0 -134 42.5t-70 119.5q-22 -72 -85.5 -117t-146.5 -45h-110q-152 0 -219 57t-87 203l-16 -47q-48 -135 -192 -135h-334q-89 0 -151.5 65.5t-59.5 153.5q2 56 2.5 120.5t1 92t4 55.5t10.5 47q8 21 27 43t39.5 40.5t73 64.5t96.5 86l409 69l-14 97l33 10
l12 -88l74 -647q11 -80 27.5 -127t50 -77.5t82.5 -41t131 -10.5h129q80 0 143.5 59.5t60.5 132.5l-26 846l31 10l12 -856q2 -88 51 -140t131 -52h221q90 0 149 53.5t58 136.5l-26 1098l30 12l15 -1108q1 -98 -66.5 -160.5t-173.5 -62.5h-193zM750 109q131 0 170 116l32 94
l-78 553l-399 -61q-41 -37 -89.5 -78.5t-68 -59t-38 -38t-27.5 -39.5q-8 -18 -13 -44.5t-7 -52t-5.5 -88t-7.5 -112.5q-6 -70 52 -130t135 -60h344zM1565 1829l22 10v-250l-6 -6zM1780 1538l35 4v-162q0 -52 -32 -84t-85 -32q-51 0 -84 30.5t-33 77.5q-1 -49 -36.5 -78.5
t-88.5 -29.5q-48 0 -79 32t-31 84v133h30l-14 -135q-4 -41 23.5 -69.5t70.5 -28.5q47 0 78 28.5t31 71.5v99h26v-99q2 -43 32.5 -71.5t74.5 -28.5q45 0 72.5 28t23.5 70z" />
    <glyph glyph-name="uni06A9064A.fina" unicode="&#xfb91;&#xfbfd;" horiz-adv-x="2363" 
d="M2363 0q-39 0 -74 6t-63 13.5t-56 24.5t-47.5 29.5t-43 38t-37 40.5t-34.5 46t-30 46l-30 50t-29 48v-106q0 -106 -71 -171t-189 -65h-678v31h700q94 0 160 60t66 145v126q-65 102 -125 148l-596 471v45l696 291l27 -41l-695 -275l582 -458q44 -35 85 -91t70 -110.5
t69 -112t82 -100.5t109.5 -70.5t151.5 -27.5q21 0 21 -15q0 -16 -21 -16zM1499 31q21 0 21 -15q0 -16 -21 -16h-176q20 -14 20 -55q0 -35 -2 -51q-15 -131 -104 -211q-42 -37 -103.5 -62.5t-114.5 -38t-137 -19t-127 -7t-128 -0.5h-39q-158 0 -270.5 114t-112.5 275v532h31
v-536q0 -146 103 -248.5t249 -102.5q5 0 63.5 -0.5t75 0t72 2t80.5 4.5t74 8t79 14t68.5 20.5t68.5 28t56 36.5q91 73 106 193q2 16 2 49t-16.5 44t-65.5 11h-606l14 31h840z" />
    <glyph glyph-name="uni06AF064A" unicode="&#xfb94;&#xfbfd;" horiz-adv-x="2189" 
d="M1751 31q95 0 157 53t62 131l-94 401l-690 373v27l751 293l29 -39l-733 -273l674 -360q13 -70 39 -211t39 -211q0 -91 -70 -153t-174 -62h-760v31h770zM1739 1460l-563 -209l-7 15l19 14l534 217zM1499 31q21 0 21 -15q0 -16 -21 -16h-176q20 -14 20 -55q0 -35 -2 -51
q-15 -131 -104 -211q-42 -37 -103.5 -62.5t-114.5 -38t-137 -19t-127 -7t-128 -0.5h-39q-158 0 -270.5 114t-112.5 275v532h31v-536q0 -146 103 -248.5t249 -102.5q5 0 63.5 -0.5t75 0t72 2t80.5 4.5t74 8t79 14t68.5 20.5t68.5 28t56 36.5q91 73 106 193q2 16 2 49
t-16.5 44t-65.5 11h-606l14 31h840z" />
    <glyph glyph-name="uni06AF064A.fina" unicode="&#xfb95;&#xfbfd;" horiz-adv-x="2361" 
d="M2361 0q-39 0 -74 6t-63 13.5t-56 24.5t-47.5 29.5t-43 38t-37 40.5t-34.5 46t-30 46l-30 50t-29 48v-106q0 -106 -71 -171t-189 -65h-678v31h700q94 0 160 60t66 145v126q-65 102 -125 148l-596 471v45l696 291l27 -41l-695 -275l582 -458q44 -35 85 -91t70 -110.5
t69 -112t82 -100.5t109.5 -70.5t151.5 -27.5q21 0 21 -15q0 -16 -21 -16zM1708 1495l-563 -209l-6 14l18 15l535 217zM1499 31q21 0 21 -15q0 -16 -21 -16h-176q20 -14 20 -55q0 -35 -2 -51q-15 -131 -104 -211q-42 -37 -103.5 -62.5t-114.5 -38t-137 -19t-127 -7t-128 -0.5
h-39q-158 0 -270.5 114t-112.5 275v532h31v-536q0 -146 103 -248.5t249 -102.5q5 0 63.5 -0.5t75 0t72 2t80.5 4.5t74 8t79 14t68.5 20.5t68.5 28t56 36.5q91 73 106 193q2 16 2 49t-16.5 44t-65.5 11h-606l14 31h840z" />
    <glyph glyph-name="Bitcoin" unicode="&#xfe91;&#xfbff;&#xfe98;&#xfb91;&#xfeee;&#xfbfe;&#xfee6;&#x61f;&#x61f;" horiz-adv-x="1323" 
d="M793 1393q175 0 255 -80.5t80 -257.5q0 -150 -56 -230t-185 -112v-2q133 -17 195.5 -104t62.5 -253q0 -186 -88.5 -270t-282.5 -84h-594v1393h613zM776 721q151 0 235.5 84.5t84.5 236.5q0 172 -75 247t-245 75h-563v-643h563zM782 29q174 0 252 78.5t78 252.5
q0 170 -80.5 251t-249.5 81h-569v-663h569zM758 1681h24v-303h-24v303zM442 1681h25v-303h-25v303zM758 14h24v-303h-24v303zM442 14h25v-303h-25v303z" />
    <glyph glyph-name="USDT" unicode="&#xfe97;&#xfe98;&#xfeae;&#x61f;&#x61f;" horiz-adv-x="1488" 
d="M727 1364h-481v29h997v-29h-483v-627q-17 -3 -33 0v627zM172 791q0 50 118 84.5t287 42.5t337.5 0t286.5 -42.5t118 -84.5t-118 -84.5t-286.5 -42.5t-337.5 0t-287 42.5t-118 84.5zM209 791q0 -51 167.5 -80.5t368 -30t368 29t167.5 81.5t-167.5 81.5t-368 29t-368 -30
t-167.5 -80.5zM727 670q16 -3 33 0v-670h-33v670z" />
    <glyph glyph-name="uni062A0627" unicode="&#xfe97;&#xfe8e;" horiz-adv-x="1452" 
d="M582 0v31h462q73 0 132.5 51.5t56.5 120.5l-16 493l30 9v-502q0 -84 -62 -143.5t-155 -59.5h-448zM205 1315l31 12l14 -1110q1 -78 53.5 -132t126.5 -54h152q20 0 20 -15q0 -16 -20 -16h-133q-91 0 -150.5 61t-62.5 156zM1032 1069v-25l-330 -12v37h330zM971 1042v27h309
l20 -6v-12z" />
    <glyph glyph-name="uni062A0627.fina" unicode="&#xfe98;&#xfe8e;" horiz-adv-x="1454" 
d="M1339 0q-74 0 -128.5 45.5t-73.5 116.5q-22 -70 -84 -116t-140 -46h-333v31h352q78 0 130 54t52 130v432l31 4v-436q0 -76 52 -130t130 -54h127q21 0 21 -15q0 -16 -21 -16h-115zM205 1315l31 12l14 -1110q1 -78 53.5 -132t126.5 -54h152q20 0 20 -15q0 -16 -20 -16h-133
q-91 0 -150.5 61t-62.5 156zM1049 969v-25l-330 -12v37h330zM987 942v27h309l21 -6v-13z" />
    <glyph glyph-name="uni062B0627" unicode="&#xfe9b;&#xfe8e;" horiz-adv-x="1452" 
d="M582 0v31h462q73 0 132.5 51.5t56.5 120.5l-16 493l30 9v-502q0 -84 -62 -143.5t-155 -59.5h-448zM205 1315l31 12l14 -1110q1 -78 53.5 -132t126.5 -54h152q20 0 20 -15q0 -16 -20 -16h-133q-91 0 -150.5 61t-62.5 156zM946 1292v90l109 9v-99h-109zM1032 1069v-25
l-330 -12v37h330zM971 1042v27h309l20 -6v-12z" />
    <glyph glyph-name="uni062B0627.fina" unicode="&#xfe9c;&#xfe8e;" horiz-adv-x="1454" 
d="M1339 0q-74 0 -128.5 45.5t-73.5 116.5q-22 -70 -84 -116t-140 -46h-333v31h352q78 0 130 54t52 130v432l31 4v-436q0 -76 52 -130t130 -54h127q21 0 21 -15q0 -16 -21 -16h-115zM205 1315l31 12l14 -1110q1 -78 53.5 -132t126.5 -54h152q20 0 20 -15q0 -16 -20 -16h-133
q-91 0 -150.5 61t-62.5 156zM963 1192v90l108 8v-98h-108zM1049 969v-25l-330 -12v37h330zM987 942v27h309l21 -6v-13z" />
    <glyph glyph-name="uni0621" unicode="&#x621;" horiz-adv-x="1064" arabic-form="isolated" 
d="M305 -20l-14 24l131 82q-25 3 -45 19.5t-45 54.5l-86 137q-34 56 -39 85t10 83q7 24 21.5 73t21.5 72l133 78q53 31 109 17.5t94 -64.5l10 -14l-14 -11q-38 50 -92 63.5t-101 -15.5l-118 -72l-37 -133q-12 -43 -7.5 -75.5t29.5 -76.5l78 -139q34 -60 78.5 -63t124.5 49
l293 192l20 -31z" />
    <glyph glyph-name="uni0624" unicode="&#x624;" horiz-adv-x="1216" arabic-form="isolated" 
d="M367 -522q304 43 469.5 153.5t162.5 268.5l-2 100h-579q-88 0 -150.5 65t-62.5 154v426l246 215h342q89 0 154 -61t65 -146v-753q0 -178 -173 -306.5t-458 -162.5l-129 -17l-12 49zM973 657q-3 73 -57 122.5t-125 49.5h-330l-223 -196l-19 -412q-3 -75 51 -132.5
t127 -57.5h602zM514 1311l-8 14l78 49q-30 3 -54 45l-51 82q-21 35 -24 53q-3 19 6 48q4 15 13 44.5t13 43.5l80 47q33 18 64.5 10t56.5 -39l6 -8l-8 -6q-23 29 -54.5 36t-60.5 -10l-71 -43q-4 -14 -11.5 -40t-11.5 -40q-7 -26 -4 -41q2 -15 19 -49l47 -84
q20 -37 46.5 -38.5t73.5 30.5l177 115l12 -19z" />
    <glyph glyph-name="uni0627" unicode="&#x627;" horiz-adv-x="458" arabic-form="isolated" 
d="M205 1317l31 10l18 -1323l-14 -8z" />
    <glyph glyph-name="uni0628" unicode="&#x628;" horiz-adv-x="1886" arabic-form="isolated" 
d="M397 0q-79 0 -135.5 61t-56.5 142v403l31 2v-405q0 -71 40.5 -121.5t106.5 -50.5h1096q73 0 132 51.5t56 120.5l-16 493l30 9v-502q0 -84 -62 -143.5t-155 -59.5h-1067zM922 -492v95l100 8v-103h-100z" />
    <glyph glyph-name="uni0629" unicode="&#x629;" horiz-adv-x="1155" arabic-form="isolated" 
d="M754 31q72 0 123 57t51 133q-21 81 -42 175.5t-31.5 139t-25.5 88.5t-34 70q-27 37 -72.5 61t-130.5 48l-53 14l-97 -84q-26 -23 -62.5 -54t-52 -44.5t-34.5 -31.5t-28.5 -29.5t-16.5 -22.5q-17 -30 -17 -90l-2 -240q0 -76 51 -133t123 -57h351zM418 0q-86 0 -149.5 66.5
t-63.5 154.5v240q0 74 20 108q8 13 18.5 25.5t32 32.5t37 33.5t55 48.5t64.5 57l72 61l-176 52v43q45 -15 136 -47.5t136 -47.5q98 -34 146 -58t75 -60q16 -22 28 -49.5t23.5 -74t20 -87.5t25.5 -126.5t32 -154.5q0 -86 -65.5 -151.5t-153.5 -65.5h-313zM557 1133v-25
l-330 -12v37h330zM496 1106v27h309l20 -7v-12z" />
    <glyph glyph-name="uni062A" unicode="&#x62a;" horiz-adv-x="1886" arabic-form="isolated" 
d="M397 0q-79 0 -135.5 61t-56.5 142v403l31 2v-405q0 -71 40.5 -121.5t106.5 -50.5h1096q73 0 132 51.5t56 120.5l-16 493l30 9v-502q0 -84 -62 -143.5t-155 -59.5h-1067zM999 805v-25l-329 -12v37h329zM938 778v27h309l21 -6v-13z" />
    <glyph glyph-name="uni062B" unicode="&#x62b;" horiz-adv-x="1886" arabic-form="isolated" 
d="M397 0q-79 0 -135.5 61t-56.5 142v403l31 2v-405q0 -71 40.5 -121.5t106.5 -50.5h1096q73 0 132 51.5t56 120.5l-16 493l30 9v-502q0 -84 -62 -143.5t-155 -59.5h-1067zM913 1028v90l109 8v-98h-109zM999 805v-25l-329 -12v37h329zM938 778v27h309l21 -6v-13z" />
    <glyph glyph-name="uni062C" unicode="&#x62c;" horiz-adv-x="1511" arabic-form="isolated" 
d="M727 -190v90l109 8v-98h-109zM506 -578q-112 0 -204.5 86.5t-94.5 192.5l-2 137q-3 177 54 257.5t222 133.5l670 211l-557 310q-46 24 -96 24q-54 0 -99.5 -26.5t-70.5 -73.5l-64 -123l-26 18l63 119q29 56 81.5 87.5t113.5 31.5q53 0 114 -33l697 -383l-17 -29l-108 60
l-695 -219q-146 -46 -204 -127t-58 -238l-2 -135q0 -91 82 -165t180 -73l676 9l-8 -52h-647z" />
    <glyph glyph-name="uni062D" unicode="&#x62d;" horiz-adv-x="1513" arabic-form="isolated" 
d="M508 -578q-112 0 -204.5 86.5t-94.5 192.5l-2 137q-3 177 54 257.5t222 133.5l670 211l-557 310q-46 24 -96 24q-54 0 -99.5 -26.5t-70.5 -73.5l-64 -123l-26 18l63 119q29 56 81.5 87.5t113.5 31.5q53 0 114 -33l697 -383l-17 -29l-108 60l-695 -219q-146 -46 -204 -127
t-58 -238l-2 -135q0 -91 82 -165t180 -73l676 9l-8 -52h-647z" />
    <glyph glyph-name="uni062E" unicode="&#x62e;" horiz-adv-x="1513" arabic-form="isolated" 
d="M508 -578q-112 0 -204.5 86.5t-94.5 192.5l-2 137q-3 177 54 257.5t222 133.5l670 211l-557 310q-46 24 -96 24q-54 0 -99.5 -26.5t-70.5 -73.5l-64 -123l-26 18l63 119q29 56 81.5 87.5t113.5 31.5q53 0 114 -33l697 -383l-17 -29l-108 60l-695 -219q-146 -46 -204 -127
t-58 -238l-2 -135q0 -91 82 -165t180 -73l676 9l-8 -52h-647zM444 1135v90l109 8v-98h-109z" />
    <glyph glyph-name="uni062F" unicode="&#x62f;" horiz-adv-x="1239" arabic-form="isolated" 
d="M406 0q-88 0 -144.5 57.5t-56.5 147.5v69l31 5v-74q0 -78 40 -126t109 -48h467q70 0 119 55t49 131l-127 506l-465 168v31l500 -181l106 -524q0 -88 -61 -152.5t-144 -64.5h-423z" />
    <glyph glyph-name="uni0630" unicode="&#x630;" horiz-adv-x="1239" arabic-form="isolated" 
d="M406 0q-88 0 -144.5 57.5t-56.5 147.5v69l31 5v-74q0 -78 40 -126t109 -48h467q70 0 119 55t49 131l-127 506l-465 168v31l500 -181l106 -524q0 -88 -61 -152.5t-144 -64.5h-423zM428 1239v90l109 8v-98h-109z" />
    <glyph glyph-name="uni0631" unicode="&#x631;" horiz-adv-x="641" arabic-form="isolated" 
d="M403 625l33 6v-750q0 -155 -137 -270t-389 -170l-12 51q233 43 371.5 146t152.5 243z" />
    <glyph glyph-name="uni0632" unicode="&#x632;" horiz-adv-x="641" arabic-form="isolated" 
d="M403 625l33 6v-750q0 -155 -137 -270t-389 -170l-12 51q233 43 371.5 146t152.5 243zM365 958v91l108 8v-99h-108z" />
    <glyph glyph-name="uni0633" unicode="&#x633;" horiz-adv-x="2762" arabic-form="isolated" 
d="M586 -410q-157 0 -269 115.5t-112 276.5v501h31v-501q0 -149 103.5 -253t250.5 -104q73 0 116.5 1t124 8t131.5 19.5t115 38.5t100.5 63t61.5 95t23 132l-21 729l31 10l2 -512q9 -75 94.5 -126.5t200.5 -51.5q102 0 192 52.5t119 135.5l84 424l33 2l-84 -422
q1 -74 67.5 -133t145.5 -59h115q53 0 100 7.5t96 26t78 58t29 96.5l-17 477l31 9v-486q0 -61 -29 -106t-77.5 -68.5t-100.5 -34t-110 -10.5h-97q-88 0 -158.5 53.5t-87.5 130.5q-39 -77 -133 -130.5t-196 -53.5q-95 0 -178.5 47.5t-114.5 116.5v-182q0 -62 -15 -114
t-39.5 -90t-64.5 -68t-78.5 -49.5t-94 -33t-98.5 -21t-104.5 -11.5t-100 -4.5t-95.5 -0.5z" />
    <glyph glyph-name="uni0634" unicode="&#x634;" horiz-adv-x="2762" arabic-form="isolated" 
d="M586 -410q-157 0 -269 115.5t-112 276.5v501h31v-501q0 -149 103.5 -253t250.5 -104q73 0 116.5 1t124 8t131.5 19.5t115 38.5t100.5 63t61.5 95t23 132l-21 729l31 10l2 -512q9 -75 94.5 -126.5t200.5 -51.5q102 0 192 52.5t119 135.5l84 424l33 2l-84 -422
q1 -74 67.5 -133t145.5 -59h115q53 0 100 7.5t96 26t78 58t29 96.5l-17 477l31 9v-486q0 -61 -29 -106t-77.5 -68.5t-100.5 -34t-110 -10.5h-97q-88 0 -158.5 53.5t-87.5 130.5q-39 -77 -133 -130.5t-196 -53.5q-95 0 -178.5 47.5t-114.5 116.5v-182q0 -62 -15 -114
t-39.5 -90t-64.5 -68t-78.5 -49.5t-94 -33t-98.5 -21t-104.5 -11.5t-100 -4.5t-95.5 -0.5zM1925 1223v90l109 8v-98h-109zM2011 999v-24l-330 -12v36h330zM1950 973v26h309l20 -6v-12z" />
    <glyph glyph-name="uni0635" unicode="&#x635;" horiz-adv-x="2590" arabic-form="isolated" 
d="M586 -410q-156 0 -268.5 115t-112.5 277v501h31v-501q0 -149 103.5 -253t250.5 -104q347 0 512 87.5t160 269.5l-21 729l31 10l2 -533q22 -35 43 -63l266 410q88 135 169 188t228 65q82 7 164 7l242 -215v-361q0 -86 -61.5 -152.5t-145.5 -66.5h-698q-57 0 -113.5 37.5
t-91.5 97.5v-153q1 -201 -167 -296.5t-523 -95.5zM1333 106q69 -75 148 -75h714q72 0 126 58t51 130l-17 348l-217 199q-90 0 -158 -6q-140 -12 -218 -63t-158 -175z" />
    <glyph glyph-name="uni0636" unicode="&#x636;" horiz-adv-x="2590" arabic-form="isolated" 
d="M586 -410q-156 0 -268.5 115t-112.5 277v501h31v-501q0 -149 103.5 -253t250.5 -104q347 0 512 87.5t160 269.5l-21 729l31 10l2 -533q22 -35 43 -63l266 410q88 135 169 188t228 65q82 7 164 7l242 -215v-361q0 -86 -61.5 -152.5t-145.5 -66.5h-698q-57 0 -113.5 37.5
t-91.5 97.5v-153q1 -201 -167 -296.5t-523 -95.5zM1333 106q69 -75 148 -75h714q72 0 126 58t51 130l-17 348l-217 199q-90 0 -158 -6q-140 -12 -218 -63t-158 -175zM1952 1106v90l108 8v-98h-108z" />
    <glyph glyph-name="uni0637" unicode="&#x637;" horiz-adv-x="1662" arabic-form="isolated" 
d="M217 0l-12 55l139 -4l123 191l-29 1079l31 8l10 -973l-6 -102l182 281q89 138 170.5 189.5t227.5 63.5q82 7 164 7l241 -215v-361q0 -86 -61.5 -152.5t-145.5 -66.5h-1034zM1268 31q71 -1 125 57t51 131l-17 348l-217 199q-90 0 -157 -6q-136 -12 -215 -62t-162 -176
l-307 -471z" />
    <glyph glyph-name="uni0638" unicode="&#x638;" horiz-adv-x="1662" arabic-form="isolated" 
d="M217 0l-12 55l139 -4l123 191l-29 1079l31 8l10 -973l-6 -102l182 281q89 138 170.5 189.5t227.5 63.5q82 7 164 7l241 -215v-361q0 -86 -61.5 -152.5t-145.5 -66.5h-1034zM1268 31q71 -1 125 57t51 131l-17 348l-217 199q-90 0 -157 -6q-136 -12 -215 -62t-162 -176
l-307 -471zM1030 1106v90l109 8v-98h-109z" />
    <glyph glyph-name="uni0639.isol" unicode="&#x639;" horiz-adv-x="1251" arabic-form="isolated" 
d="M424 -584q-89 0 -154 65.5t-65 156.5v47q1 178 38 247t144 95q-99 40 -102 186l-2 94q0 28 -0.5 71.5t-0.5 62t1.5 44t4.5 42.5t9 32q5 11 12 23t13.5 21.5t20.5 24.5t23 24.5t31 30t35 32.5t44 40.5t50 45.5h213q97 0 160.5 -62.5t63.5 -156.5v-2l-19 -7q0 82 -61 139.5
t-144 57.5h-202q-17 -16 -45 -41.5t-40 -37t-32 -30t-29 -27.5t-21.5 -23t-19 -23.5t-13 -20.5t-11.5 -22q-4 -11 -7 -21.5t-5.5 -26.5t-3.5 -26t-2.5 -34t-2 -35.5t-1.5 -45t-1 -49.5l-2 -92q-3 -93 56 -139t163 -31l516 76l11 -37l-543 -80q-68 -10 -109.5 -19.5
t-76.5 -28t-52 -40.5t-29 -63.5t-15 -89t-3 -125.5q0 -77 54 -133.5t126 -55.5l639 19l-14 -52h-600z" />
    <glyph glyph-name="uni063A" unicode="&#x63a;" horiz-adv-x="1251" arabic-form="isolated" 
d="M424 -584q-89 0 -154 65.5t-65 156.5v47q1 178 38 247t144 95q-99 40 -102 186l-2 94q0 28 -0.5 71.5t-0.5 62t1.5 44t4.5 42.5t9 32q5 11 12 23t13.5 21.5t20.5 24.5t23 24.5t31 30t35 32.5t44 40.5t50 45.5h213q97 0 160.5 -62.5t63.5 -156.5v-2l-19 -7q0 82 -61 139.5
t-144 57.5h-202q-17 -16 -45 -41.5t-40 -37t-32 -30t-29 -27.5t-21.5 -23t-19 -23.5t-13 -20.5t-11.5 -22q-4 -11 -7 -21.5t-5.5 -26.5t-3.5 -26t-2.5 -34t-2 -35.5t-1.5 -45t-1 -49.5l-2 -92q-3 -93 56 -139t163 -31l516 76l11 -37l-543 -80q-68 -10 -109.5 -19.5
t-76.5 -28t-52 -40.5t-29 -63.5t-15 -89t-3 -125.5q0 -77 54 -133.5t126 -55.5l639 19l-14 -52h-600zM610 1108v90l109 8v-98h-109z" />
    <glyph glyph-name="uni0641" unicode="&#x641;" horiz-adv-x="1964" arabic-form="isolated" 
d="M397 0q-79 0 -135.5 61t-56.5 142v403l31 2v-405q0 -71 40.5 -121.5t106.5 -50.5h719v-31h-705zM821 0v31h733q82 0 137.5 55t55.5 131v88h-502q-88 0 -150.5 65t-62.5 154v357l246 215h262q87 0 153 -61t66 -146v-672q0 -91 -59.5 -154t-159.5 -63h-719zM1720 893
q-3 73 -57 122.5t-125 49.5h-250l-223 -197l-18 -342q-4 -75 50 -132.5t128 -57.5h522zM1366 1362v90l109 8v-98h-109z" />
    <glyph glyph-name="uni0642" unicode="&#x642;" horiz-adv-x="1548" arabic-form="isolated" 
d="M588 -475q-158 0 -270.5 114t-112.5 275v532h31v-536q0 -146 103 -248t249 -102h45q41 1 85 0t90.5 2l93 6t92.5 12.5t88.5 21.5t80.5 31.5t68.5 44.5t54 59.5t35.5 76.5q12 47 12 133v22h-504q-88 0 -150.5 65t-62.5 154v357l246 215h262q87 0 153 -61t66 -146v-639
q0 -81 -27 -144.5t-63.5 -104t-104.5 -69t-118.5 -42t-139.5 -21t-133.5 -8t-131.5 -0.5h-37zM1305 557q-3 71 -56.5 121.5t-126.5 50.5h-250l-223 -197l-18 -342q-4 -75 50 -132.5t128 -57.5h522zM1044 1063v-25l-329 -12v37h329zM983 1036v27h309l21 -6v-13z" />
    <glyph glyph-name="uni0643" unicode="&#x643;" horiz-adv-x="1898" arabic-form="isolated" 
d="M397 0q-82 0 -137 55t-55 148v403l31 2v-405q0 -71 40.5 -121.5t106.5 -50.5h1077q95 0 158 53t61 131l-30 1112l30 12l15 -1124q0 -91 -70 -153t-174 -62h-1053zM1055 526q28 3 44.5 19t16.5 39q0 39 -41 63l-278 162v22l317 130l25 -33l-303 -113l266 -151
q45 -25 45 -70q0 -34 -28.5 -60t-71.5 -32l-279 -41v31z" />
    <glyph glyph-name="uni0644" unicode="&#x644;" horiz-adv-x="1482" arabic-form="isolated" 
d="M586 -451q-156 0 -268.5 115t-112.5 277v499h31v-499q0 -149 103.5 -253t250.5 -104q346 0 511 88t161 269l-31 1376l31 10l14 -1386q2 -201 -166 -296.5t-524 -95.5z" />
    <glyph glyph-name="uni0645" unicode="&#x645;" horiz-adv-x="1411" arabic-form="isolated" 
d="M1206 219q0 -94 -65 -161t-148 -58l-563 57q-93 11 -152 -43.5t-55 -146.5l21 -481l-39 -21l4 504q2 102 71 160t179 49l47 -4q-105 57 -123 174l16 405q3 86 67 146.5t152 60.5h343l245 -215v-426zM397 252q31 -91 88.5 -136.5t153.5 -52.5l375 -32q70 -6 125.5 53
t52.5 137l-18 412l-224 196h-329q-72 0 -128.5 -53t-62.5 -125z" />
    <glyph glyph-name="uni0646" unicode="&#x646;" horiz-adv-x="1480" arabic-form="isolated" 
d="M205 483h31v-501q0 -149 103.5 -253t250.5 -104q347 0 512 87.5t160 269.5l-21 729l31 10l4 -739q1 -201 -167 -296.5t-523 -95.5q-157 0 -269 115.5t-112 276.5v501zM686 639v90l109 8v-98h-109z" />
    <glyph glyph-name="uni0647.isol" unicode="&#x647;" horiz-adv-x="1155" arabic-form="isolated" 
d="M754 31q72 0 123 57t51 133q-21 81 -42 175.5t-31.5 139t-25.5 88.5t-34 70q-27 37 -72.5 61t-130.5 48l-53 14l-97 -84q-26 -23 -62.5 -54t-52 -44.5t-34.5 -31.5t-28.5 -29.5t-16.5 -22.5q-17 -30 -17 -90l-2 -240q0 -76 51 -133t123 -57h351zM418 0q-86 0 -149.5 66.5
t-63.5 154.5v240q0 74 20 108q8 13 18.5 25.5t32 32.5t37 33.5t55 48.5t64.5 57l72 61l-176 52v43q45 -15 136 -47.5t136 -47.5q98 -34 146 -58t75 -60q16 -22 28 -49.5t23.5 -74t20 -87.5t25.5 -126.5t32 -154.5q0 -86 -65.5 -151.5t-153.5 -65.5h-313z" />
    <glyph glyph-name="uni0648" unicode="&#x648;" horiz-adv-x="1216" arabic-form="isolated" 
d="M367 -522q304 43 469.5 153.5t162.5 268.5l-2 100h-579q-88 0 -150.5 65t-62.5 154v426l246 215h342q89 0 154 -61t65 -146v-753q0 -178 -173 -306.5t-458 -162.5l-129 -17l-12 49zM973 657q-3 73 -57 122.5t-125 49.5h-330l-223 -196l-19 -412q-3 -75 51 -132.5
t127 -57.5h602z" />
    <glyph glyph-name="uni0649" unicode="&#x649;" horiz-adv-x="1548" arabic-form="isolated" 
d="M205 477h31v-536q0 -146 103 -248.5t249 -102.5h54.5h63.5t62 0.5t68.5 3t65 5.5t69 8.5t62 12.5t64 17t56.5 23q155 75 176 229q4 36 4 56q0 33 -16.5 44t-65.5 11h-442q-87 0 -119.5 34t-32.5 124v417l246 216h221q83 0 148 -64.5t71 -153.5v-2l-14 -2q-2 69 -67 130
t-140 61h-209l-223 -197l-18 -403q-3 -71 28 -100t109 -29h442q92 0 92 -86q0 -24 -4 -60q-21 -171 -176 -252q-24 -12 -52.5 -22.5t-52.5 -18t-60 -13.5t-57.5 -9.5t-63 -6.5t-59 -4.5t-63 -2t-56.5 -0.5h-59h-52q-158 0 -270.5 114t-112.5 275v532z" />
    <glyph glyph-name="uni064A.isol" unicode="&#x64a;" horiz-adv-x="1548" arabic-form="isolated" 
d="M205 477h31v-536q0 -146 103 -248.5t249 -102.5h54.5h63.5t62 0.5t68.5 3t65 5.5t69 8.5t62 12.5t64 17t56.5 23q155 75 176 229q4 36 4 56q0 33 -16.5 44t-65.5 11h-442q-87 0 -119.5 34t-32.5 124v417l246 216h221q83 0 148 -64.5t71 -153.5v-2l-14 -2q-2 69 -67 130
t-140 61h-209l-223 -197l-18 -403q-3 -71 28 -100t109 -29h442q92 0 92 -86q0 -24 -4 -60q-21 -171 -176 -252q-24 -12 -52.5 -22.5t-52.5 -18t-60 -13.5t-57.5 -9.5t-63 -6.5t-59 -4.5t-63 -2t-56.5 -0.5h-59h-52q-158 0 -270.5 114t-112.5 275v532zM743 -731v24l330 13
v-37h-330zM805 -705v-26h-309l-21 6v12z" />
    <glyph glyph-name="uni066E.fina" unicode="&#x66e;" horiz-adv-x="1994" 
d="M397 0q-79 0 -135.5 61t-56.5 142v403l31 2v-405q0 -71 40.5 -121.5t106.5 -50.5h1096q73 0 132 51.5t56 120.5l-16 493l30 9v-502q0 -84 -62 -143.5t-155 -59.5h-1067zM1872 0q-89 0 -144.5 64.5t-58.5 158.5h10q3 -82 53 -137t128 -55h135q20 0 20 -17q0 -14 -20 -14
h-123z" />
    <glyph glyph-name="uni066F.fina" unicode="&#x66f;" horiz-adv-x="1568" 
d="M1309 0v31h260q20 0 20 -15q0 -16 -20 -16h-260zM588 -444q-158 0 -270.5 114t-112.5 275v532h31v-536q0 -146 103 -248.5t249 -102.5h45q41 1 85 0t90.5 2l93 6t92.5 12.5t88.5 21.5t80.5 31.5t68.5 44.5t54 59.5t35.5 76.5q12 47 12 133v23h-504q-88 0 -150.5 65
t-62.5 154v356l246 216h262q87 0 153 -61t66 -146v-639q0 -81 -27 -144.5t-63.5 -104t-104.5 -69t-118.5 -42t-139.5 -21t-133.5 -8t-131.5 -0.5h-37zM1305 588q-3 71 -56.5 121.5t-126.5 50.5h-250l-223 -197l-18 -342q-4 -75 50 -132.5t128 -57.5h522z" />
    <glyph glyph-name="uni0671.isol" unicode="&#x671;" horiz-adv-x="452" arabic-form="isolated" 
d="M221 1270q-64 0 -89 15t-44 65l-31 82l-106 -150l-10 12l112 154l13 -2l34 -90q16 -40 35 -53l80 131q27 48 68 69q43 19 100 19l86 -76v-107q0 -32 -20 -50.5t-54 -18.5h-174zM406 1286q25 0 39.5 14.5t13.5 38.5l-6 99l-76 69q-55 0 -90 -18q-32 -16 -58 -59l-86 -134
q20 -10 58 -10h205zM205 1126l28 11l15 -1131l-15 -6z" />
    <glyph glyph-name="uni0679" unicode="&#x679;" horiz-adv-x="1886" arabic-form="isolated" 
d="M397 0q-79 0 -135.5 61t-56.5 142v403l31 2v-405q0 -71 40.5 -121.5t106.5 -50.5h1096q73 0 132 51.5t56 120.5l-16 493l30 9v-502q0 -84 -62 -143.5t-155 -59.5h-1067zM819 825l31 54l-8 299l16 10v-273v-26l51 84q25 39 50 58.5t59 25.5q32 4 59 4l86 -76v-106
q0 -32 -19.5 -51t-53.5 -19h-271v16zM1100 825q25 0 39.5 14.5t13.5 39.5l-6 98l-76 70q-16 0 -51 -5q-31 -6 -52.5 -22.5t-43.5 -50.5l-93 -144h269z" />
    <glyph glyph-name="uni067E" unicode="&#x67e;" horiz-adv-x="1886" arabic-form="isolated" 
d="M397 0q-79 0 -135.5 61t-56.5 142v403l31 2v-405q0 -71 40.5 -121.5t106.5 -50.5h1096q73 0 132 51.5t56 120.5l-16 493l30 9v-502q0 -84 -62 -143.5t-155 -59.5h-1067zM922 -748v95l100 8v-103h-100zM1001 -389v-25l-329 -12v37h329zM940 -416v27h309l21 -6v-13z" />
    <glyph glyph-name="uni0686" unicode="&#x686;" horiz-adv-x="1513" arabic-form="isolated" 
d="M836 -55l208 -23l-481 -4v27h273zM776 -80l-2 25h258l17 -11v-12zM762 -295v70l86 10v-80h-86zM508 -578q-112 0 -204.5 86.5t-94.5 192.5l-2 137q-3 177 54 257.5t222 133.5l670 211l-557 310q-46 24 -96 24q-54 0 -99.5 -26.5t-70.5 -73.5l-64 -123l-26 18l63 119
q29 56 81.5 87.5t113.5 31.5q53 0 114 -33l697 -383l-17 -29l-108 60l-695 -219q-146 -46 -204 -127t-58 -238l-2 -135q0 -91 82 -165t180 -73l676 9l-8 -52h-647z" />
    <glyph glyph-name="uni0688" unicode="&#x688;" horiz-adv-x="1239" arabic-form="isolated" 
d="M406 0q-88 0 -144.5 57.5t-56.5 147.5v69l31 5v-74q0 -78 40 -126t109 -48h467q70 0 119 55t49 131l-127 506l-465 168v31l500 -181l106 -524q0 -88 -61 -152.5t-144 -64.5h-423zM334 1296l31 54l-9 299l17 10v-273v-26l51 84q26 40 50 59t58 25q32 4 60 4l86 -76v-106
q0 -32 -20 -51t-54 -19h-270v16zM614 1296q25 0 40 15t14 39l-6 98l-76 70q-16 0 -51 -5q-57 -11 -97 -73l-92 -144h268z" />
    <glyph glyph-name="uni0691" unicode="&#x691;" horiz-adv-x="641" arabic-form="isolated" 
d="M403 625l33 6v-750q0 -155 -137 -270t-389 -170l-12 51q233 43 371.5 146t152.5 243zM270 1016l31 53l-8 299l16 10v-272v-27l51 84q25 39 50 58.5t59 25.5q32 4 59 4l86 -75v-107q0 -32 -19.5 -51t-53.5 -19h-271v17zM551 1016q25 0 39.5 14.5t13.5 38.5l-6 98l-76 70
q-23 0 -51 -4q-30 -6 -52 -23t-44 -51l-92 -143h268z" />
    <glyph glyph-name="uni0695.fina" unicode="&#x695;" horiz-adv-x="749" 
d="M668 0q-81 0 -145 44.5t-87 115.5v-279q0 -155 -137 -270t-389 -170l-12 51q233 43 371.5 146t152.5 243l-19 744l33 6v-412q5 -80 69.5 -134t162.5 -54h82q20 0 20 -15q0 -16 -20 -16h-82zM244 -987h-13l138 373l20 -2zM240 -981l-9 -6l-168 356l19 15z" />
    <glyph glyph-name="uni0698" unicode="&#x698;" horiz-adv-x="641" arabic-form="isolated" 
d="M403 625l33 6v-750q0 -155 -137 -270t-389 -170l-12 51q233 43 371.5 146t152.5 243zM365 1219v90l108 8v-98h-108zM451 995v-24l-330 -13v37h330zM389 969v26h309l21 -6v-12z" />
    <glyph glyph-name="uni06A0.init" unicode="&#x6a0;" horiz-adv-x="1259" 
d="M-2 0v31h379q-78 44 -78 170v22q0 60 -2 128t-2.5 99t2.5 63t12 54q5 13 12 25t20.5 27.5t23 26.5t33 33t37.5 35t49.5 45.5t56.5 51.5h231q96 0 159.5 -62.5t63.5 -156.5v-2l-18 -6q0 80 -60.5 138t-144.5 58h-221q-20 -19 -51.5 -47t-45.5 -40.5t-35 -32.5t-31 -30.5
t-22 -24.5t-19 -25.5t-13 -24.5q-8 -18 -12.5 -37t-6 -52t-1.5 -56.5t0.5 -84t0.5 -100.5v-24q0 -99 56.5 -138.5t189.5 -33.5l488 24l6 -35q-53 -2 -153.5 -7t-182.5 -8t-154 -3h-567zM645 1368v90l109 8v-98h-109zM731 1145v-25l-330 -12v37h330zM670 1118v27h309l20 -6
v-13z" />
    <glyph glyph-name="uni06A0.medi" unicode="&#x6a0;" horiz-adv-x="1435" 
d="M979 0q-131 0 -229 33q-115 -33 -279 -33h-473v31h473q120 0 225 24q-148 70 -237.5 242.5t-147.5 486.5l-88 -2l17 39l792 8q83 -89 110 -132.5t25 -86.5q-1 -28 -15.5 -81t-38.5 -124t-28 -83q-62 -196 -280 -273q79 -18 174 -18h457q20 0 20 -15q0 -6 -5.5 -11
t-14.5 -5h-457zM745 68q128 37 213.5 106t112.5 160q4 13 25.5 80t35 118t13.5 78q0 39 -25 79.5t-98 117.5l-696 -21q70 -324 166 -491.5t253 -226.5zM645 1368v90l109 8v-98h-109zM731 1145v-25l-330 -12v37h330zM670 1118v27h309l20 -6v-13z" />
    <glyph glyph-name="uni06A0.fina" unicode="&#x6a0;" horiz-adv-x="1417" 
d="M430 -584q-89 0 -154 65.5t-65 156.5v53q1 69 5 114.5t17.5 83.5t32.5 59.5t54.5 39.5t79 28t110.5 19q26 4 81 11t81 11q-145 70 -234 243t-145 484l-88 -2l16 39l793 8q83 -89 110 -132.5t25 -86.5q-1 -28 -15.5 -81t-38.5 -124t-28 -83q-62 -196 -281 -273
q80 -18 175 -18h456q21 0 21 -15q0 -6 -6 -11t-15 -5h-456q-134 0 -232 33q-36 -5 -109.5 -14.5t-109.5 -14.5q-68 -9 -109 -18.5t-76 -28t-52.5 -40t-29.5 -63.5t-15 -90t-3 -126q0 -76 54 -133t127 -56l638 19l-14 -52h-600zM727 68q128 37 213.5 106t112.5 160
q0 1 24 76.5t36.5 124.5t12.5 75q0 39 -24.5 78.5t-97.5 118.5l-697 -21q70 -323 166.5 -491t253.5 -227zM645 1368v90l109 8v-98h-109zM731 1145v-25l-330 -12v37h330zM670 1118v27h309l20 -6v-13z" />
    <glyph glyph-name="uni06A1.init" unicode="&#x6a1;" horiz-adv-x="1140" 
d="M-2 0v31h733q82 0 137.5 55t55.5 131v88h-502q-88 0 -150.5 65t-62.5 154v357l246 215h262q87 0 153 -61t66 -146v-672q0 -91 -59.5 -154t-159.5 -63h-719zM897 893q-3 73 -57 122.5t-125 49.5h-250l-223 -197l-19 -342q-4 -75 50 -132.5t128 -57.5h523z" />
    <glyph glyph-name="uni06A1.medi" unicode="&#x6a1;" horiz-adv-x="1343" 
d="M539 31q-95 40 -158.5 109t-63.5 132q0 154 5 222t28 122q22 50 67.5 100.5t139.5 133.5l272 -41q89 -13 153.5 -81t72.5 -155q37 -440 -205 -542h493q21 0 21 -15q0 -16 -21 -16h-653h-18h-19h-655v31h541zM563 815q-81 -74 -123.5 -120.5t-64.5 -90.5
q-23 -48 -30.5 -108t-11.5 -186q-1 -25 -1 -38q-2 -46 50.5 -103.5t130 -97.5t140.5 -40h33q206 0 284 124.5t56 417.5q-6 78 -62 140t-137 71z" />
    <glyph glyph-name="uni06A1.fina" unicode="&#x6a1;" horiz-adv-x="2164" 
d="M397 0q-79 0 -135.5 61t-56.5 142v403l31 2v-405q0 -71 40.5 -121.5t106.5 -50.5h719v-31h-705zM1360 31q-95 40 -158 109t-63 132q0 112 1 156t8 97.5t23 90.5q22 50 67.5 100.5t139.5 133.5l273 -41q89 -13 153 -81t72 -155q37 -440 -205 -542h494q20 0 20 -15
q0 -16 -20 -16h-654h-18h-18h-656v31h541zM1384 815q-81 -74 -123.5 -120.5t-64.5 -90.5q-23 -48 -30.5 -108t-11.5 -186q-1 -25 -1 -38q-2 -46 51 -103.5t130.5 -97.5t140.5 -40h32q206 0 284 124.5t56 417.5q-6 78 -61.5 140t-136.5 71z" />
    <glyph glyph-name="uni06A4" unicode="&#x6a4;" horiz-adv-x="1964" arabic-form="isolated" 
d="M397 0q-79 0 -135.5 61t-56.5 142v403l31 2v-405q0 -71 40.5 -121.5t106.5 -50.5h719v-31h-705zM821 0v31h733q82 0 137.5 55t55.5 131v88h-502q-88 0 -150.5 65t-62.5 154v357l246 215h262q87 0 153 -61t66 -146v-672q0 -91 -59.5 -154t-159.5 -63h-719zM1720 893
q-3 73 -57 122.5t-125 49.5h-250l-223 -197l-18 -342q-4 -75 50 -132.5t128 -57.5h522zM1366 1622v90l109 8v-98h-109zM1452 1399v-25l-330 -12v37h330zM1391 1372v27h309l20 -6v-13z" />
    <glyph glyph-name="uni06A9" unicode="&#x6a9;" horiz-adv-x="1898" arabic-form="isolated" 
d="M397 0q-82 0 -137 55t-55 148v403l31 2v-405q0 -71 40.5 -121.5t106.5 -50.5h1077q94 0 156.5 52.5t62.5 131.5l-94 401l-690 373v27l752 293l28 -39l-733 -273l674 -360q13 -70 39 -211t39 -211q0 -92 -70.5 -153.5t-173.5 -61.5h-1053z" />
    <glyph glyph-name="uni06AA.init" unicode="&#x6aa;" horiz-adv-x="1552" 
d="M-2 0v31h1147q80 0 135.5 54.5t52.5 131.5l-14 348q-3 74 -63.5 123t-143.5 45l-938 -49l-6 31l530 545l37 -27l-522 -512l881 41q114 4 184 -52t70 -151v-342q0 -97 -60 -157t-155 -60h-1135z" />
    <glyph glyph-name="uni06AA.medi" unicode="&#x6aa;" horiz-adv-x="1660" 
d="M-2 0v31h1147q80 0 135.5 54.5t52.5 131.5l-14 348q-3 74 -63.5 123t-143.5 45l-938 -49l-6 31l530 545l37 -27l-522 -512l881 41q114 4 184 -52t70 -151v-342q0 -97 -60 -157t-155 -60h-1135zM1538 0q-89 0 -144.5 64.5t-58.5 158.5h11q3 -82 52.5 -137t127.5 -55h135
q20 0 20 -17q0 -14 -20 -14h-123z" />
    <glyph glyph-name="uni06AA.fina" unicode="&#x6aa;" horiz-adv-x="1986" 
d="M1671 217q0 -97 -60 -157t-155 -60h-1237l-14 51l1263 -20q80 -2 136 53t53 133l-15 348q-3 73 -62.5 122.5t-143.5 45.5l-938 -49l-6 31l530 545l37 -27l-522 -512l880 41q115 6 184.5 -49.5t69.5 -153.5v-342zM1864 0q-89 0 -144.5 64.5t-58.5 158.5h10
q3 -82 52.5 -137t127.5 -55h136q20 0 20 -17q0 -14 -20 -14h-123z" />
    <glyph glyph-name="uni06AF" unicode="&#x6af;" horiz-adv-x="1898" arabic-form="isolated" 
d="M397 0q-82 0 -137 55t-55 148v403l31 2v-405q0 -71 40.5 -121.5t106.5 -50.5h1077q94 0 156.5 52.5t62.5 131.5l-94 401l-690 373v27l752 293l28 -39l-733 -273l674 -360q13 -70 39 -211t39 -211q0 -92 -70.5 -153.5t-173.5 -61.5h-1053zM1487 1460l-563 -209l-6 15
l18 14l534 217z" />
    <glyph glyph-name="uni06B5.init" unicode="&#x6b5;" horiz-adv-x="563" 
d="M-2 0v31h133q90 0 149 54.5t58 137.5l-27 1104l31 12l14 -1116q1 -98 -66 -160.5t-173 -62.5h-119zM334 1647h-12l137 372l20 -2zM330 1653l-8 -6l-168 356l18 14z" />
    <glyph glyph-name="uni06B5.medi" unicode="&#x6b5;" horiz-adv-x="653" 
d="M-2 0v31h123q80 0 143 59.5t62 132.5l-27 1104l31 10l12 -1114q2 -88 51 -140t131 -52h129q21 0 21 -15q0 -16 -21 -16h-114q-81 0 -134.5 42.5t-70.5 119.5q-22 -72 -85.5 -117t-146.5 -45h-104zM334 1647h-12l137 372l20 -2zM330 1653l-8 -6l-168 356l18 14z" />
    <glyph glyph-name="uni06B5.fina" unicode="&#x6b5;" horiz-adv-x="1587" 
d="M586 -451q-156 0 -268.5 115t-112.5 277v499h31v-499q0 -149 103.5 -253t250.5 -104q346 0 511 88t161 269l-31 1376l31 10l14 -1386q2 -201 -166 -296.5t-524 -95.5zM1464 0q-89 0 -144 64.5t-58 158.5h10q3 -82 52.5 -137t127.5 -55h135q21 0 21 -17q0 -14 -21 -14
h-123zM1264 1634h-13l138 373l20 -2zM1260 1640l-9 -6l-168 357l19 14z" />
    <glyph glyph-name="uni06BA.isol" unicode="&#x6ba;" horiz-adv-x="1482" arabic-form="isolated" 
d="M205 483h31v-501q0 -149 103.5 -253t250.5 -104q347 0 512 87.5t160 269.5l-21 729l31 10l4 -739q1 -201 -167 -296.5t-523 -95.5q-157 0 -269 115.5t-112 276.5v501z" />
    <glyph glyph-name="uni06BD.init" unicode="&#x6bd;" horiz-adv-x="868" 
d="M-2 0v31h463q73 0 132 51.5t56 120.5l-16 493l31 9v-502q0 -84 -62.5 -143.5t-155.5 -59.5h-448zM254 -748v95l100 8v-103h-100zM334 -389v-25l-330 -12v37h330zM272 -416v27h310l20 -6v-13z" />
    <glyph glyph-name="uni06BD.medi" unicode="&#x6bd;" horiz-adv-x="892" 
d="M758 0q-74 0 -129 45.5t-74 116.5q-22 -70 -83.5 -116t-139.5 -46h-334v31h352q78 0 130 54t52 130v432l31 4v-436q0 -76 52 -130t130 -54h148q20 0 20 -15q0 -16 -20 -16h-135zM285 -748v95l100 8v-103h-100zM365 -389v-25l-330 -12v37h330zM303 -416v27h309l21 -6v-13z
" />
    <glyph glyph-name="uni06BE" unicode="&#x6be;" horiz-adv-x="1648" arabic-form="isolated" 
d="M322 270v68v63t0.5 49.5t2.5 48.5t5 37t8 38.5t12 31.5q19 43 58 87t118 116l-178 29v43l725 -133q63 -12 94.5 -20t62 -21t46.5 -34t30.5 -49.5t30.5 -78.5q18 -53 54 -163t53 -163q0 -85 -63.5 -152t-149.5 -67h-246q-58 0 -117 41q-37 -22 -65 -29q-62 -14 -576 -123
l-22 43l407 78q-126 32 -208 105t-82 155zM336 270q-3 -67 97.5 -144.5t211.5 -94.5q38 0 67 1.5t59 7t52 15t44 25t36.5 38t27.5 52.5t20 69t11.5 88.5t4 110t-5.5 133.5q-3 60 -44.5 114t-103.5 79l-244 39q-86 -77 -127 -122t-63 -89q-17 -35 -25.5 -84.5t-11 -90.5
t-6.5 -147zM1249 31q76 0 128.5 56.5t52.5 131.5q-20 51 -59 156.5t-58 156.5q-16 42 -26 66t-26 46t-28.5 32t-40.5 20t-54 15.5t-77 13.5l-180 29q103 -73 112 -183q15 -213 -10 -335t-90 -177q36 -28 80 -28h276z" />
    <glyph glyph-name="uni06C1" unicode="&#x6c1;" horiz-adv-x="1155" arabic-form="isolated" 
d="M754 31q72 0 123 57t51 133q-21 81 -42 175.5t-31.5 139t-25.5 88.5t-34 70q-27 37 -72.5 61t-130.5 48l-53 14l-97 -84q-26 -23 -62.5 -54t-52 -44.5t-34.5 -31.5t-28.5 -29.5t-16.5 -22.5q-17 -30 -17 -90l-2 -240q0 -76 51 -133t123 -57h351zM418 0q-86 0 -149.5 66.5
t-63.5 154.5v240q0 74 20 108q8 13 18.5 25.5t32 32.5t37 33.5t55 48.5t64.5 57l72 61l-176 52v43q45 -15 136 -47.5t136 -47.5q98 -34 146 -58t75 -60q16 -22 28 -49.5t23.5 -74t20 -87.5t25.5 -126.5t32 -154.5q0 -86 -65.5 -151.5t-153.5 -65.5h-313z" />
    <glyph glyph-name="uni06C2.fina" unicode="&#x6c2;" horiz-adv-x="1314" 
d="M1266 0q-156 0 -220.5 55t-84.5 205q-3 -8 -8.5 -23.5t-8.5 -23.5q-48 -135 -192 -135h-334q-88 0 -151 65t-60 154q2 58 2 123t0.5 93t4 56t11.5 47q9 20 28 41.5t40 40t72.5 63.5t95.5 85l409 69l-14 97l33 10l86 -735q19 -156 77 -206t214 -50h49q20 0 20 -15
q0 -16 -20 -16h-49zM752 109q131 0 170 116q3 10 15 43t17 51l-77 553l-400 -61q-42 -38 -88 -78t-67 -57.5t-39 -37.5t-27 -38q-7 -14 -11.5 -31t-7.5 -44.5t-4.5 -52.5t-5 -77t-6.5 -96q-6 -72 53 -131t134 -59h344zM524 1280l-8 14l78 49q-28 3 -53 46l-52 81
q-21 35 -24 54q-3 18 6 47q4 15 13.5 44t13.5 44l80 47q66 38 120 -29l7 -8l-9 -6q-23 29 -54 36.5t-60 -9.5l-72 -43q-4 -13 -11.5 -40t-11.5 -40q-7 -26 -4 -41q2 -15 19 -49l47 -84q20 -37 47 -39t74 30l176 115l12 -18z" />
    <glyph glyph-name="uni06C3.fina" unicode="&#x6c3;" horiz-adv-x="1220" 
d="M1169 0q-153 0 -214.5 52t-88.5 190l-90 475l-303 -33q-25 -22 -62 -55t-53 -47.5t-38.5 -35.5t-33 -33.5t-21 -27t-17.5 -28.5q-4 -8 -7 -16.5t-5 -19t-3.5 -18.5t-3 -22t-2 -23t-1 -28t-0.5 -29.5t-0.5 -35t-0.5 -38.5l-2 -149l-18 -4v153q0 114 3 161t17 81
q5 13 12 25t20 27t23 26t33.5 33t38.5 35.5t51.5 46t59.5 53.5l346 47l78 -518q19 -118 81.5 -165.5t200.5 -47.5h52q20 0 20 -15q0 -16 -20 -16h-52zM674 1096v-25l-330 -12v37h330zM612 1069v27h310l20 -6v-13z" />
    <glyph glyph-name="uni06C6.isol" unicode="&#x6c6;" horiz-adv-x="1216" arabic-form="isolated" 
d="M367 -522q304 43 469.5 153.5t162.5 268.5l-2 100h-579q-88 0 -150.5 65t-62.5 154v426l246 215h342q89 0 154 -61t65 -146v-753q0 -178 -173 -306.5t-458 -162.5l-129 -17l-12 49zM973 657q-3 73 -57 122.5t-125 49.5h-330l-223 -196l-19 -412q-3 -75 51 -132.5
t127 -57.5h602zM668 1311h-13l138 372l20 -2zM664 1317l-9 -6l-168 356l19 14z" />
    <glyph glyph-name="uni06C9" unicode="&#x6c9;" horiz-adv-x="1216" arabic-form="isolated" 
d="M367 -522q304 43 469.5 153.5t162.5 268.5l-2 100h-579q-88 0 -150.5 65t-62.5 154v426l246 215h342q89 0 154 -61t65 -146v-753q0 -178 -173 -306.5t-458 -162.5l-129 -17l-12 49zM973 657q-3 73 -57 122.5t-125 49.5h-330l-223 -196l-19 -412q-3 -75 51 -132.5
t127 -57.5h602zM793 1311l-138 372h13l145 -370zM487 1327l168 356l9 -6l-158 -364z" />
    <glyph glyph-name="uni06CC" unicode="&#x6cc;" horiz-adv-x="1548" arabic-form="isolated" 
d="M205 477h31v-536q0 -146 103 -248.5t249 -102.5h54.5h63.5t62 0.5t68.5 3t65 5.5t69 8.5t62 12.5t64 17t56.5 23q155 75 176 229q4 36 4 56q0 33 -16.5 44t-65.5 11h-442q-87 0 -119.5 34t-32.5 124v417l246 216h221q83 0 148 -64.5t71 -153.5v-2l-14 -2q-2 69 -67 130
t-140 61h-209l-223 -197l-18 -403q-3 -71 28 -100t109 -29h442q92 0 92 -86q0 -24 -4 -60q-21 -171 -176 -252q-24 -12 -52.5 -22.5t-52.5 -18t-60 -13.5t-57.5 -9.5t-63 -6.5t-59 -4.5t-63 -2t-56.5 -0.5h-59h-52q-158 0 -270.5 114t-112.5 275v532z" />
    <glyph glyph-name="uni06CE.init" unicode="&#x6ce;" horiz-adv-x="868" 
d="M-2 0v31h463q73 0 132 51.5t56 120.5l-16 493l31 9v-502q0 -84 -62.5 -143.5t-155.5 -59.5h-448zM334 -389v-25l-330 -12v37h330zM272 -416v27h310l20 -6v-13zM403 973h-12l137 373l21 -3zM399 979l-8 -6l-168 356l19 14z" />
    <glyph glyph-name="uni06CE.medi" unicode="&#x6ce;" horiz-adv-x="892" 
d="M758 0q-74 0 -129 45.5t-74 116.5q-22 -70 -83.5 -116t-139.5 -46h-334v31h352q78 0 130 54t52 130v432l31 4v-436q0 -76 52 -130t130 -54h148q20 0 20 -15q0 -16 -20 -16h-135zM365 -389v-25l-330 -12v37h330zM303 -416v27h309l21 -6v-13zM455 973h-13l138 373l20 -3z
M451 979l-9 -6l-168 356l19 14z" />
    <glyph glyph-name="uni06CE.fina" unicode="&#x6ce;" horiz-adv-x="1499" 
d="M1499 31q21 0 21 -15q0 -16 -21 -16h-176q20 -14 20 -55q0 -35 -2 -51q-15 -131 -104 -211q-42 -37 -103.5 -62.5t-114.5 -38t-137 -19t-127 -7t-128 -0.5h-39q-158 0 -270.5 114t-112.5 275v532h31v-536q0 -146 103 -248.5t249 -102.5q5 0 63.5 -0.5t75 0t72 2t80.5 4.5
t74 8t79 14t68.5 20.5t68.5 28t56 36.5q91 73 106 193q2 16 2 49t-16.5 44t-65.5 11h-606l14 31h840zM999 338h-12l137 373l21 -2zM995 344l-8 -6l-168 356l19 15z" />
    <glyph glyph-name="uni06CF.fina" unicode="&#x6cf;" horiz-adv-x="1241" 
d="M1241 31q21 0 21 -15q0 -16 -21 -16h-260v31h260zM367 -522q304 43 469.5 153.5t162.5 268.5l-2 100h-579q-88 0 -150.5 65t-62.5 154v426l246 215h342q89 0 154 -61t65 -146v-753q0 -178 -173 -306.5t-458 -162.5l-129 -17l-12 49zM973 657q-3 73 -57 122.5t-125 49.5
h-330l-223 -196l-19 -412q-3 -75 51 -132.5t127 -57.5h602zM594 1270v90l108 8v-98h-108z" />
    <glyph glyph-name="uni06D2.isol" unicode="&#x6d2;" horiz-adv-x="1400" arabic-form="isolated" 
d="M459 0q-118 0 -186 70t-68 190v459l246 215h157q60 0 105.5 -34t89.5 -112l104 -184l-30 -20l-109 202q-34 63 -71 90t-89 27h-147l-223 -196l-19 -445q-4 -104 65 -168.5t175 -62.5l737 12l-8 -43h-729z" />
    <glyph glyph-name="uni06D3" unicode="&#x6d3;" horiz-adv-x="1400" arabic-form="isolated" 
d="M459 0q-118 0 -186 70t-68 190v459l246 215h157q60 0 105.5 -34t89.5 -112l104 -184l-30 -20l-109 202q-34 63 -71 90t-89 27h-147l-223 -196l-19 -445q-4 -104 65 -168.5t175 -62.5l737 12l-8 -43h-729zM362 1094l-8 14l78 49q-29 3 -53 45l-51 82q-23 37 -25 53
q-3 18 6 47q4 14 13.5 44t13.5 45l80 47q33 18 64.5 10t56.5 -39l6 -8l-8 -6q-23 29 -54.5 36t-60.5 -10l-72 -43q-4 -13 -11 -39.5t-11 -40.5q-6 -26 -4 -41q3 -18 18 -49l47 -84q20 -37 47 -38.5t74 30.5l176 115l12 -19z" />
    <glyph glyph-name="uni06D5.fina" unicode="&#x6d5;" horiz-adv-x="1314" 
d="M1266 0q-156 0 -220.5 55t-84.5 205q-3 -8 -8.5 -23.5t-8.5 -23.5q-48 -135 -192 -135h-334q-88 0 -151 65t-60 154q2 58 2 123t0.5 93t4 56t11.5 47q9 20 28 41.5t40 40t72.5 63.5t95.5 85l409 69l-14 97l33 10l86 -735q19 -156 77 -206t214 -50h49q20 0 20 -15
q0 -16 -20 -16h-49zM752 109q131 0 170 116q3 10 15 43t17 51l-77 553l-400 -61q-42 -38 -88 -78t-67 -57.5t-39 -37.5t-27 -38q-7 -14 -11.5 -31t-7.5 -44.5t-4.5 -52.5t-5 -77t-6.5 -96q-6 -72 53 -131t134 -59h344z" />
    <glyph glyph-name="uni0671.fina" unicode="&#x671;" horiz-adv-x="573" arabic-form="final" 
d="M221 1270q-64 0 -89 15t-44 65l-31 82l-106 -150l-10 12l112 154l13 -2l34 -90q16 -40 35 -53l80 131q27 48 68 69q43 19 100 19l86 -76v-107q0 -32 -20 -50.5t-54 -18.5h-174zM406 1286q25 0 39.5 14.5t13.5 38.5l-6 99l-76 69q-55 0 -90 -18q-32 -16 -58 -59l-86 -134
q20 -10 58 -10h205zM449 0q-91 0 -150.5 61t-62.5 156l-31 920l31 12l14 -932q1 -78 53.5 -132t126.5 -54h152q12 0 12 -15q0 -16 -12 -16h-133z" />
    <glyph glyph-name="uni067E.fina" unicode="&#x67e;" horiz-adv-x="1994" arabic-form="final" 
d="M397 0q-79 0 -135.5 61t-56.5 142v403l31 2v-405q0 -71 40.5 -121.5t106.5 -50.5h1096q73 0 132 51.5t56 120.5l-16 493l30 9v-502q0 -84 -62 -143.5t-155 -59.5h-1067zM1872 0q-89 0 -144.5 64.5t-58.5 158.5h10q3 -82 53 -137t128 -55h135q20 0 20 -17q0 -14 -20 -14
h-123zM920 -748v95l100 8v-103h-100zM999 -389v-25l-329 -12v37h329zM938 -416v27h309l21 -6v-13z" />
    <glyph glyph-name="uni067E.init" unicode="&#x67e;" horiz-adv-x="868" arabic-form="initial" 
d="M-2 0v31h463q73 0 132 51.5t56 120.5l-16 493l31 9v-502q0 -84 -62.5 -143.5t-155.5 -59.5h-448zM254 -748v95l100 8v-103h-100zM334 -389v-25l-330 -12v37h330zM272 -416v27h310l20 -6v-13z" />
    <glyph glyph-name="uni067E.medi" unicode="&#x67e;" horiz-adv-x="892" arabic-form="medial" 
d="M758 0q-74 0 -129 45.5t-74 116.5q-22 -70 -83.5 -116t-139.5 -46h-334v31h352q78 0 130 54t52 130v432l31 4v-436q0 -76 52 -130t130 -54h148q20 0 20 -15q0 -16 -20 -16h-135zM285 -748v95l100 8v-103h-100zM365 -389v-25l-330 -12v37h330zM303 -416v27h309l21 -6v-13z
" />
    <glyph glyph-name="uni0679.fina" unicode="&#x679;" horiz-adv-x="1994" arabic-form="final" 
d="M397 0q-79 0 -135.5 61t-56.5 142v403l31 2v-405q0 -71 40.5 -121.5t106.5 -50.5h1096q73 0 132 51.5t56 120.5l-16 493l30 9v-502q0 -84 -62 -143.5t-155 -59.5h-1067zM1872 0q-89 0 -144.5 64.5t-58.5 158.5h10q3 -82 53 -137t128 -55h135q20 0 20 -17q0 -14 -20 -14
h-123zM817 825l31 54l-8 299l16 10v-273v-26l51 84q25 39 50 58.5t59 25.5q32 4 59 4l86 -76v-106q0 -32 -20 -51t-54 -19h-270v16zM1098 825q25 0 39.5 14.5t13.5 39.5l-6 98l-76 70q-16 0 -51 -5q-31 -6 -52.5 -22.5t-43.5 -50.5l-93 -144h269z" />
    <glyph glyph-name="uni0679.init" unicode="&#x679;" horiz-adv-x="868" arabic-form="initial" 
d="M-2 0v31h463q73 0 132 51.5t56 120.5l-16 493l31 9v-502q0 -84 -62.5 -143.5t-155.5 -59.5h-448zM236 989l30 53l-8 299l16 11v-273v-26l52 84q26 40 50 59t58 25q32 4 60 4l86 -76v-107q0 -32 -20 -50.5t-54 -18.5h-270v16zM516 989q25 0 39.5 14.5t13.5 38.5l-6 99
l-76 69q-23 0 -51 -4q-31 -6 -52.5 -22.5t-43.5 -50.5l-92 -144h268z" />
    <glyph glyph-name="uni0679.medi" unicode="&#x679;" horiz-adv-x="892" arabic-form="medial" 
d="M758 0q-74 0 -129 45.5t-74 116.5q-22 -70 -83.5 -116t-139.5 -46h-334v31h352q78 0 130 54t52 130v432l31 4v-436q0 -76 52 -130t130 -54h148q20 0 20 -15q0 -16 -20 -16h-135zM287 989l30 53l-8 299l17 11v-273v-26l51 84q26 40 50 59t58 25q32 4 60 4l86 -76v-107
q0 -32 -20 -50.5t-54 -18.5h-270v16zM567 989q25 0 40 14.5t14 38.5l-7 99l-75 69q-24 0 -52 -4q-31 -6 -52.5 -22.5t-43.5 -50.5l-92 -144h268z" />
    <glyph glyph-name="uni06A4.fina" unicode="&#x6a4;" horiz-adv-x="2164" arabic-form="final" 
d="M397 0q-79 0 -135.5 61t-56.5 142v403l31 2v-405q0 -71 40.5 -121.5t106.5 -50.5h719v-31h-705zM1360 31q-95 40 -158 109t-63 132q0 112 1 156t8 97.5t23 90.5q22 50 67.5 100.5t139.5 133.5l273 -41q89 -13 153 -81t72 -155q37 -440 -205 -542h494q20 0 20 -15
q0 -16 -20 -16h-654h-18h-18h-656v31h541zM1384 815q-81 -74 -123.5 -120.5t-64.5 -90.5q-23 -48 -30.5 -108t-11.5 -186q-1 -25 -1 -38q-2 -46 51 -103.5t130.5 -97.5t140.5 -40h32q206 0 284 124.5t56 417.5q-6 78 -61.5 140t-136.5 71zM1464 1438v90l109 8v-98h-109z
M1550 1214v-24l-329 -12v36h329zM1489 1188v26h309l21 -6v-12z" />
    <glyph glyph-name="uni06A4.init" unicode="&#x6a4;" horiz-adv-x="1140" arabic-form="initial" 
d="M-2 0v31h733q82 0 137.5 55t55.5 131v88h-502q-88 0 -150.5 65t-62.5 154v357l246 215h262q87 0 153 -61t66 -146v-672q0 -91 -59.5 -154t-159.5 -63h-719zM897 893q-3 73 -57 122.5t-125 49.5h-250l-223 -197l-19 -342q-4 -75 50 -132.5t128 -57.5h523zM547 1622v90
l108 8v-98h-108zM633 1399v-25l-330 -12v37h330zM571 1372v27h310l20 -6v-13z" />
    <glyph glyph-name="uni06A4.medi" unicode="&#x6a4;" horiz-adv-x="1343" arabic-form="medial" 
d="M539 31q-95 40 -158.5 109t-63.5 132q0 154 5 222t28 122q22 50 67.5 100.5t139.5 133.5l272 -41q89 -13 153.5 -81t72.5 -155q37 -440 -205 -542h493q21 0 21 -15q0 -16 -21 -16h-653h-18h-19h-655v31h541zM563 815q-81 -74 -123.5 -120.5t-64.5 -90.5
q-23 -48 -30.5 -108t-11.5 -186q-1 -25 -1 -38q-2 -46 50.5 -103.5t130 -97.5t140.5 -40h33q206 0 284 124.5t56 417.5q-6 78 -62 140t-137 71zM625 1376v90l108 9v-99h-108zM711 1153v-25l-330 -12v37h330zM649 1126v27h309l21 -6v-12z" />
    <glyph glyph-name="uni0686.fina" unicode="&#x686;" horiz-adv-x="1419" arabic-form="final" 
d="M774 -80l209 -22l-481 -4v26h272zM715 -104l-2 24h258l16 -10v-12zM700 -319v69l86 10v-79h-86zM1294 0q-181 0 -265.5 79t-104.5 267l18 4q19 -169 101.5 -244t250.5 -75h123q23 0 23 -15q0 -16 -23 -16h-123zM508 -578q-112 0 -204.5 86.5t-94.5 192.5l-2 137
q-3 177 54 257.5t222 133.5l670 211l-557 310q-46 24 -96 24q-54 0 -99.5 -26.5t-70.5 -73.5l-64 -123l-26 18l63 119q29 56 81.5 87.5t113.5 31.5q53 0 114 -33l697 -383l-17 -29l-108 60l-695 -219q-146 -46 -204 -127t-58 -238l-2 -135q0 -91 82 -165t180 -73l676 9
l-8 -52h-647z" />
    <glyph glyph-name="uni0686.init" unicode="&#x686;" horiz-adv-x="1476" arabic-form="initial" 
d="M-2 0v31h88q318 0 442 71l588 336l-559 312q-46 24 -98 24q-54 0 -98.5 -27t-69.5 -73l-64 -123l-24 18l61 119q29 56 80.5 87.5t114.5 31.5q55 0 114 -33l699 -383l-17 -29l-122 68l-588 -350q-136 -80 -465 -80h-82zM492 -748v95l100 8v-103h-100zM571 -389v-25
l-329 -12v37h329zM510 -416v27h309l21 -6v-13z" />
    <glyph glyph-name="uni0686.medi" unicode="&#x686;" horiz-adv-x="1419" arabic-form="medial" 
d="M1296 0q-177 0 -261.5 73t-104.5 242l18 4q19 -150 101.5 -219t246.5 -69h123q21 0 21 -15q0 -16 -21 -16h-123zM-2 0v31h88q318 0 442 71l588 336l-559 312q-46 24 -98 24q-54 0 -98.5 -27t-69.5 -73l-64 -123l-24 18l61 119q29 56 80.5 87.5t114.5 31.5q55 0 114 -33
l699 -383l-17 -29l-122 68l-588 -350q-136 -80 -465 -80h-82zM494 -748v95l100 8v-103h-100zM573 -389v-25l-329 -12v37h329zM512 -416v27h309l21 -6v-13z" />
    <glyph glyph-name="uni0688.fina" unicode="&#x688;" horiz-adv-x="1347" arabic-form="final" 
d="M1348 0q-89 0 -151.5 24t-97.5 62t-65 98q-12 -76 -73.5 -130t-137.5 -54h-424q-86 0 -140 57t-54 148v69l31 5v-74q0 -89 44 -131.5t136 -42.5h426q71 0 124 52t56 124l-64 147l-235 535l33 8l227 -543q61 -145 83 -183q52 -89 134 -119q59 -21 148 -21q20 0 20 -15
q0 -16 -20 -16zM535 1272l30 53l-8 299l16 10v-272v-27l52 84q26 40 50 59t58 25q32 4 60 4l86 -75v-107q0 -32 -20 -51t-54 -19h-270v17zM815 1272q25 0 39.5 14.5t13.5 38.5l-6 98l-76 70q-23 0 -51 -4q-30 -6 -52 -23t-44 -51l-92 -143h268z" />
    <glyph glyph-name="uni0698.fina" unicode="&#x698;" horiz-adv-x="770" arabic-form="final" 
d="M668 0q-81 0 -145 44.5t-87 115.5v-279q0 -155 -137 -270t-389 -170l-12 51q233 43 371.5 146t152.5 243l-19 744l33 6v-412q5 -80 69.5 -134t162.5 -54h82q20 0 20 -15q0 -16 -20 -16h-82zM365 1219v90l108 8v-98h-108zM451 995v-24l-330 -13v37h330zM389 969v26h309
l21 -6v-12zM770 31q21 0 21 -15q0 -16 -21 -16h-22v31h22z" />
    <glyph glyph-name="uni0691.fina" unicode="&#x691;" horiz-adv-x="749" arabic-form="final" 
d="M668 0q-81 0 -145 44.5t-87 115.5v-279q0 -155 -137 -270t-389 -170l-12 51q233 43 371.5 146t152.5 243l-19 744l33 6v-412q5 -80 69.5 -134t162.5 -54h82q20 0 20 -15q0 -16 -20 -16h-82zM270 1016l31 53l-8 299l16 10v-272v-27l51 84q25 39 50 58.5t59 25.5q32 4 59 4
l86 -75v-107q0 -32 -19.5 -51t-53.5 -19h-271v17zM551 1016q25 0 39.5 14.5t13.5 38.5l-6 98l-76 70q-23 0 -51 -4q-30 -6 -52 -23t-44 -51l-92 -143h268z" />
    <glyph glyph-name="uni06A9.fina" unicode="&#x6a9;" horiz-adv-x="2138" arabic-form="final" 
d="M397 0q-82 0 -137 55t-55 148v403l31 2v-405q0 -71 40.5 -121.5t106.5 -50.5h1073q94 0 159.5 60t65.5 145v126q-65 102 -125 148l-595 471v45l696 291l26 -41l-694 -275l582 -458q44 -35 85 -91t70 -110.5t69 -112t82 -100.5t109.5 -70.5t151.5 -27.5q21 0 21 -15
q0 -16 -21 -16q-39 0 -74 6t-63 13.5t-56 24.5t-47.5 29.5t-43 38t-37 40.5t-34.5 46t-30 46l-30 50t-29 48v-106q0 -106 -71 -171t-189 -65h-1037z" />
    <glyph glyph-name="uni06A9.init" unicode="&#x6a9;" horiz-adv-x="1206" arabic-form="initial" 
d="M768 31q95 0 157 53t62 131l-94 401l-690 373v27l751 293l29 -39l-733 -273l674 -360q13 -70 38.5 -211t38.5 -211q0 -91 -69.5 -153t-173.5 -62h-760v31h770z" />
    <glyph glyph-name="uni06A9.medi" unicode="&#x6a9;" horiz-adv-x="1380" arabic-form="medial" 
d="M1380 0q-39 0 -74 6t-63 13.5t-56 24.5t-47.5 29.5t-43 38t-37 40.5t-34.5 46t-30 46l-30 50t-29 48v-106q0 -106 -71 -171t-189 -65h-678v31h700q94 0 160 60t66 145v126q-65 102 -125 148l-596 471v45l696 291l27 -41l-695 -275l582 -458q44 -35 85 -91t70 -110.5
t69 -112t82 -100.5t109.5 -70.5t151.5 -27.5q21 0 21 -15q0 -16 -21 -16z" />
    <glyph glyph-name="uni06AF.fina" unicode="&#x6af;" horiz-adv-x="2138" arabic-form="final" 
d="M397 0q-82 0 -137 55t-55 148v403l31 2v-405q0 -71 40.5 -121.5t106.5 -50.5h1073q94 0 159.5 60t65.5 145v126q-65 102 -125 148l-595 471v45l696 291l26 -41l-694 -275l582 -458q44 -35 85 -91t70 -110.5t69 -112t82 -100.5t109.5 -70.5t151.5 -27.5q21 0 21 -15
q0 -16 -21 -16q-39 0 -74 6t-63 13.5t-56 24.5t-47.5 29.5t-43 38t-37 40.5t-34.5 46t-30 46l-30 50t-29 48v-106q0 -106 -71 -171t-189 -65h-1037zM1524 1470l-563 -208l-7 14l19 14l534 217z" />
    <glyph glyph-name="uni06AF.init" unicode="&#x6af;" horiz-adv-x="1144" arabic-form="initial" 
d="M768 31q95 0 157 53t62 131l-94 401l-690 373v27l751 293l29 -39l-733 -273l674 -360q13 -70 38.5 -211t38.5 -211q0 -91 -69.5 -153t-173.5 -62h-760v31h770zM756 1460l-563 -209l-7 15l19 14l534 217z" />
    <glyph glyph-name="uni06AF.medi" unicode="&#x6af;" horiz-adv-x="1380" arabic-form="medial" 
d="M1380 0q-39 0 -74 6t-63 13.5t-56 24.5t-47.5 29.5t-43 38t-37 40.5t-34.5 46t-30 46l-30 50t-29 48v-106q0 -106 -71 -171t-189 -65h-678v31h700q94 0 160 60t66 145v126q-65 102 -125 148l-596 471v45l696 291l27 -41l-695 -275l582 -458q44 -35 85 -91t70 -110.5
t69 -112t82 -100.5t109.5 -70.5t151.5 -27.5q21 0 21 -15q0 -16 -21 -16zM727 1495l-563 -209l-6 14l18 15l535 217z" />
    <glyph glyph-name="uni06BA.fina" unicode="&#x6ba;" horiz-adv-x="1587" arabic-form="final" 
d="M205 483h31v-501q0 -149 103.5 -253t250.5 -104q347 0 512 87.5t160 269.5l-21 729l31 10l4 -739q1 -201 -167 -296.5t-523 -95.5q-157 0 -269 115.5t-112 276.5v501zM1464 0q-89 0 -144 64.5t-58 158.5h10q3 -82 52.5 -137t127.5 -55h135q21 0 21 -17q0 -14 -21 -14
h-123z" />
    <glyph glyph-name="uni06C1.fina" unicode="&#x6c1;" horiz-adv-x="1220" arabic-form="final" 
d="M1169 0q-153 0 -214.5 52t-88.5 190l-90 475l-303 -33q-25 -22 -62 -55t-53 -47.5t-38.5 -35.5t-33 -33.5t-21 -27t-17.5 -28.5q-4 -8 -7 -16.5t-5 -19t-3.5 -18.5t-3 -22t-2 -23t-1 -28t-0.5 -29.5t-0.5 -35t-0.5 -38.5l-2 -149l-18 -4v153q0 114 3 161t17 81
q5 13 12 25t20 27t23 26t33.5 33t38.5 35.5t51.5 46t59.5 53.5l346 47l78 -518q19 -118 81.5 -165.5t200.5 -47.5h52q20 0 20 -15q0 -16 -20 -16h-52z" />
    <glyph glyph-name="uni06C1.init" unicode="&#x6c1;" horiz-adv-x="868" arabic-form="initial" 
d="M-2 0v31h463q73 0 132 51.5t56 120.5l-16 493l31 9v-502q0 -84 -62.5 -143.5t-155.5 -59.5h-448zM244 -315q-50 -53 -45 -95q8 -46 90 -116l-45 -45q-80 83 -74 153q6 56 59 115l107 121l16 -21z" />
    <glyph glyph-name="uni06C1.medi" unicode="&#x6c1;" horiz-adv-x="913" arabic-form="medial" 
d="M913 0h-75q-83 0 -136 -43q-19 -16 -36 -39.5t-27.5 -42.5t-23 -56t-17 -52.5t-16.5 -62t-15 -56.5h-32q-138 3 -203 67t-53 187l22 213q-28 -53 -78 -84t-112 -31h-113v31h129q65 0 120.5 48.5t61.5 113.5l39 391h29l-80 -682q-14 -116 46.5 -169.5t211.5 -54.5
q38 147 63 200q30 65 72 102q57 51 146 51h77q21 0 21 -15q0 -16 -21 -16z" />
    <glyph glyph-name="uni06BE.fina" unicode="&#x6be;" horiz-adv-x="1536" arabic-form="final" 
d="M205 -53l291 45v614q0 86 66 145.5t155 59.5h264l211 -180v-367q0 -82 -59.5 -144t-153.5 -79l-465 -84l2 -80q3 -201 250 -201h350l39 111q41 114 122 179t181 65h78q20 0 20 -15q0 -16 -20 -16h-76q-100 0 -174 -59t-112 -168l-46 -125h-362q-270 0 -270 229v78
l-271 -49zM997 72q80 12 132.5 65t48.5 119l-21 350l-188 174h-248q-76 0 -133 -52.5t-58 -125.5l-16 -606z" />
    <glyph glyph-name="uni06BE.init" unicode="&#x6be;" horiz-adv-x="1540" arabic-form="initial" 
d="M418 31q-105 41 -165 105t-60 134v47v45v38.5t0.5 37l1.5 31.5t2.5 31t3.5 26.5t4.5 26.5t6 22t7.5 23q18 45 56 91t124 124l-159 25v43l725 -133q83 -15 122 -27.5t62 -30.5q25 -19 41.5 -49t38.5 -96q17 -53 53 -163t53 -163q0 -86 -64 -152.5t-149 -66.5h-366
q-49 0 -66 29q-82 -29 -186 -29h-506v31h420zM711 37q21 -6 39 -6h391q74 0 127 55t53 133l-117 313q-24 64 -38.5 92.5t-32.5 45.5q-21 20 -57 30.5t-124 24.5l-204 33q51 -34 82 -84t34 -103q19 -247 -15.5 -367.5t-137.5 -166.5zM516 31q103 0 166.5 23t99.5 77
q39 58 50 167t-1 273q-5 65 -50.5 121t-112.5 78l-226 35q-96 -87 -136 -132t-60 -89q-16 -35 -24 -82.5t-10.5 -90.5t-4.5 -141q-1 -67 97.5 -143.5t211.5 -95.5z" />
    <glyph glyph-name="uni06BE.medi" unicode="&#x6be;" horiz-adv-x="1226" arabic-form="medial" 
d="M1151 0q-194 0 -254 -184l-66 -168h-362q-270 0 -270 229v123h-201v31h201v575q0 86 66 145.5t155 59.5h264l211 -180v-408q0 -89 -64 -156t-149 -67h-465l2 -123q3 -201 250 -201h350l60 148q33 99 102 153t168 54h78q20 0 20 -15q0 -16 -20 -16h-76zM700 31
q75 0 130 55.5t51 128.5l-21 391l-188 174h-248q-76 0 -133 -52.5t-58 -125.5l-16 -571h483z" />
    <glyph glyph-name="uni06D2.fina" unicode="&#x6d2;" horiz-adv-x="980" arabic-form="final" 
d="M961 0h-65h-78t-73.5 -2t-84 -5t-76 -9t-81 -15t-68.5 -22.5t-68 -30.5q-108 -60 -140 -170q-12 -44 -12 -100v-92q0 -48 33 -74t92 -25l846 19l-8 -43h-838q-135 0 -135 123v92q0 199 149 293q26 17 56 30t66.5 22.5t65 16.5t74 11.5t69.5 7t75.5 3.5t67.5 1h71h62h20
q12 0 12 -15q0 -16 -12 -16h-20z" />
    <glyph glyph-name="uni06D3.fina" unicode="&#x6d3;" horiz-adv-x="980" arabic-form="final" 
d="M961 0h-65h-78t-73.5 -2t-84 -5t-76 -9t-81 -15t-68.5 -22.5t-68 -30.5q-108 -60 -140 -170q-12 -44 -12 -100v-92q0 -48 33 -74t92 -25l846 19l-8 -43h-838q-135 0 -135 123v92q0 199 149 293q26 17 56 30t66.5 22.5t65 16.5t74 11.5t69.5 7t75.5 3.5t67.5 1h71h62h20
q12 0 12 -15q0 -16 -12 -16h-20zM547 307l-8 15l77 49q-29 3 -53 45l-51 82q-23 37 -25 53t7 47q4 15 13 44.5t13 43.5l80 47q33 18 64.5 10.5t56.5 -38.5l6 -9l-8 -6q-23 29 -54.5 36.5t-60.5 -9.5l-72 -43q-4 -13 -11 -39.5t-11 -40.5q-6 -26 -4 -41q3 -18 18 -49l47 -84
q20 -37 47 -38.5t74 30.5l176 114l13 -18z" />
    <glyph glyph-name="uni06C6.fina" unicode="&#x6c6;" horiz-adv-x="1241" arabic-form="final" 
d="M1241 31q21 0 21 -15q0 -16 -21 -16h-260v31h260zM367 -522q304 43 469.5 153.5t162.5 268.5l-2 100h-579q-88 0 -150.5 65t-62.5 154v426l246 215h342q89 0 154 -61t65 -146v-753q0 -178 -173 -306.5t-458 -162.5l-129 -17l-12 49zM973 657q-3 73 -57 122.5t-125 49.5
h-330l-223 -196l-19 -412q-3 -75 51 -132.5t127 -57.5h602zM668 1311h-13l138 372l20 -2zM664 1317l-9 -6l-168 356l19 14z" />
    <glyph glyph-name="uni06C9.fina" unicode="&#x6c9;" horiz-adv-x="1241" arabic-form="final" 
d="M1241 31q21 0 21 -15q0 -16 -21 -16h-260v31h260zM367 -522q304 43 469.5 153.5t162.5 268.5l-2 100h-579q-88 0 -150.5 65t-62.5 154v426l246 215h342q89 0 154 -61t65 -146v-753q0 -178 -173 -306.5t-458 -162.5l-129 -17l-12 49zM973 657q-3 73 -57 122.5t-125 49.5
h-330l-223 -196l-19 -412q-3 -75 51 -132.5t127 -57.5h602zM793 1311l-138 372h13l145 -370zM487 1327l168 356l9 -6l-158 -364z" />
    <glyph glyph-name="uni0649.init" unicode="&#x649;" horiz-adv-x="868" arabic-form="initial" 
d="M-2 0v31h463q73 0 132 51.5t56 120.5l-16 493l31 9v-502q0 -84 -62.5 -143.5t-155.5 -59.5h-448z" />
    <glyph glyph-name="uni0649.medi" unicode="&#x649;" horiz-adv-x="892" arabic-form="medial" 
d="M758 0q-74 0 -129 45.5t-74 116.5q-22 -70 -83.5 -116t-139.5 -46h-334v31h352q78 0 130 54t52 130v432l31 4v-436q0 -76 52 -130t130 -54h148q20 0 20 -15q0 -16 -20 -16h-135z" />
    <glyph glyph-name="uni06CC.fina" unicode="&#x6cc;" horiz-adv-x="1499" arabic-form="final" 
d="M1499 31q21 0 21 -15q0 -16 -21 -16h-176q20 -14 20 -55q0 -35 -2 -51q-15 -131 -104 -211q-42 -37 -103.5 -62.5t-114.5 -38t-137 -19t-127 -7t-128 -0.5h-39q-158 0 -270.5 114t-112.5 275v532h31v-536q0 -146 103 -248.5t249 -102.5q5 0 63.5 -0.5t75 0t72 2t80.5 4.5
t74 8t79 14t68.5 20.5t68.5 28t56 36.5q91 73 106 193q2 16 2 49t-16.5 44t-65.5 11h-606l14 31h840z" />
    <glyph glyph-name="uni06CC.init" unicode="&#x6cc;" horiz-adv-x="868" arabic-form="initial" 
d="M-2 0v31h463q73 0 132 51.5t56 120.5l-16 493l31 9v-502q0 -84 -62.5 -143.5t-155.5 -59.5h-448zM334 -389v-25l-330 -12v37h330zM272 -416v27h310l20 -6v-13z" />
    <glyph glyph-name="uni06CC.medi" unicode="&#x6cc;" horiz-adv-x="892" arabic-form="medial" 
d="M758 0q-74 0 -129 45.5t-74 116.5q-22 -70 -83.5 -116t-139.5 -46h-334v31h352q78 0 130 54t52 130v432l31 4v-436q0 -76 52 -130t130 -54h148q20 0 20 -15q0 -16 -20 -16h-135zM365 -389v-25l-330 -12v37h330zM303 -416v27h309l21 -6v-13z" />
    <glyph glyph-name="uni0651064C" unicode="&#xfc5e;" arabic-form="isolated" 
d="M199 274l34 5v-162q0 -53 -32 -85t-84 -32q-51 0 -84 31t-33 78q-1 -49 -36.5 -79t-88.5 -30q-48 0 -79.5 32.5t-31.5 84.5v133h31l-14 -135q-4 -41 23.5 -70t70.5 -29q47 0 78 29t31 72v98h26v-98q2 -43 32.5 -72t74.5 -29q45 0 72.5 28.5t23.5 70.5zM-98 451
q12 26 5.5 38.5t-32.5 6.5l-104 -25l-2 16l104 21q32 6 44 -12t-3 -50l-47 -100l162 43l-35 139q-6 23 7.5 43.5t37.5 26.5l70 16l79 -41l23 -94q6 -25 -6 -46t-35 -27l-311 -78l-6 14zM170 426q19 5 29 22.5t4 36.5l-27 78l-67 37l-64 -16q-18 -4 -28 -20.5t-7 -35.5
l29 -137z" />
    <glyph glyph-name="uni0651064D" unicode="&#xfc5f;" arabic-form="isolated" 
d="M199 117l12 -17l-391 -98l-6 14zM199 309l12 -16l-391 -98l-6 14zM203 686l35 4v-162q0 -52 -32 -84t-85 -32q-51 0 -84 30.5t-33 77.5q-1 -49 -36.5 -78.5t-88.5 -29.5q-48 0 -79 32t-31 84v134h30l-14 -136q-4 -41 23.5 -69.5t70.5 -28.5q47 0 78 28.5t31 71.5v99h26
v-99q2 -43 32.5 -71.5t74.5 -28.5q45 0 72.5 28t23.5 70z" />
    <glyph glyph-name="uni0651064E" unicode="&#xfc60;" arabic-form="isolated" 
d="M199 274l34 5v-162q0 -53 -32 -85t-84 -32q-51 0 -84 31t-33 78q-1 -49 -36.5 -79t-88.5 -30q-48 0 -79.5 32.5t-31.5 84.5v133h31l-14 -135q-4 -41 23.5 -70t70.5 -29q47 0 78 29t31 72v98h26v-98q2 -43 32.5 -72t74.5 -29q45 0 72.5 28.5t23.5 70.5zM-195 375l-6 14
l385 100l13 -16z" />
    <glyph glyph-name="uni0651064F" unicode="&#xfc61;" arabic-form="isolated" 
d="M199 274l34 5v-162q0 -53 -32 -85t-84 -32q-51 0 -84 31t-33 78q-1 -49 -36.5 -79t-88.5 -30q-48 0 -79.5 32.5t-31.5 84.5v133h31l-14 -135q-4 -41 23.5 -70t70.5 -29q47 0 78 29t31 72v98h26v-98q2 -43 32.5 -72t74.5 -29q45 0 72.5 28.5t23.5 70.5zM-201 383l191 51
l-35 139q-6 22 8 43t37 27l70 16l80 -41l22 -94q6 -25 -5.5 -46t-35.5 -27l-326 -82zM131 471q19 5 29 22.5t4 36.5l-27 78l-67 37l-64 -16q-18 -4 -28 -20.5t-7 -35.5l29 -137z" />
    <glyph glyph-name="uni06510650" unicode="&#xfc62;" arabic-form="isolated" 
d="M199 453l34 4v-162q0 -53 -32 -85t-84 -32q-51 0 -84 31t-33 78q-1 -49 -36.5 -79t-88.5 -30q-48 0 -79.5 32.5t-31.5 84.5v133h31l-14 -135q-4 -41 23.5 -69.5t70.5 -28.5q47 0 78 28.5t31 71.5v98h26v-98q2 -43 32.5 -71.5t74.5 -28.5q45 0 72.5 28t23.5 70zM-184 2
l-6 14l385 101l12 -17z" />
    <glyph glyph-name="uni06510670" unicode="&#xfc63;" arabic-form="isolated" 
d="M199 274l34 5v-162q0 -53 -32 -85t-84 -32q-51 0 -84 31t-33 78q-1 -49 -36.5 -79t-88.5 -30q-48 0 -79.5 32.5t-31.5 84.5v133h31l-14 -135q-4 -41 23.5 -70t70.5 -29q47 0 78 29t31 72v98h26v-98q2 -43 32.5 -72t74.5 -29q45 0 72.5 28.5t23.5 70.5zM-12 625l22 10
v-250l-6 -6z" />
    <glyph glyph-name="uni06260631.fina" unicode="&#xfc64;" horiz-adv-x="1449" arabic-form="final" 
d="M778 936l-8 14l78 49q-29 3 -53 45l-52 82q-21 35 -24 54q-3 18 6 47q4 14 13.5 43.5t13.5 44.5l79 47q33 18 64.5 10t56.5 -39l6 -8l-8 -6q-23 29 -54 36.5t-60 -9.5l-72 -43q-4 -13 -11.5 -40t-11.5 -40q-7 -26 -4 -41q2 -15 19 -49l47 -84q20 -37 47 -39t74 30
l176 115l12 -18zM1440 0q-144 0 -206 41.5t-79 148.5l-68 443l-497 -17l-154 -172v-563q0 -82 -36 -151.5t-88.5 -114.5t-128 -82t-138.5 -56.5t-135 -35.5l-12 51q72 13 138.5 33t135.5 53t120.5 74t87 100.5t42.5 128.5l-19 576l175 192l503 19l31 -19l62 -454
q12 -91 71 -127.5t195 -36.5h10q20 0 20 -15q0 -16 -20 -16h-10z" />
    <glyph glyph-name="uni06260632.fina" unicode="&#xfc65;" horiz-adv-x="1449" arabic-form="final" 
d="M1440 0q-144 0 -206 41.5t-79 148.5l-68 443l-497 -17l-154 -172v-563q0 -82 -36 -151.5t-88.5 -114.5t-128 -82t-138.5 -56.5t-135 -35.5l-12 51q72 13 138.5 33t135.5 53t120.5 74t87 100.5t42.5 128.5l-19 576l175 192l503 19l31 -19l62 -454q12 -91 71 -127.5
t195 -36.5h10q20 0 20 -15q0 -16 -20 -16h-10zM788 881l-8 14l78 49q-29 3 -53 45l-51 82q-23 37 -25 53q-3 18 6 47q4 14 13.5 44t13.5 45l80 47q33 18 64.5 10t56.5 -39l6 -8l-8 -6q-23 29 -54.5 36t-60.5 -10l-72 -43q-4 -13 -11 -39.5t-11 -40.5q-6 -26 -4 -41
q3 -18 18 -49l47 -84q20 -37 47 -38.5t74 30.5l176 115l12 -19zM336 963v90l108 8v-98h-108z" />
    <glyph glyph-name="uni06260646.fina" unicode="&#xfc67;" horiz-adv-x="2281" arabic-form="final" 
d="M2277 0q-144 0 -205.5 41t-78.5 149l-68 443l-498 -17l-155 -176l4 -458q2 -201 -166 -296.5t-524 -95.5q-157 0 -269 115.5t-112 276.5v501h31v-501q0 -148 103.5 -252.5t250.5 -104.5q349 0 514 88t158 269l-21 475l174 192l504 19l31 -19l61 -454q12 -91 71 -127.5
t195 -36.5h4q21 0 21 -15q0 -16 -21 -16h-4zM1647 922l-9 14l78 49q-29 3 -53 45l-51 82q-23 37 -25 53q-3 18 6 47q4 14 13.5 44t13.5 44l80 48q33 18 64.5 10t56.5 -39l6 -8l-8 -6q-23 29 -54.5 36t-60.5 -10l-72 -43q-4 -14 -11 -40.5t-11 -39.5q-6 -26 -4 -41
q3 -18 18 -49l47 -84q20 -37 47 -38.5t74 30.5l176 115l12 -19zM686 680v90l109 8v-98h-109z" />
    <glyph glyph-name="uni0626064A.fina" unicode="&#xfc69;" horiz-adv-x="1937" arabic-form="final" 
d="M1937 0q-153 0 -253 78t-228 297l-133 227q-69 117 -180 117h-230l-223 -197l-18 -403q-3 -73 29 -101t108 -28h442q33 0 53 -6t28 -20t9.5 -23.5t1.5 -29.5v-7v-6q0 -63 -15 -115t-41.5 -89.5t-63.5 -67t-81 -47.5t-94 -32t-102.5 -19.5t-106 -9.5t-105 -3t-99.5 0h-47
q-158 0 -270.5 114t-112.5 275v532h31v-536q0 -146 103 -248.5t249 -102.5h45q41 1 85 0t90.5 2l93 6t92.5 12.5t88.5 21.5t80.5 31.5t68.5 44.5t54 59.5t35.5 76.5q12 43 12 101q0 32 -15.5 43.5t-66.5 11.5h-442q-87 0 -119.5 34t-32.5 124v418l246 215h240
q66 0 123 -38.5t92 -107.5l115 -221q100 -192 205 -272t259 -80q21 0 21 -15q0 -16 -21 -16zM889 1024l-8 14l77 49q-28 3 -53 46l-51 81q-23 37 -25 54q-2 16 7 47q4 14 13 43.5t13 44.5l80 47q33 18 64.5 10t56.5 -39l6 -8l-8 -6q-23 29 -54.5 36.5t-60.5 -9.5l-72 -43
q-4 -13 -11 -40t-11 -40q-6 -26 -4 -41q3 -18 18 -49l47 -84q20 -37 47 -39t74 30l176 115l13 -18z" />
    <glyph glyph-name="uni06280631.fina" unicode="&#xfc6a;" horiz-adv-x="1449" arabic-form="final" 
d="M1440 0q-144 0 -206 41.5t-79 148.5l-68 443l-497 -17l-154 -172v-563q0 -82 -36 -151.5t-88.5 -114.5t-128 -82t-138.5 -56.5t-135 -35.5l-12 51q72 13 138.5 33t135.5 53t120.5 74t87 100.5t42.5 128.5l-19 576l175 192l503 19l31 -19l62 -454q12 -91 71 -127.5
t195 -36.5h10q20 0 20 -15q0 -16 -20 -16h-10zM844 -410v95l100 8v-103h-100z" />
    <glyph glyph-name="uni06280632.fina" unicode="&#xfc6b;" horiz-adv-x="1449" arabic-form="final" 
d="M1440 0q-144 0 -206 41.5t-79 148.5l-68 443l-497 -17l-154 -172v-563q0 -82 -36 -151.5t-88.5 -114.5t-128 -82t-138.5 -56.5t-135 -35.5l-12 51q72 13 138.5 33t135.5 53t120.5 74t87 100.5t42.5 128.5l-19 576l175 192l503 19l31 -19l62 -454q12 -91 71 -127.5
t195 -36.5h10q20 0 20 -15q0 -16 -20 -16h-10zM844 -410v95l100 8v-103h-100zM338 963v90l108 8v-98h-108z" />
    <glyph glyph-name="uni06280646.fina" unicode="&#xfc6d;" horiz-adv-x="2281" arabic-form="final" 
d="M2277 0q-144 0 -205.5 41t-78.5 149l-68 443l-498 -17l-155 -176l4 -458q2 -201 -166 -296.5t-524 -95.5q-157 0 -269 115.5t-112 276.5v501h31v-501q0 -148 103.5 -252.5t250.5 -104.5q349 0 514 88t158 269l-21 475l174 192l504 19l31 -19l61 -454q12 -91 71 -127.5
t195 -36.5h4q21 0 21 -15q0 -16 -21 -16h-4zM686 680v90l109 8v-98h-109zM1657 -268v94l100 8v-102h-100z" />
    <glyph glyph-name="uni0628064A.fina" unicode="&#xfc6f;" horiz-adv-x="1937" arabic-form="final" 
d="M1937 0q-153 0 -253 78t-228 297l-133 227q-69 117 -180 117h-230l-223 -197l-18 -403q-3 -73 29 -101t108 -28h442q33 0 53 -6t28 -20t9.5 -23.5t1.5 -29.5v-7v-6q0 -63 -15 -115t-41.5 -89.5t-63.5 -67t-81 -47.5t-94 -32t-102.5 -19.5t-106 -9.5t-105 -3t-99.5 0h-47
q-158 0 -270.5 114t-112.5 275v532h31v-536q0 -146 103 -248.5t249 -102.5h45q41 1 85 0t90.5 2l93 6t92.5 12.5t88.5 21.5t80.5 31.5t68.5 44.5t54 59.5t35.5 76.5q12 43 12 101q0 32 -15.5 43.5t-66.5 11.5h-442q-87 0 -119.5 34t-32.5 124v418l246 215h240
q66 0 123 -38.5t92 -107.5l115 -221q100 -192 205 -272t259 -80q21 0 21 -15q0 -16 -21 -16zM1595 -410v95l101 8v-103h-101z" />
    <glyph glyph-name="uni062A0631.fina" unicode="&#xfc70;" horiz-adv-x="1449" arabic-form="final" 
d="M1001 993v-24l-329 -13v37h329zM940 967v26h309l21 -6v-12zM1440 0q-144 0 -206 41.5t-79 148.5l-68 443l-497 -17l-154 -172v-563q0 -82 -36 -151.5t-88.5 -114.5t-128 -82t-138.5 -56.5t-135 -35.5l-12 51q72 13 138.5 33t135.5 53t120.5 74t87 100.5t42.5 128.5
l-19 576l175 192l503 19l31 -19l62 -454q12 -91 71 -127.5t195 -36.5h10q20 0 20 -15q0 -16 -20 -16h-10z" />
    <glyph glyph-name="uni062A0632.fina" unicode="&#xfc71;" horiz-adv-x="1449" arabic-form="final" 
d="M356 963v90l109 8v-98h-109zM1440 0q-144 0 -206 41.5t-79 148.5l-68 443l-497 -17l-154 -172v-563q0 -82 -36 -151.5t-88.5 -114.5t-128 -82t-138.5 -56.5t-135 -35.5l-12 51q72 13 138.5 33t135.5 53t120.5 74t87 100.5t42.5 128.5l-19 576l175 192l503 19l31 -19
l62 -454q12 -91 71 -127.5t195 -36.5h10q20 0 20 -15q0 -16 -20 -16h-10zM1001 993v-24l-329 -13v37h329zM940 967v26h309l21 -6v-12z" />
    <glyph glyph-name="uni062A0646.fina" unicode="&#xfc73;" horiz-adv-x="2281" arabic-form="final" 
d="M686 680v90l109 8v-98h-109zM1792 999v-24l-330 -12v36h330zM1731 973v26h309l20 -6v-12zM2277 0q-144 0 -205.5 41t-78.5 149l-68 443l-498 -17l-155 -176l4 -458q2 -201 -166 -296.5t-524 -95.5q-157 0 -269 115.5t-112 276.5v501h31v-501q0 -148 103.5 -252.5
t250.5 -104.5q349 0 514 88t158 269l-21 475l174 192l504 19l31 -19l61 -454q12 -91 71 -127.5t195 -36.5h4q21 0 21 -15q0 -16 -21 -16h-4z" />
    <glyph glyph-name="uni062A064A.fina" unicode="&#xfc75;" horiz-adv-x="1937" arabic-form="final" 
d="M1055 1092v-25l-330 -12v37h330zM993 1065v27h310l20 -7v-12zM1937 0q-153 0 -253 78t-228 297l-133 227q-69 117 -180 117h-230l-223 -197l-18 -403q-3 -73 29 -101t108 -28h442q33 0 53 -6t28 -20t9.5 -23.5t1.5 -29.5v-7v-6q0 -63 -15 -115t-41.5 -89.5t-63.5 -67
t-81 -47.5t-94 -32t-102.5 -19.5t-106 -9.5t-105 -3t-99.5 0h-47q-158 0 -270.5 114t-112.5 275v532h31v-536q0 -146 103 -248.5t249 -102.5h45q41 1 85 0t90.5 2l93 6t92.5 12.5t88.5 21.5t80.5 31.5t68.5 44.5t54 59.5t35.5 76.5q12 43 12 101q0 32 -15.5 43.5t-66.5 11.5
h-442q-87 0 -119.5 34t-32.5 124v418l246 215h240q66 0 123 -38.5t92 -107.5l115 -221q100 -192 205 -272t259 -80q21 0 21 -15q0 -16 -21 -16z" />
    <glyph glyph-name="uni062B0631.fina" unicode="&#xfc76;" horiz-adv-x="1449" arabic-form="final" 
d="M1440 0q-144 0 -206 41.5t-79 148.5l-68 443l-497 -17l-154 -172v-563q0 -82 -36 -151.5t-88.5 -114.5t-128 -82t-138.5 -56.5t-135 -35.5l-12 51q72 13 138.5 33t135.5 53t120.5 74t87 100.5t42.5 128.5l-19 576l175 192l503 19l31 -19l62 -454q12 -91 71 -127.5
t195 -36.5h10q20 0 20 -15q0 -16 -20 -16h-10zM920 1217v90l108 8v-98h-108zM1006 993v-24l-330 -13v37h330zM944 967v26h309l21 -6v-12z" />
    <glyph glyph-name="uni062B0632.fina" unicode="&#xfc77;" horiz-adv-x="1472" arabic-form="final" 
d="M1440 0q-144 0 -206 41.5t-79 148.5l-68 443l-497 -17l-154 -172v-563q0 -82 -36 -151.5t-88.5 -114.5t-128 -82t-138.5 -56.5t-135 -35.5l-12 51q72 13 138.5 33t135.5 53t120.5 74t87 100.5t42.5 128.5l-19 576l175 192l503 19l31 -19l62 -454q12 -91 71 -127.5
t195 -36.5h10q20 0 20 -15q0 -16 -20 -16h-10zM336 963v90l108 8v-98h-108zM920 1217v90l108 8v-98h-108zM1006 993v-24l-330 -13v37h330zM944 967v26h309l21 -6v-12zM1473 31q20 0 20 -15q0 -16 -20 -16h-23v31h23z" />
    <glyph glyph-name="uni062B0646.fina" unicode="&#xfc79;" horiz-adv-x="2281" arabic-form="final" 
d="M686 680v90l109 8v-98h-109zM1706 1223v90l109 8v-98h-109zM1792 999v-24l-330 -12v36h330zM1731 973v26h309l20 -6v-12zM2277 0q-144 0 -205.5 41t-78.5 149l-68 443l-498 -17l-155 -176l4 -458q2 -201 -166 -296.5t-524 -95.5q-157 0 -269 115.5t-112 276.5v501h31
v-501q0 -148 103.5 -252.5t250.5 -104.5q349 0 514 88t158 269l-21 475l174 192l504 19l31 -19l61 -454q12 -91 71 -127.5t195 -36.5h4q21 0 21 -15q0 -16 -21 -16h-4z" />
    <glyph glyph-name="uni062B064A.fina" unicode="&#xfc7b;" horiz-adv-x="1937" arabic-form="final" 
d="M969 1315v90l108 8v-98h-108zM1055 1092v-25l-330 -12v37h330zM993 1065v27h310l20 -7v-12zM1937 0q-153 0 -253 78t-228 297l-133 227q-69 117 -180 117h-230l-223 -197l-18 -403q-3 -73 29 -101t108 -28h442q33 0 53 -6t28 -20t9.5 -23.5t1.5 -29.5v-7v-6
q0 -63 -15 -115t-41.5 -89.5t-63.5 -67t-81 -47.5t-94 -32t-102.5 -19.5t-106 -9.5t-105 -3t-99.5 0h-47q-158 0 -270.5 114t-112.5 275v532h31v-536q0 -146 103 -248.5t249 -102.5h45q41 1 85 0t90.5 2l93 6t92.5 12.5t88.5 21.5t80.5 31.5t68.5 44.5t54 59.5t35.5 76.5
q12 43 12 101q0 32 -15.5 43.5t-66.5 11.5h-442q-87 0 -119.5 34t-32.5 124v418l246 215h240q66 0 123 -38.5t92 -107.5l115 -221q100 -192 205 -272t259 -80q21 0 21 -15q0 -16 -21 -16z" />
    <glyph glyph-name="uni06460631.fina" unicode="&#xfc8a;" horiz-adv-x="1449" arabic-form="final" 
d="M881 971v90l108 8v-98h-108zM1440 0q-144 0 -206 41.5t-79 148.5l-68 443l-497 -17l-154 -172v-563q0 -82 -36 -151.5t-88.5 -114.5t-128 -82t-138.5 -56.5t-135 -35.5l-12 51q72 13 138.5 33t135.5 53t120.5 74t87 100.5t42.5 128.5l-19 576l175 192l503 19l31 -19
l62 -454q12 -91 71 -127.5t195 -36.5h10q20 0 20 -15q0 -16 -20 -16h-10z" />
    <glyph glyph-name="uni06460632.fina" unicode="&#xfc8b;" horiz-adv-x="1449" arabic-form="final" 
d="M1440 0q-144 0 -206 41.5t-79 148.5l-68 443l-497 -17l-154 -172v-563q0 -82 -36 -151.5t-88.5 -114.5t-128 -82t-138.5 -56.5t-135 -35.5l-12 51q72 13 138.5 33t135.5 53t120.5 74t87 100.5t42.5 128.5l-19 576l175 192l503 19l31 -19l62 -454q12 -91 71 -127.5
t195 -36.5h10q20 0 20 -15q0 -16 -20 -16h-10zM870 971v90l109 8v-98h-109zM336 963v90l108 8v-98h-108z" />
    <glyph glyph-name="uni06460646.fina" unicode="&#xfc8d;" horiz-adv-x="2281" arabic-form="final" 
d="M1630 971v94l101 8v-102h-101zM686 680v90l109 8v-98h-109zM2277 0q-144 0 -205.5 41t-78.5 149l-68 443l-498 -17l-155 -176l4 -458q2 -201 -166 -296.5t-524 -95.5q-157 0 -269 115.5t-112 276.5v501h31v-501q0 -148 103.5 -252.5t250.5 -104.5q349 0 514 88t158 269
l-21 475l174 192l504 19l31 -19l61 -454q12 -91 71 -127.5t195 -36.5h4q21 0 21 -15q0 -16 -21 -16h-4z" />
    <glyph glyph-name="uni0646064A.fina" unicode="&#xfc8f;" horiz-adv-x="1937" arabic-form="final" 
d="M1079 1055h-108v98l108 -8v-90zM1937 0q-153 0 -253 78t-228 297l-133 227q-69 117 -180 117h-230l-223 -197l-18 -403q-3 -73 29 -101t108 -28h442q33 0 53 -6t28 -20t9.5 -23.5t1.5 -29.5v-7v-6q0 -63 -15 -115t-41.5 -89.5t-63.5 -67t-81 -47.5t-94 -32t-102.5 -19.5
t-106 -9.5t-105 -3t-99.5 0h-47q-158 0 -270.5 114t-112.5 275v532h31v-536q0 -146 103 -248.5t249 -102.5h45q41 1 85 0t90.5 2l93 6t92.5 12.5t88.5 21.5t80.5 31.5t68.5 44.5t54 59.5t35.5 76.5q12 43 12 101q0 32 -15.5 43.5t-66.5 11.5h-442q-87 0 -119.5 34t-32.5 124
v418l246 215h240q66 0 123 -38.5t92 -107.5l115 -221q100 -192 205 -272t259 -80q21 0 21 -15q0 -16 -21 -16z" />
    <glyph glyph-name="uni064A0631.fina" unicode="&#xfc91;" horiz-adv-x="1466" arabic-form="final" 
d="M1440 0q-144 0 -206 41.5t-79 148.5l-68 443l-497 -17l-154 -172v-563q0 -82 -36 -151.5t-88.5 -114.5t-128 -82t-138.5 -56.5t-135 -35.5l-12 51q72 13 138.5 33t135.5 53t120.5 74t87 100.5t42.5 128.5l-19 576l175 192l503 19l31 -19l62 -454q12 -91 71 -127.5
t195 -36.5h10q20 0 20 -15q0 -16 -20 -16h-10zM981 -307v-25l-330 -12v37h330zM920 -334v27h309l20 -6v-13zM1466 31q21 0 21 -15q0 -16 -21 -16h-22v31h22z" />
    <glyph glyph-name="uni064A0632.fina" unicode="&#xfc92;" horiz-adv-x="1466" arabic-form="final" 
d="M1440 0q-144 0 -206 41.5t-79 148.5l-68 443l-497 -17l-154 -172v-563q0 -82 -36 -151.5t-88.5 -114.5t-128 -82t-138.5 -56.5t-135 -35.5l-12 51q72 13 138.5 33t135.5 53t120.5 74t87 100.5t42.5 128.5l-19 576l175 192l503 19l31 -19l62 -454q12 -91 71 -127.5
t195 -36.5h10q20 0 20 -15q0 -16 -20 -16h-10zM981 -307v-25l-330 -12v37h330zM920 -334v27h309l20 -6v-13zM1466 31q21 0 21 -15q0 -16 -21 -16h-22v31h22zM338 963v90l108 8v-98h-108z" />
    <glyph glyph-name="uni064A0646.fina" unicode="&#xfc94;" horiz-adv-x="2281" arabic-form="final" 
d="M2277 0q-144 0 -205.5 41t-78.5 149l-68 443l-498 -17l-155 -176l4 -458q2 -201 -166 -296.5t-524 -95.5q-157 0 -269 115.5t-112 276.5v501h31v-501q0 -148 103.5 -252.5t250.5 -104.5q349 0 514 88t158 269l-21 475l174 192l504 19l31 -19l61 -454q12 -91 71 -127.5
t195 -36.5h4q21 0 21 -15q0 -16 -21 -16h-4zM686 680v90l109 8v-98h-109zM1812 -307v-25l-329 -12v37h329zM1751 -334v27h309l21 -6v-13z" />
    <glyph glyph-name="uni064A064A.fina" unicode="&#xfc96;" horiz-adv-x="1937" arabic-form="final" 
d="M1937 0q-153 0 -253 78t-228 297l-133 227q-69 117 -180 117h-230l-223 -197l-18 -403q-3 -73 29 -101t108 -28h442q33 0 53 -6t28 -20t9.5 -23.5t1.5 -29.5v-7v-6q0 -63 -15 -115t-41.5 -89.5t-63.5 -67t-81 -47.5t-94 -32t-102.5 -19.5t-106 -9.5t-105 -3t-99.5 0h-47
q-158 0 -270.5 114t-112.5 275v532h31v-536q0 -146 103 -248.5t249 -102.5h45q41 1 85 0t90.5 2l93 6t92.5 12.5t88.5 21.5t80.5 31.5t68.5 44.5t54 59.5t35.5 76.5q12 43 12 101q0 32 -15.5 43.5t-66.5 11.5h-442q-87 0 -119.5 34t-32.5 124v418l246 215h240
q66 0 123 -38.5t92 -107.5l115 -221q100 -192 205 -272t259 -80q21 0 21 -15q0 -16 -21 -16zM1634 -455v-24l-329 -13v37h329zM1573 -481v26h309l21 -6v-12z" />
    <glyph glyph-name="uni0633064A" unicode="&#xfcfc;" horiz-adv-x="3098" arabic-form="isolated" 
d="M2480 0q-88 0 -158.5 53t-87.5 129q-35 -79 -116 -130.5t-181 -51.5q-153 0 -253 78t-228 297l-133 227q-65 117 -180 117h-230l-223 -197l-18 -403q-3 -73 29 -101t108 -28h442q33 0 53 -6t28 -20t9.5 -23.5t1.5 -29.5v-7q0 -24 -4 -64q-9 -68 -41.5 -121t-71 -86.5
t-105 -57.5t-115 -35.5t-132.5 -17.5t-125.5 -6.5t-124.5 -0.5h-36q-158 0 -270.5 114t-112.5 275v532h31v-536q0 -146 103 -248.5t249 -102.5h45q41 1 85 0t90.5 2l93 6t92.5 12.5t88.5 21.5t80.5 31.5t68.5 44.5t54 59.5t35.5 76.5q12 43 12 101q0 32 -15.5 43.5
t-66.5 11.5h-442q-87 0 -119.5 34t-32.5 124v418l246 215h240q71 0 126.5 -40.5t88.5 -105.5l115 -221q100 -192 205 -272t259 -80q99 0 174.5 51.5t104.5 136.5l84 424l33 2l-84 -422q1 -74 67.5 -133t145.5 -59h114q53 0 100 7.5t96 26t78 58t29 96.5l-16 477l31 9v-486
q0 -61 -29 -106t-78 -68.5t-101 -34t-110 -10.5h-96z" />
    <glyph glyph-name="uni0634064A" unicode="&#xfcfe;" horiz-adv-x="3098" arabic-form="isolated" 
d="M2214 1212v91l108 8v-99h-108zM2300 989v-24l-330 -13v37h330zM2238 963v26h310l20 -6v-12zM2480 0q-88 0 -158.5 53t-87.5 129q-35 -79 -116 -130.5t-181 -51.5q-153 0 -253 78t-228 297l-133 227q-65 117 -180 117h-230l-223 -197l-18 -403q-3 -73 29 -101t108 -28h442
q33 0 53 -6t28 -20t9.5 -23.5t1.5 -29.5v-7q0 -24 -4 -64q-9 -68 -41.5 -121t-71 -86.5t-105 -57.5t-115 -35.5t-132.5 -17.5t-125.5 -6.5t-124.5 -0.5h-36q-158 0 -270.5 114t-112.5 275v532h31v-536q0 -146 103 -248.5t249 -102.5h45q41 1 85 0t90.5 2l93 6t92.5 12.5
t88.5 21.5t80.5 31.5t68.5 44.5t54 59.5t35.5 76.5q12 43 12 101q0 32 -15.5 43.5t-66.5 11.5h-442q-87 0 -119.5 34t-32.5 124v418l246 215h240q71 0 126.5 -40.5t88.5 -105.5l115 -221q100 -192 205 -272t259 -80q99 0 174.5 51.5t104.5 136.5l84 424l33 2l-84 -422
q1 -74 67.5 -133t145.5 -59h114q53 0 100 7.5t96 26t78 58t29 96.5l-16 477l31 9v-486q0 -61 -29 -106t-78 -68.5t-101 -34t-110 -10.5h-96z" />
    <glyph glyph-name="uni0635064A" unicode="&#xfd06;" horiz-adv-x="2938" arabic-form="isolated" 
d="M1937 0q-102 0 -174 30.5t-145 111t-162 233.5l-133 227q-65 117 -180 117h-230l-223 -197l-18 -403q-3 -73 29 -101t108 -28h442q33 0 53 -6t28 -20t9.5 -23.5t1.5 -29.5v-7v-4q0 -57 -12 -105t-34.5 -84t-53 -65.5t-68 -49t-80.5 -35t-89 -23.5t-94 -14t-96 -7
t-95 -2.5t-90 0.5h-43q-158 0 -270.5 114t-112.5 275v532h31v-536q0 -146 103 -248.5t249 -102.5h45q41 1 85 0t90.5 2l93 6t92.5 12.5t88.5 21.5t80.5 31.5t68.5 44.5t54 59.5t35.5 76.5q12 43 12 101q0 32 -15.5 43.5t-66.5 11.5h-442q-87 0 -119.5 34t-32.5 124v418
l246 215h240q71 0 126.5 -40.5t88.5 -105.5l115 -221q92 -179 192 -260l266 412q54 83 89.5 123t78.5 67q117 70 393 70l242 -215v-361q0 -87 -62.5 -153t-144.5 -66h-590zM2544 31q72 0 125.5 58t50.5 130l-17 348l-217 199q-267 0 -377 -66q-41 -25 -73.5 -61.5
t-83.5 -116.5l-269 -416q104 -75 254 -75h607z" />
    <glyph glyph-name="uni0636064A" unicode="&#xfd08;" horiz-adv-x="2938" arabic-form="isolated" 
d="M2238 1147v90l109 8v-98h-109zM1937 0q-102 0 -174 30.5t-145 111t-162 233.5l-133 227q-65 117 -180 117h-230l-223 -197l-18 -403q-3 -73 29 -101t108 -28h442q33 0 53 -6t28 -20t9.5 -23.5t1.5 -29.5v-7v-4q0 -57 -12 -105t-34.5 -84t-53 -65.5t-68 -49t-80.5 -35
t-89 -23.5t-94 -14t-96 -7t-95 -2.5t-90 0.5h-43q-158 0 -270.5 114t-112.5 275v532h31v-536q0 -146 103 -248.5t249 -102.5h45q41 1 85 0t90.5 2l93 6t92.5 12.5t88.5 21.5t80.5 31.5t68.5 44.5t54 59.5t35.5 76.5q12 43 12 101q0 32 -15.5 43.5t-66.5 11.5h-442
q-87 0 -119.5 34t-32.5 124v418l246 215h240q71 0 126.5 -40.5t88.5 -105.5l115 -221q92 -179 192 -260l266 412q54 83 89.5 123t78.5 67q117 70 393 70l242 -215v-361q0 -87 -62.5 -153t-144.5 -66h-590zM2544 31q72 0 125.5 58t50.5 130l-17 348l-217 199q-267 0 -377 -66
q-41 -25 -73.5 -61.5t-83.5 -116.5l-269 -416q104 -75 254 -75h607z" />
    <glyph glyph-name="uni06340631" unicode="&#xfd0d;" horiz-adv-x="2631" arabic-form="isolated" 
d="M1835 1212v91l109 8v-99h-109zM1921 989v-24l-330 -13v37h330zM1860 963v26h309l20 -6v-12zM2013 0q-88 0 -158.5 53.5t-87.5 130.5q-37 -78 -126.5 -131t-190.5 -53q-115 0 -179.5 23t-98.5 72.5t-54 144.5l-84 393l-440 -49l-158 -146v-557q0 -82 -36 -151.5
t-88.5 -114.5t-128 -82t-138.5 -56.5t-135 -35.5l-12 51q72 13 138.5 33t135.5 53t120.5 74t87 100.5t42.5 128.5l-19 570l183 165l440 56l35 -25l82 -407q25 -123 87 -166t220 -43q101 0 185.5 52t113.5 136l84 424l33 2l-84 -422q1 -74 67.5 -133t145.5 -59h114
q42 0 79.5 4t80 16.5t73 32t51 54.5t20.5 81l-17 477l31 9v-486q0 -61 -29 -106t-78 -68.5t-101 -34t-110 -10.5h-96z" />
    <glyph glyph-name="uni06330631" unicode="&#xfd0e;" horiz-adv-x="2631" arabic-form="isolated" 
d="M2013 0q-88 0 -158.5 53.5t-87.5 130.5q-37 -78 -126.5 -131t-190.5 -53q-115 0 -179.5 23t-98.5 72.5t-54 144.5l-84 393l-440 -49l-158 -146v-557q0 -82 -36 -151.5t-88.5 -114.5t-128 -82t-138.5 -56.5t-135 -35.5l-12 51q72 13 138.5 33t135.5 53t120.5 74t87 100.5
t42.5 128.5l-19 570l183 165l440 56l35 -25l82 -407q25 -123 87 -166t220 -43q101 0 185.5 52t113.5 136l84 424l33 2l-84 -422q1 -74 67.5 -133t145.5 -59h114q42 0 79.5 4t80 16.5t73 32t51 54.5t20.5 81l-17 477l31 9v-486q0 -61 -29 -106t-78 -68.5t-101 -34t-110 -10.5
h-96z" />
    <glyph glyph-name="uni06350631" unicode="&#xfd0f;" horiz-adv-x="2459" arabic-form="isolated" 
d="M586 616l440 56l35 -25l82 -407q15 -74 43 -117l266 412q56 87 92.5 127t81.5 67q112 66 387 66l242 -215v-361q0 -87 -62.5 -153t-144.5 -66h-590q-168 0 -239.5 50.5t-100.5 189.5l-84 393l-440 -49l-158 -146v-557q0 -82 -36 -151.5t-88.5 -114.5t-128 -82
t-138.5 -56.5t-135 -35.5l-12 51q72 13 138.5 33t135.5 53t120.5 74t87 100.5t42.5 128.5l-19 570zM2064 31q69 0 123 56.5t54 131.5l-17 348l-217 199q-259 0 -373 -66q-42 -25 -75.5 -62t-85.5 -116l-273 -420q34 -39 95 -55t163 -16h606z" />
    <glyph glyph-name="uni06360631" unicode="&#xfd10;" horiz-adv-x="2459" arabic-form="isolated" 
d="M1825 1147v90l108 8v-98h-108zM586 616l440 56l35 -25l82 -407q15 -74 43 -117l266 412q56 87 92.5 127t81.5 67q112 66 387 66l242 -215v-361q0 -87 -62.5 -153t-144.5 -66h-590q-168 0 -239.5 50.5t-100.5 189.5l-84 393l-440 -49l-158 -146v-557q0 -82 -36 -151.5
t-88.5 -114.5t-128 -82t-138.5 -56.5t-135 -35.5l-12 51q72 13 138.5 33t135.5 53t120.5 74t87 100.5t42.5 128.5l-19 570zM2064 31q69 0 123 56.5t54 131.5l-17 348l-217 199q-259 0 -373 -66q-42 -25 -75.5 -62t-85.5 -116l-273 -420q34 -39 95 -55t163 -16h606z" />
    <glyph glyph-name="uni0633064A.fina" unicode="&#xfd18;" horiz-adv-x="3209" arabic-form="final" 
d="M2480 0q-88 0 -158.5 53t-87.5 129q-35 -79 -116 -130.5t-181 -51.5q-153 0 -253 78t-228 297l-133 227q-65 117 -180 117h-230l-223 -197l-18 -403q-3 -73 29 -101t108 -28h442q33 0 53 -6t28 -20t9.5 -23.5t1.5 -29.5v-7q0 -24 -4 -64q-9 -68 -41.5 -121t-71 -86.5
t-105 -57.5t-115 -35.5t-132.5 -17.5t-125.5 -6.5t-124.5 -0.5h-36q-158 0 -270.5 114t-112.5 275v532h31v-536q0 -146 103 -248.5t249 -102.5h45q41 1 85 0t90.5 2l93 6t92.5 12.5t88.5 21.5t80.5 31.5t68.5 44.5t54 59.5t35.5 76.5q12 43 12 101q0 32 -15.5 43.5
t-66.5 11.5h-442q-87 0 -119.5 34t-32.5 124v418l246 215h240q71 0 126.5 -40.5t88.5 -105.5l115 -221q100 -192 205 -272t259 -80q99 0 174.5 51.5t104.5 136.5l84 424l33 2l-84 -422q1 -74 67.5 -133t145.5 -59h114q53 0 100 7.5t96 26t78 58t29 96.5l-16 477l31 9v-486
q0 -61 -29 -106t-78 -68.5t-101 -34t-110 -10.5h-96zM3086 0q-89 0 -144 64.5t-58 158.5h10q3 -82 52.5 -137t127.5 -55h135q21 0 21 -17q0 -14 -21 -14h-123z" />
    <glyph glyph-name="uni0634064A.fina" unicode="&#xfd1a;" horiz-adv-x="3209" arabic-form="final" 
d="M2214 1212v91l108 8v-99h-108zM2300 989v-24l-330 -13v37h330zM2238 963v26h310l20 -6v-12zM2480 0q-88 0 -158.5 53t-87.5 129q-35 -79 -116 -130.5t-181 -51.5q-153 0 -253 78t-228 297l-133 227q-65 117 -180 117h-230l-223 -197l-18 -403q-3 -73 29 -101t108 -28h442
q33 0 53 -6t28 -20t9.5 -23.5t1.5 -29.5v-7q0 -24 -4 -64q-9 -68 -41.5 -121t-71 -86.5t-105 -57.5t-115 -35.5t-132.5 -17.5t-125.5 -6.5t-124.5 -0.5h-36q-158 0 -270.5 114t-112.5 275v532h31v-536q0 -146 103 -248.5t249 -102.5h45q41 1 85 0t90.5 2l93 6t92.5 12.5
t88.5 21.5t80.5 31.5t68.5 44.5t54 59.5t35.5 76.5q12 43 12 101q0 32 -15.5 43.5t-66.5 11.5h-442q-87 0 -119.5 34t-32.5 124v418l246 215h240q71 0 126.5 -40.5t88.5 -105.5l115 -221q100 -192 205 -272t259 -80q99 0 174.5 51.5t104.5 136.5l84 424l33 2l-84 -422
q1 -74 67.5 -133t145.5 -59h114q53 0 100 7.5t96 26t78 58t29 96.5l-16 477l31 9v-486q0 -61 -29 -106t-78 -68.5t-101 -34t-110 -10.5h-96zM3086 0q-89 0 -144 64.5t-58 158.5h10q3 -82 52.5 -137t127.5 -55h135q21 0 21 -17q0 -14 -21 -14h-123z" />
    <glyph glyph-name="uni0635064A.fina" unicode="&#xfd22;" horiz-adv-x="3049" arabic-form="final" 
d="M2927 0q-89 0 -144.5 64.5t-58.5 158.5h10q3 -82 52.5 -137t127.5 -55h135q21 0 21 -17q0 -14 -21 -14h-122zM1937 0q-102 0 -174 30.5t-145 111t-162 233.5l-133 227q-65 117 -180 117h-230l-223 -197l-18 -403q-3 -73 29 -101t108 -28h442q33 0 53 -6t28 -20t9.5 -23.5
t1.5 -29.5v-7v-4q0 -57 -12 -105t-34.5 -84t-53 -65.5t-68 -49t-80.5 -35t-89 -23.5t-94 -14t-96 -7t-95 -2.5t-90 0.5h-43q-158 0 -270.5 114t-112.5 275v532h31v-536q0 -146 103 -248.5t249 -102.5h45q41 1 85 0t90.5 2l93 6t92.5 12.5t88.5 21.5t80.5 31.5t68.5 44.5
t54 59.5t35.5 76.5q12 43 12 101q0 32 -15.5 43.5t-66.5 11.5h-442q-87 0 -119.5 34t-32.5 124v418l246 215h240q71 0 126.5 -40.5t88.5 -105.5l115 -221q92 -179 192 -260l266 412q54 83 89.5 123t78.5 67q117 70 393 70l242 -215v-361q0 -87 -62.5 -153t-144.5 -66h-590z
M2544 31q72 0 125.5 58t50.5 130l-17 348l-217 199q-267 0 -377 -66q-41 -25 -73.5 -61.5t-83.5 -116.5l-269 -416q104 -75 254 -75h607z" />
    <glyph glyph-name="uni0636064A.fina" unicode="&#xfd24;" horiz-adv-x="3049" arabic-form="final" 
d="M2238 1147v90l109 8v-98h-109zM2927 0q-89 0 -144.5 64.5t-58.5 158.5h10q3 -82 52.5 -137t127.5 -55h135q21 0 21 -17q0 -14 -21 -14h-122zM1937 0q-102 0 -174 30.5t-145 111t-162 233.5l-133 227q-65 117 -180 117h-230l-223 -197l-18 -403q-3 -73 29 -101t108 -28
h442q33 0 53 -6t28 -20t9.5 -23.5t1.5 -29.5v-7v-4q0 -57 -12 -105t-34.5 -84t-53 -65.5t-68 -49t-80.5 -35t-89 -23.5t-94 -14t-96 -7t-95 -2.5t-90 0.5h-43q-158 0 -270.5 114t-112.5 275v532h31v-536q0 -146 103 -248.5t249 -102.5h45q41 1 85 0t90.5 2l93 6t92.5 12.5
t88.5 21.5t80.5 31.5t68.5 44.5t54 59.5t35.5 76.5q12 43 12 101q0 32 -15.5 43.5t-66.5 11.5h-442q-87 0 -119.5 34t-32.5 124v418l246 215h240q71 0 126.5 -40.5t88.5 -105.5l115 -221q92 -179 192 -260l266 412q54 83 89.5 123t78.5 67q117 70 393 70l242 -215v-361
q0 -87 -62.5 -153t-144.5 -66h-590zM2544 31q72 0 125.5 58t50.5 130l-17 348l-217 199q-267 0 -377 -66q-41 -25 -73.5 -61.5t-83.5 -116.5l-269 -416q104 -75 254 -75h607z" />
    <glyph glyph-name="uni06340631.fina" unicode="&#xfd29;" horiz-adv-x="2742" arabic-form="final" 
d="M2013 0q-88 0 -158.5 53.5t-87.5 130.5q-37 -78 -126.5 -131t-190.5 -53q-115 0 -179.5 23t-98.5 72.5t-54 144.5l-84 393l-440 -49l-158 -146v-557q0 -82 -36 -151.5t-88.5 -114.5t-128 -82t-138.5 -56.5t-135 -35.5l-12 51q72 13 138.5 33t135.5 53t120.5 74t87 100.5
t42.5 128.5l-19 570l183 165l440 56l35 -25l82 -407q25 -123 87 -166t220 -43q101 0 185.5 52t113.5 136l84 424l33 2l-84 -422q1 -74 67.5 -133t145.5 -59h114q42 0 79.5 4t80 16.5t73 32t51 54.5t20.5 81l-17 477l31 9v-486q0 -61 -29 -106t-78 -68.5t-101 -34t-110 -10.5
h-96zM2619 0q-89 0 -144 64.5t-58 158.5h10q3 -82 52.5 -137t127.5 -55h135q21 0 21 -17q0 -14 -21 -14h-123zM1835 1212v91l109 8v-99h-109zM1921 989v-24l-330 -13v37h330zM1860 963v26h309l20 -6v-12z" />
    <glyph glyph-name="uni06330631.fina" unicode="&#xfd2a;" horiz-adv-x="2742" arabic-form="final" 
d="M2013 0q-88 0 -158.5 53.5t-87.5 130.5q-37 -78 -126.5 -131t-190.5 -53q-115 0 -179.5 23t-98.5 72.5t-54 144.5l-84 393l-440 -49l-158 -146v-557q0 -82 -36 -151.5t-88.5 -114.5t-128 -82t-138.5 -56.5t-135 -35.5l-12 51q72 13 138.5 33t135.5 53t120.5 74t87 100.5
t42.5 128.5l-19 570l183 165l440 56l35 -25l82 -407q25 -123 87 -166t220 -43q101 0 185.5 52t113.5 136l84 424l33 2l-84 -422q1 -74 67.5 -133t145.5 -59h114q42 0 79.5 4t80 16.5t73 32t51 54.5t20.5 81l-17 477l31 9v-486q0 -61 -29 -106t-78 -68.5t-101 -34t-110 -10.5
h-96zM2619 0q-89 0 -144 64.5t-58 158.5h10q3 -82 52.5 -137t127.5 -55h135q21 0 21 -17q0 -14 -21 -14h-123z" />
    <glyph glyph-name="uni06350631.fina" unicode="&#xfd2b;" horiz-adv-x="2570" arabic-form="final" 
d="M2447 0q-89 0 -144 64.5t-58 158.5h10q3 -82 52.5 -137t127.5 -55h135q21 0 21 -17q0 -14 -21 -14h-123zM586 616l440 56l35 -25l82 -407q15 -74 43 -117l266 412q56 87 92.5 127t81.5 67q112 66 387 66l242 -215v-361q0 -87 -62.5 -153t-144.5 -66h-590
q-168 0 -239.5 50.5t-100.5 189.5l-84 393l-440 -49l-158 -146v-557q0 -82 -36 -151.5t-88.5 -114.5t-128 -82t-138.5 -56.5t-135 -35.5l-12 51q72 13 138.5 33t135.5 53t120.5 74t87 100.5t42.5 128.5l-19 570zM2064 31q69 0 123 56.5t54 131.5l-17 348l-217 199
q-259 0 -373 -66q-42 -25 -75.5 -62t-85.5 -116l-273 -420q34 -39 95 -55t163 -16h606z" />
    <glyph glyph-name="uni06360631.fina" unicode="&#xfd2c;" horiz-adv-x="2570" arabic-form="final" 
d="M2447 0q-89 0 -144 64.5t-58 158.5h10q3 -82 52.5 -137t127.5 -55h135q21 0 21 -17q0 -14 -21 -14h-123zM586 616l440 56l35 -25l82 -407q15 -74 43 -117l266 412q56 87 92.5 127t81.5 67q112 66 387 66l242 -215v-361q0 -87 -62.5 -153t-144.5 -66h-590
q-168 0 -239.5 50.5t-100.5 189.5l-84 393l-440 -49l-158 -146v-557q0 -82 -36 -151.5t-88.5 -114.5t-128 -82t-138.5 -56.5t-135 -35.5l-12 51q72 13 138.5 33t135.5 53t120.5 74t87 100.5t42.5 128.5l-19 570zM2064 31q69 0 123 56.5t54 131.5l-17 348l-217 199
q-259 0 -373 -66q-42 -25 -75.5 -62t-85.5 -116l-273 -420q34 -39 95 -55t163 -16h606zM1825 1147v90l108 8v-98h-108z" />
    <glyph glyph-name="uni0624.fina" unicode="&#x624;" horiz-adv-x="1241" arabic-form="final" 
d="M1241 31q21 0 21 -15q0 -16 -21 -16h-260v31h260zM367 -522q304 43 469.5 153.5t162.5 268.5l-2 100h-579q-88 0 -150.5 65t-62.5 154v426l246 215h342q89 0 154 -61t65 -146v-753q0 -178 -173 -306.5t-458 -162.5l-129 -17l-12 49zM973 657q-3 73 -57 122.5t-125 49.5
h-330l-223 -196l-19 -412q-3 -75 51 -132.5t127 -57.5h602zM514 1311l-8 14l78 49q-30 3 -54 45l-51 82q-21 35 -24 53q-3 19 6 48q4 15 13 44.5t13 43.5l80 47q33 18 64.5 10t56.5 -39l6 -8l-8 -6q-23 29 -54.5 36t-60.5 -10l-71 -43q-4 -14 -11.5 -40t-11.5 -40
q-7 -26 -4 -41q2 -15 19 -49l47 -84q20 -37 46.5 -38.5t73.5 30.5l177 115l12 -19z" />
    <glyph glyph-name="uni0626.init" unicode="&#x626;" horiz-adv-x="868" arabic-form="initial" 
d="M-2 0v31h463q73 0 132 51.5t56 120.5l-16 493l31 9v-502q0 -84 -62.5 -143.5t-155.5 -59.5h-448zM250 973l-8 14l77 49q-29 3 -53 45l-51 82q-23 37 -25 54q-2 16 7 47q4 14 13 43.5t13 44.5l80 47q33 18 64.5 10t56.5 -39l6 -8l-8 -6q-23 29 -54.5 36t-60.5 -10l-71 -43
q-4 -13 -11.5 -39t-11.5 -40q-7 -26 -4 -41q3 -20 18 -50l47 -84q20 -37 47 -38.5t74 30.5l176 115l13 -18z" />
    <glyph glyph-name="uni0626.medi" unicode="&#x626;" horiz-adv-x="892" arabic-form="medial" 
d="M758 0q-74 0 -129 45.5t-74 116.5q-22 -70 -83.5 -116t-139.5 -46h-334v31h352q78 0 130 54t52 130v432l31 4v-436q0 -76 52 -130t130 -54h148q20 0 20 -15q0 -16 -20 -16h-135zM301 973l-8 14l78 49q-30 3 -54 45l-51 82q-21 35 -24 54q-3 18 6 47q4 14 13 43.5t13 44.5
l80 47q33 18 64.5 10t56.5 -39l6 -8l-8 -6q-23 29 -54.5 36t-60.5 -10l-71 -43q-4 -13 -11.5 -39t-11.5 -40q-6 -26 -4 -41q2 -17 19 -50l47 -84q20 -37 46.5 -38.5t73.5 30.5l177 115l12 -18z" />
    <glyph glyph-name="uni0627.fina" unicode="&#x627;" horiz-adv-x="581" arabic-form="final" 
d="M205 1315l31 12l14 -1110q1 -78 53.5 -132t126.5 -54h152q20 0 20 -15q0 -16 -20 -16h-133q-91 0 -150.5 61t-62.5 156z" />
    <glyph glyph-name="uni0628.fina" unicode="&#x628;" horiz-adv-x="1994" arabic-form="final" 
d="M397 0q-79 0 -135.5 61t-56.5 142v403l31 2v-405q0 -71 40.5 -121.5t106.5 -50.5h1096q73 0 132 51.5t56 120.5l-16 493l30 9v-502q0 -84 -62 -143.5t-155 -59.5h-1067zM1872 0q-89 0 -144.5 64.5t-58.5 158.5h10q3 -82 53 -137t128 -55h135q20 0 20 -17q0 -14 -20 -14
h-123zM920 -492v95l100 8v-103h-100z" />
    <glyph glyph-name="uni0628.init" unicode="&#x628;" horiz-adv-x="868" arabic-form="initial" 
d="M-2 0v31h463q73 0 132 51.5t56 120.5l-16 493l31 9v-502q0 -84 -62.5 -143.5t-155.5 -59.5h-448zM254 -492v95l100 8v-103h-100z" />
    <glyph glyph-name="uni0628.medi" unicode="&#x628;" horiz-adv-x="892" arabic-form="medial" 
d="M758 0q-74 0 -129 45.5t-74 116.5q-22 -70 -83.5 -116t-139.5 -46h-334v31h352q78 0 130 54t52 130v432l31 4v-436q0 -76 52 -130t130 -54h148q20 0 20 -15q0 -16 -20 -16h-135zM285 -492v95l100 8v-103h-100z" />
    <glyph glyph-name="uni0629.fina" unicode="&#x629;" horiz-adv-x="1314" arabic-form="final" 
d="M1266 0q-156 0 -220.5 55t-84.5 205q-3 -8 -8.5 -23.5t-8.5 -23.5q-48 -135 -192 -135h-334q-88 0 -151 65t-60 154q2 58 2 123t0.5 93t4 56t11.5 47q9 20 28 41.5t40 40t72.5 63.5t95.5 85l409 69l-14 97l33 10l86 -735q19 -156 77 -206t214 -50h49q20 0 20 -15
q0 -16 -20 -16h-49zM752 109q131 0 170 116q3 10 15 43t17 51l-77 553l-400 -61q-42 -38 -88 -78t-67 -57.5t-39 -37.5t-27 -38q-7 -14 -11.5 -31t-7.5 -44.5t-4.5 -52.5t-5 -77t-6.5 -96q-6 -72 53 -131t134 -59h344zM690 1276v-25l-330 -12v37h330zM629 1249v27h309l20 -6
v-13z" />
    <glyph glyph-name="uni062A.fina" unicode="&#x62a;" horiz-adv-x="1994" arabic-form="final" 
d="M397 0q-79 0 -135.5 61t-56.5 142v403l31 2v-405q0 -71 40.5 -121.5t106.5 -50.5h1096q73 0 132 51.5t56 120.5l-16 493l30 9v-502q0 -84 -62 -143.5t-155 -59.5h-1067zM1872 0q-89 0 -144.5 64.5t-58.5 158.5h10q3 -82 53 -137t128 -55h135q20 0 20 -17q0 -14 -20 -14
h-123zM997 805v-25l-329 -12v37h329zM936 778v27h309l21 -6v-13z" />
    <glyph glyph-name="uni062A.init" unicode="&#x62a;" horiz-adv-x="888" arabic-form="initial" 
d="M-2 0v31h463q73 0 132 51.5t56 120.5l-16 493l31 9v-502q0 -84 -62.5 -143.5t-155.5 -59.5h-448zM416 969v-25l-330 -12v37h330zM354 942v27h310l20 -6v-13z" />
    <glyph glyph-name="uni062A.medi" unicode="&#x62a;" horiz-adv-x="892" arabic-form="medial" 
d="M758 0q-74 0 -129 45.5t-74 116.5q-22 -70 -83.5 -116t-139.5 -46h-334v31h352q78 0 130 54t52 130v432l31 4v-436q0 -76 52 -130t130 -54h148q20 0 20 -15q0 -16 -20 -16h-135zM467 969v-25l-330 -12v37h330zM406 942v27h309l20 -6v-13z" />
    <glyph glyph-name="uni062B.fina" unicode="&#x62b;" horiz-adv-x="1994" arabic-form="final" 
d="M397 0q-79 0 -135.5 61t-56.5 142v403l31 2v-405q0 -71 40.5 -121.5t106.5 -50.5h1096q73 0 132 51.5t56 120.5l-16 493l30 9v-502q0 -84 -62 -143.5t-155 -59.5h-1067zM1872 0q-89 0 -144.5 64.5t-58.5 158.5h10q3 -82 53 -137t128 -55h135q20 0 20 -17q0 -14 -20 -14
h-123zM911 1028v90l109 8v-98h-109zM997 805v-25l-329 -12v37h329zM936 778v27h309l21 -6v-13z" />
    <glyph glyph-name="uni062B.init" unicode="&#x62b;" horiz-adv-x="868" arabic-form="initial" 
d="M-2 0v31h463q73 0 132 51.5t56 120.5l-16 493l31 9v-502q0 -84 -62.5 -143.5t-155.5 -59.5h-448zM330 1192v90l108 8v-98h-108zM416 969v-25l-330 -12v37h330zM354 942v27h310l20 -6v-13z" />
    <glyph glyph-name="uni062B.medi" unicode="&#x62b;" horiz-adv-x="892" arabic-form="medial" 
d="M758 0q-74 0 -129 45.5t-74 116.5q-22 -70 -83.5 -116t-139.5 -46h-334v31h352q78 0 130 54t52 130v432l31 4v-436q0 -76 52 -130t130 -54h148q20 0 20 -15q0 -16 -20 -16h-135zM381 1192v90l108 8v-98h-108zM467 969v-25l-330 -12v37h330zM406 942v27h309l20 -6v-13z
" />
    <glyph glyph-name="uni062C.fina" unicode="&#x62c;" horiz-adv-x="1417" arabic-form="final" 
d="M727 -190v90l109 8v-98h-109zM1292 0q-181 0 -265.5 79t-104.5 267l18 4q19 -169 101.5 -244t250.5 -75h123q23 0 23 -15q0 -16 -23 -16h-123zM506 -578q-112 0 -204.5 86.5t-94.5 192.5l-2 137q-3 177 54 257.5t222 133.5l670 211l-557 310q-46 24 -96 24
q-54 0 -99.5 -26.5t-70.5 -73.5l-64 -123l-26 18l63 119q29 56 81.5 87.5t113.5 31.5q53 0 114 -33l697 -383l-17 -29l-108 60l-695 -219q-146 -46 -204 -127t-58 -238l-2 -135q0 -91 82 -165t180 -73l676 9l-8 -52h-647z" />
    <glyph glyph-name="uni062C.init" unicode="&#x62c;" horiz-adv-x="1476" arabic-form="initial" 
d="M-2 0v31h88q318 0 442 71l588 336l-559 312q-46 24 -98 24q-54 0 -98.5 -27t-69.5 -73l-64 -123l-24 18l61 119q29 56 80.5 87.5t114.5 31.5q55 0 114 -33l699 -383l-17 -29l-122 68l-588 -350q-136 -80 -465 -80h-82zM492 -492v95l100 8v-103h-100z" />
    <glyph glyph-name="uni062C.medi" unicode="&#x62c;" horiz-adv-x="1419" arabic-form="medial" 
d="M1296 0q-177 0 -261.5 73t-104.5 242l18 4q19 -150 101.5 -219t246.5 -69h123q21 0 21 -15q0 -16 -21 -16h-123zM-2 0v31h88q318 0 442 71l588 336l-559 312q-46 24 -98 24q-54 0 -98.5 -27t-69.5 -73l-64 -123l-24 18l61 119q29 56 80.5 87.5t114.5 31.5q55 0 114 -33
l699 -383l-17 -29l-122 68l-588 -350q-136 -80 -465 -80h-82zM494 -492v95l100 8v-103h-100z" />
    <glyph glyph-name="uni062D.fina" unicode="&#x62d;" horiz-adv-x="1419" arabic-form="final" 
d="M1294 0q-181 0 -265.5 79t-104.5 267l18 4q19 -169 101.5 -244t250.5 -75h123q23 0 23 -15q0 -16 -23 -16h-123zM508 -578q-112 0 -204.5 86.5t-94.5 192.5l-2 137q-3 177 54 257.5t222 133.5l670 211l-557 310q-46 24 -96 24q-54 0 -99.5 -26.5t-70.5 -73.5l-64 -123
l-26 18l63 119q29 56 81.5 87.5t113.5 31.5q53 0 114 -33l697 -383l-17 -29l-108 60l-695 -219q-146 -46 -204 -127t-58 -238l-2 -135q0 -91 82 -165t180 -73l676 9l-8 -52h-647z" />
    <glyph glyph-name="uni062D.init" unicode="&#x62d;" horiz-adv-x="1476" arabic-form="initial" 
d="M-2 0v31h88q318 0 442 71l588 336l-559 312q-46 24 -98 24q-54 0 -98.5 -27t-69.5 -73l-64 -123l-24 18l61 119q29 56 80.5 87.5t114.5 31.5q55 0 114 -33l699 -383l-17 -29l-122 68l-588 -350q-136 -80 -465 -80h-82z" />
    <glyph glyph-name="uni062D.medi" unicode="&#x62d;" horiz-adv-x="1419" arabic-form="medial" 
d="M1296 0q-177 0 -261.5 73t-104.5 242l18 4q19 -150 101.5 -219t246.5 -69h123q21 0 21 -15q0 -16 -21 -16h-123zM-2 0v31h88q318 0 442 71l588 336l-559 312q-46 24 -98 24q-54 0 -98.5 -27t-69.5 -73l-64 -123l-24 18l61 119q29 56 80.5 87.5t114.5 31.5q55 0 114 -33
l699 -383l-17 -29l-122 68l-588 -350q-136 -80 -465 -80h-82z" />
    <glyph glyph-name="uni062E.fina" unicode="&#x62e;" horiz-adv-x="1419" arabic-form="final" 
d="M1294 0q-181 0 -265.5 79t-104.5 267l18 4q19 -169 101.5 -244t250.5 -75h123q23 0 23 -15q0 -16 -23 -16h-123zM508 -578q-112 0 -204.5 86.5t-94.5 192.5l-2 137q-3 177 54 257.5t222 133.5l670 211l-557 310q-46 24 -96 24q-54 0 -99.5 -26.5t-70.5 -73.5l-64 -123
l-26 18l63 119q29 56 81.5 87.5t113.5 31.5q53 0 114 -33l697 -383l-17 -29l-108 60l-695 -219q-146 -46 -204 -127t-58 -238l-2 -135q0 -91 82 -165t180 -73l676 9l-8 -52h-647zM444 1135v90l109 8v-98h-109z" />
    <glyph glyph-name="uni062E.init" unicode="&#x62e;" horiz-adv-x="1476" arabic-form="initial" 
d="M-2 0v31h88q318 0 442 71l588 336l-559 312q-46 24 -98 24q-54 0 -98.5 -27t-69.5 -73l-64 -123l-24 18l61 119q29 56 80.5 87.5t114.5 31.5q55 0 114 -33l699 -383l-17 -29l-122 68l-588 -350q-136 -80 -465 -80h-82zM403 1135v90l109 8v-98h-109z" />
    <glyph glyph-name="uni062E.medi" unicode="&#x62e;" horiz-adv-x="1419" arabic-form="medial" 
d="M1296 0q-177 0 -261.5 73t-104.5 242l18 4q19 -150 101.5 -219t246.5 -69h123q21 0 21 -15q0 -16 -21 -16h-123zM-2 0v31h88q318 0 442 71l588 336l-559 312q-46 24 -98 24q-54 0 -98.5 -27t-69.5 -73l-64 -123l-24 18l61 119q29 56 80.5 87.5t114.5 31.5q55 0 114 -33
l699 -383l-17 -29l-122 68l-588 -350q-136 -80 -465 -80h-82zM406 1135v90l108 8v-98h-108z" />
    <glyph glyph-name="uni062F.fina" unicode="&#x62f;" horiz-adv-x="1347" arabic-form="final" 
d="M1348 0q-89 0 -151.5 24t-97.5 62t-65 98q-12 -76 -73.5 -130t-137.5 -54h-424q-86 0 -140 57t-54 148v69l31 5v-74q0 -89 44 -131.5t136 -42.5h426q71 0 124 52t56 124l-64 147l-235 535l33 8l227 -543q61 -145 83 -183q52 -89 134 -119q59 -21 148 -21q20 0 20 -15
q0 -16 -20 -16z" />
    <glyph glyph-name="uni0630.fina" unicode="&#x630;" horiz-adv-x="1347" arabic-form="final" 
d="M1348 0q-89 0 -151.5 24t-97.5 62t-65 98q-12 -76 -73.5 -130t-137.5 -54h-424q-86 0 -140 57t-54 148v69l31 5v-74q0 -89 44 -131.5t136 -42.5h426q71 0 124 52t56 124l-64 147l-235 535l33 8l227 -543q61 -145 83 -183q52 -89 134 -119q59 -21 148 -21q20 0 20 -15
q0 -16 -20 -16zM629 1214v91l108 8v-99h-108z" />
    <glyph glyph-name="uni0631.fina" unicode="&#x631;" horiz-adv-x="749" arabic-form="final" 
d="M668 0q-81 0 -145 44.5t-87 115.5v-279q0 -155 -137 -270t-389 -170l-12 51q233 43 371.5 146t152.5 243l-19 744l33 6v-412q5 -80 69.5 -134t162.5 -54h82q20 0 20 -15q0 -16 -20 -16h-82z" />
    <glyph glyph-name="uni0632.fina" unicode="&#x632;" horiz-adv-x="749" arabic-form="final" 
d="M668 0q-81 0 -145 44.5t-87 115.5v-279q0 -155 -137 -270t-389 -170l-12 51q233 43 371.5 146t152.5 243l-19 744l33 6v-412q5 -80 69.5 -134t162.5 -54h82q20 0 20 -15q0 -16 -20 -16h-82zM365 958v91l108 8v-99h-108z" />
    <glyph glyph-name="uni0633.fina" unicode="&#x633;" horiz-adv-x="2865" arabic-form="final" 
d="M586 -410q-157 0 -269 115.5t-112 276.5v501h31v-501q0 -148 103.5 -252.5t250.5 -104.5q347 0 512 87.5t160 269.5l-21 729l31 10l2 -524q15 -70 99.5 -118t193.5 -48q114 0 205 55t106 133l84 424l33 2l-84 -422q1 -73 67 -132.5t146 -59.5h114q143 0 224 49t78 135
l-15 473l31 4v-477q2 -77 53 -130.5t129 -53.5h127q21 0 21 -15q0 -16 -21 -16h-115q-73 0 -128 45t-74 115q-23 -75 -104.5 -117.5t-205.5 -42.5h-96q-88 0 -158.5 53t-87.5 131q-38 -78 -133 -131t-196 -53q-92 0 -175.5 45.5t-115.5 114.5v-178q1 -201 -167 -296.5
t-523 -95.5z" />
    <glyph glyph-name="uni0633.init" unicode="&#x633;" horiz-adv-x="1957" arabic-form="initial" 
d="M1339 0q-87 0 -157.5 53t-87.5 131q-38 -78 -133.5 -131t-196.5 -53q-100 0 -188 52.5t-113 127.5q-22 -85 -112 -132.5t-228 -47.5h-125v31h125q142 0 228.5 51t86.5 137v428l31 4v-432q3 -78 89.5 -133t205.5 -55q104 0 193.5 54t117.5 134l84 424l33 2l-84 -422
q1 -73 67 -132.5t146 -59.5h115q145 0 225.5 50t77.5 138l-17 477l31 9v-486q0 -101 -85.5 -160t-231.5 -59h-97z" />
    <glyph glyph-name="uni0633.medi" unicode="&#x633;" horiz-adv-x="2041" arabic-form="medial" 
d="M1948 0q-72 0 -127.5 44t-75.5 116q-23 -75 -104.5 -117.5t-204.5 -42.5h-97q-87 0 -157.5 53t-87.5 131q-38 -78 -133.5 -131t-196.5 -53q-100 0 -188 52.5t-113 127.5q-22 -85 -112 -132.5t-228 -47.5h-125v31h125q141 0 226.5 51t88.5 137v428l31 4v-432
q3 -78 89.5 -133t205.5 -55q104 0 193.5 54t117.5 134l84 424l33 2l-84 -422q1 -73 67 -132.5t146 -59.5h115q143 0 223.5 49t77.5 135l-15 473l31 4v-477q0 -78 52.5 -131t129.5 -53h107q20 0 20 -15q0 -6 -5.5 -11t-14.5 -5h-94z" />
    <glyph glyph-name="uni0634.fina" unicode="&#x634;" horiz-adv-x="2865" arabic-form="final" 
d="M586 -410q-157 0 -269 115.5t-112 276.5v501h31v-501q0 -148 103.5 -252.5t250.5 -104.5q347 0 512 87.5t160 269.5l-21 729l31 10l2 -524q15 -70 99.5 -118t193.5 -48q114 0 205 55t106 133l84 424l33 2l-84 -422q1 -73 67 -132.5t146 -59.5h114q143 0 224 49t78 135
l-15 473l31 4v-477q2 -77 53 -130.5t129 -53.5h127q21 0 21 -15q0 -16 -21 -16h-115q-73 0 -128 45t-74 115q-23 -75 -104.5 -117.5t-205.5 -42.5h-96q-88 0 -158.5 53t-87.5 131q-38 -78 -133 -131t-196 -53q-92 0 -175.5 45.5t-115.5 114.5v-178q1 -201 -167 -296.5
t-523 -95.5zM1925 1223v90l109 8v-98h-109zM2011 999v-24l-330 -12v36h330zM1950 973v26h309l20 -6v-12z" />
    <glyph glyph-name="uni0634.init" unicode="&#x634;" horiz-adv-x="1959" arabic-form="initial" 
d="M1341 0q-87 0 -157.5 53t-87.5 131q-38 -78 -133.5 -131t-196.5 -53q-100 0 -188 52.5t-113 127.5q-22 -85 -112 -132.5t-228 -47.5h-125v31h125q142 0 228.5 51t86.5 137v428l31 4v-432q3 -78 89.5 -133t205.5 -55q104 0 193.5 54t117.5 134l84 424l33 2l-84 -422
q1 -73 67 -132.5t146 -59.5h115q145 0 225.5 50t77.5 138l-17 477l31 9v-486q0 -101 -85.5 -160t-231.5 -59h-97zM1139 1223v90l108 8v-98h-108zM1225 999v-24l-330 -12v36h330zM1163 973v26h310l20 -6v-12z" />
    <glyph glyph-name="uni0634.medi" unicode="&#x634;" horiz-adv-x="2041" arabic-form="medial" 
d="M1948 0q-72 0 -127.5 44t-75.5 116q-23 -75 -104.5 -117.5t-204.5 -42.5h-97q-87 0 -157.5 53t-87.5 131q-38 -78 -133.5 -131t-196.5 -53q-100 0 -188 52.5t-113 127.5q-22 -85 -112 -132.5t-228 -47.5h-125v31h125q141 0 226.5 51t88.5 137v428l31 4v-432
q3 -78 89.5 -133t205.5 -55q104 0 193.5 54t117.5 134l84 424l33 2l-84 -422q1 -73 67 -132.5t146 -59.5h115q143 0 223.5 49t77.5 135l-15 473l31 4v-477q0 -78 52.5 -131t129.5 -53h107q20 0 20 -15q0 -6 -5.5 -11t-14.5 -5h-94zM1137 1223v90l108 8v-98h-108zM1223 999
v-24l-330 -12v36h330zM1161 973v26h309l21 -6v-12z" />
    <glyph glyph-name="uni0635.fina" unicode="&#x635;" horiz-adv-x="2701" arabic-form="final" 
d="M2578 0q-89 0 -144 64.5t-58 158.5h10q3 -82 52.5 -137t127.5 -55h135q21 0 21 -17q0 -14 -21 -14h-123zM586 -410q-156 0 -268.5 115t-112.5 277v501h31v-501q0 -149 103.5 -253t250.5 -104q347 0 512 87.5t160 269.5l-21 729l31 10l2 -533q22 -35 43 -63l266 410
q88 135 169 188t228 65q82 7 164 7l242 -215v-361q0 -86 -61.5 -152.5t-145.5 -66.5h-698q-57 0 -113.5 37.5t-91.5 97.5v-153q1 -201 -167 -296.5t-523 -95.5zM1333 106q69 -75 148 -75h714q72 0 126 58t51 130l-17 348l-217 199q-90 0 -158 -6q-140 -12 -218 -63
t-158 -175z" />
    <glyph glyph-name="uni0635.init" unicode="&#x635;" horiz-adv-x="1689" arabic-form="initial" 
d="M-2 0v31h174q78 0 130 54t52 134v440l31 3v-443q0 -17 -4 -45q25 -37 35 -49l266 410q88 135 169 188t228 65q82 7 164 7l242 -215v-361q0 -86 -61.5 -152.5t-145.5 -66.5h-698q-57 0 -115.5 39t-93.5 100q-24 -64 -81.5 -101.5t-135.5 -37.5h-156zM432 106
q69 -75 148 -75h714q72 0 125.5 58t50.5 130l-16 348l-217 199q-91 0 -158 -6q-140 -12 -218.5 -63t-158.5 -175z" />
    <glyph glyph-name="uni0635.medi" unicode="&#x635;" horiz-adv-x="1800" arabic-form="medial" 
d="M1677 0q-89 0 -144 64.5t-58 158.5h10q3 -82 52.5 -137t127.5 -55h135q21 0 21 -17q0 -14 -21 -14h-123zM-2 0v31h174q78 0 130 54t52 134v440l31 3v-443q0 -17 -4 -45q25 -37 35 -49l266 410q88 135 169 188t228 65q82 7 164 7l242 -215v-361q0 -86 -61.5 -152.5
t-145.5 -66.5h-698q-57 0 -115.5 39t-93.5 100q-24 -64 -81.5 -101.5t-135.5 -37.5h-156zM432 106q69 -75 148 -75h714q72 0 125.5 58t50.5 130l-16 348l-217 199q-91 0 -158 -6q-140 -12 -218.5 -63t-158.5 -175z" />
    <glyph glyph-name="uni0636.fina" unicode="&#x636;" horiz-adv-x="2701" arabic-form="final" 
d="M2578 0q-89 0 -144 64.5t-58 158.5h10q3 -82 52.5 -137t127.5 -55h135q21 0 21 -17q0 -14 -21 -14h-123zM586 -410q-156 0 -268.5 115t-112.5 277v501h31v-501q0 -149 103.5 -253t250.5 -104q347 0 512 87.5t160 269.5l-21 729l31 10l2 -533q22 -35 43 -63l266 410
q88 135 169 188t228 65q82 7 164 7l242 -215v-361q0 -86 -61.5 -152.5t-145.5 -66.5h-698q-57 0 -113.5 37.5t-91.5 97.5v-153q1 -201 -167 -296.5t-523 -95.5zM1333 106q69 -75 148 -75h714q72 0 126 58t51 130l-17 348l-217 199q-90 0 -158 -6q-140 -12 -218 -63
t-158 -175zM1952 1106v90l108 8v-98h-108z" />
    <glyph glyph-name="uni0636.init" unicode="&#x636;" horiz-adv-x="1689" arabic-form="initial" 
d="M-2 0v31h174q78 0 130 54t52 134v440l31 3v-443q0 -17 -4 -45q25 -37 35 -49l266 410q88 135 169 188t228 65q82 7 164 7l242 -215v-361q0 -86 -61.5 -152.5t-145.5 -66.5h-698q-57 0 -115.5 39t-93.5 100q-24 -64 -81.5 -101.5t-135.5 -37.5h-156zM432 106
q69 -75 148 -75h714q72 0 125.5 58t50.5 130l-16 348l-217 199q-91 0 -158 -6q-140 -12 -218.5 -63t-158.5 -175zM1030 1106v90l109 8v-98h-109z" />
    <glyph glyph-name="uni0636.medi" unicode="&#x636;" horiz-adv-x="1800" arabic-form="medial" 
d="M1677 0q-89 0 -144 64.5t-58 158.5h10q3 -82 52.5 -137t127.5 -55h135q21 0 21 -17q0 -14 -21 -14h-123zM-2 0v31h174q78 0 130 54t52 134v440l31 3v-443q0 -17 -4 -45q25 -37 35 -49l266 410q88 135 169 188t228 65q82 7 164 7l242 -215v-361q0 -86 -61.5 -152.5
t-145.5 -66.5h-698q-57 0 -115.5 39t-93.5 100q-24 -64 -81.5 -101.5t-135.5 -37.5h-156zM432 106q69 -75 148 -75h714q72 0 125.5 58t50.5 130l-16 348l-217 199q-91 0 -158 -6q-140 -12 -218.5 -63t-158.5 -175zM1030 1106v90l109 8v-98h-109z" />
    <glyph glyph-name="uni0637.fina" unicode="&#x637;" horiz-adv-x="1773" arabic-form="final" 
d="M217 0l-12 55l139 -4l123 191l-29 1079l31 8l10 -973l-6 -102l182 281q89 138 170.5 189.5t227.5 63.5q82 7 164 7l241 -215v-361q0 -86 -61.5 -152.5t-145.5 -66.5h-1034zM1268 31q71 -1 125 57t51 131l-17 348l-217 199q-90 0 -157 -6q-136 -12 -215 -62t-162 -176
l-307 -471zM1651 0q-89 0 -144.5 64.5t-58.5 158.5h10q3 -82 52.5 -137t127.5 -55h136q20 0 20 -17q0 -14 -20 -14h-123z" />
    <glyph glyph-name="uni0637.init" unicode="&#x637;" horiz-adv-x="1435" arabic-form="initial" 
d="M-2 0v31h106l136 211l-29 1079l31 8l10 -973l-6 -102l182 281q89 138 170 189.5t227 63.5q82 7 164 7l242 -215v-361q0 -86 -61.5 -152.5t-145.5 -66.5h-1026zM1040 31q72 0 126 58t51 130l-17 348l-217 199q-90 0 -158 -6q-136 -12 -215 -62t-161 -176l-320 -491h911z
" />
    <glyph glyph-name="uni0637.medi" unicode="&#x637;" horiz-adv-x="1552" arabic-form="medial" 
d="M-2 0v31h106l136 211l-29 1079l31 8l10 -973l-6 -102l182 281q89 138 170 189.5t227 63.5q82 7 164 7l242 -215v-361q0 -86 -61.5 -152.5t-145.5 -66.5h-1026zM1040 31q72 0 126 58t51 130l-17 348l-217 199q-90 0 -158 -6q-136 -12 -215 -62t-161 -176l-320 -491h911z
M1430 0q-89 0 -144.5 64.5t-58.5 158.5h10q3 -82 52.5 -137t127.5 -55h135q21 0 21 -17q0 -14 -21 -14h-122z" />
    <glyph glyph-name="uni0638.fina" unicode="&#x638;" horiz-adv-x="1773" arabic-form="final" 
d="M217 0l-12 55l139 -4l123 191l-29 1079l31 8l10 -973l-6 -102l182 281q89 138 170.5 189.5t227.5 63.5q82 7 164 7l241 -215v-361q0 -86 -61.5 -152.5t-145.5 -66.5h-1034zM1268 31q71 -1 125 57t51 131l-17 348l-217 199q-90 0 -157 -6q-136 -12 -215 -62t-162 -176
l-307 -471zM1651 0q-89 0 -144.5 64.5t-58.5 158.5h10q3 -82 52.5 -137t127.5 -55h136q20 0 20 -17q0 -14 -20 -14h-123zM1030 1106v90l109 8v-98h-109z" />
    <glyph glyph-name="uni0638.init" unicode="&#x638;" horiz-adv-x="1435" arabic-form="initial" 
d="M-2 0v31h106l136 211l-29 1079l31 8l10 -973l-6 -102l182 281q89 138 170 189.5t227 63.5q82 7 164 7l242 -215v-361q0 -86 -61.5 -152.5t-145.5 -66.5h-1026zM1040 31q72 0 126 58t51 130l-17 348l-217 199q-90 0 -158 -6q-136 -12 -215 -62t-161 -176l-320 -491h911z
M825 1106v90l109 8v-98h-109z" />
    <glyph glyph-name="uni0638.medi" unicode="&#x638;" horiz-adv-x="1552" arabic-form="medial" 
d="M-2 0v31h106l136 211l-29 1079l31 8l10 -973l-6 -102l182 281q89 138 170 189.5t227 63.5q82 7 164 7l242 -215v-361q0 -86 -61.5 -152.5t-145.5 -66.5h-1026zM1040 31q72 0 126 58t51 130l-17 348l-217 199q-90 0 -158 -6q-136 -12 -215 -62t-161 -176l-320 -491h911z
M1430 0q-89 0 -144.5 64.5t-58.5 158.5h10q3 -82 52.5 -137t127.5 -55h135q21 0 21 -17q0 -14 -21 -14h-122zM825 1106v90l109 8v-98h-109z" />
    <glyph glyph-name="uni0639.fina" unicode="&#x639;" horiz-adv-x="1417" arabic-form="final" 
d="M430 -584q-89 0 -154 65.5t-65 156.5v53q1 69 5 114.5t17.5 83.5t32.5 59.5t54.5 39.5t79 28t110.5 19q26 4 81 11t81 11q-145 70 -234 243t-145 484l-88 -2l16 39l793 8q83 -89 110 -132.5t25 -86.5q-1 -28 -15.5 -81t-38.5 -124t-28 -83q-62 -196 -281 -273
q80 -18 175 -18h456q21 0 21 -15q0 -6 -6 -11t-15 -5h-456q-134 0 -232 33q-36 -5 -109.5 -14.5t-109.5 -14.5q-68 -9 -109 -18.5t-76 -28t-52.5 -40t-29.5 -63.5t-15 -90t-3 -126q0 -76 54 -133t127 -56l638 19l-14 -52h-600zM727 68q128 37 213.5 106t112.5 160
q0 1 24 76.5t36.5 124.5t12.5 75q0 39 -24.5 78.5t-97.5 118.5l-697 -21q70 -323 166.5 -491t253.5 -227z" />
    <glyph glyph-name="uni0639.init" unicode="&#x639;" horiz-adv-x="1259" arabic-form="initial" 
d="M-2 0v31h379q-78 44 -78 170v22q0 60 -2 128t-2.5 99t2.5 63t12 54q5 13 12 25t20.5 27.5t23 26.5t33 33t37.5 35t49.5 45.5t56.5 51.5h231q96 0 159.5 -62.5t63.5 -156.5v-2l-18 -6q0 80 -60.5 138t-144.5 58h-221q-20 -19 -51.5 -47t-45.5 -40.5t-35 -32.5t-31 -30.5
t-22 -24.5t-19 -25.5t-13 -24.5q-8 -18 -12.5 -37t-6 -52t-1.5 -56.5t0.5 -84t0.5 -100.5v-24q0 -99 56.5 -138.5t189.5 -33.5l488 24l6 -35q-53 -2 -153.5 -7t-182.5 -8t-154 -3h-567z" />
    <glyph glyph-name="uni0639.medi" unicode="&#x639;" horiz-adv-x="1435" arabic-form="medial" 
d="M979 0q-131 0 -229 33q-115 -33 -279 -33h-473v31h473q120 0 225 24q-148 70 -237.5 242.5t-147.5 486.5l-88 -2l17 39l792 8q83 -89 110 -132.5t25 -86.5q-1 -28 -15.5 -81t-38.5 -124t-28 -83q-62 -196 -280 -273q79 -18 174 -18h457q20 0 20 -15q0 -6 -5.5 -11
t-14.5 -5h-457zM745 68q128 37 213.5 106t112.5 160q4 13 25.5 80t35 118t13.5 78q0 39 -25 79.5t-98 117.5l-696 -21q70 -324 166 -491.5t253 -226.5z" />
    <glyph glyph-name="uni063A.fina" unicode="&#x63a;" horiz-adv-x="1417" arabic-form="final" 
d="M430 -584q-89 0 -154 65.5t-65 156.5v53q1 69 5 114.5t17.5 83.5t32.5 59.5t54.5 39.5t79 28t110.5 19q26 4 81 11t81 11q-145 70 -234 243t-145 484l-88 -2l16 39l793 8q83 -89 110 -132.5t25 -86.5q-1 -28 -15.5 -81t-38.5 -124t-28 -83q-62 -196 -281 -273
q80 -18 175 -18h456q21 0 21 -15q0 -6 -6 -11t-15 -5h-456q-134 0 -232 33q-36 -5 -109.5 -14.5t-109.5 -14.5q-68 -9 -109 -18.5t-76 -28t-52.5 -40t-29.5 -63.5t-15 -90t-3 -126q0 -76 54 -133t127 -56l638 19l-14 -52h-600zM727 68q128 37 213.5 106t112.5 160
q0 1 24 76.5t36.5 124.5t12.5 75q0 39 -24.5 78.5t-97.5 118.5l-697 -21q70 -323 166.5 -491t253.5 -227zM645 1108v90l109 8v-98h-109z" />
    <glyph glyph-name="uni063A.init" unicode="&#x63a;" horiz-adv-x="1259" arabic-form="initial" 
d="M-2 0v31h379q-78 44 -78 170v22q0 60 -2 128t-2.5 99t2.5 63t12 54q5 13 12 25t20.5 27.5t23 26.5t33 33t37.5 35t49.5 45.5t56.5 51.5h231q96 0 159.5 -62.5t63.5 -156.5v-2l-18 -6q0 80 -60.5 138t-144.5 58h-221q-20 -19 -51.5 -47t-45.5 -40.5t-35 -32.5t-31 -30.5
t-22 -24.5t-19 -25.5t-13 -24.5q-8 -18 -12.5 -37t-6 -52t-1.5 -56.5t0.5 -84t0.5 -100.5v-24q0 -99 56.5 -138.5t189.5 -33.5l488 24l6 -35q-53 -2 -153.5 -7t-182.5 -8t-154 -3h-567zM645 1108v90l109 8v-98h-109z" />
    <glyph glyph-name="uni063A.medi" unicode="&#x63a;" horiz-adv-x="1435" arabic-form="medial" 
d="M979 0q-131 0 -229 33q-115 -33 -279 -33h-473v31h473q120 0 225 24q-148 70 -237.5 242.5t-147.5 486.5l-88 -2l17 39l792 8q83 -89 110 -132.5t25 -86.5q-1 -28 -15.5 -81t-38.5 -124t-28 -83q-62 -196 -280 -273q79 -18 174 -18h457q20 0 20 -15q0 -6 -5.5 -11
t-14.5 -5h-457zM745 68q128 37 213.5 106t112.5 160q4 13 25.5 80t35 118t13.5 78q0 39 -25 79.5t-98 117.5l-696 -21q70 -324 166 -491.5t253 -226.5zM645 1108v90l109 8v-98h-109z" />
    <glyph glyph-name="uni0641.fina" unicode="&#x641;" horiz-adv-x="2164" arabic-form="final" 
d="M397 0q-79 0 -135.5 61t-56.5 142v403l31 2v-405q0 -71 40.5 -121.5t106.5 -50.5h719v-31h-705zM1360 31q-95 40 -158 109t-63 132q0 112 1 156t8 97.5t23 90.5q22 50 67.5 100.5t139.5 133.5l273 -41q89 -13 153 -81t72 -155q37 -440 -205 -542h494q20 0 20 -15
q0 -16 -20 -16h-654h-18h-18h-656v31h541zM1384 815q-81 -74 -123.5 -120.5t-64.5 -90.5q-23 -48 -30.5 -108t-11.5 -186q-1 -25 -1 -38q-2 -46 51 -103.5t130.5 -97.5t140.5 -40h32q206 0 284 124.5t56 417.5q-6 78 -61.5 140t-136.5 71zM1464 1178v90l109 8v-98h-109z" />
    <glyph glyph-name="uni0641.init" unicode="&#x641;" horiz-adv-x="1140" arabic-form="initial" 
d="M-2 0v31h733q82 0 137.5 55t55.5 131v88h-502q-88 0 -150.5 65t-62.5 154v357l246 215h262q87 0 153 -61t66 -146v-672q0 -91 -59.5 -154t-159.5 -63h-719zM897 893q-3 73 -57 122.5t-125 49.5h-250l-223 -197l-19 -342q-4 -75 50 -132.5t128 -57.5h523zM547 1362v90
l108 8v-98h-108z" />
    <glyph glyph-name="uni0641.medi" unicode="&#x641;" horiz-adv-x="1343" arabic-form="medial" 
d="M539 31q-95 40 -158.5 109t-63.5 132q0 154 5 222t28 122q22 50 67.5 100.5t139.5 133.5l272 -41q89 -13 153.5 -81t72.5 -155q37 -440 -205 -542h493q21 0 21 -15q0 -16 -21 -16h-653h-18h-19h-655v31h541zM563 815q-81 -74 -123.5 -120.5t-64.5 -90.5
q-23 -48 -30.5 -108t-11.5 -186q-1 -25 -1 -38q-2 -46 50.5 -103.5t130 -97.5t140.5 -40h33q206 0 284 124.5t56 417.5q-6 78 -62 140t-137 71zM625 1116v90l108 8v-98h-108z" />
    <glyph glyph-name="uni0642.fina" unicode="&#x642;" horiz-adv-x="1568" arabic-form="final" 
d="M1309 0v31h260q20 0 20 -15q0 -16 -20 -16h-260zM588 -444q-158 0 -270.5 114t-112.5 275v532h31v-536q0 -146 103 -248.5t249 -102.5h45q41 1 85 0t90.5 2l93 6t92.5 12.5t88.5 21.5t80.5 31.5t68.5 44.5t54 59.5t35.5 76.5q12 47 12 133v23h-504q-88 0 -150.5 65
t-62.5 154v356l246 216h262q87 0 153 -61t66 -146v-639q0 -81 -27 -144.5t-63.5 -104t-104.5 -69t-118.5 -42t-139.5 -21t-133.5 -8t-131.5 -0.5h-37zM1305 588q-3 71 -56.5 121.5t-126.5 50.5h-250l-223 -197l-18 -342q-4 -75 50 -132.5t128 -57.5h522zM1044 1094v-25
l-329 -12v37h329zM983 1067v27h309l21 -7v-12z" />
    <glyph glyph-name="uni0642.init" unicode="&#x642;" horiz-adv-x="1140" arabic-form="initial" 
d="M-2 0v31h733q82 0 137.5 55t55.5 131v88h-502q-88 0 -150.5 65t-62.5 154v357l246 215h262q87 0 153 -61t66 -146v-672q0 -91 -59.5 -154t-159.5 -63h-719zM897 893q-3 73 -57 122.5t-125 49.5h-250l-223 -197l-19 -342q-4 -75 50 -132.5t128 -57.5h523zM633 1399v-25
l-330 -12v37h330zM571 1372v27h310l20 -6v-13z" />
    <glyph glyph-name="uni0642.medi" unicode="&#x642;" horiz-adv-x="1343" arabic-form="medial" 
d="M539 31q-95 40 -158.5 109t-63.5 132q0 154 5 222t28 122q22 50 67.5 100.5t139.5 133.5l272 -41q89 -13 153.5 -81t72.5 -155q37 -440 -205 -542h493q21 0 21 -15q0 -16 -21 -16h-653h-18h-19h-655v31h541zM563 815q-81 -74 -123.5 -120.5t-64.5 -90.5
q-23 -48 -30.5 -108t-11.5 -186q-1 -25 -1 -38q-2 -46 50.5 -103.5t130 -97.5t140.5 -40h33q206 0 284 124.5t56 417.5q-6 78 -62 140t-137 71zM711 1153v-25l-330 -12v37h330zM649 1126v27h309l21 -6v-12z" />
    <glyph glyph-name="uni0643.fina" unicode="&#x643;" horiz-adv-x="2007" arabic-form="final" 
d="M397 0q-82 0 -137 55t-55 148v403l31 2v-405q0 -71 40.5 -121.5t106.5 -50.5h1077q95 0 158 53t61 131l-30 1112l30 12l15 -1124q0 -91 -70 -153t-174 -62h-1053zM1055 526q28 3 44.5 19t16.5 39q0 39 -41 63l-278 162v22l317 130l25 -33l-303 -113l266 -151
q45 -25 45 -70q0 -34 -28.5 -60t-71.5 -32l-279 -41v31zM1884 0q-89 0 -144.5 64.5t-58.5 158.5h11q3 -82 52.5 -137t127.5 -55h135q21 0 21 -17q0 -14 -21 -14h-123z" />
    <glyph glyph-name="uni0643.init" unicode="&#x643;" horiz-adv-x="1206" arabic-form="initial" 
d="M768 31q95 0 157 53t62 131l-94 401l-690 373v27l751 293l29 -39l-733 -273l674 -360q13 -70 38.5 -211t38.5 -211q0 -91 -69.5 -153t-173.5 -62h-760v31h770z" />
    <glyph glyph-name="uni0643.medi" unicode="&#x643;" horiz-adv-x="1380" arabic-form="medial" 
d="M1380 0q-39 0 -74 6t-63 13.5t-56 24.5t-47.5 29.5t-43 38t-37 40.5t-34.5 46t-30 46l-30 50t-29 48v-106q0 -106 -71 -171t-189 -65h-678v31h700q94 0 160 60t66 145v126q-65 102 -125 148l-596 471v45l696 291l27 -41l-695 -275l582 -458q44 -35 85 -91t70 -110.5
t69 -112t82 -100.5t109.5 -70.5t151.5 -27.5q21 0 21 -15q0 -16 -21 -16z" />
    <glyph glyph-name="uni0644.fina" unicode="&#x644;" horiz-adv-x="1587" arabic-form="final" 
d="M586 -451q-156 0 -268.5 115t-112.5 277v499h31v-499q0 -149 103.5 -253t250.5 -104q346 0 511 88t161 269l-31 1376l31 10l14 -1386q2 -201 -166 -296.5t-524 -95.5zM1464 0q-89 0 -144 64.5t-58 158.5h10q3 -82 52.5 -137t127.5 -55h135q21 0 21 -17q0 -14 -21 -14
h-123z" />
    <glyph glyph-name="uni0644.init" unicode="&#x644;" horiz-adv-x="563" arabic-form="initial" 
d="M-2 0v31h133q90 0 149 54.5t58 137.5l-27 1104l31 12l14 -1116q1 -98 -66 -160.5t-173 -62.5h-119z" />
    <glyph glyph-name="uni0644.medi" unicode="&#x644;" horiz-adv-x="653" arabic-form="medial" 
d="M-2 0v31h123q80 0 143 59.5t62 132.5l-27 1104l31 10l12 -1114q2 -88 51 -140t131 -52h129q21 0 21 -15q0 -16 -21 -16h-114q-81 0 -134.5 42.5t-70.5 119.5q-22 -72 -85.5 -117t-146.5 -45h-104z" />
    <glyph glyph-name="uni0645.fina" unicode="&#x645;" horiz-adv-x="1521" arabic-form="final" 
d="M1206 219q0 -94 -65 -161t-148 -58l-563 57q-93 11 -152 -43.5t-55 -146.5l21 -481l-39 -21l4 504q2 102 71 160t179 49l47 -4q-105 57 -123 174l16 405q3 86 67 146.5t152 60.5h343l245 -215v-426zM397 252q31 -91 88.5 -136.5t153.5 -52.5l375 -32q70 -6 125.5 53
t52.5 137l-18 412l-224 196h-329q-72 0 -128.5 -53t-62.5 -125zM1399 0q-89 0 -144.5 64.5t-58.5 158.5h10q3 -82 52.5 -137t127.5 -55h136q20 0 20 -17q0 -14 -20 -14h-123z" />
    <glyph glyph-name="uni0645.init" unicode="&#x645;" horiz-adv-x="1353" arabic-form="initial" 
d="M-2 0v31h51q264 0 273 178l20 444q4 86 68.5 146.5t150.5 60.5h342l246 -215v-426q0 -88 -62 -153.5t-151 -65.5h-346q-47 0 -85.5 15t-69 45t-52.5 62t-47 79q-10 -107 -78.5 -154t-208.5 -47h-51zM340 254q13 -27 18.5 -38.5t18 -35.5t20 -35.5t21.5 -30.5t25 -28.5
t27.5 -22t32.5 -18t36.5 -10t42.5 -4.5h374q73 0 126 57t53 133l-19 412l-223 196h-330q-72 0 -128 -53t-62 -125z" />
    <glyph glyph-name="uni0645.medi" unicode="&#x645;" horiz-adv-x="1464" arabic-form="medial" 
d="M-2 0v31h51q264 0 273 178l20 444q4 86 68.5 146.5t150.5 60.5h342l246 -215v-426q0 -88 -62 -153.5t-151 -65.5h-346q-47 0 -85.5 15t-69 45t-52.5 62t-47 79q-10 -107 -78.5 -154t-208.5 -47h-51zM340 254q13 -27 18.5 -38.5t18 -35.5t20 -35.5t21.5 -30.5t25 -28.5
t27.5 -22t32.5 -18t36.5 -10t42.5 -4.5h374q73 0 126 57t53 133l-19 412l-223 196h-330q-72 0 -128 -53t-62 -125zM1341 0q-89 0 -144 64.5t-58 158.5h10q3 -82 52.5 -137t127.5 -55h135q21 0 21 -17q0 -14 -21 -14h-123z" />
    <glyph glyph-name="uni0646.fina" unicode="&#x646;" horiz-adv-x="1587" arabic-form="final" 
d="M205 483h31v-501q0 -149 103.5 -253t250.5 -104q347 0 512 87.5t160 269.5l-21 729l31 10l4 -739q1 -201 -167 -296.5t-523 -95.5q-157 0 -269 115.5t-112 276.5v501zM1464 0q-89 0 -144 64.5t-58 158.5h10q3 -82 52.5 -137t127.5 -55h135q21 0 21 -17q0 -14 -21 -14
h-123zM686 639v90l109 8v-98h-109z" />
    <glyph glyph-name="uni0646.init" unicode="&#x646;" horiz-adv-x="868" arabic-form="initial" 
d="M-2 0v31h463q73 0 132 51.5t56 120.5l-16 493l31 9v-502q0 -84 -62.5 -143.5t-155.5 -59.5h-448zM584 932v90l108 8v-98h-108z" />
    <glyph glyph-name="uni0646.medi" unicode="&#x646;" horiz-adv-x="892" arabic-form="medial" 
d="M758 0q-74 0 -129 45.5t-74 116.5q-22 -70 -83.5 -116t-139.5 -46h-334v31h352q78 0 130 54t52 130v432l31 4v-436q0 -76 52 -130t130 -54h148q20 0 20 -15q0 -16 -20 -16h-135zM479 932v90l109 8v-98h-109z" />
    <glyph glyph-name="uni0647.fina" unicode="&#x647;" horiz-adv-x="1314" arabic-form="final" 
d="M1266 0q-156 0 -220.5 55t-84.5 205q-3 -8 -8.5 -23.5t-8.5 -23.5q-48 -135 -192 -135h-334q-88 0 -151 65t-60 154q2 58 2 123t0.5 93t4 56t11.5 47q9 20 28 41.5t40 40t72.5 63.5t95.5 85l409 69l-14 97l33 10l86 -735q19 -156 77 -206t214 -50h49q20 0 20 -15
q0 -16 -20 -16h-49zM752 109q131 0 170 116q3 10 15 43t17 51l-77 553l-400 -61q-42 -38 -88 -78t-67 -57.5t-39 -37.5t-27 -38q-7 -14 -11.5 -31t-7.5 -44.5t-4.5 -52.5t-5 -77t-6.5 -96q-6 -72 53 -131t134 -59h344z" />
    <glyph glyph-name="uni0647.init" unicode="&#x647;" horiz-adv-x="1540" arabic-form="initial" 
d="M418 31q-105 41 -165 105t-60 134v47v45v38.5t0.5 37l1.5 31.5t2.5 31t3.5 26.5t4.5 26.5t6 22t7.5 23q18 45 56 91t124 124l-159 25v43l725 -133q83 -15 122 -27.5t62 -30.5q25 -19 41.5 -49t38.5 -96q17 -53 53 -163t53 -163q0 -86 -64 -152.5t-149 -66.5h-366
q-49 0 -66 29q-82 -29 -186 -29h-506v31h420zM711 37q21 -6 39 -6h391q74 0 127 55t53 133l-117 313q-24 64 -38.5 92.5t-32.5 45.5q-21 20 -57 30.5t-124 24.5l-204 33q51 -34 82 -84t34 -103q19 -247 -15.5 -367.5t-137.5 -166.5zM516 31q103 0 166.5 23t99.5 77
q39 58 50 167t-1 273q-5 65 -50.5 121t-112.5 78l-226 35q-96 -87 -136 -132t-60 -89q-16 -35 -24 -82.5t-10.5 -90.5t-4.5 -141q-1 -67 97.5 -143.5t211.5 -95.5z" />
    <glyph glyph-name="uni0647.medi" unicode="&#x647;" horiz-adv-x="1226" arabic-form="medial" 
d="M1151 0q-194 0 -254 -184l-66 -168h-362q-270 0 -270 229v123h-201v31h201v575q0 86 66 145.5t155 59.5h264l211 -180v-408q0 -89 -64 -156t-149 -67h-465l2 -123q3 -201 250 -201h350l60 148q33 99 102 153t168 54h78q20 0 20 -15q0 -16 -20 -16h-76zM700 31
q75 0 130 55.5t51 128.5l-21 391l-188 174h-248q-76 0 -133 -52.5t-58 -125.5l-16 -571h483z" />
    <glyph glyph-name="uni0648.fina" unicode="&#x648;" horiz-adv-x="1241" arabic-form="final" 
d="M1241 31q21 0 21 -15q0 -16 -21 -16h-260v31h260zM367 -522q304 43 469.5 153.5t162.5 268.5l-2 100h-579q-88 0 -150.5 65t-62.5 154v426l246 215h342q89 0 154 -61t65 -146v-753q0 -178 -173 -306.5t-458 -162.5l-129 -17l-12 49zM973 657q-3 73 -57 122.5t-125 49.5
h-330l-223 -196l-19 -412q-3 -75 51 -132.5t127 -57.5h602z" />
    <glyph glyph-name="uni0649.fina" unicode="&#x649;" horiz-adv-x="1499" arabic-form="final" 
d="M1499 31q21 0 21 -15q0 -16 -21 -16h-176q20 -14 20 -55q0 -35 -2 -51q-15 -131 -104 -211q-42 -37 -103.5 -62.5t-114.5 -38t-137 -19t-127 -7t-128 -0.5h-39q-158 0 -270.5 114t-112.5 275v532h31v-536q0 -146 103 -248.5t249 -102.5q5 0 63.5 -0.5t75 0t72 2t80.5 4.5
t74 8t79 14t68.5 20.5t68.5 28t56 36.5q91 73 106 193q2 16 2 49t-16.5 44t-65.5 11h-606l14 31h840z" />
    <glyph glyph-name="uni064A.fina" unicode="&#x64a;" horiz-adv-x="1499" arabic-form="final" 
d="M1499 31q21 0 21 -15q0 -16 -21 -16h-176q20 -14 20 -55q0 -35 -2 -51q-15 -131 -104 -211q-42 -37 -103.5 -62.5t-114.5 -38t-137 -19t-127 -7t-128 -0.5h-39q-158 0 -270.5 114t-112.5 275v532h31v-536q0 -146 103 -248.5t249 -102.5q5 0 63.5 -0.5t75 0t72 2t80.5 4.5
t74 8t79 14t68.5 20.5t68.5 28t56 36.5q91 73 106 193q2 16 2 49t-16.5 44t-65.5 11h-606l14 31h840zM805 -731v-25l-330 -12v37h330zM743 -758v27h310l20 -6v-13z" />
    <glyph glyph-name="uni064A.init" unicode="&#x64a;" horiz-adv-x="868" arabic-form="initial" 
d="M-2 0v31h463q73 0 132 51.5t56 120.5l-16 493l31 9v-502q0 -84 -62.5 -143.5t-155.5 -59.5h-448zM334 -389v-25l-330 -12v37h330zM272 -416v27h310l20 -6v-13z" />
    <glyph glyph-name="uni064A.medi" unicode="&#x64a;" horiz-adv-x="892" arabic-form="medial" 
d="M758 0q-74 0 -129 45.5t-74 116.5q-22 -70 -83.5 -116t-139.5 -46h-334v31h352q78 0 130 54t52 130v432l31 4v-436q0 -76 52 -130t130 -54h148q20 0 20 -15q0 -16 -20 -16h-135zM365 -389v-25l-330 -12v37h330zM303 -416v27h309l21 -6v-13z" />
    <glyph glyph-name=".notdef" horiz-adv-x="1492" 
d="M1130 1313q-105 45 -385 45q-278 0 -383 -45v-1110q105 -45 383 -45q280 0 385 45v1110zM340 0l-135 135v1387h971l112 -115v-1407h-948z" />
    <glyph glyph-name=".null" horiz-adv-x="2406" 
 />
    <glyph glyph-name="nonmarkingreturn" horiz-adv-x="682" 
 />
    <glyph glyph-name="space" unicode=" " horiz-adv-x="512" 
 />
    <glyph glyph-name="exclam" unicode="!" horiz-adv-x="505" 
d="M223 1317l31 10l6 -1012l-14 -8zM205 0v82l96 4v-86h-96z" />
    <glyph glyph-name="quotedbl" unicode="&#x22;" horiz-adv-x="761" 
d="M229 1561h62l-58 -457h-28zM496 1561h61l-57 -457h-29z" />
    <glyph glyph-name="quotedbl" unicode="&#x2033;" horiz-adv-x="761" 
d="M229 1561h62l-58 -457h-28zM496 1561h61l-57 -457h-29z" />
    <glyph glyph-name="numbersign" unicode="#" horiz-adv-x="1497" 
d="M424 422h-219v29h225l111 471h-260v28h266l100 443h27l-101 -443h459l101 443h26l-100 -443h233v-28h-239l-111 -471h272v-29h-278l-94 -422h-27l94 422h-458l-95 -422h-26zM915 451l111 471h-459l-110 -471h458z" />
    <glyph glyph-name="dollar" unicode="$" horiz-adv-x="1277" 
d="M686 -16q-219 0 -461 22v31q306 -25 441 -25q90 0 152.5 6t112 21.5t79.5 40t49.5 65t27 91.5t7.5 124q0 75 -2.5 117.5t-14 81.5t-27 57.5t-51 34.5t-76.5 23t-112 14l-379 39q-106 10 -157 40t-71 94t-20 192q0 141 42.5 216.5t142.5 107.5t286 32q252 0 400 -23v-28
q-158 22 -393 22q-109 0 -182 -9.5t-126 -31t-82 -61t-42 -94t-13 -135.5q0 -162 43.5 -219t179.5 -70l361 -39q62 -6 101 -11.5t76.5 -15.5t58 -20t39.5 -31t27 -41.5t14.5 -58t7.5 -75t1 -97.5q0 -96 -12.5 -160t-40.5 -110t-80.5 -70.5t-125 -35.5t-181.5 -11zM674 1681
h24v-282h-24v282zM674 -6h24v-283h-24v283z" />
    <glyph glyph-name="percent" unicode="%" horiz-adv-x="1628" 
d="M383 649q-41 0 -61.5 1t-57.5 6t-62 19.5t-40 37.5q-39 63 -39 315q0 255 39 318q12 19 34 32t40 19t52.5 9t46.5 3h48h47t46 -3t52 -9t40 -19t34 -32q7 -11 12.5 -25.5t9.5 -34t7 -35t5 -41t3 -38.5t1.5 -41.5t0.5 -36.5v-36.5v-29.5q0 -71 -1 -108.5t-10 -106
t-28 -100.5q-18 -29 -62.5 -44.5t-76.5 -17.5t-80 -2zM383 678q96 0 133 12.5t57 38.5q7 10 12 23t9 31t7 33t4.5 38.5t2.5 37t1.5 40t0.5 35v34v27.5q0 6 0.5 42.5t0 56t-2 56t-4.5 60t-9 48t-15 38.5q-18 24 -55 36t-62.5 13.5t-68.5 1.5h-11q-97 0 -134 -12.5t-56 -38.5
q-7 -10 -12 -23t-9 -31.5t-7 -33.5t-4.5 -38.5t-2.5 -37t-1.5 -40t-0.5 -35.5v-34.5v-27.5v-27.5v-34.5t0.5 -35t1.5 -39.5t2.5 -37t4.5 -38.5t7 -33t9 -31t12 -23q17 -24 51.5 -36t59 -13.5t67.5 -1.5h12zM1229 1393h41l-901 -1393h-39zM1247 -2q-43 0 -61.5 1t-57 6
t-63 19.5t-39.5 38.5q-41 60 -41 314q0 257 41 317q15 24 40 38.5t62 20t57.5 6.5t61.5 1h38t38.5 -1.5t43 -6t37 -11t36 -19t24.5 -28.5q7 -10 12.5 -23.5t9.5 -27t7 -33t5 -33.5t3.5 -37t2 -35t1 -36.5t0.5 -33v-32v-26.5q0 -70 -1 -108t-10.5 -106.5t-29.5 -99.5
q-14 -23 -39 -37.5t-61.5 -20t-58 -6.5t-58.5 -1zM1247 27h11q43 0 67.5 1.5t59 14t51.5 37.5q9 12 15.5 29.5t10.5 42.5t6.5 45t3.5 52t1 46.5v46.5v35q0 7 0.5 42.5t0.5 57t-1.5 57.5t-5 59.5t-10 47.5t-15.5 37q-16 24 -52.5 36t-62 13.5t-69.5 1.5h-11q-97 0 -134 -12.5
t-56 -38.5q-7 -10 -12 -23t-9 -31.5t-7 -33.5t-4.5 -38.5t-2.5 -37t-1.5 -40t-0.5 -35.5v-34.5v-27.5v-27v-34t0.5 -35t1.5 -39.5t2.5 -37t4.5 -38.5t7 -32.5t9 -30.5t12 -23q17 -25 52 -37.5t59.5 -14t67.5 -1.5h11z" />
    <glyph glyph-name="ampersand" unicode="&#x26;" horiz-adv-x="1503" 
d="M727 -16q-220 0 -341.5 35.5t-174.5 116t-53 226.5q0 160 57 238t201 113v-4q-134 34 -190 112t-56 232q0 192 128 274t427 82q208 0 395 -29v-24q-182 28 -352 28q-312 0 -439.5 -75.5t-127.5 -259.5q0 -169 90 -248.5t284 -79.5h218v-29h-218q-218 0 -302.5 -75
t-84.5 -269q0 -187 121 -263.5t418 -76.5q176 0 371 25v688h282v-29h-252v-678q-222 -30 -401 -30z" />
    <glyph glyph-name="quotesingle" unicode="'" horiz-adv-x="495" 
d="M229 1561h62l-58 -457h-28z" />
    <glyph glyph-name="quotesingle" unicode="&#x2032;" horiz-adv-x="495" 
d="M229 1561h62l-58 -457h-28z" />
    <glyph glyph-name="parenleft" unicode="(" horiz-adv-x="700" 
d="M477 -313q-88 107 -137.5 189.5t-81 189t-41.5 225t-10 307.5t10 307.5t41 224.5t81 188.5t138 188.5h17q-149 -187 -202.5 -378t-53.5 -531q0 -238 21 -381.5t73.5 -261t161.5 -268.5h-17z" />
    <glyph glyph-name="parenright" unicode=")" horiz-adv-x="700" 
d="M223 -313h-16q109 151 161.5 268.5t73.5 261t21 381.5q0 340 -53.5 531t-202.5 378h16q88 -106 138 -188.5t81.5 -188.5t41.5 -225t10 -307t-10 -307t-41.5 -225.5t-81.5 -189t-138 -189.5z" />
    <glyph glyph-name="uni066D" unicode="*" horiz-adv-x="1294" 
d="M588 1061l8 4l154 -342l-39 -21zM207 678l-2 12l375 25l6 -41zM461 184l-10 2l92 365l41 -8zM1010 281l-6 -11l-330 179l16 36zM1081 807l9 -8l-281 -250l-29 29z" />
    <glyph glyph-name="uni066D" unicode="&#x66d;" horiz-adv-x="1294" 
d="M588 1061l8 4l154 -342l-39 -21zM207 678l-2 12l375 25l6 -41zM461 184l-10 2l92 365l41 -8zM1010 281l-6 -11l-330 179l16 36zM1081 807l9 -8l-281 -250l-29 29z" />
    <glyph glyph-name="plus" unicode="+" horiz-adv-x="1198" 
d="M584 494h-377v26h377v383h24v-383h383v-26h-383v-383h-24v383z" />
    <glyph glyph-name="comma" unicode="," horiz-adv-x="360" 
d="M70 -209q61 4 82.5 36.5t21.5 117.5v55h-41v94h57v-135q0 -100 -23.5 -133.5t-96.5 -36.5v2z" />
    <glyph glyph-name="hyphen" unicode="-" horiz-adv-x="1298" 
d="M1094 451h-889v38h889v-38z" />
    <glyph glyph-name="hyphen" unicode="&#x2010;" horiz-adv-x="1298" 
d="M1094 451h-889v38h889v-38z" />
    <glyph glyph-name="period" unicode="." horiz-adv-x="505" 
d="M205 0v82l96 4v-86h-96z" />
    <glyph glyph-name="slash" unicode="/" horiz-adv-x="1030" 
d="M791 1507h34l-587 -1622h-33z" />
    <glyph glyph-name="zero" unicode="0" horiz-adv-x="1396" 
d="M698 -16q-298 0 -385 67q-32 23 -54 73.5t-32.5 102.5t-16 130.5t-5.5 125.5t1 123.5t1 89.5q0 14 -1 95.5t-0.5 125.5t5.5 123.5t16 129t33 99.5t53 74q89 66 385 66h22q55 0 86.5 -0.5t89 -6t94.5 -16.5t75.5 -33.5t58.5 -54.5q19 -30 32.5 -80.5t20 -95.5t10 -119.5
t4 -110.5t0 -112t-0.5 -84q0 -18 1 -80.5t0.5 -103t-2.5 -106t-9 -113t-18.5 -98t-31.5 -87t-47 -57.5q-87 -67 -385 -67zM698 12h68.5t70 2.5t83 7.5t66.5 16.5t63 27.5q32 21 54.5 69t33.5 97t16.5 126t5.5 122t-1 123t-1 93q0 14 0.5 82.5t0.5 107t-3 107.5t-9 114
t-19 93.5t-31 77.5q-13 21 -34.5 37.5t-40.5 27t-52.5 18t-52.5 11.5t-59.5 6t-54.5 2.5t-56.5 0t-47.5 -0.5h-18q-72 0 -117 -1.5t-111.5 -13.5t-101.5 -36q-33 -22 -55.5 -70.5t-34 -97t-17 -126t-5.5 -122t1 -123.5t1 -94q0 -16 -1.5 -88.5t-1.5 -120.5t5.5 -123.5
t16.5 -126.5t34 -100t57 -71q30 -20 71.5 -32t102 -16.5t86 -5t88.5 -0.5z" />
    <glyph glyph-name="one" unicode="1" horiz-adv-x="671" 
d="M465 0h-33v1354l-307 -166v31l307 174h33v-1393z" />
    <glyph glyph-name="two" unicode="2" horiz-adv-x="1296" 
d="M207 127q0 141 19.5 223t66.5 133.5t137 91.5l426 189q116 51 159.5 116t43.5 189q0 94 -18.5 152t-67.5 94.5t-126 50.5t-202 14q-181 0 -409 -20v24q176 25 426 25q128 0 208 -14.5t131 -52.5t71 -97.5t20 -154.5q0 -109 -20.5 -171t-71.5 -106t-156 -92l-404 -180
q-67 -30 -103.5 -60.5t-59.5 -87.5t-30 -133t-7 -209v-22h852v-29h-885v127z" />
    <glyph glyph-name="three" unicode="3" horiz-adv-x="1218" 
d="M512 -16q-201 0 -379 26v25q287 -23 379 -23q255 0 361 76.5t106 259.5q0 180 -79.5 262t-256.5 82h-264v29h264q154 0 237 85t83 243q0 188 -102 259.5t-369 71.5q-193 0 -351 -22v24q181 27 373 27q270 0 375.5 -78t105.5 -278q0 -150 -56 -230t-185 -114v4
q132 -17 195 -103t63 -248q0 -211 -111 -294.5t-389 -83.5z" />
    <glyph glyph-name="four" unicode="4" horiz-adv-x="1359" 
d="M156 406l565 987h39l-574 -996h764v625h31v-625h225v-30h-225v-367h-33v367h-792v39z" />
    <glyph glyph-name="five" unicode="5" horiz-adv-x="1198" 
d="M535 -16q-203 0 -381 26v25q288 -23 381 -23q138 0 225 17.5t142.5 62.5t77 115.5t21.5 183.5q0 112 -21 179t-80.5 109.5t-154 57.5t-253.5 15q-125 0 -322 -33v674h758v-29h-725v-606q180 22 370 22q112 0 187.5 -11t130.5 -35.5t85.5 -69t44 -106t13.5 -152.5
q0 -128 -22 -206.5t-81 -128.5t-151.5 -68.5t-244.5 -18.5z" />
    <glyph glyph-name="six" unicode="6" horiz-adv-x="1359" 
d="M723 -16q-110 0 -184.5 7.5t-134.5 29.5t-95 55t-58.5 90.5t-32 130t-9.5 178.5l-2 201q-4 64 -1 158.5t10 183t37.5 173.5t80.5 130q104 88 403 88q138 0 379 -27v-24q-166 22 -362 22q-177 0 -277 -29.5t-151 -97.5q-16 -22 -28.5 -54t-21 -61t-14 -76t-8.5 -74.5
t-4.5 -81.5t-1.5 -73v-74.5v-60.5v-20h-2q42 52 165 80t306 28q85 0 124 -1t97 -7t95 -20.5t67 -38.5q94 -79 94 -301q0 -269 -82 -348q-83 -86 -389 -86zM707 12h21q60 0 95.5 1.5t92.5 7.5t99.5 23.5t71.5 45.5q40 38 57 103.5t17 183.5q0 138 -19 209t-65 106
q-46 36 -129.5 51t-240.5 15q-164 0 -284 -28t-153 -73q-24 -33 -24 -202q0 -94 7.5 -159t28 -116.5t52.5 -82t85.5 -50.5t121.5 -27.5t166 -7.5z" />
    <glyph glyph-name="seven" unicode="7" horiz-adv-x="1165" 
d="M1032 1393v-31l-606 -1362h-39l612 1364h-866v29h899z" />
    <glyph glyph-name="eight" unicode="8" horiz-adv-x="1429" 
d="M715 -16q-149 0 -244 18t-155.5 63t-84.5 115.5t-24 181.5q0 166 54 240t204 111v-4q-138 35 -192 110.5t-54 233.5q0 201 108.5 278.5t387.5 77.5t387 -77.5t108 -278.5q0 -160 -56 -239.5t-189 -108.5v6q140 -31 199 -111t59 -238q0 -112 -24 -182.5t-84 -115.5
t-155 -62.5t-245 -17.5zM715 719q50 0 81.5 0.5t76.5 4t73 9.5t63.5 17.5t57.5 28t45.5 41.5t36 57.5t21 75.5t8.5 96q0 130 -42.5 200t-141 100.5t-279.5 30.5q-136 0 -222.5 -15.5t-141.5 -55t-77 -101.5t-22 -159q0 -188 99.5 -259t363.5 -71zM715 12q139 0 227.5 16
t145 56t79.5 103t23 161q0 104 -21 167t-76.5 104t-144.5 56t-233 15q-118 0 -196 -9.5t-135 -31.5t-87 -63t-43.5 -97t-13.5 -141q0 -98 23 -161t79.5 -103t145 -56t227.5 -16z" />
    <glyph glyph-name="nine" unicode="9" horiz-adv-x="1357" 
d="M635 1409q82 0 143 -4t114.5 -15t90 -28t66 -45t47.5 -63t30 -86.5t17 -110.5t6 -139l2 -201q4 -64 1 -158t-10 -183t-37.5 -173t-80.5 -129q-54 -47 -150 -68.5t-253 -21.5q-147 0 -379 26v25q174 -23 362 -23q176 0 276.5 30t151.5 97q16 22 28.5 54t21 61t14 76
t8.5 74.5t4.5 81.5t1.5 73v74.5v60.5v21h2q-43 -51 -166.5 -80t-304.5 -29q-83 0 -123.5 1t-97.5 7t-94.5 20.5t-67.5 39.5q-94 79 -94 303q0 266 82 348q84 84 389 84zM651 1380h-34.5h-40.5t-39.5 -0.5t-44 -2t-41 -4.5t-43 -6.5t-38 -9.5t-38.5 -13.5t-32 -18t-30 -22.5
q-40 -38 -56.5 -103.5t-16.5 -183.5q0 -137 19 -208t65 -108q46 -34 129.5 -48.5t240.5 -14.5q166 0 285 27t151 73q25 35 25 201q0 94 -7.5 158.5t-28 116.5t-52.5 82t-85.5 50.5t-121.5 27.5t-166 7z" />
    <glyph glyph-name="colon" unicode=":" horiz-adv-x="505" 
d="M301 614v-82l-96 -4v86h96zM205 -4v82l96 4v-86h-96z" />
    <glyph glyph-name="semicolon" unicode=";" horiz-adv-x="360" 
d="M133 1022h57v-94h-57v94zM70 -209q61 4 82.5 36.5t21.5 117.5v55h-41v94h57v-135q0 -100 -23.5 -133.5t-96.5 -36.5v2z" />
    <glyph glyph-name="less" unicode="&#x3c;" horiz-adv-x="1198" 
d="M207 463v33l784 358v-33l-749 -342l749 -342v-31z" />
    <glyph glyph-name="equal" unicode="=" horiz-adv-x="1298" 
d="M1094 500h-889v39h889v-39zM1094 143h-889v39h889v-39z" />
    <glyph glyph-name="greater" unicode="&#x3e;" horiz-adv-x="1198" 
d="M991 463l-784 -357v31l749 342l-749 342v33l784 -358v-33z" />
    <glyph glyph-name="question" unicode="?" horiz-adv-x="1015" 
d="M340 522q0 77 22 116.5t76 59.5l113 43q79 29 121 52t69.5 61.5t35 87t7.5 133.5q0 94 -15.5 151t-59 92.5t-111.5 48.5t-182 13q-160 0 -334 -22v24q191 27 344 27q224 0 308.5 -66t84.5 -243q0 -122 -18 -187.5t-62 -106t-137 -77.5l-143 -55q-51 -20 -68.5 -52.5
t-17.5 -103.5v-158h-33v162zM328 94h57v-94h-57v94z" />
    <glyph glyph-name="at" unicode="@" horiz-adv-x="1906" 
d="M913 141q-175 0 -239 51t-64 189q0 144 51.5 194t194.5 50q271 0 404 -4v92q0 69 -4 113t-18 80t-34 55t-59 32t-86 17t-121 4q-128 0 -264 -19v27q107 16 291 16q71 0 119 -4.5t86.5 -18t60.5 -34.5t36.5 -58t19.5 -83t5 -115v-547h197q58 0 88.5 13.5t52.5 48.5
q41 70 41 352q0 12 0.5 84t0 106.5t-3 105.5t-9 115.5t-17 99.5t-28 95.5t-41.5 67.5q-32 36 -90.5 61t-113 37t-139.5 18t-127.5 6.5t-120.5 0.5h-32q-426 0 -553 -70q-36 -21 -63.5 -57t-45.5 -75t-30 -95t-18 -100.5t-8.5 -110t-2.5 -104t1 -101t1 -84.5
q0 -14 -0.5 -73.5t-0.5 -89t2 -91t6 -99.5t11.5 -91.5t19 -89.5t28.5 -72.5t39 -59.5q34 -36 90 -61.5t113.5 -38.5t131.5 -20t128.5 -8.5t119.5 -2.5h27q183 -3 346 6v-22q-113 -4 -340 -4q-290 0 -429.5 27.5t-209.5 97.5q-66 69 -87 202.5t-21 489.5q0 168 4.5 276.5
t14.5 191t30.5 132t48.5 81.5t72 58q74 42 206 60t371 18q290 0 429.5 -27t207.5 -96t89.5 -204t21.5 -490q0 -310 -53 -381q-14 -19 -34 -31t-50.5 -16.5t-46.5 -5t-52 -0.5h-196l-8 157h2q-24 -76 -119.5 -125t-229.5 -49zM911 168q249 0 318 137q31 58 31 205v88h-388
q-72 0 -111.5 -6.5t-69 -29.5t-40 -65.5t-10.5 -115.5q0 -126 55 -169.5t215 -43.5z" />
    <glyph glyph-name="A" unicode="A" horiz-adv-x="1431" 
d="M694 1393h41l574 -1393h-37l-187 463h-741l-186 -463h-35zM1073 492l-358 870h2l-359 -870h715z" />
    <glyph glyph-name="B" unicode="B" horiz-adv-x="1335" 
d="M819 1393q175 0 254.5 -80.5t79.5 -257.5q0 -148 -56.5 -228t-185.5 -114v-2q133 -17 195.5 -103.5t62.5 -253.5q0 -185 -87.5 -269.5t-280.5 -84.5h-596v1393h614zM803 721q151 0 234 84.5t83 236.5q0 172 -73.5 247t-243.5 75h-565v-643h565zM809 29q173 0 250.5 78
t77.5 253q0 170 -79.5 251t-248.5 81h-571v-663h571z" />
    <glyph glyph-name="C" unicode="C" horiz-adv-x="1183" 
d="M1030 1364q-144 16 -272 16q-106 0 -178.5 -7t-130 -26.5t-92 -48.5t-59 -79.5t-35.5 -113t-17 -155.5q-6 -92 -6 -254q0 -160 6 -254q6 -93 17.5 -155.5t36 -113t58.5 -79.5t92 -48.5t130 -26.5t178 -7q133 0 282 19v-29q-129 -18 -303 -18q-102 0 -173.5 6.5t-129 24.5
t-93.5 44.5t-62 71t-39 100.5t-21 136q-12 131 -12 329q0 197 12 328q8 80 21.5 136t39.5 101t62.5 72t94 44.5t129 24.5t171.5 7q176 0 293 -20v-25z" />
    <glyph glyph-name="D" unicode="D" horiz-adv-x="1378" 
d="M608 1393q196 0 303 -22.5t162 -76.5q24 -23 41 -51.5t28 -73.5t17 -81t8.5 -108t3 -119t0.5 -146v-19q0 -14 0.5 -70t0.5 -86.5t-2.5 -89t-7 -95.5t-14.5 -87.5t-23.5 -84.5t-35 -66t-49.5 -51q-35 -23 -89.5 -38t-124 -20t-111.5 -6.5t-107 -1.5h-403v1393h403zM567 29
q218 0 311 15q75 12 119 34q30 15 53 45t38 62.5t25.5 82.5t16 87t8 96t2.5 89t-0.5 86.5t-0.5 69.5q0 281 -14 398.5t-74 177.5q-54 52 -159 72t-325 20h-329v-1335h329z" />
    <glyph glyph-name="E" unicode="E" horiz-adv-x="1208" 
d="M205 1393h839v-29h-806v-645h708v-29h-708v-661h806v-29h-839v1393z" />
    <glyph glyph-name="F" unicode="F" horiz-adv-x="1167" 
d="M205 1393h799v-29h-766v-674h688v-28h-688v-662h-33v1393z" />
    <glyph glyph-name="G" unicode="G" horiz-adv-x="1390" 
d="M768 -16q-303 0 -403 67q-29 19 -52.5 49t-39.5 65t-28.5 77t-19 85.5t-11 89.5t-5.5 88.5t-2 83.5t0 75v32v59.5v70t1.5 70t4 76.5t8.5 72.5t14 75t20 66t27.5 63.5t37 51t47.5 43q35 23 83 38t111 20t102 6.5t105 1.5q222 0 410 -33v-24q-176 28 -347 28h-47h-54.5
t-53 -1t-58 -2.5t-53 -5t-55 -8t-46.5 -12t-44 -16.5q-38 -18 -68 -50.5t-48.5 -72.5t-32 -88.5t-19 -98t-9.5 -101t-3 -98.5t0 -89v-41v-56.5v-65.5t1 -66t3.5 -72.5t7.5 -69t12 -70.5t18 -63t24.5 -60t32.5 -48t42 -41q36 -25 83 -41t106 -22t96 -7.5t100 -1.5
q151 0 385 29v616h-401v29h434v-670q-216 -32 -416 -32z" />
    <glyph glyph-name="H" unicode="H" horiz-adv-x="1419" 
d="M205 1393h33v-674h942v674h32v-1393h-32v690h-942v-690h-33v1393z" />
    <glyph glyph-name="I" unicode="I" horiz-adv-x="442" 
d="M238 1393v-1393h-33v1393h33z" />
    <glyph glyph-name="J" unicode="J" horiz-adv-x="616" 
d="M82 29q121 3 171 19q57 17 83 54q11 16 18.5 39.5t12 55.5t7.5 59.5t4 67.5t1.5 61.5t0 60.5t-0.5 46v901h33v-863v-50v-64t-1 -61.5t-2.5 -70t-4.5 -60t-8 -61.5t-11 -46q-17 -54 -49 -74q-65 -43 -254 -43v29z" />
    <glyph glyph-name="K" unicode="K" horiz-adv-x="1341" 
d="M205 1393h33v-672h389l528 672h33l-537 -686l545 -707h-37l-532 692h-389v-692h-33v1393z" />
    <glyph glyph-name="L" unicode="L" horiz-adv-x="1105" 
d="M205 1393h33v-1364h723v-29h-756v1393z" />
    <glyph glyph-name="M" unicode="M" horiz-adv-x="1785" 
d="M205 1393h59l627 -1352l631 1352h57v-1393h-33l-4 1362l-633 -1362h-37l-632 1362l-4 -1362h-31v1393z" />
    <glyph glyph-name="N" unicode="N" horiz-adv-x="1413" 
d="M205 1393h37l929 -1340l7 1340h28v-1393h-39l-929 1341l-7 -1341h-26v1393z" />
    <glyph glyph-name="O" unicode="O" horiz-adv-x="1501" 
d="M750 -16q-64 0 -107 1.5t-109 7t-117 20.5t-85 38q-26 18 -47 50.5t-34 67t-22 86.5t-13.5 91t-7 99t-2.5 91.5t0.5 88.5t0.5 71t-0.5 71.5t-0.5 89t2.5 91.5t7 99t13.5 91t22 86.5t34 67.5t47 51q100 66 418 66q319 0 417 -66q27 -18 48 -51t34 -67.5t22.5 -87t14 -90.5
t7 -98.5t2.5 -91.5t-0.5 -89t-0.5 -72q0 -8 0.5 -73t0 -94.5t-2.5 -93.5t-8 -103.5t-14.5 -90t-24 -87t-35.5 -62.5q-24 -31 -67 -53t-83 -32.5t-102.5 -16t-95 -6t-91.5 -0.5h-21zM750 12q11 0 51 -0.5t60 -0.5t60 2t64 5.5t58 11t57 18t46 27.5t38 38q18 25 32 60.5
t22 84.5t13 86.5t7 101t2.5 89.5t0 91t-0.5 70q0 15 0.5 71.5t0.5 88t-2.5 91t-7 98.5t-14.5 90t-24 85t-36.5 65t-50.5 48q-17 10 -39.5 17.5t-42 12.5t-51 8.5t-49 5t-53.5 2.5t-48 1h-50.5h-42.5h-41.5h-50t-48.5 -1t-54 -2.5t-49 -5t-50.5 -8.5t-42 -12.5t-39.5 -17.5
q-25 -15 -45.5 -39.5t-34.5 -59t-24.5 -69t-16 -81t-9.5 -82.5t-5 -86.5t-1 -80t0.5 -76.5t0.5 -63q0 -13 -0.5 -70.5t-0.5 -88t2.5 -91t7.5 -98.5t15 -89.5t24 -85t36.5 -65t50.5 -47.5q17 -10 39.5 -18t42 -13t51 -8.5t48.5 -5.5t54 -3t48 -1h50h42z" />
    <glyph glyph-name="P" unicode="P" horiz-adv-x="1310" 
d="M780 1393q114 0 185 -22t111 -75t54.5 -125t14.5 -188q0 -114 -15 -187t-55.5 -126.5t-111.5 -76t-183 -22.5h-542v-571h-33v1393h575zM776 600q107 0 174 22t102.5 73.5t47.5 116.5t12 171q0 85 -7 141t-27 105.5t-57 76.5t-97.5 42.5t-147.5 15.5h-538v-764h538z" />
    <glyph glyph-name="Q" unicode="Q" horiz-adv-x="1482" 
d="M750 -16q-64 0 -107 1.5t-109 7t-117 20.5t-85 38q-26 18 -47 50.5t-34 67t-22 86.5t-13.5 91t-7 99t-2.5 91.5t0.5 88.5t0.5 71t-0.5 71.5t-0.5 89t2.5 91.5t7 99t13.5 91t22 86.5t34 67.5t47 51q100 66 418 66q319 0 417 -66q27 -18 48 -51t34 -67.5t22.5 -87t14 -90.5
t7 -98.5t2.5 -91.5t-0.5 -89t-0.5 -72q0 -8 0.5 -73t0 -94.5t-2.5 -93.5t-8 -103.5t-14.5 -90t-24 -87t-35.5 -62.5q-24 -31 -67 -53t-83 -32.5t-102.5 -16t-95 -6t-91.5 -0.5h-21zM750 12q11 0 51 -0.5t60 -0.5t60 2t64 5.5t58 11t57 18t46 27.5t38 38q18 25 32 60.5
t22 84.5t13 86.5t7 101t2.5 89.5t0 91t-0.5 70q0 15 0.5 71.5t0.5 88t-2.5 91t-7 98.5t-14.5 90t-24 85t-36.5 65t-50.5 48q-17 10 -39.5 17.5t-42 12.5t-51 8.5t-49 5t-53.5 2.5t-48 1h-50.5h-42.5h-41.5h-50t-48.5 -1t-54 -2.5t-49 -5t-50.5 -8.5t-42 -12.5t-39.5 -17.5
q-25 -15 -45.5 -39.5t-34.5 -59t-24.5 -69t-16 -81t-9.5 -82.5t-5 -86.5t-1 -80t0.5 -76.5t0.5 -63q0 -13 -0.5 -70.5t-0.5 -88t2.5 -91t7.5 -98.5t15 -89.5t24 -85t36.5 -65t50.5 -47.5q17 -10 39.5 -18t42 -13t51 -8.5t48.5 -5.5t54 -3t48 -1h50h42zM764 414h37l497 -654
h-6h-35z" />
    <glyph glyph-name="R" unicode="R" horiz-adv-x="1331" 
d="M817 1393q197 0 270.5 -83t73.5 -306q0 -177 -48.5 -259.5t-170.5 -113.5l-24 -6l247 -625h-37l-243 621q-49 -9 -99 -9h-548v-612h-33v1393h612zM782 643q195 0 270.5 78.5t75.5 282.5q0 206 -67.5 283t-247.5 77h-575v-721h544z" />
    <glyph glyph-name="S" unicode="S" horiz-adv-x="1353" 
d="M709 -16q-219 0 -461 22v33q284 -27 440 -27q134 0 213.5 14t129.5 55t67.5 105.5t17.5 173.5q0 56 -1 91.5t-7 70.5t-13 54.5t-23.5 39t-34.5 29t-50.5 19t-66.5 14.5t-86 10l-379 39q-64 7 -105 19.5t-70.5 33.5t-44.5 58.5t-21.5 87t-6.5 127.5q0 141 42.5 216.5
t142.5 107.5t286 32q251 0 399 -23v-28q-158 22 -393 22q-109 0 -182 -9.5t-126 -31t-81.5 -61t-41.5 -94t-13 -135.5q0 -162 43.5 -219t179.5 -70l358 -39q83 -9 130 -16t89 -24.5t59.5 -36.5t31 -60.5t16 -87t2.5 -125.5t-7.5 -136.5t-28 -101t-51.5 -72t-82 -45.5
t-115.5 -25t-155.5 -7z" />
    <glyph glyph-name="T" unicode="T" horiz-adv-x="1304" 
d="M637 1364h-483v29h997v-29h-481v-1364h-33v1364z" />
    <glyph glyph-name="U" unicode="U" horiz-adv-x="1417" 
d="M238 530q0 -84 2.5 -140t10.5 -112.5t21.5 -91t38.5 -68t58.5 -51t83 -31.5t111.5 -19t145 -5q106 0 174.5 7t124.5 29.5t86.5 56t50.5 95.5t26.5 137.5t6.5 192.5v863h32v-801q0 -137 -6.5 -226t-28.5 -162t-54 -112t-91.5 -65.5t-133.5 -34.5t-187 -8q-83 0 -147 6.5
t-115 16t-87.5 33.5t-63 45t-43.5 65t-27 78.5t-14.5 101.5t-5.5 118.5t-1 143.5v801h33v-863z" />
    <glyph glyph-name="V" unicode="V" horiz-adv-x="1390" 
d="M123 1393h37l536 -1354h-4l541 1354h33l-551 -1393h-39z" />
    <glyph glyph-name="W" unicode="W" horiz-adv-x="1988" 
d="M125 1393h37l366 -1358h-4l441 1358h34l439 -1358h-4l407 1358h23l-408 -1393h-37l-438 1348l4 -2l-438 -1346h-41z" />
    <glyph glyph-name="X" unicode="X" horiz-adv-x="1396" 
d="M692 700l-538 693h39l505 -645h2l508 645h37l-540 -691l546 -702h-39l-512 653h-4l-514 -653h-37z" />
    <glyph glyph-name="Y" unicode="Y" horiz-adv-x="1368" 
d="M668 571l-525 822h41l502 -791h-4l506 791h37l-525 -822v-571h-32v571z" />
    <glyph glyph-name="Z" unicode="Z" horiz-adv-x="1292" 
d="M164 41l913 1323h-891v29h924v-39l-911 -1325h927v-29h-962v41z" />
    <glyph glyph-name="bracketleft" unicode="[" horiz-adv-x="688" 
d="M205 1507h276v-26l-245 -8v-1749l245 -9v-28h-276v1820z" />
    <glyph glyph-name="backslash" unicode="\" horiz-adv-x="1030" 
d="M240 1507l585 -1622h-32l-588 1622h35z" />
    <glyph glyph-name="bracketright" unicode="]" horiz-adv-x="688" 
d="M483 1507v-1820h-276v28l246 9v1749l-246 8v26h276z" />
    <glyph glyph-name="underscore" unicode="_" horiz-adv-x="1433" 
d="M1229 -203h-1024v39h1024v-39z" />
    <glyph glyph-name="a" unicode="a" horiz-adv-x="1208" 
d="M563 -16q-207 0 -282.5 59.5t-75.5 222.5q0 168 59 225.5t232 57.5q81 0 240.5 -5t240.5 -5v116q0 82 -4.5 134.5t-21 95.5t-40.5 65.5t-70 38.5t-103 20.5t-146 4.5q-178 0 -313 -23v25q138 22 342 22q84 0 138.5 -4.5t100.5 -20t71 -39.5t43 -67t24 -99t6 -140v-668
h-23l-10 174h4q-53 -190 -412 -190zM561 8q124 0 201.5 19.5t126.5 68t68.5 125t19.5 197.5v106h-461q-169 0 -224.5 -51.5t-55.5 -206.5q0 -103 28.5 -157t97 -77.5t199.5 -23.5z" />
    <glyph glyph-name="b" unicode="b" horiz-adv-x="1200" 
d="M207 1507h31l16 -639h-6q28 83 129.5 126.5t263.5 43.5q85 0 143 -8.5t104 -32t73 -59.5t44.5 -97.5t24 -138.5t6.5 -190t-6.5 -190.5t-24 -139.5t-44.5 -98t-73 -59.5t-104 -32t-143 -8.5q-353 0 -405 190h4l-11 -174h-22v1507zM621 8q85 0 141.5 7t101.5 29.5
t70.5 55.5t42 92.5t22 133.5t5.5 186q0 83 -3 143.5t-11.5 113.5t-21 88.5t-34.5 64.5t-49 45.5t-67.5 27.5t-87 15t-109.5 4q-117 0 -188.5 -22t-116.5 -81.5t-61.5 -152.5t-16.5 -246q0 -154 16.5 -248t62 -153t116.5 -81t188 -22z" />
    <glyph glyph-name="c" unicode="c" horiz-adv-x="1013" 
d="M600 -16q-84 0 -142 8.5t-103.5 32.5t-72.5 60t-44.5 97.5t-24 138.5t-6.5 189q0 298 83 413t300 115q145 0 250 -18v-27q-136 21 -236 21q-108 0 -176.5 -23.5t-112 -83.5t-60.5 -153t-17 -240q0 -108 6 -182t22.5 -133.5t42 -94t69.5 -57.5t99 -31t135 -8q126 0 238 23
v-27q-102 -20 -250 -20z" />
    <glyph glyph-name="d" unicode="d" horiz-adv-x="1198" 
d="M971 0l-10 172h2q-55 -188 -404 -188q-85 0 -143 8t-104 31.5t-73 59.5t-44.5 97.5t-24 139t-6.5 190.5t6.5 190.5t24 139.5t44.5 98t73 59.5t104 32t143 8.5q160 0 261.5 -45t129.5 -127h-4l17 641h30v-1507h-22zM580 8q78 0 134 9.5t100 33t71.5 59.5t45.5 93.5t25 131
t7 175.5q0 152 -17 246t-62 153.5t-116.5 82t-187.5 22.5q-86 0 -142.5 -7t-102 -29.5t-70.5 -55.5t-42 -92.5t-22.5 -133.5t-5.5 -186t5.5 -185.5t22.5 -133t42 -92.5t70.5 -55t102 -29t142.5 -7z" />
    <glyph glyph-name="e" unicode="e" horiz-adv-x="1191" 
d="M207 510q0 123 5 200t23.5 141t45.5 96.5t79 55t115.5 29t163.5 6.5q205 0 280.5 -57.5t90.5 -228.5q6 -66 6 -244h-778v-23q0 -102 6.5 -172t24.5 -126t45.5 -88.5t74.5 -54t107 -29t147 -7.5q166 0 332 25v-27q-116 -22 -342 -22q-92 0 -154.5 8t-112.5 31.5t-79 59.5
t-48 97.5t-25.5 138.5t-6.5 191zM985 532q6 144 -8 242q-22 142 -92 191t-252 49q-89 0 -147 -6.5t-105 -26.5t-72.5 -49.5t-42.5 -84.5t-22.5 -122.5t-5.5 -171.5v-21h747z" />
    <glyph glyph-name="f" unicode="f" horiz-adv-x="864" 
d="M164 1022h223v20q0 42 -2 116.5t-1.5 106.5t6.5 77.5t22.5 71.5t44.5 46q67 44 243 47v-20q-157 0 -219.5 -43t-62.5 -150v-272h282v-25h-282v-997h-31v997h-223v25z" />
    <glyph glyph-name="g" unicode="g" horiz-adv-x="1255" 
d="M600 1038q347 0 399 -190h-4l19 174h20q15 -315 15 -510q0 -102 -9 -383q-6 -229 -30.5 -330t-87.5 -153q-91 -76 -312 -76q-197 0 -366 14v27q205 -14 354 -14q224 0 307 75q29 26 49 63.5t29.5 71.5t14 84.5t4.5 81.5t-1.5 85.5t-1.5 74.5v39h2q-32 -100 -125.5 -144
t-275.5 -44q-129 0 -206 23t-115 75q-72 93 -72 430q0 335 72 428q38 52 115 75t206 23zM623 1014q-130 0 -205.5 -21.5t-112.5 -68.5q-24 -32 -39 -82.5t-20.5 -119t-6.5 -107t-1 -103.5t1 -104t6.5 -107.5t20.5 -119.5t39 -83q37 -47 112.5 -68.5t205.5 -21.5q79 0 135 9
t100 32t71 58.5t44.5 94t24 132t6.5 178.5q0 121 -11.5 203.5t-36.5 142.5t-70.5 93t-108 48t-154.5 15z" />
    <glyph glyph-name="h" unicode="h" horiz-adv-x="1206" 
d="M207 1507h31l10 -651h-2q46 101 133.5 141.5t255.5 40.5q115 0 182.5 -15.5t110 -61.5t57 -118t14.5 -196v-647h-30v637q0 82 -5.5 137t-20.5 99.5t-38.5 70t-64.5 42t-92 22.5t-127 6q-92 0 -155 -14.5t-108.5 -46.5t-71 -90t-37 -137.5t-11.5 -195.5v-530h-31v1507z
" />
    <glyph glyph-name="i" unicode="i" horiz-adv-x="456" 
d="M248 1022v-1022h-33v1022h33zM205 1507h47v-86h-47v86z" />
    <glyph glyph-name="j" unicode="j" horiz-adv-x="579" 
d="M123 -395q123 0 167 28.5t44 110.5v1278h31v-1258q0 -107 -48.5 -143.5t-193.5 -36.5v21zM326 1507h47v-86h-47v86z" />
    <glyph glyph-name="k" unicode="k" horiz-adv-x="1081" 
d="M207 1507h31v-970h204l441 485h35l-451 -496l459 -526h-39l-443 508h-206v-508h-31v1507z" />
    <glyph glyph-name="l" unicode="l" horiz-adv-x="442" 
d="M238 1507v-1507h-33v1507h33z" />
    <glyph glyph-name="m" unicode="m" horiz-adv-x="1789" 
d="M225 1022l17 -191h-4q80 207 356 207q136 0 207.5 -46t105.5 -156h2q51 110 132 156t221 46q81 0 134.5 -11t92 -35.5t58.5 -71.5t29 -111t9 -162v-647h-31v637q0 83 -4.5 138t-18 99.5t-34 69.5t-57 42t-82 22.5t-113.5 5.5q-184 0 -255.5 -99.5t-71.5 -353.5v-561h-31
v637q0 220 -63.5 298.5t-243.5 78.5q-106 0 -189 -49.5t-123 -135.5q-30 -61 -30 -278v-551h-31v1022h18z" />
    <glyph glyph-name="n" unicode="n" horiz-adv-x="1206" 
d="M223 1022l17 -191h-2q88 207 397 207q115 0 182.5 -15.5t110 -61.5t57 -118t14.5 -196v-647h-30v637q0 82 -5.5 137t-20.5 99.5t-38.5 70t-64.5 42t-92 22.5t-127 6q-249 0 -342 -150q-23 -38 -32 -111t-9 -223v-530h-31v1022h16z" />
    <glyph glyph-name="o" unicode="o" horiz-adv-x="1259" 
d="M631 -16q-151 0 -215 13q-139 29 -176 132q-16 44 -24 125.5t-8.5 124.5t-0.5 131q0 87 0.5 129.5t8.5 124.5t24 127q28 79 119 113t272 34t271 -34t118 -113q16 -45 24 -127t8.5 -124.5t0.5 -129.5q0 -88 -0.5 -131t-8.5 -124.5t-24 -125.5q-15 -42 -48.5 -71t-67.5 -43
t-88.5 -21.5t-86 -8.5t-86.5 -1h-12zM631 8q59 0 91.5 1.5t91 9.5t98.5 29.5t61 55.5q12 19 21 44t14 59t8.5 60t4.5 69t1.5 62t0 63t-0.5 49v37.5v46t-0.5 47.5t-2 52.5t-3.5 50t-6 51.5t-9 44.5t-12 42.5t-16 33q-18 29 -52 49.5t-64 30t-81.5 14t-73.5 5t-71 0.5
q-60 0 -94 -2t-90.5 -10t-96.5 -30t-63 -57q-12 -19 -21 -44t-14 -59t-8.5 -60.5t-4.5 -69t-1.5 -61.5t0 -62.5t0.5 -48.5v-37v-45.5t0.5 -47.5t2 -53t3.5 -50.5t6 -52t9 -45.5t12 -42.5t16 -32.5q18 -28 51.5 -47.5t64.5 -29t81.5 -14t74.5 -5t72 -0.5z" />
    <glyph glyph-name="p" unicode="p" horiz-adv-x="1200" 
d="M229 1022l11 -174h-4q52 190 405 190q85 0 143 -8.5t104 -32t73 -59.5t44.5 -97.5t24 -138.5t6.5 -190t-6.5 -190.5t-24 -139.5t-44.5 -98t-73 -59.5t-104 -32t-143 -8.5q-162 0 -263.5 44.5t-129.5 127.5h6l-14 -572h-33v1438h22zM621 1014q-78 0 -134 -9.5t-100 -33
t-71.5 -59.5t-45.5 -93.5t-25 -131t-7 -175.5q0 -153 16.5 -247t61.5 -153.5t116.5 -81.5t188.5 -22q85 0 141.5 7t101.5 29.5t70.5 55.5t42 92.5t22 133.5t5.5 186q0 83 -3 143.5t-11.5 113.5t-21 88.5t-34.5 64.5t-49 45.5t-67.5 27.5t-87 15t-109.5 4z" />
    <glyph glyph-name="q" unicode="q" horiz-adv-x="1198" 
d="M993 -418h-32l-15 572h4q-28 -82 -129 -126t-262 -44q-85 0 -143 8t-104 31.5t-73 59.5t-44.5 97.5t-24 139t-6.5 190.5t6.5 190.5t24 139.5t44.5 98t73 59.5t104 32t143 8.5q349 0 404 -190h-2l10 174h22v-1440zM580 1014q-86 0 -142.5 -7t-102 -29.5t-70.5 -55.5
t-42 -92.5t-22.5 -133.5t-5.5 -186t5.5 -185.5t22.5 -133t42 -92.5t70.5 -55t102 -29t142.5 -7q116 0 187.5 22t116.5 81.5t62 153t17 245.5q0 153 -16.5 247t-61.5 153.5t-116.5 81.5t-188.5 22z" />
    <glyph glyph-name="r" unicode="r" horiz-adv-x="735" 
d="M227 1022l6 -227h-2q38 104 139.5 172t221.5 71v-32q-115 -3 -206 -61t-126 -150q-22 -56 -22 -275v-520h-31v1022h20z" />
    <glyph glyph-name="s" unicode="s" horiz-adv-x="1134" 
d="M575 -16q-176 0 -335 20v27q199 -23 364 -23q168 0 231.5 53.5t63.5 194.5q0 89 -15.5 135.5t-52 68.5t-110.5 29l-305 31q-126 12 -167.5 59.5t-41.5 178.5q0 87 16 139t60.5 85t114 44.5t186.5 11.5q170 0 288 -20v-27q-157 23 -323 23q-177 0 -244 -52.5t-67 -189.5
q0 -125 35 -168t147 -53l295 -29q74 -7 113 -18.5t63.5 -42.5t31.5 -76t7 -129q0 -158 -74.5 -215t-280.5 -57z" />
    <glyph glyph-name="t" unicode="t" horiz-adv-x="823" 
d="M154 1022h223v309h31v-309h262v-25h-262v-997h-31v997h-223v25z" />
    <glyph glyph-name="u" unicode="u" horiz-adv-x="1204" 
d="M981 16l-18 183h4q-31 -91 -138 -145t-258 -54q-77 0 -131 6.5t-96.5 24.5t-68 45.5t-42 73t-22.5 103t-6 140.5v645h31v-635q0 -82 5.5 -137.5t20.5 -100t38.5 -70t65 -42t93 -22.5t127.5 -6q251 0 340 151q23 37 32 110t9 224v528h32v-1022h-18z" />
    <glyph glyph-name="v" unicode="v" horiz-adv-x="1157" 
d="M143 1022h35l402 -971h-5l408 971h31l-424 -1022h-25z" />
    <glyph glyph-name="w" unicode="w" horiz-adv-x="1726" 
d="M143 1022h37l332 -969l-4 -2l344 971h31l327 -971h-4l346 971h33l-362 -1022h-27l-332 963h4l-346 -963h-26z" />
    <glyph glyph-name="x" unicode="x" horiz-adv-x="1165" 
d="M567 520l-397 502h39l375 -469h-2l379 469h36l-399 -500l414 -522h-39l-391 487h2l-391 -487h-37z" />
    <glyph glyph-name="y" unicode="y" horiz-adv-x="1206" 
d="M567 -430q-176 0 -331 14v27q191 -14 321 -14q148 0 236 33.5t127 107.5q49 88 49 272v168h-2q-43 -112 -126.5 -153t-267.5 -41q-116 0 -184 15.5t-110.5 61.5t-57 118t-14.5 196v647h31v-637q0 -123 12.5 -192t53 -113t105 -58t179.5 -14q76 0 131.5 9.5t99 32.5
t71.5 58.5t46 91t25.5 125.5t7.5 167v530h30v-903q0 -112 -8 -192t-28 -143.5t-51 -103t-80.5 -65t-112.5 -35.5t-152 -10z" />
    <glyph glyph-name="z" unicode="z" horiz-adv-x="1085" 
d="M164 31l717 966h-693v25h727v-31l-714 -966h719v-25h-756v31z" />
    <glyph glyph-name="braceleft" unicode="{" horiz-adv-x="843" 
d="M205 606q106 6 165 83.5t62 209.5l6 297q1 72 17 118t53.5 87t118.5 106h10q-93 -79 -133.5 -174t-40.5 -239v-201q0 -127 -41.5 -197t-132.5 -98v-2q91 -26 132.5 -96.5t41.5 -196.5v-201q0 -145 40.5 -240.5t133.5 -174.5h-10q-104 84 -146 152t-43 159l-6 299
q-3 131 -62.5 208t-164.5 83v18z" />
    <glyph glyph-name="bar" unicode="|" horiz-adv-x="450" 
d="M246 1507v-1693h-41v1693h41z" />
    <glyph glyph-name="braceright" unicode="}" horiz-adv-x="843" 
d="M639 606v-18q-105 -6 -164.5 -83t-62.5 -208l-6 -299q-1 -91 -43 -159t-146 -152h-10q93 79 133.5 174.5t40.5 240.5v201q0 126 41.5 196.5t132.5 96.5v2q-91 28 -132.5 98t-41.5 197v201q0 144 -40.5 239t-133.5 174h10q81 -65 118.5 -106t53.5 -87t17 -118l6 -297
q3 -132 62 -209.5t165 -83.5z" />
    <glyph glyph-name="uni00A0" unicode="&#xa0;" horiz-adv-x="552" 
 />
    <glyph glyph-name="cent" unicode="&#xa2;" horiz-adv-x="1243" 
d="M694 166q-85 0 -143 8.5t-104 32t-73 59t-44.5 97t-24 138.5t-6.5 189v66q0 202 36.5 314.5t119 162t229.5 49.5q145 0 248 -18v-27q-127 20 -234 20q-109 0 -177.5 -23.5t-112 -83t-61 -153t-17.5 -241.5v-66q0 -107 6 -180.5t23 -132t43 -92.5t70 -56.5t98.5 -30.5
t134.5 -8q128 0 237 23v-27q-100 -20 -248 -20zM678 1493h24v-221h-24v221zM678 178h24v-219h-24v219z" />
    <glyph glyph-name="sterling" unicode="&#xa3;" horiz-adv-x="1396" 
d="M387 860q0 118 8 198.5t32 145t59.5 101.5t97.5 62t139.5 33.5t191.5 8.5q158 0 295 -20v-25q-144 16 -274 16q-114 0 -189.5 -7.5t-136.5 -30.5t-95 -57.5t-57 -96t-30.5 -138t-7.5 -190.5v-831h790v-29h-823v860zM186 872h922v-28h-922v28zM186 563h922v-28h-922v28z
" />
    <glyph glyph-name="currency" unicode="&#xa4;" horiz-adv-x="1562" 
d="M756 143q-235 0 -328 66l-14 10l-244 -246l-16 17l245 248l-10 12q-56 94 -55 423v21q0 1 -0.5 54.5t0 70t2 67t5.5 76t9.5 64t15.5 65.5t23 48l8 12l-243 246l18 18l240 -241l14 10q79 65 330 65q256 0 329 -67l15 -13l243 246l17 -16l-244 -246l8 -12q11 -18 20 -44.5
t15 -49.5t10.5 -61t6.5 -60t3 -66t1 -58.5v-59.5v-48v-48v-59t-1 -58t-3 -65.5t-6.5 -59t-10.5 -61t-15 -49.5t-20 -44l-8 -12l246 -248l-19 -19l-243 246l-15 -10q-89 -64 -329 -64zM756 170q49 0 73 0.5t74 5.5t80.5 15t64 30.5t52.5 50.5q9 15 16 34t12 43.5t9 46.5
t6 53.5t3.5 52t2 54.5t0.5 49.5v48.5v40q0 228 -16 321q-12 69 -33 105q-22 37 -61.5 60.5t-96.5 32t-91.5 10.5t-94.5 2q-38 0 -59 -0.5t-61.5 -3t-67.5 -9.5t-59.5 -17.5t-56 -30t-38.5 -44.5q-9 -15 -16 -34.5t-12 -44.5t-9 -47t-6 -54t-3.5 -52.5t-2 -55t-0.5 -50v-48.5
v-40v-40v-48.5t0.5 -49.5t2 -54.5t3.5 -52t6 -53.5t9 -46.5t12 -43.5t16 -34q22 -36 62 -58.5t96.5 -31t92 -10.5t91.5 -2z" />
    <glyph glyph-name="yen" unicode="&#xa5;" horiz-adv-x="1566" 
d="M766 571h-442v29h424l-179 281h-245v28h227l-307 484h39l307 -484h387l309 484h37l-309 -484h231v-28h-250l-178 -281h428v-29h-446v-571h-33v571zM958 881h-350l174 -275z" />
    <glyph glyph-name="brokenbar" unicode="&#xa6;" horiz-adv-x="450" 
d="M205 1507h41v-602l-41 -6v608zM205 416l41 6v-608h-41v602z" />
    <glyph glyph-name="copyright" unicode="&#xa9;" horiz-adv-x="1482" 
d="M776 322q-39 0 -59 1t-60.5 5t-68 16.5t-43.5 32.5q-23 30 -35 99t-13 109t-1 111q0 263 49 320q17 20 44.5 32.5t66.5 16.5t59 5t61 1q66 0 156 -8v-21q-68 9 -148 9q-49 0 -78.5 -1.5t-75 -15.5t-65.5 -41q-48 -64 -47 -280v-17q0 -67 1 -103.5t12.5 -99.5t33.5 -92
q16 -21 41.5 -34.5t62.5 -18t56.5 -5.5t58.5 -1q87 0 152 8v-20q-68 -8 -160 -8zM188 696q0 17 -1.5 95t-1 124t6 124t17.5 128.5t36.5 100.5t59.5 75q56 37 148.5 51.5t275.5 14.5q67 0 109.5 -1.5t110.5 -6.5t119.5 -20t84.5 -38q30 -21 52 -57t35 -87t21 -97.5t10 -112.5
t2.5 -106.5t-0.5 -104t-1 -82.5q0 -17 1.5 -94t1 -123.5t-6 -124t-17.5 -128t-37 -100.5t-61 -75q-55 -39 -144 -53t-280 -14q-327 0 -424 67q-29 20 -51 56t-34.5 87t-20.5 97.5t-10 112.5t-2.5 106.5t0.5 103.5t1 82zM207 696q0 -16 -1 -82t-0.5 -103t3.5 -103.5
t11 -111.5t21 -96t36 -86.5t53 -56.5q40 -28 116 -43t126.5 -16.5t134.5 -1.5h22q67 0 101.5 1t103 5.5t117 18.5t79.5 36q37 26 62.5 76t38 99t18.5 125.5t6.5 121t-1 122.5t-1.5 95q0 16 1 82.5t0.5 104t-3.5 104t-11 111.5t-21 96t-36 86.5t-53 56.5q-42 29 -127 43.5
t-133 15.5t-141 1q-86 0 -138.5 -1.5t-136.5 -16t-124 -42.5q-37 -26 -62.5 -76t-38 -99t-18.5 -125.5t-6.5 -121.5t1 -123t1.5 -96z" />
    <glyph glyph-name="guillemotleft" unicode="&#xab;" horiz-adv-x="1003" 
d="M520 612l258 410h19l-236 -410l236 -405h-19zM207 612l258 410h18l-235 -410l235 -405h-18z" />
    <glyph glyph-name="logicalnot" unicode="&#xac;" horiz-adv-x="1196" 
d="M961 496h-754v30h782v-415h-28v385z" />
    <glyph glyph-name="uni00AD" unicode="&#xad;" horiz-adv-x="1298" 
d="M1094 451h-889v38h889v-38z" />
    <glyph glyph-name="registered" unicode="&#xae;" horiz-adv-x="1482" 
d="M809 1061q105 0 143.5 -43.5t38.5 -161.5q0 -87 -24 -134.5t-76 -62.5l-21 -6l127 -325h-28l-121 321h-338v-321h-23v733h322zM791 670q100 0 139 42t39 144q0 104 -35 144t-127 40h-297v-370h281zM188 696q0 17 -1.5 95t-1 124t6 124t17.5 128.5t36.5 100.5t59.5 75
q56 37 148.5 51.5t275.5 14.5q67 0 109.5 -1.5t110.5 -6.5t119.5 -20t84.5 -38q30 -21 52 -57t35 -87t21 -97.5t10 -112.5t2.5 -106.5t-0.5 -104t-1 -82.5q0 -17 1.5 -94t1 -123.5t-6 -124t-17.5 -128t-37 -100.5t-61 -75q-55 -39 -144 -53t-280 -14q-327 0 -424 67
q-29 20 -51 56t-34.5 87t-20.5 97.5t-10 112.5t-2.5 106.5t0.5 103.5t1 82zM207 696q0 -16 -1 -82t-0.5 -103t3.5 -103.5t11 -111.5t21 -96t36 -86.5t53 -56.5q40 -28 116 -43t126.5 -16.5t134.5 -1.5h22q67 0 101.5 1t103 5.5t117 18.5t79.5 36q37 26 62.5 76t38 99
t18.5 125.5t6.5 121t-1 122.5t-1.5 95q0 16 1 82.5t0.5 104t-3.5 104t-11 111.5t-21 96t-36 86.5t-53 56.5q-42 29 -127 43.5t-133 15.5t-141 1q-86 0 -138.5 -1.5t-136.5 -16t-124 -42.5q-37 -26 -62.5 -76t-38 -99t-18.5 -125.5t-6.5 -121.5t1 -123t1.5 -96z" />
    <glyph glyph-name="degree" unicode="&#xb0;" horiz-adv-x="876" 
d="M440 827q-92 0 -138 15t-66 47q-19 28 -24 77.5t-5 151.5q0 100 5 150.5t24 81.5q20 30 66 44.5t138 14.5q91 0 137.5 -14.5t65.5 -44.5q20 -31 24.5 -79t4.5 -153q0 -74 -1 -107t-7.5 -68.5t-20.5 -55.5q-38 -60 -203 -60zM440 850q36 0 56.5 1.5t51.5 10.5t50 27
q9 9 16.5 21.5t12 24t8 30.5t5 30.5t2.5 34t1 31v31.5v26v27.5v35t-1 34t-3.5 37.5t-6.5 32.5t-10.5 32.5t-15.5 24q-18 21 -50.5 31.5t-54.5 12t-61 1.5q-137 0 -176 -53q-7 -9 -12 -20t-8 -26t-5 -25.5t-2.5 -32.5t-0.5 -32.5v-39v-39.5v-26.5v-33.5t0.5 -32.5t2.5 -35.5
t5 -31.5t8 -30.5t12 -23q13 -20 33 -32t47.5 -16.5t45.5 -5.5t50 -1z" />
    <glyph glyph-name="plusminus" unicode="&#xb1;" horiz-adv-x="1298" 
d="M1094 -164h-889v39h889v-39zM649 604h-377v27h377v383h25v-383h383v-27h-383v-383h-25v383z" />
    <glyph glyph-name="paragraph" unicode="&#xb6;" horiz-adv-x="1183" 
d="M207 926q0 87 1.5 143t9.5 109t17.5 83t31.5 57.5t46.5 39.5t67.5 21.5t89 11.5t116 2h157v-1692h-32v762q-89 0 -150 3t-116 12.5t-89 23t-63 40.5t-44 58t-25.5 82t-13.5 107t-3 137zM944 1393h33v-1692h-33v1692z" />
    <glyph glyph-name="periodcentered" unicode="&#xb7;" horiz-adv-x="505" 
d="M205 774v82l96 4v-86h-96z" />
    <glyph glyph-name="guillemotright" unicode="&#xbb;" horiz-adv-x="1003" 
d="M483 612l-258 -405h-18l235 405l-235 410h18zM797 612l-258 -405h-19l236 405l-236 410h19z" />
    <glyph glyph-name="multiply" unicode="&#xd7;" horiz-adv-x="1030" 
d="M209 213l289 293l-291 293l18 18l291 -293l291 293l16 -16l-291 -293l291 -295l-18 -18l-291 292l-289 -292z" />
    <glyph glyph-name="divide" unicode="&#xf7;" horiz-adv-x="1300" 
d="M207 489h887v-38h-887v38zM616 946h52v-84h-52v84zM616 152h52v-84h-52v84z" />
    <glyph glyph-name="uni0609" unicode="&#x609;" horiz-adv-x="1955" 
d="M1546 418q97 0 151 -60.5t54 -154.5q0 -95 -55.5 -149t-149.5 -54q-91 0 -144.5 54.5t-53.5 148.5q0 92 51 153.5t147 61.5zM1546 391q-80 0 -125 -52.5t-45 -133.5q0 -78 31 -131q61 -47 139 -47q93 0 134.5 44t41.5 134q0 80 -39 141q-53 45 -137 45zM1014 418
q97 0 151 -60.5t54 -154.5q0 -95 -55.5 -149t-149.5 -54q-91 0 -145 55t-54 148q0 92 51.5 153.5t147.5 61.5zM1014 391q-80 0 -125 -52.5t-45 -133.5q0 -80 30 -131q61 -47 140 -47q93 0 134.5 44t41.5 134q0 80 -39 141q-53 45 -137 45zM1161 1282l-895 -1374l-24 18
l895 1374zM403 1208q97 0 152 -60.5t55 -154.5q0 -95 -56.5 -150t-150.5 -55q-91 0 -144.5 55.5t-53.5 149.5q0 92 51 153.5t147 61.5zM403 1180q-80 0 -125 -53t-45 -134q0 -75 33 -131q59 -45 137 -45q94 0 136.5 43.5t42.5 132.5q0 81 -39 142q-53 45 -140 45z" />
    <glyph glyph-name="uni060A" unicode="&#x60a;" horiz-adv-x="2478" 
d="M1546 418q97 0 151 -60.5t54 -154.5q0 -95 -55.5 -149t-149.5 -54q-91 0 -144.5 54.5t-53.5 148.5q0 92 51 153.5t147 61.5zM1546 391q-80 0 -125 -52.5t-45 -133.5q0 -78 31 -131q61 -47 139 -47q93 0 134.5 44t41.5 134q0 80 -39 141q-53 45 -137 45zM2068 418
q97 0 151 -60.5t54 -154.5q0 -95 -55.5 -149t-149.5 -54q-91 0 -144.5 54.5t-53.5 148.5q0 92 51 153.5t147 61.5zM2068 391q-80 0 -125 -52.5t-45 -133.5q0 -78 31 -131q61 -47 139 -47q93 0 135 44t42 134q0 80 -39 141q-53 45 -138 45zM1014 418q97 0 151 -60.5
t54 -154.5q0 -95 -55.5 -149t-149.5 -54q-91 0 -145 55t-54 148q0 92 51.5 153.5t147.5 61.5zM1014 391q-80 0 -125 -52.5t-45 -133.5q0 -80 30 -131q61 -47 140 -47q93 0 134.5 44t41.5 134q0 80 -39 141q-53 45 -137 45zM1161 1282l-895 -1374l-24 18l895 1374zM403 1208
q97 0 152 -60.5t55 -154.5q0 -95 -56.5 -150t-150.5 -55q-91 0 -144.5 55.5t-53.5 149.5q0 92 51 153.5t147 61.5zM403 1180q-80 0 -125 -53t-45 -134q0 -75 33 -131q59 -45 137 -45q94 0 136.5 43.5t42.5 132.5q0 81 -39 142q-53 45 -140 45z" />
    <glyph glyph-name="uni060B" unicode="&#x60b;" horiz-adv-x="2136" 
d="M989 -512l8 512h-579q-88 0 -150.5 65t-62.5 154v426l246 215h342q89 0 154 -61t65 -146v-622h16v-31h-16l10 -520zM973 657q-3 73 -57 122.5t-125 49.5h-330l-223 -196l-19 -412q-3 -75 51 -132.5t127 -57.5h602zM993 0v31h733q82 0 137.5 55t55.5 131v88h-502
q-88 0 -150.5 65t-62.5 154v357l246 215h262q87 0 153 -61t66 -146v-672q0 -91 -59.5 -154t-159.5 -63h-719zM1892 893q-3 73 -57 122.5t-125 49.5h-250l-223 -197l-18 -342q-4 -75 50 -132.5t128 -57.5h522zM979 1026v90l108 8v-98h-108z" />
    <glyph glyph-name="uni060C" unicode="&#x60c;" horiz-adv-x="593" 
d="M281 256q-50 -53 -45 -94q9 -47 90 -117l-45 -45q-80 83 -74 154q6 55 59 114l107 121l16 -20z" />
    <glyph glyph-name="uni060D" unicode="&#x60d;" horiz-adv-x="638" 
d="M373 518h61l-201 -641h-28z" />
    <glyph glyph-name="uni0615" unicode="&#x615;" 
d="M-150 16l31 54l-8 299l16 10v-273v-26l52 84q26 40 50 59t58 25q32 4 60 4l86 -76v-106q0 -32 -20 -51t-54 -19h-271v16zM131 16q25 0 39.5 14.5t13.5 39.5l-6 98l-76 70q-16 0 -51 -5q-31 -6 -52.5 -22.5t-43.5 -50.5l-92 -144h268z" />
    <glyph glyph-name="uni061B" unicode="&#x61b;" horiz-adv-x="593" 
d="M219 0v82l96 4v-86h-96zM281 666q-50 -53 -45 -95q8 -46 90 -116l-45 -45q-80 83 -74 153q6 56 59 115l107 121l16 -21z" />
    <glyph glyph-name="uni061F" unicode="&#x61f;" horiz-adv-x="870" 
d="M815 1147q-2 68 -66.5 129t-140.5 61h-188l-182 -155l-19 -342q-2 -43 33 -74.5t86.5 -53.5t103.5 -47.5t88.5 -72t36.5 -111.5q0 -14 -0.5 -26t-0.5 -20.5t-1.5 -20.5t-2 -17t-3.5 -19t-3.5 -18t-5 -23.5t-5.5 -25.5l-23 -4q5 21 12 48t10.5 40t6 35.5t2.5 50.5
q0 44 -19 78t-50 55.5t-68 40t-74 35.5t-68 36t-50 47.5t-19 64.5v356l205 174h200q80 0 144 -58.5t73 -140.5l2 -18zM463 0v102l121 4v-106h-121z" />
    <glyph glyph-name="uni0640" unicode="&#x640;" horiz-adv-x="407" 
d="M-2 0v31h410q20 0 20 -15q0 -16 -20 -16h-410z" />
    <glyph glyph-name="uni064B" unicode="&#x64b;" 
d="M184 115l13 -17l-392 -98l-6 14zM184 307l13 -16l-392 -98l-6 14z" />
    <glyph glyph-name="uni064C" unicode="&#x64c;" 
d="M-88 123q12 26 5.5 38.5t-32.5 6.5l-104 -25l-2 17l104 20q32 6 44 -11.5t-3 -49.5l-47 -101l162 43l-35 140q-6 23 7.5 43t37.5 26l70 17l80 -41l22 -94q6 -25 -6 -46.5t-35 -27.5l-311 -78l-6 14zM180 98q19 5 29 23t4 37l-27 78l-67 36l-64 -16q-18 -4 -28 -20t-7 -35
l29 -138z" />
    <glyph glyph-name="uni064D" unicode="&#x64d;" 
d="M184 -193l13 -16l-392 -98l-6 14zM184 0l13 -16l-392 -99l-6 15z" />
    <glyph glyph-name="uni064E" unicode="&#x64e;" 
d="M-195 0l-6 14l385 101l13 -17z" />
    <glyph glyph-name="uni064F" unicode="&#x64f;" 
d="M-188 14l190 52l-35 139q-6 22 8 42.5t37 26.5l70 17l80 -41l22 -94q6 -25 -5.5 -46.5t-35.5 -27.5l-325 -82zM143 102q19 5 29 23t4 37l-26 78l-68 36l-64 -16q-18 -4 -27.5 -20t-6.5 -35l28 -137z" />
    <glyph glyph-name="uni0650" unicode="&#x650;" 
d="M-195 -115l-6 15l385 100l13 -16z" />
    <glyph glyph-name="uni0651" unicode="&#x651;" 
d="M203 274l35 5v-162q0 -53 -32 -85t-85 -32q-51 0 -84 31t-33 78q-1 -49 -36.5 -79t-88.5 -30q-48 0 -79 32.5t-31 84.5v133h30l-14 -135q-4 -41 23.5 -70t70.5 -29q47 0 78 29t31 72v98h26v-98q2 -43 32.5 -72t74.5 -29q45 0 72.5 28.5t23.5 70.5z" />
    <glyph glyph-name="uni0652" unicode="&#x652;" 
d="M-2 403q76 -1 139.5 -63.5t65.5 -136.5q1 -76 -63.5 -140t-139.5 -61t-138 70.5t-63 142.5q0 73 62 131.5t137 56.5zM-4 14q67 8 129 65.5t59 123.5q-1 58 -58 115.5t-128 72.5q-65 -6 -119.5 -59t-54.5 -117q0 -63 50.5 -122t121.5 -79z" />
    <glyph glyph-name="uni0653" unicode="&#x653;" 
d="M-281 168q382 -59 635 2l-6 -43q-144 -26 -277 -22t-350 42v-208h-14l-14 208z" />
    <glyph glyph-name="uni0654" unicode="&#x654;" 
d="M-135 0l-8 14l77 49q-28 3 -53 46l-51 81q-23 37 -25 54q-2 16 7 47q4 14 13 43.5t13 44.5l80 47q33 18 64.5 10t56.5 -39l6 -8l-8 -6q-23 29 -54.5 36.5t-60.5 -9.5l-72 -43q-4 -13 -11 -39.5t-11 -40.5q-6 -26 -4 -41q3 -18 18 -49l47 -84q20 -37 47 -39t74 30l176 115
l13 -18z" />
    <glyph glyph-name="uni0655" unicode="&#x655;" 
d="M-135 -451l-8 15l77 49q-29 3 -53 45l-51 82q-23 37 -25 53t7 47q4 15 13 44t13 44l80 47q33 18 64.5 10.5t56.5 -38.5l6 -8l-8 -7q-23 29 -54.5 36.5t-60.5 -9.5l-72 -43q-4 -13 -11 -39.5t-11 -40.5q-6 -26 -4 -41q3 -18 18 -49l47 -84q20 -37 47 -38.5t74 30.5
l176 115l13 -19z" />
    <glyph glyph-name="uni0656" unicode="&#x656;" 
d="M-16 -10l22 10v-250l-6 -6z" />
    <glyph glyph-name="uni065A" unicode="&#x65a;" 
d="M18 0h-12l137 373l21 -2zM14 6l-8 -6l-168 356l19 15z" />
    <glyph glyph-name="uni065B" unicode="&#x65b;" 
d="M143 0l-137 373h12l146 -371zM-162 16l168 357l8 -6l-157 -365z" />
    <glyph glyph-name="uni0660" unicode="&#x660;" horiz-adv-x="487" 
d="M143 141v170l201 8v-178h-201z" />
    <glyph glyph-name="uni0661" unicode="&#x661;" horiz-adv-x="491" 
d="M258 375q-4 188 -36.5 406.5t-78.5 377.5l29 8q44 -139 71.5 -349.5t32.5 -440.5l11 -529l-17 -10z" />
    <glyph glyph-name="uni0662" unicode="&#x662;" horiz-adv-x="1040" 
d="M483 498q-66 0 -126 36t-93 91q9 -129 12 -248l11 -529l-17 -10l-12 537q-4 192 -36.5 409.5t-78.5 374.5l29 8q58 -185 86 -475q13 -68 76 -116t137 -48h47q140 0 223 51t80 140l-14 440l29 8v-448q0 -103 -86.5 -162t-237.5 -59h-29z" />
    <glyph glyph-name="uni0663" unicode="&#x663;" horiz-adv-x="1452" 
d="M1247 719q0 -112 -64 -166.5t-196 -54.5q-77 0 -145 50t-88 122q-43 -83 -114.5 -129.5t-156.5 -46.5q-69 0 -127 28.5t-90 79.5q6 -74 10 -225l11 -529l-17 -10l-12 537q-5 182 -35.5 401t-79.5 383l29 8q66 -204 90 -501q17 -69 78 -105.5t143 -36.5q84 0 147.5 40.5
t96.5 111.5q10 21 19 53.5t16.5 77t12.5 77.5t12 86.5t10 71.5h28q-3 -21 -10.5 -84t-12.5 -100.5t-15.5 -87t-22.5 -80.5q15 -68 76.5 -115t134.5 -47h16q124 0 184.5 48t57.5 143l-14 440l28 8v-448z" />
    <glyph glyph-name="uni0664" unicode="&#x664;" horiz-adv-x="983" 
d="M367 -147q-104 0 -182 103t-81 245q-3 132 66 220.5t190 108.5q-86 28 -140 111t-54 186q0 152 65 244.5t168 89.5l406 -12l-12 -31l-394 29q-89 6 -145.5 -83t-56.5 -237q0 -69 22.5 -131t75.5 -108t127 -51l397 41l-8 -37q-76 -3 -219 -17t-195 -18q-125 -9 -197.5 -91
t-72.5 -214q0 -131 64.5 -226t152.5 -94l537 6l-7 -34h-507z" />
    <glyph glyph-name="uni0665" unicode="&#x665;" horiz-adv-x="1368" 
d="M227 104q0 -103 125 -162t344 -59q217 0 334 57.5t117 163.5q0 100 -2 157.5t-9.5 149.5t-28.5 168t-54 140q-85 162 -258 221l-283 98q-56 -81 -94 -145q-114 -189 -152.5 -352t-38.5 -437zM205 102q0 263 40.5 434t155.5 371q52 89 84 140l-131 45v45l465 -174
q172 -63 256 -222q18 -34 32 -73.5t23 -73t15.5 -83t9.5 -79t4.5 -86.5t2 -80t0 -85.5t-0.5 -78.5q0 -118 -121 -182.5t-344 -66.5q-229 -2 -360 64.5t-131 184.5z" />
    <glyph glyph-name="uni0666" unicode="&#x666;" horiz-adv-x="1128" 
d="M133 1167q89 -30 356 -26q106 3 206 9.5t122 10.5q29 4 37 -6t8 -53q0 -28 -1.5 -140t-1 -221.5t4.5 -220.5q10 -356 60 -672l-33 -4q-55 320 -62 676q-4 128 -0.5 347.5t2.5 267.5q-172 -45 -342 -48q-205 -3 -366 50z" />
    <glyph glyph-name="uni0667" unicode="&#x667;" horiz-adv-x="1306" 
d="M702 -164q-63 0 -91 15t-40 57q-17 60 -64 229t-81 282.5t-72 219.5q-108 301 -252 532l27 21q58 -96 111 -207.5t87.5 -197.5t78 -223t63 -206t63 -230t58.5 -216q7 -28 28.5 -37.5t69.5 -9.5h12q51 187 74 269.5t75 253.5t93 280t103.5 253.5t130.5 270.5l28 -21
q-44 -80 -86.5 -169.5t-73 -157t-69.5 -176.5t-57.5 -158.5t-57 -177.5t-48 -158.5t-51 -176t-46.5 -161.5h-13z" />
    <glyph glyph-name="uni0668" unicode="&#x668;" horiz-adv-x="1306" 
d="M702 1192h13q5 -16 46.5 -161.5t51 -176t48 -158.5t57 -177.5t57.5 -158.5t69.5 -176.5t73 -157t86.5 -169.5l-28 -21q-68 126 -130.5 270.5t-103.5 253.5t-93 280t-75 253.5t-74 269.5h-12q-48 0 -69.5 -9.5t-28.5 -37.5q-15 -55 -58.5 -216t-63 -230t-63 -206t-78 -223
t-87.5 -197.5t-111 -207.5l-27 21q144 231 252 532q38 106 72 219.5t81 282.5t64 229q12 42 40 57t91 15z" />
    <glyph glyph-name="uni0669" unicode="&#x669;" horiz-adv-x="1075" 
d="M901 -156q-21 92 -34 206.5t-16 177.5t-9 208q-208 -40 -434 -33q-87 3 -145 67.5t-58 154.5v354l203 182h231q90 0 153.5 -57t63.5 -143v-525q11 -276 76 -588zM219 625q-3 -75 47 -130.5t123 -58.5q98 -4 229.5 3t221.5 28l-15 494q-1 73 -58 121t-134 48h-215
l-189 -172z" />
    <glyph glyph-name="uni066A" unicode="&#x66a;" horiz-adv-x="1423" 
d="M1014 418q97 0 151 -60.5t54 -154.5q0 -95 -55.5 -149t-149.5 -54q-91 0 -145 55t-54 148q0 92 51.5 153.5t147.5 61.5zM1014 391q-80 0 -125 -52.5t-45 -133.5q0 -80 30 -131q61 -47 140 -47q93 0 134.5 44t41.5 134q0 80 -39 141q-53 45 -137 45zM1161 1282l-895 -1374
l-24 18l895 1374zM403 1208q97 0 152 -60.5t55 -154.5q0 -95 -56.5 -150t-150.5 -55q-91 0 -144.5 55.5t-53.5 149.5q0 92 51 153.5t147 61.5zM403 1180q-80 0 -125 -53t-45 -134q0 -75 33 -131q59 -45 137 -45q94 0 136.5 43.5t42.5 132.5q0 81 -39 142q-53 45 -140 45z
" />
    <glyph glyph-name="uni066B" unicode="&#x66b;" horiz-adv-x="638" 
d="M373 518h61l-201 -641h-28z" />
    <glyph glyph-name="uni066C" unicode="&#x66c;" horiz-adv-x="593" 
d="M313 143q50 53 45 95q-8 46 -90 116l45 45q80 -83 74 -153q-6 -56 -59 -115l-107 -121l-16 21z" />
    <glyph glyph-name="uni066E" unicode="&#x66e;" horiz-adv-x="1886" 
d="M397 0q-79 0 -135.5 61t-56.5 142v403l31 2v-405q0 -71 40.5 -121.5t106.5 -50.5h1096q73 0 132 51.5t56 120.5l-16 493l30 9v-502q0 -84 -62 -143.5t-155 -59.5h-1067z" />
    <glyph glyph-name="uni066F" unicode="&#x66f;" horiz-adv-x="1548" 
d="M588 -444q-158 0 -270.5 114t-112.5 275v532h31v-536q0 -146 103 -248.5t249 -102.5h45q41 1 85 0t90.5 2l93 6t92.5 12.5t88.5 21.5t80.5 31.5t68.5 44.5t54 59.5t35.5 76.5q12 47 12 133v23h-504q-88 0 -150.5 65t-62.5 154v356l246 216h262q87 0 153 -61t66 -146v-639
q0 -81 -27 -144.5t-63.5 -104t-104.5 -69t-118.5 -42t-139.5 -21t-133.5 -8t-131.5 -0.5h-37zM1305 588q-3 71 -56.5 121.5t-126.5 50.5h-250l-223 -197l-18 -342q-4 -75 50 -132.5t128 -57.5h522z" />
    <glyph glyph-name="uni0670" unicode="&#x670;" 
d="M-12 246l22 10v-250l-6 -6z" />
    <glyph glyph-name="uni0695" unicode="&#x695;" horiz-adv-x="641" 
d="M403 625l33 6v-750q0 -155 -137 -270t-389 -170l-12 51q233 43 371.5 146t152.5 243zM244 -987h-13l138 373l20 -2zM240 -981l-9 -6l-168 356l19 15z" />
    <glyph glyph-name="uni06A0" unicode="&#x6a0;" horiz-adv-x="1251" 
d="M424 -584q-89 0 -154 65.5t-65 156.5v47q1 178 38 247t144 95q-99 40 -102 186l-2 94q0 28 -0.5 71.5t-0.5 62t1.5 44t4.5 42.5t9 32q5 11 12 23t13.5 21.5t20.5 24.5t23 24.5t31 30t35 32.5t44 40.5t50 45.5h213q97 0 160.5 -62.5t63.5 -156.5v-2l-19 -7q0 82 -61 139.5
t-144 57.5h-202q-17 -16 -45 -41.5t-40 -37t-32 -30t-29 -27.5t-21.5 -23t-19 -23.5t-13 -20.5t-11.5 -22q-4 -11 -7 -21.5t-5.5 -26.5t-3.5 -26t-2.5 -34t-2 -35.5t-1.5 -45t-1 -49.5l-2 -92q-3 -93 56 -139t163 -31l516 76l11 -37l-543 -80q-68 -10 -109.5 -19.5
t-76.5 -28t-52 -40.5t-29 -63.5t-15 -89t-3 -125.5q0 -77 54 -133.5t126 -55.5l639 19l-14 -52h-600zM610 1368v90l109 8v-98h-109zM696 1145v-25l-329 -12v37h329zM635 1118v27h309l21 -6v-13z" />
    <glyph glyph-name="uni06A1" unicode="&#x6a1;" horiz-adv-x="1964" 
d="M397 0q-79 0 -135.5 61t-56.5 142v403l31 2v-405q0 -71 40.5 -121.5t106.5 -50.5h719v-31h-705zM821 0v31h733q82 0 137.5 55t55.5 131v88h-502q-88 0 -150.5 65t-62.5 154v357l246 215h262q87 0 153 -61t66 -146v-672q0 -91 -59.5 -154t-159.5 -63h-719zM1720 893
q-3 73 -57 122.5t-125 49.5h-250l-223 -197l-18 -342q-4 -75 50 -132.5t128 -57.5h522z" />
    <glyph glyph-name="uni06AA" unicode="&#x6aa;" horiz-adv-x="1875" 
d="M1671 217q0 -97 -60 -157t-155 -60h-1237l-14 51l1263 -20q80 -2 136 53t53 133l-15 348q-3 73 -62.5 122.5t-143.5 45.5l-938 -49l-6 31l530 545l37 -27l-522 -512l880 41q115 6 184.5 -49.5t69.5 -153.5v-342z" />
    <glyph glyph-name="uni06B5" unicode="&#x6b5;" horiz-adv-x="1482" 
d="M586 -436q-156 0 -268.5 114.5t-112.5 276.5v500h31v-500q0 -149 103.5 -252.5t250.5 -103.5q346 0 511 87.5t161 268.5l-31 1376l31 10l14 -1386q2 -201 -166 -296t-524 -95zM1264 1649h-13l138 372l20 -2zM1260 1655l-9 -6l-168 356l19 14z" />
    <glyph glyph-name="uni06BD" unicode="&#x6bd;" horiz-adv-x="1482" 
d="M205 483h31v-501q0 -149 103.5 -253t250.5 -104q347 0 512 87.5t160 269.5l-21 729l31 10l4 -739q1 -201 -167 -296.5t-523 -95.5q-157 0 -269 115.5t-112 276.5v501zM686 899v90l109 8v-98h-109zM772 676v-25l-330 -12v37h330zM711 649v27h309l20 -6v-13z" />
    <glyph glyph-name="uni06C2" unicode="&#x6c2;" horiz-adv-x="1155" 
d="M754 31q72 0 123 57t51 133q-21 81 -42 175.5t-31.5 139t-25.5 88.5t-34 70q-27 37 -72.5 61t-130.5 48l-53 14l-97 -84q-26 -23 -62.5 -54t-52 -44.5t-34.5 -31.5t-28.5 -29.5t-16.5 -22.5q-17 -30 -17 -90l-2 -240q0 -76 51 -133t123 -57h351zM418 0q-86 0 -149.5 66.5
t-63.5 154.5v240q0 74 20 108q8 13 18.5 25.5t32 32.5t37 33.5t55 48.5t64.5 57l72 61l-176 52v43q45 -15 136 -47.5t136 -47.5q98 -34 146 -58t75 -60q16 -22 28 -49.5t23.5 -74t20 -87.5t25.5 -126.5t32 -154.5q0 -86 -65.5 -151.5t-153.5 -65.5h-313zM391 1137l-8 14
l78 49q-29 3 -53 45l-52 82q-21 35 -24 53t6 47q4 15 13.5 44.5t13.5 44.5l79 47q33 18 64.5 10t56.5 -39l6 -8l-8 -6q-23 29 -54 36t-60 -10l-72 -43q-4 -13 -11.5 -39.5t-11.5 -40.5q-6 -26 -4 -41t19 -49l47 -84q20 -37 47 -38.5t74 30.5l176 115l12 -19z" />
    <glyph glyph-name="uni06C3" unicode="&#x6c3;" horiz-adv-x="1155" 
d="M754 31q72 0 123 57t51 133q-21 81 -42 175.5t-31.5 139t-25.5 88.5t-34 70q-27 37 -72.5 61t-130.5 48l-53 14l-97 -84q-26 -23 -62.5 -54t-52 -44.5t-34.5 -31.5t-28.5 -29.5t-16.5 -22.5q-17 -30 -17 -90l-2 -240q0 -76 51 -133t123 -57h351zM418 0q-86 0 -149.5 66.5
t-63.5 154.5v240q0 74 20 108q8 13 18.5 25.5t32 32.5t37 33.5t55 48.5t64.5 57l72 61l-176 52v43q45 -15 136 -47.5t136 -47.5q98 -34 146 -58t75 -60q16 -22 28 -49.5t23.5 -74t20 -87.5t25.5 -126.5t32 -154.5q0 -86 -65.5 -151.5t-153.5 -65.5h-313zM557 1133v-25
l-330 -12v37h330zM496 1106v27h309l20 -7v-12z" />
    <glyph glyph-name="uni06CA" unicode="&#x6ca;" horiz-adv-x="1216" 
d="M367 -522q304 43 469.5 153.5t162.5 268.5l-2 100h-579q-88 0 -150.5 65t-62.5 154v426l246 215h342q89 0 154 -61t65 -146v-753q0 -178 -173 -306.5t-458 -162.5l-129 -17l-12 49zM973 657q-3 73 -57 122.5t-125 49.5h-330l-223 -196l-19 -412q-3 -75 51 -132.5
t127 -57.5h602zM680 1307v-25l-330 -12v37h330zM618 1280v27h310l20 -7v-12z" />
    <glyph glyph-name="uni06CE" unicode="&#x6ce;" horiz-adv-x="1548" 
d="M205 477h31v-536q0 -146 103 -248.5t249 -102.5h54.5h63.5t62 0.5t68.5 3t65 5.5t69 8.5t62 12.5t64 17t56.5 23q155 75 176 229q4 36 4 56q0 33 -16.5 44t-65.5 11h-442q-87 0 -119.5 34t-32.5 124v417l246 216h221q83 0 148 -64.5t71 -153.5v-2l-14 -2q-2 69 -67 130
t-140 61h-209l-223 -197l-18 -403q-3 -71 28 -100t109 -29h442q92 0 92 -86q0 -24 -4 -60q-21 -171 -176 -252q-24 -12 -52.5 -22.5t-52.5 -18t-60 -13.5t-57.5 -9.5t-63 -6.5t-59 -4.5t-63 -2t-56.5 -0.5h-59h-52q-158 0 -270.5 114t-112.5 275v532zM248 657h-12l137 373
l20 -2zM244 664l-8 -7l-168 357l18 14z" />
    <glyph glyph-name="uni06CF" unicode="&#x6cf;" horiz-adv-x="1216" 
d="M367 -522q304 43 469.5 153.5t162.5 268.5l-2 100h-579q-88 0 -150.5 65t-62.5 154v426l246 215h342q89 0 154 -61t65 -146v-753q0 -178 -173 -306.5t-458 -162.5l-129 -17l-12 49zM973 657q-3 73 -57 122.5t-125 49.5h-330l-223 -196l-19 -412q-3 -75 51 -132.5
t127 -57.5h602zM594 1270v90l108 8v-98h-108z" />
    <glyph glyph-name="uni06D5" unicode="&#x6d5;" horiz-adv-x="1155" 
d="M754 31q72 0 123 57t51 133q-21 81 -42 175.5t-31.5 139t-25.5 88.5t-34 70q-27 37 -72.5 61t-130.5 48l-53 14l-97 -84q-26 -23 -62.5 -54t-52 -44.5t-34.5 -31.5t-28.5 -29.5t-16.5 -22.5q-17 -30 -17 -90l-2 -240q0 -76 51 -133t123 -57h351zM418 0q-86 0 -149.5 66.5
t-63.5 154.5v240q0 74 20 108q8 13 18.5 25.5t32 32.5t37 33.5t55 48.5t64.5 57l72 61l-176 52v43q45 -15 136 -47.5t136 -47.5q98 -34 146 -58t75 -60q16 -22 28 -49.5t23.5 -74t20 -87.5t25.5 -126.5t32 -154.5q0 -86 -65.5 -151.5t-153.5 -65.5h-313z" />
    <glyph glyph-name="uni06F0" unicode="&#x6f0;" horiz-adv-x="1048" 
d="M518 633q-132 0 -207 -87.5t-75 -221.5q0 -123 53 -218q98 -75 229 -75q152 0 223.5 71t71.5 222q0 135 -65 235q-89 74 -230 74zM518 664q153 0 239.5 -95.5t86.5 -244.5t-88.5 -236.5t-237.5 -87.5q-142 0 -227.5 86.5t-85.5 237.5q0 69 19 129.5t56.5 108t98.5 75
t139 27.5z" />
    <glyph glyph-name="uni06F1" unicode="&#x6f1;" horiz-adv-x="491" 
d="M258 375q-4 188 -36.5 406.5t-78.5 377.5l29 8q44 -139 71.5 -349.5t32.5 -440.5l11 -529l-17 -10z" />
    <glyph glyph-name="uni06F2" unicode="&#x6f2;" horiz-adv-x="1040" 
d="M483 498q-66 0 -126 36t-93 91q9 -129 12 -248l11 -529l-17 -10l-12 537q-4 192 -36.5 409.5t-78.5 374.5l29 8q58 -185 86 -475q13 -68 76 -116t137 -48h47q140 0 223 51t80 140l-14 440l29 8v-448q0 -103 -86.5 -162t-237.5 -59h-29z" />
    <glyph glyph-name="uni06F3" unicode="&#x6f3;" horiz-adv-x="1452" 
d="M1247 719q0 -112 -64 -166.5t-196 -54.5q-77 0 -145 50t-88 122q-43 -83 -114.5 -129.5t-156.5 -46.5q-69 0 -127 28.5t-90 79.5q6 -74 10 -225l11 -529l-17 -10l-12 537q-5 182 -35.5 401t-79.5 383l29 8q66 -204 90 -501q17 -69 78 -105.5t143 -36.5q84 0 147.5 40.5
t96.5 111.5q10 21 19 53.5t16.5 77t12.5 77.5t12 86.5t10 71.5h28q-3 -21 -10.5 -84t-12.5 -100.5t-15.5 -87t-22.5 -80.5q15 -68 76.5 -115t134.5 -47h16q124 0 184.5 48t57.5 143l-14 440l28 8v-448z" />
    <glyph glyph-name="uni06F4" unicode="&#x6f4;" horiz-adv-x="1224" 
d="M483 449q-157 -6 -211 57q4 -90 4 -129l11 -529l-17 -10l-12 537q-4 192 -36.5 409.5t-78.5 374.5l29 8q75 -238 96 -610q5 -20 18 -35t27.5 -24t39 -14.5t41.5 -8t45.5 -2.5t40 0.5t36.5 1.5q-2 18 -14 105.5t-22.5 163.5t-10.5 79q-15 148 51 243t170 95h361l-11 -26
l-350 12q-88 3 -147.5 -93.5t-46.5 -230.5q0 -4 20.5 -155t26.5 -191l538 37l-4 -37z" />
    <glyph glyph-name="uni06F5" unicode="&#x6f5;" horiz-adv-x="1423" 
d="M1217 61q0 -110 -64.5 -163.5t-196.5 -53.5q-81 0 -148 48t-89 120q-37 -76 -112.5 -122t-164.5 -46q-101 0 -169 60t-68 157q0 294 51.5 496t185.5 428q6 10 18.5 31t18.5 31l-125 45v45l500 -195q183 -71 268 -237q34 -67 55 -146t29 -176.5t9.5 -156t1.5 -165.5z
M1202 61q-1 91 -4.5 157t-13.5 155.5t-32.5 169t-57.5 145.5q-93 175 -265 232l-325 116q-6 -9 -32 -48.5t-38 -59.5q-119 -197 -163 -385t-44 -482q0 -94 59 -140t156 -46q87 0 154 36t100 103q16 32 19 68l28 194l27 -2q0 -2 -15.5 -95t-23.5 -132q8 -69 70.5 -120.5
t138.5 -51.5h18q247 0 244 186z" />
    <glyph glyph-name="uni06F6" unicode="&#x6f6;" horiz-adv-x="1185" 
d="M207 977q-64 -54 -33 -162t145 -227l62 -64q41 -42 107 -61.5t129 -14.5t104 31q133 176 348 338l14 -26q-187 -148 -300 -277.5t-191 -285t-148 -390.5l-12 6q103 379 268 609q-85 -40 -190.5 -21.5t-163.5 82.5l-49 53q-120 130 -146 242.5t48 179.5l299 273l14 -33z
" />
    <glyph glyph-name="uni06F7" unicode="&#x6f7;" horiz-adv-x="1306" 
d="M702 -164q-63 0 -91 15t-40 57q-17 60 -64 229t-81 282.5t-72 219.5q-108 301 -252 532l27 21q58 -96 111 -207.5t87.5 -197.5t78 -223t63 -206t63 -230t58.5 -216q7 -28 28.5 -37.5t69.5 -9.5h12q51 187 74 269.5t75 253.5t93 280t103.5 253.5t130.5 270.5l28 -21
q-44 -80 -86.5 -169.5t-73 -157t-69.5 -176.5t-57.5 -158.5t-57 -177.5t-48 -158.5t-51 -176t-46.5 -161.5h-13z" />
    <glyph glyph-name="uni06F8" unicode="&#x6f8;" horiz-adv-x="1306" 
d="M702 1192h13q5 -16 46.5 -161.5t51 -176t48 -158.5t57 -177.5t57.5 -158.5t69.5 -176.5t73 -157t86.5 -169.5l-28 -21q-68 126 -130.5 270.5t-103.5 253.5t-93 280t-75 253.5t-74 269.5h-12q-48 0 -69.5 -9.5t-28.5 -37.5q-15 -55 -58.5 -216t-63 -230t-63 -206t-78 -223
t-87.5 -197.5t-111 -207.5l-27 21q144 231 252 532q38 106 72 219.5t81 282.5t64 229q12 42 40 57t91 15z" />
    <glyph glyph-name="uni06F9" unicode="&#x6f9;" horiz-adv-x="1075" 
d="M901 -156q-21 92 -34 206.5t-16 177.5t-9 208q-208 -40 -434 -33q-87 3 -145 67.5t-58 154.5v354l203 182h231q90 0 153.5 -57t63.5 -143v-525q11 -276 76 -588zM219 625q-3 -75 47 -130.5t123 -58.5q98 -4 229.5 3t221.5 28l-15 494q-1 73 -58 121t-134 48h-215
l-189 -172z" />
    <glyph glyph-name="uni0762" unicode="&#x762;" horiz-adv-x="1898" 
d="M496 881v90l108 8v-98h-108zM397 0q-82 0 -137 55t-55 148v403l31 2v-405q0 -71 40.5 -121.5t106.5 -50.5h1077q94 0 156.5 52.5t62.5 131.5l-94 401l-690 373v27l752 293l28 -39l-733 -273l674 -360q13 -70 39 -211t39 -211q0 -92 -70.5 -153.5t-173.5 -61.5h-1053z" />
    <glyph glyph-name="uni2000" unicode="&#x2000;" horiz-adv-x="1382" 
 />
    <glyph glyph-name="uni2001" unicode="&#x2001;" horiz-adv-x="2764" 
 />
    <glyph glyph-name="uni2002" unicode="&#x2002;" horiz-adv-x="1382" 
 />
    <glyph glyph-name="uni2003" unicode="&#x2003;" horiz-adv-x="2764" 
 />
    <glyph glyph-name="uni2004" unicode="&#x2004;" horiz-adv-x="968" 
 />
    <glyph glyph-name="uni2005" unicode="&#x2005;" horiz-adv-x="692" 
 />
    <glyph glyph-name="uni2006" unicode="&#x2006;" horiz-adv-x="483" 
 />
    <glyph glyph-name="uni2007" unicode="&#x2007;" horiz-adv-x="2129" 
 />
    <glyph glyph-name="uni2008" unicode="&#x2008;" horiz-adv-x="692" 
 />
    <glyph glyph-name="uni2009" unicode="&#x2009;" horiz-adv-x="346" 
 />
    <glyph glyph-name="uni200A" unicode="&#x200a;" horiz-adv-x="346" 
 />
    <glyph glyph-name="uni200B" unicode="&#x200b;" 
 />
    </font>
</defs>
</svg>
