<?xml version="1.0" standalone="no"?>
<!DOCTYPE svg PUBLIC "-//W3C//DTD SVG 1.1//EN" "http://www.w3.org/Graphics/SVG/1.1/DTD/svg11.dtd" >
<svg xmlns="http://www.w3.org/2000/svg" xmlns:xlink="http://www.w3.org/1999/xlink" version="1.1">
<metadata>
Created by FontForge 20201107 at Wed Jan 29 12:58:36 2025
 By 
Copyright (c) 2024 by Hossein Heidari. All rights reserved. Contemporary Arabic-Latin typeface. Designed byHossein Heidari.
</metadata>
<defs>
<font id="Lahzeh-Light" horiz-adv-x="0" >
  <font-face 
    font-family="Lahzeh Light"
    font-weight="300"
    font-stretch="normal"
    units-per-em="2048"
    panose-1="0 0 0 0 0 0 0 0 0 0"
    ascent="1638"
    descent="-410"
    x-height="1057"
    cap-height="1438"
    bbox="-375 -1145 5282 2277"
    underline-thickness="102"
    underline-position="-214"
    unicode-range="U+0020-FFFC"
  />
<missing-glyph horiz-adv-x="1425" 
d="M1096 1313q-105 45 -385 45q-278 0 -383 -45v-1110q105 -45 383 -45q280 0 385 45v1110zM305 0l-135 135v1387h971l112 -115v-1407h-948z" />
    <glyph glyph-name="uni0622" unicode="&#x627;&#x653;" horiz-adv-x="489" 
d="M170 1188l141 14l8 -1190l-114 -12zM-123 1552q209 -34 373.5 -34t343.5 36l-2 -129q-176 -35 -322.5 -33.5t-347.5 40.5v-191h-78l-14 254z" />
    <glyph glyph-name="uni0623" unicode="&#x627;&#x654;" horiz-adv-x="489" 
d="M84 1276l-27 63l78 43q-25 3 -45 39l-47 84q-16 32 -20 60q0 27 12 57q3 8 12 36.5t16 47.5l101 49q39 19 75.5 8t61.5 -47l12 -24l-43 -21q-43 53 -94 27l-70 -39q-9 -29 -18 -64q-4 -20 -4 -30q0 -22 16 -54l37 -65q19 -32 41.5 -35t63.5 23l188 114l33 -61zM170 1188
l141 14l8 -1190l-114 -12z" />
    <glyph glyph-name="uni0625" unicode="&#x627;&#x655;" horiz-adv-x="493" 
d="M170 1389l143 14l11 -1393l-115 -12zM152 -643l-27 63l78 45q-24 3 -45 37l-47 86q-18 35 -21 58q0 24 12 59q4 11 14 39.5t15 42.5l100 49q39 19 76 8t62 -47l12 -22l-43 -23q-44 54 -94 27l-70 -39q-12 -39 -18 -64q-4 -16 -4 -30q0 -17 16 -54l37 -65q19 -33 41 -35.5
t63 23.5l189 114l32 -61z" />
    <glyph glyph-name="uni0626.isol" unicode="&#x64a;&#x654;" horiz-adv-x="1593" 
d="M170 543l135 6v-555q0 -129 87.5 -216t217.5 -87q139 0 211 2t170.5 15.5t165.5 41.5q136 59 160 178q2 7 2 49q0 28 -14 39t-54 11h-415q-102 0 -145.5 43t-43.5 147v451l260 227h252q96 0 172.5 -72.5t77.5 -169.5v-41l-102 -6q-3 61 -54.5 110.5t-113.5 49.5h-197
l-164 -143l-16 -363q-1 -59 25 -83.5t90 -24.5h407q139 0 139 -129q0 -33 -4 -95q-15 -194 -182 -288q-106 -60 -257 -80.5t-370 -20.5q-180 0 -310 127.5t-130 304.5v572zM231 729l-26 64l78 43q-26 3 -45 38l-48 84q-16 32 -20 60q0 27 12 57q1 3 11.5 33.5t17.5 50.5
l100 49q39 19 76 8t62 -47l12 -24l-43 -21q-43 53 -94 27l-70 -39q-10 -32 -18 -63q-5 -25 -5 -31q0 -19 17 -53l37 -66q19 -33 41 -35.5t63 23.5l189 114l32 -61z" />
    <glyph glyph-name="uni06C0" unicode="&#x647;&#x654;" horiz-adv-x="1177" 
d="M418 1288q105 0 156 12.5t71 61.5q2 6 2 29q0 30 -20 30h-150q-36 0 -51.5 16.5t-15.5 55.5v147l92 82h76q33 0 59 -22.5t29 -54.5l2 -25l-37 -2q0 22 -18.5 37.5t-43.5 15.5h-55l-57 -47l-6 -119q0 -20 9 -28.5t32 -8.5h145q27 0 39 -18t12 -43v-25q0 -87 -65.5 -118
t-204.5 -31v55zM750 156q53 0 92 49t39 112q-61 319 -109 390q-36 54 -164 96l-47 14l-100 -94q-20 -18 -47 -41.5t-41.5 -36.5t-30 -28t-24 -25.5t-13.5 -20.5q-14 -29 -14 -92l-2 -170q0 -64 42 -111t101 -46zM440 0q-114 0 -192 78.5t-78 193.5v224q0 83 20 120
q23 47 177 185l61 57l-156 47l31 133q245 -77 377 -129q83 -32 130 -62t75 -73q74 -110 121 -493q3 -110 -80.5 -195.5t-192.5 -85.5h-293z" />
    <glyph glyph-name="uniF100" unicode="&#xfe97;&#xfeee;&#xfee3;&#xfe8e;&#x646;" horiz-adv-x="5453" 
d="M3750 -403q271 53 391 132.5t117 194.5l-2 72h-506q-106 0 -174 70t-68 180v450l250 213h348q110 0 185 -71t75 -179v-507h639q63 0 112 41.5t46 97.5l-23 500l142 12v-545q0 -112 -76.5 -185t-191.5 -73h-648v-82q0 -186 -160.5 -309.5t-469.5 -177.5l-154 -27l-35 156z
M5200 1124l37 -18v-78l-639 -16v112h602zM1923 0q-117 0 -186 78.5t-74 206.5l-31 1097l142 17l8 -1098q2 -63 45 -106t104 -43h172q220 0 226 149l18 391q4 98 78 167t174 69h358l246 -215v-463q0 -100 -73.5 -175t-172.5 -75h-317q-84 0 -144 41t-110 137
q-29 -178 -275 -178h-188zM2445 317q44 -90 88 -127.5t103 -37.5h305q61 0 106 47t43 110l-14 355l-162 143h-284q-61 0 -106.5 -43.5t-51.5 -104.5zM170 559l135 4v-538q0 -133 88.5 -220.5t220.5 -87.5q318 0 470.5 75.5t148.5 232.5l-27 759l142 15l4 -799
q2 -220 -183 -328t-561 -108q-181 0 -309.5 128t-128.5 308v559zM666 580v159l182 9v-168h-182zM4233 647q-3 61 -47 101t-106 40h-283l-164 -143l-14 -350q-3 -68 41.5 -115t111.5 -47h482z" />
    <glyph glyph-name="uniF101" unicode="&#xfdfc;&#x61f;&#x61f;" horiz-adv-x="3131" 
d="M2818 711l143 12v-741q0 -99 -43.5 -182t-124 -145.5t-185 -107.5t-234.5 -75l-50 159q229 47 372.5 140t146.5 219zM170 485l135 4v-497q0 -134 90.5 -220.5t225.5 -86.5q271 0 398 75.5t122 233.5l-25 1159q-3 99 48 156.5t147 60.5l338 14l77 -59l9 -1024
q0 -63 43.5 -106t105.5 -43h381q62 0 110.5 41t45.5 98l-21 500l142 12v-545q0 -111 -76 -184.5t-193 -73.5h-399q-117 0 -185 78.5t-73 206.5l-27 968l-223 -12q-57 -3 -87 -35.5t-30 -83.5l11 -1155q1 -219 -160.5 -326.5t-491.5 -107.5q-184 0 -311 128t-127 316v508z
M2183 -295l35 -22v-76l-639 -15v113h604z" />
    <glyph glyph-name="uniF102" unicode="&#xf100;&#x61f;&#x61f;" horiz-adv-x="5445" 
d="M5194 1124l37 -18v-78l-637 -16v112h600zM170 516l135 4v-528q0 -131 89 -219t220 -88q316 0 465 75.5t144 233.5l-33 938q-4 106 51 170t152 67l338 13l77 -60l9 -821q0 -63 43.5 -106t105.5 -43h170q218 0 227 149l19 391q4 98 77.5 167t172.5 69h360l244 -215v-463
q0 -101 -72 -175.5t-172 -74.5h-319q-84 0 -142 40.5t-110 137.5q-17 -93 -84.5 -135.5t-190.5 -42.5h-190q-117 0 -185 78.5t-73 206.5l-27 749l-221 -10q-57 -2 -89.5 -34.5t-31.5 -86.5l12 -936q3 -217 -179.5 -324.5t-553.5 -107.5q-182 0 -310 126t-128 306v549z
M2480 317q45 -87 84.5 -126t106.5 -39h303q63 0 107.5 47t41.5 110l-14 355l-164 143h-281q-61 0 -105.5 -43.5t-49.5 -104.5zM649 543v159l182 9v-168h-182zM3742 -403q273 53 393 132.5t117 194.5l-2 72h-506q-106 0 -174 70t-68 180v450l250 213h346q111 0 186.5 -71
t75.5 -179l-2 -507h641q63 0 112 41.5t46 97.5l-25 500l144 12v-545q0 -112 -77 -185t-192 -73h-649v-82q0 -186 -160 -309.5t-469 -177.5l-153 -27l-35 156zM4225 647q-1 60 -46 100.5t-106 40.5h-282l-166 -143l-14 -350q-3 -68 42.5 -115t112.5 -47h482z" />
    <glyph glyph-name="uni06C0.fina" unicode="&#xfeea;&#x654;" horiz-adv-x="1308" arabic-form="final" 
d="M432 1317q112 0 161.5 12.5t63.5 59.5q5 20 5 28q0 31 -21 31h-152q-35 0 -51 17t-16 55v147l92 82h76q34 0 60.5 -23t29.5 -55l2 -22l-39 -4q0 22 -18 38.5t-43 16.5h-54l-57 -49l-6 -119q0 -20 9 -27.5t32 -7.5h145q27 0 39 -18.5t12 -44.5v-25q-1 -45 -18.5 -74.5
t-55 -45t-83 -21.5t-113.5 -6v55zM1239 0q-140 0 -209 55t-92 187q-2 -6 -7 -19.5t-7 -19.5q-46 -123 -187 -123h-309q-103 0 -179.5 78.5t-76.5 185.5q0 20 0.5 74t1 80t3.5 66t9 68t15 50q10 24 40.5 58t58.5 59t80 69.5t71 61.5l358 61l-16 103l131 20l90 -747
q17 -133 65 -174t185 -41h45q9 0 18.5 -24.5t9.5 -51.5t-9.5 -51.5t-18.5 -24.5h-70zM725 217q116 0 145 96q3 14 11.5 39t11.5 39l-66 467l-319 -49q-27 -25 -75 -64t-76.5 -66t-41.5 -52q-10 -20 -15 -56.5t-8 -105t-5 -94.5q-4 -60 45 -107t117 -47h276z" />
    <glyph glyph-name="uni0641064A" unicode="&#xfed3;&#xfbfd;" horiz-adv-x="2328" arabic-form="isolated" 
d="M1546 152q14 0 21.5 -24t7.5 -52q0 -19 -8 -47.5t-21 -28.5h-143q16 -16 16 -53q0 -14 -4 -60q-12 -144 -127 -239q-96 -79 -256.5 -107t-421.5 -28q-119 0 -220.5 58t-160.5 158t-59 218v569l135 6v-555q0 -130 87.5 -216.5t217.5 -86.5q238 0 370 16.5t218 73.5
q101 65 115 148q2 12 2 49q0 28 -13.5 38.5t-54.5 10.5h-590l25 152h864zM1190 0v152h702q65 0 108.5 42.5t43.5 104.5v72h-428q-106 0 -176 71.5t-70 178.5v385l246 215h293q106 0 178 -70t72 -174v-680q0 -134 -76 -215.5t-211 -81.5h-682zM2025 956q-3 61 -46.5 101.5
t-104.5 40.5h-215l-166 -144l-14 -288q-3 -67 43 -114.5t112 -47.5h414zM1702 1473v159l182 10v-169h-182z" />
    <glyph glyph-name="uni0642064A" unicode="&#xfed7;&#xfbfd;" horiz-adv-x="2328" arabic-form="isolated" 
d="M1546 152q14 0 21.5 -24t7.5 -52q0 -19 -8 -47.5t-21 -28.5h-143q16 -16 16 -53q0 -14 -4 -60q-12 -144 -127 -239q-96 -79 -256.5 -107t-421.5 -28q-119 0 -220.5 58t-160.5 158t-59 218v569l135 6v-555q0 -130 87.5 -216.5t217.5 -86.5q238 0 370 16.5t218 73.5
q101 65 115 148q2 12 2 49q0 28 -13.5 38.5t-54.5 10.5h-590l25 152h864zM1190 0v152h702q65 0 108.5 42.5t43.5 104.5v72h-428q-106 0 -176 71.5t-70 178.5v385l246 215h293q106 0 178 -70t72 -174v-680q0 -134 -76 -215.5t-211 -81.5h-682zM2025 956q-3 61 -46.5 101.5
t-104.5 40.5h-215l-166 -144l-14 -288q-3 -67 43 -114.5t112 -47.5h414zM1825 1585l190 -98l-538 -14v112h348zM1763 1481v104h312l36 -18v-78z" />
    <glyph glyph-name="uni0643064A" unicode="&#xfb90;&#xfbfd;" horiz-adv-x="2209" arabic-form="isolated" 
d="M1745 152q75 0 123.5 41t48.5 104l-78 334l-688 348l4 143l776 320l68 -133l-686 -256l639 -332q74 -345 86 -447q3 -113 -83 -193.5t-210 -80.5h-762v152h762zM1546 152q14 0 21.5 -24t7.5 -52q0 -19 -8 -47.5t-21 -28.5h-143q16 -16 16 -53q0 -14 -4 -60
q-12 -144 -127 -239q-96 -79 -256.5 -107t-421.5 -28q-119 0 -220.5 58t-160.5 158t-59 218v569l135 6v-555q0 -130 87.5 -216.5t217.5 -86.5q238 0 370 16.5t218 73.5q101 65 115 148q2 12 2 49q0 28 -13.5 38.5t-54.5 10.5h-590l25 152h864z" />
    <glyph glyph-name="uni0641064A.fina" unicode="&#xfed4;&#xfbfd;" horiz-adv-x="2523" arabic-form="final" 
d="M1546 152q14 0 21.5 -24t7.5 -52q0 -19 -8 -47.5t-21 -28.5h-143q16 -16 16 -53q0 -14 -4 -60q-12 -144 -127 -239q-96 -79 -256.5 -107t-421.5 -28q-119 0 -220.5 58t-160.5 158t-59 218v569l135 6v-555q0 -130 87.5 -216.5t217.5 -86.5q238 0 370 16.5t218 73.5
q101 65 115 148q2 12 2 49q0 28 -13.5 38.5t-54.5 10.5h-590l25 152h864zM1583 152q-54 34 -89.5 90t-35.5 108q0 203 23 291q10 40 29 75.5t58 78t58.5 60.5t77.5 69q13 12 20 18l293 -41q102 -14 178 -93.5t82 -178.5q12 -195 -17.5 -308.5t-102.5 -168.5h366
q10 0 18.5 -21.5t8.5 -58.5q0 -34 -8.5 -53t-18.5 -19h-600q-41 0 -74 10q-33 -10 -73 -10h-592v152h399zM1763 809q-69 -60 -110.5 -111t-57.5 -108q-19 -56 -22 -228q0 -46 41.5 -95.5t104.5 -82t122 -32.5h31q158 0 222 88.5t58 294.5q-6 222 -170 243zM1774 1192v160
l182 10v-170h-182z" />
    <glyph glyph-name="uni0642064A.fina" unicode="&#xfed8;&#xfbfd;" horiz-adv-x="2523" arabic-form="final" 
d="M1546 152q14 0 21.5 -24t7.5 -52q0 -19 -8 -47.5t-21 -28.5h-143q16 -16 16 -53q0 -14 -4 -60q-12 -144 -127 -239q-96 -79 -256.5 -107t-421.5 -28q-119 0 -220.5 58t-160.5 158t-59 218v569l135 6v-555q0 -130 87.5 -216.5t217.5 -86.5q238 0 370 16.5t218 73.5
q101 65 115 148q2 12 2 49q0 28 -13.5 38.5t-54.5 10.5h-590l25 152h864zM1583 152q-54 34 -89.5 90t-35.5 108q0 203 23 291q10 40 29 75.5t58 78t58.5 60.5t77.5 69q13 12 20 18l293 -41q102 -14 178 -93.5t82 -178.5q12 -195 -17.5 -308.5t-102.5 -168.5h366
q10 0 18.5 -21.5t8.5 -58.5q0 -34 -8.5 -53t-18.5 -19h-600q-41 0 -74 10q-33 -10 -73 -10h-592v152h399zM1763 809q-69 -60 -110.5 -111t-57.5 -108q-19 -56 -22 -228q0 -46 41.5 -95.5t104.5 -82t122 -32.5h31q158 0 222 88.5t58 294.5q-6 222 -170 243zM1896 1305
l191 -99l-539 -14v113h348zM1835 1200v105h311l37 -19v-78z" />
    <glyph glyph-name="uniFDF2" unicode="&#x627;&#xfedf;&#xfee0;&#xfc63;&#xfeea;" horiz-adv-x="2953" arabic-form="isolated" 
d="M1829 0q-81 0 -135 38t-74 109q-28 -69 -94 -108t-160 -39h-121q-148 0 -216 54t-93 188l-18 -43q-51 -119 -183 -119h-309q-104 0 -180 78.5t-76 185.5q0 16 0.5 62.5t1 67t2.5 59t5 61t8.5 48.5t13.5 44q12 25 43 58.5t58 57.5t78 68t69 60l358 61l-16 103l131 20
l12 -90l78 -657q17 -131 65 -173t180 -42h127q68 0 118.5 47t49.5 108l-24 852l141 15l10 -869q2 -71 42 -113t106 -42h205q74 0 122.5 43.5t47.5 111.5l-27 1081l143 17l11 -1098q1 -142 -75 -223.5t-208 -81.5h-217zM727 217q110 0 139 92l27 74l-68 475l-319 -49
q-18 -16 -56 -47t-60.5 -50.5t-45.5 -44t-31 -42.5q-7 -13 -12 -33.5t-7.5 -51t-4 -51t-2.5 -62.5t-2 -56q-3 -59 43.5 -106.5t107.5 -47.5h291zM1559 1987l55 10l-2 -285l-39 -6zM1780 1657l73 6v-186q0 -59 -38 -95t-101 -36q-51 0 -86.5 26.5t-38.5 67.5
q-4 -41 -42 -67.5t-89 -26.5q-60 0 -96.5 36t-36.5 95v163l70 -2l-17 -147q-3 -35 21.5 -58.5t62.5 -23.5q40 0 67 24t27 60v111l62 2v-115q2 -36 27.5 -59t64.5 -23t63 22.5t21 57.5zM2630 1391l143 14l10 -1393l-114 -12z" />
    <glyph glyph-name="uniFDFC" unicode="&#x631;&#xfbfe;&#xfe8e;&#x644;" horiz-adv-x="3295" arabic-form="isolated" 
d="M3125 -63q0 -190 -159.5 -319t-428.5 -193l-49 159q141 27 255.5 77.5t187 125t73.5 158.5l-24 766l145 12v-786zM2705 258q0 -110 -76.5 -184t-191.5 -74h-549q-117 0 -186 78.5t-74 206.5l-31 1097l142 17l10 -1098q0 -63 42.5 -106t104.5 -43h533q62 0 109.5 41.5
t46.5 97.5l-21 500l141 12v-545zM2337 -332v-78l-637 -14v113h604zM1331 -33q1 -212 -183 -322t-540 -110q-180 0 -309 127t-129 305v518l133 4v-497q0 -130 89 -218.5t220 -88.5q305 0 454 76.5t146 232.5l-34 1390l141 15z" />
    <glyph glyph-name="uni0622.fina" unicode="&#xfe8e;&#x653;" horiz-adv-x="595" arabic-form="final" 
d="M-133 1552q209 -34 373.5 -34t343.5 36l-2 -129q-176 -35 -322.5 -33.5t-347.5 40.5v-191h-78l-14 254zM461 0q-115 0 -185 77t-75 208l-31 915l141 14l8 -913q0 -63 43 -106t103 -43h135q25 0 25 -78q0 -74 -25 -74h-139z" />
    <glyph glyph-name="uni0623.fina" unicode="&#xfe8e;&#x654;" horiz-adv-x="595" arabic-form="final" 
d="M78 1296l-27 64l78 43q-25 3 -45 39l-47 84q-18 34 -21 59q0 25 13 57q3 8 12 36.5t16 47.5l101 50q39 19 75.5 8t61.5 -47l12 -25l-43 -20q-42 53 -94 26l-70 -39q-10 -32 -18 -63q-4 -20 -4 -31q0 -21 16 -53l37 -66q19 -32 41.5 -35t63.5 23l188 115l33 -62zM461 0
q-115 0 -185 77t-75 208l-31 915l141 14l8 -913q0 -63 43 -106t103 -43h135q25 0 25 -78q0 -74 -25 -74h-139z" />
    <glyph glyph-name="uni0625.fina" unicode="&#xfe8e;&#x655;" horiz-adv-x="600" arabic-form="final" 
d="M170 1382l143 17l9 -1098q0 -63 42.5 -106t102.5 -43h133q29 0 29 -78q0 -74 -29 -74h-137q-115 0 -185 77t-75 208zM203 -643l-27 63l78 45q-24 3 -45 37l-47 86q-18 35 -21 58q0 22 13 59q4 10 13 38t15 44l101 49q39 19 75.5 8t61.5 -47l12 -22l-43 -23q-44 54 -94 27
l-70 -39q-12 -39 -18 -64q-4 -16 -4 -30q0 -17 16 -54l37 -65q19 -33 41 -35.5t63 23.5l189 114l33 -61z" />
    <glyph glyph-name="uni0626.fina" unicode="&#xfef2;&#x654;" horiz-adv-x="1546" arabic-form="final" 
d="M1546 152q14 0 21.5 -24t7.5 -52q0 -19 -8 -47.5t-21 -28.5h-143q16 -16 16 -53q0 -14 -4 -60q-12 -144 -127 -239q-96 -79 -256.5 -107t-421.5 -28q-119 0 -220.5 58t-160.5 158t-59 218v569l135 6v-555q0 -130 87.5 -216.5t217.5 -86.5q238 0 370 16.5t218 73.5
q101 65 115 148q2 12 2 49q0 28 -13.5 38.5t-54.5 10.5h-590l25 152h864zM809 391l-27 64l78 43q-25 3 -45 39l-47 84q-17 32 -20 59q0 27 12 57q3 8 12 36.5t16 47.5l101 49q39 19 75.5 8t61.5 -47l12 -24l-43 -21q-43 53 -94 27l-70 -39q-10 -32 -18 -63q-4 -20 -4 -31
q0 -21 16 -53l37 -66q19 -32 41.5 -35t63.5 23l188 115l33 -62z" />
    <glyph glyph-name="uni06440622" unicode="&#xfedf;&#xfe82;" horiz-adv-x="1204" arabic-form="isolated" 
d="M0 1491q209 -34 373.5 -34t343.5 36l-2 -129q-175 -35 -322.5 -33.5t-347.5 39.5v-190h-78l-14 254zM741 152q68 3 117.5 47t48.5 102l-22 1081l143 15l4 -1098q0 -137 -75.5 -218t-202.5 -81h-576l-8 127zM254 1116l139 12l27 -890l-117 -11z" />
    <glyph glyph-name="uni06440622.fina" unicode="&#xfee0;&#xfe82;" horiz-adv-x="1290" arabic-form="final" 
d="M741 152q68 3 117.5 47t48.5 102l-22 1081l143 15l4 -1098q0 -137 -75.5 -218t-202.5 -81h-576l-8 127zM254 1116l139 12l27 -890l-117 -11zM1182 0q-110 0 -173 89.5t-65 242.5h86q3 -84 44 -132t112 -48h104q13 0 20 -30.5t7 -51.5q0 -23 -8 -46.5t-19 -23.5h-108z
M0 1491q209 -34 373.5 -34t343.5 36l-2 -129q-175 -35 -322.5 -33.5t-347.5 39.5v-190h-78l-14 254z" />
    <glyph glyph-name="uni06440623" unicode="&#xfedf;&#xfe84;" horiz-adv-x="1204" arabic-form="isolated" 
d="M741 152q68 3 117.5 47t48.5 102l-22 1081l143 15l4 -1098q0 -137 -75.5 -218t-202.5 -81h-576l-8 127zM254 1116l139 12l27 -890l-117 -11zM131 1243l-27 64l78 43q-25 3 -45 39l-47 84q-17 32 -20 59q0 27 12 57q1 3 11.5 33.5t17.5 50.5l100 49q39 19 75.5 8t61.5 -47
l12 -24l-43 -21q-43 53 -94 27l-69 -39q-15 -46 -19 -63q-4 -20 -4 -31q0 -21 16 -53l37 -66q19 -32 41.5 -35t63.5 23l188 115l33 -62z" />
    <glyph glyph-name="uni06440623.fina" unicode="&#xfee0;&#xfe84;" horiz-adv-x="1290" arabic-form="final" 
d="M741 152q68 3 117.5 47t48.5 102l-22 1081l143 15l4 -1098q0 -137 -75.5 -218t-202.5 -81h-576l-8 127zM254 1116l139 12l27 -890l-117 -11zM1182 0q-110 0 -173 89.5t-65 242.5h86q3 -84 44 -132t112 -48h104q13 0 20 -30.5t7 -51.5q0 -23 -8 -46.5t-19 -23.5h-108z
M131 1243l-27 64l78 43q-25 3 -45 39l-47 84q-17 32 -20 59q0 27 12 57q1 3 11.5 33.5t17.5 50.5l100 49q39 19 75.5 8t61.5 -47l12 -24l-43 -21q-43 53 -94 27l-69 -39q-15 -46 -19 -63q-4 -20 -4 -31q0 -21 16 -53l37 -66q19 -32 41.5 -35t63.5 23l188 115l33 -62z" />
    <glyph glyph-name="uni06440625" unicode="&#xfedf;&#xfe88;" horiz-adv-x="1204" arabic-form="isolated" 
d="M178 0l-8 125l571 27q68 3 117.5 47.5t48.5 101.5l-22 1081l143 15l4 -1098q0 -137 -75.5 -218t-202.5 -81h-576zM248 1374l145 15l27 -1153l-117 -9zM254 -670l-27 64l78 45q-24 3 -45 37l-47 86q-17 32 -20 57q0 25 12 59q4 10 13 38t15 44l101 50q39 19 75.5 8
t61.5 -47l12 -23l-43 -22q-19 24 -44 31.5t-50 -5.5l-70 -39q-13 -41 -18 -63q-4 -16 -4 -31q0 -16 16 -53l37 -66q19 -32 41.5 -35t63.5 23l188 115l33 -62z" />
    <glyph glyph-name="uni06440625.fina" unicode="&#xfee0;&#xfe88;" horiz-adv-x="1292" arabic-form="final" 
d="M1184 0q-110 0 -173 89.5t-65 242.5h86q3 -84 44 -132t112 -48h104q13 0 20 -30.5t7 -51.5q0 -23 -8 -46.5t-19 -23.5h-108zM178 0l-8 125l571 27q68 3 117.5 47.5t48.5 101.5l-22 1081l143 15l4 -1098q0 -137 -75.5 -218t-202.5 -81h-576zM248 1374l145 15l27 -1153
l-117 -9zM201 -678l-27 64l78 45q-24 3 -45 37l-47 86q-18 35 -21 57q0 22 13 59q4 10 13 38t15 44l101 49q39 19 75.5 8t61.5 -47l12 -22l-43 -23q-44 54 -94 27l-70 -39q-13 -41 -18 -63q-4 -16 -4 -31q0 -16 16 -53l37 -66q19 -33 41 -35.5t63 23.5l189 114l33 -61z" />
    <glyph glyph-name="uni06440627" unicode="&#xfedf;&#xfe8e;" horiz-adv-x="1204" arabic-form="isolated" 
d="M178 0l-8 125l571 27q68 3 117.5 47.5t48.5 101.5l-22 1081l143 15l4 -1098q0 -137 -75.5 -218t-202.5 -81h-576zM248 1374l145 15l27 -1153l-117 -9z" />
    <glyph glyph-name="uni06440627.fina" unicode="&#xfee0;&#xfe8e;" horiz-adv-x="1292" arabic-form="final" 
d="M1184 0q-110 0 -173 89.5t-65 242.5h86q3 -84 44 -132t112 -48h104q13 0 20 -30.5t7 -51.5q0 -23 -8 -46.5t-19 -23.5h-108zM178 0l-8 125l571 27q68 3 117.5 47.5t48.5 101.5l-22 1081l143 15l4 -1098q0 -137 -75.5 -218t-202.5 -81h-576zM248 1374l145 15l27 -1153
l-117 -9z" />
    <glyph glyph-name="aleffathatanar" unicode="&#x627;&#x64b;" horiz-adv-x="489" 
d="M434 1462l25 -65l-432 -101l-17 60zM428 1675l23 -61l-428 -107l-21 66zM170 1188l141 14l8 -1190l-114 -12z" />
    <glyph glyph-name="aleffathatanar.fina" unicode="&#xfe8e;&#x64b;" horiz-adv-x="595" 
d="M430 1462l25 -65l-432 -101l-17 60zM424 1675l22 -61l-428 -107l-20 66zM461 0q-115 0 -185 77t-75 208l-31 915l141 14l8 -913q0 -63 43 -106t103 -43h135q25 0 25 -78q0 -74 -25 -74h-139z" />
    <glyph glyph-name="rialsign1" unicode="&#xfdfc;&#x61f;&#x61f;&#x61f;" horiz-adv-x="2682" 
d="M2511 911q3 -372 -12 -647q-7 -170 -144.5 -289.5t-365.5 -156.5l-50 149q192 19 322 116.5t129 233.5q-2 175 -23 584zM170 631l133 4v-336q0 -140 58 -207t182 -67q229 0 320 66.5t85 227.5l-24 791q-3 99 48.5 157t147.5 62l256 10l68 -49l10 -739q0 -64 43.5 -107
t108.5 -43l209 -2q64 0 113 42.5t46 99.5l-16 420l141 12v-465q0 -110 -76 -184t-190 -74h-240q-115 0 -184.5 77t-75.5 208l-26 675l-133 -10q-58 -6 -87.5 -38t-29.5 -81l12 -772q3 -239 -119.5 -336.5t-427.5 -97.5q-173 0 -262.5 103.5t-89.5 300.5v352zM1812 51l33 -22
v-78l-559 -14v114h526z" />
    <glyph glyph-name="rialsign2" unicode="&#xfdfc;&#x61f;&#x61f;&#x61f;&#x61f;" horiz-adv-x="2387" 
d="M1583 -369q228 44 371.5 144t144.5 215l-24 721l143 12v-741q0 -178 -154.5 -312.5t-431.5 -197.5zM662 1151q-2 100 48.5 159.5t147.5 63.5l352 10l78 -59l8 -1024q0 -65 45 -107t109 -42h391l-20 -152h-383q-117 0 -186 78.5t-74 206.5l-27 968l-236 -12
q-118 -5 -118 -119l10 -1140q1 -180 -152 -312.5t-436 -197.5l-49 159q231 43 376 143.5t142 215.5z" />
    <glyph glyph-name="rialsign3" unicode="&#xfdfc;&#x61f;&#x61f;&#x61f;&#x61f;&#x61f;" horiz-adv-x="2009" 
d="M1264 -29q197 22 323 115.5t129 226.5l-20 588l143 10v-602q0 -199 -140.5 -320t-391.5 -167zM582 1110q-3 106 59.5 161.5t192.5 61.5l210 6l72 -49l8 -710q0 -72 45.5 -112.5t124.5 -39.5l209 2l-16 -151h-221q-114 0 -183.5 73.5t-74.5 196.5l-29 661l-150 -10
q-57 -6 -85.5 -38t-28.5 -81l10 -755q3 -196 -130.5 -328t-375.5 -172l-49 149q198 22 318.5 120t115.5 235z" />
    <glyph glyph-name="tomansign1" unicode="&#xf100;&#x61f;&#x61f;&#x61f;" horiz-adv-x="4337" 
d="M2812 881l217 182h242q109 3 185.5 -69.5t76.5 -180.5v-412h350q63 0 112 41.5t48 98.5l-17 403l142 12v-448q0 -110 -77 -184t-192 -74h-366l-2 -64q-4 -161 -148.5 -237t-457.5 -84l-107 -2l-14 143q294 -10 455 39.5t161 149.5v51l-362 -2q-110 0 -178 69.5t-68 182.5
v385zM2920 545q-3 -69 42.5 -116.5t111.5 -47.5h344l-18 414q-3 64 -47.5 105.5t-106.5 41.5h-178l-133 -113zM4084 1231l37 -21v-75l-517 -19v115h480zM170 645l133 4v-307q0 -135 56.5 -203.5t179.5 -68.5q256 0 365.5 68.5t103.5 226.5l-27 686q-3 101 51 157.5t154 61.5
l239 8l68 -49l10 -678q0 -64 43 -107t105 -43h39q208 0 217 144l22 299q9 99 79 167t169 68h252l213 -186v-393q0 -100 -73 -175t-171 -75h-203q-83 0 -134 39.5t-95 138.5q-22 -95 -87.5 -136.5t-197.5 -41.5h-39q-115 0 -184.5 77t-75.5 208l-26 614l-129 -12
q-55 -5 -83.5 -34.5t-27.5 -82.5l10 -668q5 -230 -133 -332t-454 -102q-172 0 -270.5 105.5t-98.5 293.5v328zM2028 561q35 -82 70 -121t93 -39h195q62 0 105 45.5t40 106.5l-12 291l-135 114h-176q-61 0 -105.5 -44.5t-50.5 -108.5zM510 686v160l182 8v-168h-182z" />
    <glyph glyph-name="tomansign2" unicode="&#xf100;&#x61f;&#x61f;&#x61f;&#x61f;" horiz-adv-x="1949" 
d="M1501 152q63 0 112 41t46 98l-23 500l142 12v-545q0 -110 -76.5 -184t-190.5 -74h-254l-8 -244h-104l-2 244h-342l-2 -244h-103l-10 244h-246q-117 0 -193.5 73.5t-76.5 184.5v545l143 -12l-22 -500q-3 -57 45 -98t110 -41h1055zM1264 391h-119l-6 424h139zM809 815
l-6 -424h-119l-10 424h135z" />
    <glyph glyph-name="lellah" unicode="&#xfedf;&#xfee0;&#xfc63;&#xfeea;" horiz-adv-x="2498" 
d="M1829 0q-81 0 -135 38t-74 109q-28 -69 -94 -108t-160 -39h-121q-148 0 -216 54t-93 188l-18 -43q-51 -119 -183 -119h-309q-104 0 -180 78.5t-76 185.5q0 16 0.5 62.5t1 67t2.5 59t5 61t8.5 48.5t13.5 44q12 25 43 58.5t58 57.5t78 68t69 60l358 61l-16 103l131 20
l12 -90l78 -657q17 -131 65 -173t180 -42h127q68 0 118.5 47t49.5 108l-24 852l141 15l10 -869q2 -71 42 -113t106 -42h205q74 0 122.5 43.5t47.5 111.5l-27 1081l143 17l11 -1098q1 -142 -75 -223.5t-208 -81.5h-217zM727 217q110 0 139 92l27 74l-68 475l-319 -49
q-18 -16 -56 -47t-60.5 -50.5t-45.5 -44t-31 -42.5q-7 -13 -12 -33.5t-7.5 -51t-4 -51t-2.5 -62.5t-2 -56q-3 -59 43.5 -106.5t107.5 -47.5h291zM1559 1987l55 10l-2 -285l-39 -6zM1780 1657l73 6v-186q0 -59 -38 -95t-101 -36q-51 0 -86.5 26.5t-38.5 67.5
q-4 -41 -42 -67.5t-89 -26.5q-60 0 -96.5 36t-36.5 95v163l70 -2l-17 -147q-3 -35 21.5 -58.5t62.5 -23.5q40 0 67 24t27 60v111l62 2v-115q2 -36 27.5 -59t64.5 -23t63 22.5t21 57.5z" />
    <glyph glyph-name="uni06A9064A.fina" unicode="&#xfb91;&#xfbfd;" horiz-adv-x="2369" 
d="M2367 0q-78 0 -138 19t-110 62t-89 94.5t-88 133.5l-5 -86q-3 -100 -82.5 -161.5t-199.5 -61.5h-674v152h698q76 0 130.5 47.5t54.5 115.5v105q-60 84 -103 117l-604 438l4 164l735 317l66 -133l-672 -262l541 -402q45 -33 88 -88.5t74 -109.5t71 -111.5t79 -100.5
t98 -71t129 -28q15 0 20.5 -13.5t5.5 -56.5q0 -29 -7.5 -54.5t-21.5 -25.5zM1546 152q14 0 21.5 -24t7.5 -52q0 -19 -8 -47.5t-21 -28.5h-143q16 -16 16 -53q0 -14 -4 -60q-12 -144 -127 -239q-96 -79 -256.5 -107t-421.5 -28q-119 0 -220.5 58t-160.5 158t-59 218v569
l135 6v-555q0 -130 87.5 -216.5t217.5 -86.5q238 0 370 16.5t218 73.5q101 65 115 148q2 12 2 49q0 28 -13.5 38.5t-54.5 10.5h-590l25 152h864z" />
    <glyph glyph-name="uni06AF064A" unicode="&#xfb94;&#xfbfd;" horiz-adv-x="2207" 
d="M1743 152q75 0 123.5 41t48.5 104l-78 334l-688 348l4 143l776 320l68 -133l-686 -256l639 -332q74 -345 86 -447q3 -113 -83 -193.5t-210 -80.5h-762v152h762zM1815 1567l-588 -234l-27 60l25 34l544 236zM1546 152q14 0 21.5 -24t7.5 -52q0 -19 -8 -47.5t-21 -28.5
h-143q16 -16 16 -53q0 -14 -4 -60q-12 -144 -127 -239q-96 -79 -256.5 -107t-421.5 -28q-119 0 -220.5 58t-160.5 158t-59 218v569l135 6v-555q0 -130 87.5 -216.5t217.5 -86.5q238 0 370 16.5t218 73.5q101 65 115 148q2 12 2 49q0 28 -13.5 38.5t-54.5 10.5h-590l25 152
h864z" />
    <glyph glyph-name="uni06AF064A.fina" unicode="&#xfb95;&#xfbfd;" horiz-adv-x="2367" 
d="M2365 0q-78 0 -138 19t-110.5 62t-89.5 94.5t-88 133.5l-4 -86q-3 -100 -82.5 -161.5t-199.5 -61.5h-674v152h698q76 0 130.5 47.5t54.5 115.5v105q-60 84 -103 117l-604 438l4 164l735 317l66 -133l-672 -262l541 -402q39 -29 76 -74t65.5 -91.5t59.5 -96.5t64 -93
t71.5 -78.5t89.5 -55.5t112 -20q16 0 21.5 -13.5t5.5 -56.5q0 -29 -7.5 -54.5t-21.5 -25.5zM1790 1579l-588 -233l-26 59l24 35l545 235zM1546 152q14 0 21.5 -24t7.5 -52q0 -19 -8 -47.5t-21 -28.5h-143q16 -16 16 -53q0 -14 -4 -60q-12 -144 -127 -239
q-96 -79 -256.5 -107t-421.5 -28q-119 0 -220.5 58t-160.5 158t-59 218v569l135 6v-555q0 -130 87.5 -216.5t217.5 -86.5q238 0 370 16.5t218 73.5q101 65 115 148q2 12 2 49q0 28 -13.5 38.5t-54.5 10.5h-590l25 152h864z" />
    <glyph glyph-name="Bitcoin" unicode="&#xfe91;&#xfbff;&#xfe98;&#xfb91;&#xfeee;&#xfbfe;&#xfee6;&#x61f;&#x61f;" horiz-adv-x="1323" 
d="M811 1438q188 0 277.5 -85.5t89.5 -267.5q0 -153 -59 -234t-193 -116v-2q138 -24 202 -109t64 -253q0 -193 -94.5 -282t-300.5 -89h-656v1438h670zM748 778q272 0 272 273q0 151 -60.5 211.5t-211.5 60.5h-451v-545h451zM752 113q153 0 216.5 64t63.5 218
q0 152 -64.5 217.5t-215.5 65.5h-455v-565h455zM707 1716h118v-291h-118v291zM375 1716h119v-291h-119v291zM707 14h118v-288h-118v288zM375 14h119v-288h-119v288z" />
    <glyph glyph-name="USDT" unicode="&#xfe97;&#xfe98;&#xfeae;&#x61f;&#x61f;" horiz-adv-x="1488" 
d="M662 1315h-457v123h1073v-123h-459v-572q-78 -10 -157 0v572zM115 760q0 47 54 85.5t142 62.5t201 36.5t230.5 13t230.5 -12.5t201 -36.5t142 -62t54 -86.5q0 -55 -69 -97.5t-180 -65t-245 -32.5t-267.5 0.5t-244.5 32.5t-180 65t-69 97zM276 760q0 -46 145.5 -72
t320.5 -26.5t320.5 26t145.5 72.5t-145.5 72t-320.5 26t-320.5 -26t-145.5 -72zM662 618q78 -10 157 0v-618h-157v618z" />
    <glyph glyph-name="uni062A0627" unicode="&#xfe97;&#xfe8e;" horiz-adv-x="1441" 
d="M588 0v152h407q64 0 112.5 41.5t45.5 99.5l-23 498l142 12v-545q0 -111 -75.5 -184.5t-190.5 -73.5h-418zM170 1382l143 17l9 -1098q0 -63 42.5 -106t102.5 -43h133q29 0 29 -78q0 -74 -29 -74h-137q-115 0 -185 77t-75 208zM1028 1188l191 -98l-539 -15v113h348z
M967 1083v105h311l37 -19v-77z" />
    <glyph glyph-name="uni062A0627.fina" unicode="&#xfe98;&#xfe8e;" horiz-adv-x="1480" 
d="M1372 0q-68 0 -125.5 41.5t-77.5 105.5q-23 -63 -85 -105t-134 -42h-366v152h364q65 0 108.5 42.5t43.5 104.5v426l129 6v-432q0 -62 41.5 -104.5t105.5 -42.5h107q10 0 16.5 -18t8 -33.5t1.5 -28.5q0 -25 -7.5 -48.5t-18.5 -23.5h-111zM170 1382l143 17l9 -1098
q0 -63 42.5 -106t102.5 -43h133q29 0 29 -78q0 -74 -29 -74h-137q-115 0 -185 77t-75 208zM1044 1100l191 -99l-539 -14v113h348zM983 995v105h311l37 -19v-77z" />
    <glyph glyph-name="uni062B0627" unicode="&#xfe9b;&#xfe8e;" horiz-adv-x="1441" 
d="M588 0v152h407q64 0 112.5 41.5t45.5 99.5l-23 498l142 12v-545q0 -111 -75.5 -184.5t-190.5 -73.5h-418zM170 1382l143 17l9 -1098q0 -63 42.5 -106t102.5 -43h133q29 0 29 -78q0 -74 -29 -74h-137q-115 0 -185 77t-75 208zM915 1370v146l164 8v-154h-164zM1028 1188
l191 -98l-539 -15v113h348zM967 1083v105h311l37 -19v-77z" />
    <glyph glyph-name="uni062B0627.fina" unicode="&#xfe9c;&#xfe8e;" horiz-adv-x="1480" 
d="M1372 0q-68 0 -125.5 41.5t-77.5 105.5q-23 -63 -85 -105t-134 -42h-366v152h364q65 0 108.5 42.5t43.5 104.5v426l129 6v-432q0 -62 41.5 -104.5t105.5 -42.5h107q10 0 16.5 -18t8 -33.5t1.5 -28.5q0 -25 -7.5 -48.5t-18.5 -23.5h-111zM170 1382l143 17l9 -1098
q0 -63 42.5 -106t102.5 -43h133q29 0 29 -78q0 -74 -29 -74h-137q-115 0 -185 77t-75 208zM932 1282v145l164 9v-154h-164zM1044 1100l191 -99l-539 -14v113h348zM983 995v105h311l37 -19v-77z" />
    <glyph glyph-name="uni0621" unicode="&#x621;" horiz-adv-x="1058" arabic-form="isolated" 
d="M293 -31l-51 92l123 76q-36 5 -72 62l-84 135q-26 40 -33 66t-2 59q3 26 12 60.5t23 78.5t18 59l156 91q62 35 127 19t100 -73l21 -35l-62 -38q-32 41 -75.5 52.5t-81.5 -11.5l-111 -66l-33 -135q-9 -39 27 -107l61 -108q32 -56 73.5 -57.5t98.5 40.5l299 197l60 -88z
" />
    <glyph glyph-name="uni0624" unicode="&#x624;" horiz-adv-x="1200" arabic-form="isolated" 
d="M412 -403q272 53 391.5 132.5t116.5 194.5l-2 72h-506q-106 0 -174 70t-68 180v450l250 213h348q110 0 186 -71t76 -179l-2 -741q0 -186 -160 -309.5t-469 -177.5l-153 -27l-37 156zM895 647q-3 61 -47 101t-105 40h-284l-164 -143l-14 -350q-1 -68 42.5 -108t112.5 -40
h479zM479 1249l-26 64l77 43q-25 3 -45 39l-47 84q-17 32 -20 59q0 27 12 57q1 3 11.5 33.5t17.5 50.5l100 50q39 19 75.5 8t61.5 -47l13 -25l-43 -20q-43 53 -95 26l-69 -39q-15 -46 -19 -63q-4 -20 -4 -31q0 -19 17 -53l36 -66q19 -32 41.5 -35t63.5 23l188 115l33 -62z
" />
    <glyph glyph-name="uni0627" unicode="&#x627;" horiz-adv-x="493" arabic-form="isolated" 
d="M170 1389l143 14l11 -1393l-115 -12z" />
    <glyph glyph-name="uni0628" unicode="&#x628;" horiz-adv-x="1945" arabic-form="isolated" 
d="M424 0q-109 0 -181.5 76.5t-72.5 187.5v443l135 6v-422q0 -61 33 -100t86 -39h1073q64 0 112.5 41.5t45.5 99.5l-23 498l142 12v-545q0 -110 -77 -184t-190 -74h-1083zM907 -498v160l180 10v-170h-180z" />
    <glyph glyph-name="uni0629" unicode="&#x629;" horiz-adv-x="1177" arabic-form="isolated" 
d="M750 156q53 0 92 49t39 112q-61 319 -109 390q-36 54 -164 96l-47 14l-100 -94q-20 -18 -47 -41.5t-41.5 -36.5t-30 -28t-24 -25.5t-13.5 -20.5q-14 -29 -14 -92l-2 -170q0 -64 42 -111t101 -46zM440 0q-114 0 -192 78.5t-78 193.5v224q0 83 20 120q23 47 177 185l61 57
l-156 47l31 133q245 -77 377 -129q83 -32 130 -62t75 -73q74 -110 121 -493q3 -110 -80.5 -195.5t-192.5 -85.5h-293zM557 1346l191 -99l-539 -14v113h348zM496 1241v105h311l37 -19v-78z" />
    <glyph glyph-name="uni062A" unicode="&#x62a;" horiz-adv-x="1945" arabic-form="isolated" 
d="M424 0q-109 0 -181.5 76.5t-72.5 187.5v443l135 6v-422q0 -61 33 -100t86 -39h1073q64 0 112.5 41.5t45.5 99.5l-23 498l142 12v-545q0 -110 -77 -184t-190 -74h-1083zM1020 985l190 -98l-538 -15v113h348zM958 881v104h312l37 -18v-78z" />
    <glyph glyph-name="uni062B" unicode="&#x62b;" horiz-adv-x="1945" arabic-form="isolated" 
d="M424 0q-109 0 -181.5 76.5t-72.5 187.5v443l135 6v-422q0 -61 33 -100t86 -39h1073q64 0 112.5 41.5t45.5 99.5l-23 498l142 12v-545q0 -110 -77 -184t-190 -74h-1083zM907 1167v146l164 8v-154h-164zM1020 985l190 -98l-538 -15v113h348zM958 881v104h312l37 -18v-78z
" />
    <glyph glyph-name="uni062C" unicode="&#x62c;" horiz-adv-x="1554" arabic-form="isolated" 
d="M770 -160v135l154 9v-144h-154zM559 -588q-165 0 -274.5 97.5t-110.5 246.5l-2 146q-3 187 60 275t241 145l596 190l-485 262q-38 21 -78 21q-44 1 -81 -21t-56 -61l-66 -133l-110 49l73 155q34 69 99 108.5t145 39.5q67 0 137 -37l737 -389l-43 -131l-108 57l-696 -229
q-141 -46 -189.5 -108t-48.5 -197l-2 -125q-1 -92 69 -159t164 -65l707 21l-23 -158h-655z" />
    <glyph glyph-name="uni062D" unicode="&#x62d;" horiz-adv-x="1554" arabic-form="isolated" 
d="M559 -588q-165 0 -274.5 97.5t-110.5 246.5l-2 146q-3 187 60 275t241 145l596 190l-485 262q-38 21 -78 21q-44 1 -81 -21t-56 -61l-66 -133l-110 49l73 155q34 69 99 108.5t145 39.5q67 0 137 -37l737 -389l-43 -131l-108 57l-696 -229q-141 -46 -189.5 -108
t-48.5 -197l-2 -125q-1 -92 69 -159t164 -65l707 21l-23 -158h-655z" />
    <glyph glyph-name="uni062E" unicode="&#x62e;" horiz-adv-x="1554" arabic-form="isolated" 
d="M559 -588q-165 0 -274.5 97.5t-110.5 246.5l-2 146q-3 187 60 275t241 145l596 190l-485 262q-38 21 -78 21q-44 1 -81 -21t-56 -61l-66 -133l-110 49l73 155q34 69 99 108.5t145 39.5q67 0 137 -37l737 -389l-43 -131l-108 57l-696 -229q-141 -46 -189.5 -108
t-48.5 -197l-2 -125q-1 -92 69 -159t164 -65l707 21l-23 -158h-655zM414 1206v160l182 10v-170h-182z" />
    <glyph glyph-name="uni062F" unicode="&#x62f;" horiz-adv-x="1257" arabic-form="isolated" 
d="M432 0q-116 0 -188.5 72.5t-71.5 189.5l2 117l121 8v-94q0 -65 32 -103t89 -38h409q58 0 99 42.5t41 102.5l-107 432l-477 172l31 125l565 -209l108 -541q0 -111 -78 -193.5t-184 -82.5h-391z" />
    <glyph glyph-name="uni0630" unicode="&#x630;" horiz-adv-x="1257" arabic-form="isolated" 
d="M432 0q-116 0 -188.5 72.5t-71.5 189.5l2 117l121 8v-94q0 -65 32 -103t89 -38h409q58 0 99 42.5t41 102.5l-107 432l-477 172l31 125l565 -209l108 -541q0 -111 -78 -193.5t-184 -82.5h-391zM412 1296v160l182 10v-170h-182z" />
    <glyph glyph-name="uni0631" unicode="&#x631;" horiz-adv-x="659" arabic-form="isolated" 
d="M344 711l143 12v-786q0 -182 -152 -315t-433 -197l-52 159q228 43 373 143t148 216z" />
    <glyph glyph-name="uni0632" unicode="&#x632;" horiz-adv-x="659" arabic-form="isolated" 
d="M344 711l143 12v-786q0 -182 -152 -315t-433 -197l-52 159q228 43 373 143t148 216zM324 1028v160l182 10v-170h-182z" />
    <glyph glyph-name="uni0633" unicode="&#x633;" horiz-adv-x="2809" arabic-form="isolated" 
d="M608 -436q-181 0 -309.5 128t-128.5 308v559l135 4v-538q0 -130 88 -219t215 -89q90 0 166 6t149 19.5t129 37t98 57t63.5 81t19.5 107.5l-27 759l142 15l2 -506q8 -60 75.5 -100.5t161.5 -40.5q95 0 171.5 43.5t99.5 111.5l71 416l131 2l-71 -420q1 -64 58.5 -108.5
t125.5 -44.5h92q51 0 94.5 7.5t82 24.5t59.5 49t20 76l-22 482l141 12v-512q0 -142 -99 -216.5t-262 -74.5h-86q-98 0 -171 45.5t-97 118.5q-43 -73 -136 -118.5t-202 -45.5q-74 0 -141 37t-94 90v-137q1 -116 -54.5 -200.5t-158.5 -132.5t-234 -70.5t-297 -22.5z" />
    <glyph glyph-name="uni0634" unicode="&#x634;" horiz-adv-x="2809" arabic-form="isolated" 
d="M608 -436q-181 0 -309.5 128t-128.5 308v559l135 4v-538q0 -130 88 -219t215 -89q90 0 166 6t149 19.5t129 37t98 57t63.5 81t19.5 107.5l-27 759l142 15l2 -506q8 -60 75.5 -100.5t161.5 -40.5q95 0 171.5 43.5t99.5 111.5l71 416l131 2l-71 -420q1 -64 58.5 -108.5
t125.5 -44.5h92q51 0 94.5 7.5t82 24.5t59.5 49t20 76l-22 482l141 12v-512q0 -142 -99 -216.5t-262 -74.5h-86q-98 0 -171 45.5t-97 118.5q-43 -73 -136 -118.5t-202 -45.5q-74 0 -141 37t-94 90v-137q1 -116 -54.5 -200.5t-158.5 -132.5t-234 -70.5t-297 -22.5zM1917 1348
v145l164 8v-153h-164zM2030 1165l190 -98l-539 -14v112h349zM1968 1061v104h311l37 -18v-78z" />
    <glyph glyph-name="uni0635" unicode="&#x635;" horiz-adv-x="2662" arabic-form="isolated" 
d="M608 -436q-178 0 -308 128t-130 308v559l135 4v-538q0 -133 88.5 -220.5t220.5 -87.5q317 0 471 76.5t148 231.5l-27 759l142 15l2 -465q19 -34 32 -55l242 366q79 121 157 167.5t218 57.5q108 9 250 9l241 -215v-406q0 -107 -74.5 -182.5t-181.5 -75.5h-663
q-59 0 -118 33t-101 88v-121q3 -436 -744 -436zM1473 207q61 -55 131 -55h622q62 0 108.5 47.5t43.5 107.5l-13 297l-157 146q-95 0 -174 -5q-126 -9 -197 -50t-141 -146z" />
    <glyph glyph-name="uni0636" unicode="&#x636;" horiz-adv-x="2662" arabic-form="isolated" 
d="M608 -436q-178 0 -308 128t-130 308v559l135 4v-538q0 -133 88.5 -220.5t220.5 -87.5q317 0 471 76.5t148 231.5l-27 759l142 15l2 -465q19 -34 32 -55l242 366q79 121 157 167.5t218 57.5q108 9 250 9l241 -215v-406q0 -107 -74.5 -182.5t-181.5 -75.5h-663
q-59 0 -118 33t-101 88v-121q3 -436 -744 -436zM1473 207q61 -55 131 -55h622q62 0 108.5 47.5t43.5 107.5l-13 297l-157 146q-95 0 -174 -5q-126 -9 -197 -50t-141 -146zM1985 1145v160l182 10v-170h-182z" />
    <glyph glyph-name="uni0637" unicode="&#x637;" horiz-adv-x="1660" arabic-form="isolated" 
d="M193 0l-23 172l158 -2l100 156l-29 1063l142 12l8 -813l-17 -135l146 215q72 109 154 152t239 52q75 7 180 7l240 -215v-402q0 -108 -78.5 -185t-187.5 -77h-1032zM1227 152q61 -1 107 46.5t44 108.5l-12 299l-158 144q-90 0 -164 -5q-128 -9 -198 -50.5t-141 -149.5
l-248 -375z" />
    <glyph glyph-name="uni0638" unicode="&#x638;" horiz-adv-x="1660" arabic-form="isolated" 
d="M193 0l-23 172l158 -2l100 156l-29 1063l142 12l8 -813l-17 -135l146 215q72 109 154 152t239 52q75 7 180 7l240 -215v-402q0 -108 -78.5 -185t-187.5 -77h-1032zM1227 152q61 -1 107 46.5t44 108.5l-12 299l-158 144q-90 0 -164 -5q-128 -9 -198 -50.5t-141 -149.5
l-248 -375zM993 1145v160l183 10v-170h-183z" />
    <glyph glyph-name="uni0639.isol" unicode="&#x639;" horiz-adv-x="1294" arabic-form="isolated" 
d="M485 -592q-137 0 -226 82t-89 209v78q1 120 16 187t50.5 104.5t103.5 58.5q-35 23 -58 77t-24 118v127q0 109 5 158.5t24 88.5q9 17 24.5 37.5t29.5 36t41 41.5t40.5 38t48.5 43t45 40h266q106 0 180 -71.5t74 -172.5v-41l-106 -10q0 70 -49 118t-117 48h-189
q-9 -8 -41.5 -37.5t-43.5 -40.5l-32.5 -32.5t-32.5 -38t-19 -33.5q-4 -9 -7 -20t-4.5 -19t-2.5 -26l-1.5 -27t-1.5 -36t-2 -40l-2 -127q-3 -84 44 -124t138 -28l533 76l24 -135l-594 -90q-47 -7 -79.5 -17t-57 -21.5t-40 -32.5t-24.5 -40t-13.5 -56.5t-5.5 -69.5t-1 -89
q0 -71 47.5 -115t120.5 -41l635 23l-29 -158h-598z" />
    <glyph glyph-name="uni063A" unicode="&#x63a;" horiz-adv-x="1294" arabic-form="isolated" 
d="M485 -592q-137 0 -226 82t-89 209v78q1 120 16 187t50.5 104.5t103.5 58.5q-35 23 -58 77t-24 118v127q0 109 5 158.5t24 88.5q9 17 24.5 37.5t29.5 36t41 41.5t40.5 38t48.5 43t45 40h266q106 0 180 -71.5t74 -172.5v-41l-106 -10q0 70 -49 118t-117 48h-189
q-9 -8 -41.5 -37.5t-43.5 -40.5l-32.5 -32.5t-32.5 -38t-19 -33.5q-4 -9 -7 -20t-4.5 -19t-2.5 -26l-1.5 -27t-1.5 -36t-2 -40l-2 -127q-3 -84 44 -124t138 -28l533 76l24 -135l-594 -90q-47 -7 -79.5 -17t-57 -21.5t-40 -32.5t-24.5 -40t-13.5 -56.5t-5.5 -69.5t-1 -89
q0 -71 47.5 -115t120.5 -41l635 23l-29 -158h-598zM584 1198v160l182 10v-170h-182z" />
    <glyph glyph-name="uni0641" unicode="&#x641;" horiz-adv-x="1959" arabic-form="isolated" 
d="M424 0q-110 0 -182 74.5t-72 185.5v447l135 6v-422q0 -61 32 -100t87 -39h625v-152h-625zM821 0v152h703q65 0 108 42.5t43 104.5v72h-428q-106 0 -176 71.5t-70 178.5v385l246 215h293q106 0 178 -70t72 -174v-680q0 -134 -76 -215.5t-211 -81.5h-682zM1657 956
q-3 61 -47 101.5t-105 40.5h-215l-166 -144l-14 -288q-3 -67 43.5 -114.5t112.5 -47.5h413zM1315 1473v159l182 10v-169h-182z" />
    <glyph glyph-name="uni0642" unicode="&#x642;" horiz-adv-x="1589" arabic-form="isolated" 
d="M610 -518q-189 0 -314.5 123.5t-125.5 310.5v569l135 7v-555q0 -132 85 -218t216 -86q619 0 701 203q8 31 8 105v28h-447q-109 0 -179.5 69.5t-70.5 176.5v397l244 215h305q108 0 180 -69t72 -174v-668q0 -102 -39 -178t-107.5 -124.5t-172.5 -78.5t-221.5 -41.5
t-268.5 -11.5zM1286 555q-3 65 -48.5 108.5t-113.5 43.5h-217l-166 -146l-14 -299q-4 -67 33 -104t108 -37h441zM1061 1192l190 -98l-538 -15v113h348zM999 1087v105h312l37 -18v-78z" />
    <glyph glyph-name="uni0643" unicode="&#x643;" horiz-adv-x="1953" arabic-form="isolated" 
d="M424 0q-112 0 -183 71.5t-71 188.5v447l135 6v-422q0 -61 32 -100t87 -39h1055q77 0 128 42t50 105l-27 1094l142 14l10 -1108q0 -132 -76.5 -215.5t-210.5 -83.5h-1071zM1069 647q21 1 35 14t14 31q0 31 -33 51l-272 148l2 63l318 136l36 -66l-278 -104l250 -136
q41 -44 41 -94q0 -41 -34 -73.5t-83 -38.5l-274 -29v69z" />
    <glyph glyph-name="uni0644" unicode="&#x644;" horiz-adv-x="1503" arabic-form="isolated" 
d="M616 -465q-194 0 -320 124.5t-126 317.5v508l135 4v-497q0 -130 88.5 -218.5t218.5 -88.5q305 0 454 76.5t146 230.5l-34 1392l141 15l12 -1432q1 -217 -177.5 -324.5t-537.5 -107.5z" />
    <glyph glyph-name="uni0645" unicode="&#x645;" horiz-adv-x="1396" arabic-form="isolated" 
d="M1225 250q0 -112 -72 -185.5t-172 -64.5l-528 51q-74 8 -120 -34.5t-42 -114.5l20 -510l-141 -23l4 561q1 107 65.5 174t168.5 72h26q-65 47 -80 146l17 370q8 99 80 167.5t170 68.5h360l244 -215v-463zM469 319q41 -130 176 -139l318 -28q61 -6 107.5 43t43.5 114
l-14 353l-164 145h-283q-60 0 -106 -44t-49 -104z" />
    <glyph glyph-name="uni0646" unicode="&#x646;" horiz-adv-x="1523" arabic-form="isolated" 
d="M170 559l135 4v-538q0 -133 88.5 -220.5t220.5 -87.5q303 0 463 78t156 225l-27 764l142 15l4 -799q1 -217 -186 -326.5t-558 -109.5q-118 0 -218.5 57.5t-160 158t-59.5 220.5v559zM649 721v160l182 10v-170h-182z" />
    <glyph glyph-name="uni0647.isol" unicode="&#x647;" horiz-adv-x="1177" arabic-form="isolated" 
d="M750 156q53 0 92 49t39 112q-61 319 -109 390q-36 54 -164 96l-47 14l-100 -94q-20 -18 -47 -41.5t-41.5 -36.5t-30 -28t-24 -25.5t-13.5 -20.5q-14 -29 -14 -92l-2 -170q0 -64 42 -111t101 -46zM440 0q-114 0 -192 78.5t-78 193.5v224q0 83 20 120q23 47 177 185l61 57
l-156 47l31 133q245 -77 377 -129q83 -32 130 -62t75 -73q74 -110 121 -493q3 -110 -80.5 -195.5t-192.5 -85.5h-293z" />
    <glyph glyph-name="uni0648" unicode="&#x648;" horiz-adv-x="1200" arabic-form="isolated" 
d="M412 -403q272 53 391.5 132.5t116.5 194.5l-2 72h-506q-106 0 -174 70t-68 180v450l250 213h348q110 0 186 -71t76 -179l-2 -741q0 -186 -160 -309.5t-469 -177.5l-153 -27l-37 156zM895 647q-3 61 -47 101t-105 40h-284l-164 -143l-14 -350q-1 -68 42.5 -108t112.5 -40
h479z" />
    <glyph glyph-name="uni0649" unicode="&#x649;" horiz-adv-x="1593" arabic-form="isolated" 
d="M170 543l135 6v-555q0 -129 87.5 -216t217.5 -87q139 0 211 2t170.5 15.5t165.5 41.5q136 59 160 178q2 7 2 49q0 28 -14 39t-54 11h-415q-102 0 -145.5 43t-43.5 147v451l260 227h252q96 0 172.5 -72.5t77.5 -169.5v-41l-102 -6q-3 61 -54.5 110.5t-113.5 49.5h-197
l-164 -143l-16 -363q-1 -59 25 -83.5t90 -24.5h407q139 0 139 -129q0 -33 -4 -95q-15 -194 -182 -288q-106 -60 -257 -80.5t-370 -20.5q-180 0 -310 127.5t-130 304.5v572z" />
    <glyph glyph-name="uni064A.isol" unicode="&#x64a;" horiz-adv-x="1593" arabic-form="isolated" 
d="M170 543l135 6v-555q0 -129 87.5 -216t217.5 -87q139 0 211 2t170.5 15.5t165.5 41.5q136 59 160 178q2 7 2 49q0 28 -14 39t-54 11h-415q-102 0 -145.5 43t-43.5 147v451l260 227h252q96 0 172.5 -72.5t77.5 -169.5v-41l-102 -6q-3 61 -54.5 110.5t-113.5 49.5h-197
l-164 -143l-16 -363q-1 -59 25 -83.5t90 -24.5h407q139 0 139 -129q0 -33 -4 -95q-15 -194 -182 -288q-106 -60 -257 -80.5t-370 -20.5q-180 0 -310 127.5t-130 304.5v572zM733 -766l-190 98l538 15v-113h-348zM795 -662v-104h-312l-37 21v75z" />
    <glyph glyph-name="uni066E.fina" unicode="&#x66e;" horiz-adv-x="2031" 
d="M424 0q-109 0 -181.5 76.5t-72.5 187.5v443l135 6v-422q0 -61 33 -100t86 -39h1073q64 0 112.5 41.5t45.5 99.5l-23 498l142 12v-545q0 -110 -77 -184t-190 -74h-1083zM1923 0q-110 0 -172.5 89.5t-64.5 242.5h86q3 -84 43.5 -132t111.5 -48h105q13 0 19.5 -30t6.5 -52
q0 -23 -7.5 -46.5t-18.5 -23.5h-109z" />
    <glyph glyph-name="uni066F.fina" unicode="&#x66f;" horiz-adv-x="1566" 
d="M1309 0v152h260q10 0 18 -23t8 -53q0 -28 -8 -52t-18 -24h-260zM610 -487q-189 0 -314.5 123.5t-125.5 310.5v569l135 6v-555q0 -132 85 -217.5t216 -85.5q619 0 701 203q8 31 8 104v29h-447q-109 0 -179.5 69.5t-70.5 176.5v397l244 215h305q108 0 180 -69.5t72 -174.5
v-667q0 -102 -39 -178t-107.5 -124.5t-172.5 -78.5t-221.5 -41.5t-268.5 -11.5zM1286 586q-3 65 -48.5 108t-113.5 43h-217l-166 -145l-14 -299q-4 -67 33 -104t108 -37h441z" />
    <glyph glyph-name="uni0671.isol" unicode="&#x671;" horiz-adv-x="489" arabic-form="isolated" 
d="M215 1337q-64 0 -94.5 21t-50.5 78l-25 65l-96 -149l-47 24l129 195l53 -8l27 -76q13 -39 26 -57l76 120q28 48 59 64q44 20 148 20l88 -78v-131q0 -40 -25.5 -64t-68.5 -24h-199zM412 1399q25 0 38 12.5t11 34.5l-6 86l-56 49q-56 0 -86 -12q-40 -12 -63 -51l-74 -111
q13 -8 47 -8h189zM170 1188l141 14l8 -1190l-114 -12z" />
    <glyph glyph-name="uni0679" unicode="&#x679;" horiz-adv-x="1945" arabic-form="isolated" 
d="M424 0q-109 0 -181.5 76.5t-72.5 187.5v443l135 6v-422q0 -61 33 -100t86 -39h1073q64 0 112.5 41.5t45.5 99.5l-23 498l142 12v-545q0 -110 -77 -184t-190 -74h-1083zM829 973l27 43l-10 313l53 10v-239l-2 -33l35 57q33 51 104 68q27 8 80 8l86 -74v-125
q0 -41 -25.5 -64.5t-68.5 -23.5h-279v60zM1112 971q20 0 33.5 12.5t13.5 32.5l-6 86l-55 51q-33 0 -60 -6q-53 -13 -86 -60l-75 -114z" />
    <glyph glyph-name="uni067E" unicode="&#x67e;" horiz-adv-x="1945" arabic-form="isolated" 
d="M424 0q-109 0 -181.5 76.5t-72.5 187.5v443l135 6v-422q0 -61 33 -100t86 -39h1073q64 0 112.5 41.5t45.5 99.5l-23 498l142 12v-545q0 -110 -77 -184t-190 -74h-1083zM920 -774v147l157 9v-156h-157zM1028 -328l191 -98l-539 -14v112h348zM967 -432v104h311l37 -20v-76z
" />
    <glyph glyph-name="uni0686" unicode="&#x686;" horiz-adv-x="1554" arabic-form="isolated" 
d="M887 55l254 -98l-584 -12v110h330zM827 -49l-2 104h299l33 -22v-76zM780 -297v139l154 11v-150h-154zM559 -588q-165 0 -274.5 97.5t-110.5 246.5l-2 146q-3 187 60 275t241 145l596 190l-485 262q-38 21 -78 21q-44 1 -81 -21t-56 -61l-66 -133l-110 49l73 155
q34 69 99 108.5t145 39.5q67 0 137 -37l737 -389l-43 -131l-108 57l-696 -229q-141 -46 -189.5 -108t-48.5 -197l-2 -125q-1 -92 69 -159t164 -65l707 21l-23 -158h-655z" />
    <glyph glyph-name="uni0688" unicode="&#x688;" horiz-adv-x="1257" arabic-form="isolated" 
d="M432 0q-116 0 -188.5 72.5t-71.5 189.5l2 117l121 8v-94q0 -65 32 -103t89 -38h409q58 0 99 42.5t41 102.5l-107 432l-477 172l31 125l565 -209l108 -541q0 -111 -78 -193.5t-184 -82.5h-391zM344 1397l27 43l-11 313l54 10v-239l-2 -33l34 57q33 50 105 68q27 8 80 8
l86 -74v-125q0 -41 -25.5 -64.5t-68.5 -23.5h-279v60zM627 1395q20 0 33.5 12.5t13.5 32.5l-6 86l-56 51q-32 0 -59 -6q-53 -13 -86 -60l-76 -114z" />
    <glyph glyph-name="uni0691" unicode="&#x691;" horiz-adv-x="659" arabic-form="isolated" 
d="M344 711l143 12v-786q0 -182 -152 -315t-433 -197l-52 159q228 43 373 143t148 216zM256 1128l27 43l-11 314l54 10v-240l-2 -32l34 57q33 50 105 68q27 8 80 8l86 -74v-125q0 -41 -25.5 -64.5t-68.5 -23.5h-279v59zM539 1126q20 0 33.5 12.5t13.5 32.5l-6 86l-56 52
q-32 0 -59 -6q-53 -13 -86 -60l-76 -115z" />
    <glyph glyph-name="uni0695.fina" unicode="&#x695;" horiz-adv-x="751" 
d="M686 0q-64 0 -119.5 33t-79.5 80v-197q0 -171 -151.5 -298t-433.5 -193l-52 159q228 44 373 143.5t148 213.5l-27 770l143 12v-420q5 -65 56.5 -108t130.5 -43h78q28 0 28 -80q0 -72 -28 -72h-66zM258 -1032h-41l137 418l64 -13zM254 -1026l-37 -6l-182 391l61 25z" />
    <glyph glyph-name="uni0698" unicode="&#x698;" horiz-adv-x="659" arabic-form="isolated" 
d="M344 711l143 12v-786q0 -182 -152 -315t-433 -197l-52 159q228 43 373 143t148 216zM334 1323v145l164 9v-154h-164zM446 1141l191 -99l-539 -14v113h348zM385 1036v105h311l37 -19v-78z" />
    <glyph glyph-name="uni06A0.init" unicode="&#x6a0;" horiz-adv-x="1286" 
d="M-2 0v152h307q-49 49 -49 172v137q0 96 4.5 139.5t18.5 77.5q14 27 42 59.5t52 55t71.5 64t69.5 61.5h281q104 0 178 -71.5t74 -172.5v-41l-105 -10q0 68 -49.5 116.5t-118.5 48.5h-201q-13 -12 -43.5 -39.5t-44 -40.5t-34.5 -34t-33.5 -38t-20.5 -34q-11 -24 -13.5 -61
t-2.5 -125l2 -113q0 -88 47 -121.5t158 -27.5l504 28l22 -147q-413 -35 -694 -35h-422zM633 1493v145l164 9v-154h-164zM745 1311l191 -99l-539 -14v113h348zM684 1206v105h311l37 -19v-78z" />
    <glyph glyph-name="uni06A0.medi" unicode="&#x6a0;" horiz-adv-x="1417" 
d="M1020 0q-167 0 -289 43q-128 -43 -303 -43h-430v152h387q106 0 182 16q-113 67 -179.5 210t-111.5 400l-92 -4l25 150l811 8q100 -103 135.5 -150t38.5 -88q2 -65 -59 -235q-42 -114 -94 -183.5t-130 -111.5q65 -12 144 -12h362q13 0 20 -29.5t7 -48.5q2 -14 -6.5 -44
t-20.5 -30h-397zM735 205q94 29 165 91t99 138q4 11 14 37.5t14 37t11 30.5t10 30t6.5 24t5 23.5t1.5 18.5q-2 34 -21.5 67t-76.5 93l-572 -19q57 -262 136 -393t208 -178zM633 1493v145l164 9v-154h-164zM745 1311l191 -99l-539 -14v113h348zM684 1206v105h311l37 -19v-78z
" />
    <glyph glyph-name="uni06A0.fina" unicode="&#x6a0;" horiz-adv-x="1427" 
d="M487 -592q-137 0 -226 82t-89 209v82q1 119 22.5 186t74.5 107.5t157 68.5q125 31 127 31q-110 65 -168.5 199.5t-108.5 404.5l-90 -4l23 150l811 8q79 -75 123.5 -138.5t44.5 -101.5q-2 -55 -53 -233q-58 -197 -242 -295q56 -12 147 -12h387q10 0 17.5 -22t9.5 -56
q2 -27 -6.5 -50.5t-20.5 -23.5h-407q-165 0 -297 66q-94 -17 -209 -43q-38 -8 -64.5 -16t-48.5 -19.5t-36 -21.5t-25 -29t-16 -36t-8.5 -47.5t-4 -58.5t-0.5 -74q0 -87 45.5 -134t122.5 -44l635 23l-29 -158h-598zM735 205q95 29 166 91.5t98 137.5q6 16 19.5 51.5
t18.5 49.5t12.5 37t10 37t1.5 26q0 32 -20.5 65t-77.5 95l-572 -19q57 -261 136.5 -392t207.5 -179zM639 1493v145l164 9v-154h-164zM752 1311l190 -99l-539 -14v113h349zM690 1206v105h311l37 -19v-78z" />
    <glyph glyph-name="uni06A1.init" unicode="&#x6a1;" horiz-adv-x="1136" 
d="M-2 0v152h702q65 0 108.5 42.5t43.5 104.5v72h-428q-106 0 -176 71.5t-70 178.5v385l246 215h293q106 0 178 -70t72 -174v-680q0 -134 -76 -215.5t-211 -81.5h-682zM834 956q-3 61 -47 101.5t-105 40.5h-215l-166 -144l-14 -288q-3 -67 43 -114.5t112 -47.5h414z" />
    <glyph glyph-name="uni06A1.medi" unicode="&#x6a1;" horiz-adv-x="1337" 
d="M397 152q-54 34 -89.5 90t-35.5 108q0 203 23 291q13 52 52.5 107t68 82.5t101.5 91.5q15 13 22 20l292 -41q102 -14 178.5 -93.5t82.5 -178.5q12 -195 -18 -308.5t-103 -168.5h366q10 0 18.5 -21.5t8.5 -58.5q0 -34 -8.5 -53t-18.5 -19h-600q-40 0 -73 10
q-33 -10 -74 -10h-592v152h399zM578 809q-69 -60 -110.5 -111t-57.5 -108q-20 -59 -23 -228q0 -46 41.5 -95.5t104.5 -82t122 -32.5h31q158 0 222.5 88.5t58.5 294.5q-6 222 -170 243z" />
    <glyph glyph-name="uni06A1.fina" unicode="&#x6a1;" horiz-adv-x="2146" 
d="M424 0q-110 0 -182 74.5t-72 185.5v447l135 6v-422q0 -61 32 -100t87 -39h625v-152h-625zM1208 152q-54 34 -89.5 90t-35.5 108q0 203 23 291q13 52 52.5 107t68 82.5t101.5 91.5q15 13 22 20l292 -41q102 -14 178.5 -93.5t82.5 -178.5q12 -195 -18 -308.5t-103 -168.5
h366q10 0 18.5 -21.5t8.5 -58.5q0 -34 -8.5 -53t-18.5 -19h-600q-40 0 -73 10q-33 -10 -74 -10h-592v152h399zM1389 809q-69 -60 -110.5 -111t-57.5 -108q-20 -59 -23 -228q0 -46 41.5 -95.5t104.5 -82t122 -32.5h31q158 0 222.5 88.5t58.5 294.5q-6 222 -170 243z" />
    <glyph glyph-name="uni06A4" unicode="&#x6a4;" horiz-adv-x="1959" arabic-form="isolated" 
d="M424 0q-110 0 -182 74.5t-72 185.5v447l135 6v-422q0 -61 32 -100t87 -39h625v-152h-625zM821 0v152h703q65 0 108 42.5t43 104.5v72h-428q-106 0 -176 71.5t-70 178.5v385l246 215h293q106 0 178 -70t72 -174v-680q0 -134 -76 -215.5t-211 -81.5h-682zM1657 956
q-3 61 -47 101.5t-105 40.5h-215l-166 -144l-14 -288q-3 -67 43.5 -114.5t112.5 -47.5h413zM1325 1767v146l164 8v-154h-164zM1438 1585l190 -98l-538 -14v112h348zM1376 1481v104h312l36 -18v-78z" />
    <glyph glyph-name="uni06A9" unicode="&#x6a9;" horiz-adv-x="1953" arabic-form="isolated" 
d="M424 0q-112 0 -183 71.5t-71 188.5v447l135 6v-422q0 -61 32 -100t87 -39h1059q76 0 127 41t51 104l-76 334l-688 348l4 143l776 320l70 -133l-688 -256l639 -332q7 -33 23.5 -108t25.5 -117.5t19.5 -105.5t15.5 -116q6 -113 -81 -193.5t-210 -80.5h-1067z" />
    <glyph glyph-name="uni06AA.init" unicode="&#x6aa;" horiz-adv-x="1634" 
d="M-2 0v152h1192q67 0 113 43.5t43 105.5l-13 297q-3 63 -50.5 102.5t-115.5 36.5l-977 -45l-18 135l563 568l105 -92l-494 -465l821 32q130 6 213.5 -64.5t83.5 -193.5v-344q0 -118 -75 -193t-193 -75h-1198z" />
    <glyph glyph-name="uni06AA.medi" unicode="&#x6aa;" horiz-adv-x="1720" 
d="M-2 0v152h1192q67 0 113 43.5t43 105.5l-13 297q-3 63 -50.5 102.5t-115.5 36.5l-977 -45l-18 135l563 568l105 -92l-494 -465l821 32q130 6 213.5 -64.5t83.5 -193.5v-344q0 -118 -75 -193t-193 -75h-1198zM1612 0q-110 0 -173 89.5t-65 242.5h86q3 -84 44 -132t112 -48
h104q13 0 20 -30.5t7 -51.5q0 -23 -8 -46.5t-19 -23.5h-108z" />
    <glyph glyph-name="uni06AA.fina" unicode="&#x6aa;" horiz-adv-x="2037" 
d="M1780 268q0 -118 -75 -193t-194 -75h-1316l-25 178l1333 -26q68 -2 114.5 41.5t43.5 107.5l-12 297q-3 61 -50.5 101.5t-115.5 37.5l-979 -45l-17 135l564 568l104 -92l-493 -465l821 32q132 6 214.5 -65.5t82.5 -192.5v-344zM1929 0q-110 0 -172.5 89.5t-64.5 242.5h86
q3 -84 43.5 -132t111.5 -48h105q13 0 19.5 -30t6.5 -52q0 -23 -7.5 -46.5t-18.5 -23.5h-109z" />
    <glyph glyph-name="uni06AF" unicode="&#x6af;" horiz-adv-x="1953" arabic-form="isolated" 
d="M424 0q-112 0 -183 71.5t-71 188.5v447l135 6v-422q0 -61 32 -100t87 -39h1059q76 0 127 41t51 104l-76 334l-688 348l4 143l776 320l70 -133l-688 -256l639 -332q7 -33 23.5 -108t25.5 -117.5t19.5 -105.5t15.5 -116q6 -113 -81 -193.5t-210 -80.5h-1067zM1563 1556
l-588 -233l-27 59l25 35l545 236z" />
    <glyph glyph-name="uni06B5.init" unicode="&#x6b5;" horiz-adv-x="606" 
d="M-2 0v152h137q75 0 123 44t47 111l-24 1086l141 14l10 -1102q1 -142 -78.5 -223.5t-218.5 -81.5h-137zM379 1669h-41l137 418l64 -12zM375 1675l-37 -6l-182 391l61 25z" />
    <glyph glyph-name="uni06B5.medi" unicode="&#x6b5;" horiz-adv-x="684" 
d="M-2 0v152h129q68 0 118.5 47t49.5 108l-23 1086l142 14l8 -1102q1 -70 42 -111.5t107 -41.5h113q13 0 20 -29t7 -49q0 -18 -7.5 -46t-19.5 -28h-117q-74 0 -129.5 40t-72.5 107q-22 -64 -86 -105.5t-140 -41.5h-141zM379 1669h-41l137 418l64 -12zM375 1675l-37 -6
l-182 391l61 25z" />
    <glyph glyph-name="uni06B5.fina" unicode="&#x6b5;" horiz-adv-x="1587" 
d="M616 -465q-194 0 -320 124.5t-126 317.5v508l135 4v-497q0 -130 88.5 -218.5t218.5 -88.5q305 0 454 76.5t146 230.5l-34 1392l141 15l12 -1432q1 -217 -177.5 -324.5t-537.5 -107.5zM1479 0q-110 0 -173 89.5t-65 242.5h86q3 -84 44 -132t112 -48h104q13 0 20 -30.5
t7 -51.5q0 -23 -8 -46.5t-19 -23.5h-108zM1280 1665h-41l137 418l64 -12zM1276 1671l-37 -6l-182 391l61 25z" />
    <glyph glyph-name="uni06BA.isol" unicode="&#x6ba;" horiz-adv-x="1525" arabic-form="isolated" 
d="M170 559l135 4v-538q0 -133 88.5 -220.5t220.5 -87.5q303 0 463 78t156 225l-27 764l142 15l4 -799q1 -217 -186 -326.5t-558 -109.5q-118 0 -218.5 57.5t-160 158t-59.5 220.5v559z" />
    <glyph glyph-name="uni06BD.init" unicode="&#x6bd;" horiz-adv-x="854" 
d="M-2 0v152h408q63 0 111.5 41.5t45.5 99.5l-22 498l141 12v-545q0 -111 -75.5 -184.5t-190.5 -73.5h-418zM197 -774v147l157 9v-156h-157zM305 -328l191 -98l-539 -14v112h348zM244 -432v104h311l37 -20v-76z" />
    <glyph glyph-name="uni06BD.medi" unicode="&#x6bd;" horiz-adv-x="888" 
d="M760 0q-70 0 -127 42t-76 105q-23 -63 -85 -105t-134 -42h-340v152h338q65 0 107 42.5t42 104.5v426l129 6v-432q0 -62 43 -104.5t107 -42.5h127q13 0 18.5 -28.5t5.5 -51.5q0 -25 -6.5 -48.5t-17.5 -23.5h-131zM254 -774v147l158 9v-156h-158zM362 -328l191 -98
l-539 -14v112h348zM301 -432v104h311l37 -20v-76z" />
    <glyph glyph-name="uni06BE" unicode="&#x6be;" horiz-adv-x="1703" arabic-form="isolated" 
d="M289 379q0 123 4.5 180.5t23.5 104.5q14 38 46.5 77.5t99.5 104.5l-158 26l17 134l806 -154q133 -26 183.5 -56.5t89.5 -117.5q41 -88 79 -207.5t52 -202.5q4 -106 -76.5 -187t-189.5 -81h-293q-68 0 -135 39q-29 -23 -66 -35q-219 -60 -551 -133l-51 158l326 63
q-103 47 -155 116.5t-52 170.5zM403 354q0 -65 82 -130t174 -72q106 -3 163.5 27t85 116.5t22.5 249.5q-1 44 -5.5 75.5t-17 67t-40 58.5t-68.5 32l-203 31q-69 -63 -104 -101.5t-54 -76.5q-20 -41 -26.5 -99.5t-8.5 -177.5zM1264 152q62 0 105 43t46 104q-82 238 -96 274
q-37 95 -70.5 122t-136.5 44l-156 27q45 -36 66 -85t22 -130q9 -286 -81 -379q33 -20 69 -20h232z" />
    <glyph glyph-name="uni06C1" unicode="&#x6c1;" horiz-adv-x="1177" arabic-form="isolated" 
d="M750 156q53 0 92 49t39 112q-61 319 -109 390q-36 54 -164 96l-47 14l-100 -94q-20 -18 -47 -41.5t-41.5 -36.5t-30 -28t-24 -25.5t-13.5 -20.5q-14 -29 -14 -92l-2 -170q0 -64 42 -111t101 -46zM440 0q-114 0 -192 78.5t-78 193.5v224q0 83 20 120q23 47 177 185l61 57
l-156 47l31 133q245 -77 377 -129q83 -32 130 -62t75 -73q74 -110 121 -493q3 -110 -80.5 -195.5t-192.5 -85.5h-293z" />
    <glyph glyph-name="uni06C2.fina" unicode="&#x6c2;" horiz-adv-x="1308" 
d="M1239 0q-140 0 -209 55t-92 187q-2 -6 -7 -19.5t-7 -19.5q-46 -123 -187 -123h-309q-103 0 -179.5 78.5t-76.5 185.5q0 20 0.5 74t1 80t3.5 66t9 68t15 50q10 24 40.5 58t58.5 59t80 69.5t71 61.5l358 61l-16 103l131 20l90 -747q17 -133 65 -174t185 -41h45
q9 0 18.5 -24.5t9.5 -51.5t-9.5 -51.5t-18.5 -24.5h-70zM725 217q116 0 145 96q3 14 11.5 39t11.5 39l-66 467l-319 -49q-27 -25 -75 -64t-76.5 -66t-41.5 -52q-10 -20 -15 -56.5t-8 -105t-5 -94.5q-4 -60 45 -107t117 -47h276zM483 1321l-26 63l78 43q-26 3 -46 39l-47 84
q-16 32 -20 60q0 27 12 57q1 3 11.5 33.5t17.5 50.5l100 49q39 19 75.5 8t61.5 -47l13 -24l-43 -21q-43 54 -95 27l-69 -39q-14 -43 -19 -64q-4 -20 -4 -30q0 -20 17 -54l37 -65q19 -33 41 -35.5t63 23.5l188 114l33 -61z" />
    <glyph glyph-name="uni06C3.fina" unicode="&#x6c3;" horiz-adv-x="1243" 
d="M1153 0q-151 0 -226 80t-112 274l-70 369l-245 -27q-177 -142 -199 -211q-5 -15 -8 -31t-4.5 -41t-2 -38.5t-1 -52t-0.5 -52.5v-176l-109 -2l-6 254q0 89 9 145t38 99q27 41 76.5 88.5t152.5 136.5l418 53l76 -534q15 -101 67 -141.5t169 -40.5h67q10 0 18.5 -20.5
t8.5 -55.5t-8.5 -55.5t-18.5 -20.5h-90zM674 1233l190 -98l-538 -15v113h348zM612 1128v105h312l37 -19v-77z" />
    <glyph glyph-name="uni06C6.isol" unicode="&#x6c6;" horiz-adv-x="1200" arabic-form="isolated" 
d="M412 -403q272 53 391.5 132.5t116.5 194.5l-2 72h-506q-106 0 -174 70t-68 180v450l250 213h348q110 0 186 -71t76 -179l-2 -741q0 -186 -160 -309.5t-469 -177.5l-153 -27l-37 156zM895 647q-3 61 -47 101t-105 40h-284l-164 -143l-14 -350q-1 -68 42.5 -108t112.5 -40
h479zM668 1249h-41l137 418l63 -12zM664 1255l-37 -6l-183 391l62 25z" />
    <glyph glyph-name="uni06C9" unicode="&#x6c9;" horiz-adv-x="1200" arabic-form="isolated" 
d="M412 -403q272 53 391.5 132.5t116.5 194.5l-2 72h-506q-106 0 -174 70t-68 180v450l250 213h348q110 0 186 -71t76 -179l-2 -741q0 -186 -160 -309.5t-469 -177.5l-153 -27l-37 156zM895 647q-3 61 -47 101t-105 40h-284l-164 -143l-14 -350q-1 -68 42.5 -108t112.5 -40
h479zM764 1249l-137 418h41l159 -405zM444 1276l183 391l37 -6l-158 -410z" />
    <glyph glyph-name="uni06CC" unicode="&#x6cc;" horiz-adv-x="1593" arabic-form="isolated" 
d="M170 543l135 6v-555q0 -129 87.5 -216t217.5 -87q139 0 211 2t170.5 15.5t165.5 41.5q136 59 160 178q2 7 2 49q0 28 -14 39t-54 11h-415q-102 0 -145.5 43t-43.5 147v451l260 227h252q96 0 172.5 -72.5t77.5 -169.5v-41l-102 -6q-3 61 -54.5 110.5t-113.5 49.5h-197
l-164 -143l-16 -363q-1 -59 25 -83.5t90 -24.5h407q139 0 139 -129q0 -33 -4 -95q-15 -194 -182 -288q-106 -60 -257 -80.5t-370 -20.5q-180 0 -310 127.5t-130 304.5v572z" />
    <glyph glyph-name="uni06CE.init" unicode="&#x6ce;" horiz-adv-x="854" 
d="M-2 0v152h408q63 0 111.5 41.5t45.5 99.5l-22 498l141 12v-545q0 -111 -75.5 -184.5t-190.5 -73.5h-418zM305 -328l191 -98l-539 -14v112h348zM244 -432v104h311l37 -20v-76zM395 1083h-41l138 418l63 -12zM391 1090l-37 -7l-182 392l61 24z" />
    <glyph glyph-name="uni06CE.medi" unicode="&#x6ce;" horiz-adv-x="888" 
d="M760 0q-70 0 -127 42t-76 105q-23 -63 -85 -105t-134 -42h-340v152h338q65 0 107 42.5t42 104.5v426l129 6v-432q0 -62 43 -104.5t107 -42.5h127q13 0 18.5 -28.5t5.5 -51.5q0 -25 -6.5 -48.5t-17.5 -23.5h-131zM362 -328l191 -98l-539 -14v112h348zM301 -432v104h311
l37 -20v-76zM461 1028h-41l137 418l64 -12zM457 1034l-37 -6l-182 391l61 25z" />
    <glyph glyph-name="uni06CE.fina" unicode="&#x6ce;" horiz-adv-x="1546" 
d="M1546 152q14 0 21.5 -24t7.5 -52q0 -19 -8 -47.5t-21 -28.5h-143q16 -16 16 -53q0 -14 -4 -60q-12 -144 -127 -239q-96 -79 -256.5 -107t-421.5 -28q-119 0 -220.5 58t-160.5 158t-59 218v569l135 6v-555q0 -130 87.5 -216.5t217.5 -86.5q238 0 370 16.5t218 73.5
q101 65 115 148q2 12 2 49q0 28 -13.5 38.5t-54.5 10.5h-590l25 152h864zM1036 401h-41l138 418l63 -12zM1032 408l-37 -7l-182 392l61 24z" />
    <glyph glyph-name="uni06CF.fina" unicode="&#x6cf;" horiz-adv-x="1253" 
d="M1255 152q10 0 17.5 -23t7.5 -53q0 -29 -7.5 -52.5t-17.5 -23.5h-260v152h260zM412 -403q272 53 391.5 132.5t116.5 194.5l-2 72h-506q-106 0 -174 70t-68 180v450l250 213h348q110 0 186 -71t76 -179l-2 -741q0 -186 -160 -309.5t-469 -177.5l-153 -27l-37 156zM895 647
q-3 61 -47 101t-105 40h-284l-164 -143l-14 -350q-1 -68 42.5 -108t112.5 -40h479zM543 1208v160l182 10v-170h-182z" />
    <glyph glyph-name="uni06D2.isol" unicode="&#x6d2;" horiz-adv-x="1456" arabic-form="isolated" 
d="M489 0q-157 0 -238 82t-81 240v479l260 229h201q84 0 146.5 -44.5t125.5 -149.5l96 -160l-108 -78l-119 203q-32 56 -64 78t-81 22h-158l-164 -143l-14 -408q-4 -97 51 -151t156 -52l786 17l-22 -164h-773z" />
    <glyph glyph-name="uni06D3" unicode="&#x6d3;" horiz-adv-x="1456" arabic-form="isolated" 
d="M489 0q-157 0 -238 82t-81 240v479l260 229h201q84 0 146.5 -44.5t125.5 -149.5l96 -160l-108 -78l-119 203q-32 56 -64 78t-81 22h-158l-164 -143l-14 -408q-4 -97 51 -151t156 -52l786 17l-22 -164h-773zM369 1247l-27 64l78 43q-25 3 -45 39l-47 84q-18 34 -21 59
q0 27 12 57q1 3 11.5 33.5t17.5 50.5l101 49q39 20 75.5 9t61.5 -47l12 -25l-43 -21q-43 53 -94 27l-70 -39q-10 -32 -18 -63q-4 -20 -4 -31q0 -21 16 -53l37 -66q19 -33 41 -35.5t63 23.5l189 115l33 -62z" />
    <glyph glyph-name="uni06D5.fina" unicode="&#x6d5;" horiz-adv-x="1308" 
d="M1239 0q-140 0 -209 55t-92 187q-2 -6 -7 -19.5t-7 -19.5q-46 -123 -187 -123h-309q-103 0 -179.5 78.5t-76.5 185.5q0 20 0.5 74t1 80t3.5 66t9 68t15 50q10 24 40.5 58t58.5 59t80 69.5t71 61.5l358 61l-16 103l131 20l90 -747q17 -133 65 -174t185 -41h45
q9 0 18.5 -24.5t9.5 -51.5t-9.5 -51.5t-18.5 -24.5h-70zM725 217q116 0 145 96q3 14 11.5 39t11.5 39l-66 467l-319 -49q-27 -25 -75 -64t-76.5 -66t-41.5 -52q-10 -20 -15 -56.5t-8 -105t-5 -94.5q-4 -60 45 -107t117 -47h276z" />
    <glyph glyph-name="uni0671.fina" unicode="&#x671;" horiz-adv-x="595" arabic-form="final" 
d="M205 1337q-64 0 -95 21t-51 78l-24 65l-96 -149l-48 24l129 195l54 -8l26 -76q12 -37 27 -57l76 120q28 48 59 64q44 20 148 20l88 -78v-131q0 -40 -26 -64t-69 -24h-198zM401 1399q25 0 38.5 12.5t11.5 34.5l-7 86l-55 49q-56 0 -86 -12q-40 -12 -63 -51l-74 -111
q13 -8 47 -8h188zM461 0q-115 0 -185 77t-75 208l-31 915l141 14l8 -913q0 -63 43 -106t103 -43h135q25 0 25 -78q0 -74 -25 -74h-139z" />
    <glyph glyph-name="uni067E.fina" unicode="&#x67e;" horiz-adv-x="2031" arabic-form="final" 
d="M424 0q-109 0 -181.5 76.5t-72.5 187.5v443l135 6v-422q0 -61 33 -100t86 -39h1073q64 0 112.5 41.5t45.5 99.5l-23 498l142 12v-545q0 -110 -77 -184t-190 -74h-1083zM1923 0q-110 0 -172.5 89.5t-64.5 242.5h86q3 -84 43.5 -132t111.5 -48h105q13 0 19.5 -30t6.5 -52
q0 -23 -7.5 -46.5t-18.5 -23.5h-109zM918 -774v147l157 9v-156h-157zM1026 -328l191 -98l-539 -14v112h348zM965 -432v104h311l37 -20v-76z" />
    <glyph glyph-name="uni067E.init" unicode="&#x67e;" horiz-adv-x="854" arabic-form="initial" 
d="M-2 0v152h408q63 0 111.5 41.5t45.5 99.5l-22 498l141 12v-545q0 -111 -75.5 -184.5t-190.5 -73.5h-418zM197 -774v147l157 9v-156h-157zM305 -328l191 -98l-539 -14v112h348zM244 -432v104h311l37 -20v-76z" />
    <glyph glyph-name="uni067E.medi" unicode="&#x67e;" horiz-adv-x="888" arabic-form="medial" 
d="M760 0q-70 0 -127 42t-76 105q-23 -63 -85 -105t-134 -42h-340v152h338q65 0 107 42.5t42 104.5v426l129 6v-432q0 -62 43 -104.5t107 -42.5h127q13 0 18.5 -28.5t5.5 -51.5q0 -25 -6.5 -48.5t-17.5 -23.5h-131zM254 -774v147l158 9v-156h-158zM362 -328l191 -98
l-539 -14v112h348zM301 -432v104h311l37 -20v-76z" />
    <glyph glyph-name="uni0679.fina" unicode="&#x679;" horiz-adv-x="2031" arabic-form="final" 
d="M424 0q-109 0 -181.5 76.5t-72.5 187.5v443l135 6v-422q0 -61 33 -100t86 -39h1073q64 0 112.5 41.5t45.5 99.5l-23 498l142 12v-545q0 -110 -77 -184t-190 -74h-1083zM1923 0q-110 0 -172.5 89.5t-64.5 242.5h86q3 -84 43.5 -132t111.5 -48h105q13 0 19.5 -30t6.5 -52
q0 -23 -7.5 -46.5t-18.5 -23.5h-109zM827 973l27 43l-10 313l53 10v-239l-2 -33l35 57q33 51 104 68q27 8 80 8l86 -74v-125q0 -41 -25.5 -64.5t-68.5 -23.5h-279v60zM1110 971q20 0 33.5 12.5t13.5 32.5l-6 86l-55 51q-33 0 -60 -6q-53 -13 -86 -60l-76 -114z" />
    <glyph glyph-name="uni0679.init" unicode="&#x679;" horiz-adv-x="854" arabic-form="initial" 
d="M-2 0v152h408q63 0 111.5 41.5t45.5 99.5l-22 498l141 12v-545q0 -111 -75.5 -184.5t-190.5 -73.5h-418zM203 1143l26 43l-10 313l53 10v-239l-2 -33l35 57q33 50 105 68q27 8 79 8l86 -74v-125q0 -41 -25.5 -64.5t-68.5 -23.5h-278v60zM485 1141q20 0 33.5 12.5
t13.5 32.5l-6 86l-55 51q-32 0 -59 -6q-53 -13 -86 -60l-76 -114z" />
    <glyph glyph-name="uni0679.medi" unicode="&#x679;" horiz-adv-x="888" arabic-form="medial" 
d="M760 0q-70 0 -127 42t-76 105q-23 -63 -85 -105t-134 -42h-340v152h338q65 0 107 42.5t42 104.5v426l129 6v-432q0 -62 43 -104.5t107 -42.5h127q13 0 18.5 -28.5t5.5 -51.5q0 -25 -6.5 -48.5t-17.5 -23.5h-131zM268 1087l27 43l-10 314l53 10v-240l-2 -32l35 57
q33 51 104 68q27 8 80 8l86 -74v-125q0 -41 -25.5 -64.5t-68.5 -23.5h-279v59zM551 1085q20 0 33.5 12.5t13.5 32.5l-6 87l-55 51q-33 0 -60 -6q-53 -13 -86 -60l-76 -115z" />
    <glyph glyph-name="uni06A4.fina" unicode="&#x6a4;" horiz-adv-x="2146" arabic-form="final" 
d="M424 0q-110 0 -182 74.5t-72 185.5v447l135 6v-422q0 -61 32 -100t87 -39h625v-152h-625zM1208 152q-54 34 -89.5 90t-35.5 108q0 203 23 291q13 52 52.5 107t68 82.5t101.5 91.5q15 13 22 20l292 -41q102 -14 178.5 -93.5t82.5 -178.5q12 -195 -18 -308.5t-103 -168.5
h366q10 0 18.5 -21.5t8.5 -58.5q0 -34 -8.5 -53t-18.5 -19h-600q-40 0 -73 10q-33 -10 -74 -10h-592v152h399zM1389 809q-69 -60 -110.5 -111t-57.5 -108q-20 -59 -23 -228q0 -46 41.5 -95.5t104.5 -82t122 -32.5h31q158 0 222.5 88.5t58.5 294.5q-6 222 -170 243z
M1403 1507v146l164 8v-154h-164zM1516 1325l190 -98l-539 -15v113h349zM1454 1221v104h311l37 -18v-78z" />
    <glyph glyph-name="uni06A4.init" unicode="&#x6a4;" horiz-adv-x="1136" arabic-form="initial" 
d="M-2 0v152h702q65 0 108.5 42.5t43.5 104.5v72h-428q-106 0 -176 71.5t-70 178.5v385l246 215h293q106 0 178 -70t72 -174v-680q0 -134 -76 -215.5t-211 -81.5h-682zM834 956q-3 61 -47 101.5t-105 40.5h-215l-166 -144l-14 -288q-3 -67 43 -114.5t112 -47.5h414z
M520 1767v146l164 8v-154h-164zM633 1585l190 -98l-538 -14v112h348zM571 1481v104h312l37 -18v-78z" />
    <glyph glyph-name="uni06A4.medi" unicode="&#x6a4;" horiz-adv-x="1337" arabic-form="medial" 
d="M397 152q-54 34 -89.5 90t-35.5 108q0 203 23 291q13 52 52.5 107t68 82.5t101.5 91.5q15 13 22 20l292 -41q102 -14 178.5 -93.5t82.5 -178.5q12 -195 -18 -308.5t-103 -168.5h366q10 0 18.5 -21.5t8.5 -58.5q0 -34 -8.5 -53t-18.5 -19h-600q-40 0 -73 10
q-33 -10 -74 -10h-592v152h399zM578 809q-69 -60 -110.5 -111t-57.5 -108q-20 -59 -23 -228q0 -46 41.5 -95.5t104.5 -82t122 -32.5h31q158 0 222.5 88.5t58.5 294.5q-6 222 -170 243zM598 1487v145l164 8v-153h-164zM711 1305l190 -99l-539 -14v113h349zM649 1200v105h312
l36 -19v-78z" />
    <glyph glyph-name="uni0686.fina" unicode="&#x686;" horiz-adv-x="1499" arabic-form="final" 
d="M801 39l241 -98l-550 -13v111h309zM741 -66l-2 105h279l33 -23v-75zM694 -313v139l154 10v-149h-154zM1391 0q-170 0 -261.5 98.5t-105.5 288.5l88 82q15 -167 77.5 -242t186.5 -75h123q13 0 20 -29.5t7 -50.5q0 -17 -7.5 -44.5t-19.5 -27.5h-108zM559 -588
q-165 0 -274.5 97.5t-110.5 246.5l-2 146q-3 187 60 275t241 145l596 190l-485 262q-38 21 -78 21q-44 1 -81 -21t-56 -61l-66 -133l-110 49l73 155q34 69 99 108.5t145 39.5q67 0 137 -37l737 -389l-43 -131l-108 57l-696 -229q-141 -46 -189.5 -108t-48.5 -197l-2 -125
q-1 -92 69 -159t164 -65l707 21l-23 -158h-655z" />
    <glyph glyph-name="uni0686.init" unicode="&#x686;" horiz-adv-x="1525" arabic-form="initial" 
d="M-2 0v152h180q290 0 440 86l447 256l-506 270q-42 20 -78 20q-44 0 -80.5 -22.5t-56.5 -61.5l-63 -133l-111 45l70 156q31 70 96 111t145 41q72 0 137 -33l738 -381l-41 -131l-123 63l-479 -293q-126 -78 -257.5 -111.5t-308.5 -33.5h-149zM516 -774v147l158 9v-156h-158
zM625 -328l190 -98l-539 -14v112h349zM563 -432v104h311l37 -20v-76z" />
    <glyph glyph-name="uni0686.medi" unicode="&#x686;" horiz-adv-x="1474" arabic-form="medial" 
d="M1366 0q-167 0 -259 97t-106 280l89 82q15 -161 77 -234t185 -73h123q26 0 26 -80q0 -72 -26 -72h-109zM-2 0v152h180q290 0 440 86l447 256l-506 270q-42 20 -78 20q-44 0 -80.5 -22.5t-56.5 -61.5l-63 -133l-111 45l70 156q31 70 96 111t145 41q72 0 137 -33l738 -381
l-41 -131l-123 63l-479 -293q-126 -78 -257.5 -111.5t-308.5 -33.5h-149zM516 -774v147l158 9v-156h-158zM625 -328l190 -98l-539 -14v112h349zM563 -432v104h311l37 -20v-76z" />
    <glyph glyph-name="uni0688.fina" unicode="&#x688;" horiz-adv-x="1355" arabic-form="final" 
d="M1358 0q-119 0 -191.5 39.5t-130.5 126.5q-27 -73 -92.5 -119.5t-146.5 -46.5h-371q-114 0 -185 71t-71 187v121l125 8v-94q0 -73 34.5 -107t108.5 -34h377q60 0 103.5 40t48.5 99l-60 145l-213 533l129 35l221 -588q24 -64 43 -103.5t44 -73.5t56 -51.5t72 -26.5t99 -9
q11 0 17.5 -24t6.5 -52t-6.5 -52t-17.5 -24zM539 1389l26 43l-10 313l53 10v-239l-2 -33l35 57q33 51 104 68q27 8 80 8l86 -74v-125q0 -41 -25.5 -64.5t-68.5 -23.5h-278v60zM821 1386q20 0 33.5 13t13.5 33l-6 86l-55 51q-32 0 -59 -6q-53 -13 -86 -60l-76 -114z" />
    <glyph glyph-name="uni0698.fina" unicode="&#x698;" horiz-adv-x="813" arabic-form="final" 
d="M686 0q-64 0 -119.5 33t-79.5 80v-197q0 -171 -151.5 -298t-433.5 -193l-52 159q228 44 373 143.5t148 213.5l-27 770l143 12v-420q5 -65 56.5 -108t130.5 -43h78q28 0 28 -80q0 -72 -28 -72h-66zM334 1323v145l164 9v-154h-164zM446 1141l191 -99l-539 -14v113h348z
M385 1036v105h311l37 -19v-78zM813 152q13 0 21 -23t8 -53t-8 -53t-21 -23h-63v152h63z" />
    <glyph glyph-name="uni0691.fina" unicode="&#x691;" horiz-adv-x="751" arabic-form="final" 
d="M686 0q-64 0 -119.5 33t-79.5 80v-197q0 -171 -151.5 -298t-433.5 -193l-52 159q228 44 373 143.5t148 213.5l-27 770l143 12v-420q5 -65 56.5 -108t130.5 -43h78q28 0 28 -80q0 -72 -28 -72h-66zM256 1128l27 43l-11 314l54 10v-240l-2 -32l34 57q33 50 105 68
q27 8 80 8l86 -74v-125q0 -41 -25.5 -64.5t-68.5 -23.5h-279v59zM539 1126q20 0 33.5 12.5t13.5 32.5l-6 86l-56 52q-32 0 -59 -6q-53 -13 -86 -60l-76 -115z" />
    <glyph glyph-name="uni06A9.fina" unicode="&#x6a9;" horiz-adv-x="2174" arabic-form="final" 
d="M424 0q-112 0 -183 71.5t-71 188.5v447l135 6v-422q0 -61 32 -100t87 -39h1063q76 0 130 47.5t54 115.5v105q-63 85 -104 117l-604 438l4 164l735 317l67 -133l-671 -262l538 -402q40 -30 77.5 -76t66.5 -92t59.5 -96t63 -93t70.5 -77.5t89.5 -54.5t112.5 -20
q27 0 27 -70q0 -80 -27 -80q-77 0 -138 20t-111.5 62.5t-90.5 95t-86 131.5l-4 -88q-6 -100 -85.5 -160.5t-203.5 -60.5h-1032z" />
    <glyph glyph-name="uni06A9.init" unicode="&#x6a9;" horiz-adv-x="1224" arabic-form="initial" 
d="M760 152q75 0 123.5 41t48.5 104l-78 334l-688 348l4 143l776 320l68 -133l-686 -256l639 -332q74 -345 86 -447q3 -113 -83 -193.5t-210 -80.5h-762v152h762z" />
    <glyph glyph-name="uni06A9.medi" unicode="&#x6a9;" horiz-adv-x="1386" arabic-form="medial" 
d="M1384 0q-78 0 -138 19t-110.5 62t-89.5 94.5t-88 133.5l-4 -86q-3 -100 -82.5 -161.5t-199.5 -61.5h-674v152h698q76 0 130.5 47.5t54.5 115.5v105q-60 84 -103 117l-604 438l4 164l735 317l66 -133l-672 -262l541 -402q39 -29 76 -74t65.5 -91.5t59.5 -96.5t64 -93
t71.5 -78.5t89.5 -55.5t112 -20q16 0 21.5 -13.5t5.5 -56.5q0 -29 -7.5 -54.5t-21.5 -25.5z" />
    <glyph glyph-name="uni06AF.fina" unicode="&#x6af;" horiz-adv-x="2174" arabic-form="final" 
d="M424 0q-112 0 -183 71.5t-71 188.5v447l135 6v-422q0 -61 32 -100t87 -39h1063q76 0 130 47.5t54 115.5v105q-63 85 -104 117l-604 438l4 164l735 317l67 -133l-671 -262l538 -402q40 -30 77.5 -76t66.5 -92t59.5 -96t63 -93t70.5 -77.5t89.5 -54.5t112.5 -20
q27 0 27 -70q0 -80 -27 -80q-77 0 -138 20t-111.5 62.5t-90.5 95t-86 131.5l-4 -88q-6 -100 -85.5 -160.5t-203.5 -60.5h-1032zM1599 1571l-587 -234l-27 60l25 35l544 235z" />
    <glyph glyph-name="uni06AF.init" unicode="&#x6af;" horiz-adv-x="1204" arabic-form="initial" 
d="M760 152q75 0 123.5 41t48.5 104l-78 334l-688 348l4 143l776 320l68 -133l-686 -256l639 -332q74 -345 86 -447q3 -113 -83 -193.5t-210 -80.5h-762v152h762zM831 1567l-587 -234l-27 60l25 34l544 236z" />
    <glyph glyph-name="uni06AF.medi" unicode="&#x6af;" horiz-adv-x="1386" arabic-form="medial" 
d="M1384 0q-78 0 -138 19t-110.5 62t-89.5 94.5t-88 133.5l-4 -86q-3 -100 -82.5 -161.5t-199.5 -61.5h-674v152h698q76 0 130.5 47.5t54.5 115.5v105q-60 84 -103 117l-604 438l4 164l735 317l66 -133l-672 -262l541 -402q39 -29 76 -74t65.5 -91.5t59.5 -96.5t64 -93
t71.5 -78.5t89.5 -55.5t112 -20q16 0 21.5 -13.5t5.5 -56.5q0 -29 -7.5 -54.5t-21.5 -25.5zM809 1579l-588 -233l-26 59l24 35l545 235z" />
    <glyph glyph-name="uni06BA.fina" unicode="&#x6ba;" horiz-adv-x="1609" arabic-form="final" 
d="M170 559l135 4v-538q0 -133 88.5 -220.5t220.5 -87.5q303 0 463 78t156 225l-27 764l142 15l4 -799q1 -217 -186 -326.5t-558 -109.5q-118 0 -218.5 57.5t-160 158t-59.5 220.5v559zM1501 0q-110 0 -172.5 89.5t-64.5 242.5h86q3 -84 43.5 -132t111.5 -48h105
q13 0 19.5 -30t6.5 -52q0 -23 -7.5 -46.5t-18.5 -23.5h-109z" />
    <glyph glyph-name="uni06C1.fina" unicode="&#x6c1;" horiz-adv-x="1243" arabic-form="final" 
d="M1153 0q-151 0 -226 80t-112 274l-70 369l-245 -27q-177 -142 -199 -211q-5 -15 -8 -31t-4.5 -41t-2 -38.5t-1 -52t-0.5 -52.5v-176l-109 -2l-6 254q0 89 9 145t38 99q27 41 76.5 88.5t152.5 136.5l418 53l76 -534q15 -101 67 -141.5t169 -40.5h67q10 0 18.5 -20.5
t8.5 -55.5t-8.5 -55.5t-18.5 -20.5h-90z" />
    <glyph glyph-name="uni06C1.init" unicode="&#x6c1;" horiz-adv-x="854" arabic-form="initial" 
d="M-2 0v152h408q63 0 111.5 41.5t45.5 99.5l-22 498l141 12v-545q0 -111 -75.5 -184.5t-190.5 -73.5h-418zM244 -395q-46 -55 -43 -88q3 -57 118 -148l-90 -98q-107 107 -104 194q0 69 63 144l144 174l37 -39z" />
    <glyph glyph-name="uni06C1.medi" unicode="&#x6c1;" horiz-adv-x="974" arabic-form="medial" 
d="M975 0h-70q-62 0 -102 -37q-38 -36 -67.5 -110t-78.5 -230h-127q-137 2 -210.5 76.5t-61.5 200.5l21 196q-68 -96 -195 -96h-86v152h131q65 0 112.5 39.5t51.5 99.5l33 364h118l-75 -735q-9 -84 45.5 -130t163.5 -48q42 143 73 220.5t72 121.5q50 53 131 59q101 9 121 9
q11 0 18.5 -21.5t7.5 -54.5t-7.5 -54.5t-18.5 -21.5z" />
    <glyph glyph-name="uni06BE.fina" unicode="&#x6be;" horiz-adv-x="1503" arabic-form="final" 
d="M170 63l266 41v553q0 95 77 164.5t175 69.5h297l217 -189v-423q0 -91 -66.5 -158t-170.5 -84l-416 -72v-69q0 -164 201 -164h309l45 141q41 133 131 206t213 73h61q21 0 21 -76t-21 -76h-59q-91 0 -158.5 -55.5t-99.5 -157.5l-53 -172h-418q-136 0 -211.5 69t-75.5 187
v78l-231 -41zM942 182q71 11 113 54.5t39 103.5l-17 299l-139 131h-215q-63 0 -110 -44t-48 -105l-16 -500z" />
    <glyph glyph-name="uni06BE.init" unicode="&#x6be;" horiz-adv-x="1607" arabic-form="initial" 
d="M307 152q-60 35 -94.5 87t-34.5 107q0 91 0.5 126.5t8 96t22.5 101.5q15 38 46 75.5t101 102.5l-147 24l16 134l809 -154q100 -19 140 -30.5t67 -33.5q51 -37 92 -167q9 -27 28.5 -85t31 -93t24.5 -84.5t19 -90.5q7 -104 -73 -186t-189 -82h-390q-67 0 -106 33
q-87 -33 -201 -33h-479v152h309zM836 156q20 -4 47 -4h282q63 0 108.5 43t45.5 104l-100 285q-34 93 -64 112q-18 17 -47 26t-100 21l-164 25q46 -36 67.5 -87.5t22.5 -137.5q6 -171 -14.5 -253.5t-83.5 -133.5zM551 152q165 0 221 79q53 84 47 318q-2 103 -35.5 159.5
t-105.5 71.5l-189 31q-76 -69 -110 -107.5t-53 -76.5q-18 -40 -24.5 -95t-6.5 -165q-2 -69 76.5 -136t179.5 -79z" />
    <glyph glyph-name="uni06BE.medi" unicode="&#x6be;" horiz-adv-x="1257" arabic-form="medial" 
d="M1198 0q-172 0 -229 -180l-72 -205h-418q-135 0 -210.5 69t-75.5 187v129h-195v152h197l2 505q0 95 75.5 164.5t173.5 69.5h297l220 -189v-454q0 -98 -72.5 -173t-169.5 -75h-414l2 -104q3 -164 201 -164h309l58 170q81 250 321 250h64q22 0 22 -76t-22 -76h-64zM700 152
q65 0 110 45.5t42 109.5l-16 332l-140 131h-215q-63 0 -109.5 -44t-47.5 -105l-15 -469h391z" />
    <glyph glyph-name="uni06D2.fina" unicode="&#x6d2;" horiz-adv-x="1003" arabic-form="final" 
d="M926 0q-173 0 -292.5 -13.5t-199.5 -54.5q-90 -46 -131 -135q-16 -43 -16 -100v-74q9 -37 45 -56.5t92 -17.5l825 19l-22 -164h-850q-93 0 -150 49.5t-57 132.5v90q0 242 158 359q95 66 246 91.5t380 25.5h50q20 0 20 -78q0 -74 -20 -74h-78z" />
    <glyph glyph-name="uni06D3.fina" unicode="&#x6d3;" horiz-adv-x="1003" arabic-form="final" 
d="M926 0q-173 0 -292.5 -13.5t-199.5 -54.5q-90 -46 -131 -135q-16 -43 -16 -100v-74q9 -37 45 -56.5t92 -17.5l825 19l-22 -164h-850q-93 0 -150 49.5t-57 132.5v90q0 242 158 359q95 66 246 91.5t380 25.5h50q20 0 20 -78q0 -74 -20 -74h-78zM580 408l-27 63l78 43
q-25 3 -45 39l-47 84q-18 34 -21 59q0 28 12 58q1 3 11.5 33.5t17.5 50.5l100 49q39 19 76 8t62 -47l12 -25l-43 -20q-42 53 -94 26l-70 -38q-9 -29 -18 -64q-4 -20 -4 -31q0 -21 16 -53l37 -65q19 -33 40.5 -36t63.5 23l189 115l32 -62z" />
    <glyph glyph-name="uni06C6.fina" unicode="&#x6c6;" horiz-adv-x="1253" arabic-form="final" 
d="M1255 152q10 0 17.5 -23t7.5 -53q0 -29 -7.5 -52.5t-17.5 -23.5h-260v152h260zM412 -403q272 53 391.5 132.5t116.5 194.5l-2 72h-506q-106 0 -174 70t-68 180v450l250 213h348q110 0 186 -71t76 -179l-2 -741q0 -186 -160 -309.5t-469 -177.5l-153 -27l-37 156zM895 647
q-3 61 -47 101t-105 40h-284l-164 -143l-14 -350q-1 -68 42.5 -108t112.5 -40h479zM668 1249h-41l137 418l63 -12zM664 1255l-37 -6l-183 391l62 25z" />
    <glyph glyph-name="uni06C9.fina" unicode="&#x6c9;" horiz-adv-x="1253" arabic-form="final" 
d="M1255 152q10 0 17.5 -23t7.5 -53q0 -29 -7.5 -52.5t-17.5 -23.5h-260v152h260zM412 -403q272 53 391.5 132.5t116.5 194.5l-2 72h-506q-106 0 -174 70t-68 180v450l250 213h348q110 0 186 -71t76 -179l-2 -741q0 -186 -160 -309.5t-469 -177.5l-153 -27l-37 156zM895 647
q-3 61 -47 101t-105 40h-284l-164 -143l-14 -350q-1 -68 42.5 -108t112.5 -40h479zM764 1249l-137 418h41l159 -405zM444 1276l183 391l37 -6l-158 -410z" />
    <glyph glyph-name="uni0649.init" unicode="&#x649;" horiz-adv-x="854" arabic-form="initial" 
d="M-2 0v152h408q63 0 111.5 41.5t45.5 99.5l-22 498l141 12v-545q0 -111 -75.5 -184.5t-190.5 -73.5h-418z" />
    <glyph glyph-name="uni0649.medi" unicode="&#x649;" horiz-adv-x="888" arabic-form="medial" 
d="M760 0q-70 0 -127 42t-76 105q-23 -63 -85 -105t-134 -42h-340v152h338q65 0 107 42.5t42 104.5v426l129 6v-432q0 -62 43 -104.5t107 -42.5h127q13 0 18.5 -28.5t5.5 -51.5q0 -25 -6.5 -48.5t-17.5 -23.5h-131z" />
    <glyph glyph-name="uni06CC.fina" unicode="&#x6cc;" horiz-adv-x="1546" arabic-form="final" 
d="M1546 152q14 0 21.5 -24t7.5 -52q0 -19 -8 -47.5t-21 -28.5h-143q16 -16 16 -53q0 -14 -4 -60q-12 -144 -127 -239q-96 -79 -256.5 -107t-421.5 -28q-119 0 -220.5 58t-160.5 158t-59 218v569l135 6v-555q0 -130 87.5 -216.5t217.5 -86.5q238 0 370 16.5t218 73.5
q101 65 115 148q2 12 2 49q0 28 -13.5 38.5t-54.5 10.5h-590l25 152h864z" />
    <glyph glyph-name="uni06CC.init" unicode="&#x6cc;" horiz-adv-x="854" arabic-form="initial" 
d="M-2 0v152h408q63 0 111.5 41.5t45.5 99.5l-22 498l141 12v-545q0 -111 -75.5 -184.5t-190.5 -73.5h-418zM305 -328l191 -98l-539 -14v112h348zM244 -432v104h311l37 -20v-76z" />
    <glyph glyph-name="uni06CC.medi" unicode="&#x6cc;" horiz-adv-x="888" arabic-form="medial" 
d="M760 0q-70 0 -127 42t-76 105q-23 -63 -85 -105t-134 -42h-340v152h338q65 0 107 42.5t42 104.5v426l129 6v-432q0 -62 43 -104.5t107 -42.5h127q13 0 18.5 -28.5t5.5 -51.5q0 -25 -6.5 -48.5t-17.5 -23.5h-131zM362 -328l191 -98l-539 -14v112h348zM301 -432v104h311
l37 -20v-76z" />
    <glyph glyph-name="uni0651064C" unicode="&#xfc5e;" arabic-form="isolated" 
d="M188 311l74 6v-186q0 -59 -38 -95t-101 -36q-51 0 -86.5 26.5t-38.5 67.5q-4 -41 -42 -67.5t-89 -26.5q-60 0 -96.5 36t-36.5 95v164l69 -2l-16 -148q-3 -35 21.5 -58.5t62.5 -23.5q40 0 67 24t27 60v111l62 2v-115q2 -36 27.5 -59t64.5 -23t63 22.5t21 57.5zM-139 532
q12 26 4.5 40t-33.5 10l-94 -21l-4 45l106 19q53 9 74 -18.5t-2 -76.5l-37 -75l137 34l-32 129q-6 28 9 55t44 34l88 24l96 -49l25 -104q12 -45 -5.5 -77.5t-56.5 -41.5l-344 -74l-16 57zM170 528q14 5 21.5 20t3.5 30l-23 69l-51 27l-58 -17q-15 -3 -23 -16.5t-5 -28.5
l22 -112z" />
    <glyph glyph-name="uni0651064D" unicode="&#xfc5f;" arabic-form="isolated" 
d="M217 166l25 -66l-432 -100l-17 59zM211 379l22 -62l-428 -104l-20 63zM193 797l73 6v-187q0 -59 -38 -95t-101 -36q-51 0 -86.5 27t-38.5 68q-4 -41 -42 -68t-89 -27q-60 0 -96.5 36t-36.5 95v164l69 -2l-16 -147q-3 -35 21.5 -58.5t62.5 -23.5q40 0 67 24t27 60v110
l62 2v-114q2 -36 27.5 -59t64.5 -23t63 22.5t21 57.5z" />
    <glyph glyph-name="uni0651064E" unicode="&#xfc60;" arabic-form="isolated" 
d="M188 311l74 6v-186q0 -59 -38 -95t-101 -36q-51 0 -86.5 26.5t-38.5 67.5q-4 -41 -42 -67.5t-89 -26.5q-60 0 -96.5 36t-36.5 95v164l69 -2l-16 -148q-3 -35 21.5 -58.5t62.5 -23.5q40 0 67 24t27 60v111l62 2v-115q2 -36 27.5 -59t64.5 -23t63 22.5t21 57.5zM-209 389
l-16 57l424 109l24 -66z" />
    <glyph glyph-name="uni0651064F" unicode="&#xfc61;" arabic-form="isolated" 
d="M188 311l74 6v-186q0 -59 -38 -95t-101 -36q-51 0 -86.5 26.5t-38.5 67.5q-4 -41 -42 -67.5t-89 -26.5q-60 0 -96.5 36t-36.5 95v164l69 -2l-16 -148q-3 -35 21.5 -58.5t62.5 -23.5q40 0 67 24t27 60v111l62 2v-115q2 -36 27.5 -59t64.5 -23t63 22.5t21 57.5zM-223 449
l186 49l-33 129q-7 29 8 55t44 35l90 22l94 -49l27 -104q11 -44 -6.5 -76t-57.5 -41l-334 -80zM117 537q15 3 24 18.5t4 30.5l-24 71l-49 25l-60 -14q-15 -3 -22 -16t-4 -31l22 -113z" />
    <glyph glyph-name="uni06510650" unicode="&#xfc62;" arabic-form="isolated" 
d="M188 553l74 6v-186q0 -59 -38 -95t-101 -36q-51 0 -86.5 26.5t-38.5 67.5q-4 -41 -42 -67.5t-89 -26.5q-60 0 -96.5 36t-36.5 95v164l69 -2l-16 -148q-3 -35 21.5 -58.5t62.5 -23.5q40 0 67 24t27 60v111l62 2v-115q2 -36 27.5 -59t64.5 -23t63 22.5t21 57.5zM-199 2
l-16 59l424 107l24 -66z" />
    <glyph glyph-name="uni06510670" unicode="&#xfc63;" arabic-form="isolated" 
d="M188 311l74 6v-186q0 -59 -38 -95t-101 -36q-51 0 -86.5 26.5t-38.5 67.5q-4 -41 -42 -67.5t-89 -26.5q-60 0 -96.5 36t-36.5 95v164l69 -2l-16 -148q-3 -35 21.5 -58.5t62.5 -23.5q40 0 67 24t27 60v111l62 2v-115q2 -36 27.5 -59t64.5 -23t63 22.5t21 57.5zM-29 674
l56 10l-2 -285l-39 -6z" />
    <glyph glyph-name="uni06260631.fina" unicode="&#xfc64;" horiz-adv-x="1447" arabic-form="final" 
d="M758 977l-27 63l78 43q-25 3 -45 39l-47 84q-18 34 -21 60q0 24 13 57q3 8 12 36.5t16 47.5l101 49q39 19 75.5 8t61.5 -47l12 -24l-43 -21q-43 53 -94 27l-70 -39q-9 -29 -18 -64q-4 -20 -4 -30q0 -22 16 -54l37 -65q19 -33 41 -35.5t63 23.5l189 114l33 -61zM1436 0
q-158 0 -235 57t-97 189l-60 375l-446 -15l-111 -123v-546q0 -97 -44.5 -180.5t-125 -146.5t-184.5 -109t-231 -76l-52 159q142 27 257 77.5t188.5 125t75.5 158.5l-23 583l205 211l545 17l57 -39l53 -422q11 -80 61.5 -111.5t168.5 -31.5h12q13 0 20 -28.5t7 -47.5
q0 -16 -8.5 -46t-18.5 -30h-14z" />
    <glyph glyph-name="uni06260632.fina" unicode="&#xfc65;" horiz-adv-x="1447" arabic-form="final" 
d="M1436 0q-158 0 -235 57t-97 189l-60 375l-446 -15l-111 -123v-546q0 -97 -44.5 -180.5t-125 -146.5t-184.5 -109t-231 -76l-52 159q142 27 257 77.5t188.5 125t75.5 158.5l-23 583l205 211l545 17l57 -39l53 -422q11 -80 61.5 -111.5t168.5 -31.5h12q13 0 20 -28.5
t7 -47.5q0 -16 -8.5 -46t-18.5 -30h-14zM829 973l-26 63l78 43q-25 3 -45 39l-48 84q-16 32 -20 60q0 27 12 57q1 3 11.5 33.5t17.5 50.5l100 49q39 19 76 8t62 -47l12 -24l-43 -21q-43 53 -94 27l-70 -39q-9 -29 -18 -64q-5 -25 -5 -30q0 -20 17 -54l37 -65
q19 -33 40.5 -36t63.5 23l189 115l32 -61zM293 997v160l182 10v-170h-182z" />
    <glyph glyph-name="uni06260646.fina" unicode="&#xfc67;" horiz-adv-x="2320" arabic-form="final" 
d="M2292 0q-154 0 -231 57.5t-97 188.5l-57 375l-449 -15l-110 -119l4 -487q2 -218 -183.5 -327t-560.5 -109q-180 0 -309 128t-129 308v559l135 4v-538q0 -129 88 -218.5t215 -89.5q637 0 625 308l-23 503l205 211l543 17l59 -39l54 -422q10 -81 60 -112t169 -31h20
q9 0 17.5 -22t9.5 -54q1 -24 -8.5 -50t-18.5 -26h-28zM1626 997l-27 64l78 43q-25 3 -45 39l-47 84q-17 32 -20 59q0 27 12 57q1 3 11.5 33.5t17.5 50.5l100 50q39 19 75.5 8t61.5 -47l12 -25l-43 -20q-42 53 -94 26l-69 -39q-15 -46 -19 -63q-4 -20 -4 -31q0 -21 16 -53
l37 -66q19 -32 41.5 -35t63.5 23l188 115l33 -62zM649 680v160l182 10v-170h-182z" />
    <glyph glyph-name="uni0626064A.fina" unicode="&#xfc69;" horiz-adv-x="2000" arabic-form="final" 
d="M2003 0q-158 0 -259.5 75t-227.5 285l-154 252q-67 113 -186 113h-236l-164 -141l-14 -355q-1 -60 25.5 -84t89.5 -24h383q86 0 118.5 -32t32.5 -97v-55q0 -100 -39.5 -175t-108 -123t-171.5 -77.5t-219 -41.5t-263 -12q-180 0 -310 128t-130 305v571l135 4v-553
q0 -128 87 -215.5t214 -87.5q624 -8 692 203q9 30 9 84q0 28 -13.5 38.5t-54.5 10.5h-403q-102 0 -145.5 43t-43.5 147v437l260 231h295q99 0 165.5 -41.5t117.5 -134.5l125 -232q88 -161 176.5 -227.5t214.5 -66.5q29 0 29 -76q0 -17 -7.5 -46.5t-19.5 -29.5zM922 1096
l-27 63l78 43q-25 3 -45 39l-47 84q-18 34 -21 59q0 28 12 58q1 3 11.5 33.5t17.5 50.5l100 49q39 19 76 8t62 -47l12 -25l-43 -20q-43 53 -94 27l-70 -39q-9 -29 -18 -64q-4 -20 -4 -31q0 -21 16 -53l37 -65q19 -33 40.5 -36t63.5 23l189 115l32 -61z" />
    <glyph glyph-name="uni06280631.fina" unicode="&#xfc6a;" horiz-adv-x="1447" arabic-form="final" 
d="M1436 0q-158 0 -235 57t-97 189l-60 375l-446 -15l-111 -123v-546q0 -97 -44.5 -180.5t-125 -146.5t-184.5 -109t-231 -76l-52 159q142 27 257 77.5t188.5 125t75.5 158.5l-23 583l205 211l545 17l57 -39l53 -422q11 -80 61.5 -111.5t168.5 -31.5h12q13 0 20 -28.5
t7 -47.5q0 -16 -8.5 -46t-18.5 -30h-14zM803 -477v160l180 10v-170h-180z" />
    <glyph glyph-name="uni06280632.fina" unicode="&#xfc6b;" horiz-adv-x="1447" arabic-form="final" 
d="M1436 0q-158 0 -235 57t-97 189l-60 375l-446 -15l-111 -123v-546q0 -97 -44.5 -180.5t-125 -146.5t-184.5 -109t-231 -76l-52 159q142 27 257 77.5t188.5 125t75.5 158.5l-23 583l205 211l545 17l57 -39l53 -422q11 -80 61.5 -111.5t168.5 -31.5h12q13 0 20 -28.5
t7 -47.5q0 -16 -8.5 -46t-18.5 -30h-14zM803 -477v160l180 10v-170h-180zM301 997v160l182 10v-170h-182z" />
    <glyph glyph-name="uni06280646.fina" unicode="&#xfc6d;" horiz-adv-x="2320" arabic-form="final" 
d="M2292 0q-154 0 -231 57.5t-97 188.5l-57 375l-449 -15l-110 -119l4 -487q2 -218 -183.5 -327t-560.5 -109q-180 0 -309 128t-129 308v559l135 4v-538q0 -129 88 -218.5t215 -89.5q637 0 625 308l-23 503l205 211l543 17l59 -39l54 -422q10 -81 60 -112t169 -31h20
q9 0 17.5 -22t9.5 -54q1 -24 -8.5 -50t-18.5 -26h-28zM649 680v160l182 10v-170h-182zM1669 -354v159l180 11v-170h-180z" />
    <glyph glyph-name="uni0628064A.fina" unicode="&#xfc6f;" horiz-adv-x="2000" arabic-form="final" 
d="M2003 0q-158 0 -259.5 75t-227.5 285l-154 252q-67 113 -186 113h-236l-164 -141l-14 -355q-1 -60 25.5 -84t89.5 -24h383q86 0 118.5 -32t32.5 -97v-55q0 -100 -39.5 -175t-108 -123t-171.5 -77.5t-219 -41.5t-263 -12q-180 0 -310 128t-130 305v571l135 4v-553
q0 -128 87 -215.5t214 -87.5q624 -8 692 203q9 30 9 84q0 28 -13.5 38.5t-54.5 10.5h-403q-102 0 -145.5 43t-43.5 147v437l260 231h295q99 0 165.5 -41.5t117.5 -134.5l125 -232q88 -161 176.5 -227.5t214.5 -66.5q29 0 29 -76q0 -17 -7.5 -46.5t-19.5 -29.5zM1593 -436
v160l181 10v-170h-181z" />
    <glyph glyph-name="uni062A0631.fina" unicode="&#xfc70;" horiz-adv-x="1447" arabic-form="final" 
d="M1008 1157l190 -98l-539 -15v113h349zM946 1053v104h311l37 -18v-78zM1436 0q-158 0 -235 57t-97 189l-60 375l-446 -15l-111 -123v-546q0 -97 -44.5 -180.5t-125 -146.5t-184.5 -109t-231 -76l-52 159q142 27 257 77.5t188.5 125t75.5 158.5l-23 583l205 211l545 17
l57 -39l53 -422q11 -80 61.5 -111.5t168.5 -31.5h12q13 0 20 -28.5t7 -47.5q0 -16 -8.5 -46t-18.5 -30h-14z" />
    <glyph glyph-name="uni062A0632.fina" unicode="&#xfc71;" horiz-adv-x="1452" arabic-form="final" 
d="M281 997v160l182 10v-170h-182zM1438 0q-158 0 -235 57t-97 189l-59 375l-447 -15l-111 -123v-546q0 -97 -44.5 -180.5t-125 -146.5t-184.5 -109t-231 -76l-51 159q142 27 257 77.5t188 125t75 158.5l-23 583l205 211l545 17l57 -39l53 -422q11 -80 61.5 -111.5
t168.5 -31.5h12q13 0 20 -28.5t7 -47.5q0 -16 -8.5 -46t-18.5 -30h-14zM1004 1157l190 -98l-539 -15v113h349zM942 1053v104h311l37 -18v-78z" />
    <glyph glyph-name="uni062A0646.fina" unicode="&#xfc73;" horiz-adv-x="2320" arabic-form="final" 
d="M649 680v160l182 10v-170h-182zM1817 1155l190 -98l-539 -15v113h349zM1755 1051v104h311l37 -18v-78zM2292 0q-154 0 -231 57.5t-97 188.5l-57 375l-449 -15l-110 -119l4 -487q2 -218 -183.5 -327t-560.5 -109q-180 0 -309 128t-129 308v559l135 4v-538
q0 -129 88 -218.5t215 -89.5q637 0 625 308l-23 503l205 211l543 17l59 -39l54 -422q10 -81 60 -112t169 -31h20q9 0 17.5 -22t9.5 -54q1 -24 -8.5 -50t-18.5 -26h-28z" />
    <glyph glyph-name="uni062A064A.fina" unicode="&#xfc75;" horiz-adv-x="2000" arabic-form="final" 
d="M1110 1264l190 -99l-538 -14v113h348zM1049 1159v105h311l37 -19v-78zM2003 0q-158 0 -259.5 75t-227.5 285l-154 252q-67 113 -186 113h-236l-164 -141l-14 -355q-1 -60 25.5 -84t89.5 -24h383q86 0 118.5 -32t32.5 -97v-55q0 -100 -39.5 -175t-108 -123t-171.5 -77.5
t-219 -41.5t-263 -12q-180 0 -310 128t-130 305v571l135 4v-553q0 -128 87 -215.5t214 -87.5q624 -8 692 203q9 30 9 84q0 28 -13.5 38.5t-54.5 10.5h-403q-102 0 -145.5 43t-43.5 147v437l260 231h295q99 0 165.5 -41.5t117.5 -134.5l125 -232q88 -161 176.5 -227.5
t214.5 -66.5q29 0 29 -76q0 -17 -7.5 -46.5t-19.5 -29.5z" />
    <glyph glyph-name="uni062B0631.fina" unicode="&#xfc76;" horiz-adv-x="1447" arabic-form="final" 
d="M1436 0q-158 0 -235 57t-97 189l-60 375l-446 -15l-111 -123v-546q0 -97 -44.5 -180.5t-125 -146.5t-184.5 -109t-231 -76l-52 159q142 27 257 77.5t188.5 125t75.5 158.5l-23 583l205 211l545 17l57 -39l53 -422q11 -80 61.5 -111.5t168.5 -31.5h12q13 0 20 -28.5
t7 -47.5q0 -16 -8.5 -46t-18.5 -30h-14zM891 1337v146l164 8v-154h-164zM1004 1155l190 -98l-539 -15v113h349zM942 1051v104h311l37 -18v-78z" />
    <glyph glyph-name="uni062B0632.fina" unicode="&#xfc77;" horiz-adv-x="1511" arabic-form="final" 
d="M1436 0q-158 0 -235 57t-97 189l-60 375l-446 -15l-111 -123v-546q0 -97 -44.5 -180.5t-125 -146.5t-184.5 -109t-231 -76l-52 159q142 27 257 77.5t188.5 125t75.5 158.5l-23 583l205 211l545 17l57 -39l53 -422q11 -80 61.5 -111.5t168.5 -31.5h12q13 0 20 -28.5
t7 -47.5q0 -16 -8.5 -46t-18.5 -30h-14zM272 997v160l183 10v-170h-183zM891 1337v146l164 8v-154h-164zM1004 1155l190 -98l-539 -15v113h349zM942 1051v104h311l37 -18v-78zM1511 152q12 0 19.5 -23.5t7.5 -52.5t-7.5 -52.5t-19.5 -23.5h-63v152h63z" />
    <glyph glyph-name="uni062B0646.fina" unicode="&#xfc79;" horiz-adv-x="2320" arabic-form="final" 
d="M649 680v160l182 10v-170h-182zM1700 1337v146l164 8v-154h-164zM1812 1155l191 -98l-539 -15v113h348zM1751 1051v104h311l37 -18v-78zM2292 0q-154 0 -231 57.5t-97 188.5l-57 375l-449 -15l-110 -119l4 -487q2 -218 -183.5 -327t-560.5 -109q-180 0 -309 128t-129 308
v559l135 4v-538q0 -129 88 -218.5t215 -89.5q637 0 625 308l-23 503l205 211l543 17l59 -39l54 -422q10 -81 60 -112t169 -31h20q9 0 17.5 -22t9.5 -54q1 -24 -8.5 -50t-18.5 -26h-28z" />
    <glyph glyph-name="uni062B064A.fina" unicode="&#xfc7b;" horiz-adv-x="2000" arabic-form="final" 
d="M1001 1448v145l164 9v-154h-164zM1114 1266l191 -99l-539 -14v113h348zM1053 1161v105h311l37 -19v-78zM2003 0q-158 0 -259.5 75t-227.5 285l-154 252q-67 113 -186 113h-236l-164 -141l-14 -355q-1 -60 25.5 -84t89.5 -24h383q86 0 118.5 -32t32.5 -97v-55
q0 -100 -39.5 -175t-108 -123t-171.5 -77.5t-219 -41.5t-263 -12q-180 0 -310 128t-130 305v571l135 4v-553q0 -128 87 -215.5t214 -87.5q624 -8 692 203q9 30 9 84q0 28 -13.5 38.5t-54.5 10.5h-403q-102 0 -145.5 43t-43.5 147v437l260 231h295q99 0 165.5 -41.5
t117.5 -134.5l125 -232q88 -161 176.5 -227.5t214.5 -66.5q29 0 29 -76q0 -17 -7.5 -46.5t-19.5 -29.5z" />
    <glyph glyph-name="uni06460631.fina" unicode="&#xfc8a;" horiz-adv-x="1447" arabic-form="final" 
d="M850 1053v159l182 11v-170h-182zM1436 0q-158 0 -235 57t-97 189l-60 375l-446 -15l-111 -123v-546q0 -97 -44.5 -180.5t-125 -146.5t-184.5 -109t-231 -76l-52 159q142 27 257 77.5t188.5 125t75.5 158.5l-23 583l205 211l545 17l57 -39l53 -422q11 -80 61.5 -111.5
t168.5 -31.5h12q13 0 20 -28.5t7 -47.5q0 -16 -8.5 -46t-18.5 -30h-14z" />
    <glyph glyph-name="uni06460632.fina" unicode="&#xfc8b;" horiz-adv-x="1447" arabic-form="final" 
d="M1436 0q-158 0 -235 57t-97 189l-60 375l-446 -15l-111 -123v-546q0 -97 -44.5 -180.5t-125 -146.5t-184.5 -109t-231 -76l-52 159q142 27 257 77.5t188.5 125t75.5 158.5l-23 583l205 211l545 17l57 -39l53 -422q11 -80 61.5 -111.5t168.5 -31.5h12q13 0 20 -28.5
t7 -47.5q0 -16 -8.5 -46t-18.5 -30h-14zM848 1053v159l182 11v-170h-182zM313 1004v159l183 11v-170h-183z" />
    <glyph glyph-name="uni06460646.fina" unicode="&#xfc8d;" horiz-adv-x="2320" arabic-form="final" 
d="M1610 1053v159l180 11v-170h-180zM649 680v160l182 10v-170h-182zM2292 0q-154 0 -231 57.5t-97 188.5l-57 375l-449 -15l-110 -119l4 -487q2 -218 -183.5 -327t-560.5 -109q-180 0 -309 128t-129 308v559l135 4v-538q0 -129 88 -218.5t215 -89.5q637 0 625 308l-23 503
l205 211l543 17l59 -39l54 -422q10 -81 60 -112t169 -31h20q9 0 17.5 -22t9.5 -54q1 -24 -8.5 -50t-18.5 -26h-28z" />
    <glyph glyph-name="uni0646064A.fina" unicode="&#xfc8f;" horiz-adv-x="2000" arabic-form="final" 
d="M1171 1153h-182v170l182 -10v-160zM2003 0q-158 0 -259.5 75t-227.5 285l-154 252q-67 113 -186 113h-236l-164 -141l-14 -355q-1 -60 25.5 -84t89.5 -24h383q86 0 118.5 -32t32.5 -97v-55q0 -100 -39.5 -175t-108 -123t-171.5 -77.5t-219 -41.5t-263 -12
q-180 0 -310 128t-130 305v571l135 4v-553q0 -128 87 -215.5t214 -87.5q624 -8 692 203q9 30 9 84q0 28 -13.5 38.5t-54.5 10.5h-403q-102 0 -145.5 43t-43.5 147v437l260 231h295q99 0 165.5 -41.5t117.5 -134.5l125 -232q88 -161 176.5 -227.5t214.5 -66.5q29 0 29 -76
q0 -17 -7.5 -46.5t-19.5 -29.5z" />
    <glyph glyph-name="uni064A0631.fina" unicode="&#xfc91;" horiz-adv-x="1509" arabic-form="final" 
d="M1436 0q-158 0 -235 57t-97 189l-60 375l-446 -15l-111 -123v-546q0 -97 -44.5 -180.5t-125 -146.5t-184.5 -109t-231 -76l-52 159q142 27 257 77.5t188.5 125t75.5 158.5l-23 583l205 211l545 17l57 -39l53 -422q11 -80 61.5 -111.5t168.5 -31.5h12q13 0 20 -28.5
t7 -47.5q0 -16 -8.5 -46t-18.5 -30h-14zM1001 -307l191 -99l-539 -14v113h348zM940 -412v105h311l37 -21v-75zM1509 152q13 0 21 -23t8 -53t-8 -53t-21 -23h-63v152h63z" />
    <glyph glyph-name="uni064A0632.fina" unicode="&#xfc92;" horiz-adv-x="1509" arabic-form="final" 
d="M1436 0q-158 0 -235 57t-97 189l-60 375l-446 -15l-111 -123v-546q0 -97 -44.5 -180.5t-125 -146.5t-184.5 -109t-231 -76l-52 159q142 27 257 77.5t188.5 125t75.5 158.5l-23 583l205 211l545 17l57 -39l53 -422q11 -80 61.5 -111.5t168.5 -31.5h12q13 0 20 -28.5
t7 -47.5q0 -16 -8.5 -46t-18.5 -30h-14zM1001 -307l191 -99l-539 -14v113h348zM940 -412v105h311l37 -21v-75zM1509 152q13 0 21 -23t8 -53t-8 -53t-21 -23h-63v152h63zM307 997v160l182 10v-170h-182z" />
    <glyph glyph-name="uni064A0646.fina" unicode="&#xfc94;" horiz-adv-x="2320" arabic-form="final" 
d="M2292 0q-154 0 -231 57.5t-97 188.5l-57 375l-449 -15l-110 -119l4 -487q2 -218 -183.5 -327t-560.5 -109q-180 0 -309 128t-129 308v559l135 4v-538q0 -129 88 -218.5t215 -89.5q637 0 625 308l-23 503l205 211l543 17l59 -39l54 -422q10 -81 60 -112t169 -31h20
q9 0 17.5 -22t9.5 -54q1 -24 -8.5 -50t-18.5 -26h-28zM649 680v160l182 10v-170h-182zM1851 -293l191 -98l-539 -15v113h348zM1790 -397v104h311l37 -20v-76z" />
    <glyph glyph-name="uni064A064A.fina" unicode="&#xfc96;" horiz-adv-x="2000" arabic-form="final" 
d="M2003 0q-158 0 -259.5 75t-227.5 285l-154 252q-67 113 -186 113h-236l-164 -141l-14 -355q-1 -60 25.5 -84t89.5 -24h383q86 0 118.5 -32t32.5 -97v-55q0 -100 -39.5 -175t-108 -123t-171.5 -77.5t-219 -41.5t-263 -12q-180 0 -310 128t-130 305v571l135 4v-553
q0 -128 87 -215.5t214 -87.5q624 -8 692 203q9 30 9 84q0 28 -13.5 38.5t-54.5 10.5h-403q-102 0 -145.5 43t-43.5 147v437l260 231h295q99 0 165.5 -41.5t117.5 -134.5l125 -232q88 -161 176.5 -227.5t214.5 -66.5q29 0 29 -76q0 -17 -7.5 -46.5t-19.5 -29.5zM1659 -453
l190 -98l-538 -14v112h348zM1597 -557v104h312l37 -20v-76z" />
    <glyph glyph-name="uni0633064A" unicode="&#xfcfc;" horiz-adv-x="3203" arabic-form="isolated" 
d="M2585 0q-97 0 -171.5 45.5t-97.5 118.5q-41 -74 -122.5 -119t-180.5 -45q-163 0 -265 73.5t-228 280.5l-146 242q-39 66 -82.5 96.5t-101.5 30.5l-250 2l-164 -143l-14 -353q-1 -60 25.5 -84t89.5 -24h385q83 0 116 -31.5t33 -97.5q0 -36 -4 -98q-7 -108 -68 -185
t-170.5 -120t-245.5 -62t-313 -19q-180 0 -310 127.5t-130 305.5v571l135 4v-553q0 -128 87 -215.5t214 -87.5q618 0 692 203q9 23 9 82q0 30 -15 39.5t-65 9.5h-396q-100 0 -141 43.5t-41 148.5v437l258 231h295q98 0 164 -39.5t111 -122.5l131 -237q90 -164 180 -233.5
t217 -69.5q94 0 160.5 41.5t83.5 113.5l73 416l132 2l-74 -420q-6 -61 50 -107t132 -46h98q112 0 182.5 38.5t69.5 118.5l-22 479l141 15v-512q0 -141 -99 -216t-261 -75h-86z" />
    <glyph glyph-name="uni0634064A" unicode="&#xfcfe;" horiz-adv-x="3203" arabic-form="isolated" 
d="M2269 1282v145l164 9v-154h-164zM2382 1100l190 -99l-538 -14v113h348zM2320 995v105h312l37 -19v-77zM2585 0q-97 0 -171.5 45.5t-97.5 118.5q-41 -74 -122.5 -119t-180.5 -45q-163 0 -265 73.5t-228 280.5l-146 242q-39 66 -82.5 96.5t-101.5 30.5l-250 2l-164 -143
l-14 -353q-1 -60 25.5 -84t89.5 -24h385q83 0 116 -31.5t33 -97.5q0 -36 -4 -98q-7 -108 -68 -185t-170.5 -120t-245.5 -62t-313 -19q-180 0 -310 127.5t-130 305.5v571l135 4v-553q0 -128 87 -215.5t214 -87.5q618 0 692 203q9 23 9 82q0 30 -15 39.5t-65 9.5h-396
q-100 0 -141 43.5t-41 148.5v437l258 231h295q98 0 164 -39.5t111 -122.5l131 -237q90 -164 180 -233.5t217 -69.5q94 0 160.5 41.5t83.5 113.5l73 416l132 2l-74 -420q-6 -61 50 -107t132 -46h98q112 0 182.5 38.5t69.5 118.5l-22 479l141 15v-512q0 -141 -99 -216
t-261 -75h-86z" />
    <glyph glyph-name="uni0635064A" unicode="&#xfd06;" horiz-adv-x="3035" arabic-form="isolated" 
d="M2005 0q-155 0 -257 73.5t-228 280.5l-162 267q-60 102 -168 102l-248 2l-166 -143l-14 -353q-1 -60 25.5 -84t89.5 -24h395q75 0 107 -33t32 -96v-53q0 -100 -39.5 -175.5t-108 -123.5t-171.5 -78t-219.5 -42t-262.5 -12q-180 0 -310 127.5t-130 305.5v571l135 4v-553
q0 -128 87 -215.5t214 -87.5q112 0 200.5 4.5t176 18t149 35.5t106 58.5t60.5 86.5q9 30 9 84q0 28 -13.5 38.5t-54.5 10.5h-403q-102 0 -144.5 43t-42.5 147v437l258 231h295q99 0 165 -42.5t118 -133.5l108 -199q74 -136 156 -215l219 338q71 112 124.5 162t123.5 72
q117 43 410 43l239 -215v-406q0 -108 -76 -183t-182 -75h-602zM2601 152q61 0 107.5 47.5t44.5 107.5l-13 297l-162 144q-187 0 -294 -37q-139 -42 -224 -174l-211 -330q79 -55 205 -55h547z" />
    <glyph glyph-name="uni0636064A" unicode="&#xfd08;" horiz-adv-x="3035" arabic-form="isolated" 
d="M2339 1161v160l182 10v-170h-182zM2005 0q-155 0 -257 73.5t-228 280.5l-162 267q-60 102 -168 102l-248 2l-166 -143l-14 -353q-1 -60 25.5 -84t89.5 -24h395q75 0 107 -33t32 -96v-53q0 -100 -39.5 -175.5t-108 -123.5t-171.5 -78t-219.5 -42t-262.5 -12
q-180 0 -310 127.5t-130 305.5v571l135 4v-553q0 -128 87 -215.5t214 -87.5q112 0 200.5 4.5t176 18t149 35.5t106 58.5t60.5 86.5q9 30 9 84q0 28 -13.5 38.5t-54.5 10.5h-403q-102 0 -144.5 43t-42.5 147v437l258 231h295q99 0 165 -42.5t118 -133.5l108 -199
q74 -136 156 -215l219 338q71 112 124.5 162t123.5 72q117 43 410 43l239 -215v-406q0 -108 -76 -183t-182 -75h-602zM2601 152q61 0 107.5 47.5t44.5 107.5l-13 297l-162 144q-187 0 -294 -37q-139 -42 -224 -174l-211 -330q79 -55 205 -55h547z" />
    <glyph glyph-name="uni06340631" unicode="&#xfd0d;" horiz-adv-x="2646" arabic-form="isolated" 
d="M1753 1282v145l164 9v-154h-164zM1866 1100l190 -99l-538 -14v113h348zM1804 995v105h312l36 -19v-77zM2019 0q-92 0 -165 46.5t-95 117.5q-42 -73 -131 -118.5t-192 -45.5q-176 0 -258.5 63.5t-114.5 219.5l-72 338l-393 -39l-111 -101v-544q0 -97 -44.5 -180.5
t-125 -146.5t-185 -109t-232.5 -76l-50 159q139 26 254 76.5t189 125.5t76 159l-21 577l211 193l483 45l62 -45l70 -385q19 -103 72.5 -140.5t183.5 -37.5q97 0 171 43t91 112l73 416l131 2l-73 -420q-6 -61 49 -107t133 -46h90q116 0 188.5 38.5t71.5 118.5l-22 482l141 12
v-512q0 -143 -99.5 -217t-267.5 -74h-88z" />
    <glyph glyph-name="uni06330631" unicode="&#xfd0e;" horiz-adv-x="2646" arabic-form="isolated" 
d="M2019 0q-92 0 -165 46.5t-95 117.5q-42 -73 -131 -118.5t-192 -45.5q-176 0 -258.5 63.5t-114.5 219.5l-72 338l-393 -39l-111 -101v-544q0 -97 -44.5 -180.5t-125 -146.5t-185 -109t-232.5 -76l-50 159q139 26 254 76.5t189 125.5t76 159l-21 577l211 193l483 45l62 -45
l70 -385q19 -103 72.5 -140.5t183.5 -37.5q97 0 171 43t91 112l73 416l131 2l-73 -420q-6 -61 49 -107t133 -46h90q116 0 188.5 38.5t71.5 118.5l-22 482l141 12v-512q0 -143 -99.5 -217t-267.5 -74h-88z" />
    <glyph glyph-name="uni06350631" unicode="&#xfd0f;" horiz-adv-x="2486" arabic-form="isolated" 
d="M559 715l483 45l62 -45l63 -334q16 -76 35 -111l232 357q69 105 121.5 149t134.5 66q124 37 383 37l241 -215v-406q0 -108 -75.5 -183t-180.5 -75h-618q-177 0 -261.5 64t-115.5 219l-72 338l-391 -39l-113 -105v-540q0 -97 -44 -180.5t-124.5 -146t-185 -108.5
t-233.5 -77l-50 159q141 27 256 77.5t188 125t75 158.5l-21 577zM2050 152q60 0 106 46t46 109l-13 299l-159 144q-189 0 -308 -43q-81 -23 -118 -53t-93 -117l-217 -332q53 -53 207 -53h549z" />
    <glyph glyph-name="uni06360631" unicode="&#xfd10;" horiz-adv-x="2486" arabic-form="isolated" 
d="M1788 1147v160l182 10v-170h-182zM559 715l483 45l62 -45l63 -334q16 -76 35 -111l232 357q69 105 121.5 149t134.5 66q124 37 383 37l241 -215v-406q0 -108 -75.5 -183t-180.5 -75h-618q-177 0 -261.5 64t-115.5 219l-72 338l-391 -39l-113 -105v-540q0 -97 -44 -180.5
t-124.5 -146t-185 -108.5t-233.5 -77l-50 159q141 27 256 77.5t188 125t75 158.5l-21 577zM2050 152q60 0 106 46t46 109l-13 299l-159 144q-189 0 -308 -43q-81 -23 -118 -53t-93 -117l-217 -332q53 -53 207 -53h549z" />
    <glyph glyph-name="uni0633064A.fina" unicode="&#xfd18;" horiz-adv-x="3289" arabic-form="final" 
d="M2585 0q-97 0 -171.5 45.5t-97.5 118.5q-42 -74 -123 -119t-180 -45q-163 0 -265 73.5t-228 280.5l-146 242q-39 66 -82 96.5t-102 30.5l-250 2l-164 -143l-14 -353q-1 -60 25.5 -84t89.5 -24h385q83 0 116 -31.5t33 -97.5q0 -36 -4 -98q-9 -88 -52.5 -155t-113 -110.5
t-169.5 -70.5t-212 -38.5t-250 -11.5q-117 0 -218.5 57.5t-161.5 157.5t-60 218v571l135 4v-553q0 -128 87 -215.5t214 -87.5q109 0 197 5t175 18.5t149 35.5t108 58.5t63 85.5q9 26 9 82q0 30 -15 39.5t-65 9.5h-396q-100 0 -141 43.5t-41 148.5v437l258 231h295
q98 0 164 -39.5t111 -122.5l131 -237q92 -166 181.5 -234.5t215.5 -68.5q97 0 162 41.5t82 113.5l73 416l132 2l-74 -420q-6 -61 49.5 -107t132.5 -46h98q71 0 126 15t90.5 51.5t33.5 90.5l-16 471l137 8v-497q0 -143 -98.5 -217t-261.5 -74h-86zM3181 0q-110 0 -173 89.5
t-65 242.5h86q3 -84 44 -132t112 -48h104q13 0 20 -30.5t7 -51.5q0 -23 -8 -46.5t-19 -23.5h-108z" />
    <glyph glyph-name="uni0634064A.fina" unicode="&#xfd1a;" horiz-adv-x="3289" arabic-form="final" 
d="M2269 1282v145l164 9v-154h-164zM2382 1100l190 -99l-538 -14v113h348zM2320 995v105h312l37 -19v-77zM2585 0q-97 0 -171.5 45.5t-97.5 118.5q-42 -74 -123 -119t-180 -45q-163 0 -265 73.5t-228 280.5l-146 242q-39 66 -82 96.5t-102 30.5l-250 2l-164 -143l-14 -353
q-1 -60 25.5 -84t89.5 -24h385q83 0 116 -31.5t33 -97.5q0 -36 -4 -98q-9 -88 -52.5 -155t-113 -110.5t-169.5 -70.5t-212 -38.5t-250 -11.5q-117 0 -218.5 57.5t-161.5 157.5t-60 218v571l135 4v-553q0 -128 87 -215.5t214 -87.5q109 0 197 5t175 18.5t149 35.5t108 58.5
t63 85.5q9 26 9 82q0 30 -15 39.5t-65 9.5h-396q-100 0 -141 43.5t-41 148.5v437l258 231h295q98 0 164 -39.5t111 -122.5l131 -237q92 -166 181.5 -234.5t215.5 -68.5q97 0 162 41.5t82 113.5l73 416l132 2l-74 -420q-6 -61 49.5 -107t132.5 -46h98q71 0 126 15t90.5 51.5
t33.5 90.5l-16 471l137 8v-497q0 -143 -98.5 -217t-261.5 -74h-86zM3181 0q-110 0 -173 89.5t-65 242.5h86q3 -84 44 -132t112 -48h104q13 0 20 -30.5t7 -51.5q0 -23 -8 -46.5t-19 -23.5h-108z" />
    <glyph glyph-name="uni0635064A.fina" unicode="&#xfd22;" horiz-adv-x="3125" arabic-form="final" 
d="M3017 0q-110 0 -173 89.5t-65 242.5h86q3 -84 44 -132t112 -48h104q13 0 20 -30.5t7 -51.5q0 -23 -8 -46.5t-19 -23.5h-108zM2005 0q-155 0 -257 73.5t-228 280.5l-162 267q-60 102 -168 102l-248 2l-166 -143l-14 -353q-1 -60 25.5 -84t89.5 -24h395q75 0 107 -33
t32 -96v-53q0 -100 -39.5 -175.5t-108 -123.5t-171.5 -78t-219.5 -42t-262.5 -12q-180 0 -310 127.5t-130 305.5v571l135 4v-553q0 -128 87 -215.5t214 -87.5q112 0 200.5 4.5t176 18t149 35.5t106 58.5t60.5 86.5q9 30 9 84q0 28 -13.5 38.5t-54.5 10.5h-403
q-102 0 -144.5 43t-42.5 147v437l258 231h295q99 0 165 -42.5t118 -133.5l108 -199q74 -136 156 -215l219 338q71 112 124.5 162t123.5 72q117 43 410 43l239 -215v-406q0 -108 -76 -183t-182 -75h-602zM2601 152q61 0 107.5 47.5t44.5 107.5l-13 297l-162 144
q-187 0 -294 -37q-139 -42 -224 -174l-211 -330q79 -55 205 -55h547z" />
    <glyph glyph-name="uni0636064A.fina" unicode="&#xfd24;" horiz-adv-x="3125" arabic-form="final" 
d="M2339 1161v160l182 10v-170h-182zM3017 0q-110 0 -173 89.5t-65 242.5h86q3 -84 44 -132t112 -48h104q13 0 20 -30.5t7 -51.5q0 -23 -8 -46.5t-19 -23.5h-108zM2005 0q-155 0 -257 73.5t-228 280.5l-162 267q-60 102 -168 102l-248 2l-166 -143l-14 -353q-1 -60 25.5 -84
t89.5 -24h395q75 0 107 -33t32 -96v-53q0 -100 -39.5 -175.5t-108 -123.5t-171.5 -78t-219.5 -42t-262.5 -12q-180 0 -310 127.5t-130 305.5v571l135 4v-553q0 -128 87 -215.5t214 -87.5q112 0 200.5 4.5t176 18t149 35.5t106 58.5t60.5 86.5q9 30 9 84q0 28 -13.5 38.5
t-54.5 10.5h-403q-102 0 -144.5 43t-42.5 147v437l258 231h295q99 0 165 -42.5t118 -133.5l108 -199q74 -136 156 -215l219 338q71 112 124.5 162t123.5 72q117 43 410 43l239 -215v-406q0 -108 -76 -183t-182 -75h-602zM2601 152q61 0 107.5 47.5t44.5 107.5l-13 297
l-162 144q-187 0 -294 -37q-139 -42 -224 -174l-211 -330q79 -55 205 -55h547z" />
    <glyph glyph-name="uni06340631.fina" unicode="&#xfd29;" horiz-adv-x="2734" arabic-form="final" 
d="M2019 0q-92 0 -165 46.5t-95 117.5q-42 -73 -130 -118.5t-193 -45.5q-176 0 -258.5 63.5t-114.5 219.5l-72 338l-393 -39l-111 -101v-544q0 -97 -44.5 -180.5t-125 -146.5t-185 -109t-232.5 -76l-50 159q139 26 254 76.5t189 125.5t76 159l-21 577l211 193l483 45l62 -45
l70 -385q19 -102 72.5 -140t183.5 -38q96 0 170.5 43t91.5 112l73 416l131 2l-73 -420q-6 -62 48.5 -107.5t133.5 -45.5h90q116 0 188.5 38.5t71.5 118.5l-18 471l137 8v-497q0 -143 -99 -217t-268 -74h-88zM2626 0q-110 0 -173 89.5t-65 242.5h86q3 -84 44 -132t112 -48
h104q13 0 20 -30.5t7 -51.5q0 -23 -8 -46.5t-19 -23.5h-108zM1757 1282v145l164 9v-154h-164zM1870 1100l190 -99l-538 -14v113h348zM1808 995v105h312l37 -19v-77z" />
    <glyph glyph-name="uni06330631.fina" unicode="&#xfd2a;" horiz-adv-x="2734" arabic-form="final" 
d="M2019 0q-92 0 -165 46.5t-95 117.5q-42 -73 -130 -118.5t-193 -45.5q-176 0 -258.5 63.5t-114.5 219.5l-72 338l-393 -39l-111 -101v-544q0 -97 -44.5 -180.5t-125 -146.5t-185 -109t-232.5 -76l-50 159q139 26 254 76.5t189 125.5t76 159l-21 577l211 193l483 45l62 -45
l70 -385q19 -102 72.5 -140t183.5 -38q96 0 170.5 43t91.5 112l73 416l131 2l-73 -420q-6 -62 48.5 -107.5t133.5 -45.5h90q116 0 188.5 38.5t71.5 118.5l-18 471l137 8v-497q0 -143 -99 -217t-268 -74h-88zM2626 0q-110 0 -173 89.5t-65 242.5h86q3 -84 44 -132t112 -48
h104q13 0 20 -30.5t7 -51.5q0 -23 -8 -46.5t-19 -23.5h-108z" />
    <glyph glyph-name="uni06350631.fina" unicode="&#xfd2b;" horiz-adv-x="2574" arabic-form="final" 
d="M2466 0q-110 0 -173 89.5t-65 242.5h86q3 -84 44 -132t112 -48h104q13 0 20 -30.5t7 -51.5q0 -23 -8 -46.5t-19 -23.5h-108zM559 715l483 45l62 -45l63 -334q16 -76 35 -111l232 357q69 105 121.5 149t134.5 66q124 37 383 37l241 -215v-406q0 -108 -75.5 -183
t-180.5 -75h-618q-177 0 -261.5 64t-115.5 219l-72 338l-391 -39l-113 -105v-540q0 -97 -44 -180.5t-124.5 -146t-185 -108.5t-233.5 -77l-50 159q141 27 256 77.5t188 125t75 158.5l-21 577zM2050 152q60 0 106 46t46 109l-13 299l-159 144q-189 0 -308 -43
q-81 -23 -118 -53t-93 -117l-217 -332q53 -53 207 -53h549z" />
    <glyph glyph-name="uni06360631.fina" unicode="&#xfd2c;" horiz-adv-x="2574" arabic-form="final" 
d="M2466 0q-110 0 -173 89.5t-65 242.5h86q3 -84 44 -132t112 -48h104q13 0 20 -30.5t7 -51.5q0 -23 -8 -46.5t-19 -23.5h-108zM559 715l483 45l62 -45l63 -334q16 -76 35 -111l232 357q69 105 121.5 149t134.5 66q124 37 383 37l241 -215v-406q0 -108 -75.5 -183
t-180.5 -75h-618q-177 0 -261.5 64t-115.5 219l-72 338l-391 -39l-113 -105v-540q0 -97 -44 -180.5t-124.5 -146t-185 -108.5t-233.5 -77l-50 159q141 27 256 77.5t188 125t75 158.5l-21 577zM2050 152q60 0 106 46t46 109l-13 299l-159 144q-189 0 -308 -43
q-81 -23 -118 -53t-93 -117l-217 -332q53 -53 207 -53h549zM1788 1147v160l182 10v-170h-182z" />
    <glyph glyph-name="uni0624.fina" unicode="&#x624;" horiz-adv-x="1253" arabic-form="final" 
d="M1255 152q10 0 17.5 -23t7.5 -53q0 -29 -7.5 -52.5t-17.5 -23.5h-260v152h260zM412 -403q272 53 391.5 132.5t116.5 194.5l-2 72h-506q-106 0 -174 70t-68 180v450l250 213h348q110 0 186 -71t76 -179l-2 -741q0 -186 -160 -309.5t-469 -177.5l-153 -27l-37 156zM895 647
q-3 61 -47 101t-105 40h-284l-164 -143l-14 -350q-1 -68 42.5 -108t112.5 -40h479zM479 1249l-26 64l77 43q-25 3 -45 39l-47 84q-17 32 -20 59q0 27 12 57q1 3 11.5 33.5t17.5 50.5l100 50q39 19 75.5 8t61.5 -47l13 -25l-43 -20q-43 53 -95 26l-69 -39q-15 -46 -19 -63
q-4 -20 -4 -31q0 -19 17 -53l36 -66q19 -32 41.5 -35t63.5 23l188 115l33 -62z" />
    <glyph glyph-name="uni0626.init" unicode="&#x626;" horiz-adv-x="854" arabic-form="initial" 
d="M-2 0v152h408q63 0 111.5 41.5t45.5 99.5l-22 498l141 12v-545q0 -111 -75.5 -184.5t-190.5 -73.5h-418zM207 1083l-27 64l78 43q-25 3 -45 39l-47 84q-18 34 -21 59q0 26 13 58q2 7 11.5 35.5t16.5 47.5l101 50q39 19 75.5 8t61.5 -47l12 -25l-43 -20q-42 53 -94 26
l-70 -39q-10 -32 -18 -63q-4 -20 -4 -31q0 -21 16 -53l37 -66q19 -32 41.5 -35t63.5 23l188 115l33 -62z" />
    <glyph glyph-name="uni0626.medi" unicode="&#x626;" horiz-adv-x="888" arabic-form="medial" 
d="M760 0q-70 0 -127 42t-76 105q-23 -63 -85 -105t-134 -42h-340v152h338q65 0 107 42.5t42 104.5v426l129 6v-432q0 -62 43 -104.5t107 -42.5h127q13 0 18.5 -28.5t5.5 -51.5q0 -25 -6.5 -48.5t-17.5 -23.5h-131zM272 1028l-26 64l78 43q-25 3 -45 39l-48 83
q-16 32 -20 60q0 27 12 57q1 3 11.5 33.5t17.5 50.5l100 49q39 19 75.5 8t61.5 -47l13 -24l-43 -21q-43 53 -94 27l-70 -39q-15 -46 -19 -63q-4 -20 -4 -31q0 -19 17 -53l37 -66q19 -33 41 -35.5t63 23.5l188 114l33 -61z" />
    <glyph glyph-name="uni0627.fina" unicode="&#x627;" horiz-adv-x="600" arabic-form="final" 
d="M170 1382l143 17l9 -1098q0 -63 42.5 -106t102.5 -43h133q29 0 29 -78q0 -74 -29 -74h-137q-115 0 -185 77t-75 208z" />
    <glyph glyph-name="uni0628.fina" unicode="&#x628;" horiz-adv-x="2031" arabic-form="final" 
d="M424 0q-109 0 -181.5 76.5t-72.5 187.5v443l135 6v-422q0 -61 33 -100t86 -39h1073q64 0 112.5 41.5t45.5 99.5l-23 498l142 12v-545q0 -110 -77 -184t-190 -74h-1083zM1923 0q-110 0 -172.5 89.5t-64.5 242.5h86q3 -84 43.5 -132t111.5 -48h105q13 0 19.5 -30t6.5 -52
q0 -23 -7.5 -46.5t-18.5 -23.5h-109zM905 -498v160l180 10v-170h-180z" />
    <glyph glyph-name="uni0628.init" unicode="&#x628;" horiz-adv-x="854" arabic-form="initial" 
d="M-2 0v152h408q63 0 111.5 41.5t45.5 99.5l-22 498l141 12v-545q0 -111 -75.5 -184.5t-190.5 -73.5h-418zM184 -498v160l181 10v-170h-181z" />
    <glyph glyph-name="uni0628.medi" unicode="&#x628;" horiz-adv-x="888" arabic-form="medial" 
d="M760 0q-70 0 -127 42t-76 105q-23 -63 -85 -105t-134 -42h-340v152h338q65 0 107 42.5t42 104.5v426l129 6v-432q0 -62 43 -104.5t107 -42.5h127q13 0 18.5 -28.5t5.5 -51.5q0 -25 -6.5 -48.5t-17.5 -23.5h-131zM242 -498v160l180 10v-170h-180z" />
    <glyph glyph-name="uni0629.fina" unicode="&#x629;" horiz-adv-x="1308" arabic-form="final" 
d="M1239 0q-140 0 -209 55t-92 187q-2 -6 -7 -19.5t-7 -19.5q-46 -123 -187 -123h-309q-103 0 -179.5 78.5t-76.5 185.5q0 20 0.5 74t1 80t3.5 66t9 68t15 50q10 24 40.5 58t58.5 59t80 69.5t71 61.5l358 61l-16 103l131 20l90 -747q17 -133 65 -174t185 -41h45
q9 0 18.5 -24.5t9.5 -51.5t-9.5 -51.5t-18.5 -24.5h-70zM725 217q116 0 145 96q3 14 11.5 39t11.5 39l-66 467l-319 -49q-27 -25 -75 -64t-76.5 -66t-41.5 -52q-10 -20 -15 -56.5t-8 -105t-5 -94.5q-4 -60 45 -107t117 -47h276zM670 1393l190 -99l-538 -14v113h348z
M608 1288v105h312l36 -19v-78z" />
    <glyph glyph-name="uni062A.fina" unicode="&#x62a;" horiz-adv-x="2031" arabic-form="final" 
d="M424 0q-109 0 -181.5 76.5t-72.5 187.5v443l135 6v-422q0 -61 33 -100t86 -39h1073q64 0 112.5 41.5t45.5 99.5l-23 498l142 12v-545q0 -110 -77 -184t-190 -74h-1083zM1923 0q-110 0 -172.5 89.5t-64.5 242.5h86q3 -84 43.5 -132t111.5 -48h105q13 0 19.5 -30t6.5 -52
q0 -23 -7.5 -46.5t-18.5 -23.5h-109zM1018 985l190 -98l-538 -15v113h348zM956 881v104h312l37 -18v-78z" />
    <glyph glyph-name="uni062A.init" unicode="&#x62a;" horiz-adv-x="860" arabic-form="initial" 
d="M-2 0v152h408q63 0 111.5 41.5t45.5 99.5l-22 498l141 12v-545q0 -111 -75.5 -184.5t-190.5 -73.5h-418zM393 1155l191 -98l-539 -15v113h348zM332 1051v104h311l37 -18v-78z" />
    <glyph glyph-name="uni062A.medi" unicode="&#x62a;" horiz-adv-x="888" arabic-form="medial" 
d="M760 0q-70 0 -127 42t-76 105q-23 -63 -85 -105t-134 -42h-340v152h338q65 0 107 42.5t42 104.5v426l129 6v-432q0 -62 43 -104.5t107 -42.5h127q13 0 18.5 -28.5t5.5 -51.5q0 -25 -6.5 -48.5t-17.5 -23.5h-131zM459 1100l190 -99l-538 -14v113h348zM397 995v105h312
l36 -19v-77z" />
    <glyph glyph-name="uni062B.fina" unicode="&#x62b;" horiz-adv-x="2031" arabic-form="final" 
d="M424 0q-109 0 -181.5 76.5t-72.5 187.5v443l135 6v-422q0 -61 33 -100t86 -39h1073q64 0 112.5 41.5t45.5 99.5l-23 498l142 12v-545q0 -110 -77 -184t-190 -74h-1083zM1923 0q-110 0 -172.5 89.5t-64.5 242.5h86q3 -84 43.5 -132t111.5 -48h105q13 0 19.5 -30t6.5 -52
q0 -23 -7.5 -46.5t-18.5 -23.5h-109zM905 1167v146l164 8v-154h-164zM1018 985l190 -98l-538 -15v113h348zM956 881v104h312l37 -18v-78z" />
    <glyph glyph-name="uni062B.init" unicode="&#x62b;" horiz-adv-x="854" arabic-form="initial" 
d="M-2 0v152h408q63 0 111.5 41.5t45.5 99.5l-22 498l141 12v-545q0 -111 -75.5 -184.5t-190.5 -73.5h-418zM281 1337v146l163 8v-154h-163zM393 1155l191 -98l-539 -15v113h348zM332 1051v104h311l37 -18v-78z" />
    <glyph glyph-name="uni062B.medi" unicode="&#x62b;" horiz-adv-x="888" arabic-form="medial" 
d="M760 0q-70 0 -127 42t-76 105q-23 -63 -85 -105t-134 -42h-340v152h338q65 0 107 42.5t42 104.5v426l129 6v-432q0 -62 43 -104.5t107 -42.5h127q13 0 18.5 -28.5t5.5 -51.5q0 -25 -6.5 -48.5t-17.5 -23.5h-131zM346 1282v145l164 9v-154h-164zM459 1100l190 -99
l-538 -14v113h348zM397 995v105h312l36 -19v-77z" />
    <glyph glyph-name="uni062C.fina" unicode="&#x62c;" horiz-adv-x="1497" arabic-form="final" 
d="M735 -160v135l156 9v-144h-156zM1391 0q-170 0 -261.5 98.5t-105.5 288.5l88 82q15 -167 77.5 -242t186.5 -75h123q13 0 20 -29.5t7 -50.5q0 -17 -7.5 -44.5t-19.5 -27.5h-108zM559 -588q-165 0 -274.5 97.5t-110.5 246.5l-2 146q-3 187 60 275t241 145l596 190l-485 262
q-38 21 -78 21q-44 1 -81 -21t-56 -61l-66 -133l-110 49l73 155q34 69 99 108.5t145 39.5q67 0 137 -37l737 -389l-43 -131l-108 57l-696 -229q-141 -46 -189.5 -108t-48.5 -197l-2 -125q-1 -92 69 -159t164 -65l707 21l-23 -158h-655z" />
    <glyph glyph-name="uni062C.init" unicode="&#x62c;" horiz-adv-x="1525" arabic-form="initial" 
d="M-2 0v152h180q290 0 440 86l447 256l-506 270q-42 20 -78 20q-44 0 -80.5 -22.5t-56.5 -61.5l-63 -133l-111 45l70 156q31 70 96 111t145 41q72 0 137 -33l738 -381l-41 -131l-123 63l-479 -293q-126 -78 -257.5 -111.5t-308.5 -33.5h-149zM504 -498v160l180 10v-170
h-180z" />
    <glyph glyph-name="uni062C.medi" unicode="&#x62c;" horiz-adv-x="1474" arabic-form="medial" 
d="M1366 0q-167 0 -259 97t-106 280l89 82q15 -161 77 -234t185 -73h123q26 0 26 -80q0 -72 -26 -72h-109zM-2 0v152h180q290 0 440 86l447 256l-506 270q-42 20 -78 20q-44 0 -80.5 -22.5t-56.5 -61.5l-63 -133l-111 45l70 156q31 70 96 111t145 41q72 0 137 -33l738 -381
l-41 -131l-123 63l-479 -293q-126 -78 -257.5 -111.5t-308.5 -33.5h-149zM504 -498v160l180 10v-170h-180z" />
    <glyph glyph-name="uni062D.fina" unicode="&#x62d;" horiz-adv-x="1499" arabic-form="final" 
d="M1391 0q-170 0 -261.5 98.5t-105.5 288.5l88 82q15 -167 77.5 -242t186.5 -75h123q13 0 20 -29.5t7 -50.5q0 -17 -7.5 -44.5t-19.5 -27.5h-108zM559 -588q-165 0 -274.5 97.5t-110.5 246.5l-2 146q-3 187 60 275t241 145l596 190l-485 262q-38 21 -78 21q-44 1 -81 -21
t-56 -61l-66 -133l-110 49l73 155q34 69 99 108.5t145 39.5q67 0 137 -37l737 -389l-43 -131l-108 57l-696 -229q-141 -46 -189.5 -108t-48.5 -197l-2 -125q-1 -92 69 -159t164 -65l707 21l-23 -158h-655z" />
    <glyph glyph-name="uni062D.init" unicode="&#x62d;" horiz-adv-x="1525" arabic-form="initial" 
d="M-2 0v152h180q290 0 440 86l447 256l-506 270q-42 20 -78 20q-44 0 -80.5 -22.5t-56.5 -61.5l-63 -133l-111 45l70 156q31 70 96 111t145 41q72 0 137 -33l738 -381l-41 -131l-123 63l-479 -293q-126 -78 -257.5 -111.5t-308.5 -33.5h-149z" />
    <glyph glyph-name="uni062D.medi" unicode="&#x62d;" horiz-adv-x="1474" arabic-form="medial" 
d="M1366 0q-167 0 -259 97t-106 280l89 82q15 -161 77 -234t185 -73h123q26 0 26 -80q0 -72 -26 -72h-109zM-2 0v152h180q290 0 440 86l447 256l-506 270q-42 20 -78 20q-44 0 -80.5 -22.5t-56.5 -61.5l-63 -133l-111 45l70 156q31 70 96 111t145 41q72 0 137 -33l738 -381
l-41 -131l-123 63l-479 -293q-126 -78 -257.5 -111.5t-308.5 -33.5h-149z" />
    <glyph glyph-name="uni062E.fina" unicode="&#x62e;" horiz-adv-x="1499" arabic-form="final" 
d="M1391 0q-170 0 -261.5 98.5t-105.5 288.5l88 82q15 -167 77.5 -242t186.5 -75h123q13 0 20 -29.5t7 -50.5q0 -17 -7.5 -44.5t-19.5 -27.5h-108zM559 -588q-165 0 -274.5 97.5t-110.5 246.5l-2 146q-3 187 60 275t241 145l596 190l-485 262q-38 21 -78 21q-44 1 -81 -21
t-56 -61l-66 -133l-110 49l73 155q34 69 99 108.5t145 39.5q67 0 137 -37l737 -389l-43 -131l-108 57l-696 -229q-141 -46 -189.5 -108t-48.5 -197l-2 -125q-1 -92 69 -159t164 -65l707 21l-23 -158h-655zM414 1206v160l182 10v-170h-182z" />
    <glyph glyph-name="uni062E.init" unicode="&#x62e;" horiz-adv-x="1525" arabic-form="initial" 
d="M-2 0v152h180q290 0 440 86l447 256l-506 270q-42 20 -78 20q-44 0 -80.5 -22.5t-56.5 -61.5l-63 -133l-111 45l70 156q31 70 96 111t145 41q72 0 137 -33l738 -381l-41 -131l-123 63l-479 -293q-126 -78 -257.5 -111.5t-308.5 -33.5h-149zM399 1200v160l183 10v-170
h-183z" />
    <glyph glyph-name="uni062E.medi" unicode="&#x62e;" horiz-adv-x="1474" arabic-form="medial" 
d="M1366 0q-167 0 -259 97t-106 280l89 82q15 -161 77 -234t185 -73h123q26 0 26 -80q0 -72 -26 -72h-109zM-2 0v152h180q290 0 440 86l447 256l-506 270q-42 20 -78 20q-44 0 -80.5 -22.5t-56.5 -61.5l-63 -133l-111 45l70 156q31 70 96 111t145 41q72 0 137 -33l738 -381
l-41 -131l-123 63l-479 -293q-126 -78 -257.5 -111.5t-308.5 -33.5h-149zM399 1200v160l183 10v-170h-183z" />
    <glyph glyph-name="uni062F.fina" unicode="&#x62f;" horiz-adv-x="1355" arabic-form="final" 
d="M1358 0q-119 0 -191.5 39.5t-130.5 126.5q-27 -73 -92.5 -119.5t-146.5 -46.5h-371q-114 0 -185 71t-71 187v121l125 8v-94q0 -73 34.5 -107t108.5 -34h377q60 0 103.5 40t48.5 99l-60 145l-213 533l129 35l221 -588q24 -64 43 -103.5t44 -73.5t56 -51.5t72 -26.5t99 -9
q11 0 17.5 -24t6.5 -52t-6.5 -52t-17.5 -24z" />
    <glyph glyph-name="uni0630.fina" unicode="&#x630;" horiz-adv-x="1355" arabic-form="final" 
d="M1358 0q-119 0 -191.5 39.5t-130.5 126.5q-27 -73 -92.5 -119.5t-146.5 -46.5h-371q-114 0 -185 71t-71 187v121l125 8v-94q0 -73 34.5 -107t108.5 -34h377q60 0 103.5 40t48.5 99l-60 145l-213 533l129 35l221 -588q24 -64 43 -103.5t44 -73.5t56 -51.5t72 -26.5t99 -9
q11 0 17.5 -24t6.5 -52t-6.5 -52t-17.5 -24zM606 1288v160l182 10v-170h-182z" />
    <glyph glyph-name="uni0631.fina" unicode="&#x631;" horiz-adv-x="751" arabic-form="final" 
d="M686 0q-64 0 -119.5 33t-79.5 80v-197q0 -171 -151.5 -298t-433.5 -193l-52 159q228 44 373 143.5t148 213.5l-27 770l143 12v-420q5 -65 56.5 -108t130.5 -43h78q28 0 28 -80q0 -72 -28 -72h-66z" />
    <glyph glyph-name="uni0632.fina" unicode="&#x632;" horiz-adv-x="751" arabic-form="final" 
d="M686 0q-64 0 -119.5 33t-79.5 80v-197q0 -171 -151.5 -298t-433.5 -193l-52 159q228 44 373 143.5t148 213.5l-27 770l143 12v-420q5 -65 56.5 -108t130.5 -43h78q28 0 28 -80q0 -72 -28 -72h-66zM324 1028v160l182 10v-170h-182z" />
    <glyph glyph-name="uni0633.fina" unicode="&#x633;" horiz-adv-x="2891" arabic-form="final" 
d="M608 -436q-183 0 -310.5 127t-127.5 309v559l135 6v-540q0 -134 91.5 -221t226.5 -87q296 0 455 80t155 228l-27 759l142 15l2 -486q12 -71 80.5 -116t162.5 -45q99 0 174.5 46.5t87.5 116.5l74 408l131 2l-73 -416q1 -63 55 -110t125 -47h98q120 0 185.5 41t64.5 114
l-14 465l139 8v-481q0 -62 40.5 -104.5t104.5 -42.5h107q6 0 11 -6.5t7.5 -17.5t4 -20.5t2.5 -20.5t1 -13q0 -19 -6.5 -46.5t-19.5 -27.5h-94q-74 0 -135 38.5t-91 102.5q-75 -141 -319 -141h-88q-82 0 -150.5 46.5t-91.5 117.5q-41 -71 -133.5 -117.5t-192.5 -46.5
q-75 0 -144.5 35t-100.5 88v-133q3 -426 -744 -426z" />
    <glyph glyph-name="uni0633.init" unicode="&#x633;" horiz-adv-x="1970" arabic-form="initial" 
d="M1335 0q-87 0 -158 46t-94 118q-43 -71 -134.5 -117.5t-190.5 -46.5q-101 0 -189 46.5t-116 115.5q-23 -76 -106 -119t-206 -43h-143v152h131q115 0 182.5 40.5t67.5 110.5v426l129 6v-428q3 -64 74 -109.5t168 -45.5q99 0 175 44t91 111l74 416l131 2l-74 -420
q1 -64 58.5 -108.5t125.5 -44.5h94q123 0 190 41.5t64 115.5l-22 482l143 12v-512q0 -140 -97.5 -215.5t-277.5 -75.5h-90z" />
    <glyph glyph-name="uni0633.medi" unicode="&#x633;" horiz-adv-x="2035" arabic-form="medial" 
d="M1946 0q-69 0 -126 38.5t-83 102.5q-28 -66 -113 -103.5t-201 -37.5h-86q-87 0 -159 46t-95 118q-44 -72 -135.5 -118t-189.5 -46q-101 0 -189 46.5t-116 115.5q-25 -77 -107.5 -119.5t-206.5 -42.5h-141v152h129q115 0 183.5 40.5t68.5 110.5v426l129 6v-428
q3 -65 74.5 -110t169.5 -45q97 0 173 43.5t91 111.5l74 416l131 2l-74 -420q1 -64 58.5 -108.5t125.5 -44.5h94q118 0 185 40t65 111l-14 469l139 8v-481q0 -63 42 -105t104 -42h92q26 0 26 -78q0 -74 -26 -74h-92z" />
    <glyph glyph-name="uni0634.fina" unicode="&#x634;" horiz-adv-x="2891" arabic-form="final" 
d="M608 -436q-183 0 -310.5 127t-127.5 309v559l135 6v-540q0 -134 91.5 -221t226.5 -87q296 0 455 80t155 228l-27 759l142 15l2 -486q12 -71 80.5 -116t162.5 -45q99 0 174.5 46.5t87.5 116.5l74 408l131 2l-73 -416q1 -63 55 -110t125 -47h98q120 0 185.5 41t64.5 114
l-14 465l139 8v-481q0 -62 40.5 -104.5t104.5 -42.5h107q6 0 11 -6.5t7.5 -17.5t4 -20.5t2.5 -20.5t1 -13q0 -19 -6.5 -46.5t-19.5 -27.5h-94q-74 0 -135 38.5t-91 102.5q-75 -141 -319 -141h-88q-82 0 -150.5 46.5t-91.5 117.5q-41 -71 -133.5 -117.5t-192.5 -46.5
q-75 0 -144.5 35t-100.5 88v-133q3 -426 -744 -426zM1905 1348v145l163 8v-153h-163zM2017 1165l191 -98l-539 -14v112h348zM1956 1061v104h311l37 -18v-78z" />
    <glyph glyph-name="uni0634.init" unicode="&#x634;" horiz-adv-x="1970" arabic-form="initial" 
d="M1335 0q-87 0 -158 46t-94 118q-43 -71 -134.5 -117.5t-190.5 -46.5q-101 0 -189 46.5t-116 115.5q-23 -76 -106 -119t-206 -43h-143v152h131q115 0 182.5 40.5t67.5 110.5v426l129 6v-428q3 -64 74 -109.5t168 -45.5q99 0 175 44t91 111l74 416l131 2l-74 -420
q1 -64 58.5 -108.5t125.5 -44.5h94q123 0 190 41.5t64 115.5l-22 482l143 12v-512q0 -140 -97.5 -215.5t-277.5 -75.5h-90zM1094 1348v145l163 8v-153h-163zM1206 1165l191 -98l-539 -14v112h348zM1145 1061v104h311l37 -18v-78z" />
    <glyph glyph-name="uni0634.medi" unicode="&#x634;" horiz-adv-x="2035" arabic-form="medial" 
d="M1946 0q-69 0 -126 38.5t-83 102.5q-28 -66 -113 -103.5t-201 -37.5h-86q-87 0 -159 46t-95 118q-44 -72 -135.5 -118t-189.5 -46q-101 0 -189 46.5t-116 115.5q-25 -77 -107.5 -119.5t-206.5 -42.5h-141v152h129q115 0 183.5 40.5t68.5 110.5v426l129 6v-428
q3 -65 74.5 -110t169.5 -45q97 0 173 43.5t91 111.5l74 416l131 2l-74 -420q1 -64 58.5 -108.5t125.5 -44.5h94q118 0 185 40t65 111l-14 469l139 8v-481q0 -63 42 -105t104 -42h92q26 0 26 -78q0 -74 -26 -74h-92zM1094 1348v145l163 8v-153h-163zM1206 1165l191 -98
l-539 -14v112h348zM1145 1061v104h311l37 -18v-78z" />
    <glyph glyph-name="uni0635.fina" unicode="&#x635;" horiz-adv-x="2750" arabic-form="final" 
d="M2642 0q-110 0 -173 89.5t-65 242.5h86q3 -84 44 -132t112 -48h104q13 0 20 -30.5t7 -51.5q0 -23 -8 -46.5t-19 -23.5h-108zM608 -436q-178 0 -308 128t-130 308v559l135 4v-538q0 -133 88.5 -220.5t220.5 -87.5q317 0 471 76.5t148 231.5l-27 759l142 15l2 -465
q19 -34 32 -55l242 366q79 121 157 167.5t218 57.5q108 9 250 9l241 -215v-406q0 -107 -74.5 -182.5t-181.5 -75.5h-663q-59 0 -118 33t-101 88v-121q3 -436 -744 -436zM1473 207q61 -55 131 -55h622q62 0 108.5 47.5t43.5 107.5l-13 297l-157 146q-95 0 -174 -5
q-126 -9 -197 -50t-141 -146z" />
    <glyph glyph-name="uni0635.init" unicode="&#x635;" horiz-adv-x="1746" arabic-form="initial" 
d="M-2 0v152h166q66 0 108.5 42.5t42.5 108.5v432l129 2v-360q0 -23 -4 -55q6 -10 15 -24t12 -19l242 366q78 119 163 169.5t228 57.5q158 7 235 7l242 -215v-406q0 -107 -75.5 -182.5t-182.5 -75.5h-684q-69 0 -133.5 34t-104.5 91q-33 -58 -93.5 -91.5t-135.5 -33.5h-170z
M557 207q61 -55 127 -55h627q61 0 107 46.5t44 108.5l-12 299l-158 144q-95 0 -174 -5q-125 -9 -196 -50.5t-140 -145.5z" />
    <glyph glyph-name="uni0635.medi" unicode="&#x635;" horiz-adv-x="1835" arabic-form="medial" 
d="M1726 0q-110 0 -172.5 89.5t-64.5 242.5h86q3 -84 44 -132t112 -48h104q13 0 20 -30.5t7 -51.5q0 -23 -8 -46.5t-19 -23.5h-109zM-2 0v152h166q66 0 108.5 42.5t42.5 108.5v432l129 2v-360q0 -23 -4 -55q6 -10 15 -24t12 -19l242 366q78 119 163 169.5t228 57.5
q158 7 235 7l242 -215v-406q0 -107 -75.5 -182.5t-182.5 -75.5h-684q-69 0 -133.5 34t-104.5 91q-33 -58 -93.5 -91.5t-135.5 -33.5h-170zM557 207q61 -55 127 -55h627q61 0 107 46.5t44 108.5l-12 299l-158 144q-95 0 -174 -5q-125 -9 -196 -50.5t-140 -145.5z" />
    <glyph glyph-name="uni0636.fina" unicode="&#x636;" horiz-adv-x="2750" arabic-form="final" 
d="M2642 0q-110 0 -173 89.5t-65 242.5h86q3 -84 44 -132t112 -48h104q13 0 20 -30.5t7 -51.5q0 -23 -8 -46.5t-19 -23.5h-108zM608 -436q-178 0 -308 128t-130 308v559l135 4v-538q0 -133 88.5 -220.5t220.5 -87.5q317 0 471 76.5t148 231.5l-27 759l142 15l2 -465
q19 -34 32 -55l242 366q79 121 157 167.5t218 57.5q108 9 250 9l241 -215v-406q0 -107 -74.5 -182.5t-181.5 -75.5h-663q-59 0 -118 33t-101 88v-121q3 -436 -744 -436zM1473 207q61 -55 131 -55h622q62 0 108.5 47.5t43.5 107.5l-13 297l-157 146q-95 0 -174 -5
q-126 -9 -197 -50t-141 -146zM1985 1145v160l182 10v-170h-182z" />
    <glyph glyph-name="uni0636.init" unicode="&#x636;" horiz-adv-x="1746" arabic-form="initial" 
d="M-2 0v152h166q66 0 108.5 42.5t42.5 108.5v432l129 2v-360q0 -23 -4 -55q6 -10 15 -24t12 -19l242 366q78 119 163 169.5t228 57.5q158 7 235 7l242 -215v-406q0 -107 -75.5 -182.5t-182.5 -75.5h-684q-69 0 -133.5 34t-104.5 91q-33 -58 -93.5 -91.5t-135.5 -33.5h-170z
M557 207q61 -55 127 -55h627q61 0 107 46.5t44 108.5l-12 299l-158 144q-95 0 -174 -5q-125 -9 -196 -50.5t-140 -145.5zM1057 1145v160l182 10v-170h-182z" />
    <glyph glyph-name="uni0636.medi" unicode="&#x636;" horiz-adv-x="1835" arabic-form="medial" 
d="M1726 0q-110 0 -172.5 89.5t-64.5 242.5h86q3 -84 44 -132t112 -48h104q13 0 20 -30.5t7 -51.5q0 -23 -8 -46.5t-19 -23.5h-109zM-2 0v152h166q66 0 108.5 42.5t42.5 108.5v432l129 2v-360q0 -23 -4 -55q6 -10 15 -24t12 -19l242 366q78 119 163 169.5t228 57.5
q158 7 235 7l242 -215v-406q0 -107 -75.5 -182.5t-182.5 -75.5h-684q-69 0 -133.5 34t-104.5 91q-33 -58 -93.5 -91.5t-135.5 -33.5h-170zM557 207q61 -55 127 -55h627q61 0 107 46.5t44 108.5l-12 299l-158 144q-95 0 -174 -5q-125 -9 -196 -50.5t-140 -145.5zM1057 1145
v160l182 10v-170h-182z" />
    <glyph glyph-name="uni0637.fina" unicode="&#x637;" horiz-adv-x="1751" arabic-form="final" 
d="M193 0l-23 172l158 -2l100 156l-29 1063l142 12l8 -813l-17 -135l146 215q72 109 154 152t239 52q75 7 180 7l240 -215v-402q0 -108 -78.5 -185t-187.5 -77h-1032zM1227 152q61 -1 107 46.5t44 108.5l-12 299l-158 144q-90 0 -164 -5q-128 -9 -198 -50.5t-141 -149.5
l-248 -375zM1642 0q-110 0 -172.5 89.5t-64.5 242.5h86q3 -84 44 -132t112 -48h104q13 0 20 -30.5t7 -51.5q0 -23 -8 -46.5t-19 -23.5h-109z" />
    <glyph glyph-name="uni0637.init" unicode="&#x637;" horiz-adv-x="1454" arabic-form="initial" 
d="M-2 0v150l108 2l113 174l-29 1063l142 12l8 -803l-14 -145l141 215q72 110 154 152.5t241 51.5q72 7 178 7l242 -215v-402q0 -108 -78 -185t-186 -77h-1020zM1018 152q62 0 107.5 47t43.5 108l-12 299l-160 144q-90 0 -161 -5q-130 -9 -200.5 -50.5t-139.5 -149.5
l-256 -389z" />
    <glyph glyph-name="uni0637.medi" unicode="&#x637;" horiz-adv-x="1542" arabic-form="medial" 
d="M-2 0v150l108 2l113 174l-29 1063l142 12l8 -803l-14 -145l141 215q72 110 154 152.5t241 51.5q72 7 178 7l242 -215v-402q0 -108 -78 -185t-186 -77h-1020zM1018 152q62 0 107.5 47t43.5 108l-12 299l-160 144q-90 0 -161 -5q-130 -9 -200.5 -50.5t-139.5 -149.5
l-256 -389zM1434 0q-110 0 -173 89.5t-65 242.5h86q3 -84 44 -132t112 -48h104q13 0 20 -30.5t7 -51.5q0 -23 -8 -46.5t-19 -23.5h-108z" />
    <glyph glyph-name="uni0638.fina" unicode="&#x638;" horiz-adv-x="1751" arabic-form="final" 
d="M193 0l-23 172l158 -2l100 156l-29 1063l142 12l8 -813l-17 -135l146 215q72 109 154 152t239 52q75 7 180 7l240 -215v-402q0 -108 -78.5 -185t-187.5 -77h-1032zM1227 152q61 -1 107 46.5t44 108.5l-12 299l-158 144q-90 0 -164 -5q-128 -9 -198 -50.5t-141 -149.5
l-248 -375zM1642 0q-110 0 -172.5 89.5t-64.5 242.5h86q3 -84 44 -132t112 -48h104q13 0 20 -30.5t7 -51.5q0 -23 -8 -46.5t-19 -23.5h-109zM993 1145v160l183 10v-170h-183z" />
    <glyph glyph-name="uni0638.init" unicode="&#x638;" horiz-adv-x="1454" arabic-form="initial" 
d="M-2 0v150l108 2l113 174l-29 1063l142 12l8 -803l-14 -145l141 215q72 110 154 152.5t241 51.5q72 7 178 7l242 -215v-402q0 -108 -78 -185t-186 -77h-1020zM1018 152q62 0 107.5 47t43.5 108l-12 299l-160 144q-90 0 -161 -5q-130 -9 -200.5 -50.5t-139.5 -149.5
l-256 -389zM803 1145v160l182 10v-170h-182z" />
    <glyph glyph-name="uni0638.medi" unicode="&#x638;" horiz-adv-x="1542" arabic-form="medial" 
d="M-2 0v150l108 2l113 174l-29 1063l142 12l8 -803l-14 -145l141 215q72 110 154 152.5t241 51.5q72 7 178 7l242 -215v-402q0 -108 -78 -185t-186 -77h-1020zM1018 152q62 0 107.5 47t43.5 108l-12 299l-160 144q-90 0 -161 -5q-130 -9 -200.5 -50.5t-139.5 -149.5
l-256 -389zM1434 0q-110 0 -173 89.5t-65 242.5h86q3 -84 44 -132t112 -48h104q13 0 20 -30.5t7 -51.5q0 -23 -8 -46.5t-19 -23.5h-108zM803 1145v160l182 10v-170h-182z" />
    <glyph glyph-name="uni0639.fina" unicode="&#x639;" horiz-adv-x="1427" arabic-form="final" 
d="M487 -592q-137 0 -226 82t-89 209v82q1 119 22.5 186t74.5 107.5t157 68.5q125 31 127 31q-110 65 -168.5 199.5t-108.5 404.5l-90 -4l23 150l811 8q79 -75 123.5 -138.5t44.5 -101.5q-2 -55 -53 -233q-58 -197 -242 -295q56 -12 147 -12h387q10 0 17.5 -22t9.5 -56
q2 -27 -6.5 -50.5t-20.5 -23.5h-407q-165 0 -297 66q-94 -17 -209 -43q-38 -8 -64.5 -16t-48.5 -19.5t-36 -21.5t-25 -29t-16 -36t-8.5 -47.5t-4 -58.5t-0.5 -74q0 -87 45.5 -134t122.5 -44l635 23l-29 -158h-598zM735 205q95 29 166 91.5t98 137.5q6 16 19.5 51.5
t18.5 49.5t12.5 37t10 37t1.5 26q0 32 -20.5 65t-77.5 95l-572 -19q57 -261 136.5 -392t207.5 -179z" />
    <glyph glyph-name="uni0639.init" unicode="&#x639;" horiz-adv-x="1286" arabic-form="initial" 
d="M-2 0v152h307q-49 49 -49 172v137q0 96 4.5 139.5t18.5 77.5q14 27 42 59.5t52 55t71.5 64t69.5 61.5h281q104 0 178 -71.5t74 -172.5v-41l-105 -10q0 68 -49.5 116.5t-118.5 48.5h-201q-13 -12 -43.5 -39.5t-44 -40.5t-34.5 -34t-33.5 -38t-20.5 -34q-11 -24 -13.5 -61
t-2.5 -125l2 -113q0 -88 47 -121.5t158 -27.5l504 28l22 -147q-413 -35 -694 -35h-422z" />
    <glyph glyph-name="uni0639.medi" unicode="&#x639;" horiz-adv-x="1417" arabic-form="medial" 
d="M1020 0q-167 0 -289 43q-128 -43 -303 -43h-430v152h387q106 0 182 16q-113 67 -179.5 210t-111.5 400l-92 -4l25 150l811 8q100 -103 135.5 -150t38.5 -88q2 -65 -59 -235q-42 -114 -94 -183.5t-130 -111.5q65 -12 144 -12h362q13 0 20 -29.5t7 -48.5q2 -14 -6.5 -44
t-20.5 -30h-397zM735 205q94 29 165 91t99 138q4 11 14 37.5t14 37t11 30.5t10 30t6.5 24t5 23.5t1.5 18.5q-2 34 -21.5 67t-76.5 93l-572 -19q57 -262 136 -393t208 -178z" />
    <glyph glyph-name="uni063A.fina" unicode="&#x63a;" horiz-adv-x="1427" arabic-form="final" 
d="M487 -592q-137 0 -226 82t-89 209v82q1 119 22.5 186t74.5 107.5t157 68.5q125 31 127 31q-110 65 -168.5 199.5t-108.5 404.5l-90 -4l23 150l811 8q79 -75 123.5 -138.5t44.5 -101.5q-2 -55 -53 -233q-58 -197 -242 -295q56 -12 147 -12h387q10 0 17.5 -22t9.5 -56
q2 -27 -6.5 -50.5t-20.5 -23.5h-407q-165 0 -297 66q-94 -17 -209 -43q-38 -8 -64.5 -16t-48.5 -19.5t-36 -21.5t-25 -29t-16 -36t-8.5 -47.5t-4 -58.5t-0.5 -74q0 -87 45.5 -134t122.5 -44l635 23l-29 -158h-598zM735 205q95 29 166 91.5t98 137.5q6 16 19.5 51.5
t18.5 49.5t12.5 37t10 37t1.5 26q0 32 -20.5 65t-77.5 95l-572 -19q57 -261 136.5 -392t207.5 -179zM629 1198v160l182 10v-170h-182z" />
    <glyph glyph-name="uni063A.init" unicode="&#x63a;" horiz-adv-x="1286" arabic-form="initial" 
d="M-2 0v152h307q-49 49 -49 172v137q0 96 4.5 139.5t18.5 77.5q14 27 42 59.5t52 55t71.5 64t69.5 61.5h281q104 0 178 -71.5t74 -172.5v-41l-105 -10q0 68 -49.5 116.5t-118.5 48.5h-201q-13 -12 -43.5 -39.5t-44 -40.5t-34.5 -34t-33.5 -38t-20.5 -34q-11 -24 -13.5 -61
t-2.5 -125l2 -113q0 -88 47 -121.5t158 -27.5l504 28l22 -147q-413 -35 -694 -35h-422zM623 1198v160l182 10v-170h-182z" />
    <glyph glyph-name="uni063A.medi" unicode="&#x63a;" horiz-adv-x="1417" arabic-form="medial" 
d="M1020 0q-167 0 -289 43q-128 -43 -303 -43h-430v152h387q106 0 182 16q-113 67 -179.5 210t-111.5 400l-92 -4l25 150l811 8q100 -103 135.5 -150t38.5 -88q2 -65 -59 -235q-42 -114 -94 -183.5t-130 -111.5q65 -12 144 -12h362q13 0 20 -29.5t7 -48.5q2 -14 -6.5 -44
t-20.5 -30h-397zM735 205q94 29 165 91t99 138q4 11 14 37.5t14 37t11 30.5t10 30t6.5 24t5 23.5t1.5 18.5q-2 34 -21.5 67t-76.5 93l-572 -19q57 -262 136 -393t208 -178zM623 1198v160l182 10v-170h-182z" />
    <glyph glyph-name="uni0641.fina" unicode="&#x641;" horiz-adv-x="2146" arabic-form="final" 
d="M424 0q-110 0 -182 74.5t-72 185.5v447l135 6v-422q0 -61 32 -100t87 -39h625v-152h-625zM1208 152q-54 34 -89.5 90t-35.5 108q0 203 23 291q13 52 52.5 107t68 82.5t101.5 91.5q15 13 22 20l292 -41q102 -14 178.5 -93.5t82.5 -178.5q12 -195 -18 -308.5t-103 -168.5
h366q10 0 18.5 -21.5t8.5 -58.5q0 -34 -8.5 -53t-18.5 -19h-600q-40 0 -73 10q-33 -10 -74 -10h-592v152h399zM1389 809q-69 -60 -110.5 -111t-57.5 -108q-20 -59 -23 -228q0 -46 41.5 -95.5t104.5 -82t122 -32.5h31q158 0 222.5 88.5t58.5 294.5q-6 222 -170 243z
M1393 1212v160l182 10v-170h-182z" />
    <glyph glyph-name="uni0641.init" unicode="&#x641;" horiz-adv-x="1136" arabic-form="initial" 
d="M-2 0v152h702q65 0 108.5 42.5t43.5 104.5v72h-428q-106 0 -176 71.5t-70 178.5v385l246 215h293q106 0 178 -70t72 -174v-680q0 -134 -76 -215.5t-211 -81.5h-682zM834 956q-3 61 -47 101.5t-105 40.5h-215l-166 -144l-14 -288q-3 -67 43 -114.5t112 -47.5h414z
M510 1473v159l182 10v-169h-182z" />
    <glyph glyph-name="uni0641.medi" unicode="&#x641;" horiz-adv-x="1337" arabic-form="medial" 
d="M397 152q-54 34 -89.5 90t-35.5 108q0 203 23 291q13 52 52.5 107t68 82.5t101.5 91.5q15 13 22 20l292 -41q102 -14 178.5 -93.5t82.5 -178.5q12 -195 -18 -308.5t-103 -168.5h366q10 0 18.5 -21.5t8.5 -58.5q0 -34 -8.5 -53t-18.5 -19h-600q-40 0 -73 10
q-33 -10 -74 -10h-592v152h399zM578 809q-69 -60 -110.5 -111t-57.5 -108q-20 -59 -23 -228q0 -46 41.5 -95.5t104.5 -82t122 -32.5h31q158 0 222.5 88.5t58.5 294.5q-6 222 -170 243zM588 1192v160l182 10v-170h-182z" />
    <glyph glyph-name="uni0642.fina" unicode="&#x642;" horiz-adv-x="1566" arabic-form="final" 
d="M1309 0v152h260q10 0 18 -23t8 -53q0 -28 -8 -52t-18 -24h-260zM610 -487q-189 0 -314.5 123.5t-125.5 310.5v569l135 6v-555q0 -132 85 -217.5t216 -85.5q619 0 701 203q8 31 8 104v29h-447q-109 0 -179.5 69.5t-70.5 176.5v397l244 215h305q108 0 180 -69.5t72 -174.5
v-667q0 -102 -39 -178t-107.5 -124.5t-172.5 -78.5t-221.5 -41.5t-268.5 -11.5zM1286 586q-3 65 -48.5 108t-113.5 43h-217l-166 -145l-14 -299q-4 -67 33 -104t108 -37h441zM1061 1223l190 -99l-538 -14v113h348zM999 1118v105h312l37 -19v-78z" />
    <glyph glyph-name="uni0642.init" unicode="&#x642;" horiz-adv-x="1136" arabic-form="initial" 
d="M-2 0v152h702q65 0 108.5 42.5t43.5 104.5v72h-428q-106 0 -176 71.5t-70 178.5v385l246 215h293q106 0 178 -70t72 -174v-680q0 -134 -76 -215.5t-211 -81.5h-682zM834 956q-3 61 -47 101.5t-105 40.5h-215l-166 -144l-14 -288q-3 -67 43 -114.5t112 -47.5h414z
M633 1585l190 -98l-538 -14v112h348zM571 1481v104h312l37 -18v-78z" />
    <glyph glyph-name="uni0642.medi" unicode="&#x642;" horiz-adv-x="1337" arabic-form="medial" 
d="M397 152q-54 34 -89.5 90t-35.5 108q0 203 23 291q13 52 52.5 107t68 82.5t101.5 91.5q15 13 22 20l292 -41q102 -14 178.5 -93.5t82.5 -178.5q12 -195 -18 -308.5t-103 -168.5h366q10 0 18.5 -21.5t8.5 -58.5q0 -34 -8.5 -53t-18.5 -19h-600q-40 0 -73 10
q-33 -10 -74 -10h-592v152h399zM578 809q-69 -60 -110.5 -111t-57.5 -108q-20 -59 -23 -228q0 -46 41.5 -95.5t104.5 -82t122 -32.5h31q158 0 222.5 88.5t58.5 294.5q-6 222 -170 243zM711 1305l190 -99l-539 -14v113h349zM649 1200v105h312l36 -19v-78z" />
    <glyph glyph-name="uni0643.fina" unicode="&#x643;" horiz-adv-x="2039" arabic-form="final" 
d="M424 0q-112 0 -183 71.5t-71 188.5v447l135 6v-422q0 -61 32 -100t87 -39h1055q77 0 128 42t50 105l-27 1094l142 14l10 -1108q0 -132 -76.5 -215.5t-210.5 -83.5h-1071zM1069 647q21 1 35 14t14 31q0 31 -33 51l-272 148l2 63l318 136l36 -66l-278 -104l250 -136
q41 -44 41 -94q0 -41 -34 -73.5t-83 -38.5l-274 -29v69zM1931 0q-110 0 -172.5 89.5t-64.5 242.5h86q3 -84 43.5 -132t111.5 -48h105q13 0 19.5 -30t6.5 -52q0 -23 -7.5 -46.5t-18.5 -23.5h-109z" />
    <glyph glyph-name="uni0643.init" unicode="&#x643;" horiz-adv-x="1224" arabic-form="initial" 
d="M760 152q75 0 123.5 41t48.5 104l-78 334l-688 348l4 143l776 320l68 -133l-686 -256l639 -332q74 -345 86 -447q3 -113 -83 -193.5t-210 -80.5h-762v152h762z" />
    <glyph glyph-name="uni0643.medi" unicode="&#x643;" horiz-adv-x="1386" arabic-form="medial" 
d="M1384 0q-78 0 -138 19t-110.5 62t-89.5 94.5t-88 133.5l-4 -86q-3 -100 -82.5 -161.5t-199.5 -61.5h-674v152h698q76 0 130.5 47.5t54.5 115.5v105q-60 84 -103 117l-604 438l4 164l735 317l66 -133l-672 -262l541 -402q39 -29 76 -74t65.5 -91.5t59.5 -96.5t64 -93
t71.5 -78.5t89.5 -55.5t112 -20q16 0 21.5 -13.5t5.5 -56.5q0 -29 -7.5 -54.5t-21.5 -25.5z" />
    <glyph glyph-name="uni0644.fina" unicode="&#x644;" horiz-adv-x="1587" arabic-form="final" 
d="M616 -465q-194 0 -320 124.5t-126 317.5v508l135 4v-497q0 -130 88.5 -218.5t218.5 -88.5q305 0 454 76.5t146 230.5l-34 1392l141 15l12 -1432q1 -217 -177.5 -324.5t-537.5 -107.5zM1479 0q-110 0 -173 89.5t-65 242.5h86q3 -84 44 -132t112 -48h104q13 0 20 -30.5
t7 -51.5q0 -23 -8 -46.5t-19 -23.5h-108z" />
    <glyph glyph-name="uni0644.init" unicode="&#x644;" horiz-adv-x="606" arabic-form="initial" 
d="M-2 0v152h137q75 0 123 44t47 111l-24 1086l141 14l10 -1102q1 -142 -78.5 -223.5t-218.5 -81.5h-137z" />
    <glyph glyph-name="uni0644.medi" unicode="&#x644;" horiz-adv-x="684" arabic-form="medial" 
d="M-2 0v152h129q68 0 118.5 47t49.5 108l-23 1086l142 14l8 -1102q1 -70 42 -111.5t107 -41.5h113q13 0 20 -29t7 -49q0 -18 -7.5 -46t-19.5 -28h-117q-74 0 -129.5 40t-72.5 107q-22 -64 -86 -105.5t-140 -41.5h-141z" />
    <glyph glyph-name="uni0645.fina" unicode="&#x645;" horiz-adv-x="1484" arabic-form="final" 
d="M1225 250q0 -112 -72 -185.5t-172 -64.5l-528 51q-74 8 -120 -34.5t-42 -114.5l20 -510l-141 -23l4 561q1 107 65.5 174t168.5 72h26q-65 47 -80 146l17 370q8 99 80 167.5t170 68.5h360l244 -215v-463zM469 319q41 -130 176 -139l318 -28q61 -6 107.5 43t43.5 114
l-14 353l-164 145h-283q-60 0 -106 -44t-49 -104zM1376 0q-110 0 -172.5 89.5t-64.5 242.5h86q3 -84 43.5 -132t111.5 -48h105q13 0 19.5 -30t6.5 -52q0 -23 -7.5 -46.5t-18.5 -23.5h-109z" />
    <glyph glyph-name="uni0645.init" unicode="&#x645;" horiz-adv-x="1323" arabic-form="initial" 
d="M-2 0v152h53q111 0 167.5 37t60.5 114l20 389q5 98 77.5 167t172.5 69h360l242 -215v-455q0 -115 -68.5 -186.5t-183.5 -71.5h-291q-167 0 -262 178q-17 -92 -84 -135t-190 -43h-74zM395 317q44 -89 86 -128t109 -39h299q63 0 108 48t43 111l-14 355l-164 143h-282
q-60 0 -105.5 -44t-50.5 -104z" />
    <glyph glyph-name="uni0645.medi" unicode="&#x645;" horiz-adv-x="1411" arabic-form="medial" 
d="M-2 0v152h53q111 0 167.5 37t60.5 114l20 389q5 98 77.5 167t172.5 69h360l242 -215v-455q0 -115 -68.5 -186.5t-183.5 -71.5h-291q-167 0 -262 178q-17 -92 -84 -135t-190 -43h-74zM395 317q44 -89 86 -128t109 -39h299q63 0 108 48t43 111l-14 355l-164 143h-282
q-60 0 -105.5 -44t-50.5 -104zM1303 0q-110 0 -173 89.5t-65 242.5h86q3 -84 44 -132t112 -48h104q13 0 20 -30.5t7 -51.5q0 -23 -8 -46.5t-19 -23.5h-108z" />
    <glyph glyph-name="uni0646.fina" unicode="&#x646;" horiz-adv-x="1609" arabic-form="final" 
d="M170 559l135 4v-538q0 -133 88.5 -220.5t220.5 -87.5q303 0 463 78t156 225l-27 764l142 15l4 -799q1 -217 -186 -326.5t-558 -109.5q-118 0 -218.5 57.5t-160 158t-59.5 220.5v559zM1501 0q-110 0 -172.5 89.5t-64.5 242.5h86q3 -84 43.5 -132t111.5 -48h105
q13 0 19.5 -30t6.5 -52q0 -23 -7.5 -46.5t-18.5 -23.5h-109zM649 721v160l182 10v-170h-182z" />
    <glyph glyph-name="uni0646.init" unicode="&#x646;" horiz-adv-x="854" arabic-form="initial" 
d="M-2 0v152h408q63 0 111.5 41.5t45.5 99.5l-22 498l141 12v-545q0 -111 -75.5 -184.5t-190.5 -73.5h-418zM516 1042v160l182 10v-170h-182z" />
    <glyph glyph-name="uni0646.medi" unicode="&#x646;" horiz-adv-x="888" arabic-form="medial" 
d="M760 0q-70 0 -127 42t-76 105q-23 -63 -85 -105t-134 -42h-340v152h338q65 0 107 42.5t42 104.5v426l129 6v-432q0 -62 43 -104.5t107 -42.5h127q13 0 18.5 -28.5t5.5 -51.5q0 -25 -6.5 -48.5t-17.5 -23.5h-131zM453 987v160l182 10v-170h-182z" />
    <glyph glyph-name="uni0647.fina" unicode="&#x647;" horiz-adv-x="1308" arabic-form="final" 
d="M1239 0q-140 0 -209 55t-92 187q-2 -6 -7 -19.5t-7 -19.5q-46 -123 -187 -123h-309q-103 0 -179.5 78.5t-76.5 185.5q0 20 0.5 74t1 80t3.5 66t9 68t15 50q10 24 40.5 58t58.5 59t80 69.5t71 61.5l358 61l-16 103l131 20l90 -747q17 -133 65 -174t185 -41h45
q9 0 18.5 -24.5t9.5 -51.5t-9.5 -51.5t-18.5 -24.5h-70zM725 217q116 0 145 96q3 14 11.5 39t11.5 39l-66 467l-319 -49q-27 -25 -75 -64t-76.5 -66t-41.5 -52q-10 -20 -15 -56.5t-8 -105t-5 -94.5q-4 -60 45 -107t117 -47h276z" />
    <glyph glyph-name="uni0647.init" unicode="&#x647;" horiz-adv-x="1607" arabic-form="initial" 
d="M307 152q-60 35 -94.5 87t-34.5 107q0 91 0.5 126.5t8 96t22.5 101.5q15 38 46 75.5t101 102.5l-147 24l16 134l809 -154q100 -19 140 -30.5t67 -33.5q51 -37 92 -167q9 -27 28.5 -85t31 -93t24.5 -84.5t19 -90.5q7 -104 -73 -186t-189 -82h-390q-67 0 -106 33
q-87 -33 -201 -33h-479v152h309zM836 156q20 -4 47 -4h282q63 0 108.5 43t45.5 104l-100 285q-34 93 -64 112q-18 17 -47 26t-100 21l-164 25q46 -36 67.5 -87.5t22.5 -137.5q6 -171 -14.5 -253.5t-83.5 -133.5zM551 152q165 0 221 79q53 84 47 318q-2 103 -35.5 159.5
t-105.5 71.5l-189 31q-76 -69 -110 -107.5t-53 -76.5q-18 -40 -24.5 -95t-6.5 -165q-2 -69 76.5 -136t179.5 -79z" />
    <glyph glyph-name="uni0647.medi" unicode="&#x647;" horiz-adv-x="1257" arabic-form="medial" 
d="M1198 0q-172 0 -229 -180l-72 -205h-418q-135 0 -210.5 69t-75.5 187v129h-195v152h197l2 505q0 95 75.5 164.5t173.5 69.5h297l220 -189v-454q0 -98 -72.5 -173t-169.5 -75h-414l2 -104q3 -164 201 -164h309l58 170q81 250 321 250h64q22 0 22 -76t-22 -76h-64zM700 152
q65 0 110 45.5t42 109.5l-16 332l-140 131h-215q-63 0 -109.5 -44t-47.5 -105l-15 -469h391z" />
    <glyph glyph-name="uni0648.fina" unicode="&#x648;" horiz-adv-x="1253" arabic-form="final" 
d="M1255 152q10 0 17.5 -23t7.5 -53q0 -29 -7.5 -52.5t-17.5 -23.5h-260v152h260zM412 -403q272 53 391.5 132.5t116.5 194.5l-2 72h-506q-106 0 -174 70t-68 180v450l250 213h348q110 0 186 -71t76 -179l-2 -741q0 -186 -160 -309.5t-469 -177.5l-153 -27l-37 156zM895 647
q-3 61 -47 101t-105 40h-284l-164 -143l-14 -350q-1 -68 42.5 -108t112.5 -40h479z" />
    <glyph glyph-name="uni0649.fina" unicode="&#x649;" horiz-adv-x="1546" arabic-form="final" 
d="M1546 152q14 0 21.5 -24t7.5 -52q0 -19 -8 -47.5t-21 -28.5h-143q16 -16 16 -53q0 -14 -4 -60q-12 -144 -127 -239q-96 -79 -256.5 -107t-421.5 -28q-119 0 -220.5 58t-160.5 158t-59 218v569l135 6v-555q0 -130 87.5 -216.5t217.5 -86.5q238 0 370 16.5t218 73.5
q101 65 115 148q2 12 2 49q0 28 -13.5 38.5t-54.5 10.5h-590l25 152h864z" />
    <glyph glyph-name="uni064A.fina" unicode="&#x64a;" horiz-adv-x="1546" arabic-form="final" 
d="M1546 152q14 0 21.5 -24t7.5 -52q0 -19 -8 -47.5t-21 -28.5h-143q16 -16 16 -53q0 -14 -4 -60q-12 -144 -127 -239q-96 -79 -256.5 -107t-421.5 -28q-119 0 -220.5 58t-160.5 158t-59 218v569l135 6v-555q0 -130 87.5 -216.5t217.5 -86.5q238 0 370 16.5t218 73.5
q101 65 115 148q2 12 2 49q0 28 -13.5 38.5t-54.5 10.5h-590l25 152h864zM819 -745l191 -99l-539 -14v113h348zM758 -850v105h311l37 -21v-76z" />
    <glyph glyph-name="uni064A.init" unicode="&#x64a;" horiz-adv-x="854" arabic-form="initial" 
d="M-2 0v152h408q63 0 111.5 41.5t45.5 99.5l-22 498l141 12v-545q0 -111 -75.5 -184.5t-190.5 -73.5h-418zM305 -328l191 -98l-539 -14v112h348zM244 -432v104h311l37 -20v-76z" />
    <glyph glyph-name="uni064A.medi" unicode="&#x64a;" horiz-adv-x="888" arabic-form="medial" 
d="M760 0q-70 0 -127 42t-76 105q-23 -63 -85 -105t-134 -42h-340v152h338q65 0 107 42.5t42 104.5v426l129 6v-432q0 -62 43 -104.5t107 -42.5h127q13 0 18.5 -28.5t5.5 -51.5q0 -25 -6.5 -48.5t-17.5 -23.5h-131zM362 -328l191 -98l-539 -14v112h348zM301 -432v104h311
l37 -20v-76z" />
    <glyph glyph-name=".notdef" horiz-adv-x="1425" 
d="M1096 1313q-105 45 -385 45q-278 0 -383 -45v-1110q105 -45 383 -45q280 0 385 45v1110zM305 0l-135 135v1387h971l112 -115v-1407h-948z" />
    <glyph glyph-name=".null" horiz-adv-x="2406" 
 />
    <glyph glyph-name="nonmarkingreturn" horiz-adv-x="682" 
 />
    <glyph glyph-name="space" unicode=" " horiz-adv-x="444" 
 />
    <glyph glyph-name="exclam" unicode="!" horiz-adv-x="557" 
d="M201 1389l141 14l-10 -1055l-92 -14zM174 -14v184l207 10v-194h-207z" />
    <glyph glyph-name="quotedbl" unicode="&#x22;" horiz-adv-x="759" 
d="M195 1587h129l-58 -495h-96zM461 1587h129l-58 -495h-96z" />
    <glyph glyph-name="quotedbl" unicode="&#x2033;" horiz-adv-x="759" 
d="M195 1587h129l-58 -495h-96zM461 1587h129l-58 -495h-96z" />
    <glyph glyph-name="numbersign" unicode="#" horiz-adv-x="1507" 
d="M381 406h-211v104h233l95 401h-248v105h272l96 422h103l-96 -422h389l96 422h102l-96 -422h219v-105h-243l-95 -401h260v-104h-282l-92 -406h-103l92 406h-389l-92 -406h-102zM897 510l92 401h-387l-94 -401h389z" />
    <glyph glyph-name="dollar" unicode="$" horiz-adv-x="1277" 
d="M696 -16q-221 0 -497 26v115q291 -25 440 -25q116 0 185.5 12t114.5 46t61 87t16 142q0 59 -2.5 94.5t-13.5 67t-26.5 47.5t-47.5 30.5t-71 21.5t-103 14l-351 38q-144 15 -193.5 90.5t-49.5 276.5q0 149 47.5 231.5t156 119t304.5 36.5q267 0 434 -29v-110
q-187 22 -408 22q-151 0 -230.5 -24t-113 -81t-33.5 -165q0 -69 6.5 -109t28.5 -70t60 -44t104 -21l330 -35q76 -8 124.5 -18t88 -29t60.5 -43t35 -67.5t18 -94.5t4 -130q0 -101 -14.5 -170t-46 -119.5t-88.5 -78.5t-135.5 -41t-193.5 -13zM633 1729h121v-283h-121v283z
M633 -6h121v-283h-121v283z" />
    <glyph glyph-name="percent" unicode="%" horiz-adv-x="1816" 
d="M410 664q-90 0 -147.5 12t-88.5 47q-36 41 -48.5 123.5t-12.5 212.5q0 265 59 334q32 37 90 49t148 12q92 0 150 -12t89 -49q35 -42 47.5 -124.5t12.5 -209.5q0 -253 -58 -328q-55 -67 -241 -67zM397 735q73 0 118.5 12t68.5 44q7 10 12 23t8.5 25.5t6 32.5t3.5 32.5
t1.5 37.5t0.5 37v40.5v39.5q0 12 0.5 50t0 54t-2 47t-4.5 48t-9 36.5t-15 32.5q-40 55 -189 55q-121 0 -159 -59q-11 -17 -18 -40t-9.5 -58t-3.5 -52t-0.5 -63t0.5 -51q0 -8 -0.5 -45t0 -52t2.5 -47t5.5 -50.5t11 -40t18.5 -36.5q37 -53 153 -53zM1284 1438h98l-929 -1438
h-101zM1376 0q-100 0 -159.5 14t-90.5 58q-49 67 -49 321q0 262 56 332q31 39 89.5 52.5t153.5 13.5q94 0 152.5 -13.5t89.5 -52.5q34 -42 44.5 -122.5t10.5 -209.5q0 -126 -12 -207t-47 -123q-30 -38 -88.5 -50.5t-149.5 -12.5zM1364 70q73 0 117.5 11.5t66.5 43.5
q8 11 14 24.5t9.5 33.5t6 34.5t3 42.5t0.5 41.5v47v44.5q0 14 0.5 50.5t0.5 54t-1.5 48t-5 48.5t-10 37.5t-15.5 32.5q-40 55 -186 55q-116 0 -158 -55q-8 -13 -14.5 -29t-10.5 -37t-6 -37.5t-3 -44.5t-1 -40.5v-44v-38.5v-37v-41.5t0.5 -39t2.5 -41.5t5.5 -36t9 -35.5
t13.5 -27.5q38 -65 162 -65z" />
    <glyph glyph-name="ampersand" unicode="&#x26;" horiz-adv-x="1503" 
d="M758 -16q-233 0 -365 38t-191 122t-59 233q0 163 59.5 241.5t207.5 112.5v4q-137 34 -195.5 114t-58.5 234q0 198 139.5 284.5t460.5 86.5q240 0 448 -35v-102q-206 31 -397 31q-268 0 -384 -66.5t-116 -220.5q0 -150 73.5 -214.5t244.5 -64.5h178v-108h-178
q-192 0 -262 -62t-70 -231q0 -63 15 -110.5t46 -79t69 -52t94 -31t111.5 -14.5t129.5 -4q155 0 307 19v673h393v-108h-246v-654q-228 -36 -454 -36z" />
    <glyph glyph-name="quotesingle" unicode="'" horiz-adv-x="493" 
d="M195 1587h129l-58 -495h-96z" />
    <glyph glyph-name="quotesingle" unicode="&#x2032;" horiz-adv-x="493" 
d="M195 1587h129l-58 -495h-96z" />
    <glyph glyph-name="parenleft" unicode="(" horiz-adv-x="735" 
d="M475 -319q-98 114 -154 200.5t-91.5 196t-46.5 230t-11 310.5q0 253 24 401.5t86.5 268t192.5 266.5h88q-149 -187 -203.5 -386t-54.5 -550q0 -361 49 -540t209 -397h-88z" />
    <glyph glyph-name="parenright" unicode=")" horiz-adv-x="735" 
d="M260 -319h-88q160 218 209 397t49 540q0 351 -54.5 550t-203.5 386h88q130 -147 192.5 -266.5t86.5 -268t24 -401.5q0 -190 -11 -310.5t-46.5 -230t-91.5 -196t-154 -200.5z" />
    <glyph glyph-name="uni066D" unicode="*" horiz-adv-x="1314" 
d="M561 1124l78 29l170 -371l-123 -51zM172 696l-2 86l408 35l8 -131zM463 184l-82 25l92 397l129 -33zM1038 307l-49 -67l-358 192l67 113zM1094 881l51 -68l-301 -274l-86 100z" />
    <glyph glyph-name="uni066D" unicode="&#x66d;" horiz-adv-x="1314" 
d="M561 1124l78 29l170 -371l-123 -51zM172 696l-2 86l408 35l8 -131zM463 184l-82 25l92 397l129 -33zM1038 307l-49 -67l-358 192l67 113zM1094 881l51 -68l-301 -274l-86 100z" />
    <glyph glyph-name="plus" unicode="+" horiz-adv-x="1159" 
d="M528 473h-356v102h356v361h101v-361h360v-102h-360v-360h-101v360z" />
    <glyph glyph-name="comma" unicode="," horiz-adv-x="438" 
d="M96 -205q72 3 96.5 34.5t24.5 121.5v49h-74v168h168v-178q0 -147 -40.5 -193t-174.5 -47v45z" />
    <glyph glyph-name="hyphen" unicode="-" horiz-adv-x="1236" 
d="M1067 440h-897v113h897v-113z" />
    <glyph glyph-name="hyphen" unicode="&#x2010;" horiz-adv-x="1236" 
d="M1067 440h-897v113h897v-113z" />
    <glyph glyph-name="period" unicode="." horiz-adv-x="520" 
d="M170 0v158l178 8v-166h-178z" />
    <glyph glyph-name="slash" unicode="/" horiz-adv-x="1044" 
d="M754 1544h118l-583 -1607h-119z" />
    <glyph glyph-name="zero" unicode="0" horiz-adv-x="1431" 
d="M717 -16q-174 0 -273.5 18.5t-148.5 60.5q-30 25 -52 69.5t-35 107t-21 116t-11 129.5t-3.5 114t-0.5 100v20q0 252 15 372q29 220 110 287q98 76 420 76q195 0 299.5 -22t152.5 -89q53 -72 72 -223t21 -381v-54.5v-69t-1 -72.5t-3 -81.5t-6.5 -78.5t-10.5 -81.5
t-15.5 -73t-21 -68.5t-28 -54t-35.5 -43q-51 -42 -150 -60.5t-274 -18.5zM709 100q120 0 186.5 8.5t105.5 36.5q19 13 34 36t25 55.5t18 64.5t12.5 75.5t7.5 76t3.5 79t1 71.5t0 66t-0.5 50q0 8 0.5 74.5t0 100.5t-3.5 100t-9.5 106.5t-19.5 84.5t-32 68q-61 84 -329 84
q-211 0 -275 -47q-19 -13 -34 -35.5t-25.5 -56t-18.5 -62.5t-12.5 -76.5t-8 -75t-4.5 -80t-1.5 -69.5t0.5 -67v-49q0 -6 -0.5 -49t0 -65.5t1.5 -71t4 -79.5t7.5 -76t13 -76.5t19 -64.5t26.5 -56t35 -36q40 -29 106 -37t167 -8z" />
    <glyph glyph-name="one" unicode="1" horiz-adv-x="735" 
d="M565 0h-157v1282l-297 -149v120l338 185h116v-1438z" />
    <glyph glyph-name="two" unicode="2" horiz-adv-x="1306" 
d="M172 154q0 220 49 325t178 160l398 174q107 46 143.5 99.5t36.5 166.5q0 106 -30 159.5t-104 76t-220 22.5q-197 0 -422 -24v108q199 33 465 33t367.5 -76.5t101.5 -277.5q0 -170 -50 -250t-196 -143l-393 -170q-103 -44 -137.5 -123t-34.5 -269v-26h811v-119h-963v154z
" />
    <glyph glyph-name="three" unicode="3" horiz-adv-x="1261" 
d="M551 -16q-222 0 -418 32v107q301 -23 406 -23q222 0 307.5 61t85.5 220q0 157 -66 223t-221 66h-260v116h260q273 0 273 275q0 109 -36.5 167.5t-121.5 83.5t-244 25q-200 0 -375 -24v108q182 33 412 33q289 0 405.5 -83t116.5 -288q0 -153 -58.5 -235.5t-191.5 -114.5
q138 -22 202.5 -107t64.5 -249q0 -218 -120.5 -305.5t-420.5 -87.5z" />
    <glyph glyph-name="four" unicode="4" horiz-adv-x="1374" 
d="M121 461l541 977h172l-555 -973h620l39 539h106v-539h211v-119h-211v-346h-155v346h-768v115z" />
    <glyph glyph-name="five" unicode="5" horiz-adv-x="1236" 
d="M553 -16q-232 0 -420 32v107q263 -23 402 -23q96 0 162 9.5t113.5 30.5t73.5 59t38 90t12 129q0 97 -17 153.5t-67 92.5t-129.5 48.5t-214.5 12.5q-142 0 -354 -31v744h833v-119h-698v-502q165 23 342 23q180 0 279 -38t142 -123.5t44 -242.5q0 -108 -16.5 -182t-53 -128
t-101 -84t-153 -44t-217.5 -14z" />
    <glyph glyph-name="six" unicode="6" horiz-adv-x="1396" 
d="M731 -16q-116 0 -197 9t-145.5 33t-103 60.5t-64.5 97.5t-36 138t-11 188l-2 248q-4 420 111 553q61 76 170.5 109.5t294.5 33.5q154 0 415 -33v-108q-187 24 -381 24q-157 0 -244.5 -25t-131.5 -83q-33 -44 -49.5 -128t-19.5 -153.5t-3 -189.5v-23h2q43 51 155.5 79
t272.5 28q157 0 243 -14.5t140 -61.5q98 -85 98 -317q0 -275 -90 -365q-97 -100 -424 -100zM729 98q113 0 186.5 12t116.5 52q35 32 49.5 88t14.5 158q0 116 -16 175.5t-56 90.5q-37 29 -106 41t-203 12q-136 0 -232.5 -21.5t-124.5 -58.5q-24 -33 -24 -180q0 -96 10 -156.5
t33.5 -105t71 -66.5t112.5 -31.5t168 -9.5z" />
    <glyph glyph-name="seven" unicode="7" horiz-adv-x="1210" 
d="M1092 1438v-113l-582 -1325h-174l592 1319h-809v119h973z" />
    <glyph glyph-name="eight" unicode="8" horiz-adv-x="1445" 
d="M723 -16q-206 0 -325 38.5t-172.5 123t-53.5 231.5q0 168 55.5 242.5t208.5 111.5v4q-140 35 -196 112.5t-56 235.5q0 205 120.5 288t418.5 83t418.5 -83t120.5 -288q0 -160 -58.5 -241.5t-193.5 -110.5v-2q145 -31 204.5 -110.5t59.5 -241.5q0 -113 -27.5 -186.5
t-93.5 -120.5t-169 -66.5t-261 -19.5zM723 776q69 0 119 4t95.5 15.5t75 31.5t51.5 51t32 76t10 105q0 85 -17 137.5t-62 86t-116.5 46t-187.5 12.5q-220 0 -301.5 -60t-81.5 -222q0 -85 17.5 -138t63 -86t117 -46t185.5 -13zM723 96q157 0 240.5 25.5t119 86t35.5 175.5
q0 120 -34 181t-116.5 86.5t-244.5 25.5q-120 2 -193.5 -10t-120 -46.5t-64 -90t-17.5 -146.5q0 -112 36.5 -173t120.5 -87.5t238 -26.5z" />
    <glyph glyph-name="nine" unicode="9" horiz-adv-x="1396" 
d="M666 1454q116 0 196.5 -9t145 -33t103.5 -60.5t64.5 -97.5t36 -138t11.5 -188l2 -248q4 -418 -113 -553q-60 -76 -169 -109.5t-294 -33.5q-163 0 -416 32v109q195 -25 381 -25q156 0 244.5 25.5t132.5 83.5q33 44 49.5 128t19.5 153.5t3 189.5v22h-2q-43 -51 -155 -78.5
t-273 -27.5q-159 0 -244.5 14.5t-138.5 61.5q-100 84 -100 319q0 270 90 363q100 100 426 100zM668 1339q-115 0 -189.5 -11.5t-116.5 -51.5q-34 -32 -47.5 -88t-13.5 -158q0 -116 16 -175.5t56 -90.5q37 -29 106 -41t203 -12q136 0 232 22t124 60q13 19 18 56t5 122
q0 80 -6 134t-23.5 97.5t-43.5 68t-72.5 41t-104 22t-143.5 5.5z" />
    <glyph glyph-name="colon" unicode=":" horiz-adv-x="520" 
d="M350 662v-158l-178 -8v166h178zM170 -4v158l178 8v-166h-178z" />
    <glyph glyph-name="semicolon" unicode=";" horiz-adv-x="438" 
d="M143 1057h168v-168h-168v168zM96 -205q72 3 96.5 34.5t24.5 121.5v49h-74v168h168v-178q0 -147 -40.5 -193t-174.5 -47v45z" />
    <glyph glyph-name="less" unicode="&#x3c;" horiz-adv-x="1159" 
d="M172 453v102l817 348v-104l-688 -295l688 -295v-105z" />
    <glyph glyph-name="equal" unicode="=" horiz-adv-x="1236" 
d="M1067 489h-897v113h897v-113zM1067 133h-897v113h897v-113z" />
    <glyph glyph-name="greater" unicode="&#x3e;" horiz-adv-x="1159" 
d="M987 453l-817 -349v105l688 295l-688 295v104l817 -348v-102z" />
    <glyph glyph-name="question" unicode="?" horiz-adv-x="1015" 
d="M336 569q0 89 26 134.5t91 68.5l96 37q64 23 98.5 42.5t57.5 51t29.5 72t6.5 110.5q0 105 -26 157t-90.5 73.5t-194.5 21.5q-162 0 -340 -22v106q203 33 379 33q240 0 333 -74t93 -266q0 -176 -46 -249.5t-187 -127.5l-115 -45q-50 -19 -66 -48.5t-16 -102.5v-127h-129
v155zM317 168h168v-168h-168v168z" />
    <glyph glyph-name="at" unicode="@" horiz-adv-x="1935" 
d="M903 145q-164 0 -229.5 56.5t-65.5 199.5q0 152 54 204t212 52q175 0 359 -4v78q0 59 -3.5 95.5t-15.5 67t-30 46t-53.5 26.5t-79 14t-111.5 3q-126 0 -270 -18v88q129 20 323 20q80 0 134 -5t97 -20t68 -38t41.5 -62.5t22.5 -89.5t6 -123v-518h182q53 0 80 11t47 42
q39 65 39 357q0 135 -2.5 215t-12 177t-31.5 161t-58 104q-19 21 -45.5 38t-62.5 28.5t-68.5 20.5t-79.5 14t-78 8.5t-83 4.5t-74.5 1.5t-72.5 0t-59 -0.5q-237 0 -368.5 -15.5t-204.5 -62.5q-32 -20 -57.5 -56t-41.5 -75t-27 -95.5t-16.5 -99.5t-8 -108t-2.5 -100.5
t0.5 -96.5t0.5 -78q0 -11 -0.5 -63.5t0 -77.5t1.5 -79.5t4 -87.5t7.5 -83t12.5 -84.5t18.5 -72.5t26 -66.5t34.5 -48.5q32 -35 88 -60t108.5 -37t132.5 -18.5t123 -7t117 -0.5h21q250 -4 410 6v-59q-125 -4 -377 -4q-96 0 -157.5 1.5t-152 8.5t-151 20.5t-121 39.5t-96.5 63
q-24 25 -42.5 62.5t-30.5 71t-20.5 92.5t-12.5 94t-6 110.5t-2 107.5v117v55q2 284 10 378q23 256 128 350q12 11 25 20q47 32 118 52.5t166 28.5t167 10.5t178 2.5q99 0 157 -1t148 -7.5t148 -19t118 -37.5t97 -60q30 -29 52 -68t35 -95.5t21 -101.5t11 -124.5t3.5 -122
t0.5 -134.5v-46q0 -341 -58 -416q-27 -37 -73.5 -49t-124.5 -12h-279l-4 149h-2q-32 -77 -119.5 -120.5t-212.5 -43.5zM950 231q199 0 256 109q27 47 27 176v80h-309q-119 0 -157 -34.5t-38 -149.5q0 -109 44.5 -145t176.5 -36z" />
    <glyph glyph-name="A" unicode="A" horiz-adv-x="1511" 
d="M647 1438h217l537 -1438h-158l-156 406h-667l-156 -406h-155zM1057 518l-301 789h-4l-301 -789h606z" />
    <glyph glyph-name="B" unicode="B" horiz-adv-x="1370" 
d="M842 1438q187 0 275.5 -85.5t88.5 -267.5q0 -153 -59 -234t-193 -116v-2q139 -24 203 -108.5t64 -253.5q0 -192 -95 -281.5t-301 -89.5h-655v1438h672zM776 778q273 0 273 273q0 151 -60.5 211.5t-212.5 60.5h-450v-545h450zM782 113q152 0 215.5 64t63.5 218
q0 152 -64 217.5t-215 65.5h-456v-565h456z" />
    <glyph glyph-name="C" unicode="C" horiz-adv-x="1206" 
d="M1067 1321q-166 16 -279 16q-96 0 -160 -5.5t-116 -23t-81.5 -43t-50.5 -72t-30 -103t-14 -142.5q-6 -123 -6 -229q0 -99 4 -225q4 -86 13.5 -144t31.5 -104.5t52.5 -73t82.5 -43.5t116 -23t158 -6q145 0 287 19v-113q-137 -22 -334 -22q-108 0 -185.5 8t-139 28t-101 51
t-68 81.5t-43 114t-22.5 153.5q-10 107 -10 299q0 197 10 307q7 89 22 152t43.5 112.5t68 79.5t101.5 49.5t139 27t185 7.5q188 0 326 -27v-106z" />
    <glyph glyph-name="D" unicode="D" horiz-adv-x="1398" 
d="M618 1438q208 0 324 -24t174 -81q27 -24 46.5 -57.5t31.5 -81.5t19 -86t9.5 -103.5t3.5 -98.5t0 -107.5t-1 -96.5q0 -85 -1 -137t-4.5 -123.5t-12 -118.5t-22.5 -97t-36.5 -84.5t-52.5 -57.5q-64 -49 -182.5 -66.5t-295.5 -17.5h-448v1438h448zM590 117q132 0 219.5 8.5
t140.5 36.5q25 14 44.5 40.5t32 56t21 72.5t12.5 77t6 84t2 77.5t-0.5 74t-0.5 58.5q0 17 0.5 73t0 81t-1.5 76.5t-4 80t-9 70t-14 67.5t-21 52.5t-29 42.5q-50 48 -147.5 62t-251.5 14h-262v-1204h262z" />
    <glyph glyph-name="E" unicode="E" horiz-adv-x="1236" 
d="M170 1438h917v-117h-759v-537h659v-114h-659v-553h759v-117h-917v1438z" />
    <glyph glyph-name="F" unicode="F" horiz-adv-x="1193" 
d="M170 1438h874v-117h-716v-576h637v-116h-637v-629h-158v1438z" />
    <glyph glyph-name="G" unicode="G" horiz-adv-x="1404" 
d="M774 -16q-330 0 -444 86q-93 67 -125.5 226t-32.5 423q0 219 11 314q30 248 149 335q65 50 174 68t268 18q253 0 451 -39v-106q-201 28 -391 28q-135 0 -218.5 -9t-138.5 -38q-27 -15 -49 -37t-37 -54t-26.5 -60t-18 -73t-11 -71.5t-6 -77.5t-2 -70.5t0 -70t0.5 -57.5
q0 -5 -0.5 -62t0 -76.5t3 -75.5t6.5 -84t13 -75t21.5 -75t31.5 -58t43 -49q53 -40 133 -53t199 -13q95 0 314 21v524h-340v107h481v-730q-216 -36 -459 -36z" />
    <glyph glyph-name="H" unicode="H" horiz-adv-x="1437" 
d="M170 1438h158v-647h780v647h158v-1438h-158v662h-780v-662h-158v1438z" />
    <glyph glyph-name="I" unicode="I" horiz-adv-x="499" 
d="M330 1438v-1438h-160v1438h160z" />
    <glyph glyph-name="J" unicode="J" horiz-adv-x="696" 
d="M68 113q115 2 172 13.5t88 53.5q19 29 28 89t10 103t1 150v916h157v-852q0 -129 -0.5 -183.5t-6.5 -130.5t-19 -120q-22 -75 -72 -103q-84 -49 -358 -49v113z" />
    <glyph glyph-name="K" unicode="K" horiz-adv-x="1413" 
d="M170 1438h158v-652h297l483 652h166l-520 -701l528 -737h-174l-483 672h-297v-672h-158v1438z" />
    <glyph glyph-name="L" unicode="L" horiz-adv-x="1132" 
d="M170 1438h158v-1317h673v-121h-831v1438z" />
    <glyph glyph-name="M" unicode="M" horiz-adv-x="1828" 
d="M170 1438h227l514 -1200l523 1200h225v-1438h-154l-2 1241l-534 -1241h-115l-535 1241l-2 -1241h-147v1438z" />
    <glyph glyph-name="N" unicode="N" horiz-adv-x="1437" 
d="M170 1438h164l778 -1157l6 1157h148v-1438h-152l-792 1188l-5 -1188h-147v1438z" />
    <glyph glyph-name="O" unicode="O" horiz-adv-x="1509" 
d="M754 -16q-346 0 -457 82q-26 20 -47 53.5t-34 69t-22 88.5t-13.5 91.5t-7 99t-2.5 92t0.5 88.5t0.5 71t-0.5 70.5t-0.5 87.5t2.5 91t7 99t13.5 91.5t22 88.5t34 70.5t47 54.5q106 82 457 82q347 0 456 -80q27 -20 48 -54.5t34 -70t22.5 -88.5t14 -92t7 -99.5t2.5 -91.5
t-0.5 -88.5t-0.5 -70.5q0 -6 0.5 -76t0 -97t-3 -94.5t-8.5 -106t-15.5 -91t-26 -90t-37.5 -64.5q-30 -37 -79.5 -61.5t-119.5 -35.5t-135.5 -15t-158.5 -4zM754 100q8 0 48 -0.5t58 0t55.5 2.5t60 7.5t51.5 14t49.5 23.5t35.5 35q19 25 32.5 70t20 85t10 106.5t4 99t0 101
t-0.5 75.5q0 13 1 70t0.5 92t-3 95t-10 101.5t-19 88t-31.5 78.5t-47 50q-14 9 -33 16t-36 11.5t-42 7.5t-41 4.5t-45 2.5t-41 1h-41.5h-35.5h-27.5h-32.5t-32 -0.5t-35.5 -1t-33.5 -2t-35.5 -4t-32 -5.5t-32.5 -7.5t-27.5 -10t-25.5 -12.5q-27 -17 -47 -49.5t-31.5 -78
t-19 -88t-9.5 -102t-2.5 -95t0.5 -92t1 -70.5t-1 -70.5t-0.5 -92t3 -95.5t9.5 -102t19 -88t32.5 -78.5t47.5 -49.5q33 -21 89.5 -31t94.5 -11t128 -1z" />
    <glyph glyph-name="P" unicode="P" horiz-adv-x="1347" 
d="M803 1438q119 0 193 -21.5t119.5 -75.5t63 -136t17.5 -212q0 -128 -18 -209.5t-63.5 -135.5t-120 -76.5t-191.5 -22.5h-475v-549h-158v1438h633zM750 664q91 0 146 15.5t87 56t43.5 100t11.5 157.5q0 99 -11 158t-43 100t-87.5 56.5t-146.5 15.5h-422v-659h422z" />
    <glyph glyph-name="Q" unicode="Q" horiz-adv-x="1523" 
d="M754 -16q-346 0 -457 82q-26 20 -47 53.5t-34 69t-22 88.5t-13.5 91.5t-7 99t-2.5 92t0.5 88.5t0.5 71t-0.5 70.5t-0.5 87.5t2.5 91t7 99t13.5 91.5t22 88.5t34 70.5t47 54.5q106 82 457 82q347 0 456 -80q27 -20 48 -54.5t34 -70t22.5 -88.5t14 -92t7 -99.5t2.5 -91.5
t-0.5 -88.5t-0.5 -70.5q0 -6 0.5 -76t0 -97t-3 -94.5t-8.5 -106t-15.5 -91t-26 -90t-37.5 -64.5q-30 -37 -79.5 -61.5t-119.5 -35.5t-135.5 -15t-158.5 -4zM754 100q8 0 48 -0.5t58 0t55.5 2.5t60 7.5t51.5 14t49.5 23.5t35.5 35q19 25 32.5 70t20 85t10 106.5t4 99t0 101
t-0.5 75.5q0 13 1 70t0.5 92t-3 95t-10 101.5t-19 88t-31.5 78.5t-47 50q-14 9 -33 16t-36 11.5t-42 7.5t-41 4.5t-45 2.5t-41 1h-41.5h-35.5h-27.5h-32.5t-32 -0.5t-35.5 -1t-33.5 -2t-35.5 -4t-32 -5.5t-32.5 -7.5t-27.5 -10t-25.5 -12.5q-27 -17 -47 -49.5t-31.5 -78
t-19 -88t-9.5 -102t-2.5 -95t0.5 -92t1 -70.5t-1 -70.5t-0.5 -92t3 -95.5t9.5 -102t19 -88t32.5 -78.5t47.5 -49.5q33 -21 89.5 -31t94.5 -11t128 -1zM707 434h159l500 -674l-2 -6h-162z" />
    <glyph glyph-name="R" unicode="R" horiz-adv-x="1378" 
d="M836 1438q219 0 300 -90t81 -334q0 -177 -45.5 -263.5t-155.5 -125.5l-29 -11l240 -614h-164l-223 596q-34 -6 -84 -6h-428v-590h-158v1438h666zM760 702q172 0 234.5 64.5t62.5 245.5q0 184 -55.5 247.5t-219.5 63.5h-454v-621h432z" />
    <glyph glyph-name="S" unicode="S" horiz-adv-x="1359" 
d="M711 -16q-222 0 -498 26v115q291 -25 440 -25q116 0 186 12.5t114 46.5t60.5 87t16.5 141q0 59 -2.5 94.5t-13.5 67t-26.5 47.5t-47.5 30.5t-71 21.5t-103 14l-350 38q-145 17 -194.5 92t-49.5 275q0 149 47.5 231.5t156 119t304.5 36.5q267 0 434 -29v-110
q-187 22 -407 22q-151 0 -230.5 -24t-113 -81t-33.5 -165q0 -69 6.5 -109t28 -70t60 -44t103.5 -21l330 -35q76 -8 124.5 -18t88 -29t60.5 -43t35 -67.5t18 -94.5t4 -130q0 -126 -21.5 -204.5t-77.5 -129t-145.5 -69.5t-232.5 -19z" />
    <glyph glyph-name="T" unicode="T" horiz-adv-x="1339" 
d="M590 1315h-457v123h1073v-123h-456v-1315h-160v1315z" />
    <glyph glyph-name="U" unicode="U" horiz-adv-x="1423" 
d="M330 557q0 -99 5 -163t20.5 -119t40.5 -85t69.5 -51.5t103 -29t144.5 -7.5q83 0 139 7t100.5 27t70 51t42.5 84t23 120t6 166v881h159v-813q0 -108 -4 -185.5t-15.5 -146t-29 -113t-48.5 -81.5t-68.5 -57.5t-95 -34.5t-123 -18.5t-156.5 -4.5q-93 0 -161.5 5.5t-126 21
t-96 37t-68.5 60.5t-46.5 83t-27 112.5t-14 142.5t-3.5 179v813h160v-881z" />
    <glyph glyph-name="V" unicode="V" horiz-adv-x="1458" 
d="M109 1438h163l455 -1270h4l459 1270h160l-519 -1438h-204z" />
    <glyph glyph-name="W" unicode="W" horiz-adv-x="2086" 
d="M111 1438h159l308 -1266h4l372 1266h162l373 -1266h4l334 1266h149l-379 -1438h-196l-365 1208l-4 -2l-364 -1206h-201z" />
    <glyph glyph-name="X" unicode="X" horiz-adv-x="1486" 
d="M653 723l-514 715h178l426 -582h7l430 582h170l-516 -711l522 -727h-178l-433 590h-10l-434 -590h-170z" />
    <glyph glyph-name="Y" unicode="Y" horiz-adv-x="1452" 
d="M645 555l-516 883h166l430 -740h2l434 740h160l-516 -883v-555h-160v555z" />
    <glyph glyph-name="Z" unicode="Z" horiz-adv-x="1333" 
d="M150 121l833 1200h-811v117h997v-119l-833 -1202h846v-117h-1032v121z" />
    <glyph glyph-name="bracketleft" unicode="[" horiz-adv-x="722" 
d="M170 1554h383v-88l-254 -8v-1679l254 -10v-88h-383v1873z" />
    <glyph glyph-name="backslash" unicode="\" horiz-adv-x="1044" 
d="M291 1544l583 -1607h-118l-584 1607h119z" />
    <glyph glyph-name="bracketright" unicode="]" horiz-adv-x="722" 
d="M553 1554v-1873h-383v88l254 10v1679l-254 8v88h383z" />
    <glyph glyph-name="underscore" unicode="_" horiz-adv-x="1431" 
d="M1262 -236h-1092v107h1092v-107z" />
    <glyph glyph-name="a" unicode="a" horiz-adv-x="1222" 
d="M518 -16q-196 0 -272 66t-76 235q0 94 13.5 150t50.5 91t95 47.5t154 10.5q60 -1 204.5 -6t221.5 -5v97q0 67 -5 111.5t-20 80t-37.5 55t-64 33t-92.5 17.5t-129 4q-175 0 -319 -21v97q153 26 379 26q92 0 154 -6t112.5 -23.5t80 -44.5t49.5 -73.5t27 -106t7 -145.5v-674
h-136l-8 162h-2q-34 -91 -128.5 -134.5t-258.5 -43.5zM575 80q195 0 264.5 71t69.5 269v96h-366q-146 0 -192 -42.5t-46 -176.5q0 -129 54.5 -173t215.5 -44z" />
    <glyph glyph-name="b" unicode="b" horiz-adv-x="1234" 
d="M172 1554h145l13 -641h-2q31 78 126.5 119t243.5 41q79 0 135.5 -10t100.5 -35.5t71.5 -64t45.5 -101.5t25 -142.5t7 -191.5q0 -165 -16.5 -265.5t-61.5 -165t-116.5 -89t-188.5 -24.5q-322 0 -385 180l-8 -164h-135v1554zM627 96q68 0 114 7t82.5 26t57.5 48.5t35 80
t19 114t5 156.5q0 110 -8 181t-27.5 123.5t-56.5 79.5t-89 39t-132 12q-64 0 -110 -8t-82.5 -28t-58.5 -51t-37 -81t-20.5 -113.5t-5.5 -153.5q0 -169 29 -261t96 -131.5t189 -39.5z" />
    <glyph glyph-name="c" unicode="c" horiz-adv-x="1026" 
d="M600 -16q-89 0 -152 9.5t-112.5 34t-79.5 62.5t-49.5 101t-27 142.5t-7.5 192.5q0 211 39.5 328t129 168t251.5 51q166 0 282 -22v-101q-143 21 -237 21q-127 0 -194.5 -39.5t-96.5 -132.5t-29 -269q0 -134 14.5 -216.5t53 -134.5t99 -71.5t159.5 -19.5q129 0 240 21v-99
q-127 -26 -283 -26z" />
    <glyph glyph-name="d" unicode="d" horiz-adv-x="1232" 
d="M928 0l-10 162q-63 -178 -383 -178q-93 0 -156.5 16t-109.5 52t-71 101t-36.5 154t-11.5 221q0 134 11 223.5t36 155t71 100.5t109.5 50.5t159.5 15.5q147 0 242 -41.5t126 -118.5l13 641h145v-1554h-135zM606 96q123 0 190 39.5t95.5 131.5t28.5 261q0 134 -13 214.5
t-50 132t-95.5 70t-155.5 18.5q-66 0 -112 -7.5t-82 -27.5t-57.5 -50t-35.5 -81t-19 -114t-5 -155q0 -94 4.5 -157.5t18.5 -114t35 -79.5t57.5 -48.5t82 -26t113.5 -6.5z" />
    <glyph glyph-name="e" unicode="e" horiz-adv-x="1220" 
d="M172 526q0 122 6.5 202.5t27 145.5t50.5 100.5t85.5 59.5t123.5 31.5t172 7.5q85 0 143.5 -6t106 -22t76 -41t49 -67.5t30 -96t13.5 -131.5q4 -68 4 -207h-746v-21q0 -86 5.5 -144t22 -104.5t41 -72.5t68 -43t97.5 -23t135 -6q154 0 336 21v-97q-120 -28 -371 -28
q-103 0 -173 8.5t-125.5 33t-87.5 61t-53 100t-28.5 143t-7.5 196.5zM924 571q3 114 -6 189q-13 92 -40 137t-81.5 63.5t-161.5 18.5q-73 0 -120 -5t-85.5 -22t-59.5 -41.5t-34.5 -71t-18 -103t-4.5 -144.5v-21h611z" />
    <glyph glyph-name="f" unicode="f" horiz-adv-x="940" 
d="M150 1057h217v24q0 25 -1.5 75t-2 81.5t2.5 76t10.5 74.5t23.5 59.5t40 47.5q43 31 121.5 44.5t226.5 14.5v-94q-163 0 -218.5 -36t-55.5 -140v-227h274v-103h-274v-954h-147v954h-217v103z" />
    <glyph glyph-name="g" unicode="g" horiz-adv-x="1265" 
d="M555 1073q319 0 377 -178h2l16 162h133q11 -391 11 -522q0 -79 -3.5 -227t-3.5 -181q-2 -204 -27.5 -311t-86.5 -164q-99 -92 -365 -92q-213 0 -383 18v98q242 -12 340 -12q118 0 187.5 16.5t109.5 53.5q47 45 60.5 117t13.5 192v123h-2q-37 -91 -124.5 -131.5
t-252.5 -40.5q-121 0 -194 22.5t-111 73.5q-80 105 -80 445q0 343 78 442q38 51 111 73.5t194 22.5zM631 963q-108 0 -169.5 -17.5t-90.5 -56.5q-35 -46 -45.5 -134.5t-10.5 -228.5q0 -273 56 -348q29 -39 90 -56.5t168 -17.5q79 0 130.5 12t88.5 38.5t56 77.5t27.5 121
t8.5 177q0 104 -9 174.5t-29.5 122.5t-57.5 81t-88 42t-125 13z" />
    <glyph glyph-name="h" unicode="h" horiz-adv-x="1222" 
d="M172 1554h145l7 -651h2q72 170 370 170q114 0 182 -19t107.5 -69.5t52.5 -122.5t13 -194v-668h-146v631q0 72 -4 120.5t-16.5 87.5t-31 61t-51.5 36.5t-74 19.5t-103 5q-75 0 -126 -12t-87.5 -38.5t-56.5 -75.5t-29 -116.5t-9 -167.5v-551h-145v1554z" />
    <glyph glyph-name="i" unicode="i" horiz-adv-x="501" 
d="M328 1057v-1057h-148v1057h148zM170 1554h162v-151h-162v151z" />
    <glyph glyph-name="j" unicode="j" horiz-adv-x="634" 
d="M109 -332q119 0 159.5 27.5t40.5 107.5v1254h148v-1213q0 -107 -30.5 -164t-104 -81.5t-213.5 -24.5v94zM303 1554h160v-151h-160v151z" />
    <glyph glyph-name="k" unicode="k" horiz-adv-x="1169" 
d="M172 1554h145v-966h158l391 469h156l-426 -508l434 -549h-164l-389 481h-160v-481h-145v1554z" />
    <glyph glyph-name="l" unicode="l" horiz-adv-x="489" 
d="M319 1554v-1554h-149v1554h149z" />
    <glyph glyph-name="m" unicode="m" horiz-adv-x="1820" 
d="M303 1057l14 -170h5q34 88 125 137t219 49q134 0 207.5 -43t101.5 -141h8q78 184 340 184q101 0 161.5 -17.5t98.5 -65t52 -122.5t14 -200v-668h-146v631q0 105 -9.5 166t-39 99.5t-75.5 51.5t-126 13q-153 0 -209.5 -82t-56.5 -306v-573h-143v631q0 192 -52 261t-198 69
q-87 0 -152.5 -37t-97.5 -105q-27 -53 -27 -254v-565h-145v1057h131z" />
    <glyph glyph-name="n" unicode="n" horiz-adv-x="1222" 
d="M303 1057l14 -170h5q41 91 138.5 138.5t233.5 47.5q111 0 177.5 -16.5t108 -64t56.5 -123t15 -201.5v-668h-146v631q0 73 -4 121t-16 87t-30.5 61t-51.5 36.5t-74.5 19.5t-103.5 5q-203 0 -273 -117q-20 -32 -27.5 -94.5t-7.5 -198.5v-551h-145v1057h131z" />
    <glyph glyph-name="o" unicode="o" horiz-adv-x="1269" 
d="M635 -16h-20h-62t-63 2.5t-67 7.5t-61.5 15t-59 24t-46 36t-35.5 50q-49 100 -49 409q0 151 10 251.5t41 160.5q37 72 132.5 102.5t279.5 30.5q183 0 277.5 -30.5t131.5 -102.5q54 -106 54 -412q0 -159 -13.5 -263t-50.5 -163q-18 -31 -48.5 -53t-65 -34.5t-84 -19.5
t-94 -9t-107.5 -2zM631 88q97 0 162.5 15.5t99.5 60.5q36 48 47.5 136.5t11.5 227.5q0 105 -1.5 156.5t-11.5 113t-30 93.5q-30 50 -95 65t-189 15q-104 0 -170.5 -17t-96.5 -63q-19 -29 -29 -86t-12 -105t-2 -125q0 -7 -0.5 -56t-0.5 -76t2.5 -77t7 -82.5t13 -66.5
t21.5 -53q32 -48 98.5 -62t174.5 -14z" />
    <glyph glyph-name="p" unicode="p" horiz-adv-x="1234" 
d="M307 1053l8 -162q63 178 385 178q117 0 188.5 -24.5t116.5 -89t61.5 -165t16.5 -264.5q0 -112 -7 -192t-25 -143t-45.5 -102t-71.5 -64t-100.5 -35t-135.5 -10q-148 0 -243.5 41.5t-126.5 119.5h2l-13 -567h-145v1479h135zM627 958q-122 0 -189 -39.5t-96 -131.5
t-29 -261q0 -108 9 -179.5t29 -123t57.5 -79.5t89 -40t129.5 -12q67 0 113 7.5t82.5 27.5t58 50t35.5 80.5t19 113.5t5 155q0 93 -5 156.5t-19 114t-35 80t-57.5 48.5t-82.5 26t-114 7z" />
    <glyph glyph-name="q" unicode="q" horiz-adv-x="1234" 
d="M1065 -428h-147l-11 567q-31 -77 -126 -118t-244 -41q-79 0 -135.5 10t-100.5 35t-71.5 64t-45.5 101.5t-25 142t-7 191.5q0 110 7 189t25 141.5t46 102t72 65.5t100.5 36.5t134.5 10.5q320 0 383 -178l8 162h137v-1481zM608 958q-68 0 -114 -7t-82.5 -26t-57.5 -48.5
t-35 -80.5t-19 -114.5t-5 -157.5q0 -92 5 -155t19 -113.5t35.5 -80t58 -49.5t82.5 -27t113 -7q65 0 110.5 7.5t82 27.5t58.5 51t37 80.5t20.5 113t5.5 152.5q0 169 -29 261.5t-96 132.5t-189 40z" />
    <glyph glyph-name="r" unicode="r" horiz-adv-x="796" 
d="M305 1057l8 -219q40 106 138 169.5t223 65.5v-131q-116 -1 -201.5 -48.5t-122.5 -129.5q-33 -65 -33 -277v-487h-145v1057h133z" />
    <glyph glyph-name="s" unicode="s" horiz-adv-x="1140" 
d="M584 -16q-195 0 -379 22v98q184 -20 352 -20q165 0 222 41t57 158q0 104 -32 140.5t-130 47.5l-297 31q-122 12 -163.5 67.5t-41.5 204.5q0 90 19 145.5t67.5 91t125 49t198.5 13.5q211 0 329 -22v-99q-157 23 -319 23q-169 0 -228 -41.5t-59 -155.5q0 -97 31.5 -131
t130.5 -43l278 -31q96 -9 142.5 -35t65 -82.5t18.5 -170.5q0 -172 -82.5 -236.5t-304.5 -64.5z" />
    <glyph glyph-name="t" unicode="t" horiz-adv-x="882" 
d="M133 1057h215v317h148v-317h254v-103h-254v-954h-148v954h-215v103z" />
    <glyph glyph-name="u" unicode="u" horiz-adv-x="1222" 
d="M920 16l-17 168h-2q-38 -87 -138.5 -135.5t-234.5 -48.5q-74 0 -126.5 7t-94 26t-66.5 48t-41.5 76t-23 106.5t-6.5 144.5v665h145v-631q0 -72 4 -120.5t16.5 -87.5t31.5 -60.5t52.5 -36t75 -19.5t103.5 -5q203 0 272 118q20 31 27.5 94t7.5 199v549h146v-1057h-131z" />
    <glyph glyph-name="v" unicode="v" horiz-adv-x="1216" 
d="M123 1057h147l336 -916h4l338 916h146l-394 -1057h-186z" />
    <glyph glyph-name="w" unicode="w" horiz-adv-x="1806" 
d="M123 1057h145l273 -907l4 -3l295 910h135l287 -907h2l280 907h142l-332 -1057h-172l-275 840h-4l-285 -840h-172z" />
    <glyph glyph-name="x" unicode="x" horiz-adv-x="1257" 
d="M541 539l-385 518h161l316 -420h2l315 420h154l-385 -516l399 -541h-162l-329 440h-4l-330 -440h-152z" />
    <glyph glyph-name="y" unicode="y" horiz-adv-x="1222" 
d="M571 -440q-201 0 -354 18v98q226 -12 313 -12q140 0 217.5 27t114.5 88q24 39 33.5 93.5t9.5 147.5v154h-4q-38 -95 -127 -138.5t-246 -43.5q-110 0 -176.5 17.5t-108 65.5t-56.5 123t-15 201v658h145v-621q0 -68 2.5 -110t12.5 -84t28 -64.5t49.5 -41t77.5 -25.5t111 -7
q94 0 151 18t93.5 66.5t49.5 125t13 202.5v541h146v-936q0 -172 -20.5 -276t-77 -170t-146 -90.5t-236.5 -24.5z" />
    <glyph glyph-name="z" unicode="z" horiz-adv-x="1134" 
d="M150 104l651 850h-625v103h803v-105l-649 -848h653v-104h-833v104z" />
    <glyph glyph-name="braceleft" unicode="{" horiz-adv-x="866" 
d="M170 647q104 10 158.5 81t56.5 194l6 284q1 114 49 189t170 159h84q-180 -155 -180 -409v-221q0 -130 -50.5 -203.5t-156.5 -99.5v-7q106 -26 156.5 -100t50.5 -203v-219q0 -256 180 -411h-84q-112 76 -164.5 160.5t-54.5 187.5l-6 284q-2 124 -56.5 194t-158.5 79v61z
" />
    <glyph glyph-name="bar" unicode="|" horiz-adv-x="475" 
d="M305 1554v-1785h-135v1785h135z" />
    <glyph glyph-name="braceright" unicode="}" horiz-adv-x="866" 
d="M696 647v-61q-104 -9 -158.5 -79t-56.5 -194l-6 -284q-2 -103 -54.5 -187.5t-164.5 -160.5h-84q180 155 180 411v219q0 129 50.5 203t156.5 100v7q-106 26 -156.5 99.5t-50.5 203.5v221q0 254 -180 409h84q122 -84 170 -159t49 -189l6 -284q2 -123 56.5 -194t158.5 -81z
" />
    <glyph glyph-name="uni00A0" unicode="&#xa0;" horiz-adv-x="552" 
 />
    <glyph glyph-name="cent" unicode="&#xa2;" horiz-adv-x="1243" 
d="M713 195q-90 0 -152.5 9t-112.5 33.5t-80 62.5t-50 100t-27.5 141t-7.5 192v39q0 159 20.5 261.5t71 167.5t129.5 91.5t201 26.5q166 0 280 -25v-98q-123 18 -235 18q-64 0 -110.5 -8.5t-83.5 -29.5t-60 -53t-38.5 -82.5t-21.5 -114.5t-6 -152v-41q0 -133 14.5 -214
t53 -131.5t98.5 -69.5t158 -19q136 0 239 20v-98q-124 -26 -280 -26zM647 1548h121v-254h-121v254zM647 221h121v-254h-121v254z" />
    <glyph glyph-name="sterling" unicode="&#xa3;" horiz-adv-x="1396" 
d="M346 971q0 100 11 172.5t39 127.5t68.5 89t106 55.5t145.5 30t193 8.5q185 0 326 -27v-106q-166 16 -281 16q-92 0 -155.5 -5.5t-116.5 -21.5t-84.5 -41t-53 -67t-30 -97t-8.5 -134v-844h729v-127h-889v971zM164 936h991v-109h-991v109zM164 596h991v-109h-991v109z" />
    <glyph glyph-name="currency" unicode="&#xa4;" horiz-adv-x="1562" 
d="M774 152q-197 0 -305 51l-25 10l-229 -233l-70 69l224 227l-11 21q-55 110 -55 420q0 68 1 107.5t5.5 102.5t17 115t31.5 95l9 20l-224 225l74 72l227 -229l21 10q104 51 309 51q224 0 307 -53l23 -12l229 233l72 -70l-223 -225l8 -18q25 -47 38 -136.5t14 -141.5t1 -146
q0 -93 -1 -144.5t-13.5 -140.5t-36.5 -135l-10 -21l223 -225l-72 -74l-231 234l-23 -10q-122 -49 -305 -49zM774 256q111 0 177.5 16.5t97.5 63.5q51 78 51 381q0 304 -49 381q-31 51 -97.5 67.5t-183.5 16.5q-109 0 -175 -17t-97 -67q-49 -79 -49 -381q0 -300 49 -379
q30 -49 96.5 -65.5t179.5 -16.5z" />
    <glyph glyph-name="yen" unicode="&#xa5;" horiz-adv-x="1566" 
d="M702 555h-442v109h383l-129 217h-254v108h191l-263 449h164l262 -449h340l265 449h159l-264 -449h193v-108h-254l-129 -217h383v-109h-445v-555h-160v555zM893 881h-217l108 -181z" />
    <glyph glyph-name="brokenbar" unicode="&#xa6;" horiz-adv-x="475" 
d="M170 1554h135v-653l-135 -4v657zM170 422l135 4v-657h-135v653z" />
    <glyph glyph-name="copyright" unicode="&#xa9;" horiz-adv-x="1482" 
d="M817 330q-98 0 -157.5 12.5t-86.5 46.5q-63 77 -63 330q0 255 61 328q32 35 91.5 48t154.5 13q103 0 174 -12v-64q-60 8 -151 8q-78 0 -126 -10.5t-71 -40.5q-45 -60 -45 -270q0 -208 45 -270q23 -31 69 -41.5t128 -10.5q72 0 155 9v-66q-92 -10 -178 -10zM176 719
q0 224 9 319q25 263 124 340q105 76 461 76q181 0 291 -16.5t170 -59.5q32 -25 56.5 -67t38.5 -103.5t22.5 -110t11.5 -127t3.5 -111.5t0.5 -104v-36v-34q0 -77 -0.5 -125.5t-7 -138.5t-19.5 -150t-40 -120.5t-66 -89.5q-105 -77 -461 -77q-194 0 -302.5 19.5t-164.5 64.5
q-37 30 -62.5 91.5t-38 121t-19 150.5t-7 137t-0.5 125v26zM233 719v-25q0 -60 0.5 -97t3.5 -107.5t11 -121t20.5 -107.5t35 -97.5t52.5 -63.5q21 -16 47.5 -28t62.5 -19.5t63 -12t72.5 -6t65.5 -2t68 0t56 0.5q154 0 249 14t144 53q20 15 36.5 39.5t28.5 49t21.5 63
t15.5 66t10 74t6.5 72t3.5 74.5t1 66.5v63.5v51v30q0 74 -0.5 120t-7 132t-18.5 143t-37.5 114.5t-61.5 84.5q-86 62 -434 62q-299 0 -388 -62q-23 -17 -41.5 -42.5t-31.5 -62t-22.5 -68t-15.5 -81.5t-9.5 -79.5t-5 -85t-2 -75.5t0 -73t0.5 -57z" />
    <glyph glyph-name="guillemotleft" unicode="&#xab;" horiz-adv-x="1054" 
d="M526 633l269 424h88l-234 -424l234 -422h-88zM172 633l268 424h90l-235 -424l235 -422h-90z" />
    <glyph glyph-name="logicalnot" unicode="&#xac;" horiz-adv-x="1157" 
d="M883 475h-711v105h815v-467h-104v362z" />
    <glyph glyph-name="uni00AD" unicode="&#xad;" horiz-adv-x="1236" 
d="M1067 440h-897v113h897v-113z" />
    <glyph glyph-name="registered" unicode="&#xae;" horiz-adv-x="1482" 
d="M850 1098q121 0 163 -48.5t42 -177.5q0 -88 -21.5 -136t-70.5 -68l-23 -9l125 -323h-92l-113 311h-274v-311h-84v762h348zM817 711q88 0 121 34t33 125q0 94 -30 128t-114 34h-241v-321h231zM176 719q0 224 9 319q25 263 124 340q105 76 461 76q181 0 291 -16.5
t170 -59.5q32 -25 56.5 -67t38.5 -103.5t22.5 -110t11.5 -127t3.5 -111.5t0.5 -104v-36v-34q0 -77 -0.5 -125.5t-7 -138.5t-19.5 -150t-40 -120.5t-66 -89.5q-105 -77 -461 -77q-194 0 -302.5 19.5t-164.5 64.5q-37 30 -62.5 91.5t-38 121t-19 150.5t-7 137t-0.5 125v26z
M233 719v-25q0 -60 0.5 -97t3.5 -107.5t11 -121t20.5 -107.5t35 -97.5t52.5 -63.5q21 -16 47.5 -28t62.5 -19.5t63 -12t72.5 -6t65.5 -2t68 0t56 0.5q154 0 249 14t144 53q20 15 36.5 39.5t28.5 49t21.5 63t15.5 66t10 74t6.5 72t3.5 74.5t1 66.5v63.5v51v30q0 74 -0.5 120
t-7 132t-18.5 143t-37.5 114.5t-61.5 84.5q-86 62 -434 62q-299 0 -388 -62q-23 -17 -41.5 -42.5t-31.5 -62t-22.5 -68t-15.5 -81.5t-9.5 -79.5t-5 -85t-2 -75.5t0 -73t0.5 -57z" />
    <glyph glyph-name="degree" unicode="&#xb0;" horiz-adv-x="870" 
d="M436 848q-100 0 -151.5 14t-75.5 47q-22 29 -29.5 81.5t-7.5 158.5t7.5 159.5t29.5 84.5q23 33 75.5 47t151.5 14t151 -14t75 -47q23 -29 29.5 -81t6.5 -163q0 -108 -7.5 -161.5t-31.5 -82.5q-45 -57 -223 -57zM436 909q100 0 135 35q14 13 22 31t11 52t3.5 51.5
t0.5 70.5q0 93 -5 136t-25 67q-19 23 -51.5 31t-90.5 8q-61 0 -94.5 -10.5t-54.5 -34.5q-8 -10 -13.5 -25.5t-8 -28.5t-4 -36t-2 -34.5t0 -38t0.5 -32.5v-24v-30.5t1 -29t2.5 -33.5t4.5 -28.5t8 -28.5t11 -21q20 -29 56 -38t93 -9z" />
    <glyph glyph-name="plusminus" unicode="&#xb1;" horiz-adv-x="1236" 
d="M1067 -174h-897v113h897v-113zM575 584h-356v102h356v361h101v-361h360v-102h-360v-361h-101v361z" />
    <glyph glyph-name="paragraph" unicode="&#xb6;" horiz-adv-x="1245" 
d="M172 952q0 88 2 146.5t11 113t20.5 86.5t36 60t52.5 41.5t75.5 23.5t98.5 12.5t128 2.5h190v-1745h-98v780q-121 0 -196.5 5.5t-138 26t-94 50t-53.5 87.5t-28 128t-6 182zM975 1438h98v-1745h-98v1745z" />
    <glyph glyph-name="periodcentered" unicode="&#xb7;" horiz-adv-x="520" 
d="M170 774v158l178 8v-166h-178z" />
    <glyph glyph-name="guillemotright" unicode="&#xbb;" horiz-adv-x="1054" 
d="M528 633l-268 -422h-88l234 422l-234 424h88zM883 633l-269 -422h-90l236 422l-236 424h90z" />
    <glyph glyph-name="multiply" unicode="&#xd7;" horiz-adv-x="1032" 
d="M174 250l270 274l-272 275l72 73l274 -276l273 274l69 -69l-272 -275l272 -276l-72 -72l-272 275l-272 -275z" />
    <glyph glyph-name="divide" unicode="&#xf7;" horiz-adv-x="1236" 
d="M172 553h893v-113h-893v113zM551 993h121v-127h-121v127zM551 182h121v-129h-121v129z" />
    <glyph glyph-name="uni0609" unicode="&#x609;" horiz-adv-x="1980" 
d="M1599 418q98 0 154.5 -61t56.5 -160q0 -98 -58 -154.5t-155 -56.5q-95 0 -150.5 55t-55.5 152q0 99 54.5 162t153.5 63zM1597 348q-63 0 -100 -42t-37 -109q0 -57 27 -107q48 -37 110 -37q144 0 144 144q0 65 -31 116q-43 35 -113 35zM1047 418q98 0 154 -61t56 -160
q0 -98 -58 -154.5t-155 -56.5q-96 0 -151 55t-55 152q0 99 55 162t154 63zM1044 348q-63 0 -100 -42t-37 -109q0 -57 27 -107q48 -37 110 -37q144 0 144 144q0 65 -31 116q-43 35 -113 35zM1202 1270l-897 -1372l-94 67l895 1370zM379 1247q99 0 155 -61t56 -160
q0 -98 -58 -155.5t-155 -57.5q-95 0 -151 57t-56 152q0 100 54.5 162.5t154.5 62.5zM379 1178q-65 0 -102 -42t-37 -110q0 -60 26 -108q49 -35 111 -35q75 0 110 35.5t35 107.5q0 68 -33 115q-40 37 -110 37z" />
    <glyph glyph-name="uni060A" unicode="&#x60a;" horiz-adv-x="2533" 
d="M1599 418q98 0 154.5 -61t56.5 -160q0 -98 -58 -154.5t-155 -56.5q-95 0 -150.5 55t-55.5 152q0 99 54.5 162t153.5 63zM1597 348q-63 0 -100 -42t-37 -109q0 -57 27 -107q48 -37 110 -37q144 0 144 144q0 65 -31 116q-43 35 -113 35zM2152 418q98 0 153.5 -61t55.5 -160
q0 -98 -57.5 -154.5t-155.5 -56.5q-94 0 -149 55.5t-55 151.5q0 99 54.5 162t153.5 63zM2150 348q-65 0 -102 -42t-37 -109q0 -57 27 -107q48 -37 112 -37q144 0 144 144q0 62 -33 116q-41 35 -111 35zM1047 418q98 0 154 -61t56 -160q0 -98 -58 -154.5t-155 -56.5
q-96 0 -151 55t-55 152q0 99 55 162t154 63zM1044 348q-63 0 -100 -42t-37 -109q0 -57 27 -107q48 -37 110 -37q144 0 144 144q0 65 -31 116q-43 35 -113 35zM1202 1270l-897 -1372l-94 67l895 1370zM379 1247q99 0 155 -61t56 -160q0 -98 -58 -155.5t-155 -57.5
q-95 0 -151 57t-56 152q0 100 54.5 162.5t154.5 62.5zM379 1178q-65 0 -102 -42t-37 -110q0 -60 26 -108q49 -35 111 -35q75 0 110 35.5t35 107.5q0 68 -33 115q-40 37 -110 37z" />
    <glyph glyph-name="uni060B" unicode="&#x60b;" horiz-adv-x="2152" 
d="M909 -492l9 492h-506q-106 0 -174 70t-68 180v450l250 213h348q110 0 186 -70.5t76 -178.5v-512h27v-152h-27l2 -500zM895 651q-3 61 -47 101.5t-105 40.5h-284l-164 -144l-14 -350q-3 -67 41 -107t114 -40h479zM1014 0v152h702q65 0 108.5 42.5t43.5 104.5v72h-428
q-106 0 -176 71.5t-70 178.5v385l246 215h293q106 0 177.5 -70t71.5 -174v-680q0 -134 -75.5 -215.5t-210.5 -81.5h-682zM1849 956q-3 61 -46.5 101.5t-104.5 40.5h-215l-166 -144l-14 -288q-3 -67 43 -114.5t112 -47.5h414zM913 1085v160l183 10v-170h-183z" />
    <glyph glyph-name="uni060C" unicode="&#x60c;" horiz-adv-x="587" 
d="M291 332q-46 -55 -43 -88q1 -30 29.5 -65t89.5 -83l-91 -98q-107 107 -104 195q0 67 64 143l143 174l37 -39z" />
    <glyph glyph-name="uni060D" unicode="&#x60d;" horiz-adv-x="647" 
d="M340 545h137l-217 -668h-90z" />
    <glyph glyph-name="uni0615" unicode="&#x615;" 
d="M-160 59l27 43l-10 314l53 10v-240l-2 -32l35 57q33 51 104 68q27 8 80 8l86 -74v-125q0 -41 -25.5 -64.5t-68.5 -23.5h-279v59zM123 57q20 0 33.5 12.5t13.5 32.5l-6 86l-55 52q-29 0 -60 -7q-54 -13 -86 -59l-76 -115z" />
    <glyph glyph-name="uni061B" unicode="&#x61b;" horiz-adv-x="587" 
d="M180 0v158l178 8v-166h-178zM291 762q-46 -55 -43 -88q1 -30 29.5 -65t89.5 -83l-91 -98q-107 107 -104 195q0 67 64 143l143 174l37 -39z" />
    <glyph glyph-name="uni061F" unicode="&#x61f;" horiz-adv-x="927" 
d="M784 1141q-5 63 -55.5 112.5t-114.5 49.5h-180l-133 -113l-16 -279q-2 -39 25.5 -72t70.5 -59.5t88 -53t84.5 -65t52.5 -83.5q31 -94 8 -246l-110 -2q11 73 12 111t-12 85q-12 41 -51.5 76t-86 62t-91.5 56.5t-75 72t-30 96.5v344l229 199h238q93 0 168.5 -69t79.5 -159
l2 -53zM444 -27v195l222 10v-205h-222z" />
    <glyph glyph-name="uni0640" unicode="&#x640;" horiz-adv-x="407" 
d="M-2 0v152h410q26 0 26 -76q0 -33 -7 -54.5t-19 -21.5h-410z" />
    <glyph glyph-name="uni064B" unicode="&#x64b;" 
d="M203 166l24 -66l-432 -100l-16 59zM197 379l22 -62l-428 -106l-20 65z" />
    <glyph glyph-name="uni064C" unicode="&#x64c;" 
d="M-129 150q12 26 4.5 39.5t-33.5 9.5l-94 -21l-4 45l106 19q53 9 74 -18.5t-2 -76.5l-37 -75l138 34l-33 130q-6 28 9 54.5t44 33.5l88 24l96 -49l25 -104q12 -45 -5.5 -77.5t-56.5 -41.5l-344 -74l-16 57zM180 145q14 5 21.5 20t3.5 30l-23 69l-51 27l-57 -17
q-15 -3 -23.5 -16.5t-5.5 -28.5l23 -112z" />
    <glyph glyph-name="uni064D" unicode="&#x64d;" 
d="M203 -213l24 -66l-432 -100l-16 60zM197 0l22 -61l-428 -105l-20 64z" />
    <glyph glyph-name="uni064E" unicode="&#x64e;" 
d="M-209 0l-16 57l424 109l24 -66z" />
    <glyph glyph-name="uni064F" unicode="&#x64f;" 
d="M-211 59l186 50l-32 129q-8 29 7 55t44 35l90 22l94 -49l27 -104q11 -44 -6.5 -76t-57.5 -41l-334 -80zM129 147q15 3 24.5 19t4.5 31l-25 71l-49 25l-59 -14q-15 -3 -22.5 -17t-4.5 -31l22 -112z" />
    <glyph glyph-name="uni0650" unicode="&#x650;" 
d="M-209 -166l-16 60l424 106l24 -66z" />
    <glyph glyph-name="uni0651" unicode="&#x651;" 
d="M193 311l73 6v-186q0 -59 -38 -95t-101 -36q-51 0 -86.5 26.5t-38.5 67.5q-4 -41 -42 -67.5t-89 -26.5q-60 0 -96.5 36t-36.5 95v164l69 -2l-16 -148q-3 -35 21.5 -58.5t62.5 -23.5q40 0 67 24t27 60v111l62 2v-115q2 -36 27.5 -59t64.5 -23t63 22.5t21 57.5z" />
    <glyph glyph-name="uni0652" unicode="&#x652;" 
d="M-8 434q89 0 157 -64.5t68 -148.5q1 -83 -65 -152t-144 -67q-91 1 -158 68t-67 155q0 78 66 144.5t143 64.5zM6 66q52 6 95.5 53.5t43.5 101.5q-2 53 -48.5 99.5t-104.5 50.5q-47 -2 -88 -48t-41 -98q0 -63 42 -109.5t101 -49.5z" />
    <glyph glyph-name="uni0653" unicode="&#x653;" 
d="M-328 248q209 -34 373.5 -34t343.5 36l-2 -129q-175 -35 -322.5 -33.5t-347.5 39.5v-190h-77l-15 253z" />
    <glyph glyph-name="uni0654" unicode="&#x654;" 
d="M-156 0l-26 63l78 43q-26 3 -46 39l-47 84q-16 32 -20 60q0 27 12 57q1 3 11.5 33.5t17.5 50.5l100 49q39 19 75.5 8t61.5 -47l13 -24l-43 -21q-43 53 -94 27l-70 -39q-14 -43 -19 -64q-4 -20 -4 -30q0 -19 17 -53l37 -66q19 -33 41 -35.5t63 23.5l188 114l33 -61z" />
    <glyph glyph-name="uni0655" unicode="&#x655;" 
d="M-156 -506l-26 64l78 45q-25 3 -46 37l-47 86q-17 32 -20 57q0 25 12 59q4 11 14 39.5t15 42.5l100 49q39 19 75.5 8t61.5 -47l13 -22l-43 -23q-44 54 -94 27l-70 -39q-16 -51 -19 -63q-4 -16 -4 -31q0 -14 17 -53l37 -66q19 -33 41 -35.5t63 23.5l188 115l33 -62z" />
    <glyph glyph-name="uni0656" unicode="&#x656;" 
d="M-31 -8l56 8v-285l-39 -6z" />
    <glyph glyph-name="uni065A" unicode="&#x65a;" 
d="M33 0h-41l137 418l64 -12zM29 6l-37 -6l-182 391l61 25z" />
    <glyph glyph-name="uni065B" unicode="&#x65b;" 
d="M129 0l-137 418h41l160 -406zM-190 27l182 391l37 -6l-158 -410z" />
    <glyph glyph-name="uni0660" unicode="&#x660;" horiz-adv-x="534" 
d="M129 131v240l274 10v-250h-274z" />
    <glyph glyph-name="uni0661" unicode="&#x661;" horiz-adv-x="550" 
d="M248 397q-9 425 -131 830l131 37q56 -162 90 -389.5t35 -468.5l6 -541l-115 -17z" />
    <glyph glyph-name="uni0662" unicode="&#x662;" horiz-adv-x="1120" 
d="M547 487q-53 0 -102.5 25.5t-79.5 65.5q8 -94 8 -197l6 -516l-115 -17l-14 531q-12 440 -133 848l131 37q19 -50 35.5 -119.5t24.5 -116.5t22.5 -138.5t19.5 -119.5q10 -56 62.5 -93.5t119.5 -37.5h46q119 0 187.5 43.5t65.5 116.5l-22 452l141 13v-484
q0 -138 -97 -215.5t-269 -77.5h-37z" />
    <glyph glyph-name="uni0663" unicode="&#x663;" horiz-adv-x="1542" 
d="M1372 780q0 -142 -81.5 -218.5t-235.5 -76.5q-79 0 -152 45t-100 113q-45 -74 -114 -116t-150 -42q-54 0 -100 22t-72 60q6 -99 6 -186l6 -516l-115 -17l-14 529q-13 448 -133 850l131 37q20 -56 37 -128t24.5 -117t22 -142.5t18.5 -124.5q12 -56 60 -85.5t120 -29.5
q73 0 126 34.5t73 94.5q40 120 51 389h129q-2 -21 -10 -116.5t-15.5 -155t-19.5 -113.5q12 -57 61.5 -94t112.5 -37h19q200 0 194 156l-20 456l141 13v-484z" />
    <glyph glyph-name="uni0664" unicode="&#x664;" horiz-adv-x="1056" 
d="M438 -150q-155 0 -244.5 102t-91.5 279q0 150 48.5 232.5t154.5 116.5q-66 35 -103.5 108.5t-37.5 165.5q0 190 78.5 294t222.5 101l424 -8l-17 -141l-405 30q-74 5 -120 -70.5t-46 -199.5q0 -100 49 -168t131 -67l410 37l-10 -127q-75 -3 -214 -14.5t-198 -14.5
q-225 -15 -225 -252q0 -123 46.5 -190.5t129.5 -65.5l534 10l-20 -158h-496z" />
    <glyph glyph-name="uni0665" unicode="&#x665;" horiz-adv-x="1396" 
d="M295 186q0 -95 110 -148.5t306 -53.5q393 0 393 200q0 426 -94 592q-74 128 -222 182l-231 80q-45 -66 -102 -164q-91 -164 -125.5 -313.5t-34.5 -374.5zM170 164q0 257 39 430.5t135 343.5q7 13 82 135l-123 41l31 141l512 -182q188 -68 278 -235q63 -115 82 -267
t19 -393q0 -334 -529 -334q-248 0 -387 84.5t-139 235.5z" />
    <glyph glyph-name="uni0666" unicode="&#x666;" horiz-adv-x="1161" 
d="M135 1264q116 -31 359 -31q79 1 207.5 10t148.5 10q49 3 66.5 -19t17.5 -87q-9 -353 -6 -514q3 -395 63 -766l-133 -25q-64 346 -67 791q-1 84 6 500q-157 -37 -318 -37q-201 0 -362 47z" />
    <glyph glyph-name="uni0667" unicode="&#x667;" horiz-adv-x="1386" 
d="M729 -154q-78 -1 -113 22t-55 91q-8 29 -37 133t-43 153.5t-39.5 136t-49.5 158.5t-50 142q-114 302 -254 528l119 72q135 -217 237.5 -524t208.5 -738q4 -21 16 -27.5t40 -6.5h18q107 425 215.5 744.5t237.5 551.5l118 -72q-152 -271 -270.5 -598.5t-232.5 -765.5h-66z
" />
    <glyph glyph-name="uni0668" unicode="&#x668;" horiz-adv-x="1386" 
d="M729 1280h66q114 -438 232.5 -765.5t270.5 -598.5l-118 -72q-129 232 -237.5 552t-215.5 745h-18q-27 0 -39.5 -7t-16.5 -28q-106 -431 -208.5 -738t-237.5 -524l-119 72q140 226 254 528q26 70 50 142t49.5 158.5t39.5 136t43 153.5t37 133q20 68 55 91t113 22z" />
    <glyph glyph-name="uni0669" unicode="&#x669;" horiz-adv-x="1110" 
d="M868 -154q-46 210 -65 596q-174 -31 -365 -28q-129 5 -198.5 70t-69.5 182v395l219 190h264q111 0 184.5 -69t73.5 -176v-523q6 -248 82 -614zM281 713q-1 -67 40.5 -112.5t106.5 -47.5q229 -9 369 22l-13 416q-1 59 -48 99t-111 40h-199l-137 -124z" />
    <glyph glyph-name="uni066A" unicode="&#x66a;" horiz-adv-x="1427" 
d="M1047 418q98 0 154 -61t56 -160q0 -98 -58 -154.5t-155 -56.5q-96 0 -151 55t-55 152q0 99 55 162t154 63zM1044 348q-63 0 -100 -42t-37 -109q0 -57 27 -107q48 -37 110 -37q144 0 144 144q0 65 -31 116q-43 35 -113 35zM1202 1270l-897 -1372l-94 67l895 1370z
M379 1247q99 0 155 -61t56 -160q0 -98 -58 -155.5t-155 -57.5q-95 0 -151 57t-56 152q0 100 54.5 162.5t154.5 62.5zM379 1178q-65 0 -102 -42t-37 -110q0 -60 26 -108q49 -35 111 -35q75 0 110 35.5t35 107.5q0 68 -33 115q-40 37 -110 37z" />
    <glyph glyph-name="uni066B" unicode="&#x66b;" horiz-adv-x="647" 
d="M340 545h137l-217 -668h-90z" />
    <glyph glyph-name="uni066C" unicode="&#x66c;" horiz-adv-x="587" 
d="M297 68q46 55 43 88q-1 30 -29.5 64.5t-89.5 82.5l90 98q108 -108 105 -194q0 -68 -64 -144l-143 -174l-37 39z" />
    <glyph glyph-name="uni066E" unicode="&#x66e;" horiz-adv-x="1945" 
d="M424 0q-109 0 -181.5 76.5t-72.5 187.5v443l135 6v-422q0 -61 33 -100t86 -39h1073q64 0 112.5 41.5t45.5 99.5l-23 498l142 12v-545q0 -110 -77 -184t-190 -74h-1083z" />
    <glyph glyph-name="uni066F" unicode="&#x66f;" horiz-adv-x="1589" 
d="M610 -487q-189 0 -314.5 123.5t-125.5 310.5v569l135 6v-555q0 -132 85 -217.5t216 -85.5q619 0 701 203q8 31 8 104v29h-447q-109 0 -179.5 69.5t-70.5 176.5v397l244 215h305q108 0 180 -69.5t72 -174.5v-667q0 -102 -39 -178t-107.5 -124.5t-172.5 -78.5t-221.5 -41.5
t-268.5 -11.5zM1286 586q-3 65 -48.5 108t-113.5 43h-217l-166 -145l-14 -299q-4 -67 33 -104t108 -37h441z" />
    <glyph glyph-name="uni0670" unicode="&#x670;" 
d="M-29 281l56 10l-2 -285l-39 -6z" />
    <glyph glyph-name="uni0695" unicode="&#x695;" horiz-adv-x="659" 
d="M344 711l143 12v-786q0 -182 -152 -315t-433 -197l-52 159q228 43 373 143t148 216zM258 -1032h-41l137 418l64 -13zM254 -1026l-37 -6l-182 391l61 25z" />
    <glyph glyph-name="uni06A0" unicode="&#x6a0;" horiz-adv-x="1294" 
d="M485 -592q-137 0 -226 82t-89 209v78q1 120 16 187t50.5 104.5t103.5 58.5q-35 23 -58 77t-24 118v127q0 109 5 158.5t24 88.5q9 17 24.5 37.5t29.5 36t41 41.5t40.5 38t48.5 43t45 40h266q106 0 180 -71.5t74 -172.5v-41l-106 -10q0 70 -49 118t-117 48h-189
q-9 -8 -41.5 -37.5t-43.5 -40.5l-32.5 -32.5t-32.5 -38t-19 -33.5q-4 -9 -7 -20t-4.5 -19t-2.5 -26l-1.5 -27t-1.5 -36t-2 -40l-2 -127q-3 -84 44 -124t138 -28l533 76l24 -135l-594 -90q-47 -7 -79.5 -17t-57 -21.5t-40 -32.5t-24.5 -40t-13.5 -56.5t-5.5 -69.5t-1 -89
q0 -71 47.5 -115t120.5 -41l635 23l-29 -158h-598zM594 1493v145l164 9v-154h-164zM707 1311l190 -99l-539 -14v113h349zM645 1206v105h311l37 -19v-78z" />
    <glyph glyph-name="uni06A1" unicode="&#x6a1;" horiz-adv-x="1959" 
d="M424 0q-110 0 -182 74.5t-72 185.5v447l135 6v-422q0 -61 32 -100t87 -39h625v-152h-625zM821 0v152h703q65 0 108 42.5t43 104.5v72h-428q-106 0 -176 71.5t-70 178.5v385l246 215h293q106 0 178 -70t72 -174v-680q0 -134 -76 -215.5t-211 -81.5h-682zM1657 956
q-3 61 -47 101.5t-105 40.5h-215l-166 -144l-14 -288q-3 -67 43.5 -114.5t112.5 -47.5h413z" />
    <glyph glyph-name="uni06AA" unicode="&#x6aa;" horiz-adv-x="1949" 
d="M1780 268q0 -118 -75 -193t-194 -75h-1316l-25 178l1333 -26q68 -2 114.5 41.5t43.5 107.5l-12 297q-3 61 -50.5 101.5t-115.5 37.5l-979 -45l-17 135l564 568l104 -92l-493 -465l821 32q132 6 214.5 -65.5t82.5 -192.5v-344z" />
    <glyph glyph-name="uni06B5" unicode="&#x6b5;" horiz-adv-x="1503" 
d="M616 -451q-194 0 -320 125t-126 318v508l135 4v-498q0 -130 88.5 -218.5t218.5 -88.5q305 0 454 76.5t146 230.5l-34 1393l141 14l12 -1431q1 -217 -177.5 -325t-537.5 -108zM1280 1679h-41l137 418l64 -12zM1276 1686l-37 -7l-182 392l61 24z" />
    <glyph glyph-name="uni06BD" unicode="&#x6bd;" horiz-adv-x="1525" 
d="M170 559l135 4v-538q0 -133 88.5 -220.5t220.5 -87.5q303 0 463 78t156 225l-27 764l142 15l4 -799q1 -217 -186 -326.5t-558 -109.5q-118 0 -218.5 57.5t-160 158t-59.5 220.5v559zM659 1036v146l164 8v-154h-164zM772 854l191 -98l-539 -15v113h348zM711 750v104h311
l37 -18v-78z" />
    <glyph glyph-name="uni06C2" unicode="&#x6c2;" horiz-adv-x="1177" 
d="M750 156q53 0 92 49t39 112q-61 319 -109 390q-36 54 -164 96l-47 14l-100 -94q-20 -18 -47 -41.5t-41.5 -36.5t-30 -28t-24 -25.5t-13.5 -20.5q-14 -29 -14 -92l-2 -170q0 -64 42 -111t101 -46zM440 0q-114 0 -192 78.5t-78 193.5v224q0 83 20 120q23 47 177 185l61 57
l-156 47l31 133q245 -77 377 -129q83 -32 130 -62t75 -73q74 -110 121 -493q3 -110 -80.5 -195.5t-192.5 -85.5h-293zM371 1274l-27 63l78 43q-25 3 -45 39l-47 84q-18 34 -21 60q0 25 13 57q3 8 12 36.5t16 47.5l101 49q39 19 75.5 8t61.5 -47l12 -24l-43 -21
q-43 53 -94 27l-70 -39q-9 -29 -18 -64q-4 -20 -4 -30q0 -22 16 -54l37 -65q19 -33 41 -35.5t63 23.5l189 114l33 -61z" />
    <glyph glyph-name="uni06C3" unicode="&#x6c3;" horiz-adv-x="1177" 
d="M750 156q53 0 92 49t39 112q-61 319 -109 390q-36 54 -164 96l-47 14l-100 -94q-20 -18 -47 -41.5t-41.5 -36.5t-30 -28t-24 -25.5t-13.5 -20.5q-14 -29 -14 -92l-2 -170q0 -64 42 -111t101 -46zM440 0q-114 0 -192 78.5t-78 193.5v224q0 83 20 120q23 47 177 185l61 57
l-156 47l31 133q245 -77 377 -129q83 -32 130 -62t75 -73q74 -110 121 -493q3 -110 -80.5 -195.5t-192.5 -85.5h-293zM557 1346l191 -99l-539 -14v113h348zM496 1241v105h311l37 -19v-78z" />
    <glyph glyph-name="uni06CA" unicode="&#x6ca;" horiz-adv-x="1200" 
d="M412 -403q272 53 391.5 132.5t116.5 194.5l-2 72h-506q-106 0 -174 70t-68 180v450l250 213h348q110 0 186 -71t76 -179l-2 -741q0 -186 -160 -309.5t-469 -177.5l-153 -27l-37 156zM895 647q-3 61 -47 101t-105 40h-284l-164 -143l-14 -350q-1 -68 42.5 -108t112.5 -40
h479zM666 1321l190 -98l-539 -15v113h349zM604 1217v104h311l37 -18v-78z" />
    <glyph glyph-name="uni06CE" unicode="&#x6ce;" horiz-adv-x="1593" 
d="M170 543l135 6v-555q0 -129 87.5 -216t217.5 -87q139 0 211 2t170.5 15.5t165.5 41.5q136 59 160 178q2 7 2 49q0 28 -14 39t-54 11h-415q-102 0 -145.5 43t-43.5 147v451l260 227h252q96 0 172.5 -72.5t77.5 -169.5v-41l-102 -6q-3 61 -54.5 110.5t-113.5 49.5h-197
l-164 -143l-16 -363q-1 -59 25 -83.5t90 -24.5h407q139 0 139 -129q0 -33 -4 -95q-15 -194 -182 -288q-106 -60 -257 -80.5t-370 -20.5q-180 0 -310 127.5t-130 304.5v572zM266 725h-41l137 418l64 -13zM262 731l-37 -6l-182 391l61 25z" />
    <glyph glyph-name="uni06CF" unicode="&#x6cf;" horiz-adv-x="1200" 
d="M412 -403q272 53 391.5 132.5t116.5 194.5l-2 72h-506q-106 0 -174 70t-68 180v450l250 213h348q110 0 186 -71t76 -179l-2 -741q0 -186 -160 -309.5t-469 -177.5l-153 -27l-37 156zM895 647q-3 61 -47 101t-105 40h-284l-164 -143l-14 -350q-1 -68 42.5 -108t112.5 -40
h479zM543 1208v160l182 10v-170h-182z" />
    <glyph glyph-name="uni06D5" unicode="&#x6d5;" horiz-adv-x="1177" 
d="M750 156q53 0 92 49t39 112q-61 319 -109 390q-36 54 -164 96l-47 14l-100 -94q-20 -18 -47 -41.5t-41.5 -36.5t-30 -28t-24 -25.5t-13.5 -20.5q-14 -29 -14 -92l-2 -170q0 -64 42 -111t101 -46zM440 0q-114 0 -192 78.5t-78 193.5v224q0 83 20 120q23 47 177 185l61 57
l-156 47l31 133q245 -77 377 -129q83 -32 130 -62t75 -73q74 -110 121 -493q3 -110 -80.5 -195.5t-192.5 -85.5h-293z" />
    <glyph glyph-name="uni06F0" unicode="&#x6f0;" horiz-adv-x="1003" 
d="M500 586q-108 0 -170 -70t-62 -180t41 -180q78 -58 189 -58q122 0 180.5 58.5t58.5 179.5q0 117 -45 194q-72 56 -192 56zM500 686q157 0 245.5 -96.5t88.5 -253.5q0 -156 -91 -246t-247 -90q-149 0 -237.5 88.5t-88.5 241.5q0 158 85.5 257t244.5 99z" />
    <glyph glyph-name="uni06F1" unicode="&#x6f1;" horiz-adv-x="550" 
d="M248 397q-9 425 -131 830l131 37q56 -162 90 -389.5t35 -468.5l6 -541l-115 -17z" />
    <glyph glyph-name="uni06F2" unicode="&#x6f2;" horiz-adv-x="1120" 
d="M547 487q-53 0 -102.5 25.5t-79.5 65.5q8 -94 8 -197l6 -516l-115 -17l-14 531q-12 440 -133 848l131 37q19 -50 35.5 -119.5t24.5 -116.5t22.5 -138.5t19.5 -119.5q10 -56 62.5 -93.5t119.5 -37.5h46q119 0 187.5 43.5t65.5 116.5l-22 452l141 13v-484
q0 -138 -97 -215.5t-269 -77.5h-37z" />
    <glyph glyph-name="uni06F3" unicode="&#x6f3;" horiz-adv-x="1542" 
d="M1372 780q0 -142 -81.5 -218.5t-235.5 -76.5q-79 0 -152 45t-100 113q-45 -74 -114 -116t-150 -42q-54 0 -100 22t-72 60q6 -99 6 -186l6 -516l-115 -17l-14 529q-13 448 -133 850l131 37q20 -56 37 -128t24.5 -117t22 -142.5t18.5 -124.5q12 -56 60 -85.5t120 -29.5
q73 0 126 34.5t73 94.5q40 120 51 389h129q-2 -21 -10 -116.5t-15.5 -155t-19.5 -113.5q12 -57 61.5 -94t112.5 -37h19q200 0 194 156l-20 456l141 13v-484z" />
    <glyph glyph-name="uni06F4" unicode="&#x6f4;" horiz-adv-x="1337" 
d="M625 440q-165 -6 -254 56q2 -33 2 -121l6 -510l-115 -17l-14 531q-13 450 -133 848l131 37q85 -244 112 -619q29 -69 197 -61q-4 35 -18 141.5t-17 134.5q-20 182 61 293t232 111h365l-15 -140l-346 17q-77 3 -128 -81t-38 -198q19 -178 39 -276l514 28l-8 -151z" />
    <glyph glyph-name="uni06F5" unicode="&#x6f5;" horiz-adv-x="1470" 
d="M1300 119q0 -135 -81 -204t-236 -69q-76 0 -143.5 40.5t-98.5 103.5q-43 -66 -117 -105t-159 -39q-123 0 -209 76.5t-86 196.5q0 270 47.5 470t157.5 398q4 6 12.5 21.5t18 32t20.5 32.5l-119 41l31 143l567 -198q166 -62 262 -217q73 -116 103 -291t30 -432zM1180 139
q0 413 -105 606q-78 142 -244 197l-276 96q-46 -67 -84 -137q-98 -180 -135 -344.5t-37 -409.5q0 -75 47.5 -113t126.5 -38q71 0 123.5 29.5t77.5 83.5q12 23 18 73l25 172l117 -10q-23 -157 -33 -213q7 -57 56.5 -97t111.5 -40h16q198 0 195 145z" />
    <glyph glyph-name="uni06F6" unicode="&#x6f6;" horiz-adv-x="1310" 
d="M330 1004q-55 -46 -26 -138t128 -186l57 -55q53 -50 139.5 -61.5t139.5 20.5q129 170 346 342l94 -95q-286 -243 -429 -453.5t-257 -557.5l-98 47q51 180 107 310t133 251q-71 -18 -157.5 11.5t-141.5 84.5l-66 66q-123 118 -145 244.5t63 212.5l328 327l96 -106z" />
    <glyph glyph-name="uni06F7" unicode="&#x6f7;" horiz-adv-x="1386" 
d="M729 -154q-78 -1 -113 22t-55 91q-8 29 -37 133t-43 153.5t-39.5 136t-49.5 158.5t-50 142q-114 302 -254 528l119 72q135 -217 237.5 -524t208.5 -738q4 -21 16 -27.5t40 -6.5h18q107 425 215.5 744.5t237.5 551.5l118 -72q-152 -271 -270.5 -598.5t-232.5 -765.5h-66z
" />
    <glyph glyph-name="uni06F8" unicode="&#x6f8;" horiz-adv-x="1386" 
d="M729 1280h66q114 -438 232.5 -765.5t270.5 -598.5l-118 -72q-129 232 -237.5 552t-215.5 745h-18q-27 0 -39.5 -7t-16.5 -28q-106 -431 -208.5 -738t-237.5 -524l-119 72q140 226 254 528q26 70 50 142t49.5 158.5t39.5 136t43 153.5t37 133q20 68 55 91t113 22z" />
    <glyph glyph-name="uni06F9" unicode="&#x6f9;" horiz-adv-x="1110" 
d="M868 -154q-46 210 -65 596q-174 -31 -365 -28q-129 5 -198.5 70t-69.5 182v395l219 190h264q111 0 184.5 -69t73.5 -176v-523q6 -248 82 -614zM281 713q-1 -67 40.5 -112.5t106.5 -47.5q229 -9 369 22l-13 416q-1 59 -48 99t-111 40h-199l-137 -124z" />
    <glyph glyph-name="uni0762" unicode="&#x762;" horiz-adv-x="1953" 
d="M459 881v159l182 11v-170h-182zM424 0q-112 0 -183 71.5t-71 188.5v447l135 6v-422q0 -61 32 -100t87 -39h1059q76 0 127 41t51 104l-76 334l-688 348l4 143l776 320l70 -133l-688 -256l639 -332q7 -33 23.5 -108t25.5 -117.5t19.5 -105.5t15.5 -116q6 -113 -81 -193.5
t-210 -80.5h-1067z" />
    <glyph glyph-name="uni2000" unicode="&#x2000;" horiz-adv-x="1382" 
 />
    <glyph glyph-name="uni2001" unicode="&#x2001;" horiz-adv-x="2764" 
 />
    <glyph glyph-name="uni2002" unicode="&#x2002;" horiz-adv-x="1382" 
 />
    <glyph glyph-name="uni2003" unicode="&#x2003;" horiz-adv-x="2764" 
 />
    <glyph glyph-name="uni2004" unicode="&#x2004;" horiz-adv-x="968" 
 />
    <glyph glyph-name="uni2005" unicode="&#x2005;" horiz-adv-x="692" 
 />
    <glyph glyph-name="uni2006" unicode="&#x2006;" horiz-adv-x="483" 
 />
    <glyph glyph-name="uni2007" unicode="&#x2007;" horiz-adv-x="2129" 
 />
    <glyph glyph-name="uni2008" unicode="&#x2008;" horiz-adv-x="692" 
 />
    <glyph glyph-name="uni2009" unicode="&#x2009;" horiz-adv-x="346" 
 />
    <glyph glyph-name="uni200A" unicode="&#x200a;" horiz-adv-x="346" 
 />
    <glyph glyph-name="uni200B" unicode="&#x200b;" 
 />
    <glyph glyph-name="uni200C" unicode="&#x200c;" 
d="M45 1511v-1835h-90v1835h90z" />
    <glyph glyph-name="uni200D" unicode="&#x200d;" 
d="M45 -324h-90v1633l-154 -158l-59 55l203 199l-203 197l59 57l199 -203l199 203l59 -57l-203 -197l203 -199l-59 -55l-154 158v-1633z" />
    <glyph glyph-name="uni200E" unicode="&#x200e;" 
d="M797 1407l-254 -254l-60 57l162 156h-313v-1690h-82v1772h395l-162 154l60 57z" />
    <glyph glyph-name="uni200F" unicode="&#x200f;" 
d="M504 1659l55 -57l-158 -154h392v-1772h-82v1690h-310l158 -156l-55 -57l-254 254z" />
    <glyph glyph-name="uni2011" unicode="&#x2011;" horiz-adv-x="1236" 
d="M1067 440h-897v113h897v-113z" />
    <glyph glyph-name="figuredash" unicode="&#x2012;" horiz-adv-x="1343" 
d="M1174 582h-1004v110h1004v-110z" />
    <glyph glyph-name="endash" unicode="&#x2013;" horiz-adv-x="1343" 
d="M1174 567h-1004v111h1004v-111z" />
    <glyph glyph-name="emdash" unicode="&#x2014;" horiz-adv-x="1890" 
d="M170 676h1548v-109h-1548v109z" />
    <glyph glyph-name="uni2015" unicode="&#x2015;" horiz-adv-x="1890" 
d="M170 690h1548v-108h-1548v108z" />
    <glyph glyph-name="quoteleft" unicode="&#x2018;" horiz-adv-x="587" 
d="M291 1507q-46 -55 -43 -88q1 -30 29.5 -64.5t89.5 -82.5l-91 -98q-107 107 -104 194q0 67 64 143l143 175l37 -39z" />
    <glyph glyph-name="quoteright" unicode="&#x2019;" horiz-adv-x="587" 
d="M297 1438q46 55 43 88q-1 30 -29.5 64.5t-89.5 82.5l90 99q108 -108 105 -195q0 -67 -64 -143l-143 -174l-37 38z" />
    <glyph glyph-name="quotedblleft" unicode="&#x201c;" horiz-adv-x="874" 
d="M578 1212q-46 -55 -43 -88q1 -30 29 -64.5t89 -82.5l-90 -98q-107 107 -104 194q0 69 63 144l144 174l36 -39zM291 1212q-46 -55 -43 -88q1 -30 29.5 -64.5t89.5 -82.5l-91 -98q-107 107 -104 194q0 68 64 144l143 174l37 -39z" />
    <glyph glyph-name="quotedblright" unicode="&#x201d;" horiz-adv-x="901" 
d="M297 897q46 55 43 88q-1 30 -29.5 65t-89.5 83l90 98q108 -108 105 -195q0 -67 -64 -143l-143 -174l-37 39zM610 897q46 55 43 88q-3 57 -118 148l90 98q107 -107 104 -195q0 -68 -63 -143l-144 -174l-37 39z" />
    <glyph glyph-name="bullet" unicode="&#x2022;" horiz-adv-x="1335" 
d="M170 569q0 215 141.5 356.5t356.5 141.5t356 -141.5t141 -356.5q0 -217 -139.5 -357t-357.5 -140t-358 138t-140 359z" />
    <glyph glyph-name="ellipsis" unicode="&#x2026;" horiz-adv-x="1599" 
d="M709 0v158l178 8v-166h-178zM1249 0v158l178 8v-166h-178zM170 0v158l178 8v-166h-178z" />
    <glyph glyph-name="uni2028" unicode="&#x2028;" 
 />
    <glyph glyph-name="uni2029" unicode="&#x2029;" 
 />
    <glyph glyph-name="uni202A" unicode="&#x202a;" 
d="M-66 2030h-139v55h139v-55zM2 2085h119l-96 96l38 39l166 -166l-166 -166l-38 41l96 101h-119v55z" />
    <glyph glyph-name="uni202B" unicode="&#x202b;" 
d="M66 2085h139v-55h-139v55zM-2 2030h-117l94 -101l-38 -39l-166 164l166 166l38 -35l-96 -100h119v-55z" />
    <glyph glyph-name="uni202C" unicode="&#x202c;" 
d="M-125 2036l-41 39l166 166l166 -166l-41 -39l-96 96v-244h-58v242z" />
    <glyph glyph-name="uni202D" unicode="&#x202d;" 
d="M-88 2181l39 39l166 -166l-166 -166l-39 41l96 101h-258v55h258zM66 2181l38 39l166 -166l-166 -166l-38 41l129 125z" />
    <glyph glyph-name="uni202E" unicode="&#x202e;" 
d="M-8 2140h258v-55h-258l100 -96l-43 -43l-162 165l162 166l43 -36zM-195 2111l129 -122l-38 -43l-166 165l166 166l38 -36z" />
    <glyph glyph-name="uni202F" unicode="&#x202f;" horiz-adv-x="346" 
 />
    <glyph glyph-name="guilsinglleft" unicode="&#x2039;" horiz-adv-x="698" 
d="M440 1057h88l-233 -424l233 -422h-88l-268 422z" />
    <glyph glyph-name="guilsinglright" unicode="&#x203a;" horiz-adv-x="698" 
d="M258 1057l268 -424l-268 -422h-88l233 422l-233 424h88z" />
    <glyph glyph-name="fraction" unicode="&#x2044;" horiz-adv-x="1044" 
d="M754 1544h118l-583 -1607h-119z" />
    <glyph glyph-name="uni204B" unicode="&#x204b;" horiz-adv-x="1245" 
d="M1073 952q0 -112 -6 -182t-28 -128t-53.5 -87.5t-94 -50t-138 -26t-196.5 -5.5v-780h-98v1745h190q77 0 128 -2.5t98.5 -12.5t75.5 -23.5t52.5 -41.5t36 -60t20.5 -86.5t11 -113t2 -146.5zM270 1438v-1745h-98v1745h98z" />
    <glyph glyph-name="uni2060" unicode="&#x2060;" horiz-adv-x="1382" 
 />
    <glyph glyph-name="Euro" unicode="&#x20ac;" horiz-adv-x="1540" 
d="M416 903q0 114 10 194.5t35.5 145t65 103.5t104.5 64.5t148 35.5t200 10q177 0 326 -26v-109q-166 16 -279 16q-102 0 -167 -5.5t-119.5 -24t-83.5 -46.5t-49 -79.5t-26 -115.5t-6 -163h-159zM1305 -4q-144 -25 -326 -25q-117 0 -199.5 10t-147.5 35t-104.5 64t-65.5 103
t-36 144.5t-10 194.5h159q0 -73 3.5 -125.5t13 -98.5t24 -76.5t40.5 -55.5t57.5 -39t79.5 -23.5t102.5 -12.5t130.5 -3q113 0 279 16v-108zM236 924h991v-109h-991v109zM236 610h991v-106h-991v106z" />
    <glyph glyph-name="trademark" unicode="&#x2122;" horiz-adv-x="1542" 
d="M307 1370h-201v68h480v-68h-205v-547h-74v547zM719 1438h110l228 -512l223 512h113v-615h-74v533l-234 -533h-57l-240 533v-533h-69v615z" />
    </font>
</defs>
</svg>
