<?xml version="1.0" standalone="no"?>
<!DOCTYPE svg PUBLIC "-//W3C//DTD SVG 1.1//EN" "http://www.w3.org/Graphics/SVG/1.1/DTD/svg11.dtd" >
<svg xmlns="http://www.w3.org/2000/svg" xmlns:xlink="http://www.w3.org/1999/xlink" version="1.1">
<metadata>
Created by FontForge 20201107 at Wed Jan 29 12:58:34 2025
 By 
Copyright (c) 2024 by Hossein Heidari. All rights reserved. Contemporary Arabic-Latin typeface. Designed byHossein Heidari.
</metadata>
<defs>
<font id="Lahzeh-Regular" horiz-adv-x="0" >
  <font-face 
    font-family="Lahzeh"
    font-weight="400"
    font-stretch="normal"
    units-per-em="2048"
    panose-1="0 0 0 0 0 0 0 0 0 0"
    ascent="1638"
    descent="-410"
    x-height="1075"
    cap-height="1460"
    bbox="-410 -1188 5300 2277"
    underline-thickness="102"
    underline-position="-214"
    unicode-range="U+0020-FFFC"
  />
<missing-glyph horiz-adv-x="1390" 
d="M1079 1313q-105 45 -385 45q-278 0 -383 -45v-1110q105 -45 383 -45q280 0 385 45v1110zM289 0l-135 135v1387h970l113 -115v-1407h-948z" />
    <glyph glyph-name="uni0622" unicode="&#x627;&#x653;" horiz-adv-x="507" 
d="M154 1219l196 16l4 -1219l-164 -16zM-147 1608q220 -35 380.5 -35.5t378.5 39.5v-172q-190 -40 -346 -40t-346 38v-183h-110l-15 277z" />
    <glyph glyph-name="uni0623" unicode="&#x627;&#x654;" horiz-adv-x="507" 
d="M90 1300l-35 89l76 41q-24 3 -39 34l-45 86q-18 34 -18 62q0 23 14 63q4 9 13 35.5t16 44.5l110 51q42 20 82.5 7t65.5 -52l14 -30l-61 -29q-37 50 -84 27l-68 -37q-14 -43 -16 -56q-4 -12 -4 -26q0 -25 16 -56l31 -55q17 -31 37.5 -34t58.5 20l195 114l43 -83zM154 1219
l196 16l4 -1219l-164 -16z" />
    <glyph glyph-name="uni0625" unicode="&#x627;&#x655;" horiz-adv-x="512" 
d="M154 1423l198 17l6 -1426l-165 -16zM141 -635l-35 88l76 41q-23 3 -39 35l-45 86q-18 35 -18 61q0 24 14 64q4 9 13 35.5t16 44.5l110 51q42 20 82.5 7t65.5 -52l14 -31l-61 -28q-16 21 -38 29t-46 -3l-68 -37q-14 -45 -16 -55q-4 -12 -4 -27q0 -24 16 -55l31 -55
q17 -31 37.5 -34.5t58.5 19.5l195 115l43 -84z" />
    <glyph glyph-name="uni0626.isol" unicode="&#x64a;&#x654;" horiz-adv-x="1615" 
d="M154 575l186 9v-564q0 -121 79.5 -200.5t201.5 -79.5q203 0 324.5 10.5t213.5 44.5q128 50 152 152q2 7 2 47q0 26 -12.5 35.5t-49.5 9.5h-401q-111 0 -159 48.5t-48 160.5v465l266 235h269q101 0 182.5 -77t81.5 -177v-61l-148 -8q-3 56 -47 100.5t-100 44.5h-191
l-135 -117l-14 -344q-1 -54 23 -76t81 -22h389q78 0 120 -38.5t42 -111.5q0 -75 -2 -112q-12 -202 -186 -307q-104 -62 -261.5 -86.5t-391.5 -24.5q-125 0 -232.5 61.5t-171 166.5t-63.5 227v589zM215 752l-35 88l76 41q-24 3 -39 34l-45 86q-18 35 -18 62q0 23 14 63
q4 9 13 35.5t16 44.5l110 51q42 20 82.5 7t65.5 -52l14 -30l-61 -29q-37 50 -84 27l-68 -37q-14 -43 -16 -56q-4 -12 -4 -26q0 -24 16 -55l31 -56q17 -31 37.5 -34t58.5 20l194 115l43 -84z" />
    <glyph glyph-name="uni06C0" unicode="&#x647;&#x654;" horiz-adv-x="1189" 
d="M422 1360q108 0 157 11.5t68 51.5q2 6 2 27q0 27 -18 27h-146q-38 0 -55.5 18t-17.5 59v156l94 84h84q37 0 65 -24.5t29 -59.5l2 -29l-53 -4q0 20 -16 34.5t-39 14.5h-54l-47 -38l-6 -115q0 -17 8.5 -24t28.5 -7h139q29 0 44.5 -19.5t15.5 -47.5v-33q0 -85 -66.5 -121.5
t-218.5 -36.5v76zM748 217q43 1 75.5 47t32.5 101q-10 91 -39.5 198.5t-54.5 149.5q-27 47 -146 90l-43 14l-104 -98q-18 -17 -47.5 -43.5t-42.5 -39t-26.5 -28t-18.5 -26.5q-12 -25 -12 -95l-3 -135q-2 -58 36 -100t91 -41zM451 0q-128 0 -212.5 85t-84.5 214v215
q0 88 18 125q8 18 31 46t42 47t52 51t37 36l57 55l-147 44l47 180q252 -76 428 -148q77 -31 123 -64t76 -79q41 -64 75.5 -211.5t40.5 -282.5q4 -123 -87.5 -218t-211.5 -95h-284z" />
    <glyph glyph-name="uniF100" unicode="&#xfe97;&#xfeee;&#xfee3;&#xfe8e;&#x646;" horiz-adv-x="5453" 
d="M3799 -344q173 38 273 81.5t138 90.5t36 109l-3 57h-469q-116 0 -186 72.5t-70 193.5v461l252 213h351q121 0 201.5 -76t80.5 -196l-2 -451h586q58 0 101 37t40 86l-26 504l198 14v-565q0 -126 -84.5 -206.5t-210.5 -80.5h-604v-72q0 -191 -154 -312.5t-475 -184.5
l-165 -33l-48 211zM5214 1198l45 -27v-108l-657 -16v151h612zM1960 0q-130 0 -204 87t-79 230l-30 1100l196 19l6 -1092q0 -57 38.5 -95t94.5 -38h156q197 0 203 137l18 363q4 104 82.5 177t184.5 73h368l244 -216v-479q0 -106 -78 -186t-182 -80h-305q-86 0 -146 38.5
t-106 127.5q-37 -166 -269 -166h-192zM2507 350q36 -74 75 -106.5t89 -32.5h270q56 0 96 42t39 99l-12 326l-131 117h-260q-55 0 -96 -38.5t-46 -92.5zM154 598l186 6v-559q0 -125 81 -204t206 -79q302 0 449 70.5t143 212.5l-29 776l196 17l5 -830q3 -457 -773 -457
q-94 0 -180 36.5t-148 98t-99 146t-37 176.5v590zM657 623v196l220 8v-204h-220zM4221 641q-1 55 -41 91t-96 36h-260l-136 -117l-12 -319q-3 -65 38.5 -106.5t105.5 -41.5h419z" />
    <glyph glyph-name="uniF101" unicode="&#xfdfc;&#x61f;&#x61f;" horiz-adv-x="3196" 
d="M2845 754l198 14v-766q0 -197 -157 -336t-461 -211l-68 215q243 51 381.5 143t134.5 201zM154 508l186 6v-496q0 -127 83.5 -204.5t211.5 -77.5q249 0 368.5 70.5t116.5 213.5l-26 1145q-3 109 52.5 172.5t160.5 67.5l372 18l101 -80l6 -999q0 -57 38.5 -95t94.5 -38h356
q57 0 101 36.5t41 86.5l-25 504l197 14v-565q0 -126 -82.5 -206.5t-210.5 -80.5h-400q-130 0 -202.5 86.5t-77.5 230.5l-27 920l-200 -10q-49 -3 -78 -32.5t-29 -76.5l8 -1136q1 -226 -169 -341.5t-503 -115.5q-197 0 -330.5 135t-133.5 336v512zM2173 -276l43 -29v-109
l-657 -14v152h614z" />
    <glyph glyph-name="uniF102" unicode="&#xf100;&#x61f;&#x61f;" horiz-adv-x="5443" 
d="M5206 1198l45 -27v-108l-657 -16v151h612zM154 553l186 6v-541q0 -124 81.5 -203t205.5 -79q302 0 442.5 69t134.5 215l-37 936q-4 118 58 191t168 78l372 16l101 -80l6 -817q0 -57 38.5 -95t94.5 -38h156q196 0 202 137l19 363q4 104 82 177t184 73h369l243 -216v-479
q0 -107 -77 -186.5t-183 -79.5h-305q-86 0 -144.5 37.5t-107.5 128.5q-39 -166 -268 -166h-193q-130 0 -202.5 86.5t-77.5 230.5l-27 713l-196 -8q-53 -1 -84 -31t-31 -78l12 -931q3 -226 -188 -340.5t-570 -114.5q-192 0 -328 133t-136 322v571zM2529 350q42 -77 76 -108
t90 -31h268q57 0 97.5 42t38.5 99l-13 326l-135 117h-256q-55 0 -94.5 -38t-44.5 -93zM633 588v194l219 9v-203h-219zM3789 -344q173 38 273 81.5t137.5 90.5t35.5 109l-2 57h-469q-116 0 -186 72.5t-70 193.5v461l252 213h350q122 0 202.5 -76t80.5 -196l-2 -451h586
q58 0 101 37t40 86l-27 504l199 14v-565q0 -126 -84.5 -206.5t-210.5 -80.5h-604v-72q0 -191 -154 -312.5t-475 -184.5l-166 -33l-47 211zM4211 641q-1 55 -41.5 91t-96.5 36h-260l-135 -117l-12 -319q-3 -65 38 -106.5t105 -41.5h420z" />
    <glyph glyph-name="uni06C0.fina" unicode="&#xfeea;&#x654;" horiz-adv-x="1306" arabic-form="final" 
d="M442 1401q118 0 166 13t60 50q2 6 2 27q0 27 -19 27h-145q-39 0 -56.5 18t-17.5 59v156l94 84h84q37 0 65.5 -24.5t29.5 -59.5l2 -29l-54 -4q0 20 -16 34.5t-39 14.5h-53l-47 -38l-6 -115q0 -17 8 -24t28 -7h140q29 0 44 -19.5t15 -47.5v-33q0 -85 -66.5 -121.5
t-218.5 -36.5v76zM1225 0q-131 0 -201.5 55t-95.5 178q-2 -6 -7.5 -18t-7.5 -18q-48 -117 -182 -117h-297q-111 0 -194.5 86t-83.5 201q0 7 -0.5 50t0 63.5t2 61.5t5 66.5t10 55.5t15.5 51t31.5 48.5t56 59.5t60 55.5t64 55t46.5 39.5l332 57l-16 105l180 26l92 -755
q15 -121 58.5 -158t171.5 -37h43q10 0 20 -35t10 -72t-9.5 -70.5t-20.5 -33.5h-82zM713 272q108 0 131 86q3 11 9 33.5t9 34.5l-59 426l-279 -45q-15 -14 -58.5 -48.5t-75 -64t-44.5 -53.5q-8 -15 -13.5 -47.5t-7 -60t-3.5 -71t-3 -54.5q-3 -54 42 -95t108 -41h244z" />
    <glyph glyph-name="uni0641064A" unicode="&#xfed3;&#xfbfd;" horiz-adv-x="2326" arabic-form="isolated" 
d="M1571 211q16 0 23.5 -34t7.5 -73q0 -25 -8 -64.5t-23 -39.5h-129q14 -14 14 -53q0 -12 -4 -62q-12 -151 -139 -254q-95 -75 -254 -107t-438 -32q-192 0 -329.5 134t-137.5 321v590l186 8v-563q0 -122 80 -201.5t201 -79.5q242 0 361.5 17t201.5 63q57 32 84.5 60t36.5 63
q2 10 2 49q0 27 -13 37t-49 10h-581l28 211h879zM1190 0v211h688q57 0 94 36.5t37 92.5v63h-393q-115 0 -187.5 75t-72.5 192v397l243 215h310q117 0 190.5 -73t73.5 -189v-684q0 -155 -83.5 -245.5t-236.5 -90.5h-663zM1993 989q-1 54 -40 89.5t-95 35.5h-199l-135 -117
l-13 -262q-3 -63 39 -105t105 -42h358zM1683 1528v194l220 11v-205h-220z" />
    <glyph glyph-name="uni0642064A" unicode="&#xfed7;&#xfbfd;" horiz-adv-x="2326" arabic-form="isolated" 
d="M1571 211q16 0 23.5 -34t7.5 -73q0 -25 -8 -64.5t-23 -39.5h-129q14 -14 14 -53q0 -12 -4 -62q-12 -151 -139 -254q-95 -75 -254 -107t-438 -32q-192 0 -329.5 134t-137.5 321v590l186 8v-563q0 -122 80 -201.5t201 -79.5q242 0 361.5 17t201.5 63q57 32 84.5 60t36.5 63
q2 10 2 49q0 27 -13 37t-49 10h-581l28 211h879zM1190 0v211h688q57 0 94 36.5t37 92.5v63h-393q-115 0 -187.5 75t-72.5 192v397l243 215h310q117 0 190.5 -73t73.5 -189v-684q0 -155 -83.5 -245.5t-236.5 -90.5h-663zM1993 989q-1 54 -40 89.5t-95 35.5h-199l-135 -117
l-13 -262q-3 -63 39 -105t105 -42h358zM1825 1679l286 -135l-645 -16v151h359zM1763 1536v143h314l45 -26v-109z" />
    <glyph glyph-name="uni0643064A" unicode="&#xfb90;&#xfbfd;" horiz-adv-x="2217" arabic-form="isolated" 
d="M1741 211q66 0 106.5 35.5t40.5 91.5l-69 299l-686 338l6 201l788 331l88 -178l-663 -248l622 -317q7 -33 26 -118.5t25 -116t17 -84t15 -85t5 -57.5q6 -122 -88 -212.5t-227 -90.5h-764v211h758zM1571 211q16 0 23.5 -34t7.5 -73q0 -25 -8 -64.5t-23 -39.5h-129
q14 -14 14 -53q0 -12 -4 -62q-12 -151 -139 -254q-95 -75 -254 -107t-438 -32q-192 0 -329.5 134t-137.5 321v590l186 8v-563q0 -122 80 -201.5t201 -79.5q242 0 361.5 17t201.5 63q57 32 84.5 60t36.5 63q2 10 2 49q0 27 -13 37t-49 10h-581l28 211h879z" />
    <glyph glyph-name="uni0641064A.fina" unicode="&#xfed4;&#xfbfd;" horiz-adv-x="2519" arabic-form="final" 
d="M1571 211q16 0 23.5 -34t7.5 -73q0 -25 -8 -64.5t-23 -39.5h-129q14 -14 14 -53q0 -12 -4 -62q-12 -151 -139 -254q-95 -75 -254 -107t-438 -32q-192 0 -329.5 134t-137.5 321v590l186 8v-563q0 -122 80 -201.5t201 -79.5q242 0 361.5 17t201.5 63q57 32 84.5 60t36.5 63
q2 10 2 49q0 27 -13 37t-49 10h-581l28 211h879zM1513 211q-33 31 -55 81.5t-22 96.5q0 169 18 264q6 30 16.5 58t30 56t34 48t44 49t43 42t48.5 44t44 39l305 -41q108 -14 190.5 -100t86.5 -193q9 -180 -11 -282.5t-69 -161.5h303q7 0 14 -12t12 -38t5 -61q0 -32 -5 -55.5
t-12 -34t-14 -10.5h-571q-57 0 -103 16q-43 -16 -100 -16h-561v211h329zM1772 807q-65 -56 -106 -108.5t-52 -114.5q-12 -70 -12 -176q0 -71 77 -134t164 -63h29q134 0 192 70.5t58 234.5q0 128 -36 188t-118 72zM1755 1229v194l219 11v-205h-219z" />
    <glyph glyph-name="uni0642064A.fina" unicode="&#xfed8;&#xfbfd;" horiz-adv-x="2519" arabic-form="final" 
d="M1571 211q16 0 23.5 -34t7.5 -73q0 -25 -8 -64.5t-23 -39.5h-129q14 -14 14 -53q0 -12 -4 -62q-12 -151 -139 -254q-95 -75 -254 -107t-438 -32q-192 0 -329.5 134t-137.5 321v590l186 8v-563q0 -122 80 -201.5t201 -79.5q242 0 361.5 17t201.5 63q57 32 84.5 60t36.5 63
q2 10 2 49q0 27 -13 37t-49 10h-581l28 211h879zM1513 211q-33 31 -55 81.5t-22 96.5q0 169 18 264q6 30 16.5 58t30 56t34 48t44 49t43 42t48.5 44t44 39l305 -41q108 -14 190.5 -100t86.5 -193q9 -180 -11 -282.5t-69 -161.5h303q7 0 14 -12t12 -38t5 -61q0 -32 -5 -55.5
t-12 -34t-14 -10.5h-571q-57 0 -103 16q-43 -16 -100 -16h-561v211h329zM1772 807q-65 -56 -106 -108.5t-52 -114.5q-12 -70 -12 -176q0 -71 77 -134t164 -63h29q134 0 192 70.5t58 234.5q0 128 -36 188t-118 72zM1896 1380l287 -135l-645 -16v151h358zM1835 1237v143h313
l45 -26v-109z" />
    <glyph glyph-name="uniFDF2" unicode="&#x627;&#xfedf;&#xfee0;&#xfc63;&#xfeea;" horiz-adv-x="2981" arabic-form="isolated" 
d="M1839 0q-81 0 -136 36.5t-75 102.5q-31 -67 -99 -103t-167 -36h-125q-147 0 -216 52t-95 181l-21 -43q-51 -110 -176 -110h-297q-113 0 -195.5 85t-82.5 202v38v45.5t0.5 46.5t2 51.5t4 47.5t6.5 48.5t10 41t13 37.5q12 22 35 49t57 59t57 52.5t61.5 53t43.5 36.5l332 57
l-16 105l180 26l12 -92l80 -663q13 -118 57.5 -156.5t163.5 -38.5h127q62 0 106.5 41t43.5 96l-23 856l197 17l8 -875q2 -63 36.5 -100t94.5 -37h195q68 0 110 38.5t41 100.5l-24 1071l198 19l9 -1092q1 -164 -79.5 -255t-226.5 -91h-227zM717 272q51 0 80.5 18.5t42.5 59.5
l22 64l-61 438l-279 -45q-3 -3 -38.5 -31.5t-57.5 -47t-48 -45.5t-34 -44q-27 -49 -27 -231q-1 -54 40.5 -95t95.5 -41h264zM1554 2066l72 9l-2 -301l-55 -7zM1778 1716l94 6v-196q0 -63 -41.5 -101.5t-110.5 -38.5q-50 0 -87.5 25t-41.5 62q-4 -37 -43 -62t-90 -25
q-66 0 -105.5 38.5t-39.5 101.5v178l90 -4l-17 -152q-3 -32 19 -52.5t59 -20.5t61.5 20.5t24.5 52.5v119l80 2v-123q2 -32 24.5 -51.5t59.5 -19.5t59 19t19 50zM2623 1425l199 17l6 -1426l-166 -16z" />
    <glyph glyph-name="uniFDFC" unicode="&#x631;&#xfbfe;&#xfe8e;&#x644;" horiz-adv-x="3352" arabic-form="isolated" 
d="M3199 -37q0 -193 -159 -334t-460 -213l-67 215q227 44 373 142t141 202l-29 779l201 14v-805zM2744 287q0 -124 -83.5 -205.5t-209.5 -81.5h-532q-130 0 -204 87t-79 230l-32 1100l198 19l6 -1092q0 -56 38 -94.5t93 -38.5h492q57 0 99.5 37t41.5 86l-24 504l196 14v-565
zM2367 -317v-109l-657 -14v149h614zM1358 -18q2 -218 -190.5 -336.5t-549.5 -118.5q-94 0 -180 36t-148 97.5t-99 145.5t-37 176v526l184 6v-496q0 -122 81.5 -202t205.5 -80q569 0 563 284l-37 1399l197 17z" />
    <glyph glyph-name="uni0622.fina" unicode="&#xfe8e;&#x653;" horiz-adv-x="608" arabic-form="final" 
d="M-164 1608q220 -35 381 -35.5t379 39.5v-172q-190 -40 -346 -40t-346 38v-183h-111l-14 277zM467 0q-127 0 -202.5 84.5t-80.5 232.5l-30 914l194 16l6 -903q0 -57 37.5 -95t91.5 -38h125q31 0 31 -109q0 -102 -31 -102h-141z" />
    <glyph glyph-name="uni0623.fina" unicode="&#xfe8e;&#x654;" horiz-adv-x="608" arabic-form="final" 
d="M74 1311l-35 88l76 41q-23 3 -39 35l-45 86q-19 36 -19 61q0 21 15 64q4 8 12.5 34.5t15.5 44.5l111 52q42 20 82 7t65 -52l15 -31l-62 -29q-37 50 -84 27l-67 -37q-16 -51 -17 -55q-4 -12 -4 -27q0 -22 17 -55l30 -56q17 -31 38 -34t59 20l194 115l43 -84zM467 0
q-127 0 -202.5 84.5t-80.5 232.5l-30 914l194 16l6 -903q0 -57 37.5 -95t91.5 -38h125q31 0 31 -109q0 -102 -31 -102h-141z" />
    <glyph glyph-name="uni0625.fina" unicode="&#xfe8e;&#x655;" horiz-adv-x="610" arabic-form="final" 
d="M154 1417l198 19l4 -1092q0 -57 37.5 -95t91.5 -38h125q31 0 31 -109q0 -102 -31 -102h-141q-127 0 -202.5 84.5t-80.5 232.5zM203 -635l-35 88l76 41q-23 3 -39 35l-45 86q-19 36 -19 61q0 21 15 64q4 8 12.5 35t15.5 45l111 51q42 20 82 7t65 -52l15 -31l-62 -28
q-16 21 -38 29t-46 -3l-67 -37q-16 -51 -17 -55q-4 -12 -4 -27q0 -22 17 -55l30 -55q17 -31 38 -34.5t59 19.5l194 115l43 -84z" />
    <glyph glyph-name="uni0626.fina" unicode="&#xfef2;&#x654;" horiz-adv-x="1570" arabic-form="final" 
d="M1571 211q16 0 23.5 -34t7.5 -73q0 -25 -8 -64.5t-23 -39.5h-129q14 -14 14 -53q0 -12 -4 -62q-12 -151 -139 -254q-95 -75 -254 -107t-438 -32q-192 0 -329.5 134t-137.5 321v590l186 8v-563q0 -122 80 -201.5t201 -79.5q242 0 361.5 17t201.5 63q57 32 84.5 60t36.5 63
q2 10 2 49q0 27 -13 37t-49 10h-581l28 211h879zM809 416l-35 88l76 41q-23 3 -39 35l-45 86q-18 35 -18 61q0 24 14 64q4 9 13 35t16 44l110 52q42 20 82.5 7t65.5 -52l14 -31l-62 -29q-37 49 -83 27l-68 -37q-14 -45 -16 -55q-5 -15 -5 -27q0 -22 17 -55l31 -56
q17 -31 37.5 -34t58.5 20l194 115l43 -84z" />
    <glyph glyph-name="uni06440622" unicode="&#xfedf;&#xfe82;" horiz-adv-x="1208" arabic-form="isolated" 
d="M-25 1546q220 -35 381 -35.5t379 39.5v-172q-190 -40 -346 -40t-346 38v-182h-111l-14 276zM727 211q61 3 104.5 41.5t42.5 91.5l-22 1073l199 17l4 -1092q0 -160 -80 -251t-221 -91h-590l-10 182zM223 1161l195 15l22 -885l-166 -15z" />
    <glyph glyph-name="uni06440622.fina" unicode="&#xfee0;&#xfe82;" horiz-adv-x="1284" arabic-form="final" 
d="M727 211q61 3 104.5 41.5t42.5 91.5l-22 1073l199 17l4 -1092q0 -160 -80 -251t-221 -91h-590l-10 182zM223 1161l195 15l22 -885l-166 -15zM1182 0q-120 0 -186 101t-68 286h125q2 -85 38 -130.5t103 -45.5h90q16 0 23.5 -42t7.5 -71q0 -30 -9.5 -64t-21.5 -34h-102z
M-25 1546q220 -35 381 -35.5t379 39.5v-172q-190 -40 -346 -40t-346 38v-182h-111l-14 276z" />
    <glyph glyph-name="uni06440623" unicode="&#xfedf;&#xfe84;" horiz-adv-x="1208" arabic-form="isolated" 
d="M727 211q61 3 104.5 41.5t42.5 91.5l-22 1073l199 17l4 -1092q0 -160 -80 -251t-221 -91h-590l-10 182zM223 1161l195 15l22 -885l-166 -15zM121 1260l-35 88l76 41q-24 3 -39 34l-45 86q-19 36 -19 62q0 20 15 63q4 8 12.5 35t15.5 45l111 51q42 20 82 7t65 -52l15 -30
l-62 -29q-37 50 -84 27l-67 -37q-16 -50 -17 -56q-4 -12 -4 -26q0 -23 17 -56l30 -55q17 -31 38 -34t59 20l194 115l43 -84z" />
    <glyph glyph-name="uni06440623.fina" unicode="&#xfee0;&#xfe84;" horiz-adv-x="1284" arabic-form="final" 
d="M727 211q61 3 104.5 41.5t42.5 91.5l-22 1073l199 17l4 -1092q0 -160 -80 -251t-221 -91h-590l-10 182zM223 1161l195 15l22 -885l-166 -15zM1182 0q-120 0 -186 101t-68 286h125q2 -85 38 -130.5t103 -45.5h90q16 0 23.5 -42t7.5 -71q0 -30 -9.5 -64t-21.5 -34h-102z
M121 1260l-35 88l76 41q-24 3 -39 34l-45 86q-19 36 -19 62q0 20 15 63q4 8 12.5 35t15.5 45l111 51q42 20 82 7t65 -52l15 -30l-62 -29q-37 50 -84 27l-67 -37q-16 -50 -17 -56q-4 -12 -4 -26q0 -23 17 -56l30 -55q17 -31 38 -34t59 20l194 115l43 -84z" />
    <glyph glyph-name="uni06440625" unicode="&#xfedf;&#xfe88;" horiz-adv-x="1208" arabic-form="isolated" 
d="M164 0l-10 180l573 31q62 3 105 41.5t42 89.5l-22 1075l199 17l4 -1092q0 -160 -80 -251t-221 -91h-590zM217 1405l199 16l24 -1132l-166 -13zM244 -686l-35 88l76 41q-23 3 -39 35l-45 86q-19 36 -19 61q0 21 15 64q4 8 12.5 35t15.5 45l111 51q42 20 82 7t65 -52
l15 -31l-62 -29q-16 22 -38 30t-46 -3l-67 -37q-16 -51 -17 -55q-4 -12 -4 -27q0 -22 17 -55l30 -55q17 -31 38 -34.5t59 19.5l194 115l43 -84z" />
    <glyph glyph-name="uni06440625.fina" unicode="&#xfee0;&#xfe88;" horiz-adv-x="1286" arabic-form="final" 
d="M1184 0q-120 0 -186 101t-68 286h125q2 -85 38 -130.5t103 -45.5h90q16 0 23.5 -42t7.5 -71q0 -30 -9.5 -64t-21.5 -34h-102zM164 0l-10 180l573 31q62 3 105 41.5t42 89.5l-22 1075l199 17l4 -1092q0 -160 -80 -251t-221 -91h-590zM217 1405l199 16l24 -1132l-166 -13z
M190 -678l-34 88l75 41q-22 3 -38 35l-46 86q-18 34 -18 61q0 24 14 64q4 9 13 35.5t16 44.5l111 51q42 20 82 7t65 -52l14 -31l-61 -28q-16 21 -38 29t-46 -3l-68 -37q-14 -45 -16 -55q-4 -12 -4 -27q0 -24 16 -55l31 -55q17 -31 37.5 -34.5t58.5 19.5l195 115l43 -84z" />
    <glyph glyph-name="uni06440627" unicode="&#xfedf;&#xfe8e;" horiz-adv-x="1208" arabic-form="isolated" 
d="M164 0l-10 180l573 31q62 3 105 41.5t42 89.5l-22 1075l199 17l4 -1092q0 -160 -80 -251t-221 -91h-590zM217 1405l199 16l24 -1132l-166 -13z" />
    <glyph glyph-name="uni06440627.fina" unicode="&#xfee0;&#xfe8e;" horiz-adv-x="1286" arabic-form="final" 
d="M1184 0q-120 0 -186 101t-68 286h125q2 -85 38 -130.5t103 -45.5h90q16 0 23.5 -42t7.5 -71q0 -30 -9.5 -64t-21.5 -34h-102zM164 0l-10 180l573 31q62 3 105 41.5t42 89.5l-22 1075l199 17l4 -1092q0 -160 -80 -251t-221 -91h-590zM217 1405l199 16l24 -1132l-166 -13z
" />
    <glyph glyph-name="aleffathatanar" unicode="&#x627;&#x64b;" horiz-adv-x="507" 
d="M457 1522l30 -90l-450 -101l-23 82zM449 1745l26 -84l-446 -109l-27 90zM154 1219l196 16l4 -1219l-164 -16z" />
    <glyph glyph-name="aleffathatanar.fina" unicode="&#xfe8e;&#x64b;" horiz-adv-x="608" 
d="M451 1522l30 -90l-450 -101l-23 82zM442 1745l27 -84l-446 -109l-27 90zM467 0q-127 0 -202.5 84.5t-80.5 232.5l-30 914l194 16l6 -903q0 -57 37.5 -95t91.5 -38h125q31 0 31 -109q0 -102 -31 -102h-141z" />
    <glyph glyph-name="rialsign1" unicode="&#xfdfc;&#x61f;&#x61f;&#x61f;" horiz-adv-x="2770" 
d="M2615 950q3 -380 -18 -678q-12 -170 -150.5 -289.5t-371.5 -160.5l-68 203q114 13 212 56.5t160 115t62 155.5q0 226 -26 584zM154 674l184 6v-336q0 -130 52.5 -191t168.5 -61q209 0 294.5 60.5t80.5 203.5l-27 777q-3 107 54 171t161 68l301 14l88 -65l7 -717
q0 -57 39.5 -94t99.5 -37l188 -2q60 0 104.5 37t43.5 88l-17 393l197 17v-457q0 -124 -83.5 -205.5t-209.5 -81.5h-252q-127 0 -201.5 84t-80.5 234l-25 624l-119 -10q-51 -4 -78.5 -32.5t-27.5 -74.5l10 -747q3 -248 -129 -352.5t-447 -104.5q-185 0 -280.5 111t-95.5 319
v361zM1841 78l41 -29v-108l-592 -15v152h551z" />
    <glyph glyph-name="rialsign2" unicode="&#xfdfc;&#x61f;&#x61f;&#x61f;&#x61f;" horiz-adv-x="2422" 
d="M1585 -330q147 29 266 84t185 123.5t63 136.5l-28 740l198 14v-766q0 -190 -163 -334.5t-453 -212.5zM641 1163q-3 111 52.5 176.5t162.5 69.5l383 14l100 -80l7 -999q0 -59 40.5 -96t98.5 -37h373l-23 -211h-377q-130 0 -203.5 86.5t-78.5 230.5l-27 920l-207 -10
q-113 -6 -113 -109l9 -1116q2 -192 -159.5 -335t-457.5 -212l-67 215q221 41 369 140.5t145 203.5z" />
    <glyph glyph-name="rialsign3" unicode="&#xfdfc;&#x61f;&#x61f;&#x61f;&#x61f;&#x61f;" horiz-adv-x="2037" 
d="M1270 31q195 25 318.5 113t119.5 200l-22 592l198 14v-612q0 -202 -136 -326.5t-419 -183.5zM541 1133q-3 120 69.5 179.5t229.5 65.5l223 8l90 -65l6 -672q0 -138 164 -135l190 2l-16 -211h-225q-125 0 -200 79.5t-81 217.5l-26 602l-134 -10q-49 -4 -75.5 -33.5
t-26.5 -73.5l8 -725q3 -210 -130.5 -346t-387.5 -182l-65 203q186 23 299 115t110 217z" />
    <glyph glyph-name="tomansign1" unicode="&#xf100;&#x61f;&#x61f;&#x61f;" horiz-adv-x="4401" 
d="M2847 915l225 189h252q121 3 202 -74.5t81 -198.5v-358h315q58 0 102 36.5t43 86.5l-16 381l197 14v-442q0 -124 -83.5 -205.5t-209.5 -81.5h-348l-3 -63q-6 -171 -151 -250t-467 -90l-123 -4l-18 194q287 -7 444.5 35t157.5 127v45l-338 -2q-121 0 -191.5 71.5
t-70.5 194.5v395zM3004 594q-3 -65 37.5 -107.5t104.5 -42.5h297l-17 359q-1 59 -41 97t-96 38h-164l-110 -92zM4159 1294l46 -26v-109l-547 -16v151h501zM154 686l184 6v-303q0 -127 51 -189.5t164 -62.5q235 0 339.5 62.5t98.5 201.5l-26 682q-4 112 54 174.5t171 67.5
l276 10l88 -65l7 -666q0 -57 37.5 -94t93.5 -37h41q179 0 188 127l23 277q12 106 85.5 177.5t178.5 71.5h266l219 -190v-410q0 -105 -78 -184.5t-182 -79.5h-197q-88 0 -139 36.5t-94 129.5q-25 -88 -90.5 -127t-192.5 -39h-49q-127 0 -201.5 84t-80.5 234l-25 571l-111 -10
q-103 -9 -100 -103l10 -653q4 -239 -141.5 -348t-466.5 -109q-185 0 -293 113.5t-108 310.5v334zM2093 606q58 -133 139 -133h172q55 0 93 38.5t36 94.5l-10 260l-110 95h-160q-55 0 -94.5 -41t-44.5 -101zM483 739v195l219 8v-203h-219z" />
    <glyph glyph-name="tomansign2" unicode="&#xf100;&#x61f;&#x61f;&#x61f;&#x61f;" horiz-adv-x="1980" 
d="M1513 211q57 0 101 36.5t41 86.5l-27 504l199 14v-565q0 -124 -83.5 -205.5t-209.5 -81.5h-242l-8 -244h-149l-2 244h-289l-2 -244h-148l-10 244h-235q-128 0 -211.5 81.5t-83.5 205.5v565l198 -14l-26 -504q-3 -50 40.5 -86.5t100.5 -36.5h1046zM1300 414h-167l-7 452
h189zM852 866l-6 -452h-166l-12 452h184z" />
    <glyph glyph-name="lellah" unicode="&#xfedf;&#xfee0;&#xfc63;&#xfeea;" horiz-adv-x="2525" 
d="M1839 0q-81 0 -136 36.5t-75 102.5q-31 -67 -99 -103t-167 -36h-125q-147 0 -216 52t-95 181l-21 -43q-51 -110 -176 -110h-297q-113 0 -195.5 85t-82.5 202v38v45.5t0.5 46.5t2 51.5t4 47.5t6.5 48.5t10 41t13 37.5q12 22 35 49t57 59t57 52.5t61.5 53t43.5 36.5l332 57
l-16 105l180 26l12 -92l80 -663q13 -118 57.5 -156.5t163.5 -38.5h127q62 0 106.5 41t43.5 96l-23 856l197 17l8 -875q2 -63 36.5 -100t94.5 -37h195q68 0 110 38.5t41 100.5l-24 1071l198 19l9 -1092q1 -164 -79.5 -255t-226.5 -91h-227zM717 272q51 0 80.5 18.5t42.5 59.5
l22 64l-61 438l-279 -45q-3 -3 -38.5 -31.5t-57.5 -47t-48 -45.5t-34 -44q-27 -49 -27 -231q-1 -54 40.5 -95t95.5 -41h264zM1554 2066l72 9l-2 -301l-55 -7zM1778 1716l94 6v-196q0 -63 -41.5 -101.5t-110.5 -38.5q-50 0 -87.5 25t-41.5 62q-4 -37 -43 -62t-90 -25
q-66 0 -105.5 38.5t-39.5 101.5v178l90 -4l-17 -152q-3 -32 19 -52.5t59 -20.5t61.5 20.5t24.5 52.5v119l80 2v-123q2 -32 24.5 -51.5t59.5 -19.5t59 19t19 50z" />
    <glyph glyph-name="uni06A9064A.fina" unicode="&#xfb91;&#xfbfd;" horiz-adv-x="2371" 
d="M2370 0q-138 0 -229.5 64.5t-188.5 228.5l-4 -76q-6 -98 -90 -157.5t-205 -59.5h-672v211h696q68 0 116 41t48 102v95q-59 79 -90 100l-608 422l6 223l754 332l86 -180l-660 -256l518 -373q45 -33 89.5 -87t76.5 -108.5t72 -112t78 -101t92 -71.5t117 -28q18 0 24 -18.5
t6 -79.5q0 -39 -8 -75t-24 -36zM1571 211q16 0 23.5 -34t7.5 -73q0 -25 -8 -64.5t-23 -39.5h-129q14 -14 14 -53q0 -12 -4 -62q-12 -151 -139 -254q-95 -75 -254 -107t-438 -32q-192 0 -329.5 134t-137.5 321v590l186 8v-563q0 -122 80 -201.5t201 -79.5q242 0 361.5 17
t201.5 63q57 32 84.5 60t36.5 63q2 10 2 49q0 27 -13 37t-49 10h-581l28 211h879z" />
    <glyph glyph-name="uni06AF064A" unicode="&#xfb94;&#xfbfd;" horiz-adv-x="2215" 
d="M1739 211q66 0 106.5 35.5t40.5 91.5l-69 299l-687 338l7 201l788 331l88 -178l-663 -248l622 -317q7 -33 26 -118.5t25 -116t17 -84t15 -85t5 -57.5q6 -122 -88 -212.5t-227 -90.5h-764v211h758zM1851 1620l-600 -246l-37 82l29 45l549 246zM1571 211q16 0 23.5 -34
t7.5 -73q0 -25 -8 -64.5t-23 -39.5h-129q14 -14 14 -53q0 -12 -4 -62q-12 -151 -139 -254q-95 -75 -254 -107t-438 -32q-192 0 -329.5 134t-137.5 321v590l186 8v-563q0 -122 80 -201.5t201 -79.5q242 0 361.5 17t201.5 63q57 32 84.5 60t36.5 63q2 10 2 49q0 27 -13 37
t-49 10h-581l28 211h879z" />
    <glyph glyph-name="uni06AF064A.fina" unicode="&#xfb95;&#xfbfd;" horiz-adv-x="2369" 
d="M2367 0q-138 0 -229 64t-188 229l-4 -76q-6 -98 -90 -157.5t-205 -59.5h-672v211h696q68 0 116 41t48 102v95q-59 79 -90 100l-608 422l6 223l754 332l86 -180l-660 -256l518 -373q45 -33 89.5 -87t76.5 -108.5t72 -112t78 -101t92 -71.5t117 -28q18 0 24 -18.5t6 -79.5
q0 -39 -8.5 -75t-24.5 -36zM1829 1620l-600 -246l-37 82l29 45l548 246zM1571 211q16 0 23.5 -34t7.5 -73q0 -25 -8 -64.5t-23 -39.5h-129q14 -14 14 -53q0 -12 -4 -62q-12 -151 -139 -254q-95 -75 -254 -107t-438 -32q-192 0 -329.5 134t-137.5 321v590l186 8v-563
q0 -122 80 -201.5t201 -79.5q242 0 361.5 17t201.5 63q57 32 84.5 60t36.5 63q2 10 2 49q0 27 -13 37t-49 10h-581l28 211h879z" />
    <glyph glyph-name="Bitcoin" unicode="&#xfe91;&#xfbff;&#xfe98;&#xfb91;&#xfeee;&#xfbfe;&#xfee6;&#x61f;&#x61f;" horiz-adv-x="1323" 
d="M821 1460q193 0 287 -87.5t94 -272.5q0 -154 -60 -235t-196 -117v-5q139 -25 203.5 -109.5t64.5 -254.5q0 -197 -97 -288t-310 -91h-684v1460h698zM733 807q129 0 189.5 60t60.5 188q0 140 -54.5 194t-195.5 54h-393v-496h393zM737 156q142 0 199 57.5t57 200.5
q0 141 -57.5 199.5t-198.5 58.5h-397v-516h397zM680 1733h168v-283h-168v283zM340 1733h168v-283h-168v283zM680 14h168v-282h-168v282zM340 14h168v-282h-168v282z" />
    <glyph glyph-name="USDT" unicode="&#xfe97;&#xfe98;&#xfeae;&#x61f;&#x61f;" horiz-adv-x="1488" 
d="M629 1290h-445v170h1110v-170h-444v-545q-110 -14 -221 0v545zM86 743q0 56 56 101t148.5 72.5t210 42.5t240 15t240 -15t210 -42.5t148.5 -72.5t56 -101t-56 -101t-148.5 -72.5t-210 -42.5t-240 -15t-240 15t-210 42.5t-148.5 72.5t-56 101zM309 743q0 -43 134.5 -67.5
t296.5 -24.5t296.5 24.5t134.5 67.5t-134.5 67.5t-296.5 24.5t-296.5 -24.5t-134.5 -67.5zM629 594q111 -14 221 0v-594h-221v594z" />
    <glyph glyph-name="uni062A0627" unicode="&#xfe97;&#xfe8e;" horiz-adv-x="1437" 
d="M590 0v211h381q58 0 101 37t40 90l-25 500l197 14v-565q0 -124 -83.5 -205.5t-209.5 -81.5h-401zM154 1417l198 19l4 -1092q0 -57 37.5 -95t91.5 -38h125q31 0 31 -109q0 -102 -31 -102h-141q-127 0 -202.5 84.5t-80.5 232.5zM1026 1249l287 -135l-645 -16v151h358z
M965 1106v143h313l45 -26v-109z" />
    <glyph glyph-name="uni062A0627.fina" unicode="&#xfe98;&#xfe8e;" horiz-adv-x="1495" 
d="M1389 0q-66 0 -124.5 40.5t-78.5 100.5q-23 -60 -85.5 -100.5t-131.5 -40.5h-383v211h370q59 0 97.5 37.5t38.5 93.5v422l178 6v-428q0 -56 37 -93.5t94 -37.5h96q29 0 29 -113q0 -31 -8.5 -64.5t-20.5 -33.5h-108zM154 1417l198 19l4 -1092q0 -57 37.5 -95t91.5 -38h125
q31 0 31 -109q0 -102 -31 -102h-141q-127 0 -202.5 84.5t-80.5 232.5zM1042 1167l287 -135l-645 -16v151h358zM981 1024v143h313l45 -26v-109z" />
    <glyph glyph-name="uni062B0627" unicode="&#xfe9b;&#xfe8e;" horiz-adv-x="1437" 
d="M590 0v211h381q58 0 101 37t40 90l-25 500l197 14v-565q0 -124 -83.5 -205.5t-209.5 -81.5h-401zM154 1417l198 19l4 -1092q0 -57 37.5 -95t91.5 -38h125q31 0 31 -109q0 -102 -31 -102h-141q-127 0 -202.5 84.5t-80.5 232.5zM899 1411v172l193 8v-180h-193zM1026 1249
l287 -135l-645 -16v151h358zM965 1106v143h313l45 -26v-109z" />
    <glyph glyph-name="uni062B0627.fina" unicode="&#xfe9c;&#xfe8e;" horiz-adv-x="1495" 
d="M1389 0q-66 0 -124.5 40.5t-78.5 100.5q-23 -60 -85.5 -100.5t-131.5 -40.5h-383v211h370q59 0 97.5 37.5t38.5 93.5v422l178 6v-428q0 -56 37 -93.5t94 -37.5h96q29 0 29 -113q0 -31 -8.5 -64.5t-20.5 -33.5h-108zM154 1417l198 19l4 -1092q0 -57 37.5 -95t91.5 -38h125
q31 0 31 -109q0 -102 -31 -102h-141q-127 0 -202.5 84.5t-80.5 232.5zM915 1329v172l193 8v-180h-193zM1042 1167l287 -135l-645 -16v151h358zM981 1024v143h313l45 -26v-109z" />
    <glyph glyph-name="uni0621" unicode="&#x621;" horiz-adv-x="1054" arabic-form="isolated" 
d="M287 -35l-70 125l119 72q-32 6 -62 55l-84 135q-36 56 -36 105q0 28 9 65.5t27.5 93.5t20.5 64l168 96q66 38 135.5 21.5t103.5 -76.5l25 -45l-86 -53q-29 38 -67 48.5t-72 -9.5l-107 -64l-30 -135q-4 -21 28 -84l53 -94q13 -23 27.5 -36t28.5 -17t31 0t33 12t38 22
l301 201l80 -119z" />
    <glyph glyph-name="uni0624" unicode="&#x624;" horiz-adv-x="1191" arabic-form="isolated" 
d="M434 -344q173 38 273 81.5t138 90.5t36 109l-2 57h-469q-116 0 -186 72.5t-70 193.5v461l252 213h350q121 0 201.5 -76t80.5 -196l-2 -734q0 -191 -153.5 -312.5t-474.5 -184.5l-166 -33l-47 211zM856 641q-3 55 -42 91t-95 36h-260l-135 -117l-13 -319q-1 -63 38.5 -95
t105.5 -32h419zM463 1219l-35 88l76 41q-24 3 -39 34l-45 86q-19 36 -19 62q0 20 15 63q4 8 12.5 35t15.5 45l111 51q42 20 82 7t65 -52l15 -30l-62 -29q-37 50 -84 27l-67 -37q-16 -50 -17 -56q-4 -12 -4 -26q0 -22 17 -55l30 -56q17 -31 38 -34t59 20l194 115l43 -84z" />
    <glyph glyph-name="uni0627" unicode="&#x627;" horiz-adv-x="512" arabic-form="isolated" 
d="M154 1423l198 17l6 -1426l-165 -16z" />
    <glyph glyph-name="uni0628" unicode="&#x628;" horiz-adv-x="1974" arabic-form="isolated" 
d="M438 0q-126 0 -205 83.5t-79 211.5v461l186 8v-430q0 -54 28.5 -88.5t75.5 -34.5h1063q58 0 101.5 37t40.5 90l-27 500l199 14v-565q0 -125 -84.5 -206t-208.5 -81h-1090zM901 -502v195l219 10v-205h-219z" />
    <glyph glyph-name="uni0629" unicode="&#x629;" horiz-adv-x="1189" arabic-form="isolated" 
d="M748 217q43 1 75.5 47t32.5 101q-10 91 -39.5 198.5t-54.5 149.5q-27 47 -146 90l-43 14l-104 -98q-18 -17 -47.5 -43.5t-42.5 -39t-26.5 -28t-18.5 -26.5q-12 -25 -12 -95l-3 -135q-2 -58 36 -100t91 -41zM451 0q-128 0 -212.5 85t-84.5 214v215q0 88 18 125q8 18 31 46
t42 47t52 51t37 36l57 55l-147 44l47 180q252 -76 428 -148q77 -31 123 -64t76 -79q41 -64 75.5 -211.5t40.5 -282.5q4 -123 -87.5 -218t-211.5 -95h-284zM557 1452l287 -135l-645 -17v152h358zM496 1309v143h313l45 -27v-108z" />
    <glyph glyph-name="uni062A" unicode="&#x62a;" horiz-adv-x="1974" arabic-form="isolated" 
d="M438 0q-126 0 -205 83.5t-79 211.5v461l186 8v-430q0 -54 28.5 -88.5t75.5 -34.5h1063q58 0 101.5 37t40.5 90l-27 500l199 14v-565q0 -125 -84.5 -206t-208.5 -81h-1090zM1030 1077l287 -135l-645 -16v151h358zM969 934v143h313l45 -26v-109z" />
    <glyph glyph-name="uni062B" unicode="&#x62b;" horiz-adv-x="1974" arabic-form="isolated" 
d="M438 0q-126 0 -205 83.5t-79 211.5v461l186 8v-430q0 -54 28.5 -88.5t75.5 -34.5h1063q58 0 101.5 37t40.5 90l-27 500l199 14v-565q0 -125 -84.5 -206t-208.5 -81h-1090zM903 1239v172l193 8v-180h-193zM1030 1077l287 -135l-645 -16v151h358zM969 934v143h313l45 -26
v-109z" />
    <glyph glyph-name="uni062C" unicode="&#x62c;" horiz-adv-x="1574" arabic-form="isolated" 
d="M791 -143v157l178 9v-166h-178zM584 -592q-190 0 -307 103t-119 272l-2 151q-3 192 62.5 283.5t250.5 151.5l557 178l-448 239q-36 19 -70 19q-39 1 -71.5 -18.5t-49.5 -55.5l-65 -137l-154 63l80 174q35 76 107 120t161 44q74 0 148 -39l757 -393l-55 -182l-109 55
l-696 -233q-73 -24 -114.5 -45t-67.5 -53.5t-35 -72t-10 -104.5l-2 -121q-1 -92 64 -155t157 -60l721 27l-31 -211h-659z" />
    <glyph glyph-name="uni062D" unicode="&#x62d;" horiz-adv-x="1574" arabic-form="isolated" 
d="M584 -592q-190 0 -307 103t-119 272l-2 151q-3 192 62.5 283.5t250.5 151.5l557 178l-448 239q-36 19 -70 19q-39 1 -71.5 -18.5t-49.5 -55.5l-65 -137l-154 63l80 174q35 76 107 120t161 44q74 0 148 -39l757 -393l-55 -182l-109 55l-696 -233q-73 -24 -114.5 -45
t-67.5 -53.5t-35 -72t-10 -104.5l-2 -121q-1 -92 64 -155t157 -60l721 27l-31 -211h-659z" />
    <glyph glyph-name="uni062E" unicode="&#x62e;" horiz-adv-x="1574" arabic-form="isolated" 
d="M584 -592q-190 0 -307 103t-119 272l-2 151q-3 192 62.5 283.5t250.5 151.5l557 178l-448 239q-36 19 -70 19q-39 1 -71.5 -18.5t-49.5 -55.5l-65 -137l-154 63l80 174q35 76 107 120t161 44q74 0 148 -39l757 -393l-55 -182l-109 55l-696 -233q-73 -24 -114.5 -45
t-67.5 -53.5t-35 -72t-10 -104.5l-2 -121q-1 -92 64 -155t157 -60l721 27l-31 -211h-659zM397 1243v195l219 10v-205h-219z" />
    <glyph glyph-name="uni062F" unicode="&#x62f;" horiz-adv-x="1265" arabic-form="isolated" 
d="M446 0q-130 0 -210.5 80.5t-79.5 210.5l2 139l168 10v-104q0 -58 28 -91.5t78 -33.5h379q54 0 89.5 36.5t37.5 90.5l-96 395l-486 174l47 172l598 -223l111 -551q0 -122 -87 -213.5t-204 -91.5h-375z" />
    <glyph glyph-name="uni0630" unicode="&#x630;" horiz-adv-x="1265" arabic-form="isolated" 
d="M446 0q-130 0 -210.5 80.5t-79.5 210.5l2 139l168 10v-104q0 -58 28 -91.5t78 -33.5h379q54 0 89.5 36.5t37.5 90.5l-96 395l-486 174l47 172l598 -223l111 -551q0 -122 -87 -213.5t-204 -91.5h-375zM403 1325v195l220 10v-205h-220z" />
    <glyph glyph-name="uni0631" unicode="&#x631;" horiz-adv-x="667" arabic-form="isolated" 
d="M315 754l199 14v-805q0 -193 -160.5 -335.5t-455.5 -211.5l-70 215q225 43 372 141t144 201z" />
    <glyph glyph-name="uni0632" unicode="&#x632;" horiz-adv-x="667" arabic-form="isolated" 
d="M315 754l199 14v-805q0 -193 -160.5 -335.5t-455.5 -211.5l-70 215q225 43 372 141t144 201zM303 1063v194l219 11v-205h-219z" />
    <glyph glyph-name="uni0633" unicode="&#x633;" horiz-adv-x="2834" arabic-form="isolated" 
d="M618 -449q-94 0 -180 36.5t-148 98t-99 146t-37 176.5v590l186 6v-559q0 -121 80 -202t196 -81q296 0 451.5 72t151.5 211l-29 776l196 17l3 -502q6 -54 65 -89.5t141 -35.5q91 0 161 39t89 102l68 410l180 4l-68 -420q3 -58 56 -96.5t114 -38.5h82q106 0 171 35t61 108
l-25 484l197 14v-526q0 -154 -100.5 -240t-282.5 -86h-80q-104 0 -179 42t-102 112q-45 -70 -136.5 -112t-205.5 -42q-62 0 -121 32t-83 77v-115q0 -217 -197.5 -330t-575.5 -113z" />
    <glyph glyph-name="uni0634" unicode="&#x634;" horiz-adv-x="2834" arabic-form="isolated" 
d="M618 -449q-94 0 -180 36.5t-148 98t-99 146t-37 176.5v590l186 6v-559q0 -121 80 -202t196 -81q296 0 451.5 72t151.5 211l-29 776l196 17l3 -502q6 -54 65 -89.5t141 -35.5q91 0 161 39t89 102l68 410l180 4l-68 -420q3 -58 56 -96.5t114 -38.5h82q106 0 171 35t61 108
l-25 484l197 14v-526q0 -154 -100.5 -240t-282.5 -86h-80q-104 0 -179 42t-102 112q-45 -70 -136.5 -112t-205.5 -42q-62 0 -121 32t-83 77v-115q0 -217 -197.5 -330t-575.5 -113zM1911 1411v172l192 8v-180h-192zM2038 1249l286 -135l-645 -16v151h359zM1976 1106v143h314
l45 -26v-109z" />
    <glyph glyph-name="uni0635" unicode="&#x635;" horiz-adv-x="2697" arabic-form="isolated" 
d="M618 -449q-123 0 -230 61t-170.5 167t-63.5 229v590l186 6v-559q0 -125 81 -204t206 -79q604 0 592 283l-31 776l198 17l3 -432l26 -52l230 346q76 114 151.5 157t212.5 54q123 9 293 9l242 -215v-426q0 -120 -81.5 -199.5t-201.5 -79.5h-645q-61 0 -121.5 30.5
t-103.5 82.5v-105q0 -226 -196 -341.5t-577 -115.5zM1542 258q59 -47 123 -47h576q57 0 100 43t39 98l-10 271l-127 118q-111 0 -183 -4q-120 -8 -186 -43.5t-131 -132.5z" />
    <glyph glyph-name="uni0636" unicode="&#x636;" horiz-adv-x="2697" arabic-form="isolated" 
d="M618 -449q-123 0 -230 61t-170.5 167t-63.5 229v590l186 6v-559q0 -125 81 -204t206 -79q604 0 592 283l-31 776l198 17l3 -432l26 -52l230 346q76 114 151.5 157t212.5 54q123 9 293 9l242 -215v-426q0 -120 -81.5 -199.5t-201.5 -79.5h-645q-61 0 -121.5 30.5
t-103.5 82.5v-105q0 -226 -196 -341.5t-577 -115.5zM1542 258q59 -47 123 -47h576q57 0 100 43t39 98l-10 271l-127 118q-111 0 -183 -4q-120 -8 -186 -43.5t-131 -132.5zM2001 1165v195l219 10v-205h-219z" />
    <glyph glyph-name="uni0637" unicode="&#x637;" horiz-adv-x="1660" arabic-form="isolated" 
d="M180 0l-26 231l165 -2l89 138l-29 1054l199 15l6 -734l-21 -151l125 184q65 95 147.5 134t243.5 46q102 5 189 5l239 -215v-420q0 -121 -86.5 -203t-208.5 -82h-1032zM1206 211q57 -1 99.5 42t40.5 99l-11 273l-129 116q-100 0 -166 -4q-125 -7 -190.5 -44.5
t-130.5 -135.5l-217 -328z" />
    <glyph glyph-name="uni0638" unicode="&#x638;" horiz-adv-x="1660" arabic-form="isolated" 
d="M180 0l-26 231l165 -2l89 138l-29 1054l199 15l6 -734l-21 -151l125 184q65 95 147.5 134t243.5 46q102 5 189 5l239 -215v-420q0 -121 -86.5 -203t-208.5 -82h-1032zM1206 211q57 -1 99.5 42t40.5 99l-11 273l-129 116q-100 0 -166 -4q-125 -7 -190.5 -44.5
t-130.5 -135.5l-217 -328zM975 1163v195l219 10v-205h-219z" />
    <glyph glyph-name="uni0639.isol" unicode="&#x639;" horiz-adv-x="1316" arabic-form="isolated" 
d="M516 -596q-162 0 -262 90t-100 236v94q0 174 33 247t128 107q-28 24 -48.5 80.5t-20.5 118.5v141q0 103 7.5 154.5t29.5 91.5q9 16 22 33.5t31.5 37.5t32.5 34.5t39.5 37t36 32t37.5 32.5t30 26h293q110 0 189 -76t79 -180v-61l-149 -12q0 65 -43 108t-105 43h-180
q-4 -3 -25 -21t-29.5 -26t-27 -25.5t-29 -29.5t-22 -28t-17.5 -30q-7 -15 -10 -35t-4 -35.5t-2 -62.5l-4 -145q-2 -80 39 -116.5t127 -24.5l541 73l30 -182l-618 -96q-57 -9 -93 -25.5t-56.5 -33.5t-29.5 -58.5t-10.5 -72.5t-1.5 -103v-12q0 -67 44 -105t118 -35l633 25
l-35 -211h-598z" />
    <glyph glyph-name="uni063A" unicode="&#x63a;" horiz-adv-x="1316" arabic-form="isolated" 
d="M516 -596q-162 0 -262 90t-100 236v94q0 174 33 247t128 107q-28 24 -48.5 80.5t-20.5 118.5v141q0 103 7.5 154.5t29.5 91.5q9 16 22 33.5t31.5 37.5t32.5 34.5t39.5 37t36 32t37.5 32.5t30 26h293q110 0 189 -76t79 -180v-61l-149 -12q0 65 -43 108t-105 43h-180
q-4 -3 -25 -21t-29.5 -26t-27 -25.5t-29 -29.5t-22 -28t-17.5 -30q-7 -15 -10 -35t-4 -35.5t-2 -62.5l-4 -145q-2 -80 39 -116.5t127 -24.5l541 73l30 -182l-618 -96q-57 -9 -93 -25.5t-56.5 -33.5t-29.5 -58.5t-10.5 -72.5t-1.5 -103v-12q0 -67 44 -105t118 -35l633 25
l-35 -211h-598zM569 1243v195l219 10v-205h-219z" />
    <glyph glyph-name="uni0641" unicode="&#x641;" horiz-adv-x="1957" arabic-form="isolated" 
d="M438 0q-125 0 -204.5 81t-79.5 208v467l186 8v-430q0 -55 27.5 -89t76.5 -34h578v-211h-584zM821 0v211h688q57 0 94 36.5t37 92.5v63h-393q-115 0 -187.5 75t-72.5 192v397l244 215h309q117 0 190.5 -73t73.5 -189v-684q0 -155 -83 -245.5t-236 -90.5h-664zM1624 989
q-1 54 -40 89.5t-95 35.5h-199l-135 -117l-12 -262q-3 -63 38.5 -105t104.5 -42h359zM1290 1528v194l219 11v-205h-219z" />
    <glyph glyph-name="uni0642" unicode="&#x642;" horiz-adv-x="1609" arabic-form="isolated" 
d="M621 -539q-204 0 -335.5 128t-131.5 327v590l186 8v-563q0 -126 76 -203.5t200 -77.5q277 0 458 47.5t224 130.5q9 18 9 91v30h-420q-119 0 -194 71t-75 189v416l244 215h328q117 0 191.5 -72.5t74.5 -187.5v-684q0 -235 -202 -345t-633 -110zM1278 553q-3 64 -45 103
t-107 38h-202l-138 -119l-12 -278q-3 -63 26.5 -90t98.5 -27h397zM1069 1257l287 -135l-645 -16v151h358zM1008 1114v143h313l45 -26v-109z" />
    <glyph glyph-name="uni0643" unicode="&#x643;" horiz-adv-x="1980" arabic-form="isolated" 
d="M438 0q-128 0 -206 79.5t-78 209.5v467l186 8v-430q0 -55 27.5 -89t76.5 -34h1045q68 0 112.5 38t43.5 93l-25 1083l197 17l10 -1100q0 -154 -80 -248t-229 -94h-1080zM1077 707q18 1 29.5 12.5t11.5 25.5q0 30 -26 46l-271 141l2 84l320 137l41 -80l-266 -100l241 -129
q41 -51 41 -105q0 -46 -36.5 -82.5t-88.5 -40.5l-272 -24v90z" />
    <glyph glyph-name="uni0644" unicode="&#x644;" horiz-adv-x="1513" arabic-form="isolated" 
d="M633 -473q-214 0 -346.5 130t-132.5 339v512l186 6v-496q0 -123 80.5 -202.5t204.5 -79.5q569 0 563 280l-37 1403l197 17l10 -1454q1 -226 -181.5 -340.5t-543.5 -114.5z" />
    <glyph glyph-name="uni0645" unicode="&#x645;" horiz-adv-x="1388" arabic-form="isolated" 
d="M1235 266q0 -121 -76 -198t-184 -68l-512 49q-63 6 -102.5 -30.5t-36.5 -98.5l20 -526l-190 -23l4 590q2 110 62 182t161 82l16 2q-45 40 -57 131l16 353q9 106 86 178t181 72h368l244 -216v-479zM504 354q31 -107 143 -116l291 -27q56 -4 98 39.5t39 101.5l-12 324
l-135 119h-258q-55 0 -97 -38.5t-43 -92.5z" />
    <glyph glyph-name="uni0646" unicode="&#x646;" horiz-adv-x="1546" arabic-form="isolated" 
d="M154 598l186 6v-559q0 -125 81 -204t206 -79q281 0 438.5 74.5t153.5 204.5l-29 780l196 17l5 -830q2 -223 -196 -340t-577 -117q-125 0 -231.5 60t-169.5 165.5t-63 231.5v590zM631 762v194l219 11v-205h-219z" />
    <glyph glyph-name="uni0647.isol" unicode="&#x647;" horiz-adv-x="1187" arabic-form="isolated" 
d="M748 217q43 1 75.5 47t32.5 101q-10 91 -39.5 198.5t-54.5 149.5q-27 47 -146 90l-43 14l-104 -98q-18 -17 -47.5 -43.5t-42.5 -39t-26.5 -28t-18.5 -26.5q-12 -25 -12 -95l-3 -135q-2 -58 36 -100t91 -41zM451 0q-128 0 -212.5 85t-84.5 214v215q0 88 18 125q8 18 31 46
t42 47t52 51t37 36l57 55l-147 44l47 180q252 -76 428 -148q77 -31 123 -64t76 -79q41 -64 75.5 -211.5t40.5 -282.5q4 -123 -87.5 -218t-211.5 -95h-284z" />
    <glyph glyph-name="uni0648" unicode="&#x648;" horiz-adv-x="1191" arabic-form="isolated" 
d="M434 -344q173 38 273 81.5t138 90.5t36 109l-2 57h-469q-116 0 -186 72.5t-70 193.5v461l252 213h350q121 0 201.5 -76t80.5 -196l-2 -734q0 -191 -153.5 -312.5t-474.5 -184.5l-166 -33l-47 211zM856 641q-3 55 -42 91t-95 36h-260l-135 -117l-13 -319q-1 -63 38.5 -95
t105.5 -32h419z" />
    <glyph glyph-name="uni0649" unicode="&#x649;" horiz-adv-x="1615" arabic-form="isolated" 
d="M154 575l186 9v-564q0 -121 79.5 -200.5t201.5 -79.5q203 0 324.5 10.5t213.5 44.5q128 50 152 152q2 7 2 47q0 26 -12.5 35.5t-49.5 9.5h-401q-111 0 -159 48.5t-48 160.5v465l266 235h269q101 0 182.5 -77t81.5 -177v-61l-148 -8q-3 56 -47 100.5t-100 44.5h-191
l-135 -117l-14 -344q-1 -54 23 -76t81 -22h389q78 0 120 -38.5t42 -111.5q0 -75 -2 -112q-12 -202 -186 -307q-104 -62 -261.5 -86.5t-391.5 -24.5q-125 0 -232.5 61.5t-171 166.5t-63.5 227v589z" />
    <glyph glyph-name="uni064A.isol" unicode="&#x64a;" horiz-adv-x="1615" arabic-form="isolated" 
d="M154 575l186 9v-564q0 -121 79.5 -200.5t201.5 -79.5q203 0 324.5 10.5t213.5 44.5q128 50 152 152q2 7 2 47q0 26 -12.5 35.5t-49.5 9.5h-401q-111 0 -159 48.5t-48 160.5v465l266 235h269q101 0 182.5 -77t81.5 -177v-61l-148 -8q-3 56 -47 100.5t-100 44.5h-191
l-135 -117l-14 -344q-1 -54 23 -76t81 -22h389q78 0 120 -38.5t42 -111.5q0 -75 -2 -112q-12 -202 -186 -307q-104 -62 -261.5 -86.5t-391.5 -24.5q-125 0 -232.5 61.5t-171 166.5t-63.5 227v589zM727 -782l-287 135l645 16v-151h-358zM788 -639v-143h-313l-45 26v109z" />
    <glyph glyph-name="uni066E.fina" unicode="&#x66e;" horiz-adv-x="2050" 
d="M438 0q-126 0 -205 83.5t-79 211.5v461l186 8v-430q0 -54 28.5 -88.5t75.5 -34.5h1063q58 0 101.5 37t40.5 90l-27 500l199 14v-565q0 -125 -84.5 -206t-208.5 -81h-1090zM1948 0q-120 0 -186 101t-68 286h125q2 -85 38 -130.5t103 -45.5h90q16 0 23.5 -42t7.5 -71
q0 -30 -9.5 -64t-21.5 -34h-102z" />
    <glyph glyph-name="uni066F.fina" unicode="&#x66f;" horiz-adv-x="1566" 
d="M1309 0v211h260q11 0 19.5 -32.5t8.5 -72.5t-8.5 -73t-19.5 -33h-260zM621 -508q-204 0 -335.5 128t-131.5 327v590l186 8v-563q0 -126 76 -203.5t200 -77.5q277 0 458 47.5t224 130.5q9 18 9 90v31h-420q-119 0 -194 71t-75 189v416l244 215h328q117 0 191.5 -72.5
t74.5 -187.5v-684q0 -235 -202 -345t-633 -110zM1278 584q-3 64 -45 103t-107 38h-202l-138 -119l-12 -278q-3 -63 26.5 -90t98.5 -27h397z" />
    <glyph glyph-name="uni0671.isol" unicode="&#x671;" horiz-adv-x="507" arabic-form="isolated" 
d="M213 1372q-65 0 -98.5 24t-55.5 85l-20 57l-90 -152l-66 33l135 213l74 -10l23 -70q10 -34 24 -57l72 115q27 44 57 59q45 23 170 23l88 -78v-144q0 -44 -28.5 -71t-75.5 -27h-209zM416 1456q48 0 45 43l-4 82l-45 39q-53 0 -86 -10q-42 -9 -66 -47l-67 -101q15 -6 43 -6
h180zM154 1219l196 16l4 -1219l-164 -16z" />
    <glyph glyph-name="uni0679" unicode="&#x679;" horiz-adv-x="1974" arabic-form="isolated" 
d="M438 0q-126 0 -205 83.5t-79 211.5v461l186 8v-430q0 -54 28.5 -88.5t75.5 -34.5h1063q58 0 101.5 37t40.5 90l-27 500l199 14v-565q0 -125 -84.5 -206t-208.5 -81h-1090zM834 1047l24 38l-10 322l72 10v-223l-5 -37l29 45q22 38 100 60q42 10 93 10l84 -74v-135
q0 -44 -28.5 -70t-76.5 -26h-282v80zM1118 1044q19 0 31 11t12 30l-4 80l-47 41q-31 0 -61 -6q-58 -14 -82 -53l-68 -100z" />
    <glyph glyph-name="uni067E" unicode="&#x67e;" horiz-adv-x="1974" arabic-form="isolated" 
d="M438 0q-126 0 -205 83.5t-79 211.5v461l186 8v-430q0 -54 28.5 -88.5t75.5 -34.5h1063q58 0 101.5 37t40.5 90l-27 500l199 14v-565q0 -125 -84.5 -206t-208.5 -81h-1090zM920 -786v174l186 8v-182h-186zM1042 -297l287 -135l-645 -17v152h358zM981 -440v143h313l45 -27
v-108z" />
    <glyph glyph-name="uni0686" unicode="&#x686;" horiz-adv-x="1574" arabic-form="isolated" 
d="M913 111l277 -138l-635 -14v152h358zM852 -35v146h317l41 -29v-109zM791 -297v174l186 8v-182h-186zM584 -592q-190 0 -307 103t-119 272l-2 151q-3 192 62.5 283.5t250.5 151.5l557 178l-448 239q-36 19 -70 19q-39 1 -71.5 -18.5t-49.5 -55.5l-65 -137l-154 63l80 174
q35 76 107 120t161 44q74 0 148 -39l757 -393l-55 -182l-109 55l-696 -233q-73 -24 -114.5 -45t-67.5 -53.5t-35 -72t-10 -104.5l-2 -121q-1 -92 64 -155t157 -60l721 27l-31 -211h-659z" />
    <glyph glyph-name="uni0688" unicode="&#x688;" horiz-adv-x="1265" arabic-form="isolated" 
d="M446 0q-130 0 -210.5 80.5t-79.5 210.5l2 139l168 10v-104q0 -58 28 -91.5t78 -33.5h379q54 0 89.5 36.5t37.5 90.5l-96 395l-486 174l47 172l598 -223l111 -551q0 -122 -87 -213.5t-204 -91.5h-375zM348 1446l25 39l-11 321l72 11v-224l-4 -37l29 46q22 37 100 59
q42 10 92 10l84 -74v-135q0 -44 -28.5 -70t-75.5 -26h-283v80zM633 1444q19 0 31 11t12 30l-4 80l-47 41q-27 0 -62 -7q-58 -14 -82 -53l-67 -100z" />
    <glyph glyph-name="uni0691" unicode="&#x691;" horiz-adv-x="667" arabic-form="isolated" 
d="M315 754l199 14v-805q0 -193 -160.5 -335.5t-455.5 -211.5l-70 215q225 43 372 141t144 201zM248 1184l24 39l-10 321l72 10v-223l-4 -37l28 45q22 37 101 60q42 10 92 10l84 -74v-135q0 -44 -28.5 -70t-76.5 -26h-282v80zM532 1182q19 0 31 11t12 30l-4 80l-47 40
q-31 0 -61 -6q-58 -14 -82 -53l-68 -100z" />
    <glyph glyph-name="uni0695.fina" unicode="&#x695;" horiz-adv-x="753" 
d="M696 0q-57 0 -108 27t-76 63v-156q0 -179 -158.5 -312.5t-455.5 -205.5l-70 215q225 44 372 141t144 199l-29 783l199 14v-424q5 -58 49.5 -95.5t112.5 -37.5h78q30 0 30 -111q0 -100 -30 -100h-58zM266 -1055h-55l137 441l84 -17zM262 -1049l-51 -6l-191 408l82 31z" />
    <glyph glyph-name="uni0698" unicode="&#x698;" horiz-adv-x="667" arabic-form="isolated" 
d="M315 754l199 14v-805q0 -193 -160.5 -335.5t-455.5 -211.5l-70 215q225 43 372 141t144 201zM317 1376v172l193 8v-180h-193zM444 1214l287 -135l-645 -16v151h358zM383 1071v143h313l45 -26v-109z" />
    <glyph glyph-name="uni06A0.init" unicode="&#x6a0;" horiz-adv-x="1298" 
d="M-2 0v211h272q-37 56 -37 174v195q0 93 31 153q20 39 58.5 79t103 94t76.5 65h303q109 0 188.5 -76t79.5 -180v-62l-149 -12q0 63 -43.5 107.5t-104.5 44.5h-192q-10 -9 -39 -35.5t-46.5 -43.5t-38.5 -41.5t-32 -45.5q-14 -32 -14 -115l2 -158q1 -83 43 -114t143 -25
l510 31l33 -203q-406 -43 -797 -43h-350zM625 1556v173l192 8v-181h-192zM752 1395l286 -135l-645 -17v152h359zM690 1251v144h314l45 -27v-108z" />
    <glyph glyph-name="uni06A0.medi" unicode="&#x6a0;" horiz-adv-x="1409" 
d="M1040 0q-184 0 -317 47q-136 -47 -315 -47h-410v211h344q89 0 160 14q-95 65 -149.5 192.5t-94.5 356.5l-92 -4l27 205l821 8q108 -108 148 -158t44 -90t-7 -86.5t-40 -120.5q-50 -129 -91 -196t-103 -111q65 -10 129 -10h315q16 0 22.5 -40t6.5 -69q2 -17 -7 -59.5
t-22 -42.5h-369zM729 274q80 24 143.5 82.5t90.5 126.5q50 124 54 146q1 9 1 18q-2 30 -19 59t-67 82l-508 -16q50 -232 120.5 -345t184.5 -153zM625 1556v173l192 8v-181h-192zM752 1395l286 -135l-645 -17v152h359zM690 1251v144h314l45 -27v-108z" />
    <glyph glyph-name="uni06A0.fina" unicode="&#x6a0;" horiz-adv-x="1433" 
d="M516 -596q-162 0 -262 90t-100 236v96q0 162 49 242t180 129q78 27 111 36q-92 60 -135.5 173.5t-90.5 367.5l-92 -4l27 205l821 8q77 -68 129.5 -140.5t52.5 -109.5q0 -75 -37 -205q-60 -204 -223 -307q54 -10 135 -10h353q21 0 28 -109q2 -37 -7 -69.5t-21 -32.5h-383
q-185 0 -330 82q-75 -13 -205 -51q-25 -7 -44 -13.5t-35 -15.5t-27.5 -15t-20.5 -19t-14.5 -20.5t-10 -26t-6.5 -29t-3 -36.5t-1 -41.5v-50.5q0 -92 41 -134.5t121 -39.5l633 25l-35 -211h-598zM739 274q79 24 143 83t91 126q10 26 22 55.5t17 42t9.5 26.5t6 22.5t0.5 17.5
q0 29 -18 58.5t-68 82.5l-508 -16q49 -231 119.5 -344.5t185.5 -153.5zM635 1556v173l192 8v-181h-192zM762 1395l287 -135l-646 -17v152h359zM700 1251v144h314l45 -27v-108z" />
    <glyph glyph-name="uni06A1.init" unicode="&#x6a1;" horiz-adv-x="1134" 
d="M-2 0v211h688q57 0 94 36.5t37 92.5v63h-393q-115 0 -187.5 75t-72.5 192v397l244 215h309q117 0 190.5 -73t73.5 -189v-684q0 -155 -83 -245.5t-236 -90.5h-664zM801 989q-1 54 -40 89.5t-95 35.5h-199l-135 -117l-13 -262q-3 -63 39 -105t105 -42h358z" />
    <glyph glyph-name="uni06A1.medi" unicode="&#x6a1;" horiz-adv-x="1333" 
d="M328 211q-34 31 -56 81.5t-22 96.5q0 169 18 264q6 30 16.5 58t30 56t34 48t44 49t43 42t48.5 44t44 39l306 -41q108 -14 190 -100t86 -193q9 -180 -11 -282.5t-69 -161.5h303q7 0 14 -12t12 -38t5 -61q0 -32 -5 -55.5t-12 -34t-14 -10.5h-571q-57 0 -103 16
q-43 -16 -100 -16h-561v211h330zM586 807q-65 -56 -106 -108.5t-52 -114.5q-12 -70 -12 -176q0 -71 77 -134t164 -63h29q134 0 192 70.5t58 234.5q0 128 -36 188t-118 72z" />
    <glyph glyph-name="uni06A1.fina" unicode="&#x6a1;" horiz-adv-x="2138" 
d="M438 0q-125 0 -204.5 81t-79.5 208v467l186 8v-430q0 -55 27.5 -89t76.5 -34h578v-211h-584zM1133 211q-34 31 -56 81.5t-22 96.5q0 169 18 264q6 30 16.5 58t30 56t34 48t44 49t43 42t48.5 44t44 39l305 -41q108 -14 190.5 -100t86.5 -193q9 -180 -11 -282.5t-69 -161.5
h303q7 0 14 -12t12 -38t5 -61q0 -32 -5 -55.5t-12 -34t-14 -10.5h-571q-57 0 -103 16q-43 -16 -100 -16h-561v211h330zM1391 807q-65 -56 -106 -108.5t-52 -114.5q-12 -70 -12 -176q0 -71 77 -134t164 -63h29q134 0 192 70.5t58 234.5q0 128 -36 188t-118 72z" />
    <glyph glyph-name="uni06A4" unicode="&#x6a4;" horiz-adv-x="1957" arabic-form="isolated" 
d="M438 0q-125 0 -204.5 81t-79.5 208v467l186 8v-430q0 -55 27.5 -89t76.5 -34h578v-211h-584zM821 0v211h688q57 0 94 36.5t37 92.5v63h-393q-115 0 -187.5 75t-72.5 192v397l244 215h309q117 0 190.5 -73t73.5 -189v-684q0 -155 -83 -245.5t-236 -90.5h-664zM1624 989
q-1 54 -40 89.5t-95 35.5h-199l-135 -117l-12 -262q-3 -63 38.5 -105t104.5 -42h359zM1305 1841v172l192 8v-180h-192zM1432 1679l286 -135l-645 -16v151h359zM1370 1536v143h313l46 -26v-109z" />
    <glyph glyph-name="uni06A9" unicode="&#x6a9;" horiz-adv-x="1982" arabic-form="isolated" 
d="M438 0q-128 0 -206 79.5t-78 209.5v467l186 8v-430q0 -55 27.5 -89t76.5 -34h1049q68 0 113.5 36t46.5 91l-68 299l-686 338l6 201l789 331l88 -178l-664 -248l621 -317q8 -38 25.5 -112t28 -120t21 -110t13.5 -119q7 -123 -88.5 -213t-227.5 -90h-1073z" />
    <glyph glyph-name="uni06AA.init" unicode="&#x6aa;" horiz-adv-x="1675" 
d="M-2 0v211h1214q61 0 102 38t38 93l-13 272q-3 57 -44 92.5t-101 32.5l-995 -43l-25 189l580 577l137 -125l-477 -442l790 31q138 6 228 -72t90 -215v-344q0 -129 -82 -212t-211 -83h-1231z" />
    <glyph glyph-name="uni06AA.medi" unicode="&#x6aa;" horiz-adv-x="1751" 
d="M-2 0v211h1214q61 0 102 38t38 93l-13 272q-3 57 -44 92.5t-101 32.5l-995 -43l-25 189l580 577l137 -125l-477 -442l790 31q138 6 228 -72t90 -215v-344q0 -129 -82 -212t-211 -83h-1231zM1649 0q-120 0 -186 101t-68 286h125q2 -85 38 -130.5t103 -45.5h90
q16 0 23.5 -42t7.5 -71q0 -30 -9.5 -64t-21.5 -34h-102z" />
    <glyph glyph-name="uni06AA.fina" unicode="&#x6aa;" horiz-adv-x="2064" 
d="M1833 295q0 -129 -82 -212t-211 -83h-1358l-28 242l1368 -31q61 -2 102.5 36.5t38.5 94.5l-12 272q-3 55 -44.5 91.5t-101.5 33.5l-997 -43l-23 189l580 577l137 -125l-477 -442l791 31q141 5 229 -74.5t88 -212.5v-344zM1962 0q-120 0 -186 101t-68 286h125
q2 -85 38 -130.5t103 -45.5h90q16 0 23.5 -42t7.5 -71q0 -30 -9.5 -64t-21.5 -34h-102z" />
    <glyph glyph-name="uni06AF" unicode="&#x6af;" horiz-adv-x="1982" arabic-form="isolated" 
d="M438 0q-128 0 -206 79.5t-78 209.5v467l186 8v-430q0 -55 27.5 -89t76.5 -34h1049q68 0 113.5 36t46.5 91l-68 299l-686 338l6 201l789 331l88 -178l-664 -248l621 -317q8 -38 25.5 -112t28 -120t21 -110t13.5 -119q7 -123 -88.5 -213t-227.5 -90h-1073zM1599 1606
l-600 -246l-36 82l28 45l549 246z" />
    <glyph glyph-name="uni06B5.init" unicode="&#x6b5;" horiz-adv-x="626" 
d="M-2 0v211h139q68 0 110.5 39t41.5 100l-25 1075l199 17l8 -1096q1 -164 -85.5 -255t-242.5 -91h-145zM403 1681h-55l137 441l84 -17zM399 1688l-51 -7l-190 408l82 31z" />
    <glyph glyph-name="uni06B5.medi" unicode="&#x6b5;" horiz-adv-x="698" 
d="M-2 0v211h133q62 0 106.5 41t43.5 98l-23 1075l197 17l8 -1096q0 -62 36 -98.5t95 -36.5h104q16 0 23.5 -40.5t7.5 -68.5q0 -25 -8 -63.5t-23 -38.5h-116q-70 0 -127.5 38.5t-75.5 100.5q-20 -59 -84 -99t-137 -40h-160zM403 1681h-55l137 441l84 -17zM399 1688l-51 -7
l-190 408l82 31z" />
    <glyph glyph-name="uni06B5.fina" unicode="&#x6b5;" horiz-adv-x="1587" 
d="M633 -473q-214 0 -346.5 130t-132.5 339v512l186 6v-496q0 -123 80.5 -202.5t204.5 -79.5q569 0 563 280l-37 1403l197 17l10 -1454q1 -226 -181.5 -340.5t-543.5 -114.5zM1485 0q-120 0 -186 101t-68 286h125q2 -85 38 -130.5t103 -45.5h90q16 0 23.5 -42t7.5 -71
q0 -30 -9.5 -64t-21.5 -34h-102zM1288 1681h-55l137 441l84 -17zM1284 1688l-51 -7l-191 408l82 31z" />
    <glyph glyph-name="uni06BA.isol" unicode="&#x6ba;" horiz-adv-x="1546" arabic-form="isolated" 
d="M154 598l186 6v-559q0 -125 81 -204t206 -79q281 0 438.5 74.5t153.5 204.5l-29 780l196 17l5 -830q2 -223 -196 -340t-577 -117q-125 0 -231.5 60t-169.5 165.5t-63 231.5v590z" />
    <glyph glyph-name="uni06BD.init" unicode="&#x6bd;" horiz-adv-x="845" 
d="M-2 0v211h381q58 0 101 37t40 90l-24 500l196 14v-565q0 -124 -83.5 -205.5t-209.5 -81.5h-401zM168 -786v174l186 8v-182h-186zM291 -297l287 -135l-646 -17v152h359zM229 -440v143h314l45 -27v-108z" />
    <glyph glyph-name="uni06BD.medi" unicode="&#x6bd;" horiz-adv-x="886" 
d="M760 0q-66 0 -124.5 40.5t-78.5 100.5q-23 -60 -85.5 -100.5t-131.5 -40.5h-342v211h330q59 0 97 37.5t38 93.5v422l178 6v-428q0 -56 37 -93.5t94 -37.5h117q29 0 29 -113q0 -31 -8.5 -64.5t-20.5 -33.5h-129zM240 -786v174l186 8v-182h-186zM362 -297l287 -135
l-645 -17v152h358zM301 -440v143h313l45 -27v-108z" />
    <glyph glyph-name="uni06BE" unicode="&#x6be;" horiz-adv-x="1730" arabic-form="isolated" 
d="M272 432q0 103 5.5 158t23.5 102q24 68 131 172l-149 25l24 180l848 -164q127 -25 182.5 -56.5t94.5 -103.5q50 -91 93.5 -228.5t49.5 -223.5q7 -118 -81.5 -205.5t-211.5 -87.5h-315q-73 0 -146 37q-30 -27 -65 -37q-225 -70 -539 -137l-63 213l284 57
q-91 53 -128.5 120t-37.5 179zM438 395q0 -63 73 -121t157 -63q137 -6 191 64.5t54 254.5v23q0 35 -0.5 53t-3.5 48t-10.5 47t-20.5 36.5t-35 31t-52 15.5l-181 27q-61 -54 -92.5 -89.5t-48.5 -70.5q-18 -38 -24.5 -91.5t-6.5 -164.5zM1272 211q55 0 92.5 37t42.5 92
q-43 145 -86 254q-34 86 -65 112.5t-119 41.5l-142 24q43 -37 58.5 -85.5t15.5 -145.5q0 -224 -72 -314q37 -16 66 -16h209z" />
    <glyph glyph-name="uni06C1" unicode="&#x6c1;" horiz-adv-x="1189" arabic-form="isolated" 
d="M748 217q43 1 75.5 47t32.5 101q-10 91 -39.5 198.5t-54.5 149.5q-27 47 -146 90l-43 14l-104 -98q-18 -17 -47.5 -43.5t-42.5 -39t-26.5 -28t-18.5 -26.5q-12 -25 -12 -95l-3 -135q-2 -58 36 -100t91 -41zM451 0q-128 0 -212.5 85t-84.5 214v215q0 88 18 125q8 18 31 46
t42 47t52 51t37 36l57 55l-147 44l47 180q252 -76 428 -148q77 -31 123 -64t76 -79q41 -64 75.5 -211.5t40.5 -282.5q4 -123 -87.5 -218t-211.5 -95h-284z" />
    <glyph glyph-name="uni06C2.fina" unicode="&#x6c2;" horiz-adv-x="1306" 
d="M1225 0q-131 0 -201.5 55t-95.5 178q-2 -6 -7.5 -18t-7.5 -18q-48 -117 -182 -117h-297q-111 0 -194.5 86t-83.5 201q0 7 -0.5 50t0 63.5t2 61.5t5 66.5t10 55.5t15.5 51t31.5 48.5t56 59.5t60 55.5t64 55t46.5 39.5l332 57l-16 105l180 26l92 -755q15 -121 58.5 -158
t171.5 -37h43q10 0 20 -35t10 -72t-9.5 -70.5t-20.5 -33.5h-82zM713 272q108 0 131 86q3 11 9 33.5t9 34.5l-59 426l-279 -45q-15 -14 -58.5 -48.5t-75 -64t-44.5 -53.5q-8 -15 -13.5 -47.5t-7 -60t-3.5 -71t-3 -54.5q-3 -54 42 -95t108 -41h244zM463 1341l-35 89l76 40
q-23 3 -39 35l-45 86q-19 36 -19 62q0 20 15 63q4 8 12.5 35t15.5 45l111 51q42 20 82 7t65 -52l15 -30l-62 -29q-36 49 -84 26l-67 -36q-16 -50 -17 -56q-4 -12 -4 -26q0 -23 17 -56l30 -55q17 -31 38 -34t59 20l194 114l43 -84z" />
    <glyph glyph-name="uni06C3.fina" unicode="&#x6c3;" horiz-adv-x="1255" 
d="M1145 0q-149 0 -231 95t-123 315l-60 317l-217 -25q-77 -58 -128 -112.5t-58 -89.5q-13 -55 -13 -207v-191l-153 -2l-8 306q-4 163 59 243q66 83 225 215l453 58l76 -543q14 -94 60.5 -131t152.5 -37h73q7 0 14 -11.5t12 -36.5t5 -59q0 -33 -5 -57.5t-12 -35.5t-14 -11
h-108zM674 1303l287 -136l-646 -16v152h359zM612 1159v144h314l45 -27v-109z" />
    <glyph glyph-name="uni06C6.isol" unicode="&#x6c6;" horiz-adv-x="1191" arabic-form="isolated" 
d="M434 -344q173 38 273 81.5t138 90.5t36 109l-2 57h-469q-116 0 -186 72.5t-70 193.5v461l252 213h350q121 0 201.5 -76t80.5 -196l-2 -734q0 -191 -153.5 -312.5t-474.5 -184.5l-166 -33l-47 211zM856 641q-3 55 -42 91t-95 36h-260l-135 -117l-13 -319q-1 -63 38.5 -95
t105.5 -32h419zM670 1219h-56l138 440l84 -17zM666 1225l-52 -6l-190 407l82 31z" />
    <glyph glyph-name="uni06C9" unicode="&#x6c9;" horiz-adv-x="1191" arabic-form="isolated" 
d="M434 -344q173 38 273 81.5t138 90.5t36 109l-2 57h-469q-116 0 -186 72.5t-70 193.5v461l252 213h350q121 0 201.5 -76t80.5 -196l-2 -734q0 -191 -153.5 -312.5t-474.5 -184.5l-166 -33l-47 211zM856 641q-3 55 -42 91t-95 36h-260l-135 -117l-13 -319q-1 -63 38.5 -95
t105.5 -32h419zM752 1219l-138 440h56l166 -424zM424 1251l190 408l52 -6l-160 -432z" />
    <glyph glyph-name="uni06CC" unicode="&#x6cc;" horiz-adv-x="1615" arabic-form="isolated" 
d="M154 575l186 9v-564q0 -121 79.5 -200.5t201.5 -79.5q203 0 324.5 10.5t213.5 44.5q128 50 152 152q2 7 2 47q0 26 -12.5 35.5t-49.5 9.5h-401q-111 0 -159 48.5t-48 160.5v465l266 235h269q101 0 182.5 -77t81.5 -177v-61l-148 -8q-3 56 -47 100.5t-100 44.5h-191
l-135 -117l-14 -344q-1 -54 23 -76t81 -22h389q78 0 120 -38.5t42 -111.5q0 -75 -2 -112q-12 -202 -186 -307q-104 -62 -261.5 -86.5t-391.5 -24.5q-125 0 -232.5 61.5t-171 166.5t-63.5 227v589z" />
    <glyph glyph-name="uni06CE.init" unicode="&#x6ce;" horiz-adv-x="845" 
d="M-2 0v211h381q58 0 101 37t40 90l-24 500l196 14v-565q0 -124 -83.5 -205.5t-209.5 -81.5h-401zM291 -297l287 -135l-646 -17v152h359zM229 -440v143h314l45 -27v-108zM393 1139h-55l137 440l84 -16zM389 1145l-51 -6l-191 407l82 31z" />
    <glyph glyph-name="uni06CE.medi" unicode="&#x6ce;" horiz-adv-x="886" 
d="M760 0q-66 0 -124.5 40.5t-78.5 100.5q-23 -60 -85.5 -100.5t-131.5 -40.5h-342v211h330q59 0 97 37.5t38 93.5v422l178 6v-428q0 -56 37 -93.5t94 -37.5h117q29 0 29 -113q0 -31 -8.5 -64.5t-20.5 -33.5h-129zM362 -297l287 -135l-645 -17v152h358zM301 -440v143h313
l45 -27v-108zM465 1057h-55l137 440l84 -16zM461 1063l-51 -6l-191 407l82 31z" />
    <glyph glyph-name="uni06CE.fina" unicode="&#x6ce;" horiz-adv-x="1570" 
d="M1571 211q16 0 23.5 -34t7.5 -73q0 -25 -8 -64.5t-23 -39.5h-129q14 -14 14 -53q0 -12 -4 -62q-12 -151 -139 -254q-95 -75 -254 -107t-438 -32q-192 0 -329.5 134t-137.5 321v590l186 8v-563q0 -122 80 -201.5t201 -79.5q242 0 361.5 17t201.5 63q57 32 84.5 60t36.5 63
q2 10 2 49q0 27 -13 37t-49 10h-581l28 211h879zM1057 432h-56l138 440l84 -16zM1053 438l-52 -6l-190 408l82 30z" />
    <glyph glyph-name="uni06CF.fina" unicode="&#x6cf;" horiz-adv-x="1259" 
d="M1262 211q11 0 19.5 -32.5t8.5 -72.5t-9 -73t-19 -33h-261v211h261zM434 -344q173 38 273 81.5t138 90.5t36 109l-2 57h-469q-116 0 -186 72.5t-70 193.5v461l252 213h350q121 0 201.5 -76t80.5 -196l-2 -734q0 -191 -153.5 -312.5t-474.5 -184.5l-166 -33l-47 211z
M856 641q-3 55 -42 91t-95 36h-260l-135 -117l-13 -319q-1 -63 38.5 -95t105.5 -32h419zM518 1178v194l219 10v-204h-219z" />
    <glyph glyph-name="uni06D2.isol" unicode="&#x6d2;" horiz-adv-x="1482" arabic-form="isolated" 
d="M506 0q-352 0 -352 352v490l266 235h221q97 0 169 -50.5t144 -168.5l90 -147l-145 -107l-125 205q-31 51 -61 70.5t-76 19.5h-164l-135 -115l-12 -391q-6 -189 190 -186l813 18l-31 -225h-792z" />
    <glyph glyph-name="uni06D3" unicode="&#x6d3;" horiz-adv-x="1482" arabic-form="isolated" 
d="M506 0q-352 0 -352 352v490l266 235h221q97 0 169 -50.5t144 -168.5l90 -147l-145 -107l-125 205q-31 51 -61 70.5t-76 19.5h-164l-135 -115l-12 -391q-6 -189 190 -186l813 18l-31 -225h-792zM371 1323l-35 88l76 41q-23 3 -39 35l-45 86q-19 36 -19 61q0 21 15 64
q4 8 12.5 35t15.5 45l111 51q42 20 82 7t65 -52l15 -31l-62 -29q-37 50 -84 27l-67 -37q-16 -51 -17 -55q-4 -12 -4 -27q0 -22 17 -55l30 -55q17 -31 38 -34.5t59 19.5l194 115l43 -84z" />
    <glyph glyph-name="uni06D5.fina" unicode="&#x6d5;" horiz-adv-x="1306" 
d="M1225 0q-131 0 -201.5 55t-95.5 178q-2 -6 -7.5 -18t-7.5 -18q-48 -117 -182 -117h-297q-111 0 -194.5 86t-83.5 201q0 7 -0.5 50t0 63.5t2 61.5t5 66.5t10 55.5t15.5 51t31.5 48.5t56 59.5t60 55.5t64 55t46.5 39.5l332 57l-16 105l180 26l92 -755q15 -121 58.5 -158
t171.5 -37h43q10 0 20 -35t10 -72t-9.5 -70.5t-20.5 -33.5h-82zM713 272q108 0 131 86q3 11 9 33.5t9 34.5l-59 426l-279 -45q-15 -14 -58.5 -48.5t-75 -64t-44.5 -53.5q-8 -15 -13.5 -47.5t-7 -60t-3.5 -71t-3 -54.5q-3 -54 42 -95t108 -41h244z" />
    <glyph glyph-name="uni0671.fina" unicode="&#x671;" horiz-adv-x="608" arabic-form="final" 
d="M197 1372q-65 0 -98.5 24t-55.5 85l-20 57l-91 -152l-65 33l135 213l74 -10l22 -70q9 -30 25 -57l72 115q27 44 57 59q45 23 170 23l88 -78v-144q0 -44 -28.5 -71t-75.5 -27h-209zM399 1456q48 0 45 43l-4 82l-45 39q-53 0 -86 -10q-41 -9 -65 -47l-68 -101q15 -6 43 -6
h180zM467 0q-127 0 -202.5 84.5t-80.5 232.5l-30 914l194 16l6 -903q0 -57 37.5 -95t91.5 -38h125q31 0 31 -109q0 -102 -31 -102h-141z" />
    <glyph glyph-name="uni067E.fina" unicode="&#x67e;" horiz-adv-x="2050" arabic-form="final" 
d="M438 0q-126 0 -205 83.5t-79 211.5v461l186 8v-430q0 -54 28.5 -88.5t75.5 -34.5h1063q58 0 101.5 37t40.5 90l-27 500l199 14v-565q0 -125 -84.5 -206t-208.5 -81h-1090zM1948 0q-120 0 -186 101t-68 286h125q2 -85 38 -130.5t103 -45.5h90q16 0 23.5 -42t7.5 -71
q0 -30 -9.5 -64t-21.5 -34h-102zM918 -786v174l186 8v-182h-186zM1040 -297l287 -135l-645 -17v152h358zM979 -440v143h313l45 -27v-108z" />
    <glyph glyph-name="uni067E.init" unicode="&#x67e;" horiz-adv-x="845" arabic-form="initial" 
d="M-2 0v211h381q58 0 101 37t40 90l-24 500l196 14v-565q0 -124 -83.5 -205.5t-209.5 -81.5h-401zM168 -786v174l186 8v-182h-186zM291 -297l287 -135l-646 -17v152h359zM229 -440v143h314l45 -27v-108z" />
    <glyph glyph-name="uni067E.medi" unicode="&#x67e;" horiz-adv-x="886" arabic-form="medial" 
d="M760 0q-66 0 -124.5 40.5t-78.5 100.5q-23 -60 -85.5 -100.5t-131.5 -40.5h-342v211h330q59 0 97 37.5t38 93.5v422l178 6v-428q0 -56 37 -93.5t94 -37.5h117q29 0 29 -113q0 -31 -8.5 -64.5t-20.5 -33.5h-129zM240 -786v174l186 8v-182h-186zM362 -297l287 -135
l-645 -17v152h358zM301 -440v143h313l45 -27v-108z" />
    <glyph glyph-name="uni0679.fina" unicode="&#x679;" horiz-adv-x="2050" arabic-form="final" 
d="M438 0q-126 0 -205 83.5t-79 211.5v461l186 8v-430q0 -54 28.5 -88.5t75.5 -34.5h1063q58 0 101.5 37t40.5 90l-27 500l199 14v-565q0 -125 -84.5 -206t-208.5 -81h-1090zM1948 0q-120 0 -186 101t-68 286h125q2 -85 38 -130.5t103 -45.5h90q16 0 23.5 -42t7.5 -71
q0 -30 -9.5 -64t-21.5 -34h-102zM831 1047l25 38l-10 322l72 10v-223l-5 -37l29 45q22 38 100 60q42 10 93 10l84 -74v-135q0 -44 -28.5 -70t-76.5 -26h-283v80zM1116 1044q19 0 31 11t12 30l-4 80l-47 41q-31 0 -61 -6q-58 -14 -82 -53l-68 -100z" />
    <glyph glyph-name="uni0679.init" unicode="&#x679;" horiz-adv-x="845" arabic-form="initial" 
d="M-2 0v211h381q58 0 101 37t40 90l-24 500l196 14v-565q0 -124 -83.5 -205.5t-209.5 -81.5h-401zM186 1219l25 38l-10 322l71 10v-223l-4 -37l29 45q22 38 100 60q42 10 92 10l84 -74v-135q0 -44 -28.5 -70t-75.5 -26h-283v80zM471 1217q19 0 31 11t12 29l-4 80l-47 41
q-32 0 -62 -6q-58 -14 -82 -53l-67 -100z" />
    <glyph glyph-name="uni0679.medi" unicode="&#x679;" horiz-adv-x="886" arabic-form="medial" 
d="M760 0q-66 0 -124.5 40.5t-78.5 100.5q-23 -60 -85.5 -100.5t-131.5 -40.5h-342v211h330q59 0 97 37.5t38 93.5v422l178 6v-428q0 -56 37 -93.5t94 -37.5h117q29 0 29 -113q0 -31 -8.5 -64.5t-20.5 -33.5h-129zM258 1137l25 39l-11 321l72 10v-223l-4 -37l29 45
q22 38 100 60q42 10 92 10l84 -74v-135q0 -44 -28.5 -70t-75.5 -26h-283v80zM543 1135q19 0 31 11t12 30l-4 79l-47 41q-32 0 -62 -6q-58 -14 -82 -53l-67 -100z" />
    <glyph glyph-name="uni06A4.fina" unicode="&#x6a4;" horiz-adv-x="2138" arabic-form="final" 
d="M438 0q-125 0 -204.5 81t-79.5 208v467l186 8v-430q0 -55 27.5 -89t76.5 -34h578v-211h-584zM1133 211q-34 31 -56 81.5t-22 96.5q0 169 18 264q6 30 16.5 58t30 56t34 48t44 49t43 42t48.5 44t44 39l305 -41q108 -14 190.5 -100t86.5 -193q9 -180 -11 -282.5t-69 -161.5
h303q7 0 14 -12t12 -38t5 -61q0 -32 -5 -55.5t-12 -34t-14 -10.5h-571q-57 0 -103 16q-43 -16 -100 -16h-561v211h330zM1391 807q-65 -56 -106 -108.5t-52 -114.5q-12 -70 -12 -176q0 -71 77 -134t164 -63h29q134 0 192 70.5t58 234.5q0 128 -36 188t-118 72zM1372 1542v172
l193 8v-180h-193zM1499 1380l287 -135l-645 -16v151h358zM1438 1237v143h313l45 -26v-109z" />
    <glyph glyph-name="uni06A4.init" unicode="&#x6a4;" horiz-adv-x="1134" arabic-form="initial" 
d="M-2 0v211h688q57 0 94 36.5t37 92.5v63h-393q-115 0 -187.5 75t-72.5 192v397l244 215h309q117 0 190.5 -73t73.5 -189v-684q0 -155 -83 -245.5t-236 -90.5h-664zM801 989q-1 54 -40 89.5t-95 35.5h-199l-135 -117l-13 -262q-3 -63 39 -105t105 -42h358zM506 1841v172
l192 8v-180h-192zM633 1679l287 -135l-646 -16v151h359zM571 1536v143h314l45 -26v-109z" />
    <glyph glyph-name="uni06A4.medi" unicode="&#x6a4;" horiz-adv-x="1333" arabic-form="medial" 
d="M328 211q-34 31 -56 81.5t-22 96.5q0 169 18 264q6 30 16.5 58t30 56t34 48t44 49t43 42t48.5 44t44 39l306 -41q108 -14 190 -100t86 -193q9 -180 -11 -282.5t-69 -161.5h303q7 0 14 -12t12 -38t5 -61q0 -32 -5 -55.5t-12 -34t-14 -10.5h-571q-57 0 -103 16
q-43 -16 -100 -16h-561v211h330zM586 807q-65 -56 -106 -108.5t-52 -114.5q-12 -70 -12 -176q0 -71 77 -134t164 -63h29q134 0 192 70.5t58 234.5q0 128 -36 188t-118 72zM584 1542v172l192 8v-180h-192zM711 1380l286 -135l-645 -16v151h359zM649 1237v143h314l45 -26v-109
z" />
    <glyph glyph-name="uni0686.fina" unicode="&#x686;" horiz-adv-x="1538" arabic-form="final" 
d="M815 98l256 -137l-584 -14v151h328zM754 -47v145h286l41 -28v-109zM692 -309v174l187 8v-182h-187zM1438 0q-163 0 -257.5 109t-105.5 299l121 120q13 -167 65.5 -242t155.5 -75h123q15 0 22 -42t7 -69q0 -22 -8 -61t-21 -39h-102zM584 -592q-190 0 -307 103t-119 272
l-2 151q-3 192 62.5 283.5t250.5 151.5l557 178l-448 239q-36 19 -70 19q-39 1 -71.5 -18.5t-49.5 -55.5l-65 -137l-154 63l80 174q35 76 107 120t161 44q74 0 148 -39l757 -393l-55 -182l-109 55l-696 -233q-73 -24 -114.5 -45t-67.5 -53.5t-35 -72t-10 -104.5l-2 -121
q-1 -92 64 -155t157 -60l721 27l-31 -211h-659z" />
    <glyph glyph-name="uni0686.init" unicode="&#x686;" horiz-adv-x="1550" arabic-form="initial" 
d="M-2 0v211h225q275 0 441 94l376 215l-479 250q-35 18 -69 18q-84 0 -121 -75l-64 -138l-153 58l73 174q32 78 105 124t162 46q75 0 147 -35l756 -379l-51 -182l-125 61l-424 -264q-156 -97 -296 -137.5t-321 -40.5h-182zM528 -786v174l187 8v-182h-187zM651 -297
l287 -135l-645 -17v152h358zM590 -440v143h313l45 -27v-108z" />
    <glyph glyph-name="uni0686.medi" unicode="&#x686;" horiz-adv-x="1501" arabic-form="medial" 
d="M1401 0q-163 0 -257.5 109t-105.5 299l121 120q13 -167 65.5 -242t155.5 -75h123q29 0 29 -111q0 -100 -29 -100h-102zM-2 0v211h225q275 0 441 94l376 215l-479 250q-35 18 -69 18q-84 0 -121 -75l-64 -138l-153 58l73 174q32 78 105 124t162 46q75 0 147 -35l756 -379
l-51 -182l-125 61l-424 -264q-156 -97 -296 -137.5t-321 -40.5h-182zM528 -786v174l187 8v-182h-187zM651 -297l287 -135l-645 -17v152h358zM590 -440v143h313l45 -27v-108z" />
    <glyph glyph-name="uni0688.fina" unicode="&#x688;" horiz-adv-x="1359" arabic-form="final" 
d="M1362 0q-113 0 -188 36.5t-138 121.5q-32 -72 -100.5 -115t-151.5 -43h-344q-128 0 -207 78t-79 207v145l170 10v-104q0 -64 30 -94.5t95 -30.5h354q54 0 92 35t43 86l-55 145l-203 531l178 49l217 -611q51 -142 107.5 -188.5t179.5 -46.5q13 0 21 -35.5t8 -71.5
q0 -35 -8.5 -69.5t-20.5 -34.5zM539 1446l24 39l-10 321l72 11v-224l-4 -37l28 46q22 36 101 59q42 10 92 10l84 -74v-135q0 -44 -28.5 -70t-76.5 -26h-282v80zM823 1444q19 0 31 11t12 30l-4 80l-47 41q-26 0 -61 -7q-58 -14 -82 -53l-68 -100z" />
    <glyph glyph-name="uni0698.fina" unicode="&#x698;" horiz-adv-x="835" arabic-form="final" 
d="M696 0q-57 0 -108 27t-76 63v-156q0 -179 -158.5 -312.5t-455.5 -205.5l-70 215q225 44 372 141t144 199l-29 783l199 14v-424q5 -58 49.5 -95.5t112.5 -37.5h78q30 0 30 -111q0 -100 -30 -100h-58zM317 1376v172l193 8v-180h-193zM444 1214l287 -135l-645 -16v151h358z
M383 1071v143h313l45 -26v-109zM836 211q13 0 21.5 -32.5t8.5 -72.5q0 -42 -8.5 -74t-21.5 -32h-84v211h84z" />
    <glyph glyph-name="uni0691.fina" unicode="&#x691;" horiz-adv-x="753" arabic-form="final" 
d="M696 0q-57 0 -108 27t-76 63v-156q0 -179 -158.5 -312.5t-455.5 -205.5l-70 215q225 44 372 141t144 199l-29 783l199 14v-424q5 -58 49.5 -95.5t112.5 -37.5h78q30 0 30 -111q0 -100 -30 -100h-58zM248 1184l24 39l-10 321l72 10v-223l-4 -37l28 45q22 37 101 60
q42 10 92 10l84 -74v-135q0 -44 -28.5 -70t-76.5 -26h-282v80zM532 1182q19 0 31 11t12 30l-4 80l-47 40q-31 0 -61 -6q-58 -14 -82 -53l-68 -100z" />
    <glyph glyph-name="uni06A9.fina" unicode="&#x6a9;" horiz-adv-x="2193" arabic-form="final" 
d="M438 0q-128 0 -206 79.5t-78 209.5v467l186 8v-430q0 -55 27.5 -89t76.5 -34h1057q68 0 116 41t48 102v95q-57 75 -92 100l-608 422l6 223l753 332l88 -180l-659 -256l516 -373q47 -34 92 -89.5t76.5 -109.5t70.5 -111t76 -100t91 -70.5t118 -27.5q10 0 16.5 -7
t10.5 -29.5t4 -61.5q0 -62 -7 -86.5t-24 -24.5q-137 0 -231.5 66.5t-185.5 226.5l-7 -78q-7 -97 -90 -156t-211 -59h-1030z" />
    <glyph glyph-name="uni06A9.init" unicode="&#x6a9;" horiz-adv-x="1232" arabic-form="initial" 
d="M756 211q66 0 106.5 35.5t40.5 91.5l-69 299l-687 338l7 201l788 331l88 -178l-663 -248l622 -317q7 -33 26 -118.5t25 -116t17 -84t15 -85t5 -57.5q6 -122 -88 -212.5t-227 -90.5h-764v211h758z" />
    <glyph glyph-name="uni06A9.medi" unicode="&#x6a9;" horiz-adv-x="1388" arabic-form="medial" 
d="M1386 0q-138 0 -229 64t-188 229l-4 -76q-6 -98 -90 -157.5t-205 -59.5h-672v211h696q68 0 116 41t48 102v95q-59 79 -90 100l-608 422l6 223l754 332l86 -180l-660 -256l518 -373q45 -33 89.5 -87t76.5 -108.5t72 -112t78 -101t92 -71.5t117 -28q18 0 24 -18.5t6 -79.5
q0 -39 -8.5 -75t-24.5 -36z" />
    <glyph glyph-name="uni06AF.fina" unicode="&#x6af;" horiz-adv-x="2193" arabic-form="final" 
d="M438 0q-128 0 -206 79.5t-78 209.5v467l186 8v-430q0 -55 27.5 -89t76.5 -34h1057q68 0 116 41t48 102v95q-57 75 -92 100l-608 422l6 223l753 332l88 -180l-659 -256l516 -373q47 -34 92 -89.5t76.5 -109.5t70.5 -111t76 -100t91 -70.5t118 -27.5q10 0 16.5 -7
t10.5 -29.5t4 -61.5q0 -62 -7 -86.5t-24 -24.5q-137 0 -231.5 66.5t-185.5 226.5l-7 -78q-7 -97 -90 -156t-211 -59h-1030zM1636 1620l-600 -246l-37 82l29 45l549 246z" />
    <glyph glyph-name="uni06AF.init" unicode="&#x6af;" horiz-adv-x="1232" arabic-form="initial" 
d="M756 211q66 0 106.5 35.5t40.5 91.5l-69 299l-687 338l7 201l788 331l88 -178l-663 -248l622 -317q7 -33 26 -118.5t25 -116t17 -84t15 -85t5 -57.5q6 -122 -88 -212.5t-227 -90.5h-764v211h758zM868 1620l-600 -246l-37 82l29 45l549 246z" />
    <glyph glyph-name="uni06AF.medi" unicode="&#x6af;" horiz-adv-x="1388" arabic-form="medial" 
d="M1386 0q-138 0 -229 64t-188 229l-4 -76q-6 -98 -90 -157.5t-205 -59.5h-672v211h696q68 0 116 41t48 102v95q-59 79 -90 100l-608 422l6 223l754 332l86 -180l-660 -256l518 -373q45 -33 89.5 -87t76.5 -108.5t72 -112t78 -101t92 -71.5t117 -28q18 0 24 -18.5t6 -79.5
q0 -39 -8.5 -75t-24.5 -36zM848 1620l-600 -246l-37 82l29 45l548 246z" />
    <glyph glyph-name="uni06BA.fina" unicode="&#x6ba;" horiz-adv-x="1619" arabic-form="final" 
d="M154 598l186 6v-559q0 -125 81 -204t206 -79q281 0 438.5 74.5t153.5 204.5l-29 780l196 17l5 -830q2 -223 -196 -340t-577 -117q-125 0 -231.5 60t-169.5 165.5t-63 231.5v590zM1518 0q-120 0 -186 101t-68 286h125q2 -85 38 -130.5t103 -45.5h90q16 0 23.5 -42t7.5 -71
q0 -30 -9.5 -64t-21.5 -34h-102z" />
    <glyph glyph-name="uni06C1.fina" unicode="&#x6c1;" horiz-adv-x="1253" arabic-form="final" 
d="M1145 0q-149 0 -231 95t-123 315l-60 317l-217 -25q-77 -58 -128 -112.5t-58 -89.5q-13 -55 -13 -207v-191l-153 -2l-8 306q-4 163 59 243q66 83 225 215l453 58l76 -543q14 -94 60.5 -131t152.5 -37h73q7 0 14 -11.5t12 -36.5t5 -59q0 -33 -5 -57.5t-12 -35.5t-14 -11
h-108z" />
    <glyph glyph-name="uni06C1.init" unicode="&#x6c1;" horiz-adv-x="845" arabic-form="initial" 
d="M-2 0v211h381q58 0 101 37t40 90l-24 500l196 14v-565q0 -124 -83.5 -205.5t-209.5 -81.5h-401zM244 -436q-43 -49 -43 -84q0 -33 31 -69.5t102 -92.5l-113 -125q-121 115 -121 213q0 73 68 160l160 198l49 -47z" />
    <glyph glyph-name="uni06C1.medi" unicode="&#x6c1;" horiz-adv-x="1005" arabic-form="medial" 
d="M1006 0h-66q-54 0 -86 -35q-32 -34 -66 -114.5t-86 -239.5h-174q-136 0 -214 79.5t-66 207.5l18 188q-68 -86 -194 -86h-74v211h133q63 0 106.5 36t47.5 93l30 352h164l-76 -762q-6 -69 46 -112t141 -45q46 153 79.5 236t69.5 126q49 57 125 66q88 10 142 10
q13 0 21.5 -30.5t8.5 -76.5q0 -45 -8.5 -74.5t-21.5 -29.5z" />
    <glyph glyph-name="uni06BE.fina" unicode="&#x6be;" horiz-adv-x="1486" arabic-form="final" 
d="M154 123l252 37v522q0 101 82 174.5t186 73.5h313l221 -193v-450q0 -97 -70.5 -165.5t-181.5 -86.5l-391 -66v-65q0 -144 176 -144h289l47 156q43 142 137 218.5t228 76.5h55q21 0 21 -107q0 -104 -21 -104h-53q-85 0 -149 -53.5t-93 -151.5l-59 -196h-445
q-136 0 -215.5 74t-79.5 196v76l-213 -37zM913 238q66 11 103.5 49.5t34.5 93.5l-15 274l-114 109h-199q-57 0 -98.5 -39t-42.5 -96l-15 -445z" />
    <glyph glyph-name="uni06BE.init" unicode="&#x6be;" horiz-adv-x="1642" arabic-form="initial" 
d="M252 211q-37 33 -58.5 79t-21.5 95v34v37t0.5 35t1.5 38.5t2 35.5t4 37.5t6 34.5t8 35.5t11 32.5q13 35 41 69.5t88 91.5l-139 23l24 180l850 -164q78 -16 106.5 -22t59 -17.5t51.5 -27.5q57 -43 100 -181q9 -28 29 -87t31.5 -95.5t24 -88t16.5 -93.5q7 -74 -31 -142.5
t-108 -109.5t-150 -41h-399q-77 0 -127 35q-84 -35 -207 -35h-467v211h254zM897 215q16 -4 53 -4h228q57 0 98.5 37.5t42.5 91.5l-92 268q-28 84 -60 103q-33 24 -131 41l-143 22q43 -37 59.5 -89t16.5 -157q0 -132 -14.5 -195.5t-57.5 -117.5zM567 211q148 0 199 72
q47 71 47 256q0 122 -28 178.5t-101 68.5l-172 27q-67 -59 -97.5 -93.5t-47.5 -70.5q-17 -35 -23 -83.5t-6 -151.5q0 -68 67.5 -131t161.5 -72z" />
    <glyph glyph-name="uni06BE.medi" unicode="&#x6be;" horiz-adv-x="1271" arabic-form="medial" 
d="M1223 0q-162 0 -219 -178l-74 -223h-445q-136 0 -215.5 74t-79.5 196v131h-192v211h195l2 471q0 100 81.5 174t184.5 74h313l221 -193v-477q0 -103 -76.5 -181.5t-177.5 -78.5h-389l2 -96q3 -144 176 -144h289l58 181q85 270 346 270h55q25 0 25 -107q0 -37 -6.5 -70.5
t-18.5 -33.5h-55zM700 211q60 0 100.5 41.5t37.5 101.5l-15 301l-114 109h-199q-57 0 -98.5 -39t-42.5 -96l-15 -418h346z" />
    <glyph glyph-name="uni06D2.fina" unicode="&#x6d2;" horiz-adv-x="1013" arabic-form="final" 
d="M907 0q-311 0 -440 -59q-82 -37 -125 -119q-20 -42 -20 -101v-63q31 -64 145 -61l815 18l-31 -225h-856q-106 0 -173.5 59.5t-67.5 153.5v90q0 264 161 389q91 68 241 98.5t396 30.5h62q11 0 18.5 -28.5t7.5 -80.5q0 -102 -26 -102h-107z" />
    <glyph glyph-name="uni06D3.fina" unicode="&#x6d3;" horiz-adv-x="1013" arabic-form="final" 
d="M907 0q-311 0 -440 -59q-82 -37 -125 -119q-20 -42 -20 -101v-63q31 -64 145 -61l815 18l-31 -225h-856q-106 0 -173.5 59.5t-67.5 153.5v90q0 264 161 389q91 68 241 98.5t396 30.5h62q11 0 18.5 -28.5t7.5 -80.5q0 -102 -26 -102h-107zM596 457l-35 88l76 41
q-23 3 -39 35l-45 86q-18 34 -18 61q0 23 14 63q4 9 13 35.5t16 44.5l110 52q42 20 82.5 7t65.5 -52l14 -31l-62 -29q-37 49 -83 27l-68 -37q-14 -45 -16 -55q-5 -15 -5 -27q0 -22 17 -55l31 -56q17 -31 37.5 -34t58.5 20l194 115l43 -84z" />
    <glyph glyph-name="uni06C6.fina" unicode="&#x6c6;" horiz-adv-x="1259" arabic-form="final" 
d="M1262 211q11 0 19.5 -32.5t8.5 -72.5t-9 -73t-19 -33h-261v211h261zM434 -344q173 38 273 81.5t138 90.5t36 109l-2 57h-469q-116 0 -186 72.5t-70 193.5v461l252 213h350q121 0 201.5 -76t80.5 -196l-2 -734q0 -191 -153.5 -312.5t-474.5 -184.5l-166 -33l-47 211z
M856 641q-3 55 -42 91t-95 36h-260l-135 -117l-13 -319q-1 -63 38.5 -95t105.5 -32h419zM670 1219h-56l138 440l84 -17zM666 1225l-52 -6l-190 407l82 31z" />
    <glyph glyph-name="uni06C9.fina" unicode="&#x6c9;" horiz-adv-x="1259" arabic-form="final" 
d="M1262 211q11 0 19.5 -32.5t8.5 -72.5t-9 -73t-19 -33h-261v211h261zM434 -344q173 38 273 81.5t138 90.5t36 109l-2 57h-469q-116 0 -186 72.5t-70 193.5v461l252 213h350q121 0 201.5 -76t80.5 -196l-2 -734q0 -191 -153.5 -312.5t-474.5 -184.5l-166 -33l-47 211z
M856 641q-3 55 -42 91t-95 36h-260l-135 -117l-13 -319q-1 -63 38.5 -95t105.5 -32h419zM752 1219l-138 440h56l166 -424zM424 1251l190 408l52 -6l-160 -432z" />
    <glyph glyph-name="uni0649.init" unicode="&#x649;" horiz-adv-x="845" arabic-form="initial" 
d="M-2 0v211h381q58 0 101 37t40 90l-24 500l196 14v-565q0 -124 -83.5 -205.5t-209.5 -81.5h-401z" />
    <glyph glyph-name="uni0649.medi" unicode="&#x649;" horiz-adv-x="886" arabic-form="medial" 
d="M760 0q-66 0 -124.5 40.5t-78.5 100.5q-23 -60 -85.5 -100.5t-131.5 -40.5h-342v211h330q59 0 97 37.5t38 93.5v422l178 6v-428q0 -56 37 -93.5t94 -37.5h117q29 0 29 -113q0 -31 -8.5 -64.5t-20.5 -33.5h-129z" />
    <glyph glyph-name="uni06CC.fina" unicode="&#x6cc;" horiz-adv-x="1570" arabic-form="final" 
d="M1571 211q16 0 23.5 -34t7.5 -73q0 -25 -8 -64.5t-23 -39.5h-129q14 -14 14 -53q0 -12 -4 -62q-12 -151 -139 -254q-95 -75 -254 -107t-438 -32q-192 0 -329.5 134t-137.5 321v590l186 8v-563q0 -122 80 -201.5t201 -79.5q242 0 361.5 17t201.5 63q57 32 84.5 60t36.5 63
q2 10 2 49q0 27 -13 37t-49 10h-581l28 211h879z" />
    <glyph glyph-name="uni06CC.init" unicode="&#x6cc;" horiz-adv-x="845" arabic-form="initial" 
d="M-2 0v211h381q58 0 101 37t40 90l-24 500l196 14v-565q0 -124 -83.5 -205.5t-209.5 -81.5h-401zM291 -297l287 -135l-646 -17v152h359zM229 -440v143h314l45 -27v-108z" />
    <glyph glyph-name="uni06CC.medi" unicode="&#x6cc;" horiz-adv-x="886" arabic-form="medial" 
d="M760 0q-66 0 -124.5 40.5t-78.5 100.5q-23 -60 -85.5 -100.5t-131.5 -40.5h-342v211h330q59 0 97 37.5t38 93.5v422l178 6v-428q0 -56 37 -93.5t94 -37.5h117q29 0 29 -113q0 -31 -8.5 -64.5t-20.5 -33.5h-129zM362 -297l287 -135l-645 -17v152h358zM301 -440v143h313
l45 -27v-108z" />
    <glyph glyph-name="uni0651064C" unicode="&#xfc5e;" arabic-form="isolated" 
d="M182 330l94 6v-197q0 -63 -41 -101t-110 -38q-50 0 -87.5 24.5t-41.5 61.5q-4 -37 -43 -61.5t-90 -24.5q-66 0 -106 38t-40 101v178l90 -4l-16 -151q-3 -32 19 -53t59 -21t61.5 21t24.5 53v119l80 2v-123q2 -32 24.5 -52t59.5 -20t59 19.5t19 50.5zM-160 573
q12 26 4.5 40t-32.5 10l-91 -17l-4 58l107 18q63 11 88.5 -21.5t-2.5 -89.5l-31 -63l125 31l-31 123q-8 31 8 60t48 38l98 28l104 -53l27 -110q13 -55 -7 -93t-67 -47l-358 -73l-23 80zM170 580q12 3 18 16.5t2 26.5l-20 65l-43 21l-53 -15q-14 -3 -22 -15.5t-5 -25.5
l21 -100z" />
    <glyph glyph-name="uni0651064D" unicode="&#xfc5f;" arabic-form="isolated" 
d="M225 190l31 -90l-451 -100l-22 82zM217 414l27 -84l-447 -109l-26 90zM186 852l95 6v-196q0 -63 -41.5 -101.5t-110.5 -38.5q-50 0 -87.5 24.5t-41.5 61.5q-4 -37 -43 -61.5t-90 -24.5q-66 0 -106 38.5t-40 101.5v178l91 -4l-17 -152q-3 -32 19 -53t59 -21t61.5 21
t24.5 53v119l80 2v-123q2 -32 24.5 -52t59.5 -20t59 19.5t19 50.5z" />
    <glyph glyph-name="uni0651064E" unicode="&#xfc60;" arabic-form="isolated" 
d="M182 330l94 6v-197q0 -63 -41 -101t-110 -38q-50 0 -87.5 24.5t-41.5 61.5q-4 -37 -43 -61.5t-90 -24.5q-66 0 -106 38t-40 101v178l90 -4l-16 -151q-3 -32 19 -53t59 -21t61.5 21t24.5 53v119l80 2v-123q2 -32 24.5 -52t59.5 -20t59 19.5t19 50.5zM-215 395l-23 80
l443 111l31 -90z" />
    <glyph glyph-name="uni0651064F" unicode="&#xfc61;" arabic-form="isolated" 
d="M182 330l94 6v-197q0 -63 -41 -101t-110 -38q-50 0 -87.5 24.5t-41.5 61.5q-4 -37 -43 -61.5t-90 -24.5q-66 0 -106 38t-40 101v178l90 -4l-16 -151q-3 -32 19 -53t59 -21t61.5 21t24.5 53v119l80 2v-123q2 -32 24.5 -52t59.5 -20t59 19.5t19 50.5zM-233 481l182 47
l-31 125q-8 33 7 62t48 39l99 26l102 -53l29 -111q13 -55 -7 -91.5t-67 -47.5l-340 -78zM111 569q13 3 21 17t3 28l-22 68l-39 18l-58 -12q-13 -3 -20 -15.5t-4 -27.5l20 -102z" />
    <glyph glyph-name="uni06510650" unicode="&#xfc62;" arabic-form="isolated" 
d="M182 604l94 6v-196q0 -63 -41 -101.5t-110 -38.5q-50 0 -87.5 24.5t-41.5 61.5q-4 -37 -43 -61.5t-90 -24.5q-66 0 -106 38.5t-40 101.5v178l90 -4l-16 -152q-3 -32 19 -53t59 -21t61.5 21t24.5 53v119l80 2v-123q2 -32 24.5 -52t59.5 -20t59 19.5t19 50.5zM-205 0
l-22 82l442 111l31 -91z" />
    <glyph glyph-name="uni06510670" unicode="&#xfc63;" arabic-form="isolated" 
d="M182 330l94 6v-197q0 -63 -41 -101t-110 -38q-50 0 -87.5 24.5t-41.5 61.5q-4 -37 -43 -61.5t-90 -24.5q-66 0 -106 38t-40 101v178l90 -4l-16 -151q-3 -32 19 -53t59 -21t61.5 21t24.5 53v119l80 2v-123q2 -32 24.5 -52t59.5 -20t59 19.5t19 50.5zM-37 698l72 9l-2 -301
l-56 -7z" />
    <glyph glyph-name="uni06260631.fina" unicode="&#xfc64;" horiz-adv-x="1447" arabic-form="final" 
d="M748 997l-35 88l75 41q-22 3 -38 35l-45 86q-19 36 -19 62q0 23 14 63q4 9 13 35.5t16 44.5l111 51q42 20 82 7t65 -52l14 -31l-61 -28q-36 49 -84 26l-68 -36q-14 -43 -16 -56q-4 -12 -4 -26q0 -25 16 -56l31 -55q17 -31 37.5 -34t58.5 20l195 114l43 -84zM1434 0
q-164 0 -249 64.5t-108 207.5l-53 342l-422 -14l-88 -96v-541q0 -190 -161.5 -333t-454.5 -214l-70 215q227 44 373.5 142t142.5 202l-22 588l219 221l565 17l70 -51l51 -404q9 -75 55.5 -105t155.5 -30h12q16 0 22.5 -38.5t6.5 -68.5q0 -21 -8.5 -62.5t-20.5 -41.5h-16z
" />
    <glyph glyph-name="uni06260632.fina" unicode="&#xfc65;" horiz-adv-x="1447" arabic-form="final" 
d="M1434 0q-164 0 -249 64.5t-108 207.5l-53 342l-422 -14l-88 -96v-541q0 -190 -161.5 -333t-454.5 -214l-70 215q227 44 373.5 142t142.5 202l-22 588l219 221l565 17l70 -51l51 -404q9 -75 55.5 -105t155.5 -30h12q16 0 22.5 -38.5t6.5 -68.5q0 -21 -8.5 -62.5
t-20.5 -41.5h-16zM850 1018l-35 88l76 41q-23 3 -39 35l-45 86q-19 36 -19 61q0 21 15 64q4 8 12.5 35t15.5 45l111 51q42 20 82.5 7t65.5 -52l14 -31l-62 -29q-37 50 -84 27l-67 -37q-16 -51 -17 -55q-4 -12 -4 -27q0 -22 17 -55l31 -55q17 -31 37.5 -34.5t58.5 19.5
l194 115l43 -84zM270 1014v194l219 11v-205h-219z" />
    <glyph glyph-name="uni06260646.fina" unicode="&#xfc67;" horiz-adv-x="2340" arabic-form="final" 
d="M2300 0q-160 0 -244 65.5t-106 206.5l-52 342l-425 -14l-87 -90l5 -502q2 -226 -193.5 -341.5t-579.5 -115.5q-125 0 -232 61.5t-169.5 167t-62.5 228.5v590l186 6v-559q0 -120 79.5 -201.5t196.5 -81.5q301 0 455 72.5t148 210.5l-25 518l221 221l563 17l72 -51l51 -404
q9 -76 55 -105.5t154 -29.5h31q9 0 17.5 -31.5t11.5 -75.5q1 -30 -9.5 -67t-19.5 -37h-41zM1616 1034l-35 88l76 41q-23 3 -39 35l-45 86q-19 36 -19 62q0 20 15 63q4 8 12.5 35t15.5 45l111 51q42 20 82 7t65 -52l15 -31l-62 -28q-36 49 -84 26l-67 -37q-16 -51 -17 -55
q-4 -12 -4 -27q0 -22 17 -55l30 -55q17 -31 38 -34t59 20l194 114l43 -84zM631 680v194l219 11v-205h-219z" />
    <glyph glyph-name="uni0626064A.fina" unicode="&#xfc69;" horiz-adv-x="2033" arabic-form="final" 
d="M2036 0q-160 0 -263 74t-229 280l-162 264q-36 57 -80.5 83t-109.5 26h-240l-133 -113l-12 -329q-1 -55 22.5 -77t81.5 -22h353q97 0 138.5 -37t41.5 -114v-78q0 -230 -202.5 -341.5t-620.5 -111.5q-189 0 -328 135.5t-139 319.5v592l186 6v-563q0 -119 79 -199t197 -80
q283 -5 460.5 41.5t209.5 134.5q8 21 8 76q0 28 -13 37.5t-48 9.5h-383q-111 0 -159 47.5t-48 159.5v447l266 237h322q116 0 187.5 -42.5t129.5 -147.5l131 -238q80 -145 160.5 -205.5t194.5 -60.5q17 0 23.5 -22t6.5 -85q0 -23 -7.5 -63.5t-20.5 -40.5zM938 1130l-35 89
l76 41q-24 3 -39 34l-45 86q-18 34 -18 62q0 23 14 63q4 9 13 35.5t16 44.5l110 51q42 20 82.5 7t65.5 -52l14 -30l-62 -29q-37 49 -83 27l-68 -37q-14 -43 -16 -56q-5 -15 -5 -26q0 -23 17 -56l31 -55q17 -31 37.5 -34t58.5 20l194 115l43 -84z" />
    <glyph glyph-name="uni06280631.fina" unicode="&#xfc6a;" horiz-adv-x="1447" arabic-form="final" 
d="M1434 0q-164 0 -249 64.5t-108 207.5l-53 342l-422 -14l-88 -96v-541q0 -190 -161.5 -333t-454.5 -214l-70 215q227 44 373.5 142t142.5 202l-22 588l219 221l565 17l70 -51l51 -404q9 -75 55.5 -105t155.5 -30h12q16 0 22.5 -38.5t6.5 -68.5q0 -21 -8.5 -62.5
t-20.5 -41.5h-16zM782 -512v195l219 10v-205h-219z" />
    <glyph glyph-name="uni06280632.fina" unicode="&#xfc6b;" horiz-adv-x="1447" arabic-form="final" 
d="M1434 0q-164 0 -249 64.5t-108 207.5l-53 342l-422 -14l-88 -96v-541q0 -190 -161.5 -333t-454.5 -214l-70 215q227 44 373.5 142t142.5 202l-22 588l219 221l565 17l70 -51l51 -404q9 -75 55.5 -105t155.5 -30h12q16 0 22.5 -38.5t6.5 -68.5q0 -21 -8.5 -62.5
t-20.5 -41.5h-16zM782 -512v195l219 10v-205h-219zM283 1014v194l219 11v-205h-219z" />
    <glyph glyph-name="uni06280646.fina" unicode="&#xfc6d;" horiz-adv-x="2340" arabic-form="final" 
d="M2300 0q-160 0 -244 65.5t-106 206.5l-52 342l-425 -14l-87 -90l5 -502q2 -226 -193.5 -341.5t-579.5 -115.5q-125 0 -232 61.5t-169.5 167t-62.5 228.5v590l186 6v-559q0 -120 79.5 -201.5t196.5 -81.5q301 0 455 72.5t148 210.5l-25 518l221 221l563 17l72 -51l51 -404
q9 -76 55 -105.5t154 -29.5h31q9 0 17.5 -31.5t11.5 -75.5q1 -30 -9.5 -67t-19.5 -37h-41zM631 680v194l219 11v-205h-219zM1675 -399v194l219 10v-204h-219z" />
    <glyph glyph-name="uni0628064A.fina" unicode="&#xfc6f;" horiz-adv-x="2033" arabic-form="final" 
d="M2036 0q-160 0 -263 74t-229 280l-162 264q-36 57 -80.5 83t-109.5 26h-240l-133 -113l-12 -329q-1 -55 22.5 -77t81.5 -22h353q97 0 138.5 -37t41.5 -114v-78q0 -230 -202.5 -341.5t-620.5 -111.5q-189 0 -328 135.5t-139 319.5v592l186 6v-563q0 -119 79 -199t197 -80
q283 -5 460.5 41.5t209.5 134.5q8 21 8 76q0 28 -13 37.5t-48 9.5h-383q-111 0 -159 47.5t-48 159.5v447l266 237h322q116 0 187.5 -42.5t129.5 -147.5l131 -238q80 -145 160.5 -205.5t194.5 -60.5q17 0 23.5 -22t6.5 -85q0 -23 -7.5 -63.5t-20.5 -40.5zM1591 -451v195
l219 10v-205h-219z" />
    <glyph glyph-name="uni062A0631.fina" unicode="&#xfc70;" horiz-adv-x="1447" arabic-form="final" 
d="M1010 1239l286 -135l-645 -17v152h359zM948 1096v143h314l45 -27v-108zM1434 0q-164 0 -249 64.5t-108 207.5l-53 342l-422 -14l-88 -96v-541q0 -190 -161.5 -333t-454.5 -214l-70 215q227 44 373.5 142t142.5 202l-22 588l219 221l565 17l70 -51l51 -404
q9 -75 55.5 -105t155.5 -30h12q16 0 22.5 -38.5t6.5 -68.5q0 -21 -8.5 -62.5t-20.5 -41.5h-16z" />
    <glyph glyph-name="uni062A0632.fina" unicode="&#xfc71;" horiz-adv-x="1452" arabic-form="final" 
d="M242 1014v194l219 11v-205h-219zM1436 0q-164 0 -249 64.5t-108 207.5l-53 342l-422 -14l-88 -96v-541q0 -190 -161.5 -333t-454.5 -214l-70 215q227 44 373.5 142t142.5 202l-22 588l219 221l565 17l70 -51l51 -404q9 -75 55.5 -105t155.5 -30h12q16 0 22.5 -38.5
t6.5 -68.5q0 -21 -8.5 -62.5t-20.5 -41.5h-16zM1004 1239l286 -135l-645 -17v152h359zM942 1096v143h313l45 -27v-108z" />
    <glyph glyph-name="uni062A0646.fina" unicode="&#xfc73;" horiz-adv-x="2340" arabic-form="final" 
d="M631 680v194l219 11v-205h-219zM1829 1233l287 -135l-646 -17v152h359zM1767 1090v143h314l45 -27v-108zM2300 0q-160 0 -244 65.5t-106 206.5l-52 342l-425 -14l-87 -90l5 -502q2 -226 -193.5 -341.5t-579.5 -115.5q-125 0 -232 61.5t-169.5 167t-62.5 228.5v590l186 6
v-559q0 -120 79.5 -201.5t196.5 -81.5q301 0 455 72.5t148 210.5l-25 518l221 221l563 17l72 -51l51 -404q9 -76 55 -105.5t154 -29.5h31q9 0 17.5 -31.5t11.5 -75.5q1 -30 -9.5 -67t-19.5 -37h-41z" />
    <glyph glyph-name="uni062A064A.fina" unicode="&#xfc75;" horiz-adv-x="2033" arabic-form="final" 
d="M1139 1352l286 -135l-645 -17v152h359zM1077 1208v144h314l45 -27v-108zM2036 0q-160 0 -263 74t-229 280l-162 264q-36 57 -80.5 83t-109.5 26h-240l-133 -113l-12 -329q-1 -55 22.5 -77t81.5 -22h353q97 0 138.5 -37t41.5 -114v-78q0 -230 -202.5 -341.5t-620.5 -111.5
q-189 0 -328 135.5t-139 319.5v592l186 6v-563q0 -119 79 -199t197 -80q283 -5 460.5 41.5t209.5 134.5q8 21 8 76q0 28 -13 37.5t-48 9.5h-383q-111 0 -159 47.5t-48 159.5v447l266 237h322q116 0 187.5 -42.5t129.5 -147.5l131 -238q80 -145 160.5 -205.5t194.5 -60.5
q17 0 23.5 -22t6.5 -85q0 -23 -7.5 -63.5t-20.5 -40.5z" />
    <glyph glyph-name="uni062B0631.fina" unicode="&#xfc76;" horiz-adv-x="1447" arabic-form="final" 
d="M1434 0q-164 0 -249 64.5t-108 207.5l-53 342l-422 -14l-88 -96v-541q0 -190 -161.5 -333t-454.5 -214l-70 215q227 44 373.5 142t142.5 202l-22 588l219 221l565 17l70 -51l51 -404q9 -75 55.5 -105t155.5 -30h12q16 0 22.5 -38.5t6.5 -68.5q0 -21 -8.5 -62.5
t-20.5 -41.5h-16zM877 1399v172l192 8v-180h-192zM1004 1237l286 -135l-645 -17v152h359zM942 1094v143h313l45 -27v-108z" />
    <glyph glyph-name="uni062B0632.fina" unicode="&#xfc77;" horiz-adv-x="1529" arabic-form="final" 
d="M1434 0q-164 0 -249 64.5t-108 207.5l-53 342l-422 -14l-88 -96v-541q0 -190 -161.5 -333t-454.5 -214l-70 215q227 44 373.5 142t142.5 202l-22 588l219 221l565 17l70 -51l51 -404q9 -75 55.5 -105t155.5 -30h12q16 0 22.5 -38.5t6.5 -68.5q0 -21 -8.5 -62.5
t-20.5 -41.5h-16zM240 1014v194l219 11v-205h-219zM877 1399v172l192 8v-180h-192zM1004 1237l286 -135l-645 -17v152h359zM942 1094v143h313l45 -27v-108zM1530 211q13 0 22 -32.5t9 -72.5q0 -41 -9 -73.5t-22 -32.5h-84v211h84z" />
    <glyph glyph-name="uni062B0646.fina" unicode="&#xfc79;" horiz-adv-x="2340" arabic-form="final" 
d="M631 680v194l219 11v-205h-219zM1696 1395v172l192 8v-180h-192zM1823 1233l286 -135l-645 -17v152h359zM1761 1090v143h314l45 -27v-108zM2300 0q-160 0 -244 65.5t-106 206.5l-52 342l-425 -14l-87 -90l5 -502q2 -226 -193.5 -341.5t-579.5 -115.5q-125 0 -232 61.5
t-169.5 167t-62.5 228.5v590l186 6v-559q0 -120 79.5 -201.5t196.5 -81.5q301 0 455 72.5t148 210.5l-25 518l221 221l563 17l72 -51l51 -404q9 -76 55 -105.5t154 -29.5h31q9 0 17.5 -31.5t11.5 -75.5q1 -30 -9.5 -67t-19.5 -37h-41z" />
    <glyph glyph-name="uni062B064A.fina" unicode="&#xfc7b;" horiz-adv-x="2033" arabic-form="final" 
d="M1016 1516v172l192 8v-180h-192zM1143 1354l287 -135l-646 -17v152h359zM1081 1210v144h314l45 -27v-108zM2036 0q-160 0 -263 74t-229 280l-162 264q-36 57 -80.5 83t-109.5 26h-240l-133 -113l-12 -329q-1 -55 22.5 -77t81.5 -22h353q97 0 138.5 -37t41.5 -114v-78
q0 -230 -202.5 -341.5t-620.5 -111.5q-189 0 -328 135.5t-139 319.5v592l186 6v-563q0 -119 79 -199t197 -80q283 -5 460.5 41.5t209.5 134.5q8 21 8 76q0 28 -13 37.5t-48 9.5h-383q-111 0 -159 47.5t-48 159.5v447l266 237h322q116 0 187.5 -42.5t129.5 -147.5l131 -238
q80 -145 160.5 -205.5t194.5 -60.5q17 0 23.5 -22t6.5 -85q0 -23 -7.5 -63.5t-20.5 -40.5z" />
    <glyph glyph-name="uni06460631.fina" unicode="&#xfc8a;" horiz-adv-x="1447" arabic-form="final" 
d="M836 1094v194l219 10v-204h-219zM1434 0q-164 0 -249 64.5t-108 207.5l-53 342l-422 -14l-88 -96v-541q0 -190 -161.5 -333t-454.5 -214l-70 215q227 44 373.5 142t142.5 202l-22 588l219 221l565 17l70 -51l51 -404q9 -75 55.5 -105t155.5 -30h12q16 0 22.5 -38.5
t6.5 -68.5q0 -21 -8.5 -62.5t-20.5 -41.5h-16z" />
    <glyph glyph-name="uni06460632.fina" unicode="&#xfc8b;" horiz-adv-x="1447" arabic-form="final" 
d="M1434 0q-164 0 -249 64.5t-108 207.5l-53 342l-422 -14l-88 -96v-541q0 -190 -161.5 -333t-454.5 -214l-70 215q227 44 373.5 142t142.5 202l-22 588l219 221l565 17l70 -51l51 -404q9 -75 55.5 -105t155.5 -30h12q16 0 22.5 -38.5t6.5 -68.5q0 -21 -8.5 -62.5
t-20.5 -41.5h-16zM836 1094v194l219 10v-204h-219zM301 1024v195l219 10v-205h-219z" />
    <glyph glyph-name="uni06460646.fina" unicode="&#xfc8d;" horiz-adv-x="2340" arabic-form="final" 
d="M1599 1094v194l220 10v-204h-220zM631 680v194l219 11v-205h-219zM2300 0q-160 0 -244 65.5t-106 206.5l-52 342l-425 -14l-87 -90l5 -502q2 -226 -193.5 -341.5t-579.5 -115.5q-125 0 -232 61.5t-169.5 167t-62.5 228.5v590l186 6v-559q0 -120 79.5 -201.5t196.5 -81.5
q301 0 455 72.5t148 210.5l-25 518l221 221l563 17l72 -51l51 -404q9 -76 55 -105.5t154 -29.5h31q9 0 17.5 -31.5t11.5 -75.5q1 -30 -9.5 -67t-19.5 -37h-41z" />
    <glyph glyph-name="uni0646064A.fina" unicode="&#xfc8f;" horiz-adv-x="2033" arabic-form="final" 
d="M1219 1202h-220v205l220 -10v-195zM2036 0q-160 0 -263 74t-229 280l-162 264q-36 57 -80.5 83t-109.5 26h-240l-133 -113l-12 -329q-1 -55 22.5 -77t81.5 -22h353q97 0 138.5 -37t41.5 -114v-78q0 -230 -202.5 -341.5t-620.5 -111.5q-189 0 -328 135.5t-139 319.5v592
l186 6v-563q0 -119 79 -199t197 -80q283 -5 460.5 41.5t209.5 134.5q8 21 8 76q0 28 -13 37.5t-48 9.5h-383q-111 0 -159 47.5t-48 159.5v447l266 237h322q116 0 187.5 -42.5t129.5 -147.5l131 -238q80 -145 160.5 -205.5t194.5 -60.5q17 0 23.5 -22t6.5 -85
q0 -23 -7.5 -63.5t-20.5 -40.5z" />
    <glyph glyph-name="uni064A0631.fina" unicode="&#xfc91;" horiz-adv-x="1531" arabic-form="final" 
d="M1434 0q-164 0 -249 64.5t-108 207.5l-53 342l-422 -14l-88 -96v-541q0 -190 -161.5 -333t-454.5 -214l-70 215q227 44 373.5 142t142.5 202l-22 588l219 221l565 17l70 -51l51 -404q9 -75 55.5 -105t155.5 -30h12q16 0 22.5 -38.5t6.5 -68.5q0 -21 -8.5 -62.5
t-20.5 -41.5h-16zM1012 -307l286 -135l-645 -17v152h359zM950 -451v144h314l45 -27v-108zM1532 211q13 0 22 -32.5t9 -72.5q0 -41 -9 -73.5t-22 -32.5h-84v211h84z" />
    <glyph glyph-name="uni064A0632.fina" unicode="&#xfc92;" horiz-adv-x="1531" arabic-form="final" 
d="M1434 0q-164 0 -249 64.5t-108 207.5l-53 342l-422 -14l-88 -96v-541q0 -190 -161.5 -333t-454.5 -214l-70 215q227 44 373.5 142t142.5 202l-22 588l219 221l565 17l70 -51l51 -404q9 -75 55.5 -105t155.5 -30h12q16 0 22.5 -38.5t6.5 -68.5q0 -21 -8.5 -62.5
t-20.5 -41.5h-16zM1012 -307l286 -135l-645 -17v152h359zM950 -451v144h314l45 -27v-108zM1532 211q13 0 22 -32.5t9 -72.5q0 -41 -9 -73.5t-22 -32.5h-84v211h84zM293 1014v194l219 11v-205h-219z" />
    <glyph glyph-name="uni064A0646.fina" unicode="&#xfc94;" horiz-adv-x="2340" arabic-form="final" 
d="M2300 0q-160 0 -244 65.5t-106 206.5l-52 342l-425 -14l-87 -90l5 -502q2 -226 -193.5 -341.5t-579.5 -115.5q-125 0 -232 61.5t-169.5 167t-62.5 228.5v590l186 6v-559q0 -120 79.5 -201.5t196.5 -81.5q301 0 455 72.5t148 210.5l-25 518l221 221l563 17l72 -51l51 -404
q9 -76 55 -105.5t154 -29.5h31q9 0 17.5 -31.5t11.5 -75.5q1 -30 -9.5 -67t-19.5 -37h-41zM631 680v194l219 11v-205h-219zM1870 -287l287 -135l-646 -16v151h359zM1808 -430v143h314l45 -26v-109z" />
    <glyph glyph-name="uni064A064A.fina" unicode="&#xfc96;" horiz-adv-x="2033" arabic-form="final" 
d="M2036 0q-160 0 -263 74t-229 280l-162 264q-36 57 -80.5 83t-109.5 26h-240l-133 -113l-12 -329q-1 -55 22.5 -77t81.5 -22h353q97 0 138.5 -37t41.5 -114v-78q0 -230 -202.5 -341.5t-620.5 -111.5q-189 0 -328 135.5t-139 319.5v592l186 6v-563q0 -119 79 -199t197 -80
q283 -5 460.5 41.5t209.5 134.5q8 21 8 76q0 28 -13 37.5t-48 9.5h-383q-111 0 -159 47.5t-48 159.5v447l266 237h322q116 0 187.5 -42.5t129.5 -147.5l131 -238q80 -145 160.5 -205.5t194.5 -60.5q17 0 23.5 -22t6.5 -85q0 -23 -7.5 -63.5t-20.5 -40.5zM1671 -453l287 -135
l-645 -16v151h358zM1610 -596v143h313l45 -26v-109z" />
    <glyph glyph-name="uni0633064A" unicode="&#xfcfc;" horiz-adv-x="3254" arabic-form="isolated" 
d="M2636 0q-101 0 -177 42t-102 112q-43 -70 -125 -112t-180 -42q-167 0 -271.5 71.5t-228.5 272.5l-153 250q-43 71 -86 101t-101 30l-260 2l-133 -115l-12 -327q-1 -55 22.5 -77t81.5 -22h355q93 0 136 -36t42 -115q0 -18 -1 -57.5t-1 -57.5q-3 -206 -210 -311t-611 -105
q-125 0 -232.5 61.5t-171 166.5t-63.5 227v592l186 6v-563q0 -119 79 -199t197 -80q261 0 447 49t223 127q8 18 8 74q0 29 -15 38t-65 9h-372q-106 0 -151.5 48.5t-45.5 160.5v447l264 237h322q113 0 183 -39t122 -131l139 -243q86 -152 168.5 -216.5t196.5 -64.5
q91 0 153 37t72 104l68 410l180 4l-68 -420q-9 -54 41.5 -94.5t124.5 -40.5h90q109 0 170 38t58 105l-27 482l199 16v-526q0 -154 -101.5 -240t-281.5 -86h-82z" />
    <glyph glyph-name="uni0634064A" unicode="&#xfcfe;" horiz-adv-x="3254" arabic-form="isolated" 
d="M2296 1317v172l192 8v-180h-192zM2423 1155l287 -135l-646 -16v151h359zM2361 1012v143h314l45 -27v-108zM2636 0q-101 0 -177 42t-102 112q-43 -70 -125 -112t-180 -42q-167 0 -271.5 71.5t-228.5 272.5l-153 250q-43 71 -86 101t-101 30l-260 2l-133 -115l-12 -327
q-1 -55 22.5 -77t81.5 -22h355q93 0 136 -36t42 -115q0 -18 -1 -57.5t-1 -57.5q-3 -206 -210 -311t-611 -105q-125 0 -232.5 61.5t-171 166.5t-63.5 227v592l186 6v-563q0 -119 79 -199t197 -80q261 0 447 49t223 127q8 18 8 74q0 29 -15 38t-65 9h-372q-106 0 -151.5 48.5
t-45.5 160.5v447l264 237h322q113 0 183 -39t122 -131l139 -243q86 -152 168.5 -216.5t196.5 -64.5q91 0 153 37t72 104l68 410l180 4l-68 -420q-9 -54 41.5 -94.5t124.5 -40.5h90q109 0 170 38t58 105l-27 482l199 16v-526q0 -154 -101.5 -240t-281.5 -86h-82z" />
    <glyph glyph-name="uni0635064A" unicode="&#xfd06;" horiz-adv-x="3084" arabic-form="isolated" 
d="M2040 0q-159 0 -262 72.5t-226 271.5l-176 285q-60 96 -164 96l-256 2l-137 -117l-12 -325q-1 -55 22.5 -77t81.5 -22h371q162 0 162 -151v-78q0 -229 -203.5 -341t-619.5 -112q-125 0 -232.5 61.5t-171 166.5t-63.5 227v592l186 6v-563q0 -119 79 -199t197 -80
q605 0 670 176q8 21 8 76q0 27 -12.5 37t-48.5 10h-383q-111 0 -158 47.5t-47 159.5v447l264 237h322q115 0 186 -42.5t131 -147.5l107 -189q68 -121 137 -190l195 301q82 126 142.5 180t145.5 74q122 29 416 29l240 -215v-426q0 -120 -81.5 -199.5t-201.5 -79.5h-608z
M2630 211q57 0 99 42.5t40 98.5l-10 271l-133 116q-140 0 -254 -24q-81 -17 -148 -62t-108 -110l-185 -285q71 -47 183 -47h516z" />
    <glyph glyph-name="uni0636064A" unicode="&#xfd08;" horiz-adv-x="3084" arabic-form="isolated" 
d="M2388 1167v195l219 10v-205h-219zM2040 0q-159 0 -262 72.5t-226 271.5l-176 285q-60 96 -164 96l-256 2l-137 -117l-12 -325q-1 -55 22.5 -77t81.5 -22h371q162 0 162 -151v-78q0 -229 -203.5 -341t-619.5 -112q-125 0 -232.5 61.5t-171 166.5t-63.5 227v592l186 6v-563
q0 -119 79 -199t197 -80q605 0 670 176q8 21 8 76q0 27 -12.5 37t-48.5 10h-383q-111 0 -158 47.5t-47 159.5v447l264 237h322q115 0 186 -42.5t131 -147.5l107 -189q68 -121 137 -190l195 301q82 126 142.5 180t145.5 74q122 29 416 29l240 -215v-426q0 -120 -81.5 -199.5
t-201.5 -79.5h-608zM2630 211q57 0 99 42.5t40 98.5l-10 271l-133 116q-140 0 -254 -24q-81 -17 -148 -62t-108 -110l-185 -285q71 -47 183 -47h516z" />
    <glyph glyph-name="uni06340631" unicode="&#xfd0d;" horiz-adv-x="2652" arabic-form="isolated" 
d="M1712 1317v172l193 8v-180h-193zM1839 1155l287 -135l-645 -16v151h358zM1778 1012v143h313l45 -27v-108zM2021 0q-92 0 -166.5 43t-99.5 111q-43 -70 -131.5 -112t-193.5 -42q-181 0 -271.5 69.5t-124.5 233.5l-63 311l-371 -34l-88 -76v-541q0 -192 -160.5 -334
t-455.5 -213l-68 215q221 41 369.5 140.5t144.5 203.5l-23 584l226 205l506 41l73 -55l64 -375q15 -93 65 -128.5t166 -35.5q95 0 164.5 40t79.5 101l68 410l180 4l-68 -420q-9 -55 40 -95t126 -40h80q114 0 177.5 38.5t60.5 104.5l-25 484l197 14v-526
q0 -157 -102.5 -241.5t-291.5 -84.5h-84z" />
    <glyph glyph-name="uni06330631" unicode="&#xfd0e;" horiz-adv-x="2652" arabic-form="isolated" 
d="M2021 0q-92 0 -166.5 43t-99.5 111q-43 -70 -131.5 -112t-193.5 -42q-181 0 -271.5 69.5t-124.5 233.5l-63 311l-371 -34l-88 -76v-541q0 -192 -160.5 -334t-455.5 -213l-68 215q221 41 369.5 140.5t144.5 203.5l-23 584l226 205l506 41l73 -55l64 -375q15 -93 65 -128.5
t166 -35.5q95 0 164.5 40t79.5 101l68 410l180 4l-68 -420q-9 -55 40 -95t126 -40h80q114 0 177.5 38.5t60.5 104.5l-25 484l197 14v-526q0 -157 -102.5 -241.5t-291.5 -84.5h-84z" />
    <glyph glyph-name="uni06350631" unicode="&#xfd0f;" horiz-adv-x="2498" arabic-form="isolated" 
d="M545 764l506 39l73 -53l56 -299q15 -72 30 -107l213 328q74 115 135.5 160.5t163.5 64.5q138 23 381 23l242 -215v-426q0 -120 -82.5 -199.5t-200.5 -79.5h-632q-180 0 -272 70.5t-124 232.5l-63 311l-367 -34l-92 -82v-535q0 -191 -159 -332.5t-457 -214.5l-68 215
q227 44 373 142t141 202l-23 584zM2042 211q56 0 98 42t41 99l-10 273l-129 116q-142 0 -275 -30q-102 -23 -140.5 -50t-96.5 -116l-189 -289q48 -45 183 -45h518z" />
    <glyph glyph-name="uni06360631" unicode="&#xfd10;" horiz-adv-x="2498" arabic-form="isolated" 
d="M1769 1147v194l220 11v-205h-220zM545 764l506 39l73 -53l56 -299q15 -72 30 -107l213 328q74 115 135.5 160.5t163.5 64.5q138 23 381 23l242 -215v-426q0 -120 -82.5 -199.5t-200.5 -79.5h-632q-180 0 -272 70.5t-124 232.5l-63 311l-367 -34l-92 -82v-535
q0 -191 -159 -332.5t-457 -214.5l-68 215q227 44 373 142t141 202l-23 584zM2042 211q56 0 98 42t41 99l-10 273l-129 116q-142 0 -275 -30q-102 -23 -140.5 -50t-96.5 -116l-189 -289q48 -45 183 -45h518z" />
    <glyph glyph-name="uni0633064A.fina" unicode="&#xfd18;" horiz-adv-x="3330" arabic-form="final" 
d="M2636 0q-101 0 -177 42t-102 112q-44 -71 -126.5 -112.5t-178.5 -41.5q-167 0 -271.5 71.5t-228.5 272.5l-153 250q-42 70 -85 100.5t-102 30.5l-260 2l-133 -115l-12 -327q-1 -55 22.5 -77t81.5 -22h355q93 0 135.5 -36t42.5 -115q0 -78 -2 -115q-30 -416 -821 -416
q-123 0 -230.5 60.5t-172 166t-64.5 228.5v592l186 6v-563q0 -119 79 -199t197 -80q291 0 463 45t207 131q8 20 8 74q0 29 -15 38t-65 9h-372q-106 0 -151.5 48.5t-45.5 160.5v447l264 237h322q113 0 183 -39t122 -131l139 -243q88 -154 170.5 -217.5t194.5 -63.5
q94 0 154.5 37.5t70.5 103.5l68 410l180 4l-68 -420q-9 -54 41 -94.5t125 -40.5h90q106 0 167.5 38.5t58.5 104.5l-19 467l191 10v-505q0 -155 -100 -240.5t-281 -85.5h-82zM3228 0q-120 0 -186 101t-68 286h125q2 -85 38 -130.5t103 -45.5h90q16 0 23.5 -42t7.5 -71
q0 -30 -9.5 -64t-21.5 -34h-102z" />
    <glyph glyph-name="uni0634064A.fina" unicode="&#xfd1a;" horiz-adv-x="3330" arabic-form="final" 
d="M2296 1317v172l192 8v-180h-192zM2423 1155l287 -135l-646 -16v151h359zM2361 1012v143h314l45 -27v-108zM2636 0q-101 0 -177 42t-102 112q-44 -71 -126.5 -112.5t-178.5 -41.5q-167 0 -271.5 71.5t-228.5 272.5l-153 250q-42 70 -85 100.5t-102 30.5l-260 2l-133 -115
l-12 -327q-1 -55 22.5 -77t81.5 -22h355q93 0 135.5 -36t42.5 -115q0 -78 -2 -115q-30 -416 -821 -416q-123 0 -230.5 60.5t-172 166t-64.5 228.5v592l186 6v-563q0 -119 79 -199t197 -80q291 0 463 45t207 131q8 20 8 74q0 29 -15 38t-65 9h-372q-106 0 -151.5 48.5
t-45.5 160.5v447l264 237h322q113 0 183 -39t122 -131l139 -243q88 -154 170.5 -217.5t194.5 -63.5q94 0 154.5 37.5t70.5 103.5l68 410l180 4l-68 -420q-9 -54 41 -94.5t125 -40.5h90q106 0 167.5 38.5t58.5 104.5l-19 467l191 10v-505q0 -155 -100 -240.5t-281 -85.5h-82z
M3228 0q-120 0 -186 101t-68 286h125q2 -85 38 -130.5t103 -45.5h90q16 0 23.5 -42t7.5 -71q0 -30 -9.5 -64t-21.5 -34h-102z" />
    <glyph glyph-name="uni0635064A.fina" unicode="&#xfd22;" horiz-adv-x="3162" arabic-form="final" 
d="M3060 0q-120 0 -186 101t-68 286h125q2 -85 38 -130.5t103 -45.5h90q16 0 23.5 -42t7.5 -71q0 -30 -9.5 -64t-21.5 -34h-102zM2040 0q-159 0 -262 72.5t-226 271.5l-176 285q-60 96 -164 96l-256 2l-137 -117l-12 -325q-1 -55 22.5 -77t81.5 -22h371q162 0 162 -151v-78
q0 -229 -203.5 -341t-619.5 -112q-125 0 -232.5 61.5t-171 166.5t-63.5 227v592l186 6v-563q0 -119 79 -199t197 -80q605 0 670 176q8 21 8 76q0 27 -12.5 37t-48.5 10h-383q-111 0 -158 47.5t-47 159.5v447l264 237h322q115 0 186 -42.5t131 -147.5l107 -189
q68 -121 137 -190l195 301q82 126 142.5 180t145.5 74q122 29 416 29l240 -215v-426q0 -120 -81.5 -199.5t-201.5 -79.5h-608zM2630 211q57 0 99 42.5t40 98.5l-10 271l-133 116q-140 0 -254 -24q-81 -17 -148 -62t-108 -110l-185 -285q71 -47 183 -47h516z" />
    <glyph glyph-name="uni0636064A.fina" unicode="&#xfd24;" horiz-adv-x="3162" arabic-form="final" 
d="M2388 1167v195l219 10v-205h-219zM3060 0q-120 0 -186 101t-68 286h125q2 -85 38 -130.5t103 -45.5h90q16 0 23.5 -42t7.5 -71q0 -30 -9.5 -64t-21.5 -34h-102zM2040 0q-159 0 -262 72.5t-226 271.5l-176 285q-60 96 -164 96l-256 2l-137 -117l-12 -325q-1 -55 22.5 -77
t81.5 -22h371q162 0 162 -151v-78q0 -229 -203.5 -341t-619.5 -112q-125 0 -232.5 61.5t-171 166.5t-63.5 227v592l186 6v-563q0 -119 79 -199t197 -80q605 0 670 176q8 21 8 76q0 27 -12.5 37t-48.5 10h-383q-111 0 -158 47.5t-47 159.5v447l264 237h322q115 0 186 -42.5
t131 -147.5l107 -189q68 -121 137 -190l195 301q82 126 142.5 180t145.5 74q122 29 416 29l240 -215v-426q0 -120 -81.5 -199.5t-201.5 -79.5h-608zM2630 211q57 0 99 42.5t40 98.5l-10 271l-133 116q-140 0 -254 -24q-81 -17 -148 -62t-108 -110l-185 -285q71 -47 183 -47
h516z" />
    <glyph glyph-name="uni06340631.fina" unicode="&#xfd29;" horiz-adv-x="2729" arabic-form="final" 
d="M2021 0q-92 0 -166.5 43t-99.5 111q-43 -69 -131.5 -111.5t-193.5 -42.5q-181 0 -271.5 69.5t-124.5 233.5l-63 311l-371 -34l-88 -76v-541q0 -192 -160.5 -334t-455.5 -213l-68 215q221 41 369.5 140.5t144.5 203.5l-23 584l226 205l506 41l73 -55l64 -375
q15 -93 65 -128.5t166 -35.5q93 0 163.5 39t80.5 102l68 410l180 4l-68 -420q-9 -57 39.5 -96t126.5 -39h80q115 0 178 37.5t60 105.5l-19 467l191 10v-505q0 -156 -101.5 -241t-292.5 -85h-84zM2628 0q-120 0 -186 101t-68 286h125q2 -85 38 -130.5t103 -45.5h90
q16 0 23.5 -42t7.5 -71q0 -30 -9.5 -64t-21.5 -34h-102zM1716 1317v172l193 8v-180h-193zM1843 1155l287 -135l-645 -16v151h358zM1782 1012v143h313l45 -27v-108z" />
    <glyph glyph-name="uni06330631.fina" unicode="&#xfd2a;" horiz-adv-x="2729" arabic-form="final" 
d="M2021 0q-92 0 -166.5 43t-99.5 111q-43 -69 -131.5 -111.5t-193.5 -42.5q-181 0 -271.5 69.5t-124.5 233.5l-63 311l-371 -34l-88 -76v-541q0 -192 -160.5 -334t-455.5 -213l-68 215q221 41 369.5 140.5t144.5 203.5l-23 584l226 205l506 41l73 -55l64 -375
q15 -93 65 -128.5t166 -35.5q93 0 163.5 39t80.5 102l68 410l180 4l-68 -420q-9 -57 39.5 -96t126.5 -39h80q115 0 178 37.5t60 105.5l-19 467l191 10v-505q0 -156 -101.5 -241t-292.5 -85h-84zM2628 0q-120 0 -186 101t-68 286h125q2 -85 38 -130.5t103 -45.5h90
q16 0 23.5 -42t7.5 -71q0 -30 -9.5 -64t-21.5 -34h-102z" />
    <glyph glyph-name="uni06350631.fina" unicode="&#xfd2b;" horiz-adv-x="2576" arabic-form="final" 
d="M2474 0q-120 0 -186 101t-68 286h125q2 -85 38 -130.5t103 -45.5h90q16 0 23.5 -42t7.5 -71q0 -30 -9.5 -64t-21.5 -34h-102zM545 764l506 39l73 -53l56 -299q15 -72 30 -107l213 328q74 115 135.5 160.5t163.5 64.5q138 23 381 23l242 -215v-426q0 -120 -82.5 -199.5
t-200.5 -79.5h-632q-180 0 -272 70.5t-124 232.5l-63 311l-367 -34l-92 -82v-535q0 -191 -159 -332.5t-457 -214.5l-68 215q227 44 373 142t141 202l-23 584zM2042 211q56 0 98 42t41 99l-10 273l-129 116q-142 0 -275 -30q-102 -23 -140.5 -50t-96.5 -116l-189 -289
q48 -45 183 -45h518z" />
    <glyph glyph-name="uni06360631.fina" unicode="&#xfd2c;" horiz-adv-x="2576" arabic-form="final" 
d="M2474 0q-120 0 -186 101t-68 286h125q2 -85 38 -130.5t103 -45.5h90q16 0 23.5 -42t7.5 -71q0 -30 -9.5 -64t-21.5 -34h-102zM545 764l506 39l73 -53l56 -299q15 -72 30 -107l213 328q74 115 135.5 160.5t163.5 64.5q138 23 381 23l242 -215v-426q0 -120 -82.5 -199.5
t-200.5 -79.5h-632q-180 0 -272 70.5t-124 232.5l-63 311l-367 -34l-92 -82v-535q0 -191 -159 -332.5t-457 -214.5l-68 215q227 44 373 142t141 202l-23 584zM2042 211q56 0 98 42t41 99l-10 273l-129 116q-142 0 -275 -30q-102 -23 -140.5 -50t-96.5 -116l-189 -289
q48 -45 183 -45h518zM1769 1147v194l220 11v-205h-220z" />
    <glyph glyph-name="uni0624.fina" unicode="&#x624;" horiz-adv-x="1259" arabic-form="final" 
d="M1262 211q11 0 19.5 -32.5t8.5 -72.5t-9 -73t-19 -33h-261v211h261zM434 -344q173 38 273 81.5t138 90.5t36 109l-2 57h-469q-116 0 -186 72.5t-70 193.5v461l252 213h350q121 0 201.5 -76t80.5 -196l-2 -734q0 -191 -153.5 -312.5t-474.5 -184.5l-166 -33l-47 211z
M856 641q-3 55 -42 91t-95 36h-260l-135 -117l-13 -319q-1 -63 38.5 -95t105.5 -32h419zM463 1219l-35 88l76 41q-24 3 -39 34l-45 86q-19 36 -19 62q0 20 15 63q4 8 12.5 35t15.5 45l111 51q42 20 82 7t65 -52l15 -30l-62 -29q-37 50 -84 27l-67 -37q-16 -50 -17 -56
q-4 -12 -4 -26q0 -22 17 -55l30 -56q17 -31 38 -34t59 20l194 115l43 -84z" />
    <glyph glyph-name="uni0626.init" unicode="&#x626;" horiz-adv-x="845" arabic-form="initial" 
d="M-2 0v211h381q58 0 101 37t40 90l-24 500l196 14v-565q0 -124 -83.5 -205.5t-209.5 -81.5h-401zM186 1139l-34 88l75 41q-23 3 -39 35l-45 86q-18 35 -18 61q0 23 14 63q4 9 13 35.5t16 44.5l111 52q42 19 82 6t65 -52l14 -30l-61 -29q-37 50 -84 27l-68 -37
q-14 -45 -16 -55q-4 -12 -4 -27q0 -24 16 -55l31 -56q17 -31 37.5 -34t58.5 20l195 115l43 -84z" />
    <glyph glyph-name="uni0626.medi" unicode="&#x626;" horiz-adv-x="886" arabic-form="medial" 
d="M760 0q-66 0 -124.5 40.5t-78.5 100.5q-23 -60 -85.5 -100.5t-131.5 -40.5h-342v211h330q59 0 97 37.5t38 93.5v422l178 6v-428q0 -56 37 -93.5t94 -37.5h117q29 0 29 -113q0 -31 -8.5 -64.5t-20.5 -33.5h-129zM258 1057l-35 88l76 41q-23 3 -39 35l-45 86q-18 35 -18 61
q0 24 14 64q4 9 13 35t16 44l110 52q42 20 82.5 7t65.5 -52l14 -31l-61 -29q-37 50 -84 27l-68 -37q-14 -45 -16 -55q-4 -12 -4 -27q0 -24 16 -55l31 -56q17 -31 37.5 -34t58.5 20l194 115l43 -84z" />
    <glyph glyph-name="uni0627.fina" unicode="&#x627;" horiz-adv-x="610" arabic-form="final" 
d="M154 1417l198 19l4 -1092q0 -57 37.5 -95t91.5 -38h125q31 0 31 -109q0 -102 -31 -102h-141q-127 0 -202.5 84.5t-80.5 232.5z" />
    <glyph glyph-name="uni0628.fina" unicode="&#x628;" horiz-adv-x="2050" arabic-form="final" 
d="M438 0q-126 0 -205 83.5t-79 211.5v461l186 8v-430q0 -54 28.5 -88.5t75.5 -34.5h1063q58 0 101.5 37t40.5 90l-27 500l199 14v-565q0 -125 -84.5 -206t-208.5 -81h-1090zM1948 0q-120 0 -186 101t-68 286h125q2 -85 38 -130.5t103 -45.5h90q16 0 23.5 -42t7.5 -71
q0 -30 -9.5 -64t-21.5 -34h-102zM899 -502v195l219 10v-205h-219z" />
    <glyph glyph-name="uni0628.init" unicode="&#x628;" horiz-adv-x="845" arabic-form="initial" 
d="M-2 0v211h381q58 0 101 37t40 90l-24 500l196 14v-565q0 -124 -83.5 -205.5t-209.5 -81.5h-401zM150 -502v195l219 10v-205h-219z" />
    <glyph glyph-name="uni0628.medi" unicode="&#x628;" horiz-adv-x="886" arabic-form="medial" 
d="M760 0q-66 0 -124.5 40.5t-78.5 100.5q-23 -60 -85.5 -100.5t-131.5 -40.5h-342v211h330q59 0 97 37.5t38 93.5v422l178 6v-428q0 -56 37 -93.5t94 -37.5h117q29 0 29 -113q0 -31 -8.5 -64.5t-20.5 -33.5h-129zM221 -502v195l219 10v-205h-219z" />
    <glyph glyph-name="uni0629.fina" unicode="&#x629;" horiz-adv-x="1306" arabic-form="final" 
d="M1225 0q-131 0 -201.5 55t-95.5 178q-2 -6 -7.5 -18t-7.5 -18q-48 -117 -182 -117h-297q-111 0 -194.5 86t-83.5 201q0 7 -0.5 50t0 63.5t2 61.5t5 66.5t10 55.5t15.5 51t31.5 48.5t56 59.5t60 55.5t64 55t46.5 39.5l332 57l-16 105l180 26l92 -755q15 -121 58.5 -158
t171.5 -37h43q10 0 20 -35t10 -72t-9.5 -70.5t-20.5 -33.5h-82zM713 272q108 0 131 86q3 11 9 33.5t9 34.5l-59 426l-279 -45q-15 -14 -58.5 -48.5t-75 -64t-44.5 -53.5q-8 -15 -13.5 -47.5t-7 -60t-3.5 -71t-3 -54.5q-3 -54 42 -95t108 -41h244zM659 1452l287 -135
l-645 -17v152h358zM598 1309v143h313l45 -27v-108z" />
    <glyph glyph-name="uni062A.fina" unicode="&#x62a;" horiz-adv-x="2050" arabic-form="final" 
d="M438 0q-126 0 -205 83.5t-79 211.5v461l186 8v-430q0 -54 28.5 -88.5t75.5 -34.5h1063q58 0 101.5 37t40.5 90l-27 500l199 14v-565q0 -125 -84.5 -206t-208.5 -81h-1090zM1948 0q-120 0 -186 101t-68 286h125q2 -85 38 -130.5t103 -45.5h90q16 0 23.5 -42t7.5 -71
q0 -30 -9.5 -64t-21.5 -34h-102zM1028 1077l287 -135l-645 -16v151h358zM967 934v143h313l45 -26v-109z" />
    <glyph glyph-name="uni062A.init" unicode="&#x62a;" horiz-adv-x="845" arabic-form="initial" 
d="M-2 0v211h381q58 0 101 37t40 90l-24 500l196 14v-565q0 -124 -83.5 -205.5t-209.5 -81.5h-401zM383 1249l287 -135l-645 -16v151h358zM322 1106v143h313l45 -26v-109z" />
    <glyph glyph-name="uni062A.medi" unicode="&#x62a;" horiz-adv-x="886" arabic-form="medial" 
d="M760 0q-66 0 -124.5 40.5t-78.5 100.5q-23 -60 -85.5 -100.5t-131.5 -40.5h-342v211h330q59 0 97 37.5t38 93.5v422l178 6v-428q0 -56 37 -93.5t94 -37.5h117q29 0 29 -113q0 -31 -8.5 -64.5t-20.5 -33.5h-129zM455 1167l286 -135l-645 -16v151h359zM393 1024v143h314
l45 -26v-109z" />
    <glyph glyph-name="uni062B.fina" unicode="&#x62b;" horiz-adv-x="2050" arabic-form="final" 
d="M438 0q-126 0 -205 83.5t-79 211.5v461l186 8v-430q0 -54 28.5 -88.5t75.5 -34.5h1063q58 0 101.5 37t40.5 90l-27 500l199 14v-565q0 -125 -84.5 -206t-208.5 -81h-1090zM1948 0q-120 0 -186 101t-68 286h125q2 -85 38 -130.5t103 -45.5h90q16 0 23.5 -42t7.5 -71
q0 -30 -9.5 -64t-21.5 -34h-102zM901 1239v172l193 8v-180h-193zM1028 1077l287 -135l-645 -16v151h358zM967 934v143h313l45 -26v-109z" />
    <glyph glyph-name="uni062B.init" unicode="&#x62b;" horiz-adv-x="845" arabic-form="initial" 
d="M-2 0v211h381q58 0 101 37t40 90l-24 500l196 14v-565q0 -124 -83.5 -205.5t-209.5 -81.5h-401zM256 1411v172l193 8v-180h-193zM383 1249l287 -135l-645 -16v151h358zM322 1106v143h313l45 -26v-109z" />
    <glyph glyph-name="uni062B.medi" unicode="&#x62b;" horiz-adv-x="886" arabic-form="medial" 
d="M760 0q-66 0 -124.5 40.5t-78.5 100.5q-23 -60 -85.5 -100.5t-131.5 -40.5h-342v211h330q59 0 97 37.5t38 93.5v422l178 6v-428q0 -56 37 -93.5t94 -37.5h117q29 0 29 -113q0 -31 -8.5 -64.5t-20.5 -33.5h-129zM328 1329v172l192 8v-180h-192zM455 1167l286 -135
l-645 -16v151h359zM393 1024v143h314l45 -26v-109z" />
    <glyph glyph-name="uni062C.fina" unicode="&#x62c;" horiz-adv-x="1538" arabic-form="final" 
d="M739 -143v157l179 9v-166h-179zM1438 0q-163 0 -257.5 109t-105.5 299l121 120q13 -167 65.5 -242t155.5 -75h123q15 0 22 -42t7 -69q0 -22 -8 -61t-21 -39h-102zM584 -592q-190 0 -307 103t-119 272l-2 151q-3 192 62.5 283.5t250.5 151.5l557 178l-448 239
q-36 19 -70 19q-39 1 -71.5 -18.5t-49.5 -55.5l-65 -137l-154 63l80 174q35 76 107 120t161 44q74 0 148 -39l757 -393l-55 -182l-109 55l-696 -233q-73 -24 -114.5 -45t-67.5 -53.5t-35 -72t-10 -104.5l-2 -121q-1 -92 64 -155t157 -60l721 27l-31 -211h-659z" />
    <glyph glyph-name="uni062C.init" unicode="&#x62c;" horiz-adv-x="1550" arabic-form="initial" 
d="M-2 0v211h225q275 0 441 94l376 215l-479 250q-35 18 -69 18q-84 0 -121 -75l-64 -138l-153 58l73 174q32 78 105 124t162 46q75 0 147 -35l756 -379l-51 -182l-125 61l-424 -264q-156 -97 -296 -137.5t-321 -40.5h-182zM510 -502v195l219 10v-205h-219z" />
    <glyph glyph-name="uni062C.medi" unicode="&#x62c;" horiz-adv-x="1501" arabic-form="medial" 
d="M1401 0q-163 0 -257.5 109t-105.5 299l121 120q13 -167 65.5 -242t155.5 -75h123q29 0 29 -111q0 -100 -29 -100h-102zM-2 0v211h225q275 0 441 94l376 215l-479 250q-35 18 -69 18q-84 0 -121 -75l-64 -138l-153 58l73 174q32 78 105 124t162 46q75 0 147 -35l756 -379
l-51 -182l-125 61l-424 -264q-156 -97 -296 -137.5t-321 -40.5h-182zM510 -502v195l219 10v-205h-219z" />
    <glyph glyph-name="uni062D.fina" unicode="&#x62d;" horiz-adv-x="1538" arabic-form="final" 
d="M1438 0q-163 0 -257.5 109t-105.5 299l121 120q13 -167 65.5 -242t155.5 -75h123q15 0 22 -42t7 -69q0 -22 -8 -61t-21 -39h-102zM584 -592q-190 0 -307 103t-119 272l-2 151q-3 192 62.5 283.5t250.5 151.5l557 178l-448 239q-36 19 -70 19q-39 1 -71.5 -18.5
t-49.5 -55.5l-65 -137l-154 63l80 174q35 76 107 120t161 44q74 0 148 -39l757 -393l-55 -182l-109 55l-696 -233q-73 -24 -114.5 -45t-67.5 -53.5t-35 -72t-10 -104.5l-2 -121q-1 -92 64 -155t157 -60l721 27l-31 -211h-659z" />
    <glyph glyph-name="uni062D.init" unicode="&#x62d;" horiz-adv-x="1550" arabic-form="initial" 
d="M-2 0v211h225q275 0 441 94l376 215l-479 250q-35 18 -69 18q-84 0 -121 -75l-64 -138l-153 58l73 174q32 78 105 124t162 46q75 0 147 -35l756 -379l-51 -182l-125 61l-424 -264q-156 -97 -296 -137.5t-321 -40.5h-182z" />
    <glyph glyph-name="uni062D.medi" unicode="&#x62d;" horiz-adv-x="1501" arabic-form="medial" 
d="M1401 0q-163 0 -257.5 109t-105.5 299l121 120q13 -167 65.5 -242t155.5 -75h123q29 0 29 -111q0 -100 -29 -100h-102zM-2 0v211h225q275 0 441 94l376 215l-479 250q-35 18 -69 18q-84 0 -121 -75l-64 -138l-153 58l73 174q32 78 105 124t162 46q75 0 147 -35l756 -379
l-51 -182l-125 61l-424 -264q-156 -97 -296 -137.5t-321 -40.5h-182z" />
    <glyph glyph-name="uni062E.fina" unicode="&#x62e;" horiz-adv-x="1538" arabic-form="final" 
d="M1438 0q-163 0 -257.5 109t-105.5 299l121 120q13 -167 65.5 -242t155.5 -75h123q15 0 22 -42t7 -69q0 -22 -8 -61t-21 -39h-102zM584 -592q-190 0 -307 103t-119 272l-2 151q-3 192 62.5 283.5t250.5 151.5l557 178l-448 239q-36 19 -70 19q-39 1 -71.5 -18.5
t-49.5 -55.5l-65 -137l-154 63l80 174q35 76 107 120t161 44q74 0 148 -39l757 -393l-55 -182l-109 55l-696 -233q-73 -24 -114.5 -45t-67.5 -53.5t-35 -72t-10 -104.5l-2 -121q-1 -92 64 -155t157 -60l721 27l-31 -211h-659zM397 1243v195l219 10v-205h-219z" />
    <glyph glyph-name="uni062E.init" unicode="&#x62e;" horiz-adv-x="1550" arabic-form="initial" 
d="M-2 0v211h225q275 0 441 94l376 215l-479 250q-35 18 -69 18q-84 0 -121 -75l-64 -138l-153 58l73 174q32 78 105 124t162 46q75 0 147 -35l756 -379l-51 -182l-125 61l-424 -264q-156 -97 -296 -137.5t-321 -40.5h-182zM397 1233v194l219 11v-205h-219z" />
    <glyph glyph-name="uni062E.medi" unicode="&#x62e;" horiz-adv-x="1501" arabic-form="medial" 
d="M1401 0q-163 0 -257.5 109t-105.5 299l121 120q13 -167 65.5 -242t155.5 -75h123q29 0 29 -111q0 -100 -29 -100h-102zM-2 0v211h225q275 0 441 94l376 215l-479 250q-35 18 -69 18q-84 0 -121 -75l-64 -138l-153 58l73 174q32 78 105 124t162 46q75 0 147 -35l756 -379
l-51 -182l-125 61l-424 -264q-156 -97 -296 -137.5t-321 -40.5h-182zM397 1233v194l219 11v-205h-219z" />
    <glyph glyph-name="uni062F.fina" unicode="&#x62f;" horiz-adv-x="1359" arabic-form="final" 
d="M1362 0q-113 0 -188 36.5t-138 121.5q-32 -72 -100.5 -115t-151.5 -43h-344q-128 0 -207 78t-79 207v145l170 10v-104q0 -64 30 -94.5t95 -30.5h354q54 0 92 35t43 86l-55 145l-203 531l178 49l217 -611q51 -142 107.5 -188.5t179.5 -46.5q13 0 21 -35.5t8 -71.5
q0 -35 -8.5 -69.5t-20.5 -34.5z" />
    <glyph glyph-name="uni0630.fina" unicode="&#x630;" horiz-adv-x="1359" arabic-form="final" 
d="M1362 0q-113 0 -188 36.5t-138 121.5q-32 -72 -100.5 -115t-151.5 -43h-344q-128 0 -207 78t-79 207v145l170 10v-104q0 -64 30 -94.5t95 -30.5h354q54 0 92 35t43 86l-55 145l-203 531l178 49l217 -611q51 -142 107.5 -188.5t179.5 -46.5q13 0 21 -35.5t8 -71.5
q0 -35 -8.5 -69.5t-20.5 -34.5zM594 1325v195l219 10v-205h-219z" />
    <glyph glyph-name="uni0631.fina" unicode="&#x631;" horiz-adv-x="753" arabic-form="final" 
d="M696 0q-57 0 -108 27t-76 63v-156q0 -179 -158.5 -312.5t-455.5 -205.5l-70 215q225 44 372 141t144 199l-29 783l199 14v-424q5 -58 49.5 -95.5t112.5 -37.5h78q30 0 30 -111q0 -100 -30 -100h-58z" />
    <glyph glyph-name="uni0632.fina" unicode="&#x632;" horiz-adv-x="753" arabic-form="final" 
d="M696 0q-57 0 -108 27t-76 63v-156q0 -179 -158.5 -312.5t-455.5 -205.5l-70 215q225 44 372 141t144 199l-29 783l199 14v-424q5 -58 49.5 -95.5t112.5 -37.5h78q30 0 30 -111q0 -100 -30 -100h-58zM303 1063v194l219 11v-205h-219z" />
    <glyph glyph-name="uni0633.fina" unicode="&#x633;" horiz-adv-x="2904" arabic-form="final" 
d="M618 -449q-128 0 -234.5 61t-168 166t-61.5 230v590l186 8v-561q0 -127 85.5 -205t213.5 -78q272 0 428 76.5t152 206.5l-31 776l198 17l3 -467q10 -72 71 -116t148 -44q91 0 159 42.5t78 108.5l68 400l180 4l-70 -414q3 -59 51.5 -100t114.5 -41h88q109 0 168 37t58 104
l-15 463l193 10v-483q0 -56 36.5 -93.5t92.5 -37.5h96q8 0 13.5 -9t8 -24.5t4 -29t2.5 -29t1 -17.5q0 -14 -1.5 -34.5t-9 -44t-18.5 -23.5h-86q-75 0 -137.5 35.5t-97.5 97.5q-89 -133 -324 -133h-84q-78 0 -147 43.5t-95 110.5q-43 -68 -133 -111t-190 -43q-66 0 -129 30
t-92 74v-110q0 -220 -195 -331.5t-578 -111.5z" />
    <glyph glyph-name="uni0633.init" unicode="&#x633;" horiz-adv-x="1976" arabic-form="initial" 
d="M1333 0q-86 0 -158 43t-98 111q-45 -68 -134.5 -111t-188.5 -43q-101 0 -190 44t-118 108q-23 -72 -101 -112t-195 -40h-152v211h133q100 0 159.5 36t59.5 99v424l178 6v-426q2 -57 64.5 -98t148.5 -41q97 0 166.5 40t79.5 101l68 410l180 4l-68 -420q0 -58 53.5 -96.5
t114.5 -38.5h86q110 0 171 37.5t59 105.5l-27 484l199 14v-526q0 -158 -104 -242t-300 -84h-86z" />
    <glyph glyph-name="uni0633.medi" unicode="&#x633;" horiz-adv-x="2033" arabic-form="medial" 
d="M1946 0q-69 0 -126.5 36t-86.5 97q-29 -61 -115.5 -97t-200.5 -36h-82q-86 0 -159 43t-99 111q-47 -69 -136.5 -111.5t-186.5 -42.5q-101 0 -190 44t-118 108q-25 -72 -103.5 -112t-195.5 -40h-149v211h131q101 0 161 36t60 99v424l178 6v-426q1 -59 65 -99t152 -40
q93 0 162.5 39t79.5 102l68 410l180 4l-70 -420q3 -59 56.5 -97t115.5 -38h82q106 0 167 37t59 100l-15 467l193 10v-483q0 -57 36.5 -94t92.5 -37h84q28 0 28 -109q0 -55 -5.5 -78.5t-22.5 -23.5h-90z" />
    <glyph glyph-name="uni0634.fina" unicode="&#x634;" horiz-adv-x="2904" arabic-form="final" 
d="M618 -449q-128 0 -234.5 61t-168 166t-61.5 230v590l186 8v-561q0 -127 85.5 -205t213.5 -78q272 0 428 76.5t152 206.5l-31 776l198 17l3 -467q10 -72 71 -116t148 -44q91 0 159 42.5t78 108.5l68 400l180 4l-70 -414q3 -59 51.5 -100t114.5 -41h88q109 0 168 37t58 104
l-15 463l193 10v-483q0 -56 36.5 -93.5t92.5 -37.5h96q8 0 13.5 -9t8 -24.5t4 -29t2.5 -29t1 -17.5q0 -14 -1.5 -34.5t-9 -44t-18.5 -23.5h-86q-75 0 -137.5 35.5t-97.5 97.5q-89 -133 -324 -133h-84q-78 0 -147 43.5t-95 110.5q-43 -68 -133 -111t-190 -43q-66 0 -129 30
t-92 74v-110q0 -220 -195 -331.5t-578 -111.5zM1894 1411v172l193 8v-180h-193zM2021 1249l287 -135l-645 -16v151h358zM1960 1106v143h313l45 -26v-109z" />
    <glyph glyph-name="uni0634.init" unicode="&#x634;" horiz-adv-x="1976" arabic-form="initial" 
d="M1333 0q-86 0 -158 43t-98 111q-45 -68 -134.5 -111t-188.5 -43q-101 0 -190 44t-118 108q-23 -72 -101 -112t-195 -40h-152v211h133q100 0 159.5 36t59.5 99v424l178 6v-426q2 -57 64.5 -98t148.5 -41q97 0 166.5 40t79.5 101l68 410l180 4l-68 -420q0 -58 53.5 -96.5
t114.5 -38.5h86q110 0 171 37.5t59 105.5l-27 484l199 14v-526q0 -158 -104 -242t-300 -84h-86zM1071 1411v172l193 8v-180h-193zM1198 1249l287 -135l-645 -16v151h358zM1137 1106v143h313l45 -26v-109z" />
    <glyph glyph-name="uni0634.medi" unicode="&#x634;" horiz-adv-x="2033" arabic-form="medial" 
d="M1946 0q-69 0 -126.5 36t-86.5 97q-29 -61 -115.5 -97t-200.5 -36h-82q-86 0 -159 43t-99 111q-47 -69 -136.5 -111.5t-186.5 -42.5q-101 0 -190 44t-118 108q-25 -72 -103.5 -112t-195.5 -40h-149v211h131q101 0 161 36t60 99v424l178 6v-426q1 -59 65 -99t152 -40
q93 0 162.5 39t79.5 102l68 410l180 4l-70 -420q3 -59 56.5 -97t115.5 -38h82q106 0 167 37t59 100l-15 467l193 10v-483q0 -57 36.5 -94t92.5 -37h84q28 0 28 -109q0 -55 -5.5 -78.5t-22.5 -23.5h-90zM1071 1411v172l193 8v-180h-193zM1198 1249l287 -135l-645 -16v151h358
zM1137 1106v143h313l45 -26v-109z" />
    <glyph glyph-name="uni0635.fina" unicode="&#x635;" horiz-adv-x="2775" arabic-form="final" 
d="M2673 0q-120 0 -186 101t-68 286h125q2 -85 38 -130.5t103 -45.5h90q16 0 23.5 -42t7.5 -71q0 -30 -9.5 -64t-21.5 -34h-102zM618 -449q-123 0 -230 61t-170.5 167t-63.5 229v590l186 6v-559q0 -125 81 -204t206 -79q604 0 592 283l-31 776l198 17l3 -432l26 -52l230 346
q76 114 151.5 157t212.5 54q123 9 293 9l242 -215v-426q0 -120 -81.5 -199.5t-201.5 -79.5h-645q-61 0 -121.5 30.5t-103.5 82.5v-105q0 -226 -196 -341.5t-577 -115.5zM1542 258q59 -47 123 -47h576q57 0 100 43t39 98l-10 271l-127 118q-111 0 -183 -4q-120 -8 -186 -43.5
t-131 -132.5z" />
    <glyph glyph-name="uni0635.init" unicode="&#x635;" horiz-adv-x="1775" arabic-form="initial" 
d="M-2 0v211h162q60 0 97.5 37.5t37.5 97.5v426l178 4v-321q0 -8 -1 -29.5t-1 -30.5q3 -6 11.5 -20t11.5 -21l229 346q73 110 160.5 159.5t226.5 55.5q141 5 270 5l242 -215v-426q0 -120 -81.5 -199.5t-201.5 -79.5h-677q-75 0 -142 31.5t-110 87.5q-35 -56 -98 -87.5
t-138 -31.5h-176zM621 258q59 -47 116 -47h582q57 0 98.5 42t40.5 99l-10 273l-127 116q-110 0 -182 -4q-117 -6 -185.5 -43.5t-132.5 -132.5z" />
    <glyph glyph-name="uni0635.medi" unicode="&#x635;" horiz-adv-x="1851" arabic-form="medial" 
d="M1749 0q-120 0 -186 101t-68 286h125q2 -85 38 -130.5t103 -45.5h90q16 0 23.5 -42t7.5 -71q0 -30 -9.5 -64t-21.5 -34h-102zM-2 0v211h162q60 0 97.5 37.5t37.5 97.5v426l178 4v-321q0 -8 -1 -29.5t-1 -30.5q3 -6 11.5 -20t11.5 -21l229 346q73 110 160.5 159.5
t226.5 55.5q141 5 270 5l242 -215v-426q0 -120 -81.5 -199.5t-201.5 -79.5h-677q-75 0 -142 31.5t-110 87.5q-35 -56 -98 -87.5t-138 -31.5h-176zM621 258q59 -47 116 -47h582q57 0 98.5 42t40.5 99l-10 273l-127 116q-110 0 -182 -4q-117 -6 -185.5 -43.5t-132.5 -132.5z
" />
    <glyph glyph-name="uni0636.fina" unicode="&#x636;" horiz-adv-x="2775" arabic-form="final" 
d="M2673 0q-120 0 -186 101t-68 286h125q2 -85 38 -130.5t103 -45.5h90q16 0 23.5 -42t7.5 -71q0 -30 -9.5 -64t-21.5 -34h-102zM618 -449q-123 0 -230 61t-170.5 167t-63.5 229v590l186 6v-559q0 -125 81 -204t206 -79q604 0 592 283l-31 776l198 17l3 -432l26 -52l230 346
q76 114 151.5 157t212.5 54q123 9 293 9l242 -215v-426q0 -120 -81.5 -199.5t-201.5 -79.5h-645q-61 0 -121.5 30.5t-103.5 82.5v-105q0 -226 -196 -341.5t-577 -115.5zM1542 258q59 -47 123 -47h576q57 0 100 43t39 98l-10 271l-127 118q-111 0 -183 -4q-120 -8 -186 -43.5
t-131 -132.5zM2001 1165v195l219 10v-205h-219z" />
    <glyph glyph-name="uni0636.init" unicode="&#x636;" horiz-adv-x="1775" arabic-form="initial" 
d="M-2 0v211h162q60 0 97.5 37.5t37.5 97.5v426l178 4v-321q0 -8 -1 -29.5t-1 -30.5q3 -6 11.5 -20t11.5 -21l229 346q73 110 160.5 159.5t226.5 55.5q141 5 270 5l242 -215v-426q0 -120 -81.5 -199.5t-201.5 -79.5h-677q-75 0 -142 31.5t-110 87.5q-35 -56 -98 -87.5
t-138 -31.5h-176zM621 258q59 -47 116 -47h582q57 0 98.5 42t40.5 99l-10 273l-127 116q-110 0 -182 -4q-117 -6 -185.5 -43.5t-132.5 -132.5zM1069 1165v195l219 10v-205h-219z" />
    <glyph glyph-name="uni0636.medi" unicode="&#x636;" horiz-adv-x="1851" arabic-form="medial" 
d="M1749 0q-120 0 -186 101t-68 286h125q2 -85 38 -130.5t103 -45.5h90q16 0 23.5 -42t7.5 -71q0 -30 -9.5 -64t-21.5 -34h-102zM-2 0v211h162q60 0 97.5 37.5t37.5 97.5v426l178 4v-321q0 -8 -1 -29.5t-1 -30.5q3 -6 11.5 -20t11.5 -21l229 346q73 110 160.5 159.5
t226.5 55.5q141 5 270 5l242 -215v-426q0 -120 -81.5 -199.5t-201.5 -79.5h-677q-75 0 -142 31.5t-110 87.5q-35 -56 -98 -87.5t-138 -31.5h-176zM621 258q59 -47 116 -47h582q57 0 98.5 42t40.5 99l-10 273l-127 116q-110 0 -182 -4q-117 -6 -185.5 -43.5t-132.5 -132.5z
M1069 1165v195l219 10v-205h-219z" />
    <glyph glyph-name="uni0637.fina" unicode="&#x637;" horiz-adv-x="1738" arabic-form="final" 
d="M180 0l-26 231l165 -2l89 138l-29 1054l199 15l6 -734l-21 -151l125 184q65 95 147.5 134t243.5 46q102 5 189 5l239 -215v-420q0 -121 -86.5 -203t-208.5 -82h-1032zM1206 211q57 -1 99.5 42t40.5 99l-11 273l-129 116q-100 0 -166 -4q-125 -7 -190.5 -44.5
t-130.5 -135.5l-217 -328zM1636 0q-120 0 -186 101t-68 286h125q2 -85 38.5 -130.5t103.5 -45.5h90q16 0 23 -41.5t7 -71.5t-9 -64t-21 -34h-103z" />
    <glyph glyph-name="uni0637.init" unicode="&#x637;" horiz-adv-x="1462" arabic-form="initial" 
d="M-2 0v209l108 2l103 156l-29 1054l197 15l6 -717l-18 -168l122 184q63 96 145 133.5t249 46.5q98 5 186 5l242 -215v-420q0 -121 -86.5 -203t-208.5 -82h-1016zM1008 211q57 0 98 42.5t39 98.5l-10 273l-129 116q-100 0 -166 -4q-125 -7 -192 -45t-130 -135l-223 -340z
" />
    <glyph glyph-name="uni0637.medi" unicode="&#x637;" horiz-adv-x="1538" arabic-form="medial" 
d="M-2 0v209l108 2l103 156l-29 1054l197 15l6 -717l-18 -168l122 184q63 96 145 133.5t249 46.5q98 5 186 5l242 -215v-420q0 -121 -86.5 -203t-208.5 -82h-1016zM1008 211q57 0 98 42.5t39 98.5l-10 273l-129 116q-100 0 -166 -4q-125 -7 -192 -45t-130 -135l-223 -340z
M1436 0q-120 0 -186 101t-68 286h125q2 -85 38 -130.5t103 -45.5h90q16 0 23.5 -42t7.5 -71q0 -30 -9.5 -64t-21.5 -34h-102z" />
    <glyph glyph-name="uni0638.fina" unicode="&#x638;" horiz-adv-x="1738" arabic-form="final" 
d="M180 0l-26 231l165 -2l89 138l-29 1054l199 15l6 -734l-21 -151l125 184q65 95 147.5 134t243.5 46q102 5 189 5l239 -215v-420q0 -121 -86.5 -203t-208.5 -82h-1032zM1206 211q57 -1 99.5 42t40.5 99l-11 273l-129 116q-100 0 -166 -4q-125 -7 -190.5 -44.5
t-130.5 -135.5l-217 -328zM1636 0q-120 0 -186 101t-68 286h125q2 -85 38.5 -130.5t103.5 -45.5h90q16 0 23 -41.5t7 -71.5t-9 -64t-21 -34h-103zM975 1163v195l219 10v-205h-219z" />
    <glyph glyph-name="uni0638.init" unicode="&#x638;" horiz-adv-x="1462" arabic-form="initial" 
d="M-2 0v209l108 2l103 156l-29 1054l197 15l6 -717l-18 -168l122 184q63 96 145 133.5t249 46.5q98 5 186 5l242 -215v-420q0 -121 -86.5 -203t-208.5 -82h-1016zM1008 211q57 0 98 42.5t39 98.5l-10 273l-129 116q-100 0 -166 -4q-125 -7 -192 -45t-130 -135l-223 -340z
M791 1163v195l219 10v-205h-219z" />
    <glyph glyph-name="uni0638.medi" unicode="&#x638;" horiz-adv-x="1538" arabic-form="medial" 
d="M-2 0v209l108 2l103 156l-29 1054l197 15l6 -717l-18 -168l122 184q63 96 145 133.5t249 46.5q98 5 186 5l242 -215v-420q0 -121 -86.5 -203t-208.5 -82h-1016zM1008 211q57 0 98 42.5t39 98.5l-10 273l-129 116q-100 0 -166 -4q-125 -7 -192 -45t-130 -135l-223 -340z
M1436 0q-120 0 -186 101t-68 286h125q2 -85 38 -130.5t103 -45.5h90q16 0 23.5 -42t7.5 -71q0 -30 -9.5 -64t-21.5 -34h-102zM791 1163v195l219 10v-205h-219z" />
    <glyph glyph-name="uni0639.fina" unicode="&#x639;" horiz-adv-x="1431" arabic-form="final" 
d="M516 -596q-162 0 -262 90t-100 236v96q0 162 49 242t180 129q78 27 111 36q-92 60 -135.5 173.5t-90.5 367.5l-92 -4l27 205l821 8q77 -68 129.5 -140.5t52.5 -109.5q0 -75 -37 -205q-60 -204 -223 -307q54 -10 135 -10h353q21 0 28 -109q2 -37 -7 -69.5t-21 -32.5h-383
q-185 0 -330 82q-75 -13 -205 -51q-25 -7 -44 -13.5t-35 -15.5t-27.5 -15t-20.5 -19t-14.5 -20.5t-10 -26t-6.5 -29t-3 -36.5t-1 -41.5v-50.5q0 -92 41 -134.5t121 -39.5l633 25l-35 -211h-598zM739 274q79 24 143 83t91 126q10 26 22 55.5t17 42t9.5 26.5t6 22.5t0.5 17.5
q0 29 -18 58.5t-68 82.5l-508 -16q49 -231 119.5 -344.5t185.5 -153.5z" />
    <glyph glyph-name="uni0639.init" unicode="&#x639;" horiz-adv-x="1298" arabic-form="initial" 
d="M-2 0v211h272q-37 56 -37 174v195q0 93 31 153q20 39 58.5 79t103 94t76.5 65h303q109 0 188.5 -76t79.5 -180v-62l-149 -12q0 63 -43.5 107.5t-104.5 44.5h-192q-10 -9 -39 -35.5t-46.5 -43.5t-38.5 -41.5t-32 -45.5q-14 -32 -14 -115l2 -158q1 -83 43 -114t143 -25
l510 31l33 -203q-406 -43 -797 -43h-350z" />
    <glyph glyph-name="uni0639.medi" unicode="&#x639;" horiz-adv-x="1406" arabic-form="medial" 
d="M1040 0q-184 0 -317 47q-136 -47 -315 -47h-410v211h344q89 0 160 14q-95 65 -149.5 192.5t-94.5 356.5l-92 -4l27 205l821 8q108 -108 148 -158t44 -90t-7 -86.5t-40 -120.5q-50 -129 -91 -196t-103 -111q65 -10 129 -10h315q16 0 22.5 -40t6.5 -69q2 -17 -7 -59.5
t-22 -42.5h-369zM729 274q80 24 143.5 82.5t90.5 126.5q50 124 54 146q1 9 1 18q-2 30 -19 59t-67 82l-508 -16q50 -232 120.5 -345t184.5 -153z" />
    <glyph glyph-name="uni063A.fina" unicode="&#x63a;" horiz-adv-x="1433" arabic-form="final" 
d="M516 -596q-162 0 -262 90t-100 236v96q0 162 49 242t180 129q78 27 111 36q-92 60 -135.5 173.5t-90.5 367.5l-92 -4l27 205l821 8q77 -68 129.5 -140.5t52.5 -109.5q0 -75 -37 -205q-60 -204 -223 -307q54 -10 135 -10h353q21 0 28 -109q2 -37 -7 -69.5t-21 -32.5h-383
q-185 0 -330 82q-75 -13 -205 -51q-25 -7 -44 -13.5t-35 -15.5t-27.5 -15t-20.5 -19t-14.5 -20.5t-10 -26t-6.5 -29t-3 -36.5t-1 -41.5v-50.5q0 -92 41 -134.5t121 -39.5l633 25l-35 -211h-598zM739 274q79 24 143 83t91 126q10 26 22 55.5t17 42t9.5 26.5t6 22.5t0.5 17.5
q0 29 -18 58.5t-68 82.5l-508 -16q49 -231 119.5 -344.5t185.5 -153.5zM621 1243v195l219 10v-205h-219z" />
    <glyph glyph-name="uni063A.init" unicode="&#x63a;" horiz-adv-x="1298" arabic-form="initial" 
d="M-2 0v211h272q-37 56 -37 174v195q0 93 31 153q20 39 58.5 79t103 94t76.5 65h303q109 0 188.5 -76t79.5 -180v-62l-149 -12q0 63 -43.5 107.5t-104.5 44.5h-192q-10 -9 -39 -35.5t-46.5 -43.5t-38.5 -41.5t-32 -45.5q-14 -32 -14 -115l2 -158q1 -83 43 -114t143 -25
l510 31l33 -203q-406 -43 -797 -43h-350zM610 1243v195l219 10v-205h-219z" />
    <glyph glyph-name="uni063A.medi" unicode="&#x63a;" horiz-adv-x="1406" arabic-form="medial" 
d="M1040 0q-184 0 -317 47q-136 -47 -315 -47h-410v211h344q89 0 160 14q-95 65 -149.5 192.5t-94.5 356.5l-92 -4l27 205l821 8q108 -108 148 -158t44 -90t-7 -86.5t-40 -120.5q-50 -129 -91 -196t-103 -111q65 -10 129 -10h315q16 0 22.5 -40t6.5 -69q2 -17 -7 -59.5
t-22 -42.5h-369zM729 274q80 24 143.5 82.5t90.5 126.5q50 124 54 146q1 9 1 18q-2 30 -19 59t-67 82l-508 -16q50 -232 120.5 -345t184.5 -153zM610 1243v195l219 10v-205h-219z" />
    <glyph glyph-name="uni0641.fina" unicode="&#x641;" horiz-adv-x="2138" arabic-form="final" 
d="M438 0q-125 0 -204.5 81t-79.5 208v467l186 8v-430q0 -55 27.5 -89t76.5 -34h578v-211h-584zM1133 211q-34 31 -56 81.5t-22 96.5q0 169 18 264q6 30 16.5 58t30 56t34 48t44 49t43 42t48.5 44t44 39l305 -41q108 -14 190.5 -100t86.5 -193q9 -180 -11 -282.5t-69 -161.5
h303q7 0 14 -12t12 -38t5 -61q0 -32 -5 -55.5t-12 -34t-14 -10.5h-571q-57 0 -103 16q-43 -16 -100 -16h-561v211h330zM1391 807q-65 -56 -106 -108.5t-52 -114.5q-12 -70 -12 -176q0 -71 77 -134t164 -63h29q134 0 192 70.5t58 234.5q0 128 -36 188t-118 72zM1358 1229v194
l219 11v-205h-219z" />
    <glyph glyph-name="uni0641.init" unicode="&#x641;" horiz-adv-x="1134" arabic-form="initial" 
d="M-2 0v211h688q57 0 94 36.5t37 92.5v63h-393q-115 0 -187.5 75t-72.5 192v397l244 215h309q117 0 190.5 -73t73.5 -189v-684q0 -155 -83 -245.5t-236 -90.5h-664zM801 989q-1 54 -40 89.5t-95 35.5h-199l-135 -117l-13 -262q-3 -63 39 -105t105 -42h358zM492 1528v194
l219 11v-205h-219z" />
    <glyph glyph-name="uni0641.medi" unicode="&#x641;" horiz-adv-x="1333" arabic-form="medial" 
d="M328 211q-34 31 -56 81.5t-22 96.5q0 169 18 264q6 30 16.5 58t30 56t34 48t44 49t43 42t48.5 44t44 39l306 -41q108 -14 190 -100t86 -193q9 -180 -11 -282.5t-69 -161.5h303q7 0 14 -12t12 -38t5 -61q0 -32 -5 -55.5t-12 -34t-14 -10.5h-571q-57 0 -103 16
q-43 -16 -100 -16h-561v211h330zM586 807q-65 -56 -106 -108.5t-52 -114.5q-12 -70 -12 -176q0 -71 77 -134t164 -63h29q134 0 192 70.5t58 234.5q0 128 -36 188t-118 72zM569 1229v194l219 11v-205h-219z" />
    <glyph glyph-name="uni0642.fina" unicode="&#x642;" horiz-adv-x="1566" arabic-form="final" 
d="M1309 0v211h260q11 0 19.5 -32.5t8.5 -72.5t-8.5 -73t-19.5 -33h-260zM621 -508q-204 0 -335.5 128t-131.5 327v590l186 8v-563q0 -126 76 -203.5t200 -77.5q277 0 458 47.5t224 130.5q9 18 9 90v31h-420q-119 0 -194 71t-75 189v416l244 215h328q117 0 191.5 -72.5
t74.5 -187.5v-684q0 -235 -202 -345t-633 -110zM1278 584q-3 64 -45 103t-107 38h-202l-138 -119l-12 -278q-3 -63 26.5 -90t98.5 -27h397zM1069 1288l287 -135l-645 -16v151h358zM1008 1145v143h313l45 -26v-109z" />
    <glyph glyph-name="uni0642.init" unicode="&#x642;" horiz-adv-x="1134" arabic-form="initial" 
d="M-2 0v211h688q57 0 94 36.5t37 92.5v63h-393q-115 0 -187.5 75t-72.5 192v397l244 215h309q117 0 190.5 -73t73.5 -189v-684q0 -155 -83 -245.5t-236 -90.5h-664zM801 989q-1 54 -40 89.5t-95 35.5h-199l-135 -117l-13 -262q-3 -63 39 -105t105 -42h358zM633 1679
l287 -135l-646 -16v151h359zM571 1536v143h314l45 -26v-109z" />
    <glyph glyph-name="uni0642.medi" unicode="&#x642;" horiz-adv-x="1333" arabic-form="medial" 
d="M328 211q-34 31 -56 81.5t-22 96.5q0 169 18 264q6 30 16.5 58t30 56t34 48t44 49t43 42t48.5 44t44 39l306 -41q108 -14 190 -100t86 -193q9 -180 -11 -282.5t-69 -161.5h303q7 0 14 -12t12 -38t5 -61q0 -32 -5 -55.5t-12 -34t-14 -10.5h-571q-57 0 -103 16
q-43 -16 -100 -16h-561v211h330zM586 807q-65 -56 -106 -108.5t-52 -114.5q-12 -70 -12 -176q0 -71 77 -134t164 -63h29q134 0 192 70.5t58 234.5q0 128 -36 188t-118 72zM711 1380l286 -135l-645 -16v151h359zM649 1237v143h314l45 -26v-109z" />
    <glyph glyph-name="uni0643.fina" unicode="&#x643;" horiz-adv-x="2056" arabic-form="final" 
d="M438 0q-128 0 -206 79.5t-78 209.5v467l186 8v-430q0 -55 27.5 -89t76.5 -34h1045q68 0 112.5 38t43.5 93l-25 1083l197 17l10 -1100q0 -154 -80 -248t-229 -94h-1080zM1077 707q18 1 29.5 12.5t11.5 25.5q0 30 -26 46l-271 141l2 84l320 137l41 -80l-266 -100l241 -129
q41 -51 41 -105q0 -46 -36.5 -82.5t-88.5 -40.5l-272 -24v90zM1954 0q-120 0 -186 101t-68 286h125q2 -85 38 -130.5t103 -45.5h90q16 0 23.5 -42t7.5 -71q0 -30 -9.5 -64t-21.5 -34h-102z" />
    <glyph glyph-name="uni0643.init" unicode="&#x643;" horiz-adv-x="1232" arabic-form="initial" 
d="M756 211q66 0 106.5 35.5t40.5 91.5l-69 299l-687 338l7 201l788 331l88 -178l-663 -248l622 -317q7 -33 26 -118.5t25 -116t17 -84t15 -85t5 -57.5q6 -122 -88 -212.5t-227 -90.5h-764v211h758z" />
    <glyph glyph-name="uni0643.medi" unicode="&#x643;" horiz-adv-x="1388" arabic-form="medial" 
d="M1386 0q-138 0 -229 64t-188 229l-4 -76q-6 -98 -90 -157.5t-205 -59.5h-672v211h696q68 0 116 41t48 102v95q-59 79 -90 100l-608 422l6 223l754 332l86 -180l-660 -256l518 -373q45 -33 89.5 -87t76.5 -108.5t72 -112t78 -101t92 -71.5t117 -28q18 0 24 -18.5t6 -79.5
q0 -39 -8.5 -75t-24.5 -36z" />
    <glyph glyph-name="uni0644.fina" unicode="&#x644;" horiz-adv-x="1587" arabic-form="final" 
d="M633 -473q-214 0 -346.5 130t-132.5 339v512l186 6v-496q0 -123 80.5 -202.5t204.5 -79.5q569 0 563 280l-37 1403l197 17l10 -1454q1 -226 -181.5 -340.5t-543.5 -114.5zM1485 0q-120 0 -186 101t-68 286h125q2 -85 38 -130.5t103 -45.5h90q16 0 23.5 -42t7.5 -71
q0 -30 -9.5 -64t-21.5 -34h-102z" />
    <glyph glyph-name="uni0644.init" unicode="&#x644;" horiz-adv-x="626" arabic-form="initial" 
d="M-2 0v211h139q68 0 110.5 39t41.5 100l-25 1075l199 17l8 -1096q1 -164 -85.5 -255t-242.5 -91h-145z" />
    <glyph glyph-name="uni0644.medi" unicode="&#x644;" horiz-adv-x="698" arabic-form="medial" 
d="M-2 0v211h133q62 0 106.5 41t43.5 98l-23 1075l197 17l8 -1096q0 -62 36 -98.5t95 -36.5h104q16 0 23.5 -40.5t7.5 -68.5q0 -25 -8 -63.5t-23 -38.5h-116q-70 0 -127.5 38.5t-75.5 100.5q-20 -59 -84 -99t-137 -40h-160z" />
    <glyph glyph-name="uni0645.fina" unicode="&#x645;" horiz-adv-x="1466" arabic-form="final" 
d="M1235 266q0 -121 -76 -198t-184 -68l-512 49q-63 6 -102.5 -30.5t-36.5 -98.5l20 -526l-190 -23l4 590q2 110 62 182t161 82l16 2q-45 40 -57 131l16 353q9 106 86 178t181 72h368l244 -216v-479zM504 354q31 -107 143 -116l291 -27q56 -4 98 39.5t39 101.5l-12 324
l-135 119h-258q-55 0 -97 -38.5t-43 -92.5zM1364 0q-120 0 -186 101t-68 286h125q2 -85 38 -130.5t103 -45.5h90q16 0 23.5 -42t7.5 -71q0 -30 -9.5 -64t-21.5 -34h-102z" />
    <glyph glyph-name="uni0645.init" unicode="&#x645;" horiz-adv-x="1306" arabic-form="initial" 
d="M-2 0v211h53q100 0 150.5 33.5t54.5 105.5l20 361q6 104 83.5 177t183.5 73h368l242 -216v-466q0 -128 -72.5 -203.5t-199.5 -75.5h-265q-178 0 -266 166q-40 -166 -268 -166h-84zM422 350q42 -81 79 -111t93 -30h262q57 0 98 43t39 100l-12 326l-135 117h-258
q-54 0 -94 -38.5t-45 -92.5z" />
    <glyph glyph-name="uni0645.medi" unicode="&#x645;" horiz-adv-x="1384" arabic-form="medial" 
d="M-2 0v211h53q100 0 150.5 33.5t54.5 105.5l20 361q6 104 83.5 177t183.5 73h368l242 -216v-466q0 -128 -72.5 -203.5t-199.5 -75.5h-265q-178 0 -266 166q-40 -166 -268 -166h-84zM422 350q42 -81 79 -111t93 -30h262q57 0 98 43t39 100l-12 326l-135 117h-258
q-54 0 -94 -38.5t-45 -92.5zM1282 0q-120 0 -186 101t-68 286h125q2 -85 38 -130.5t103 -45.5h90q16 0 23.5 -42t7.5 -71q0 -30 -9.5 -64t-21.5 -34h-102z" />
    <glyph glyph-name="uni0646.fina" unicode="&#x646;" horiz-adv-x="1619" arabic-form="final" 
d="M154 598l186 6v-559q0 -125 81 -204t206 -79q281 0 438.5 74.5t153.5 204.5l-29 780l196 17l5 -830q2 -223 -196 -340t-577 -117q-125 0 -231.5 60t-169.5 165.5t-63 231.5v590zM1518 0q-120 0 -186 101t-68 286h125q2 -85 38 -130.5t103 -45.5h90q16 0 23.5 -42t7.5 -71
q0 -30 -9.5 -64t-21.5 -34h-102zM631 762v194l219 11v-205h-219z" />
    <glyph glyph-name="uni0646.init" unicode="&#x646;" horiz-adv-x="845" arabic-form="initial" 
d="M-2 0v211h381q58 0 101 37t40 90l-24 500l196 14v-565q0 -124 -83.5 -205.5t-209.5 -81.5h-401zM483 1098v194l219 11v-205h-219z" />
    <glyph glyph-name="uni0646.medi" unicode="&#x646;" horiz-adv-x="886" arabic-form="medial" 
d="M760 0q-66 0 -124.5 40.5t-78.5 100.5q-23 -60 -85.5 -100.5t-131.5 -40.5h-342v211h330q59 0 97 37.5t38 93.5v422l178 6v-428q0 -56 37 -93.5t94 -37.5h117q29 0 29 -113q0 -31 -8.5 -64.5t-20.5 -33.5h-129zM440 1016v194l219 11v-205h-219z" />
    <glyph glyph-name="uni0647.fina" unicode="&#x647;" horiz-adv-x="1306" arabic-form="final" 
d="M1225 0q-131 0 -201.5 55t-95.5 178q-2 -6 -7.5 -18t-7.5 -18q-48 -117 -182 -117h-297q-111 0 -194.5 86t-83.5 201q0 7 -0.5 50t0 63.5t2 61.5t5 66.5t10 55.5t15.5 51t31.5 48.5t56 59.5t60 55.5t64 55t46.5 39.5l332 57l-16 105l180 26l92 -755q15 -121 58.5 -158
t171.5 -37h43q10 0 20 -35t10 -72t-9.5 -70.5t-20.5 -33.5h-82zM713 272q108 0 131 86q3 11 9 33.5t9 34.5l-59 426l-279 -45q-15 -14 -58.5 -48.5t-75 -64t-44.5 -53.5q-8 -15 -13.5 -47.5t-7 -60t-3.5 -71t-3 -54.5q-3 -54 42 -95t108 -41h244z" />
    <glyph glyph-name="uni0647.init" unicode="&#x647;" horiz-adv-x="1642" arabic-form="initial" 
d="M252 211q-37 33 -58.5 79t-21.5 95v34v37t0.5 35t1.5 38.5t2 35.5t4 37.5t6 34.5t8 35.5t11 32.5q13 35 41 69.5t88 91.5l-139 23l24 180l850 -164q78 -16 106.5 -22t59 -17.5t51.5 -27.5q57 -43 100 -181q9 -28 29 -87t31.5 -95.5t24 -88t16.5 -93.5q7 -74 -31 -142.5
t-108 -109.5t-150 -41h-399q-77 0 -127 35q-84 -35 -207 -35h-467v211h254zM897 215q16 -4 53 -4h228q57 0 98.5 37.5t42.5 91.5l-92 268q-28 84 -60 103q-33 24 -131 41l-143 22q43 -37 59.5 -89t16.5 -157q0 -132 -14.5 -195.5t-57.5 -117.5zM567 211q148 0 199 72
q47 71 47 256q0 122 -28 178.5t-101 68.5l-172 27q-67 -59 -97.5 -93.5t-47.5 -70.5q-17 -35 -23 -83.5t-6 -151.5q0 -68 67.5 -131t161.5 -72z" />
    <glyph glyph-name="uni0647.medi" unicode="&#x647;" horiz-adv-x="1271" arabic-form="medial" 
d="M1223 0q-162 0 -219 -178l-74 -223h-445q-136 0 -215.5 74t-79.5 196v131h-192v211h195l2 471q0 100 81.5 174t184.5 74h313l221 -193v-477q0 -103 -76.5 -181.5t-177.5 -78.5h-389l2 -96q3 -144 176 -144h289l58 181q85 270 346 270h55q25 0 25 -107q0 -37 -6.5 -70.5
t-18.5 -33.5h-55zM700 211q60 0 100.5 41.5t37.5 101.5l-15 301l-114 109h-199q-57 0 -98.5 -39t-42.5 -96l-15 -418h346z" />
    <glyph glyph-name="uni0648.fina" unicode="&#x648;" horiz-adv-x="1259" arabic-form="final" 
d="M1262 211q11 0 19.5 -32.5t8.5 -72.5t-9 -73t-19 -33h-261v211h261zM434 -344q173 38 273 81.5t138 90.5t36 109l-2 57h-469q-116 0 -186 72.5t-70 193.5v461l252 213h350q121 0 201.5 -76t80.5 -196l-2 -734q0 -191 -153.5 -312.5t-474.5 -184.5l-166 -33l-47 211z
M856 641q-3 55 -42 91t-95 36h-260l-135 -117l-13 -319q-1 -63 38.5 -95t105.5 -32h419z" />
    <glyph glyph-name="uni0649.fina" unicode="&#x649;" horiz-adv-x="1570" arabic-form="final" 
d="M1571 211q16 0 23.5 -34t7.5 -73q0 -25 -8 -64.5t-23 -39.5h-129q14 -14 14 -53q0 -12 -4 -62q-12 -151 -139 -254q-95 -75 -254 -107t-438 -32q-192 0 -329.5 134t-137.5 321v590l186 8v-563q0 -122 80 -201.5t201 -79.5q242 0 361.5 17t201.5 63q57 32 84.5 60t36.5 63
q2 10 2 49q0 27 -13 37t-49 10h-581l28 211h879z" />
    <glyph glyph-name="uni064A.fina" unicode="&#x64a;" horiz-adv-x="1570" arabic-form="final" 
d="M1571 211q16 0 23.5 -34t7.5 -73q0 -25 -8 -64.5t-23 -39.5h-129q14 -14 14 -53q0 -12 -4 -62q-12 -151 -139 -254q-95 -75 -254 -107t-438 -32q-192 0 -329.5 134t-137.5 321v590l186 8v-563q0 -122 80 -201.5t201 -79.5q242 0 361.5 17t201.5 63q57 32 84.5 60t36.5 63
q2 10 2 49q0 27 -13 37t-49 10h-581l28 211h879zM825 -752l287 -135l-645 -16v151h358zM764 -895v143h313l45 -26v-109z" />
    <glyph glyph-name="uni064A.init" unicode="&#x64a;" horiz-adv-x="845" arabic-form="initial" 
d="M-2 0v211h381q58 0 101 37t40 90l-24 500l196 14v-565q0 -124 -83.5 -205.5t-209.5 -81.5h-401zM291 -297l287 -135l-646 -17v152h359zM229 -440v143h314l45 -27v-108z" />
    <glyph glyph-name="uni064A.medi" unicode="&#x64a;" horiz-adv-x="886" arabic-form="medial" 
d="M760 0q-66 0 -124.5 40.5t-78.5 100.5q-23 -60 -85.5 -100.5t-131.5 -40.5h-342v211h330q59 0 97 37.5t38 93.5v422l178 6v-428q0 -56 37 -93.5t94 -37.5h117q29 0 29 -113q0 -31 -8.5 -64.5t-20.5 -33.5h-129zM362 -297l287 -135l-645 -17v152h358zM301 -440v143h313
l45 -27v-108z" />
    <glyph glyph-name=".notdef" horiz-adv-x="1390" 
d="M1079 1313q-105 45 -385 45q-278 0 -383 -45v-1110q105 -45 383 -45q280 0 385 45v1110zM289 0l-135 135v1387h970l113 -115v-1407h-948z" />
    <glyph glyph-name=".null" horiz-adv-x="2406" 
 />
    <glyph glyph-name="nonmarkingreturn" horiz-adv-x="682" 
 />
    <glyph glyph-name="space" unicode=" " horiz-adv-x="409" 
 />
    <glyph glyph-name="exclam" unicode="!" horiz-adv-x="581" 
d="M190 1423l197 17l-18 -1075l-133 -17zM154 -20v241l272 12v-253h-272z" />
    <glyph glyph-name="quotedbl" unicode="&#x22;" horiz-adv-x="759" 
d="M178 1599h162l-57 -514h-129zM444 1599h162l-57 -514h-129z" />
    <glyph glyph-name="quotedbl" unicode="&#x2033;" horiz-adv-x="759" 
d="M178 1599h162l-57 -514h-129zM444 1599h162l-57 -514h-129z" />
    <glyph glyph-name="numbersign" unicode="#" horiz-adv-x="1511" 
d="M360 397h-206v142h237l86 368h-244v142h277l94 411h141l-96 -411h355l94 411h141l-94 -411h213v-142h-246l-86 -368h252v-142h-283l-92 -397h-141l92 397h-354l-90 -397h-142zM887 539l84 368h-353l-86 -368h355z" />
    <glyph glyph-name="dollar" unicode="$" horiz-adv-x="1277" 
d="M702 -16q-239 0 -516 28v156q320 -25 441 -25q206 0 278 52.5t72 203.5q0 51 -3 83t-13.5 59.5t-26 43t-46 28.5t-68 20t-97.5 14l-336 39q-141 17 -192.5 99t-51.5 288q0 226 116.5 315t412.5 89q294 0 450 -33v-152q-186 23 -415 23q-198 0 -270 -50.5t-72 -189.5
q0 -62 5.5 -96.5t25 -62.5t56 -41t99.5 -19l315 -35q73 -8 121.5 -19t88 -31t61.5 -46.5t36.5 -71t19.5 -98t5 -133.5q0 -129 -23.5 -210.5t-82.5 -134t-151.5 -73t-238.5 -20.5zM612 1753h168v-283h-168v283zM612 -6h168v-283h-168v283z" />
    <glyph glyph-name="percent" unicode="%" horiz-adv-x="1910" 
d="M424 672q-96 0 -153 12.5t-91 44.5q-41 40 -56 118t-15 226q0 146 14.5 225t54.5 119q34 34 91.5 47t154.5 13q99 0 157.5 -13.5t92.5 -48.5q38 -40 52.5 -119.5t14.5 -222.5q0 -138 -14 -215.5t-51 -118.5q-34 -37 -93.5 -52t-158.5 -15zM406 764q142 0 184 57
q6 8 10.5 17t7.5 21t5.5 21t4 26.5t2 26.5t1 31.5t0.5 32v37.5v39v48v46.5t-0.5 38.5t-2.5 38t-5.5 30.5t-9 29.5t-13.5 23q-42 57 -184 57q-106 0 -146 -65q-11 -17 -17.5 -38t-9 -51.5t-3 -46t0 -58.5t0.5 -52q0 -10 -0.5 -46t0 -49.5t2.5 -43t5.5 -45.5t11 -36t18.5 -34
q39 -55 138 -55zM1311 1460h129l-946 -1460h-129zM1440 0q-109 0 -169.5 16t-92.5 60q-31 41 -42.5 116.5t-11.5 208.5q0 140 13.5 218.5t48.5 119.5q32 38 91.5 52t162.5 14t161.5 -14t92.5 -52q37 -41 50 -118.5t13 -219.5q0 -140 -14.5 -218.5t-52.5 -119.5
q-34 -35 -93 -49t-157 -14zM1421 92q144 0 185 55q6 9 11 20t8.5 21.5t5.5 28t3 28.5t1.5 34.5t0.5 36v42v43.5q0 18 0.5 65t0 63.5t-3 46t-9.5 47t-18 32.5q-43 58 -185 58q-98 0 -139 -58q-10 -14 -17.5 -34t-11 -36t-5 -45t-2 -43.5t0 -49.5t0.5 -46t-0.5 -50.5t0 -56
t3 -45.5t8.5 -49.5t16 -37.5q41 -70 147 -70z" />
    <glyph glyph-name="ampersand" unicode="&#x26;" horiz-adv-x="1503" 
d="M774 -16q-240 0 -377 39t-198.5 125t-61.5 237q0 162 60.5 242t208.5 114v7q-138 35 -197 116.5t-59 235.5q0 201 144.5 289t477.5 88q256 0 473 -39v-140q-219 31 -418 31q-247 0 -357 -62t-110 -200q0 -140 65 -197t224 -57h160v-147h-160q-178 0 -240.5 -56
t-62.5 -213q0 -42 8 -77t21 -60.5t35 -46t43.5 -34t54.5 -22.5t60 -14t67 -8t68 -3.5t71 -0.5q144 0 275 16v666h448v-147h-244v-643q-246 -39 -479 -39z" />
    <glyph glyph-name="quotesingle" unicode="'" horiz-adv-x="493" 
d="M178 1599h162l-57 -514h-129z" />
    <glyph glyph-name="quotesingle" unicode="&#x2032;" horiz-adv-x="493" 
d="M178 1599h162l-57 -514h-129z" />
    <glyph glyph-name="parenleft" unicode="(" horiz-adv-x="751" 
d="M473 -324q-103 117 -162 206t-96 200.5t-49 233.5t-12 313q0 193 12 315.5t49 233.5t96 198.5t162 202.5h125q-149 -189 -204.5 -391.5t-55.5 -558.5q0 -254 21.5 -406.5t75 -274t163.5 -272.5h-125z" />
    <glyph glyph-name="parenright" unicode=")" horiz-adv-x="751" 
d="M279 -324h-125q110 151 163.5 272.5t75 274t21.5 406.5q0 356 -55.5 558.5t-204.5 391.5h125q103 -115 162 -202.5t96 -198.5t49 -233.5t12 -315.5q0 -191 -12 -313t-49 -233.5t-96 -200.5t-162 -206z" />
    <glyph glyph-name="uni066D" unicode="*" horiz-adv-x="1325" 
d="M547 1157l115 39l176 -385l-164 -66zM154 707v122l421 39l11 -176zM463 184l-117 37l92 414l172 -45zM1053 322l-72 -99l-373 201l94 149zM1100 918l71 -99l-311 -287l-112 138z" />
    <glyph glyph-name="uni066D" unicode="&#x66d;" horiz-adv-x="1325" 
d="M547 1157l115 39l176 -385l-164 -66zM154 707v122l421 39l11 -176zM463 184l-117 37l92 414l172 -45zM1053 322l-72 -99l-373 201l94 149zM1100 918l71 -99l-311 -287l-112 138z" />
    <glyph glyph-name="plus" unicode="+" horiz-adv-x="1140" 
d="M500 463h-346v139h346v350h139v-350h348v-139h-348v-348h-139v348z" />
    <glyph glyph-name="comma" unicode="," horiz-adv-x="477" 
d="M111 -203q77 2 103 33t26 123v47h-90v205h223v-199q0 -71 -6.5 -116t-22 -78t-47 -49.5t-74.5 -24t-112 -8.5v67z" />
    <glyph glyph-name="hyphen" unicode="-" horiz-adv-x="1206" 
d="M1053 436h-899v148h899v-148z" />
    <glyph glyph-name="hyphen" unicode="&#x2010;" horiz-adv-x="1206" 
d="M1053 436h-899v148h899v-148z" />
    <glyph glyph-name="period" unicode="." horiz-adv-x="526" 
d="M154 0v195l219 10v-205h-219z" />
    <glyph glyph-name="slash" unicode="/" horiz-adv-x="1050" 
d="M735 1563h162l-584 -1602h-159z" />
    <glyph glyph-name="zero" unicode="0" horiz-adv-x="1449" 
d="M727 -16q-184 0 -287.5 20t-154.5 66q-131 119 -131 659q0 59 1 98.5t4 117.5t12 136.5t23 124.5t38.5 114t56.5 75q54 44 157 63t281 19q216 0 317 -24t148 -87q55 -71 78.5 -216.5t25.5 -387.5v-26q0 -65 -0.5 -105.5t-3.5 -119t-11.5 -135t-21.5 -121t-36 -111.5
t-54 -74q-54 -47 -155.5 -66.5t-286.5 -19.5zM715 143q120 0 175 9t89 34q97 72 96 525v18q0 11 0.5 60t0 79t-1.5 82.5t-5.5 90t-11.5 79t-19 72t-28 49.5q-65 74 -297 74q-181 0 -238 -43q-100 -75 -100 -543q0 -470 104 -545q33 -24 88.5 -32.5t147.5 -8.5z" />
    <glyph glyph-name="one" unicode="1" horiz-adv-x="768" 
d="M614 0h-219v1247l-293 -141v164l355 190h157v-1460z" />
    <glyph glyph-name="two" unicode="2" horiz-adv-x="1310" 
d="M154 168q0 226 50.5 337t178.5 167l385 166q103 44 135.5 92t32.5 155q0 72 -13 114t-50.5 69.5t-98 37t-162.5 9.5q-187 0 -428 -25v150q203 37 484 37q274 0 381.5 -81t107.5 -290q0 -177 -51.5 -262.5t-194.5 -145.5l-387 -163q-91 -38 -124 -110.5t-33 -231.5v-29
h790v-164h-1003v168z" />
    <glyph glyph-name="three" unicode="3" horiz-adv-x="1284" 
d="M569 -16q-211 0 -436 34v150q281 -25 418 -25q207 0 282.5 54t75.5 200t-58.5 204t-205.5 58h-256v160h256q130 0 190 59.5t60 188.5q0 75 -16 121t-59.5 75.5t-112 40.5t-179.5 11q-204 0 -387 -25v150q191 37 430 37q299 0 422 -85t123 -292q0 -156 -59.5 -239.5
t-194.5 -115.5v-2q141 -25 204.5 -109.5t63.5 -248.5q0 -223 -124.5 -312t-436.5 -89z" />
    <glyph glyph-name="four" unicode="4" horiz-adv-x="1382" 
d="M102 487l531 973h237l-544 -962h546l60 497h145v-497h203v-162h-203v-336h-217v336h-758v151z" />
    <glyph glyph-name="five" unicode="5" horiz-adv-x="1257" 
d="M561 -16q-230 0 -438 34v150q278 -25 412 -25q148 0 225 25.5t109 86.5t32 177q0 71 -10.5 116.5t-34.5 79t-70.5 51t-110.5 25t-163 7.5q-150 0 -371 -29v778h873v-164h-684v-448q149 20 327 20q134 0 220.5 -20.5t142 -70.5t78.5 -127.5t24 -198.5q1 -137 -25.5 -224.5
t-93 -143t-171.5 -77.5t-271 -22z" />
    <glyph glyph-name="six" unicode="6" horiz-adv-x="1415" 
d="M735 -16q-119 0 -203 9.5t-150.5 34.5t-107.5 63.5t-68 101.5t-38 142.5t-12 192.5l-2 271q0 362 104 508q64 91 180 130.5t314 39.5q176 0 434 -37v-150q-198 25 -389 25q-148 0 -230 -22.5t-123 -75.5q-41 -56 -54 -155.5t-13 -275.5v-22h4q43 51 149 78.5t256 27.5
q158 0 244 -16t139 -63q103 -90 103 -328q0 -277 -94 -371q-105 -108 -443 -108zM739 141q104 0 167.5 12t99.5 46q32 29 44.5 79t12.5 144q0 105 -14.5 160t-51.5 84q-32 26 -94 36.5t-184 10.5t-207 -19t-111 -53q-13 -18 -17.5 -53t-4.5 -115q0 -73 5.5 -121.5t21 -88
t39.5 -61.5t66.5 -36.5t95.5 -19.5t132 -5z" />
    <glyph glyph-name="seven" unicode="7" horiz-adv-x="1232" 
d="M1120 1460v-153l-567 -1307h-242l582 1296h-780v164h1007z" />
    <glyph glyph-name="eight" unicode="8" horiz-adv-x="1454" 
d="M727 -16q-312 0 -442.5 91.5t-130.5 309.5q0 167 56.5 242.5t211.5 113.5v7q-141 35 -198.5 114t-57.5 238q0 207 126 292t435 85t435 -85t126 -292q0 -161 -59.5 -243.5t-196.5 -111.5v-6q146 -32 207 -112.5t61 -241.5q0 -151 -55 -237t-178.5 -125t-339.5 -39z
M727 805q200 0 271 53.5t71 204.5q0 106 -29.5 160.5t-101 77t-211.5 22.5q-197 0 -269.5 -55t-72.5 -205q0 -105 30 -159t101.5 -76.5t210.5 -22.5zM727 137q108 0 174 11t108 42t58 80t16 129q0 84 -15 134.5t-57 82t-108 43t-176 11.5q-207 4 -280.5 -52t-73.5 -219
q0 -151 75 -206.5t279 -55.5z" />
    <glyph glyph-name="nine" unicode="9" horiz-adv-x="1417" 
d="M680 1477q119 0 203 -9.5t151 -34.5t108 -63.5t68 -101.5t38 -143t12 -193l2 -270q3 -357 -105 -508q-64 -91 -179.5 -130.5t-313.5 -39.5q-184 0 -435 36v150q198 -25 389 -25q148 0 230 22.5t123 76.5q41 56 54 155t13 275v22h-4q-43 -51 -149 -78.5t-256 -27.5
q-157 0 -243.5 16.5t-139.5 63.5q-103 90 -103 327q0 276 95 371q106 109 442 109zM676 1319q-105 0 -167.5 -11.5t-98.5 -45.5q-32 -29 -45 -80t-13 -144q0 -105 14.5 -159.5t51.5 -83.5q32 -26 94 -36.5t184 -10.5t207 18.5t111 52.5q13 18 17.5 53t4.5 115
q0 73 -5.5 121.5t-21 88t-39.5 61.5t-66.5 36.5t-95.5 19.5t-132 5z" />
    <glyph glyph-name="colon" unicode=":" horiz-adv-x="526" 
d="M373 686v-194l-219 -11v205h219zM154 -4v194l219 11v-205h-219z" />
    <glyph glyph-name="semicolon" unicode=";" horiz-adv-x="477" 
d="M150 1075h223v-207h-223v207zM111 -203q77 2 103 33t26 123v47h-90v205h223v-199q0 -71 -6.5 -116t-22 -78t-47 -49.5t-74.5 -24t-112 -8.5v67z" />
    <glyph glyph-name="less" unicode="&#x3c;" horiz-adv-x="1140" 
d="M154 446v140l833 342v-142l-657 -270l657 -270v-142z" />
    <glyph glyph-name="equal" unicode="=" horiz-adv-x="1206" 
d="M1053 485h-899v148h899v-148zM1053 129h-899v147h899v-147z" />
    <glyph glyph-name="greater" unicode="&#x3e;" horiz-adv-x="1140" 
d="M987 446l-833 -342v142l657 270l-657 270v142l833 -342v-140z" />
    <glyph glyph-name="question" unicode="?" horiz-adv-x="1015" 
d="M334 592q0 96 28 144t97 73l88 33q110 40 141 84.5t31 163.5q0 72 -11 113.5t-43.5 67.5t-84.5 35t-142 9q-179 0 -344 -23v150q196 35 395 35q249 0 346 -77.5t97 -277.5q0 -176 -48 -251.5t-192 -129.5l-102 -39q-48 -19 -63 -48t-15 -103v-111h-178v152zM311 205h224
v-205h-224v205z" />
    <glyph glyph-name="at" unicode="@" horiz-adv-x="1949" 
d="M899 147q-160 0 -225.5 59.5t-65.5 205.5q0 157 55.5 209.5t219.5 52.5q194 0 338 -4v69q0 54 -3 87t-14.5 61t-28.5 41.5t-51 23.5t-75 12.5t-107 2.5q-101 0 -274 -17v119q145 23 340 23q126 0 197.5 -13.5t117 -54.5t60 -106t14.5 -179v-501h174q52 0 77 10t44 39
q7 11 12 26.5t9 37t7 40t4.5 47t2.5 45.5t1.5 48.5t0.5 42v39.5v30q0 287 -21 433.5t-86 215.5q-21 23 -55 41.5t-68.5 30.5t-84 20t-86.5 12t-93.5 6t-86 2t-82.5 -0.5t-67 -0.5q-271 0 -392 -17t-191 -63q-31 -20 -55 -56t-39.5 -75t-26 -94.5t-15.5 -99.5t-7.5 -107
t-2 -99.5t1 -94t0.5 -74.5v-55.5v-68.5t1 -71t3 -79t5.5 -75.5t8.5 -78.5t13 -70t18 -67.5t23.5 -53.5t30.5 -45q38 -42 103.5 -68.5t156.5 -36.5t146 -12t147 -2h28q325 0 441 8v-77q-87 -4 -396 -4h-39q-68 0 -108.5 0.5t-116 3.5t-129 12t-115.5 23t-109 38.5t-79 57.5
q-29 31 -51 75t-34.5 102t-20.5 106.5t-10.5 122t-3.5 112t0 113t1 90.5v85.5v102.5t3 105.5t8.5 111.5t17.5 104t28.5 99t43 80t59.5 63q41 30 106 50.5t123 30.5t145 15.5t132 6t123 0.5h26h59h70.5t71 -1t79 -3.5t75.5 -7t79 -10.5t71 -15.5t70 -22t58 -29t52 -36.5
q28 -26 49.5 -64t35 -77t23 -93.5t14 -96t6.5 -101.5t2 -94.5t-0.5 -91.5t-0.5 -75q0 -187 -14 -289.5t-46 -144.5q-28 -36 -76 -49.5t-131 -13.5h-319l-4 143h-4q-35 -76 -118.5 -117t-203.5 -41zM971 262q171 0 223 94q27 47 27 164v76h-273q-109 0 -142.5 -33t-33.5 -137
q0 -100 39.5 -132t159.5 -32z" />
    <glyph glyph-name="A" unicode="A" horiz-adv-x="1550" 
d="M623 1460h305l520 -1460h-219l-139 377h-633l-140 -377h-215zM1049 532l-273 748h-6l-274 -748h553z" />
    <glyph glyph-name="B" unicode="B" horiz-adv-x="1388" 
d="M852 1460q193 0 287 -87.5t94 -272.5q0 -154 -60 -235t-196 -117v-5q139 -25 203.5 -109.5t64.5 -254.5q0 -197 -97 -288t-310 -91h-684v1460h698zM764 807q129 0 189.5 60t60.5 188q0 140 -54.5 194t-195.5 54h-393v-496h393zM768 156q142 0 199 57.5t57 200.5
q0 141 -57.5 199.5t-198.5 58.5h-397v-516h397z" />
    <glyph glyph-name="C" unicode="C" horiz-adv-x="1216" 
d="M1085 1298q-192 17 -282 17t-150 -5t-108.5 -21.5t-76 -40.5t-47 -68t-28 -98t-12.5 -136q-6 -114 -6 -217q0 -113 4 -211q3 -82 11.5 -137.5t29 -99.5t49 -69t77.5 -41.5t108.5 -22t148.5 -5.5q149 0 291 19v-154q-150 -24 -351 -24q-111 0 -191 8.5t-144 30t-105 54.5
t-70.5 86.5t-45 120.5t-23.5 162q-10 127 -10 283q0 167 10 297q7 94 22.5 160.5t45 118.5t70.5 83.5t105.5 52t144 28.5t191.5 8q194 0 342 -29v-150z" />
    <glyph glyph-name="D" unicode="D" horiz-adv-x="1409" 
d="M623 1460q215 0 335 -24.5t181 -81.5q34 -30 57.5 -82t34.5 -101.5t16.5 -125.5t6 -120.5t-1 -121.5t-1.5 -96q0 -274 -24.5 -413t-102.5 -202q-65 -52 -183.5 -72t-317.5 -20h-469v1460h469zM600 162q132 0 207 8.5t119 34.5q26 15 45 43t30 68t18 76.5t9.5 89t3 83
t-0.5 81t-1 61.5q0 12 1 74t0.5 99t-4 100.5t-11 104.5t-22.5 83t-36 63q-12 12 -28 22t-37.5 16.5t-38.5 11.5t-45.5 8t-44 5t-47.5 3t-41.5 1h-42h-33.5h-227v-1136h227z" />
    <glyph glyph-name="E" unicode="E" horiz-adv-x="1251" 
d="M154 1460h954v-162h-735v-481h635v-158h-635v-497h735v-162h-954v1460z" />
    <glyph glyph-name="F" unicode="F" horiz-adv-x="1208" 
d="M154 1460h911v-162h-692v-524h612v-162h-612v-612h-219v1460z" />
    <glyph glyph-name="G" unicode="G" horiz-adv-x="1411" 
d="M776 -16q-343 0 -465 96q-85 66 -120 214t-35 435q0 224 12 322q30 241 145 329q66 53 179 75t284 22q259 0 473 -41v-150q-199 29 -415 29q-131 0 -205.5 -9.5t-122.5 -37.5q-28 -16 -49.5 -43.5t-35.5 -55.5t-24 -72.5t-14.5 -74.5t-7 -82.5t-3 -75.5t0 -74.5
t0.5 -60.5q0 -6 -0.5 -65.5t0 -84t3 -82t10 -91t18.5 -77t30.5 -74t44.5 -50.5q46 -37 118.5 -50.5t186.5 -13.5q68 0 277 17v477h-307v147h503v-759q-225 -39 -481 -39z" />
    <glyph glyph-name="H" unicode="H" horiz-adv-x="1445" 
d="M154 1460h219v-635h698v635h221v-1460h-221v647h-698v-647h-219v1460z" />
    <glyph glyph-name="I" unicode="I" horiz-adv-x="528" 
d="M375 1460v-1460h-221v1460h221z" />
    <glyph glyph-name="J" unicode="J" horiz-adv-x="735" 
d="M61 154q124 2 179 14t84 51q18 26 26 72t9 90t1 158v921h222v-848q0 -185 -5.5 -281.5t-23.5 -160.5q-25 -85 -82 -119q-53 -29 -149.5 -40t-260.5 -11v154z" />
    <glyph glyph-name="K" unicode="K" horiz-adv-x="1447" 
d="M154 1460h219v-641h252l458 641h234l-512 -706l520 -754h-242l-458 662h-252v-662h-219v1460z" />
    <glyph glyph-name="L" unicode="L" horiz-adv-x="1144" 
d="M154 1460h219v-1292h649v-168h-868v1460z" />
    <glyph glyph-name="M" unicode="M" horiz-adv-x="1851" 
d="M154 1460h311l457 -1124l467 1124h309v-1460h-213l-2 1182l-484 -1182h-155l-484 1182l-2 -1182h-204v1460z" />
    <glyph glyph-name="N" unicode="N" horiz-adv-x="1449" 
d="M154 1460h227l702 -1065l4 1065h209v-1460h-209l-722 1112l-5 -1112h-206v1460z" />
    <glyph glyph-name="O" unicode="O" horiz-adv-x="1513" 
d="M756 -16q-361 0 -475 88q-30 24 -53 61.5t-36 91.5t-21.5 98.5t-11.5 114.5t-4 105t0 105t1 81t-1 81t0 104.5t4 104.5t11.5 114.5t21.5 98.5t36 92t53 62q110 91 475 91q361 0 475 -88q27 -21 48.5 -55.5t35 -71.5t22.5 -89t13.5 -93t6.5 -99.5t2 -92.5t-0.5 -88
t-0.5 -71q0 -14 0.5 -77.5t0 -96.5t-2.5 -96.5t-8 -105.5t-16 -93t-27 -89.5t-39 -66.5q-56 -70 -177.5 -95t-332.5 -25zM756 143q6 0 43 -0.5t51.5 0t49 2.5t53.5 7t45 13t44.5 21t32.5 31q18 23 31 65.5t19 81.5t9.5 101.5t3.5 95.5t-0.5 96t-0.5 72q0 14 1 65t0.5 85.5
t-2 90t-8 96.5t-17 85t-29 75t-42.5 48q-14 10 -32 17t-42.5 11.5t-40.5 7.5t-47 4t-41.5 1h-44.5h-36h-24.5h-29t-29 -0.5t-32 -1t-30.5 -2t-32 -3.5t-29 -5t-29 -7t-25 -9.5t-23 -12.5q-24 -16 -42.5 -47.5t-28.5 -74.5t-16.5 -85t-8 -97t-2 -90.5t0.5 -85.5t1 -65
q0 -14 -1 -64.5t-0.5 -86t2 -90.5t8 -96.5t17 -85t29 -74.5t43.5 -48q41 -27 100.5 -34t180.5 -7z" />
    <glyph glyph-name="P" unicode="P" horiz-adv-x="1366" 
d="M813 1460q122 0 198.5 -21.5t125 -76.5t67.5 -141t19 -224q0 -134 -20 -220t-69 -141t-125.5 -77t-195.5 -22h-440v-537h-219v1460h659zM735 694q110 0 165 25.5t78 89t23 188.5q0 185 -52.5 245.5t-213.5 60.5h-362v-609h362z" />
    <glyph glyph-name="Q" unicode="Q" horiz-adv-x="1544" 
d="M756 -16q-361 0 -475 88q-30 24 -53 61.5t-36 91.5t-21.5 98.5t-11.5 114.5t-4 105t0 105t1 81t-1 81t0 104.5t4 104.5t11.5 114.5t21.5 98.5t36 92t53 62q110 91 475 91q361 0 475 -88q27 -21 48.5 -55.5t35 -71.5t22.5 -89t13.5 -93t6.5 -99.5t2 -92.5t-0.5 -88
t-0.5 -71q0 -14 0.5 -77.5t0 -96.5t-2.5 -96.5t-8 -105.5t-16 -93t-27 -89.5t-39 -66.5q-56 -70 -177.5 -95t-332.5 -25zM756 143q6 0 43 -0.5t51.5 0t49 2.5t53.5 7t45 13t44.5 21t32.5 31q18 23 31 65.5t19 81.5t9.5 101.5t3.5 95.5t-0.5 96t-0.5 72q0 14 1 65t0.5 85.5
t-2 90t-8 96.5t-17 85t-29 75t-42.5 48q-14 10 -32 17t-42.5 11.5t-40.5 7.5t-47 4t-41.5 1h-44.5h-36h-24.5h-29t-29 -0.5t-32 -1t-30.5 -2t-32 -3.5t-29 -5t-29 -7t-25 -9.5t-23 -12.5q-24 -16 -42.5 -47.5t-28.5 -74.5t-16.5 -85t-8 -97t-2 -90.5t0.5 -85.5t1 -65
q0 -14 -1 -64.5t-0.5 -86t2 -90.5t8 -96.5t17 -85t29 -74.5t43.5 -48q41 -27 100.5 -34t180.5 -7zM678 444h221l502 -684l-2 -8h-225z" />
    <glyph glyph-name="R" unicode="R" horiz-adv-x="1400" 
d="M846 1460q229 0 313 -93t84 -347q0 -178 -43 -266.5t-147 -130.5l-31 -13l235 -610h-227l-213 584q-32 -4 -76 -4h-368v-580h-219v1460h692zM750 731q161 0 216.5 58t55.5 227q0 90 -10 142.5t-39 86.5t-76.5 46t-128.5 12h-395v-572h377z" />
    <glyph glyph-name="S" unicode="S" horiz-adv-x="1361" 
d="M713 -16q-239 0 -516 28v156q320 -25 440 -25q206 0 278 52.5t72 203.5q0 51 -3 83t-13.5 59.5t-26 43t-46 28.5t-68 20t-97.5 14l-336 39q-141 17 -192 99t-51 288q0 226 116 315t412 89q295 0 451 -33v-152q-186 23 -416 23q-198 0 -270 -50.5t-72 -189.5
q0 -62 5.5 -96.5t25 -62.5t56 -41t99.5 -19l316 -35q88 -10 142 -25t94 -40.5t59.5 -71t27.5 -106t8 -156.5q0 -129 -23 -210.5t-82 -134t-151.5 -73t-238.5 -20.5z" />
    <glyph glyph-name="T" unicode="T" horiz-adv-x="1355" 
d="M567 1290h-444v170h1110v-170h-445v-1290h-221v1290z" />
    <glyph glyph-name="U" unicode="U" horiz-adv-x="1427" 
d="M375 569q0 -91 5 -153t20.5 -111.5t38 -78t62.5 -47.5t90 -25.5t124 -6.5q86 0 141.5 11.5t96 37t61.5 76t30 120t9 177.5v891h221v-819q0 -111 -4 -190.5t-16.5 -149.5t-30 -115.5t-49.5 -83.5t-71 -59t-99 -35t-127.5 -19t-161.5 -5t-161.5 5t-127 19.5t-99 35.5
t-71.5 59t-50.5 84t-31 116t-16.5 149t-4 189v819h221v-891z" />
    <glyph glyph-name="V" unicode="V" horiz-adv-x="1492" 
d="M102 1460h226l415 -1227h9l417 1227h222l-500 -1460h-289z" />
    <glyph glyph-name="W" unicode="W" horiz-adv-x="2136" 
d="M102 1460h222l278 -1218h8l338 1218h228l340 -1218h6l297 1218h215l-365 -1460h-276l-328 1139l-8 -2l-330 -1137h-278z" />
    <glyph glyph-name="X" unicode="X" horiz-adv-x="1531" 
d="M635 733l-502 727h246l387 -551h8l391 551h238l-506 -721l512 -739h-248l-393 557h-12l-396 -557h-237z" />
    <glyph glyph-name="Y" unicode="Y" horiz-adv-x="1492" 
d="M635 547l-512 913h227l395 -712h5l397 712h223l-514 -913v-547h-221v547z" />
    <glyph glyph-name="Z" unicode="Z" horiz-adv-x="1353" 
d="M143 162l793 1136h-770v162h1034v-160l-797 -1138h807v-162h-1067v162z" />
    <glyph glyph-name="bracketleft" unicode="[" horiz-adv-x="741" 
d="M154 1579h434v-121l-256 -8v-1645l256 -10v-119h-434v1903z" />
    <glyph glyph-name="backslash" unicode="\" horiz-adv-x="1050" 
d="M315 1563l582 -1602h-160l-583 1602h161z" />
    <glyph glyph-name="bracketright" unicode="]" horiz-adv-x="741" 
d="M588 1579v-1903h-434v119l256 10v1645l-256 8v121h434z" />
    <glyph glyph-name="underscore" unicode="_" horiz-adv-x="1431" 
d="M1278 -252h-1124v141h1124v-141z" />
    <glyph glyph-name="a" unicode="a" horiz-adv-x="1228" 
d="M496 -16q-192 0 -267 68.5t-75 242.5q0 97 14 155t52 94t98 48t159 10q332 -10 400 -10v86q0 59 -5 99t-19.5 72t-36.5 49.5t-61 29.5t-88 16t-122 4q-175 0 -322 -18v133q168 29 398 29q95 0 161 -7t119 -25.5t85 -47t52.5 -77t28.5 -110t8 -149.5v-676h-192l-9 156h-4
q-38 -89 -127.5 -130.5t-246.5 -41.5zM582 115q172 0 233.5 63.5t61.5 243.5v90h-322q-133 0 -174 -38t-41 -163q0 -118 48 -157t194 -39z" />
    <glyph glyph-name="b" unicode="b" horiz-adv-x="1253" 
d="M154 1579h202l11 -643h2q32 75 124.5 115.5t233.5 40.5q92 0 154.5 -16.5t108 -53t70.5 -103t36.5 -157.5t11.5 -225q0 -162 -17.5 -264.5t-62.5 -169t-116 -93t-183 -26.5q-307 0 -373 174h-2l-8 -158h-192v1579zM631 139q71 0 116.5 10.5t78.5 35t49.5 72.5t24 113
t7.5 167q0 98 -7.5 163t-25 113t-50.5 73.5t-78.5 37.5t-114.5 12q-88 0 -139.5 -16t-84 -62.5t-44 -120.5t-11.5 -200q0 -224 61 -311t218 -87z" />
    <glyph glyph-name="c" unicode="c" horiz-adv-x="1032" 
d="M600 -16q-92 0 -157 10t-116.5 35.5t-83 64.5t-52.5 103t-29 144.5t-8 193.5q0 162 21.5 266.5t74 170.5t134.5 93t210 27q171 0 297 -27v-135q-126 18 -238 18q-119 0 -180.5 -35.5t-88 -121.5t-26.5 -252q0 -236 63.5 -324t235.5 -88q139 0 242 20v-135
q-140 -28 -299 -28z" />
    <glyph glyph-name="d" unicode="d" horiz-adv-x="1251" 
d="M905 0l-8 158h-2q-66 -174 -373 -174q-112 0 -183 26.5t-116 93t-62.5 169t-17.5 264.5q0 134 11.5 225t36.5 157.5t70.5 103t108 53t154.5 16.5q141 0 234 -40.5t125 -115.5h2l10 643h203v-1579h-193zM621 139q157 0 217.5 87t60.5 311q0 101 -7.5 166.5t-25 113.5
t-51 72.5t-79 35.5t-115.5 11q-86 0 -138 -17.5t-84 -65t-43.5 -121t-11.5 -195.5q0 -102 7.5 -167.5t24.5 -113t50 -72t78.5 -35t116.5 -10.5z" />
    <glyph glyph-name="e" unicode="e" horiz-adv-x="1234" 
d="M154 535q0 122 7 204t28.5 147.5t53.5 102.5t89 61.5t128 33t177 8.5q92 0 154.5 -6t113 -24.5t80 -45.5t50 -75t29.5 -107.5t13 -147.5q4 -110 4 -186h-729v-21q0 -79 5 -130.5t20 -93.5t38 -64.5t64.5 -38t93 -20.5t129.5 -5q155 0 336 20v-133q-129 -30 -385 -30
q-108 0 -181.5 8.5t-131.5 33.5t-92 62.5t-56 102t-30 145t-8 199.5zM893 590q3 92 -6 162q-15 130 -63 169.5t-189 39.5q-64 0 -106 -4.5t-76 -20t-52.5 -37.5t-30.5 -64t-16 -93t-4 -130v-22h543z" />
    <glyph glyph-name="f" unicode="f" horiz-adv-x="976" 
d="M143 1075h213v25q0 13 -2 75t-0.5 98.5t7.5 89.5t24 89.5t47 58.5q48 36 137.5 51t264.5 15v-129q-115 0 -171.5 -14t-79 -49t-22.5 -107v-203h273v-143h-273v-932h-205v932h-213v143z" />
    <glyph glyph-name="g" unicode="g" horiz-adv-x="1269" 
d="M532 1092q303 0 367 -174h4l15 157h190q8 -315 8 -530q0 -69 -2 -209t-2 -209q0 -193 -26.5 -302.5t-86.5 -168.5q-54 -53 -146.5 -76.5t-246.5 -23.5q-235 0 -391 20v133q205 -10 334 -10q120 0 187 15t104 50q34 32 48.5 87t14.5 147v166h-4q-39 -88 -123 -127
t-241 -39q-117 0 -188 22.5t-109 73.5q-84 109 -84 453t82 448q38 51 109 74t187 23zM635 936q-98 0 -152 -14.5t-80 -49.5q-30 -40 -39.5 -117t-9.5 -223q0 -127 10 -201.5t39 -113.5q26 -35 79 -49t149 -14q71 0 116.5 10.5t79 34.5t50.5 70.5t24.5 110t7.5 161.5
q0 156 -24.5 239.5t-82.5 119.5t-167 36z" />
    <glyph glyph-name="h" unicode="h" horiz-adv-x="1230" 
d="M154 1579h202l6 -651h3q32 78 127 121t235 43q91 0 152 -15t101 -43t61 -80.5t28.5 -115.5t7.5 -160v-678h-203v629q0 67 -3.5 112t-14.5 81t-27.5 56t-45.5 33.5t-65.5 18t-90.5 4.5q-83 0 -133.5 -16t-82.5 -60t-43.5 -113t-11.5 -184v-561h-202v1579z" />
    <glyph glyph-name="i" unicode="i" horiz-adv-x="524" 
d="M369 1075v-1075h-207v1075h207zM154 1579h217v-184h-217v184z" />
    <glyph glyph-name="j" unicode="j" horiz-adv-x="661" 
d="M102 -299q118 0 156.5 26.5t38.5 104.5v1243h205v-1190q0 -125 -35 -191.5t-119.5 -95t-245.5 -28.5v131zM291 1579h217v-184h-217v184z" />
    <glyph glyph-name="k" unicode="k" horiz-adv-x="1214" 
d="M154 1579h202v-965h136l366 461h215l-414 -516l422 -559h-225l-362 469h-138v-469h-202v1579z" />
    <glyph glyph-name="l" unicode="l" horiz-adv-x="514" 
d="M360 1579v-1579h-206v1579h206z" />
    <glyph glyph-name="m" unicode="m" horiz-adv-x="1835" 
d="M342 1075l14 -162h6q32 82 123.5 130.5t214.5 48.5q134 0 209 -42.5t101 -134.5h10q35 85 122 131t212 46q100 0 160.5 -18t99 -67t53 -126t14.5 -203v-678h-202v629q0 95 -9.5 152t-35.5 92.5t-67 48t-110 12.5q-94 0 -143 -30.5t-70.5 -105.5t-21.5 -218v-580h-201v629
q0 178 -46 241.5t-175 63.5q-160 0 -219 -121q-25 -49 -25 -240v-573h-202v1075h188z" />
    <glyph glyph-name="n" unicode="n" horiz-adv-x="1230" 
d="M342 1075l14 -162h6q40 86 137.5 132.5t225.5 46.5q87 0 145 -12t100 -38.5t64.5 -76t32.5 -117.5t10 -170v-678h-203v629q0 82 -6 131.5t-20 86.5t-43.5 54.5t-70 25t-107.5 7.5q-178 0 -238 -100q-19 -29 -26 -87.5t-7 -185.5v-561h-202v1075h188z" />
    <glyph glyph-name="o" unicode="o" horiz-adv-x="1273" 
d="M637 -16q-156 0 -217 9q-156 24 -209 122q-57 106 -57 422q0 166 13 268t48 160q41 69 139 98t283 29t282 -29t138 -98q36 -58 49.5 -160t13.5 -268q0 -182 -17.5 -286.5t-62.5 -162.5q-49 -60 -141.5 -82t-261.5 -22zM631 127q86 0 139 15.5t84 52.5q36 43 50 123
t14 219q0 161 -6.5 231.5t-32.5 110.5q-26 41 -78.5 55t-179.5 14q-97 0 -150 -16t-78 -53q-39 -62 -39 -271q0 -6 -1 -68t0 -98t4 -92t12.5 -94.5t23.5 -60.5q29 -41 84.5 -54.5t153.5 -13.5z" />
    <glyph glyph-name="p" unicode="p" horiz-adv-x="1251" 
d="M346 1069l8 -158h2q66 174 373 174q112 0 183 -26.5t116 -93t62.5 -169t17.5 -264.5q0 -134 -11.5 -225t-36.5 -157.5t-70.5 -103t-108 -53t-154.5 -16.5q-141 0 -233.5 40.5t-124.5 115.5h-2l-11 -565h-202v1501h192zM631 930q-157 0 -218 -87t-61 -311
q0 -126 11.5 -200t44 -120.5t84 -62.5t139.5 -16q69 0 114.5 12t78.5 37.5t50.5 73.5t25 113t7.5 163q0 102 -7.5 167t-24 113t-49.5 72.5t-78.5 35t-116.5 10.5z" />
    <glyph glyph-name="q" unicode="q" horiz-adv-x="1253" 
d="M1100 -432h-203l-10 565h-2q-32 -75 -125 -115.5t-234 -40.5q-92 0 -154.5 16.5t-108 53t-70.5 103t-36.5 157.5t-11.5 225q0 162 17.5 264.5t62.5 169t116 93t183 26.5q307 0 373 -174h2l8 158h193v-1501zM623 930q-71 0 -116.5 -10.5t-78.5 -35t-50 -72t-24.5 -113
t-7.5 -167.5q0 -122 11.5 -195.5t43.5 -121t84 -65t138 -17.5q70 0 115.5 11t79 35.5t51 72.5t25 113.5t7.5 166.5q0 224 -60.5 311t-217.5 87z" />
    <glyph glyph-name="r" unicode="r" horiz-adv-x="827" 
d="M344 1075l8 -215h2q41 106 137.5 168.5t223.5 63.5v-181q-116 -1 -198.5 -43t-121.5 -118q-39 -73 -39 -279v-471h-202v1075h190z" />
    <glyph glyph-name="s" unicode="s" horiz-adv-x="1144" 
d="M588 -16q-222 0 -400 24v133q190 -20 347 -20q162 0 215 35t53 141q0 91 -29.5 123t-122.5 41l-295 31q-119 12 -160.5 72t-41.5 218q0 91 20.5 149t71 95t130.5 51.5t206 14.5q220 0 348 -25v-133q-156 20 -316 20q-114 0 -172 -16t-80 -51.5t-22 -104.5
q0 -85 29 -113.5t123 -37.5l270 -31q73 -8 115 -23t69 -50t36 -87.5t9 -140.5q0 -180 -86.5 -247.5t-316.5 -67.5z" />
    <glyph glyph-name="t" unicode="t" horiz-adv-x="913" 
d="M123 1075h211v320h207v-320h250v-143h-250v-932h-207v932h-211v143z" />
    <glyph glyph-name="u" unicode="u" horiz-adv-x="1230" 
d="M889 16l-15 162h-6q-40 -86 -137 -132t-225 -46q-87 0 -145 12t-100 38.5t-64.5 76t-32.5 117.5t-10 170v678h202v-629q0 -68 3.5 -112.5t14 -81t27 -56.5t46 -33t66 -17.5t91.5 -4.5q178 0 238 100q19 29 25.5 86.5t6.5 185.5v562h203v-1076h-188z" />
    <glyph glyph-name="v" unicode="v" horiz-adv-x="1245" 
d="M113 1075h204l304 -889h8l303 889h201l-377 -1075h-267z" />
    <glyph glyph-name="w" unicode="w" horiz-adv-x="1847" 
d="M113 1075h200l242 -876l8 -2l271 878h186l266 -876h6l248 876h195l-316 -1075h-243l-248 778h-6l-254 -778h-246z" />
    <glyph glyph-name="x" unicode="x" horiz-adv-x="1304" 
d="M526 547l-379 528h224l286 -397h5l284 397h211l-379 -526l393 -549h-223l-299 418h-8l-297 -418h-211z" />
    <glyph glyph-name="y" unicode="y" horiz-adv-x="1230" 
d="M573 -444q-227 0 -364 20v133q188 -10 309 -10q136 0 208.5 23t107.5 77q23 34 31.5 85t8.5 141v147h-6q-72 -176 -362 -176q-108 0 -173.5 18t-106.5 67.5t-56.5 126.5t-15.5 204v663h202v-614q0 -65 1.5 -96.5t8.5 -74.5t22 -62t42.5 -39.5t70 -27.5t103.5 -7
q84 0 134 15.5t82 59.5t43 113t11 186v547h203v-954q0 -115 -9.5 -198t-33 -148t-59.5 -105.5t-94 -66.5t-131.5 -36.5t-176.5 -10.5z" />
    <glyph glyph-name="z" unicode="z" horiz-adv-x="1159" 
d="M143 141l619 791h-592v143h842v-141l-617 -791h621v-143h-873v141z" />
    <glyph glyph-name="braceleft" unicode="{" horiz-adv-x="876" 
d="M154 668q205 27 208 266l5 276q1 118 55.5 203.5t179.5 165.5h121q-182 -159 -182 -410v-231q0 -130 -55 -205.5t-169 -101.5v-8q224 -49 224 -308v-229q0 -251 182 -410h-121q-232 149 -235 369l-5 277q-3 240 -208 264v82z" />
    <glyph glyph-name="bar" unicode="|" horiz-adv-x="487" 
d="M334 1579v-1833h-180v1833h180z" />
    <glyph glyph-name="braceright" unicode="}" horiz-adv-x="876" 
d="M723 668v-82q-206 -24 -209 -264l-4 -277q-3 -220 -236 -369h-120q182 159 182 410v229q0 259 223 308v8q-114 26 -168.5 101t-54.5 206v231q0 251 -182 410h120q125 -80 180 -165.5t56 -203.5l4 -276q3 -239 209 -266z" />
    <glyph glyph-name="uni00A0" unicode="&#xa0;" horiz-adv-x="552" 
 />
    <glyph glyph-name="cent" unicode="&#xa2;" horiz-adv-x="1243" 
d="M721 209q-138 0 -221 23t-135.5 87t-71.5 166t-19 271v24q0 162 21.5 266.5t74 170.5t135 93t210.5 27q176 0 297 -26v-135q-126 18 -238 18q-89 0 -144 -18t-90 -66t-48 -124.5t-13 -201.5v-28q0 -158 28 -244t91.5 -123t179.5 -37q134 0 242 21v-135q-145 -29 -299 -29
zM633 1575h168v-270h-168v270zM633 242h168v-271h-168v271z" />
    <glyph glyph-name="sterling" unicode="&#xa3;" horiz-adv-x="1396" 
d="M326 1026q0 138 28.5 224.5t100 137.5t176.5 70t274 19q194 0 342 -29v-150q-192 17 -282 17q-98 0 -163 -7t-117 -25t-80 -51t-42 -83t-14 -123v-850h698v-176h-921v1026zM152 967h1028v-148h-1028v148zM152 612h1028v-147h-1028v147z" />
    <glyph glyph-name="currency" unicode="&#xa4;" horiz-adv-x="1562" 
d="M782 156q-177 0 -293 43l-28 10l-223 -225l-97 96l213 215l-10 24q-55 129 -55 410q0 127 10 223t43 183l10 26l-213 213l101 101l221 -224l22 9q119 45 299 45q202 0 297 -45l27 -13l223 228l98 -99l-213 -213l9 -22q53 -108 53 -412t-51 -410l-11 -22l213 -215
l-100 -100l-223 225l-27 -8q-139 -43 -295 -43zM782 299q107 0 161 15.5t79 52.5q53 77 53 360q0 129 -13 226.5t-36 133.5q-26 41 -80.5 57.5t-167.5 16.5q-103 0 -157 -17t-80 -57q-23 -37 -37.5 -134t-14.5 -224q0 -125 14.5 -223t37.5 -135q25 -40 78.5 -56t162.5 -16z
" />
    <glyph glyph-name="yen" unicode="&#xa5;" horiz-adv-x="1566" 
d="M672 547h-443v147h361l-105 187h-256v147h172l-241 432h227l240 -432h317l240 432h223l-244 -432h174v-147h-256l-104 -187h360v-147h-444v-547h-221v547zM860 881h-151l75 -133z" />
    <glyph glyph-name="brokenbar" unicode="&#xa6;" horiz-adv-x="487" 
d="M154 1579h180v-680l-180 -4v684zM154 424l180 4v-682h-180v678z" />
    <glyph glyph-name="copyright" unicode="&#xa9;" horiz-adv-x="1482" 
d="M838 334q-109 0 -166.5 14t-83.5 47q-72 90 -72 334q0 252 70 334q31 34 89 48.5t163 14.5q116 0 182 -14v-84q-57 8 -152 8q-81 0 -123.5 -11.5t-62.5 -37.5q-45 -61 -45 -256t45 -258q20 -28 59.5 -38.5t126.5 -10.5q80 0 156 8v-86q-86 -12 -186 -12zM170 729v84t3 98
t7.5 114t15 109.5t25 108.5t38 86t52.5 66q47 38 174.5 60t305.5 22q206 0 313.5 -18t165.5 -64q30 -24 53.5 -66.5t38 -85t25 -109t15 -108t7 -115t2.5 -97.5v-85q0 -63 -0.5 -99t-4 -116.5t-12.5 -136.5t-23.5 -122.5t-40.5 -114t-60 -74.5q-108 -82 -479 -82
q-207 0 -319 21t-169 71q-38 33 -65 100t-39.5 131.5t-19.5 158t-8 142t-1 121.5zM248 729q0 -70 0.5 -111.5t7 -132.5t18 -151t37 -122.5t60.5 -90.5q21 -17 49 -29.5t64.5 -20t65 -12.5t74.5 -6.5t68 -2t70.5 0t58.5 0.5q167 0 255 16t134 54q30 25 52.5 69t35 105
t20.5 112t11 125t3.5 106.5t0.5 90.5v66.5t-1 76t-4.5 92.5t-9 89.5t-15 94t-22.5 79t-32 72t-43 47.5q-81 63 -450 63q-152 0 -241.5 -13.5t-137.5 -49.5q-45 -34 -74 -106.5t-39.5 -176t-13 -164.5t-2.5 -152v-18z" />
    <glyph glyph-name="guillemotleft" unicode="&#xab;" horiz-adv-x="1079" 
d="M528 643l275 432h123l-232 -432l232 -430h-123zM154 643l274 432h125l-234 -432l234 -430h-125z" />
    <glyph glyph-name="logicalnot" unicode="&#xac;" horiz-adv-x="1138" 
d="M844 465h-690v141h831v-491h-141v350z" />
    <glyph glyph-name="uni00AD" unicode="&#xad;" horiz-adv-x="1206" 
d="M1053 436h-899v148h899v-148z" />
    <glyph glyph-name="registered" unicode="&#xae;" horiz-adv-x="1482" 
d="M870 1116q129 0 173 -50.5t44 -184.5q0 -88 -21.5 -137.5t-68.5 -71.5l-22 -10l123 -322h-123l-109 307h-241v-307h-115v776h360zM829 731q82 0 112 31t30 117q0 88 -27 118.5t-106 30.5h-213v-297h204zM170 729v84t3 98t7.5 114t15 109.5t25 108.5t38 86t52.5 66
q47 38 174.5 60t305.5 22q206 0 313.5 -18t165.5 -64q30 -24 53.5 -66.5t38 -85t25 -109t15 -108t7 -115t2.5 -97.5v-85q0 -63 -0.5 -99t-4 -116.5t-12.5 -136.5t-23.5 -122.5t-40.5 -114t-60 -74.5q-108 -82 -479 -82q-207 0 -319 21t-169 71q-38 33 -65 100t-39.5 131.5
t-19.5 158t-8 142t-1 121.5zM248 729q0 -70 0.5 -111.5t7 -132.5t18 -151t37 -122.5t60.5 -90.5q21 -17 49 -29.5t64.5 -20t65 -12.5t74.5 -6.5t68 -2t70.5 0t58.5 0.5q167 0 255 16t134 54q30 25 52.5 69t35 105t20.5 112t11 125t3.5 106.5t0.5 90.5v66.5t-1 76t-4.5 92.5
t-9 89.5t-15 94t-22.5 79t-32 72t-43 47.5q-81 63 -450 63q-152 0 -241.5 -13.5t-137.5 -49.5q-45 -34 -74 -106.5t-39.5 -176t-13 -164.5t-2.5 -152v-18z" />
    <glyph glyph-name="degree" unicode="&#xb0;" horiz-adv-x="866" 
d="M434 858q-103 0 -157.5 14.5t-81.5 47.5q-24 30 -32.5 83t-8.5 162q0 108 8.5 163.5t32.5 86.5q26 34 81.5 48t157.5 14q101 0 156 -14.5t82 -47.5q25 -29 33 -83t8 -167q0 -111 -9.5 -166.5t-35.5 -85.5q-49 -55 -234 -55zM434 940q92 0 125 31q23 23 28 60t5 134
q0 96 -6 133.5t-23 59.5q-15 20 -42.5 27.5t-86.5 7.5q-56 0 -86 -9.5t-49 -31.5q-8 -9 -13.5 -24.5t-8 -29.5t-4 -36.5t-2 -33.5t0 -34t0.5 -27v-23v-29t1 -28t2.5 -32t4.5 -27t8 -27.5t11 -19.5q18 -25 49 -33t86 -8z" />
    <glyph glyph-name="plusminus" unicode="&#xb1;" horiz-adv-x="1206" 
d="M1053 -178h-899v147h899v-147zM539 573h-346v140h346v350h139v-350h348v-140h-348v-348h-139v348z" />
    <glyph glyph-name="paragraph" unicode="&#xb6;" horiz-adv-x="1275" 
d="M154 967q0 88 2.5 148t12 114.5t22 87.5t38.5 61.5t55.5 42t79.5 24t104 13t134 2.5h207v-1771h-131v790q-122 0 -199 6t-140 26.5t-95.5 51t-55 89.5t-28.5 130t-6 185zM991 1460h131v-1771h-131v1771z" />
    <glyph glyph-name="periodcentered" unicode="&#xb7;" horiz-adv-x="526" 
d="M154 774v195l219 10v-205h-219z" />
    <glyph glyph-name="guillemotright" unicode="&#xbb;" horiz-adv-x="1079" 
d="M551 643l-275 -430h-122l231 430l-231 432h122zM926 643l-275 -430h-125l234 430l-234 432h125z" />
    <glyph glyph-name="multiply" unicode="&#xd7;" horiz-adv-x="1032" 
d="M156 268l262 264l-264 267l100 100l264 -266l264 264l97 -96l-265 -266l265 -267l-99 -98l-264 264l-262 -264z" />
    <glyph glyph-name="divide" unicode="&#xf7;" horiz-adv-x="1204" 
d="M154 584h897v-148h-897v148zM518 1018h156v-150h-156v150zM518 199h156v-152h-156v152z" />
    <glyph glyph-name="uni0609" unicode="&#x609;" horiz-adv-x="1992" 
d="M1626 418q98 0 155.5 -62t57.5 -163q0 -100 -58.5 -158t-158.5 -58q-97 0 -153 56.5t-56 154.5q0 103 56.5 166.5t156.5 63.5zM1624 328q-56 0 -89.5 -37t-33.5 -98q0 -50 25 -95q43 -32 98 -32q127 0 127 127q0 54 -29 104q-39 31 -98 31zM1063 418q98 0 155.5 -62
t57.5 -163q0 -100 -58.5 -158t-158.5 -58q-97 0 -153 56.5t-56 154.5q0 103 56.5 166.5t156.5 63.5zM1061 328q-56 0 -89.5 -37t-33.5 -98q0 -50 25 -95q43 -32 98 -32q127 0 127 127q0 54 -29 104q-39 31 -98 31zM1223 1264l-899 -1370l-129 90l897 1370zM367 1268
q101 0 157 -62t56 -164q0 -100 -59 -158.5t-159 -58.5q-96 0 -152 57t-56 154q0 105 56 168.5t157 63.5zM367 1178q-57 0 -91 -38t-34 -98q0 -52 24 -96q48 -31 99 -31q129 0 129 127q0 55 -31 103q-33 33 -96 33z" />
    <glyph glyph-name="uni060A" unicode="&#x60a;" horiz-adv-x="2560" 
d="M1626 418q98 0 155.5 -62t57.5 -163q0 -100 -58.5 -158t-158.5 -58q-97 0 -153 56.5t-56 154.5q0 103 56.5 166.5t156.5 63.5zM1624 328q-56 0 -89.5 -37t-33.5 -98q0 -50 25 -95q43 -32 98 -32q127 0 127 127q0 54 -29 104q-39 31 -98 31zM2193 418q98 0 155.5 -62
t57.5 -163q0 -100 -58.5 -158t-158.5 -58q-97 0 -153 56.5t-56 154.5q0 103 56.5 166.5t156.5 63.5zM2191 328q-56 0 -89.5 -37t-33.5 -98q0 -50 25 -95q43 -32 98 -32q127 0 127 127q0 56 -28 104q-39 31 -99 31zM1063 418q98 0 155.5 -62t57.5 -163q0 -100 -58.5 -158
t-158.5 -58q-97 0 -153 56.5t-56 154.5q0 103 56.5 166.5t156.5 63.5zM1061 328q-56 0 -89.5 -37t-33.5 -98q0 -50 25 -95q43 -32 98 -32q127 0 127 127q0 54 -29 104q-39 31 -98 31zM1223 1264l-899 -1370l-129 90l897 1370zM367 1268q101 0 157 -62t56 -164
q0 -100 -59 -158.5t-159 -58.5q-96 0 -152 57t-56 154q0 105 56 168.5t157 63.5zM367 1178q-57 0 -91 -38t-34 -98q0 -52 24 -96q48 -31 99 -31q129 0 129 127q0 55 -31 103q-33 33 -96 33z" />
    <glyph glyph-name="uni060B" unicode="&#x60b;" horiz-adv-x="2160" 
d="M868 -481l11 481h-469q-116 0 -186 72.5t-70 193.5v461l252 213h350q120 0 201 -76t81 -196v-457h33v-211h-33v-489zM856 647q-3 55 -42 91t-95 36h-260l-135 -117l-13 -319q-3 -63 37 -95t107 -32h419zM1024 0v211h688q57 0 94 36.5t37 92.5v63h-393q-115 0 -187.5 75
t-72.5 192v397l244 215h309q117 0 190.5 -73t73.5 -189v-684q0 -155 -83 -245.5t-236 -90.5h-664zM1827 989q-1 54 -40 89.5t-95 35.5h-199l-135 -117l-12 -262q-3 -63 38.5 -105t104.5 -42h358zM881 1114v195l219 10v-205h-219z" />
    <glyph glyph-name="uni060C" unicode="&#x60c;" horiz-adv-x="583" 
d="M297 369q-43 -49 -43 -84q0 -33 31 -69.5t102 -92.5l-113 -125q-120 114 -120 213q0 74 67 160l160 198l49 -47z" />
    <glyph glyph-name="uni060D" unicode="&#x60d;" horiz-adv-x="651" 
d="M324 557h174l-226 -680h-118z" />
    <glyph glyph-name="uni0615" unicode="&#x615;" 
d="M-166 80l25 39l-11 321l72 11v-224l-4 -37l29 46q22 37 100 59q42 10 92 10l84 -74v-135q0 -44 -28.5 -70t-75.5 -26h-283v80zM119 78q19 0 31 11t12 30l-4 80l-47 41q-27 0 -62 -7q-58 -14 -82 -53l-67 -100z" />
    <glyph glyph-name="uni061B" unicode="&#x61b;" horiz-adv-x="583" 
d="M162 0v195l219 10v-205h-219zM297 809q-43 -49 -43 -84q0 -33 31 -69.5t102 -92.5l-113 -125q-120 114 -120 213q0 74 67 160l160 199l49 -47z" />
    <glyph glyph-name="uni061F" unicode="&#x61f;" horiz-adv-x="956" 
d="M768 1139q-5 58 -49.5 102.5t-100.5 44.5h-178l-108 -92l-15 -246q-3 -45 35 -88.5t87.5 -74t105.5 -74.5t80 -86q23 -40 29.5 -115.5t-5.5 -167.5l-155 -2q19 153 -15 209q-15 27 -47.5 54t-67.5 48.5t-73 49.5t-68 56t-49.5 68.5t-19.5 87.5v340l241 211h254
q100 0 180.5 -74t83.5 -169l2 -70zM434 -41v242l273 12v-254h-273z" />
    <glyph glyph-name="uni0640" unicode="&#x640;" horiz-adv-x="407" 
d="M-2 0v211h410q12 0 21 -30.5t9 -74.5t-9 -75t-21 -31h-410z" />
    <glyph glyph-name="uni064B" unicode="&#x64b;" 
d="M211 190l31 -90l-451 -100l-22 82zM203 414l26 -84l-446 -109l-27 90z" />
    <glyph glyph-name="uni064C" unicode="&#x64c;" 
d="M-150 164q12 26 4.5 39.5t-32.5 9.5l-90 -16l-4 57l106 18q63 11 88.5 -21t-2.5 -89l-31 -64l125 31l-30 123q-8 31 7.5 60t47.5 38l98 29l105 -53l26 -111q13 -55 -6.5 -92.5t-66.5 -46.5l-359 -74l-22 80zM180 170q12 3 18.5 16.5t2.5 26.5l-21 66l-43 20l-53 -14
q-14 -3 -22 -15.5t-5 -25.5l21 -101z" />
    <glyph glyph-name="uni064D" unicode="&#x64d;" 
d="M211 -223l31 -90l-451 -101l-22 82zM203 0l26 -84l-446 -109l-27 91z" />
    <glyph glyph-name="uni064E" unicode="&#x64e;" 
d="M-215 0l-23 80l443 110l31 -90z" />
    <glyph glyph-name="uni064F" unicode="&#x64f;" 
d="M-221 82l182 47l-31 125q-8 33 7.5 61.5t48.5 38.5l98 27l102 -53l29 -111q13 -55 -7 -91.5t-67 -47.5l-340 -78zM123 170q13 3 21 17t3 28l-22 68l-39 18l-57 -12q-13 -3 -20.5 -15.5t-4.5 -27.5l21 -103z" />
    <glyph glyph-name="uni0650" unicode="&#x650;" 
d="M-215 -193l-23 82l443 111l31 -90z" />
    <glyph glyph-name="uni0651" unicode="&#x651;" 
d="M186 330l95 6v-197q0 -63 -41.5 -101t-110.5 -38q-50 0 -87.5 24.5t-41.5 61.5q-4 -37 -43 -61.5t-90 -24.5q-66 0 -106 38t-40 101v178l91 -4l-17 -151q-3 -32 19 -53t59 -21t61.5 21t24.5 53v119l80 2v-123q2 -32 24.5 -52t59.5 -20t59 19.5t19 50.5z" />
    <glyph glyph-name="uni0652" unicode="&#x652;" 
d="M-12 451q95 0 166 -66t71 -154q0 -86 -66.5 -157.5t-146.5 -71.5q-98 0 -167.5 67t-69.5 162q0 79 68 149.5t145 70.5zM12 92q43 4 78 47t35 90q0 51 -42 91t-95 40q-38 0 -72.5 -42.5t-34.5 -88.5q0 -61 39 -102t92 -35z" />
    <glyph glyph-name="uni0653" unicode="&#x653;" 
d="M-352 287q220 -35 381 -35.5t379 39.5v-172q-190 -40 -346.5 -40t-346.5 38v-183h-110l-15 277z" />
    <glyph glyph-name="uni0654" unicode="&#x654;" 
d="M-166 0l-35 88l76 41q-23 3 -39 35l-45 86q-18 34 -18 61q0 24 14 64q4 9 13 35.5t16 44.5l110 51q42 20 82.5 7t65.5 -52l14 -31l-61 -29q-37 50 -84 27l-68 -37q-14 -45 -16 -55q-4 -12 -4 -27q0 -24 16 -55l31 -55q17 -31 37.5 -34.5t58.5 19.5l195 115l43 -84z" />
    <glyph glyph-name="uni0655" unicode="&#x655;" 
d="M-166 -532l-35 88l76 41q-24 3 -39 34l-45 86q-18 34 -18 62q0 23 14 63q4 9 13 35.5t16 44.5l110 51q42 20 82.5 7t65.5 -52l14 -30l-61 -29q-16 22 -38 30t-46 -3l-68 -37q-14 -43 -16 -56q-4 -12 -4 -26q0 -25 16 -56l31 -55q17 -31 37.5 -34t58.5 20l195 115l43 -84z
" />
    <glyph glyph-name="uni0656" unicode="&#x656;" 
d="M-37 -8l72 8l-2 -301l-56 -6z" />
    <glyph glyph-name="uni065A" unicode="&#x65a;" 
d="M41 0h-55l137 440l84 -16zM37 6l-51 -6l-191 408l82 30z" />
    <glyph glyph-name="uni065B" unicode="&#x65b;" 
d="M123 0l-137 440h55l166 -424zM-205 33l191 407l51 -6l-160 -432z" />
    <glyph glyph-name="uni0660" unicode="&#x660;" horiz-adv-x="557" 
d="M123 127v274l311 11v-285h-311z" />
    <glyph glyph-name="uni0661" unicode="&#x661;" horiz-adv-x="579" 
d="M244 408q-12 423 -142 854l185 49q61 -171 97.5 -407t37.5 -484l4 -547l-164 -18z" />
    <glyph glyph-name="uni0662" unicode="&#x662;" horiz-adv-x="1161" 
d="M580 483q-47 0 -92 19t-74 51q8 -54 8 -170l4 -510l-166 -18l-14 526q-12 441 -144 881l183 49q26 -65 45 -147.5t38 -199t27 -155.5q10 -51 57.5 -83t110.5 -32h45q107 0 169 40t59 106l-25 458l197 15v-502q0 -155 -102 -241.5t-285 -86.5h-41z" />
    <glyph glyph-name="uni0663" unicode="&#x663;" horiz-adv-x="1587" 
d="M1434 811q0 -156 -89.5 -244t-254.5 -88q-81 0 -157 43t-106 109q-44 -71 -113.5 -110.5t-148.5 -39.5q-44 0 -85 18.5t-64 49.5q6 -85 6 -166l4 -510l-166 -18l-14 522q-12 451 -144 885l183 49q28 -74 46.5 -156t36.5 -198.5t27 -161.5q9 -49 50.5 -76t109.5 -27
t115.5 32t60.5 87q41 158 41 399l178 2q-2 -32 -6.5 -97.5t-7.5 -105.5t-9 -95.5t-14 -102.5q10 -51 54.5 -84t101.5 -33h21q178 0 172 140l-25 464l197 15v-502z" />
    <glyph glyph-name="uni0664" unicode="&#x664;" horiz-adv-x="1093" 
d="M475 -150q-181 0 -277 102t-96 294q0 161 38 239t136 119q-114 82 -114 262q0 210 86 319.5t250 108.5l434 -6l-19 -198l-411 32q-66 4 -107 -64t-41 -181q0 -97 44 -156t112 -53l418 37l-13 -173q-78 -3 -220 -13t-189 -13q-108 -6 -156.5 -60t-48.5 -165
q0 -118 38 -173t120 -53l532 15l-28 -220h-488z" />
    <glyph glyph-name="uni0665" unicode="&#x665;" horiz-adv-x="1411" 
d="M330 227q0 -92 101 -142t286 -50t275.5 46.5t90.5 143.5q0 418 -96 580q-69 115 -203 162l-204 71q-57 -80 -107 -174q-78 -152 -110.5 -294.5t-32.5 -342.5zM154 195q0 257 36.5 430.5t124.5 326.5q30 54 82 133l-118 39l45 191l534 -187q193 -67 291 -241
q64 -115 86 -269t22 -401q0 -190 -139 -283.5t-422 -93.5q-256 0 -399 94t-143 261z" />
    <glyph glyph-name="uni0666" unicode="&#x666;" horiz-adv-x="1177" 
d="M135 1311q146 -31 361 -31q68 0 194.5 9t175.5 11q59 2 81.5 -27t21.5 -104q-11 -440 -11 -481q0 -409 66 -811l-182 -35q-70 366 -70 848q0 292 8 443q-152 -33 -307 -33q-190 0 -360 45z" />
    <glyph glyph-name="uni0667" unicode="&#x667;" horiz-adv-x="1427" 
d="M741 -150q-86 -1 -123.5 26.5t-60.5 109.5q-4 16 -22 80t-24.5 88.5t-24 85t-27.5 93.5t-27 89t-30.5 96t-31 89.5t-34.5 94.5q-113 298 -254 527l164 98q235 -373 438 -1253q3 -17 10.5 -23t24.5 -6h22q209 877 441 1282l164 -98q-149 -262 -272.5 -594.5t-239.5 -781.5
z" />
    <glyph glyph-name="uni0668" unicode="&#x668;" horiz-adv-x="1427" 
d="M741 1325l93 -2q116 -449 239.5 -781.5t272.5 -594.5l-164 -99q-232 405 -441 1282h-22q-18 0 -25 -5.5t-10 -22.5q-203 -881 -438 -1254l-164 99q142 231 254 526q19 51 37.5 103t38 112.5t32 100t32.5 110t27 96t29 104.5t25 91q23 82 60.5 109t123.5 26z" />
    <glyph glyph-name="uni0669" unicode="&#x669;" horiz-adv-x="1126" 
d="M852 -154q-48 235 -70 600q-163 -29 -327 -26q-301 9 -301 266v416l225 194h280q123 0 202 -75.5t79 -192.5v-522q0 -119 19 -260t65 -367zM311 756q-1 -63 37.5 -103.5t100.5 -42.5q199 -4 325 19l-10 377q-1 53 -43 88.5t-100 35.5h-191l-113 -102z" />
    <glyph glyph-name="uni066A" unicode="&#x66a;" horiz-adv-x="1429" 
d="M1063 418q98 0 155.5 -62t57.5 -163q0 -100 -58.5 -158t-158.5 -58q-97 0 -153 56.5t-56 154.5q0 103 56.5 166.5t156.5 63.5zM1061 328q-56 0 -89.5 -37t-33.5 -98q0 -50 25 -95q43 -32 98 -32q127 0 127 127q0 54 -29 104q-39 31 -98 31zM1223 1264l-899 -1370l-129 90
l897 1370zM367 1268q101 0 157 -62t56 -164q0 -100 -59 -158.5t-159 -58.5q-96 0 -152 57t-56 154q0 105 56 168.5t157 63.5zM367 1178q-57 0 -91 -38t-34 -98q0 -52 24 -96q48 -31 99 -31q129 0 129 127q0 55 -31 103q-33 33 -96 33z" />
    <glyph glyph-name="uni066B" unicode="&#x66b;" horiz-adv-x="651" 
d="M324 557h174l-226 -680h-118z" />
    <glyph glyph-name="uni066C" unicode="&#x66c;" horiz-adv-x="583" 
d="M287 31q43 49 43 84q0 33 -30.5 69t-102.5 92l112 125q121 -115 121 -213q0 -72 -68 -159l-159 -199l-49 47z" />
    <glyph glyph-name="uni066E" unicode="&#x66e;" horiz-adv-x="1974" 
d="M438 0q-126 0 -205 83.5t-79 211.5v461l186 8v-430q0 -54 28.5 -88.5t75.5 -34.5h1063q58 0 101.5 37t40.5 90l-27 500l199 14v-565q0 -125 -84.5 -206t-208.5 -81h-1090z" />
    <glyph glyph-name="uni066F" unicode="&#x66f;" horiz-adv-x="1609" 
d="M621 -508q-204 0 -335.5 128t-131.5 327v590l186 8v-563q0 -126 76 -203.5t200 -77.5q277 0 458 47.5t224 130.5q9 18 9 90v31h-420q-119 0 -194 71t-75 189v416l244 215h328q117 0 191.5 -72.5t74.5 -187.5v-684q0 -235 -202 -345t-633 -110zM1278 584q-3 64 -45 103
t-107 38h-202l-138 -119l-12 -278q-3 -63 26.5 -90t98.5 -27h397z" />
    <glyph glyph-name="uni0670" unicode="&#x670;" 
d="M-37 299l72 8l-2 -301l-56 -6z" />
    <glyph glyph-name="uni0695" unicode="&#x695;" horiz-adv-x="667" 
d="M315 754l199 14v-805q0 -193 -160.5 -335.5t-455.5 -211.5l-70 215q225 43 372 141t144 201zM266 -1055h-55l137 441l84 -17zM262 -1049l-51 -6l-191 408l82 31z" />
    <glyph glyph-name="uni06A0" unicode="&#x6a0;" horiz-adv-x="1316" 
d="M516 -596q-162 0 -262 90t-100 236v94q0 174 33 247t128 107q-28 24 -48.5 80.5t-20.5 118.5v141q0 103 7.5 154.5t29.5 91.5q9 16 22 33.5t31.5 37.5t32.5 34.5t39.5 37t36 32t37.5 32.5t30 26h293q110 0 189 -76t79 -180v-61l-149 -12q0 65 -43 108t-105 43h-180
q-4 -3 -25 -21t-29.5 -26t-27 -25.5t-29 -29.5t-22 -28t-17.5 -30q-7 -15 -10 -35t-4 -35.5t-2 -62.5l-4 -145q-2 -80 39 -116.5t127 -24.5l541 73l30 -182l-618 -96q-57 -9 -93 -25.5t-56.5 -33.5t-29.5 -58.5t-10.5 -72.5t-1.5 -103v-12q0 -67 44 -105t118 -35l633 25
l-35 -211h-598zM584 1556v173l192 8v-181h-192zM711 1395l286 -135l-645 -17v152h359zM649 1251v144h314l45 -27v-108z" />
    <glyph glyph-name="uni06A1" unicode="&#x6a1;" horiz-adv-x="1957" 
d="M438 0q-125 0 -204.5 81t-79.5 208v467l186 8v-430q0 -55 27.5 -89t76.5 -34h578v-211h-584zM821 0v211h688q57 0 94 36.5t37 92.5v63h-393q-115 0 -187.5 75t-72.5 192v397l244 215h309q117 0 190.5 -73t73.5 -189v-684q0 -155 -83 -245.5t-236 -90.5h-664zM1624 989
q-1 54 -40 89.5t-95 35.5h-199l-135 -117l-12 -262q-3 -63 38.5 -105t104.5 -42h359z" />
    <glyph glyph-name="uni06AA" unicode="&#x6aa;" horiz-adv-x="1986" 
d="M1833 295q0 -129 -82 -212t-211 -83h-1358l-28 242l1368 -31q61 -2 102.5 36.5t38.5 94.5l-12 272q-3 55 -44.5 91.5t-101.5 33.5l-997 -43l-23 189l580 577l137 -125l-477 -442l791 31q141 5 229 -74.5t88 -212.5v-344z" />
    <glyph glyph-name="uni06B5" unicode="&#x6b5;" horiz-adv-x="1513" 
d="M633 -459q-214 0 -346.5 130t-132.5 339v512l186 6v-495q0 -123 80.5 -203t204.5 -80q569 0 563 281l-37 1403l197 16l10 -1454q1 -226 -181.5 -340.5t-543.5 -114.5zM1288 1696h-55l137 440l84 -16zM1284 1702l-51 -6l-191 407l82 31z" />
    <glyph glyph-name="uni06BD" unicode="&#x6bd;" horiz-adv-x="1546" 
d="M154 598l186 6v-559q0 -125 81 -204t206 -79q281 0 438.5 74.5t153.5 204.5l-29 780l196 17l5 -830q2 -223 -196 -340t-577 -117q-125 0 -231.5 60t-169.5 165.5t-63 231.5v590zM645 1106v172l193 8v-180h-193zM772 944l287 -135l-645 -16v151h358zM711 801v143h313
l45 -26v-109z" />
    <glyph glyph-name="uni06C2" unicode="&#x6c2;" horiz-adv-x="1189" 
d="M748 217q43 1 75.5 47t32.5 101q-10 91 -39.5 198.5t-54.5 149.5q-27 47 -146 90l-43 14l-104 -98q-18 -17 -47.5 -43.5t-42.5 -39t-26.5 -28t-18.5 -26.5q-12 -25 -12 -95l-3 -135q-2 -58 36 -100t91 -41zM451 0q-128 0 -212.5 85t-84.5 214v215q0 88 18 125q8 18 31 46
t42 47t52 51t37 36l57 55l-147 44l47 180q252 -76 428 -148q77 -31 123 -64t76 -79q41 -64 75.5 -211.5t40.5 -282.5q4 -123 -87.5 -218t-211.5 -95h-284zM360 1341l-34 89l75 40q-23 3 -39 35l-45 86q-18 34 -18 62q0 23 14 63q4 9 13 35.5t16 44.5l111 51q42 20 82 7
t65 -52l14 -30l-61 -29q-36 49 -84 26l-68 -36q-14 -43 -16 -56q-4 -12 -4 -26q0 -25 16 -56l31 -55q17 -31 37.5 -34t58.5 20l195 114l43 -84z" />
    <glyph glyph-name="uni06C3" unicode="&#x6c3;" horiz-adv-x="1189" 
d="M748 217q43 1 75.5 47t32.5 101q-10 91 -39.5 198.5t-54.5 149.5q-27 47 -146 90l-43 14l-104 -98q-18 -17 -47.5 -43.5t-42.5 -39t-26.5 -28t-18.5 -26.5q-12 -25 -12 -95l-3 -135q-2 -58 36 -100t91 -41zM451 0q-128 0 -212.5 85t-84.5 214v215q0 88 18 125q8 18 31 46
t42 47t52 51t37 36l57 55l-147 44l47 180q252 -76 428 -148q77 -31 123 -64t76 -79q41 -64 75.5 -211.5t40.5 -282.5q4 -123 -87.5 -218t-211.5 -95h-284zM557 1452l287 -135l-645 -17v152h358zM496 1309v143h313l45 -27v-108z" />
    <glyph glyph-name="uni06CA" unicode="&#x6ca;" horiz-adv-x="1191" 
d="M434 -344q173 38 273 81.5t138 90.5t36 109l-2 57h-469q-116 0 -186 72.5t-70 193.5v461l252 213h350q121 0 201.5 -76t80.5 -196l-2 -734q0 -191 -153.5 -312.5t-474.5 -184.5l-166 -33l-47 211zM856 641q-3 55 -42 91t-95 36h-260l-135 -117l-13 -319q-1 -63 38.5 -95
t105.5 -32h419zM659 1329l287 -135l-645 -16v151h358zM598 1186v143h313l45 -26v-109z" />
    <glyph glyph-name="uni06CE" unicode="&#x6ce;" horiz-adv-x="1615" 
d="M154 575l186 9v-564q0 -121 79.5 -200.5t201.5 -79.5q203 0 324.5 10.5t213.5 44.5q128 50 152 152q2 7 2 47q0 26 -12.5 35.5t-49.5 9.5h-401q-111 0 -159 48.5t-48 160.5v465l266 235h269q101 0 182.5 -77t81.5 -177v-61l-148 -8q-3 56 -47 100.5t-100 44.5h-191
l-135 -117l-14 -344q-1 -54 23 -76t81 -22h389q78 0 120 -38.5t42 -111.5q0 -75 -2 -112q-12 -202 -186 -307q-104 -62 -261.5 -86.5t-391.5 -24.5q-125 0 -232.5 61.5t-171 166.5t-63.5 227v589zM276 758h-55l137 440l84 -16zM272 764l-51 -6l-190 407l82 31z" />
    <glyph glyph-name="uni06CF" unicode="&#x6cf;" horiz-adv-x="1191" 
d="M434 -344q173 38 273 81.5t138 90.5t36 109l-2 57h-469q-116 0 -186 72.5t-70 193.5v461l252 213h350q121 0 201.5 -76t80.5 -196l-2 -734q0 -191 -153.5 -312.5t-474.5 -184.5l-166 -33l-47 211zM856 641q-3 55 -42 91t-95 36h-260l-135 -117l-13 -319q-1 -63 38.5 -95
t105.5 -32h419zM518 1178v194l219 10v-204h-219z" />
    <glyph glyph-name="uni06D5" unicode="&#x6d5;" horiz-adv-x="1189" 
d="M748 217q43 1 75.5 47t32.5 101q-10 91 -39.5 198.5t-54.5 149.5q-27 47 -146 90l-43 14l-104 -98q-18 -17 -47.5 -43.5t-42.5 -39t-26.5 -28t-18.5 -26.5q-12 -25 -12 -95l-3 -135q-2 -58 36 -100t91 -41zM451 0q-128 0 -212.5 85t-84.5 214v215q0 88 18 125q8 18 31 46
t42 47t52 51t37 36l57 55l-147 44l47 180q252 -76 428 -148q77 -31 123 -64t76 -79q41 -64 75.5 -211.5t40.5 -282.5q4 -123 -87.5 -218t-211.5 -95h-284z" />
    <glyph glyph-name="uni06F0" unicode="&#x6f0;" horiz-adv-x="980" 
d="M489 563q-95 0 -149.5 -61t-54.5 -160q0 -103 34 -162q63 -47 168 -47q211 0 211 209q0 115 -34 174q-63 47 -175 47zM492 696q157 0 246 -96.5t89 -257.5q0 -160 -92 -251t-252 -91q-150 0 -239.5 90t-89.5 244q0 164 88 263t250 99z" />
    <glyph glyph-name="uni06F1" unicode="&#x6f1;" horiz-adv-x="579" 
d="M244 408q-12 423 -142 854l185 49q61 -171 97.5 -407t37.5 -484l4 -547l-164 -18z" />
    <glyph glyph-name="uni06F2" unicode="&#x6f2;" horiz-adv-x="1161" 
d="M580 483q-47 0 -92 19t-74 51q8 -54 8 -170l4 -510l-166 -18l-14 526q-12 441 -144 881l183 49q26 -65 45 -147.5t38 -199t27 -155.5q10 -51 57.5 -83t110.5 -32h45q107 0 169 40t59 106l-25 458l197 15v-502q0 -155 -102 -241.5t-285 -86.5h-41z" />
    <glyph glyph-name="uni06F3" unicode="&#x6f3;" horiz-adv-x="1587" 
d="M1434 811q0 -156 -89.5 -244t-254.5 -88q-81 0 -157 43t-106 109q-44 -71 -113.5 -110.5t-148.5 -39.5q-44 0 -85 18.5t-64 49.5q6 -85 6 -166l4 -510l-166 -18l-14 522q-12 451 -144 885l183 49q28 -74 46.5 -156t36.5 -198.5t27 -161.5q9 -49 50.5 -76t109.5 -27
t115.5 32t60.5 87q41 158 41 399l178 2q-2 -32 -6.5 -97.5t-7.5 -105.5t-9 -95.5t-14 -102.5q10 -51 54.5 -84t101.5 -33h21q178 0 172 140l-25 464l197 15v-502z" />
    <glyph glyph-name="uni06F4" unicode="&#x6f4;" horiz-adv-x="1392" 
d="M696 436q-170 -6 -276 56q2 -27 2 -117l4 -502l-166 -18l-14 526q-12 454 -144 881l185 49q86 -236 121 -621q35 -60 170 -51q-5 40 -14.5 120t-14.5 120q-23 198 66 317t262 119h366l-16 -197l-342 19q-72 4 -119 -73.5t-35 -180.5q21 -174 37 -244l502 25l-13 -209z
" />
    <glyph glyph-name="uni06F5" unicode="&#x6f5;" horiz-adv-x="1495" 
d="M1341 147q0 -148 -89 -224.5t-255 -76.5q-75 0 -141.5 37t-103.5 97q-44 -61 -118.5 -97.5t-156.5 -36.5q-135 0 -229 85t-94 216q0 260 44.5 459t143.5 383q41 73 57 98l-114 39l45 191l600 -201q152 -51 260 -205q79 -112 115 -293.5t36 -470.5zM1169 178
q0 416 -104 596q-71 125 -234 180l-249 84q-62 -87 -93 -151q-87 -171 -121 -323.5t-34 -373.5q0 -66 42 -100.5t113 -34.5q61 0 108 27.5t67 73.5q10 24 16 75l22 162l162 -14q-4 -68 -28 -207q8 -50 50.5 -84.5t96.5 -34.5h16q170 0 170 125z" />
    <glyph glyph-name="uni06F6" unicode="&#x6f6;" horiz-adv-x="1374" 
d="M391 1018q-50 -43 -21.5 -127t119.5 -166l56 -49q47 -43 121.5 -55t124.5 16q137 174 346 344l135 -129q-293 -256 -443 -475t-268 -565l-141 65q54 180 103.5 301.5t121.5 237.5q-64 -7 -139 28t-131 86l-76 70q-123 112 -143 246t71 229l342 357l136 -146z" />
    <glyph glyph-name="uni06F7" unicode="&#x6f7;" horiz-adv-x="1427" 
d="M741 -150q-86 -1 -123.5 26.5t-60.5 109.5q-4 16 -22 80t-24.5 88.5t-24 85t-27.5 93.5t-27 89t-30.5 96t-31 89.5t-34.5 94.5q-113 298 -254 527l164 98q235 -373 438 -1253q3 -17 10.5 -23t24.5 -6h22q209 877 441 1282l164 -98q-149 -262 -272.5 -594.5t-239.5 -781.5
z" />
    <glyph glyph-name="uni06F8" unicode="&#x6f8;" horiz-adv-x="1427" 
d="M741 1325l93 -2q116 -449 239.5 -781.5t272.5 -594.5l-164 -99q-232 405 -441 1282h-22q-18 0 -25 -5.5t-10 -22.5q-203 -881 -438 -1254l-164 99q142 231 254 526q19 51 37.5 103t38 112.5t32 100t32.5 110t27 96t29 104.5t25 91q23 82 60.5 109t123.5 26z" />
    <glyph glyph-name="uni06F9" unicode="&#x6f9;" horiz-adv-x="1126" 
d="M852 -154q-48 235 -70 600q-163 -29 -327 -26q-301 9 -301 266v416l225 194h280q123 0 202 -75.5t79 -192.5v-522q0 -119 19 -260t65 -367zM311 756q-1 -63 37.5 -103.5t100.5 -42.5q199 -4 325 19l-10 377q-1 53 -43 88.5t-100 35.5h-191l-113 -102z" />
    <glyph glyph-name="uni0762" unicode="&#x762;" horiz-adv-x="1982" 
d="M440 881v194l219 10v-204h-219zM438 0q-128 0 -206 79.5t-78 209.5v467l186 8v-430q0 -55 27.5 -89t76.5 -34h1049q68 0 113.5 36t46.5 91l-68 299l-686 338l6 201l789 331l88 -178l-664 -248l621 -317q8 -38 25.5 -112t28 -120t21 -110t13.5 -119q7 -123 -88.5 -213
t-227.5 -90h-1073z" />
    <glyph glyph-name="uni2000" unicode="&#x2000;" horiz-adv-x="1382" 
 />
    <glyph glyph-name="uni2001" unicode="&#x2001;" horiz-adv-x="2764" 
 />
    <glyph glyph-name="uni2002" unicode="&#x2002;" horiz-adv-x="1382" 
 />
    <glyph glyph-name="uni2003" unicode="&#x2003;" horiz-adv-x="2764" 
 />
    <glyph glyph-name="uni2004" unicode="&#x2004;" horiz-adv-x="968" 
 />
    <glyph glyph-name="uni2005" unicode="&#x2005;" horiz-adv-x="692" 
 />
    <glyph glyph-name="uni2006" unicode="&#x2006;" horiz-adv-x="483" 
 />
    <glyph glyph-name="uni2007" unicode="&#x2007;" horiz-adv-x="2129" 
 />
    <glyph glyph-name="uni2008" unicode="&#x2008;" horiz-adv-x="692" 
 />
    <glyph glyph-name="uni2009" unicode="&#x2009;" horiz-adv-x="346" 
 />
    <glyph glyph-name="uni200A" unicode="&#x200a;" horiz-adv-x="346" 
 />
    <glyph glyph-name="uni200B" unicode="&#x200b;" 
 />
    <glyph glyph-name="uni200C" unicode="&#x200c;" 
d="M45 1511v-1835h-90v1835h90z" />
    <glyph glyph-name="uni200D" unicode="&#x200d;" 
d="M45 -324h-90v1633l-154 -158l-59 55l203 199l-203 197l59 57l199 -203l199 203l59 -57l-203 -197l203 -199l-59 -55l-154 158v-1633z" />
    <glyph glyph-name="uni200E" unicode="&#x200e;" 
d="M797 1407l-254 -254l-60 57l162 156h-313v-1690h-82v1772h395l-162 154l60 57z" />
    <glyph glyph-name="uni200F" unicode="&#x200f;" 
d="M504 1659l55 -57l-158 -154h392v-1772h-82v1690h-310l158 -156l-55 -57l-254 254z" />
    <glyph glyph-name="uni2011" unicode="&#x2011;" horiz-adv-x="1206" 
d="M1053 436h-899v148h899v-148z" />
    <glyph glyph-name="figuredash" unicode="&#x2012;" horiz-adv-x="1298" 
d="M1145 575h-991v146h991v-146z" />
    <glyph glyph-name="endash" unicode="&#x2013;" horiz-adv-x="1298" 
d="M1145 561h-991v146h991v-146z" />
    <glyph glyph-name="emdash" unicode="&#x2014;" horiz-adv-x="1912" 
d="M154 707h1605v-146h-1605v146z" />
    <glyph glyph-name="uni2015" unicode="&#x2015;" horiz-adv-x="1912" 
d="M154 721h1605v-146h-1605v146z" />
    <glyph glyph-name="quoteleft" unicode="&#x2018;" horiz-adv-x="583" 
d="M297 1544q-43 -49 -43 -84q0 -33 31 -69.5t102 -92.5l-113 -124q-120 114 -120 212q0 74 67 160l160 199l49 -47z" />
    <glyph glyph-name="quoteright" unicode="&#x2019;" horiz-adv-x="583" 
d="M287 1401q43 49 43 84q0 33 -31 69.5t-102 92.5l112 125q121 -115 121 -213q0 -73 -68 -160l-159 -199l-49 47z" />
    <glyph glyph-name="quotedblleft" unicode="&#x201c;" horiz-adv-x="870" 
d="M584 1249q-43 -49 -43 -84q0 -33 30.5 -69t102.5 -92l-113 -125q-121 115 -121 213q0 72 68 159l160 199l49 -47zM297 1249q-43 -49 -43 -84q0 -33 30.5 -69t102.5 -92l-113 -125q-120 114 -120 213q0 73 67 159l160 199l49 -47z" />
    <glyph glyph-name="quotedblright" unicode="&#x201d;" horiz-adv-x="897" 
d="M287 860q43 49 43 84q0 33 -31 69.5t-102 92.5l112 125q121 -115 121 -213q0 -73 -68 -160l-159 -199l-49 48zM600 860q43 49 43 84q0 33 -31 69.5t-102 92.5l113 125q120 -114 120 -213q0 -74 -67 -160l-160 -199l-49 48z" />
    <glyph glyph-name="bullet" unicode="&#x2022;" horiz-adv-x="1343" 
d="M154 569q0 221 148.5 369.5t369.5 148.5t369.5 -148.5t148.5 -369.5q0 -146 -66.5 -264.5t-185.5 -186t-266 -67.5q-225 0 -371.5 144t-146.5 374z" />
    <glyph glyph-name="ellipsis" unicode="&#x2026;" horiz-adv-x="1605" 
d="M692 0v195l219 10v-205h-219zM1233 0v195l219 10v-205h-219zM154 0v195l219 10v-205h-219z" />
    <glyph glyph-name="uni2028" unicode="&#x2028;" 
 />
    <glyph glyph-name="uni2029" unicode="&#x2029;" 
 />
    <glyph glyph-name="uni202A" unicode="&#x202a;" 
d="M-66 2030h-139v55h139v-55zM2 2085h119l-96 96l38 39l166 -166l-166 -166l-38 41l96 101h-119v55z" />
    <glyph glyph-name="uni202B" unicode="&#x202b;" 
d="M66 2085h139v-55h-139v55zM-2 2030h-117l94 -101l-38 -39l-166 164l166 166l38 -35l-96 -100h119v-55z" />
    <glyph glyph-name="uni202C" unicode="&#x202c;" 
d="M-125 2036l-41 39l166 166l166 -166l-41 -39l-96 96v-244h-58v242z" />
    <glyph glyph-name="uni202D" unicode="&#x202d;" 
d="M-88 2181l39 39l166 -166l-166 -166l-39 41l96 101h-258v55h258zM66 2181l38 39l166 -166l-166 -166l-38 41l129 125z" />
    <glyph glyph-name="uni202E" unicode="&#x202e;" 
d="M-8 2140h258v-55h-258l100 -96l-43 -43l-162 165l162 166l43 -36zM-195 2111l129 -122l-38 -43l-166 165l166 166l38 -36z" />
    <glyph glyph-name="uni202F" unicode="&#x202f;" horiz-adv-x="346" 
 />
    <glyph glyph-name="guilsinglleft" unicode="&#x2039;" horiz-adv-x="704" 
d="M428 1075h123l-232 -432l232 -430h-123l-274 430z" />
    <glyph glyph-name="guilsinglright" unicode="&#x203a;" horiz-adv-x="704" 
d="M276 1075l275 -432l-275 -430h-122l231 430l-231 432h122z" />
    <glyph glyph-name="fraction" unicode="&#x2044;" horiz-adv-x="1050" 
d="M735 1563h162l-584 -1602h-159z" />
    <glyph glyph-name="uni204B" unicode="&#x204b;" horiz-adv-x="1275" 
d="M1122 967q0 -114 -6 -185t-28.5 -130t-55 -89.5t-95.5 -51t-140 -26.5t-199 -6v-790h-131v1771h207q80 0 134 -2.5t104 -13t79.5 -24t55.5 -42t38.5 -61.5t22 -87.5t12 -114.5t2.5 -148zM285 1460v-1771h-131v1771h131z" />
    <glyph glyph-name="uni2060" unicode="&#x2060;" horiz-adv-x="1382" 
 />
    <glyph glyph-name="Euro" unicode="&#x20ac;" horiz-adv-x="1540" 
d="M395 926q0 113 10.5 193.5t37.5 144t68.5 103.5t108.5 66t151.5 36t203.5 10q194 0 342 -29v-150q-192 17 -283 17q-95 0 -156 -5t-111 -22t-76.5 -41.5t-44 -71.5t-23 -104t-5.5 -147h-223zM1317 -14q-148 -29 -342 -29q-119 0 -203.5 10t-151.5 36t-108.5 66
t-68.5 103.5t-37.5 144t-10.5 193.5h223q0 -90 5.5 -147t23 -104t44 -71.5t76.5 -41.5t111 -22t156 -5q102 0 283 16v-149zM223 948h1026v-147h-1026v147zM223 635h1026v-148h-1026v148z" />
    <glyph glyph-name="trademark" unicode="&#x2122;" horiz-adv-x="1581" 
d="M322 1370h-201v90h508v-90h-205v-536h-102v536zM752 1460h147l207 -483l205 483h147v-626h-98v512l-219 -512h-72l-221 512v-512h-96v626z" />
    <glyph glyph-name="estimated" unicode="&#x212e;" horiz-adv-x="1501" 
d="M758 -16q-423 0 -508 155q-43 80 -60.5 218t-17.5 411q0 276 26.5 421t106.5 206q112 82 467 82q194 0 303 -19.5t166 -64.5q26 -20 46.5 -49.5t34.5 -69t24.5 -76.5t16 -89t9 -88t4 -92.5t0.5 -84.5t-1 -80.5t-1 -65.5h-981v-43q0 -229 10.5 -342t36.5 -172
q50 -110 332 -110q147 0 256 14t150 39q54 32 82 107t40 215h52q-10 -154 -44.5 -238t-103.5 -125q-95 -59 -446 -59zM1153 915q0 212 -20 323t-82 148q-70 44 -279 44q-91 0 -169.5 -12.5t-106.5 -31.5q-62 -42 -82.5 -155.5t-20.5 -337.5v-148h760v170z" />
    <glyph glyph-name="carriagereturn" unicode="&#x21b5;" 
 />
    <glyph glyph-name="infinity" unicode="&#x221e;" horiz-adv-x="1720" 
d="M1214 276q-120 0 -210.5 64t-143.5 184q-66 -131 -149.5 -189.5t-206.5 -58.5q-158 0 -254 104.5t-96 276.5q0 179 95.5 284.5t258.5 105.5q239 0 354 -252q66 133 149.5 192.5t205.5 59.5q166 0 258 -108t92 -277q0 -177 -96 -281.5t-257 -104.5zM1204 420q98 -5 165 65
t67 179q0 103 -64.5 171t-167.5 68q-101 0 -161 -57t-113 -184q64 -233 274 -242zM516 420q98 0 164.5 58t110.5 181q-30 120 -102 182t-173 62q-102 0 -165.5 -69.5t-63.5 -174.5q0 -103 65 -171t164 -68z" />
    <glyph glyph-name="approxequal" unicode="&#x2248;" horiz-adv-x="1075" 
d="M154 612q0 138 32 186t123 48q77 0 221 -45t220 -45q42 0 59.5 26t17.5 88h95q0 -139 -31.5 -186t-124.5 -47q-76 0 -220 44t-220 44q-42 0 -60 -26t-18 -87h-94zM154 203q0 137 31.5 184t123.5 47q77 0 221 -44t220 -44q42 0 59.5 26t17.5 87h95q0 -138 -31.5 -185
t-124.5 -47q-76 0 -220 44t-220 44q-42 0 -60 -26t-18 -86h-94z" />
    <glyph glyph-name="notequal" unicode="&#x2260;" horiz-adv-x="1206" 
d="M274 -29l635 1135l97 -45l-637 -1135zM1053 666h-899v147h899v-147zM1053 309h-899v148h899v-148z" />
    <glyph glyph-name="lessequal" unicode="&#x2264;" horiz-adv-x="1206" 
d="M1053 -115h-899v148h899v-148zM184 616v140l834 342v-142l-658 -270l658 -270v-142z" />
    <glyph glyph-name="greaterequal" unicode="&#x2265;" horiz-adv-x="1206" 
d="M154 -115v148h899v-148h-899zM1022 616l-834 -342v142l658 270l-658 270v142l834 -342v-140z" />
    <glyph glyph-name="uni240A" unicode="&#x240a;" 
 />
    <glyph glyph-name="uni25AA" unicode="&#x25aa;" horiz-adv-x="1325" 
d="M1171 1149v-1018l-1017 -2l2 1018z" />
    <glyph glyph-name="uni25AB" unicode="&#x25ab;" horiz-adv-x="1249" 
d="M283 295h686v688l-686 -4v-684zM1096 1110v-942l-942 -2l2 942z" />
    <glyph glyph-name="uni25C2" unicode="&#x25c2;" horiz-adv-x="1206" 
d="M1053 1214l-2 -1122l-897 563z" />
    <glyph glyph-name="uni25C3" unicode="&#x25c3;" horiz-adv-x="1206" 
d="M948 291v731l-600 -367zM1051 1217l2 -1123l-899 561z" />
    </font>
</defs>
</svg>
